M48
; DRILL file {KiCad 6.0.6-2.fc35} date Fri 15 Jul 2022 01:41:52 AM CEST
; FORMAT={-:-/ absolute / metric / decimal}
; #@! TF.CreationDate,2022-07-15T01:41:52+02:00
; #@! TF.GenerationSoftware,Kicad,Pcbnew,6.0.6-2.fc35
; #@! TF.FileFunction,Plated,1,4,PTH
FMAT,2
METRIC
; #@! TA.AperFunction,Plated,PTH,ComponentDrill
T1C0.300
; #@! TA.AperFunction,Plated,PTH,ViaDrill
T2C0.400
; #@! TA.AperFunction,Plated,PTH,ViaDrill
T3C0.600
; #@! TA.AperFunction,Plated,PTH,ComponentDrill
T4C0.800
; #@! TA.AperFunction,Plated,PTH,ComponentDrill
T5C1.000
; #@! TA.AperFunction,Plated,PTH,ComponentDrill
T6C1.100
; #@! TA.AperFunction,Plated,PTH,ComponentDrill
T7C1.300
; #@! TA.AperFunction,Plated,PTH,ComponentDrill
T8C1.400
; #@! TA.AperFunction,Plated,PTH,ComponentDrill
T9C3.500
%
G90
G05
T1
X131.7Y-127.85
X131.7Y-129.15
X131.7Y-130.45
X131.7Y-131.75
X131.7Y-133.05
X131.7Y-134.35
X133.0Y-127.85
X133.0Y-129.15
X133.0Y-130.45
X133.0Y-131.75
X133.0Y-133.05
X133.0Y-134.35
X134.3Y-127.85
X134.3Y-129.15
X134.3Y-130.45
X134.3Y-131.75
X134.3Y-133.05
X134.3Y-134.35
T2
X92.65Y-109.55
X93.1Y-144.0
X93.5Y-138.1
X94.0Y-133.3
X97.3Y-109.6
X98.5Y-134.9
X99.9Y-114.3
X100.3Y-121.9
X100.35Y-130.1
X100.6Y-139.8
X101.7Y-121.9
X101.9Y-109.6
X103.7Y-134.0
X103.8Y-116.0
X105.4Y-131.8
X105.5Y-115.9
X105.65Y-122.65
X106.4Y-109.6
X106.4Y-134.4
X106.6Y-139.7
X108.0Y-133.3
X108.8Y-118.0
X109.7Y-117.1
X110.0Y-102.5
X110.1Y-129.5
X111.1Y-129.85
X111.45Y-120.05
X113.0Y-133.15
X113.0Y-134.4
X113.5Y-61.0
X113.5Y-62.0
X113.5Y-63.0
X113.5Y-64.0
X113.5Y-65.0
X113.5Y-66.0
X113.5Y-67.0
X113.5Y-139.5
X114.5Y-61.0
X114.5Y-62.0
X114.5Y-63.0
X114.5Y-64.0
X114.5Y-65.0
X114.5Y-66.0
X114.5Y-67.0
X115.2Y-126.3
X116.137Y-126.648
X116.25Y-136.0
X117.0Y-70.8
X117.0Y-72.0
X117.0Y-73.3
X117.0Y-74.5
X118.0Y-70.0
X118.0Y-71.0
X118.0Y-72.0
X118.0Y-73.0
X118.0Y-74.0
X118.0Y-75.0
X120.0Y-108.0
X120.0Y-117.0
X120.0Y-122.0
X120.0Y-127.0
X120.0Y-141.0
X120.0Y-145.0
X120.0Y-147.0
X120.0Y-149.0
X120.0Y-151.0
X120.0Y-153.0
X120.05Y-105.7
X122.65Y-126.6
X123.55Y-117.1
X123.55Y-119.9
X123.6Y-122.2
X123.85Y-111.2
X125.75Y-134.2
X125.85Y-138.1
X127.0Y-111.2
X127.0Y-155.0
X127.25Y-145.8
X127.5Y-149.8
X128.165Y-128.025
X128.2Y-134.174
X131.3Y-111.2
X132.0Y-155.0
X132.3Y-109.2
X133.4Y-138.1
X133.5Y-124.1
X134.0Y-108.3
X135.4Y-142.2
X135.45Y-110.05
X137.0Y-155.0
X138.7Y-131.1
X139.45Y-119.9
X139.5Y-116.2
X139.6Y-131.7
X139.7Y-151.65
X141.45Y-151.9
X141.6Y-144.8
X142.0Y-155.0
X143.15Y-148.5
X147.0Y-155.0
X152.0Y-155.0
X155.9Y-62.1
X156.0Y-74.9
X156.1Y-66.0
X156.1Y-67.1
X156.9Y-59.0
X157.0Y-155.0
X157.2Y-66.0
X157.2Y-67.1
X157.3Y-64.5
X157.3Y-68.5
X159.0Y-80.15
X162.0Y-155.0
X162.9Y-75.2
X164.0Y-61.7
X165.0Y-70.0
X165.0Y-75.0
X167.0Y-75.0
X167.0Y-155.0
X167.75Y-111.75
X167.75Y-112.85
X169.0Y-75.4
X169.3Y-61.7
X172.0Y-71.8
X172.0Y-72.7
X172.0Y-155.0
X173.0Y-66.0
X173.0Y-71.8
X173.0Y-72.7
X174.3Y-61.7
X175.0Y-84.5
X176.0Y-75.7
X176.0Y-84.5
X177.0Y-84.5
X177.0Y-155.0
X178.2Y-103.55
X179.3Y-61.7
X179.7Y-81.0
X180.0Y-87.0
X180.0Y-91.0
X180.6Y-84.2
X181.35Y-85.9
X182.0Y-155.0
X183.0Y-77.0
X183.0Y-81.0
X183.0Y-85.0
X183.0Y-94.0
X184.0Y-69.0
X184.0Y-91.0
X184.3Y-61.7
X185.0Y-63.0
X185.0Y-67.0
X185.0Y-72.0
X185.0Y-76.0
X185.5Y-82.05
X187.0Y-155.0
X187.3Y-61.7
X187.9Y-84.45
X188.0Y-94.0
X189.85Y-64.15
X190.45Y-78.4
X190.5Y-62.0
X190.5Y-99.3
X191.3Y-66.7
X192.0Y-155.0
X192.3Y-103.3
X192.8Y-83.4
X193.0Y-91.0
X193.0Y-94.0
X194.0Y-66.8
X194.0Y-83.4
X194.1Y-78.3
X195.2Y-83.4
X195.2Y-84.3
X195.6Y-78.4
X195.6Y-82.05
X195.6Y-111.0
X196.0Y-59.0
X196.0Y-62.0
X197.0Y-68.95
X197.0Y-155.0
X197.3Y-107.15
X197.5Y-99.0
X198.0Y-94.0
X198.1Y-84.55
X199.05Y-86.4
X201.0Y-59.0
X202.0Y-155.0
X203.0Y-94.0
X204.0Y-91.0
X206.0Y-59.0
X208.0Y-94.0
X208.0Y-105.0
X208.0Y-110.0
X208.0Y-115.0
X208.0Y-120.0
X208.0Y-125.0
X208.0Y-130.0
X208.0Y-135.0
X208.0Y-140.0
X208.0Y-145.0
X208.0Y-150.0
X209.0Y-61.0
X209.0Y-66.0
X209.0Y-71.0
X209.0Y-76.0
X209.0Y-81.0
X209.0Y-86.0
X209.0Y-91.0
T3
X99.0Y-77.85
X105.1Y-78.95
X116.8Y-61.0
X116.9Y-63.0
X145.0Y-131.1
X193.0Y-95.4
T4
X100.3Y-89.5
X113.0Y-89.5
X119.42Y-87.84
X119.42Y-90.38
X119.42Y-92.92
X119.42Y-98.0
X124.5Y-87.84
X124.5Y-90.38
X124.5Y-92.92
X124.5Y-98.18
X128.0Y-61.0
X128.0Y-63.0
X129.42Y-87.84
X129.42Y-90.38
X129.42Y-92.92
X129.42Y-98.0
X134.5Y-87.84
X134.5Y-90.38
X134.5Y-92.92
X134.5Y-98.0
X139.42Y-87.84
X139.42Y-90.38
X139.42Y-92.92
X139.42Y-98.0
X144.5Y-87.84
X144.5Y-90.38
X144.5Y-92.92
X144.5Y-98.0
X146.0Y-64.0
X146.0Y-66.0
X146.0Y-71.045
X146.0Y-73.045
X149.42Y-87.84
X149.42Y-90.38
X149.42Y-92.92
X149.42Y-98.0
X154.5Y-87.84
X154.5Y-90.38
X154.5Y-92.92
X154.5Y-98.0
X161.0Y-66.0
X161.0Y-68.0
X166.6Y-124.1
X166.6Y-129.1
X166.6Y-132.9
X166.6Y-137.9
X181.28Y-88.6
X181.28Y-96.22
X183.82Y-88.6
X183.82Y-96.22
X186.36Y-88.6
X186.36Y-96.22
X188.9Y-88.6
X188.9Y-96.22
X196.9Y-88.6
X196.9Y-96.22
X199.44Y-88.6
X199.44Y-96.22
X201.98Y-88.6
X201.98Y-96.22
X204.52Y-88.6
X204.52Y-96.22
T5
X99.38Y-148.213
X99.38Y-150.752
X101.92Y-148.213
X101.92Y-150.752
X104.46Y-148.213
X104.46Y-150.752
X107.0Y-148.213
X107.0Y-150.752
X109.0Y-82.0
X109.54Y-148.213
X109.54Y-150.752
X112.08Y-148.213
X112.08Y-150.752
X113.0Y-93.3
X113.0Y-95.84
X113.0Y-98.38
X113.0Y-100.92
X113.0Y-103.46
X113.0Y-106.0
X114.0Y-82.0
X114.62Y-148.213
X114.62Y-150.752
X130.0Y-116.1
X130.0Y-146.1
X135.0Y-116.1
X135.0Y-146.1
X138.55Y-62.6
X138.55Y-65.14
X138.55Y-70.22
X138.55Y-72.76
X138.55Y-75.3
X158.0Y-103.475
X158.0Y-106.015
X158.0Y-108.555
X167.0Y-103.475
X167.0Y-106.015
X167.0Y-108.555
X172.6Y-124.1
X172.6Y-139.0
X177.6Y-124.1
X177.6Y-139.0
T6
X163.92Y-80.0
X166.46Y-80.0
X168.055Y-65.46
X168.055Y-68.0
X168.055Y-70.54
X169.0Y-80.0
T7
X180.425Y-104.4
X182.925Y-114.4
X185.425Y-104.4
X187.6Y-123.6
X187.6Y-128.6
X187.6Y-133.6
X187.6Y-138.6
X200.9Y-104.4
X203.4Y-114.4
X205.9Y-104.4
T8
X97.25Y-84.0
X158.0Y-72.0
T9
X122.5Y-70.05
X166.5Y-90.0
X166.5Y-147.95
X179.5Y-70.05
T5
X96.2Y-66.0G85X96.2Y-68.0
G05
X98.2Y-71.7G85X100.2Y-71.7
G05
X102.2Y-66.0G85X102.2Y-68.0
G05
T0
M30
