%TF.GenerationSoftware,KiCad,Pcbnew,7.0.2-1.fc37*%
%TF.CreationDate,2023-07-20T12:52:38+02:00*%
%TF.ProjectId,office_amp,6f666669-6365-45f6-916d-702e6b696361,V1.3*%
%TF.SameCoordinates,Original*%
%TF.FileFunction,Plated,1,2,PTH,Mixed*%
%TF.FilePolarity,Positive*%
%FSLAX46Y46*%
G04 Gerber Fmt 4.6, Leading zero omitted, Abs format (unit mm)*
G04 Created by KiCad (PCBNEW 7.0.2-1.fc37) date 2023-07-20 12:52:38*
%MOMM*%
%LPD*%
G01*
G04 APERTURE LIST*
%TA.AperFunction,ViaDrill*%
%ADD10C,0.800000*%
%TD*%
%TA.AperFunction,ComponentDrill*%
%ADD11C,0.800000*%
%TD*%
G04 aperture for slot hole*
%TA.AperFunction,ComponentDrill*%
%ADD12O,1.000000X3.000000*%
%TD*%
G04 aperture for slot hole*
%TA.AperFunction,ComponentDrill*%
%ADD13O,3.000000X1.000000*%
%TD*%
%TA.AperFunction,ComponentDrill*%
%ADD14C,1.000000*%
%TD*%
%TA.AperFunction,ComponentDrill*%
%ADD15C,1.100000*%
%TD*%
%TA.AperFunction,ComponentDrill*%
%ADD16C,1.200000*%
%TD*%
%TA.AperFunction,ComponentDrill*%
%ADD17C,1.400000*%
%TD*%
%TA.AperFunction,ComponentDrill*%
%ADD18C,3.200000*%
%TD*%
G04 APERTURE END LIST*
D10*
X97300000Y-85117677D03*
X104100000Y-73917677D03*
X116300000Y-73917677D03*
X121400000Y-69700000D03*
X123000000Y-128900000D03*
X123050000Y-143050000D03*
X123600000Y-114150000D03*
X126900000Y-83000000D03*
X128700000Y-112650000D03*
X132900000Y-85950000D03*
X133400000Y-118100000D03*
X141450000Y-145700000D03*
X141600000Y-98950000D03*
X144150000Y-145650000D03*
X145000000Y-127200000D03*
X155700000Y-59950000D03*
X191100000Y-108000000D03*
X191950000Y-81000000D03*
D11*
%TO.C,C7*%
X103000000Y-126000000D03*
X103000000Y-128000000D03*
%TO.C,C13*%
X118000000Y-131000000D03*
X118000000Y-133000000D03*
%TO.C,C12*%
X118000000Y-139000000D03*
X118000000Y-141000000D03*
%TO.C,C14*%
X145000000Y-89920000D03*
X145000000Y-91920000D03*
%TO.C,C17*%
X145000000Y-96920000D03*
X145000000Y-98920000D03*
%TO.C,C11*%
X148000000Y-73920000D03*
X150000000Y-73920000D03*
D12*
%TO.C,J1*%
X94000000Y-75460177D03*
D13*
X97000000Y-80160177D03*
D12*
X100000000Y-75460177D03*
D14*
%TO.C,U4*%
X113000000Y-125840000D03*
X113000000Y-128380000D03*
X113000000Y-133460000D03*
X113000000Y-136000000D03*
X113000000Y-138540000D03*
%TO.C,C4*%
X123300000Y-73950000D03*
X123300000Y-78950000D03*
%TO.C,J2*%
X138615000Y-150160000D03*
%TO.C,C9*%
X139000000Y-73920000D03*
X139000000Y-78920000D03*
%TO.C,J2*%
X140000000Y-153000000D03*
X141385000Y-150160000D03*
X142770000Y-153000000D03*
X144155000Y-150160000D03*
X145540000Y-153000000D03*
%TO.C,L3*%
X146500000Y-82920000D03*
%TO.C,J2*%
X146925000Y-150160000D03*
X148310000Y-153000000D03*
X149695000Y-150160000D03*
%TO.C,L3*%
X151500000Y-82920000D03*
D15*
%TO.C,L2*%
X130300000Y-65920000D03*
%TO.C,U3*%
X133000000Y-91920000D03*
X133000000Y-94460000D03*
X133000000Y-97000000D03*
%TO.C,U5*%
X152000000Y-91920000D03*
X152000000Y-94460000D03*
X152000000Y-97000000D03*
%TO.C,L2*%
X155700000Y-65920000D03*
%TO.C,L1*%
X173000000Y-69300000D03*
X173000000Y-94700000D03*
%TO.C,D1*%
X179000000Y-79000000D03*
X179000000Y-84080000D03*
%TO.C,U2*%
X185000000Y-78300000D03*
X185000000Y-80000000D03*
X185000000Y-81700000D03*
X185000000Y-83400000D03*
X185000000Y-85100000D03*
D16*
%TO.C,C6*%
X181000000Y-94000000D03*
%TO.C,C5*%
X181000000Y-108000000D03*
%TO.C,C2*%
X184000000Y-68000000D03*
%TO.C,C6*%
X186000000Y-94000000D03*
%TO.C,C5*%
X186000000Y-108000000D03*
%TO.C,C2*%
X189000000Y-68000000D03*
D17*
%TO.C,TP2*%
X123000000Y-85000000D03*
%TO.C,TP7*%
X128000000Y-136000000D03*
D18*
%TO.C,J2*%
X131655000Y-150460000D03*
X156655000Y-150460000D03*
M02*
