G04 #@! TF.GenerationSoftware,KiCad,Pcbnew,6.0.6-2.fc35*
G04 #@! TF.CreationDate,2022-07-15T01:41:46+02:00*
G04 #@! TF.ProjectId,office_amp,6f666669-6365-45f6-916d-702e6b696361,rev?*
G04 #@! TF.SameCoordinates,Original*
G04 #@! TF.FileFunction,Legend,Bot*
G04 #@! TF.FilePolarity,Positive*
%FSLAX46Y46*%
G04 Gerber Fmt 4.6, Leading zero omitted, Abs format (unit mm)*
G04 Created by KiCad (PCBNEW 6.0.6-2.fc35) date 2022-07-15 01:41:46*
%MOMM*%
%LPD*%
G01*
G04 APERTURE LIST*
G04 Aperture macros list*
%AMRoundRect*
0 Rectangle with rounded corners*
0 $1 Rounding radius*
0 $2 $3 $4 $5 $6 $7 $8 $9 X,Y pos of 4 corners*
0 Add a 4 corners polygon primitive as box body*
4,1,4,$2,$3,$4,$5,$6,$7,$8,$9,$2,$3,0*
0 Add four circle primitives for the rounded corners*
1,1,$1+$1,$2,$3*
1,1,$1+$1,$4,$5*
1,1,$1+$1,$6,$7*
1,1,$1+$1,$8,$9*
0 Add four rect primitives between the rounded corners*
20,1,$1+$1,$2,$3,$4,$5,0*
20,1,$1+$1,$4,$5,$6,$7,0*
20,1,$1+$1,$6,$7,$8,$9,0*
20,1,$1+$1,$8,$9,$2,$3,0*%
%AMFreePoly0*
4,1,22,0.500000,-0.750000,0.000000,-0.750000,0.000000,-0.745033,-0.079941,-0.743568,-0.215256,-0.701293,-0.333266,-0.622738,-0.424486,-0.514219,-0.481581,-0.384460,-0.499164,-0.250000,-0.500000,-0.250000,-0.500000,0.250000,-0.499164,0.250000,-0.499963,0.256109,-0.478152,0.396186,-0.417904,0.524511,-0.324060,0.630769,-0.204165,0.706417,-0.067858,0.745374,0.000000,0.744959,0.000000,0.750000,
0.500000,0.750000,0.500000,-0.750000,0.500000,-0.750000,$1*%
%AMFreePoly1*
4,1,20,0.000000,0.744959,0.073905,0.744508,0.209726,0.703889,0.328688,0.626782,0.421226,0.519385,0.479903,0.390333,0.500000,0.250000,0.500000,-0.250000,0.499851,-0.262216,0.476331,-0.402017,0.414519,-0.529596,0.319384,-0.634700,0.198574,-0.708877,0.061801,-0.746166,0.000000,-0.745033,0.000000,-0.750000,-0.500000,-0.750000,-0.500000,0.750000,0.000000,0.750000,0.000000,0.744959,
0.000000,0.744959,$1*%
G04 Aperture macros list end*
%ADD10C,0.150000*%
%ADD11C,0.120000*%
%ADD12RoundRect,0.150000X0.587500X0.150000X-0.587500X0.150000X-0.587500X-0.150000X0.587500X-0.150000X0*%
%ADD13R,3.500000X3.500000*%
%ADD14RoundRect,0.750000X-0.750000X-1.000000X0.750000X-1.000000X0.750000X1.000000X-0.750000X1.000000X0*%
%ADD15RoundRect,0.875000X-0.875000X-0.875000X0.875000X-0.875000X0.875000X0.875000X-0.875000X0.875000X0*%
%ADD16R,1.600000X1.600000*%
%ADD17C,1.700000*%
%ADD18C,1.900000*%
%ADD19R,2.000000X2.000000*%
%ADD20C,2.000000*%
%ADD21RoundRect,0.250000X0.600000X-0.600000X0.600000X0.600000X-0.600000X0.600000X-0.600000X-0.600000X0*%
%ADD22C,1.600000*%
%ADD23RoundRect,0.250500X0.499500X0.499500X-0.499500X0.499500X-0.499500X-0.499500X0.499500X-0.499500X0*%
%ADD24C,1.500000*%
%ADD25C,2.340000*%
%ADD26R,1.905000X2.000000*%
%ADD27O,1.905000X2.000000*%
%ADD28O,1.600000X1.600000*%
%ADD29R,1.700000X1.700000*%
%ADD30O,1.700000X1.700000*%
%ADD31R,2.500000X2.500000*%
%ADD32C,2.500000*%
%ADD33C,7.000000*%
%ADD34C,2.800000*%
%ADD35R,2.000000X1.905000*%
%ADD36O,2.000000X1.905000*%
%ADD37RoundRect,0.250000X0.475000X-0.337500X0.475000X0.337500X-0.475000X0.337500X-0.475000X-0.337500X0*%
%ADD38RoundRect,0.250000X0.350000X0.450000X-0.350000X0.450000X-0.350000X-0.450000X0.350000X-0.450000X0*%
%ADD39RoundRect,0.250000X-0.350000X-0.450000X0.350000X-0.450000X0.350000X0.450000X-0.350000X0.450000X0*%
%ADD40RoundRect,0.250000X0.450000X-0.350000X0.450000X0.350000X-0.450000X0.350000X-0.450000X-0.350000X0*%
%ADD41FreePoly0,0.000000*%
%ADD42FreePoly1,0.000000*%
%ADD43RoundRect,0.150000X0.150000X-0.587500X0.150000X0.587500X-0.150000X0.587500X-0.150000X-0.587500X0*%
%ADD44FreePoly0,180.000000*%
%ADD45FreePoly1,180.000000*%
G04 APERTURE END LIST*
D10*
X195500000Y-150200000D02*
X195100000Y-150200000D01*
X196600000Y-145800000D02*
X196600000Y-150200000D01*
X195100000Y-145800000D02*
X196600000Y-147600000D01*
X198000000Y-150200000D02*
X199400000Y-150200000D01*
X198700000Y-144800000D02*
X198700000Y-145800000D01*
X195100000Y-149700000D02*
X195100000Y-150200000D01*
X195100000Y-150200000D02*
X196600000Y-148400000D01*
X199400000Y-150200000D02*
X199400000Y-145800000D01*
X199400000Y-145800000D02*
X198000000Y-145800000D01*
X156500000Y-132700000D02*
X156500000Y-133200000D01*
X198700000Y-151200000D02*
X198700000Y-150200000D01*
X198000000Y-145800000D02*
X198000000Y-150200000D01*
X198000000Y-148000000D02*
X196600000Y-148000000D01*
X199566666Y-152428571D02*
X199566666Y-152961904D01*
X199757142Y-152123809D02*
X199947619Y-152695238D01*
X199452380Y-152695238D01*
X199185714Y-152238095D02*
X199147619Y-152200000D01*
X199071428Y-152161904D01*
X198880952Y-152161904D01*
X198804761Y-152200000D01*
X198766666Y-152238095D01*
X198728571Y-152314285D01*
X198728571Y-152390476D01*
X198766666Y-152504761D01*
X199223809Y-152961904D01*
X198728571Y-152961904D01*
X198500000Y-152161904D02*
X198233333Y-152961904D01*
X197966666Y-152161904D01*
X197585714Y-152961904D02*
X197661904Y-152923809D01*
X197700000Y-152885714D01*
X197738095Y-152809523D01*
X197738095Y-152580952D01*
X197700000Y-152504761D01*
X197661904Y-152466666D01*
X197585714Y-152428571D01*
X197471428Y-152428571D01*
X197395238Y-152466666D01*
X197357142Y-152504761D01*
X197319047Y-152580952D01*
X197319047Y-152809523D01*
X197357142Y-152885714D01*
X197395238Y-152923809D01*
X197471428Y-152961904D01*
X197585714Y-152961904D01*
X196861904Y-152961904D02*
X196938095Y-152923809D01*
X196976190Y-152847619D01*
X196976190Y-152161904D01*
X196671428Y-152428571D02*
X196366666Y-152428571D01*
X196557142Y-152161904D02*
X196557142Y-152847619D01*
X196519047Y-152923809D01*
X196442857Y-152961904D01*
X196366666Y-152961904D01*
X196100000Y-152885714D02*
X196061904Y-152923809D01*
X196100000Y-152961904D01*
X196138095Y-152923809D01*
X196100000Y-152885714D01*
X196100000Y-152961904D01*
X195376190Y-152961904D02*
X195376190Y-152161904D01*
X195376190Y-152923809D02*
X195452380Y-152961904D01*
X195604761Y-152961904D01*
X195680952Y-152923809D01*
X195719047Y-152885714D01*
X195757142Y-152809523D01*
X195757142Y-152580952D01*
X195719047Y-152504761D01*
X195680952Y-152466666D01*
X195604761Y-152428571D01*
X195452380Y-152428571D01*
X195376190Y-152466666D01*
X194690476Y-152923809D02*
X194766666Y-152961904D01*
X194919047Y-152961904D01*
X194995238Y-152923809D01*
X195033333Y-152847619D01*
X195033333Y-152542857D01*
X194995238Y-152466666D01*
X194919047Y-152428571D01*
X194766666Y-152428571D01*
X194690476Y-152466666D01*
X194652380Y-152542857D01*
X194652380Y-152619047D01*
X195033333Y-152695238D01*
X114508928Y-122947619D02*
X114604166Y-122900000D01*
X114699404Y-122804761D01*
X114842261Y-122661904D01*
X114937500Y-122614285D01*
X115032738Y-122614285D01*
X114985119Y-122852380D02*
X115080357Y-122804761D01*
X115175595Y-122709523D01*
X115223214Y-122519047D01*
X115223214Y-122185714D01*
X115175595Y-121995238D01*
X115080357Y-121900000D01*
X114985119Y-121852380D01*
X114794642Y-121852380D01*
X114699404Y-121900000D01*
X114604166Y-121995238D01*
X114556547Y-122185714D01*
X114556547Y-122519047D01*
X114604166Y-122709523D01*
X114699404Y-122804761D01*
X114794642Y-122852380D01*
X114985119Y-122852380D01*
X113604166Y-122852380D02*
X114175595Y-122852380D01*
X113889880Y-122852380D02*
X113889880Y-121852380D01*
X113985119Y-121995238D01*
X114080357Y-122090476D01*
X114175595Y-122138095D01*
X112651785Y-122852380D02*
X113223214Y-122852380D01*
X112937500Y-122852380D02*
X112937500Y-121852380D01*
X113032738Y-121995238D01*
X113127976Y-122090476D01*
X113223214Y-122138095D01*
X114471428Y-114647619D02*
X114566666Y-114600000D01*
X114661904Y-114504761D01*
X114804761Y-114361904D01*
X114900000Y-114314285D01*
X114995238Y-114314285D01*
X114947619Y-114552380D02*
X115042857Y-114504761D01*
X115138095Y-114409523D01*
X115185714Y-114219047D01*
X115185714Y-113885714D01*
X115138095Y-113695238D01*
X115042857Y-113600000D01*
X114947619Y-113552380D01*
X114757142Y-113552380D01*
X114661904Y-113600000D01*
X114566666Y-113695238D01*
X114519047Y-113885714D01*
X114519047Y-114219047D01*
X114566666Y-114409523D01*
X114661904Y-114504761D01*
X114757142Y-114552380D01*
X114947619Y-114552380D01*
X113566666Y-114552380D02*
X114138095Y-114552380D01*
X113852380Y-114552380D02*
X113852380Y-113552380D01*
X113947619Y-113695238D01*
X114042857Y-113790476D01*
X114138095Y-113838095D01*
X112947619Y-113552380D02*
X112852380Y-113552380D01*
X112757142Y-113600000D01*
X112709523Y-113647619D01*
X112661904Y-113742857D01*
X112614285Y-113933333D01*
X112614285Y-114171428D01*
X112661904Y-114361904D01*
X112709523Y-114457142D01*
X112757142Y-114504761D01*
X112852380Y-114552380D01*
X112947619Y-114552380D01*
X113042857Y-114504761D01*
X113090476Y-114457142D01*
X113138095Y-114361904D01*
X113185714Y-114171428D01*
X113185714Y-113933333D01*
X113138095Y-113742857D01*
X113090476Y-113647619D01*
X113042857Y-113600000D01*
X112947619Y-113552380D01*
X141357142Y-125107142D02*
X141404761Y-125059523D01*
X141452380Y-124916666D01*
X141452380Y-124821428D01*
X141404761Y-124678571D01*
X141309523Y-124583333D01*
X141214285Y-124535714D01*
X141023809Y-124488095D01*
X140880952Y-124488095D01*
X140690476Y-124535714D01*
X140595238Y-124583333D01*
X140500000Y-124678571D01*
X140452380Y-124821428D01*
X140452380Y-124916666D01*
X140500000Y-125059523D01*
X140547619Y-125107142D01*
X141452380Y-126059523D02*
X141452380Y-125488095D01*
X141452380Y-125773809D02*
X140452380Y-125773809D01*
X140595238Y-125678571D01*
X140690476Y-125583333D01*
X140738095Y-125488095D01*
X140452380Y-126392857D02*
X140452380Y-127011904D01*
X140833333Y-126678571D01*
X140833333Y-126821428D01*
X140880952Y-126916666D01*
X140928571Y-126964285D01*
X141023809Y-127011904D01*
X141261904Y-127011904D01*
X141357142Y-126964285D01*
X141404761Y-126916666D01*
X141452380Y-126821428D01*
X141452380Y-126535714D01*
X141404761Y-126440476D01*
X141357142Y-126392857D01*
X111416666Y-136452380D02*
X111750000Y-135976190D01*
X111988095Y-136452380D02*
X111988095Y-135452380D01*
X111607142Y-135452380D01*
X111511904Y-135500000D01*
X111464285Y-135547619D01*
X111416666Y-135642857D01*
X111416666Y-135785714D01*
X111464285Y-135880952D01*
X111511904Y-135928571D01*
X111607142Y-135976190D01*
X111988095Y-135976190D01*
X110464285Y-136452380D02*
X111035714Y-136452380D01*
X110750000Y-136452380D02*
X110750000Y-135452380D01*
X110845238Y-135595238D01*
X110940476Y-135690476D01*
X111035714Y-135738095D01*
X104666666Y-136452380D02*
X105000000Y-135976190D01*
X105238095Y-136452380D02*
X105238095Y-135452380D01*
X104857142Y-135452380D01*
X104761904Y-135500000D01*
X104714285Y-135547619D01*
X104666666Y-135642857D01*
X104666666Y-135785714D01*
X104714285Y-135880952D01*
X104761904Y-135928571D01*
X104857142Y-135976190D01*
X105238095Y-135976190D01*
X104285714Y-135547619D02*
X104238095Y-135500000D01*
X104142857Y-135452380D01*
X103904761Y-135452380D01*
X103809523Y-135500000D01*
X103761904Y-135547619D01*
X103714285Y-135642857D01*
X103714285Y-135738095D01*
X103761904Y-135880952D01*
X104333333Y-136452380D01*
X103714285Y-136452380D01*
X98316666Y-136452380D02*
X98650000Y-135976190D01*
X98888095Y-136452380D02*
X98888095Y-135452380D01*
X98507142Y-135452380D01*
X98411904Y-135500000D01*
X98364285Y-135547619D01*
X98316666Y-135642857D01*
X98316666Y-135785714D01*
X98364285Y-135880952D01*
X98411904Y-135928571D01*
X98507142Y-135976190D01*
X98888095Y-135976190D01*
X97983333Y-135452380D02*
X97364285Y-135452380D01*
X97697619Y-135833333D01*
X97554761Y-135833333D01*
X97459523Y-135880952D01*
X97411904Y-135928571D01*
X97364285Y-136023809D01*
X97364285Y-136261904D01*
X97411904Y-136357142D01*
X97459523Y-136404761D01*
X97554761Y-136452380D01*
X97840476Y-136452380D01*
X97935714Y-136404761D01*
X97983333Y-136357142D01*
X91816666Y-136452380D02*
X92150000Y-135976190D01*
X92388095Y-136452380D02*
X92388095Y-135452380D01*
X92007142Y-135452380D01*
X91911904Y-135500000D01*
X91864285Y-135547619D01*
X91816666Y-135642857D01*
X91816666Y-135785714D01*
X91864285Y-135880952D01*
X91911904Y-135928571D01*
X92007142Y-135976190D01*
X92388095Y-135976190D01*
X90959523Y-135785714D02*
X90959523Y-136452380D01*
X91197619Y-135404761D02*
X91435714Y-136119047D01*
X90816666Y-136119047D01*
X143357142Y-125107142D02*
X143404761Y-125059523D01*
X143452380Y-124916666D01*
X143452380Y-124821428D01*
X143404761Y-124678571D01*
X143309523Y-124583333D01*
X143214285Y-124535714D01*
X143023809Y-124488095D01*
X142880952Y-124488095D01*
X142690476Y-124535714D01*
X142595238Y-124583333D01*
X142500000Y-124678571D01*
X142452380Y-124821428D01*
X142452380Y-124916666D01*
X142500000Y-125059523D01*
X142547619Y-125107142D01*
X143452380Y-126059523D02*
X143452380Y-125488095D01*
X143452380Y-125773809D02*
X142452380Y-125773809D01*
X142595238Y-125678571D01*
X142690476Y-125583333D01*
X142738095Y-125488095D01*
X142547619Y-126440476D02*
X142500000Y-126488095D01*
X142452380Y-126583333D01*
X142452380Y-126821428D01*
X142500000Y-126916666D01*
X142547619Y-126964285D01*
X142642857Y-127011904D01*
X142738095Y-127011904D01*
X142880952Y-126964285D01*
X143452380Y-126392857D01*
X143452380Y-127011904D01*
X129142857Y-108102380D02*
X129476190Y-107626190D01*
X129714285Y-108102380D02*
X129714285Y-107102380D01*
X129333333Y-107102380D01*
X129238095Y-107150000D01*
X129190476Y-107197619D01*
X129142857Y-107292857D01*
X129142857Y-107435714D01*
X129190476Y-107530952D01*
X129238095Y-107578571D01*
X129333333Y-107626190D01*
X129714285Y-107626190D01*
X128190476Y-108102380D02*
X128761904Y-108102380D01*
X128476190Y-108102380D02*
X128476190Y-107102380D01*
X128571428Y-107245238D01*
X128666666Y-107340476D01*
X128761904Y-107388095D01*
X127619047Y-107530952D02*
X127714285Y-107483333D01*
X127761904Y-107435714D01*
X127809523Y-107340476D01*
X127809523Y-107292857D01*
X127761904Y-107197619D01*
X127714285Y-107150000D01*
X127619047Y-107102380D01*
X127428571Y-107102380D01*
X127333333Y-107150000D01*
X127285714Y-107197619D01*
X127238095Y-107292857D01*
X127238095Y-107340476D01*
X127285714Y-107435714D01*
X127333333Y-107483333D01*
X127428571Y-107530952D01*
X127619047Y-107530952D01*
X127714285Y-107578571D01*
X127761904Y-107626190D01*
X127809523Y-107721428D01*
X127809523Y-107911904D01*
X127761904Y-108007142D01*
X127714285Y-108054761D01*
X127619047Y-108102380D01*
X127428571Y-108102380D01*
X127333333Y-108054761D01*
X127285714Y-108007142D01*
X127238095Y-107911904D01*
X127238095Y-107721428D01*
X127285714Y-107626190D01*
X127333333Y-107578571D01*
X127428571Y-107530952D01*
X96142857Y-146102380D02*
X96476190Y-145626190D01*
X96714285Y-146102380D02*
X96714285Y-145102380D01*
X96333333Y-145102380D01*
X96238095Y-145150000D01*
X96190476Y-145197619D01*
X96142857Y-145292857D01*
X96142857Y-145435714D01*
X96190476Y-145530952D01*
X96238095Y-145578571D01*
X96333333Y-145626190D01*
X96714285Y-145626190D01*
X95761904Y-145197619D02*
X95714285Y-145150000D01*
X95619047Y-145102380D01*
X95380952Y-145102380D01*
X95285714Y-145150000D01*
X95238095Y-145197619D01*
X95190476Y-145292857D01*
X95190476Y-145388095D01*
X95238095Y-145530952D01*
X95809523Y-146102380D01*
X95190476Y-146102380D01*
X94333333Y-145435714D02*
X94333333Y-146102380D01*
X94571428Y-145054761D02*
X94809523Y-145769047D01*
X94190476Y-145769047D01*
X115642857Y-146452380D02*
X115976190Y-145976190D01*
X116214285Y-146452380D02*
X116214285Y-145452380D01*
X115833333Y-145452380D01*
X115738095Y-145500000D01*
X115690476Y-145547619D01*
X115642857Y-145642857D01*
X115642857Y-145785714D01*
X115690476Y-145880952D01*
X115738095Y-145928571D01*
X115833333Y-145976190D01*
X116214285Y-145976190D01*
X115261904Y-145547619D02*
X115214285Y-145500000D01*
X115119047Y-145452380D01*
X114880952Y-145452380D01*
X114785714Y-145500000D01*
X114738095Y-145547619D01*
X114690476Y-145642857D01*
X114690476Y-145738095D01*
X114738095Y-145880952D01*
X115309523Y-146452380D01*
X114690476Y-146452380D01*
X114119047Y-145880952D02*
X114214285Y-145833333D01*
X114261904Y-145785714D01*
X114309523Y-145690476D01*
X114309523Y-145642857D01*
X114261904Y-145547619D01*
X114214285Y-145500000D01*
X114119047Y-145452380D01*
X113928571Y-145452380D01*
X113833333Y-145500000D01*
X113785714Y-145547619D01*
X113738095Y-145642857D01*
X113738095Y-145690476D01*
X113785714Y-145785714D01*
X113833333Y-145833333D01*
X113928571Y-145880952D01*
X114119047Y-145880952D01*
X114214285Y-145928571D01*
X114261904Y-145976190D01*
X114309523Y-146071428D01*
X114309523Y-146261904D01*
X114261904Y-146357142D01*
X114214285Y-146404761D01*
X114119047Y-146452380D01*
X113928571Y-146452380D01*
X113833333Y-146404761D01*
X113785714Y-146357142D01*
X113738095Y-146261904D01*
X113738095Y-146071428D01*
X113785714Y-145976190D01*
X113833333Y-145928571D01*
X113928571Y-145880952D01*
X131142857Y-102802380D02*
X131476190Y-102326190D01*
X131714285Y-102802380D02*
X131714285Y-101802380D01*
X131333333Y-101802380D01*
X131238095Y-101850000D01*
X131190476Y-101897619D01*
X131142857Y-101992857D01*
X131142857Y-102135714D01*
X131190476Y-102230952D01*
X131238095Y-102278571D01*
X131333333Y-102326190D01*
X131714285Y-102326190D01*
X130190476Y-102802380D02*
X130761904Y-102802380D01*
X130476190Y-102802380D02*
X130476190Y-101802380D01*
X130571428Y-101945238D01*
X130666666Y-102040476D01*
X130761904Y-102088095D01*
X129857142Y-101802380D02*
X129190476Y-101802380D01*
X129619047Y-102802380D01*
X151142857Y-102802380D02*
X151476190Y-102326190D01*
X151714285Y-102802380D02*
X151714285Y-101802380D01*
X151333333Y-101802380D01*
X151238095Y-101850000D01*
X151190476Y-101897619D01*
X151142857Y-101992857D01*
X151142857Y-102135714D01*
X151190476Y-102230952D01*
X151238095Y-102278571D01*
X151333333Y-102326190D01*
X151714285Y-102326190D01*
X150190476Y-102802380D02*
X150761904Y-102802380D01*
X150476190Y-102802380D02*
X150476190Y-101802380D01*
X150571428Y-101945238D01*
X150666666Y-102040476D01*
X150761904Y-102088095D01*
X149285714Y-101802380D02*
X149761904Y-101802380D01*
X149809523Y-102278571D01*
X149761904Y-102230952D01*
X149666666Y-102183333D01*
X149428571Y-102183333D01*
X149333333Y-102230952D01*
X149285714Y-102278571D01*
X149238095Y-102373809D01*
X149238095Y-102611904D01*
X149285714Y-102707142D01*
X149333333Y-102754761D01*
X149428571Y-102802380D01*
X149666666Y-102802380D01*
X149761904Y-102754761D01*
X149809523Y-102707142D01*
X105452380Y-138807142D02*
X104976190Y-138473809D01*
X105452380Y-138235714D02*
X104452380Y-138235714D01*
X104452380Y-138616666D01*
X104500000Y-138711904D01*
X104547619Y-138759523D01*
X104642857Y-138807142D01*
X104785714Y-138807142D01*
X104880952Y-138759523D01*
X104928571Y-138711904D01*
X104976190Y-138616666D01*
X104976190Y-138235714D01*
X104547619Y-139188095D02*
X104500000Y-139235714D01*
X104452380Y-139330952D01*
X104452380Y-139569047D01*
X104500000Y-139664285D01*
X104547619Y-139711904D01*
X104642857Y-139759523D01*
X104738095Y-139759523D01*
X104880952Y-139711904D01*
X105452380Y-139140476D01*
X105452380Y-139759523D01*
X104452380Y-140664285D02*
X104452380Y-140188095D01*
X104928571Y-140140476D01*
X104880952Y-140188095D01*
X104833333Y-140283333D01*
X104833333Y-140521428D01*
X104880952Y-140616666D01*
X104928571Y-140664285D01*
X105023809Y-140711904D01*
X105261904Y-140711904D01*
X105357142Y-140664285D01*
X105404761Y-140616666D01*
X105452380Y-140521428D01*
X105452380Y-140283333D01*
X105404761Y-140188095D01*
X105357142Y-140140476D01*
X111952380Y-138857142D02*
X111476190Y-138523809D01*
X111952380Y-138285714D02*
X110952380Y-138285714D01*
X110952380Y-138666666D01*
X111000000Y-138761904D01*
X111047619Y-138809523D01*
X111142857Y-138857142D01*
X111285714Y-138857142D01*
X111380952Y-138809523D01*
X111428571Y-138761904D01*
X111476190Y-138666666D01*
X111476190Y-138285714D01*
X111047619Y-139238095D02*
X111000000Y-139285714D01*
X110952380Y-139380952D01*
X110952380Y-139619047D01*
X111000000Y-139714285D01*
X111047619Y-139761904D01*
X111142857Y-139809523D01*
X111238095Y-139809523D01*
X111380952Y-139761904D01*
X111952380Y-139190476D01*
X111952380Y-139809523D01*
X111952380Y-140761904D02*
X111952380Y-140190476D01*
X111952380Y-140476190D02*
X110952380Y-140476190D01*
X111095238Y-140380952D01*
X111190476Y-140285714D01*
X111238095Y-140190476D01*
X118452380Y-138857142D02*
X117976190Y-138523809D01*
X118452380Y-138285714D02*
X117452380Y-138285714D01*
X117452380Y-138666666D01*
X117500000Y-138761904D01*
X117547619Y-138809523D01*
X117642857Y-138857142D01*
X117785714Y-138857142D01*
X117880952Y-138809523D01*
X117928571Y-138761904D01*
X117976190Y-138666666D01*
X117976190Y-138285714D01*
X117547619Y-139238095D02*
X117500000Y-139285714D01*
X117452380Y-139380952D01*
X117452380Y-139619047D01*
X117500000Y-139714285D01*
X117547619Y-139761904D01*
X117642857Y-139809523D01*
X117738095Y-139809523D01*
X117880952Y-139761904D01*
X118452380Y-139190476D01*
X118452380Y-139809523D01*
X117452380Y-140666666D02*
X117452380Y-140476190D01*
X117500000Y-140380952D01*
X117547619Y-140333333D01*
X117690476Y-140238095D01*
X117880952Y-140190476D01*
X118261904Y-140190476D01*
X118357142Y-140238095D01*
X118404761Y-140285714D01*
X118452380Y-140380952D01*
X118452380Y-140571428D01*
X118404761Y-140666666D01*
X118357142Y-140714285D01*
X118261904Y-140761904D01*
X118023809Y-140761904D01*
X117928571Y-140714285D01*
X117880952Y-140666666D01*
X117833333Y-140571428D01*
X117833333Y-140380952D01*
X117880952Y-140285714D01*
X117928571Y-140238095D01*
X118023809Y-140190476D01*
X144547619Y-102904761D02*
X144500000Y-102809523D01*
X144404761Y-102714285D01*
X144261904Y-102571428D01*
X144214285Y-102476190D01*
X144214285Y-102380952D01*
X144452380Y-102428571D02*
X144404761Y-102333333D01*
X144309523Y-102238095D01*
X144119047Y-102190476D01*
X143785714Y-102190476D01*
X143595238Y-102238095D01*
X143500000Y-102333333D01*
X143452380Y-102428571D01*
X143452380Y-102619047D01*
X143500000Y-102714285D01*
X143595238Y-102809523D01*
X143785714Y-102857142D01*
X144119047Y-102857142D01*
X144309523Y-102809523D01*
X144404761Y-102714285D01*
X144452380Y-102619047D01*
X144452380Y-102428571D01*
X143785714Y-103714285D02*
X144452380Y-103714285D01*
X143404761Y-103476190D02*
X144119047Y-103238095D01*
X144119047Y-103857142D01*
X102642857Y-146202380D02*
X102976190Y-145726190D01*
X103214285Y-146202380D02*
X103214285Y-145202380D01*
X102833333Y-145202380D01*
X102738095Y-145250000D01*
X102690476Y-145297619D01*
X102642857Y-145392857D01*
X102642857Y-145535714D01*
X102690476Y-145630952D01*
X102738095Y-145678571D01*
X102833333Y-145726190D01*
X103214285Y-145726190D01*
X102261904Y-145297619D02*
X102214285Y-145250000D01*
X102119047Y-145202380D01*
X101880952Y-145202380D01*
X101785714Y-145250000D01*
X101738095Y-145297619D01*
X101690476Y-145392857D01*
X101690476Y-145488095D01*
X101738095Y-145630952D01*
X102309523Y-146202380D01*
X101690476Y-146202380D01*
X101357142Y-145202380D02*
X100690476Y-145202380D01*
X101119047Y-146202380D01*
X99202380Y-138857142D02*
X98726190Y-138523809D01*
X99202380Y-138285714D02*
X98202380Y-138285714D01*
X98202380Y-138666666D01*
X98250000Y-138761904D01*
X98297619Y-138809523D01*
X98392857Y-138857142D01*
X98535714Y-138857142D01*
X98630952Y-138809523D01*
X98678571Y-138761904D01*
X98726190Y-138666666D01*
X98726190Y-138285714D01*
X98297619Y-139238095D02*
X98250000Y-139285714D01*
X98202380Y-139380952D01*
X98202380Y-139619047D01*
X98250000Y-139714285D01*
X98297619Y-139761904D01*
X98392857Y-139809523D01*
X98488095Y-139809523D01*
X98630952Y-139761904D01*
X99202380Y-139190476D01*
X99202380Y-139809523D01*
X98297619Y-140190476D02*
X98250000Y-140238095D01*
X98202380Y-140333333D01*
X98202380Y-140571428D01*
X98250000Y-140666666D01*
X98297619Y-140714285D01*
X98392857Y-140761904D01*
X98488095Y-140761904D01*
X98630952Y-140714285D01*
X99202380Y-140142857D01*
X99202380Y-140761904D01*
X115095238Y-138547619D02*
X115190476Y-138500000D01*
X115285714Y-138404761D01*
X115428571Y-138261904D01*
X115523809Y-138214285D01*
X115619047Y-138214285D01*
X115571428Y-138452380D02*
X115666666Y-138404761D01*
X115761904Y-138309523D01*
X115809523Y-138119047D01*
X115809523Y-137785714D01*
X115761904Y-137595238D01*
X115666666Y-137500000D01*
X115571428Y-137452380D01*
X115380952Y-137452380D01*
X115285714Y-137500000D01*
X115190476Y-137595238D01*
X115142857Y-137785714D01*
X115142857Y-138119047D01*
X115190476Y-138309523D01*
X115285714Y-138404761D01*
X115380952Y-138452380D01*
X115571428Y-138452380D01*
X114666666Y-138452380D02*
X114476190Y-138452380D01*
X114380952Y-138404761D01*
X114333333Y-138357142D01*
X114238095Y-138214285D01*
X114190476Y-138023809D01*
X114190476Y-137642857D01*
X114238095Y-137547619D01*
X114285714Y-137500000D01*
X114380952Y-137452380D01*
X114571428Y-137452380D01*
X114666666Y-137500000D01*
X114714285Y-137547619D01*
X114761904Y-137642857D01*
X114761904Y-137880952D01*
X114714285Y-137976190D01*
X114666666Y-138023809D01*
X114571428Y-138071428D01*
X114380952Y-138071428D01*
X114285714Y-138023809D01*
X114238095Y-137976190D01*
X114190476Y-137880952D01*
X149142857Y-108102380D02*
X149476190Y-107626190D01*
X149714285Y-108102380D02*
X149714285Y-107102380D01*
X149333333Y-107102380D01*
X149238095Y-107150000D01*
X149190476Y-107197619D01*
X149142857Y-107292857D01*
X149142857Y-107435714D01*
X149190476Y-107530952D01*
X149238095Y-107578571D01*
X149333333Y-107626190D01*
X149714285Y-107626190D01*
X148190476Y-108102380D02*
X148761904Y-108102380D01*
X148476190Y-108102380D02*
X148476190Y-107102380D01*
X148571428Y-107245238D01*
X148666666Y-107340476D01*
X148761904Y-107388095D01*
X147333333Y-107102380D02*
X147523809Y-107102380D01*
X147619047Y-107150000D01*
X147666666Y-107197619D01*
X147761904Y-107340476D01*
X147809523Y-107530952D01*
X147809523Y-107911904D01*
X147761904Y-108007142D01*
X147714285Y-108054761D01*
X147619047Y-108102380D01*
X147428571Y-108102380D01*
X147333333Y-108054761D01*
X147285714Y-108007142D01*
X147238095Y-107911904D01*
X147238095Y-107673809D01*
X147285714Y-107578571D01*
X147333333Y-107530952D01*
X147428571Y-107483333D01*
X147619047Y-107483333D01*
X147714285Y-107530952D01*
X147761904Y-107578571D01*
X147809523Y-107673809D01*
X124547619Y-102904761D02*
X124500000Y-102809523D01*
X124404761Y-102714285D01*
X124261904Y-102571428D01*
X124214285Y-102476190D01*
X124214285Y-102380952D01*
X124452380Y-102428571D02*
X124404761Y-102333333D01*
X124309523Y-102238095D01*
X124119047Y-102190476D01*
X123785714Y-102190476D01*
X123595238Y-102238095D01*
X123500000Y-102333333D01*
X123452380Y-102428571D01*
X123452380Y-102619047D01*
X123500000Y-102714285D01*
X123595238Y-102809523D01*
X123785714Y-102857142D01*
X124119047Y-102857142D01*
X124309523Y-102809523D01*
X124404761Y-102714285D01*
X124452380Y-102619047D01*
X124452380Y-102428571D01*
X123452380Y-103761904D02*
X123452380Y-103285714D01*
X123928571Y-103238095D01*
X123880952Y-103285714D01*
X123833333Y-103380952D01*
X123833333Y-103619047D01*
X123880952Y-103714285D01*
X123928571Y-103761904D01*
X124023809Y-103809523D01*
X124261904Y-103809523D01*
X124357142Y-103761904D01*
X124404761Y-103714285D01*
X124452380Y-103619047D01*
X124452380Y-103380952D01*
X124404761Y-103285714D01*
X124357142Y-103238095D01*
X102095238Y-138547619D02*
X102190476Y-138500000D01*
X102285714Y-138404761D01*
X102428571Y-138261904D01*
X102523809Y-138214285D01*
X102619047Y-138214285D01*
X102571428Y-138452380D02*
X102666666Y-138404761D01*
X102761904Y-138309523D01*
X102809523Y-138119047D01*
X102809523Y-137785714D01*
X102761904Y-137595238D01*
X102666666Y-137500000D01*
X102571428Y-137452380D01*
X102380952Y-137452380D01*
X102285714Y-137500000D01*
X102190476Y-137595238D01*
X102142857Y-137785714D01*
X102142857Y-138119047D01*
X102190476Y-138309523D01*
X102285714Y-138404761D01*
X102380952Y-138452380D01*
X102571428Y-138452380D01*
X101571428Y-137880952D02*
X101666666Y-137833333D01*
X101714285Y-137785714D01*
X101761904Y-137690476D01*
X101761904Y-137642857D01*
X101714285Y-137547619D01*
X101666666Y-137500000D01*
X101571428Y-137452380D01*
X101380952Y-137452380D01*
X101285714Y-137500000D01*
X101238095Y-137547619D01*
X101190476Y-137642857D01*
X101190476Y-137690476D01*
X101238095Y-137785714D01*
X101285714Y-137833333D01*
X101380952Y-137880952D01*
X101571428Y-137880952D01*
X101666666Y-137928571D01*
X101714285Y-137976190D01*
X101761904Y-138071428D01*
X101761904Y-138261904D01*
X101714285Y-138357142D01*
X101666666Y-138404761D01*
X101571428Y-138452380D01*
X101380952Y-138452380D01*
X101285714Y-138404761D01*
X101238095Y-138357142D01*
X101190476Y-138261904D01*
X101190476Y-138071428D01*
X101238095Y-137976190D01*
X101285714Y-137928571D01*
X101380952Y-137880952D01*
X108595238Y-138547619D02*
X108690476Y-138500000D01*
X108785714Y-138404761D01*
X108928571Y-138261904D01*
X109023809Y-138214285D01*
X109119047Y-138214285D01*
X109071428Y-138452380D02*
X109166666Y-138404761D01*
X109261904Y-138309523D01*
X109309523Y-138119047D01*
X109309523Y-137785714D01*
X109261904Y-137595238D01*
X109166666Y-137500000D01*
X109071428Y-137452380D01*
X108880952Y-137452380D01*
X108785714Y-137500000D01*
X108690476Y-137595238D01*
X108642857Y-137785714D01*
X108642857Y-138119047D01*
X108690476Y-138309523D01*
X108785714Y-138404761D01*
X108880952Y-138452380D01*
X109071428Y-138452380D01*
X107785714Y-137452380D02*
X107976190Y-137452380D01*
X108071428Y-137500000D01*
X108119047Y-137547619D01*
X108214285Y-137690476D01*
X108261904Y-137880952D01*
X108261904Y-138261904D01*
X108214285Y-138357142D01*
X108166666Y-138404761D01*
X108071428Y-138452380D01*
X107880952Y-138452380D01*
X107785714Y-138404761D01*
X107738095Y-138357142D01*
X107690476Y-138261904D01*
X107690476Y-138023809D01*
X107738095Y-137928571D01*
X107785714Y-137880952D01*
X107880952Y-137833333D01*
X108071428Y-137833333D01*
X108166666Y-137880952D01*
X108214285Y-137928571D01*
X108261904Y-138023809D01*
X109142857Y-146452380D02*
X109476190Y-145976190D01*
X109714285Y-146452380D02*
X109714285Y-145452380D01*
X109333333Y-145452380D01*
X109238095Y-145500000D01*
X109190476Y-145547619D01*
X109142857Y-145642857D01*
X109142857Y-145785714D01*
X109190476Y-145880952D01*
X109238095Y-145928571D01*
X109333333Y-145976190D01*
X109714285Y-145976190D01*
X108761904Y-145547619D02*
X108714285Y-145500000D01*
X108619047Y-145452380D01*
X108380952Y-145452380D01*
X108285714Y-145500000D01*
X108238095Y-145547619D01*
X108190476Y-145642857D01*
X108190476Y-145738095D01*
X108238095Y-145880952D01*
X108809523Y-146452380D01*
X108190476Y-146452380D01*
X107857142Y-145452380D02*
X107238095Y-145452380D01*
X107571428Y-145833333D01*
X107428571Y-145833333D01*
X107333333Y-145880952D01*
X107285714Y-145928571D01*
X107238095Y-146023809D01*
X107238095Y-146261904D01*
X107285714Y-146357142D01*
X107333333Y-146404761D01*
X107428571Y-146452380D01*
X107714285Y-146452380D01*
X107809523Y-146404761D01*
X107857142Y-146357142D01*
X95595238Y-138547619D02*
X95690476Y-138500000D01*
X95785714Y-138404761D01*
X95928571Y-138261904D01*
X96023809Y-138214285D01*
X96119047Y-138214285D01*
X96071428Y-138452380D02*
X96166666Y-138404761D01*
X96261904Y-138309523D01*
X96309523Y-138119047D01*
X96309523Y-137785714D01*
X96261904Y-137595238D01*
X96166666Y-137500000D01*
X96071428Y-137452380D01*
X95880952Y-137452380D01*
X95785714Y-137500000D01*
X95690476Y-137595238D01*
X95642857Y-137785714D01*
X95642857Y-138119047D01*
X95690476Y-138309523D01*
X95785714Y-138404761D01*
X95880952Y-138452380D01*
X96071428Y-138452380D01*
X95309523Y-137452380D02*
X94642857Y-137452380D01*
X95071428Y-138452380D01*
D11*
X113937500Y-121560000D02*
X114587500Y-121560000D01*
X113937500Y-118440000D02*
X115612500Y-118440000D01*
X113937500Y-121560000D02*
X113287500Y-121560000D01*
X113937500Y-118440000D02*
X113287500Y-118440000D01*
X113900000Y-118060000D02*
X114550000Y-118060000D01*
X113900000Y-114940000D02*
X115575000Y-114940000D01*
X113900000Y-118060000D02*
X113250000Y-118060000D01*
X113900000Y-114940000D02*
X113250000Y-114940000D01*
X140265000Y-130361252D02*
X140265000Y-129838748D01*
X141735000Y-130361252D02*
X141735000Y-129838748D01*
X114227064Y-135265000D02*
X113772936Y-135265000D01*
X114227064Y-136735000D02*
X113772936Y-136735000D01*
X107727064Y-136735000D02*
X107272936Y-136735000D01*
X107727064Y-135265000D02*
X107272936Y-135265000D01*
X101227064Y-135265000D02*
X100772936Y-135265000D01*
X101227064Y-136735000D02*
X100772936Y-136735000D01*
X94272936Y-136735000D02*
X94727064Y-136735000D01*
X94272936Y-135265000D02*
X94727064Y-135265000D01*
X143735000Y-130361252D02*
X143735000Y-129838748D01*
X142265000Y-130361252D02*
X142265000Y-129838748D01*
X128272936Y-106735000D02*
X128727064Y-106735000D01*
X128272936Y-105265000D02*
X128727064Y-105265000D01*
X95272936Y-143265000D02*
X95727064Y-143265000D01*
X95272936Y-144735000D02*
X95727064Y-144735000D01*
X115227064Y-143265000D02*
X114772936Y-143265000D01*
X115227064Y-144735000D02*
X114772936Y-144735000D01*
X130727064Y-103265000D02*
X130272936Y-103265000D01*
X130727064Y-104735000D02*
X130272936Y-104735000D01*
X150727064Y-104735000D02*
X150272936Y-104735000D01*
X150727064Y-103265000D02*
X150272936Y-103265000D01*
X105735000Y-143227064D02*
X105735000Y-142772936D01*
X104265000Y-143227064D02*
X104265000Y-142772936D01*
X110765000Y-143227064D02*
X110765000Y-142772936D01*
X112235000Y-143227064D02*
X112235000Y-142772936D01*
X117265000Y-143227064D02*
X117265000Y-142772936D01*
X118735000Y-143227064D02*
X118735000Y-142772936D01*
X118450000Y-147200000D02*
X117050000Y-147200000D01*
X117050000Y-149200000D02*
X118450000Y-149200000D01*
X116350000Y-147900000D02*
X116350000Y-148500000D01*
X119150000Y-148500000D02*
X119150000Y-147900000D01*
X118450000Y-149200000D02*
G75*
G03*
X119150000Y-148500000I0J700000D01*
G01*
X119150000Y-147900000D02*
G75*
G03*
X118450000Y-147200000I-700000J0D01*
G01*
X116350000Y-148500000D02*
G75*
G03*
X117050000Y-149200000I699999J-1D01*
G01*
X117050000Y-147200000D02*
G75*
G03*
X116350000Y-147900000I-1J-699999D01*
G01*
X144940000Y-103000000D02*
X144940000Y-102350000D01*
X144940000Y-103000000D02*
X144940000Y-103650000D01*
X148060000Y-103000000D02*
X148060000Y-102350000D01*
X148060000Y-103000000D02*
X148060000Y-104675000D01*
X102227064Y-143265000D02*
X101772936Y-143265000D01*
X102227064Y-144735000D02*
X101772936Y-144735000D01*
X97765000Y-143227064D02*
X97765000Y-142772936D01*
X99235000Y-143227064D02*
X99235000Y-142772936D01*
X116560000Y-141000000D02*
X116560000Y-142675000D01*
X113440000Y-141000000D02*
X113440000Y-141650000D01*
X113440000Y-141000000D02*
X113440000Y-140350000D01*
X116560000Y-141000000D02*
X116560000Y-140350000D01*
X148272936Y-105265000D02*
X148727064Y-105265000D01*
X148272936Y-106735000D02*
X148727064Y-106735000D01*
X121400000Y-106700000D02*
X122800000Y-106700000D01*
X120700000Y-105400000D02*
X120700000Y-106000000D01*
X123500000Y-106000000D02*
X123500000Y-105400000D01*
X122800000Y-104700000D02*
X121400000Y-104700000D01*
X123500000Y-105400000D02*
G75*
G03*
X122800000Y-104700000I-699999J1D01*
G01*
X122800000Y-106700000D02*
G75*
G03*
X123500000Y-106000000I1J699999D01*
G01*
X120700000Y-106000000D02*
G75*
G03*
X121400000Y-106700000I700000J0D01*
G01*
X121400000Y-104700000D02*
G75*
G03*
X120700000Y-105400000I0J-700000D01*
G01*
X124940000Y-103000000D02*
X124940000Y-103650000D01*
X128060000Y-103000000D02*
X128060000Y-104675000D01*
X128060000Y-103000000D02*
X128060000Y-102350000D01*
X124940000Y-103000000D02*
X124940000Y-102350000D01*
X100440000Y-141000000D02*
X100440000Y-141650000D01*
X103560000Y-141000000D02*
X103560000Y-140350000D01*
X100440000Y-141000000D02*
X100440000Y-140350000D01*
X103560000Y-141000000D02*
X103560000Y-142675000D01*
X110060000Y-141000000D02*
X110060000Y-142675000D01*
X106940000Y-141000000D02*
X106940000Y-141650000D01*
X110060000Y-141000000D02*
X110060000Y-140350000D01*
X106940000Y-141000000D02*
X106940000Y-140350000D01*
X108727064Y-143265000D02*
X108272936Y-143265000D01*
X108727064Y-144735000D02*
X108272936Y-144735000D01*
X93940000Y-141000000D02*
X93940000Y-140350000D01*
X93940000Y-141000000D02*
X93940000Y-141650000D01*
X97060000Y-141000000D02*
X97060000Y-140350000D01*
X97060000Y-141000000D02*
X97060000Y-142675000D01*
%LPC*%
D12*
X113000000Y-120000000D03*
X114875000Y-120950000D03*
X114875000Y-119050000D03*
X112962500Y-116500000D03*
X114837500Y-117450000D03*
X114837500Y-115550000D03*
D13*
X102200000Y-67000000D03*
D14*
X96200000Y-67000000D03*
D15*
X99200000Y-71700000D03*
D16*
X138550000Y-62600000D03*
D17*
X138550000Y-65140000D03*
X138550000Y-70220000D03*
X138550000Y-72760000D03*
X138550000Y-75300000D03*
D18*
X113000000Y-106000000D03*
X113000000Y-103460000D03*
X113000000Y-100920000D03*
X113000000Y-98380000D03*
X113000000Y-95840000D03*
X113000000Y-93300000D03*
D19*
X130000000Y-146100000D03*
D20*
X135000000Y-146100000D03*
D21*
X99380000Y-150752500D03*
D17*
X99380000Y-148212500D03*
X101920000Y-150752500D03*
X101920000Y-148212500D03*
X104460000Y-150752500D03*
X104460000Y-148212500D03*
X107000000Y-150752500D03*
X107000000Y-148212500D03*
X109540000Y-150752500D03*
X109540000Y-148212500D03*
X112080000Y-150752500D03*
X112080000Y-148212500D03*
X114620000Y-150752500D03*
X114620000Y-148212500D03*
D16*
X128000000Y-61000000D03*
D22*
X128000000Y-63000000D03*
D16*
X161000000Y-66000000D03*
D22*
X161000000Y-68000000D03*
D16*
X146000000Y-73044888D03*
D22*
X146000000Y-71044888D03*
D16*
X146000000Y-66000000D03*
D22*
X146000000Y-64000000D03*
D23*
X154500000Y-98000000D03*
D24*
X154500000Y-92920000D03*
X154500000Y-90380000D03*
X154500000Y-87840000D03*
X149420000Y-87840000D03*
X149420000Y-90380000D03*
X149420000Y-92920000D03*
X149420000Y-98000000D03*
D23*
X134500000Y-98000000D03*
D24*
X134500000Y-92920000D03*
X134500000Y-90380000D03*
X134500000Y-87840000D03*
X129420000Y-87840000D03*
X129420000Y-90380000D03*
X129420000Y-92920000D03*
X129420000Y-98000000D03*
D25*
X200900000Y-104400000D03*
X203400000Y-114400000D03*
X205900000Y-104400000D03*
X180425000Y-104400000D03*
X182925000Y-114400000D03*
X185425000Y-104400000D03*
D26*
X169000000Y-80000000D03*
D27*
X166460000Y-80000000D03*
X163920000Y-80000000D03*
D16*
X188900000Y-88600000D03*
D28*
X186360000Y-88600000D03*
X183820000Y-88600000D03*
X181280000Y-88600000D03*
X181280000Y-96220000D03*
X183820000Y-96220000D03*
X186360000Y-96220000D03*
X188900000Y-96220000D03*
D19*
X114000000Y-82000000D03*
D20*
X109000000Y-82000000D03*
D16*
X204520000Y-88600000D03*
D28*
X201980000Y-88600000D03*
X199440000Y-88600000D03*
X196900000Y-88600000D03*
X196900000Y-96220000D03*
X199440000Y-96220000D03*
X201980000Y-96220000D03*
X204520000Y-96220000D03*
D29*
X158000000Y-103475000D03*
D30*
X158000000Y-106015000D03*
X158000000Y-108555000D03*
D22*
X166600000Y-124100000D03*
X166600000Y-129100000D03*
D31*
X187600000Y-123600000D03*
D32*
X187600000Y-128600000D03*
X187600000Y-133600000D03*
X187600000Y-138600000D03*
D19*
X172600000Y-139000000D03*
D20*
X177600000Y-139000000D03*
D22*
X166600000Y-132900000D03*
X166600000Y-137900000D03*
D19*
X172600000Y-124100000D03*
D20*
X177600000Y-124100000D03*
D19*
X130000000Y-116100000D03*
D20*
X135000000Y-116100000D03*
D23*
X124500000Y-98180000D03*
D24*
X124500000Y-92920000D03*
X124500000Y-90380000D03*
X124500000Y-87840000D03*
X119420000Y-87840000D03*
X119420000Y-90380000D03*
X119420000Y-92920000D03*
X119420000Y-98000000D03*
D29*
X167000000Y-103475000D03*
D30*
X167000000Y-106015000D03*
X167000000Y-108555000D03*
D23*
X144500000Y-98000000D03*
D24*
X144500000Y-92920000D03*
X144500000Y-90380000D03*
X144500000Y-87840000D03*
X139420000Y-87840000D03*
X139420000Y-90380000D03*
X139420000Y-92920000D03*
X139420000Y-98000000D03*
D33*
X179500000Y-70050000D03*
X166500000Y-147950000D03*
D34*
X97250000Y-84000000D03*
D35*
X168055000Y-65460000D03*
D36*
X168055000Y-68000000D03*
X168055000Y-70540000D03*
D22*
X100300000Y-89500000D03*
D28*
X113000000Y-89500000D03*
D33*
X166500000Y-90000000D03*
D34*
X158000000Y-72000000D03*
D33*
X122500000Y-70050000D03*
D37*
X141000000Y-131137500D03*
X141000000Y-129062500D03*
D38*
X115000000Y-136000000D03*
X113000000Y-136000000D03*
X108500000Y-136000000D03*
X106500000Y-136000000D03*
X102000000Y-136000000D03*
X100000000Y-136000000D03*
D39*
X93500000Y-136000000D03*
X95500000Y-136000000D03*
D37*
X143000000Y-131137500D03*
X143000000Y-129062500D03*
D39*
X127500000Y-106000000D03*
X129500000Y-106000000D03*
X94500000Y-144000000D03*
X96500000Y-144000000D03*
D38*
X116000000Y-144000000D03*
X114000000Y-144000000D03*
X131500000Y-104000000D03*
X129500000Y-104000000D03*
X151500000Y-104000000D03*
X149500000Y-104000000D03*
D40*
X105000000Y-144000000D03*
X105000000Y-142000000D03*
X111500000Y-144000000D03*
X111500000Y-142000000D03*
X118000000Y-144000000D03*
X118000000Y-142000000D03*
D41*
X117100000Y-148200000D03*
D42*
X118400000Y-148200000D03*
D43*
X147450000Y-103937500D03*
X145550000Y-103937500D03*
X146500000Y-102062500D03*
D38*
X103000000Y-144000000D03*
X101000000Y-144000000D03*
D40*
X98500000Y-144000000D03*
X98500000Y-142000000D03*
D43*
X115950000Y-141937500D03*
X114050000Y-141937500D03*
X115000000Y-140062500D03*
D39*
X147500000Y-106000000D03*
X149500000Y-106000000D03*
D44*
X122750000Y-105700000D03*
D45*
X121450000Y-105700000D03*
D43*
X127450000Y-103937500D03*
X125550000Y-103937500D03*
X126500000Y-102062500D03*
X102950000Y-141937500D03*
X101050000Y-141937500D03*
X102000000Y-140062500D03*
X109450000Y-141937500D03*
X107550000Y-141937500D03*
X108500000Y-140062500D03*
D38*
X109500000Y-144000000D03*
X107500000Y-144000000D03*
D43*
X96450000Y-141937500D03*
X94550000Y-141937500D03*
X95500000Y-140062500D03*
M02*
