G04 #@! TF.GenerationSoftware,KiCad,Pcbnew,6.0.6-2.fc35*
G04 #@! TF.CreationDate,2022-07-15T01:41:46+02:00*
G04 #@! TF.ProjectId,office_amp,6f666669-6365-45f6-916d-702e6b696361,rev?*
G04 #@! TF.SameCoordinates,Original*
G04 #@! TF.FileFunction,Soldermask,Bot*
G04 #@! TF.FilePolarity,Negative*
%FSLAX46Y46*%
G04 Gerber Fmt 4.6, Leading zero omitted, Abs format (unit mm)*
G04 Created by KiCad (PCBNEW 6.0.6-2.fc35) date 2022-07-15 01:41:46*
%MOMM*%
%LPD*%
G01*
G04 APERTURE LIST*
G04 Aperture macros list*
%AMRoundRect*
0 Rectangle with rounded corners*
0 $1 Rounding radius*
0 $2 $3 $4 $5 $6 $7 $8 $9 X,Y pos of 4 corners*
0 Add a 4 corners polygon primitive as box body*
4,1,4,$2,$3,$4,$5,$6,$7,$8,$9,$2,$3,0*
0 Add four circle primitives for the rounded corners*
1,1,$1+$1,$2,$3*
1,1,$1+$1,$4,$5*
1,1,$1+$1,$6,$7*
1,1,$1+$1,$8,$9*
0 Add four rect primitives between the rounded corners*
20,1,$1+$1,$2,$3,$4,$5,0*
20,1,$1+$1,$4,$5,$6,$7,0*
20,1,$1+$1,$6,$7,$8,$9,0*
20,1,$1+$1,$8,$9,$2,$3,0*%
%AMFreePoly0*
4,1,22,0.500000,-0.750000,0.000000,-0.750000,0.000000,-0.745033,-0.079941,-0.743568,-0.215256,-0.701293,-0.333266,-0.622738,-0.424486,-0.514219,-0.481581,-0.384460,-0.499164,-0.250000,-0.500000,-0.250000,-0.500000,0.250000,-0.499164,0.250000,-0.499963,0.256109,-0.478152,0.396186,-0.417904,0.524511,-0.324060,0.630769,-0.204165,0.706417,-0.067858,0.745374,0.000000,0.744959,0.000000,0.750000,
0.500000,0.750000,0.500000,-0.750000,0.500000,-0.750000,$1*%
%AMFreePoly1*
4,1,20,0.000000,0.744959,0.073905,0.744508,0.209726,0.703889,0.328688,0.626782,0.421226,0.519385,0.479903,0.390333,0.500000,0.250000,0.500000,-0.250000,0.499851,-0.262216,0.476331,-0.402017,0.414519,-0.529596,0.319384,-0.634700,0.198574,-0.708877,0.061801,-0.746166,0.000000,-0.745033,0.000000,-0.750000,-0.500000,-0.750000,-0.500000,0.750000,0.000000,0.750000,0.000000,0.744959,
0.000000,0.744959,$1*%
G04 Aperture macros list end*
%ADD10RoundRect,0.150000X0.587500X0.150000X-0.587500X0.150000X-0.587500X-0.150000X0.587500X-0.150000X0*%
%ADD11R,3.500000X3.500000*%
%ADD12RoundRect,0.750000X-0.750000X-1.000000X0.750000X-1.000000X0.750000X1.000000X-0.750000X1.000000X0*%
%ADD13RoundRect,0.875000X-0.875000X-0.875000X0.875000X-0.875000X0.875000X0.875000X-0.875000X0.875000X0*%
%ADD14R,1.600000X1.600000*%
%ADD15C,1.700000*%
%ADD16C,1.900000*%
%ADD17R,2.000000X2.000000*%
%ADD18C,2.000000*%
%ADD19RoundRect,0.250000X0.600000X-0.600000X0.600000X0.600000X-0.600000X0.600000X-0.600000X-0.600000X0*%
%ADD20C,1.600000*%
%ADD21RoundRect,0.250500X0.499500X0.499500X-0.499500X0.499500X-0.499500X-0.499500X0.499500X-0.499500X0*%
%ADD22C,1.500000*%
%ADD23C,2.340000*%
%ADD24R,1.905000X2.000000*%
%ADD25O,1.905000X2.000000*%
%ADD26O,1.600000X1.600000*%
%ADD27R,1.700000X1.700000*%
%ADD28O,1.700000X1.700000*%
%ADD29R,2.500000X2.500000*%
%ADD30C,2.500000*%
%ADD31C,7.000000*%
%ADD32C,2.800000*%
%ADD33R,2.000000X1.905000*%
%ADD34O,2.000000X1.905000*%
%ADD35RoundRect,0.250000X0.475000X-0.337500X0.475000X0.337500X-0.475000X0.337500X-0.475000X-0.337500X0*%
%ADD36RoundRect,0.250000X0.350000X0.450000X-0.350000X0.450000X-0.350000X-0.450000X0.350000X-0.450000X0*%
%ADD37RoundRect,0.250000X-0.350000X-0.450000X0.350000X-0.450000X0.350000X0.450000X-0.350000X0.450000X0*%
%ADD38RoundRect,0.250000X0.450000X-0.350000X0.450000X0.350000X-0.450000X0.350000X-0.450000X-0.350000X0*%
%ADD39FreePoly0,0.000000*%
%ADD40FreePoly1,0.000000*%
%ADD41RoundRect,0.150000X0.150000X-0.587500X0.150000X0.587500X-0.150000X0.587500X-0.150000X-0.587500X0*%
%ADD42FreePoly0,180.000000*%
%ADD43FreePoly1,180.000000*%
G04 APERTURE END LIST*
D10*
X113000000Y-120000000D03*
X114875000Y-120950000D03*
X114875000Y-119050000D03*
X112962500Y-116500000D03*
X114837500Y-117450000D03*
X114837500Y-115550000D03*
D11*
X102200000Y-67000000D03*
D12*
X96200000Y-67000000D03*
D13*
X99200000Y-71700000D03*
D14*
X138550000Y-62600000D03*
D15*
X138550000Y-65140000D03*
X138550000Y-70220000D03*
X138550000Y-72760000D03*
X138550000Y-75300000D03*
D16*
X113000000Y-106000000D03*
X113000000Y-103460000D03*
X113000000Y-100920000D03*
X113000000Y-98380000D03*
X113000000Y-95840000D03*
X113000000Y-93300000D03*
D17*
X130000000Y-146100000D03*
D18*
X135000000Y-146100000D03*
D19*
X99380000Y-150752500D03*
D15*
X99380000Y-148212500D03*
X101920000Y-150752500D03*
X101920000Y-148212500D03*
X104460000Y-150752500D03*
X104460000Y-148212500D03*
X107000000Y-150752500D03*
X107000000Y-148212500D03*
X109540000Y-150752500D03*
X109540000Y-148212500D03*
X112080000Y-150752500D03*
X112080000Y-148212500D03*
X114620000Y-150752500D03*
X114620000Y-148212500D03*
D14*
X128000000Y-61000000D03*
D20*
X128000000Y-63000000D03*
D14*
X161000000Y-66000000D03*
D20*
X161000000Y-68000000D03*
D14*
X146000000Y-73044888D03*
D20*
X146000000Y-71044888D03*
D14*
X146000000Y-66000000D03*
D20*
X146000000Y-64000000D03*
D21*
X154500000Y-98000000D03*
D22*
X154500000Y-92920000D03*
X154500000Y-90380000D03*
X154500000Y-87840000D03*
X149420000Y-87840000D03*
X149420000Y-90380000D03*
X149420000Y-92920000D03*
X149420000Y-98000000D03*
D21*
X134500000Y-98000000D03*
D22*
X134500000Y-92920000D03*
X134500000Y-90380000D03*
X134500000Y-87840000D03*
X129420000Y-87840000D03*
X129420000Y-90380000D03*
X129420000Y-92920000D03*
X129420000Y-98000000D03*
D23*
X200900000Y-104400000D03*
X203400000Y-114400000D03*
X205900000Y-104400000D03*
X180425000Y-104400000D03*
X182925000Y-114400000D03*
X185425000Y-104400000D03*
D24*
X169000000Y-80000000D03*
D25*
X166460000Y-80000000D03*
X163920000Y-80000000D03*
D14*
X188900000Y-88600000D03*
D26*
X186360000Y-88600000D03*
X183820000Y-88600000D03*
X181280000Y-88600000D03*
X181280000Y-96220000D03*
X183820000Y-96220000D03*
X186360000Y-96220000D03*
X188900000Y-96220000D03*
D17*
X114000000Y-82000000D03*
D18*
X109000000Y-82000000D03*
D14*
X204520000Y-88600000D03*
D26*
X201980000Y-88600000D03*
X199440000Y-88600000D03*
X196900000Y-88600000D03*
X196900000Y-96220000D03*
X199440000Y-96220000D03*
X201980000Y-96220000D03*
X204520000Y-96220000D03*
D27*
X158000000Y-103475000D03*
D28*
X158000000Y-106015000D03*
X158000000Y-108555000D03*
D20*
X166600000Y-124100000D03*
X166600000Y-129100000D03*
D29*
X187600000Y-123600000D03*
D30*
X187600000Y-128600000D03*
X187600000Y-133600000D03*
X187600000Y-138600000D03*
D17*
X172600000Y-139000000D03*
D18*
X177600000Y-139000000D03*
D20*
X166600000Y-132900000D03*
X166600000Y-137900000D03*
D17*
X172600000Y-124100000D03*
D18*
X177600000Y-124100000D03*
D17*
X130000000Y-116100000D03*
D18*
X135000000Y-116100000D03*
D21*
X124500000Y-98180000D03*
D22*
X124500000Y-92920000D03*
X124500000Y-90380000D03*
X124500000Y-87840000D03*
X119420000Y-87840000D03*
X119420000Y-90380000D03*
X119420000Y-92920000D03*
X119420000Y-98000000D03*
D27*
X167000000Y-103475000D03*
D28*
X167000000Y-106015000D03*
X167000000Y-108555000D03*
D21*
X144500000Y-98000000D03*
D22*
X144500000Y-92920000D03*
X144500000Y-90380000D03*
X144500000Y-87840000D03*
X139420000Y-87840000D03*
X139420000Y-90380000D03*
X139420000Y-92920000D03*
X139420000Y-98000000D03*
D31*
X179500000Y-70050000D03*
X166500000Y-147950000D03*
D32*
X97250000Y-84000000D03*
D33*
X168055000Y-65460000D03*
D34*
X168055000Y-68000000D03*
X168055000Y-70540000D03*
D20*
X100300000Y-89500000D03*
D26*
X113000000Y-89500000D03*
D31*
X166500000Y-90000000D03*
D32*
X158000000Y-72000000D03*
D31*
X122500000Y-70050000D03*
D35*
X141000000Y-131137500D03*
X141000000Y-129062500D03*
D36*
X115000000Y-136000000D03*
X113000000Y-136000000D03*
X108500000Y-136000000D03*
X106500000Y-136000000D03*
X102000000Y-136000000D03*
X100000000Y-136000000D03*
D37*
X93500000Y-136000000D03*
X95500000Y-136000000D03*
D35*
X143000000Y-131137500D03*
X143000000Y-129062500D03*
D37*
X127500000Y-106000000D03*
X129500000Y-106000000D03*
X94500000Y-144000000D03*
X96500000Y-144000000D03*
D36*
X116000000Y-144000000D03*
X114000000Y-144000000D03*
X131500000Y-104000000D03*
X129500000Y-104000000D03*
X151500000Y-104000000D03*
X149500000Y-104000000D03*
D38*
X105000000Y-144000000D03*
X105000000Y-142000000D03*
X111500000Y-144000000D03*
X111500000Y-142000000D03*
X118000000Y-144000000D03*
X118000000Y-142000000D03*
D39*
X117100000Y-148200000D03*
D40*
X118400000Y-148200000D03*
D41*
X147450000Y-103937500D03*
X145550000Y-103937500D03*
X146500000Y-102062500D03*
D36*
X103000000Y-144000000D03*
X101000000Y-144000000D03*
D38*
X98500000Y-144000000D03*
X98500000Y-142000000D03*
D41*
X115950000Y-141937500D03*
X114050000Y-141937500D03*
X115000000Y-140062500D03*
D37*
X147500000Y-106000000D03*
X149500000Y-106000000D03*
D42*
X122750000Y-105700000D03*
D43*
X121450000Y-105700000D03*
D41*
X127450000Y-103937500D03*
X125550000Y-103937500D03*
X126500000Y-102062500D03*
X102950000Y-141937500D03*
X101050000Y-141937500D03*
X102000000Y-140062500D03*
X109450000Y-141937500D03*
X107550000Y-141937500D03*
X108500000Y-140062500D03*
D36*
X109500000Y-144000000D03*
X107500000Y-144000000D03*
D41*
X96450000Y-141937500D03*
X94550000Y-141937500D03*
X95500000Y-140062500D03*
M02*
