G04 #@! TF.GenerationSoftware,KiCad,Pcbnew,7.0.2-1.fc37*
G04 #@! TF.CreationDate,2023-07-20T12:52:38+02:00*
G04 #@! TF.ProjectId,office_amp,6f666669-6365-45f6-916d-702e6b696361,V1.3*
G04 #@! TF.SameCoordinates,Original*
G04 #@! TF.FileFunction,Copper,L1,Top*
G04 #@! TF.FilePolarity,Positive*
%FSLAX46Y46*%
G04 Gerber Fmt 4.6, Leading zero omitted, Abs format (unit mm)*
G04 Created by KiCad (PCBNEW 7.0.2-1.fc37) date 2023-07-20 12:52:38*
%MOMM*%
%LPD*%
G01*
G04 APERTURE LIST*
G04 Aperture macros list*
%AMRoundRect*
0 Rectangle with rounded corners*
0 $1 Rounding radius*
0 $2 $3 $4 $5 $6 $7 $8 $9 X,Y pos of 4 corners*
0 Add a 4 corners polygon primitive as box body*
4,1,4,$2,$3,$4,$5,$6,$7,$8,$9,$2,$3,0*
0 Add four circle primitives for the rounded corners*
1,1,$1+$1,$2,$3*
1,1,$1+$1,$4,$5*
1,1,$1+$1,$6,$7*
1,1,$1+$1,$8,$9*
0 Add four rect primitives between the rounded corners*
20,1,$1+$1,$2,$3,$4,$5,0*
20,1,$1+$1,$4,$5,$6,$7,0*
20,1,$1+$1,$6,$7,$8,$9,0*
20,1,$1+$1,$8,$9,$2,$3,0*%
%AMFreePoly0*
4,1,6,1.000000,0.000000,0.500000,-0.750000,-0.500000,-0.750000,-0.500000,0.750000,0.500000,0.750000,1.000000,0.000000,1.000000,0.000000,$1*%
%AMFreePoly1*
4,1,6,0.500000,-0.750000,-0.650000,-0.750000,-0.150000,0.000000,-0.650000,0.750000,0.500000,0.750000,0.500000,-0.750000,0.500000,-0.750000,$1*%
G04 Aperture macros list end*
%ADD10C,0.150000*%
G04 #@! TA.AperFunction,NonConductor*
%ADD11C,0.150000*%
G04 #@! TD*
%ADD12C,0.300000*%
G04 #@! TA.AperFunction,NonConductor*
%ADD13C,0.300000*%
G04 #@! TD*
G04 #@! TA.AperFunction,SMDPad,CuDef*
%ADD14FreePoly0,0.000000*%
G04 #@! TD*
G04 #@! TA.AperFunction,SMDPad,CuDef*
%ADD15FreePoly1,0.000000*%
G04 #@! TD*
G04 #@! TA.AperFunction,SMDPad,CuDef*
%ADD16R,1.750000X0.550000*%
G04 #@! TD*
G04 #@! TA.AperFunction,ComponentPad*
%ADD17R,3.500000X3.500000*%
G04 #@! TD*
G04 #@! TA.AperFunction,ComponentPad*
%ADD18RoundRect,0.750000X-0.750000X-1.000000X0.750000X-1.000000X0.750000X1.000000X-0.750000X1.000000X0*%
G04 #@! TD*
G04 #@! TA.AperFunction,ComponentPad*
%ADD19RoundRect,0.875000X-0.875000X-0.875000X0.875000X-0.875000X0.875000X0.875000X-0.875000X0.875000X0*%
G04 #@! TD*
G04 #@! TA.AperFunction,SMDPad,CuDef*
%ADD20RoundRect,0.150000X-0.512500X-0.150000X0.512500X-0.150000X0.512500X0.150000X-0.512500X0.150000X0*%
G04 #@! TD*
G04 #@! TA.AperFunction,ComponentPad*
%ADD21R,2.400000X2.400000*%
G04 #@! TD*
G04 #@! TA.AperFunction,ComponentPad*
%ADD22C,2.400000*%
G04 #@! TD*
G04 #@! TA.AperFunction,ComponentPad*
%ADD23R,1.600000X1.600000*%
G04 #@! TD*
G04 #@! TA.AperFunction,ComponentPad*
%ADD24C,1.600000*%
G04 #@! TD*
G04 #@! TA.AperFunction,ComponentPad*
%ADD25C,1.700000*%
G04 #@! TD*
G04 #@! TA.AperFunction,ComponentPad*
%ADD26R,2.000000X1.905000*%
G04 #@! TD*
G04 #@! TA.AperFunction,ComponentPad*
%ADD27O,2.000000X1.905000*%
G04 #@! TD*
G04 #@! TA.AperFunction,ComponentPad*
%ADD28R,2.000000X2.000000*%
G04 #@! TD*
G04 #@! TA.AperFunction,ComponentPad*
%ADD29C,2.000000*%
G04 #@! TD*
G04 #@! TA.AperFunction,ComponentPad*
%ADD30O,2.000000X2.000000*%
G04 #@! TD*
G04 #@! TA.AperFunction,ComponentPad*
%ADD31R,1.800000X1.275000*%
G04 #@! TD*
G04 #@! TA.AperFunction,ComponentPad*
%ADD32O,1.800000X1.275000*%
G04 #@! TD*
G04 #@! TA.AperFunction,SMDPad,CuDef*
%ADD33RoundRect,0.250000X0.337500X0.475000X-0.337500X0.475000X-0.337500X-0.475000X0.337500X-0.475000X0*%
G04 #@! TD*
G04 #@! TA.AperFunction,SMDPad,CuDef*
%ADD34RoundRect,0.250000X0.475000X-0.337500X0.475000X0.337500X-0.475000X0.337500X-0.475000X-0.337500X0*%
G04 #@! TD*
G04 #@! TA.AperFunction,ComponentPad*
%ADD35C,2.200000*%
G04 #@! TD*
G04 #@! TA.AperFunction,ComponentPad*
%ADD36O,2.200000X2.200000*%
G04 #@! TD*
G04 #@! TA.AperFunction,ComponentPad*
%ADD37C,4.000000*%
G04 #@! TD*
G04 #@! TA.AperFunction,ComponentPad*
%ADD38C,2.800000*%
G04 #@! TD*
G04 #@! TA.AperFunction,SMDPad,CuDef*
%ADD39C,1.500000*%
G04 #@! TD*
G04 #@! TA.AperFunction,SMDPad,CuDef*
%ADD40C,1.000000*%
G04 #@! TD*
G04 #@! TA.AperFunction,ViaPad*
%ADD41C,1.300000*%
G04 #@! TD*
G04 #@! TA.AperFunction,Conductor*
%ADD42C,0.500000*%
G04 #@! TD*
G04 #@! TA.AperFunction,Conductor*
%ADD43C,1.000000*%
G04 #@! TD*
G04 #@! TA.AperFunction,Conductor*
%ADD44C,0.800000*%
G04 #@! TD*
G04 #@! TA.AperFunction,Conductor*
%ADD45C,0.400000*%
G04 #@! TD*
%ADD46C,0.350000*%
%ADD47O,1.000000X3.000000*%
%ADD48O,3.000000X1.000000*%
G04 APERTURE END LIST*
D10*
D11*
X130761904Y-134925238D02*
X130666666Y-134877619D01*
X130666666Y-134877619D02*
X130523809Y-134877619D01*
X130523809Y-134877619D02*
X130380952Y-134925238D01*
X130380952Y-134925238D02*
X130285714Y-135020476D01*
X130285714Y-135020476D02*
X130238095Y-135115714D01*
X130238095Y-135115714D02*
X130190476Y-135306190D01*
X130190476Y-135306190D02*
X130190476Y-135449047D01*
X130190476Y-135449047D02*
X130238095Y-135639523D01*
X130238095Y-135639523D02*
X130285714Y-135734761D01*
X130285714Y-135734761D02*
X130380952Y-135830000D01*
X130380952Y-135830000D02*
X130523809Y-135877619D01*
X130523809Y-135877619D02*
X130619047Y-135877619D01*
X130619047Y-135877619D02*
X130761904Y-135830000D01*
X130761904Y-135830000D02*
X130809523Y-135782380D01*
X130809523Y-135782380D02*
X130809523Y-135449047D01*
X130809523Y-135449047D02*
X130619047Y-135449047D01*
X131238095Y-135877619D02*
X131238095Y-134877619D01*
X131238095Y-134877619D02*
X131809523Y-135877619D01*
X131809523Y-135877619D02*
X131809523Y-134877619D01*
X132285714Y-135877619D02*
X132285714Y-134877619D01*
X132285714Y-134877619D02*
X132523809Y-134877619D01*
X132523809Y-134877619D02*
X132666666Y-134925238D01*
X132666666Y-134925238D02*
X132761904Y-135020476D01*
X132761904Y-135020476D02*
X132809523Y-135115714D01*
X132809523Y-135115714D02*
X132857142Y-135306190D01*
X132857142Y-135306190D02*
X132857142Y-135449047D01*
X132857142Y-135449047D02*
X132809523Y-135639523D01*
X132809523Y-135639523D02*
X132761904Y-135734761D01*
X132761904Y-135734761D02*
X132666666Y-135830000D01*
X132666666Y-135830000D02*
X132523809Y-135877619D01*
X132523809Y-135877619D02*
X132285714Y-135877619D01*
X133047619Y-135972857D02*
X133809523Y-135972857D01*
X134047619Y-135877619D02*
X134047619Y-134877619D01*
X134523809Y-135210952D02*
X134523809Y-135877619D01*
X134523809Y-135306190D02*
X134571428Y-135258571D01*
X134571428Y-135258571D02*
X134666666Y-135210952D01*
X134666666Y-135210952D02*
X134809523Y-135210952D01*
X134809523Y-135210952D02*
X134904761Y-135258571D01*
X134904761Y-135258571D02*
X134952380Y-135353809D01*
X134952380Y-135353809D02*
X134952380Y-135877619D01*
X135428571Y-135210952D02*
X135428571Y-136210952D01*
X135428571Y-135258571D02*
X135523809Y-135210952D01*
X135523809Y-135210952D02*
X135714285Y-135210952D01*
X135714285Y-135210952D02*
X135809523Y-135258571D01*
X135809523Y-135258571D02*
X135857142Y-135306190D01*
X135857142Y-135306190D02*
X135904761Y-135401428D01*
X135904761Y-135401428D02*
X135904761Y-135687142D01*
X135904761Y-135687142D02*
X135857142Y-135782380D01*
X135857142Y-135782380D02*
X135809523Y-135830000D01*
X135809523Y-135830000D02*
X135714285Y-135877619D01*
X135714285Y-135877619D02*
X135523809Y-135877619D01*
X135523809Y-135877619D02*
X135428571Y-135830000D01*
X136761904Y-135210952D02*
X136761904Y-135877619D01*
X136333333Y-135210952D02*
X136333333Y-135734761D01*
X136333333Y-135734761D02*
X136380952Y-135830000D01*
X136380952Y-135830000D02*
X136476190Y-135877619D01*
X136476190Y-135877619D02*
X136619047Y-135877619D01*
X136619047Y-135877619D02*
X136714285Y-135830000D01*
X136714285Y-135830000D02*
X136761904Y-135782380D01*
X137095238Y-135210952D02*
X137476190Y-135210952D01*
X137238095Y-134877619D02*
X137238095Y-135734761D01*
X137238095Y-135734761D02*
X137285714Y-135830000D01*
X137285714Y-135830000D02*
X137380952Y-135877619D01*
X137380952Y-135877619D02*
X137476190Y-135877619D01*
D10*
D11*
X124238095Y-126496666D02*
X125000000Y-126496666D01*
X125952380Y-125877619D02*
X125476190Y-125877619D01*
X125476190Y-125877619D02*
X125428571Y-126353809D01*
X125428571Y-126353809D02*
X125476190Y-126306190D01*
X125476190Y-126306190D02*
X125571428Y-126258571D01*
X125571428Y-126258571D02*
X125809523Y-126258571D01*
X125809523Y-126258571D02*
X125904761Y-126306190D01*
X125904761Y-126306190D02*
X125952380Y-126353809D01*
X125952380Y-126353809D02*
X125999999Y-126449047D01*
X125999999Y-126449047D02*
X125999999Y-126687142D01*
X125999999Y-126687142D02*
X125952380Y-126782380D01*
X125952380Y-126782380D02*
X125904761Y-126830000D01*
X125904761Y-126830000D02*
X125809523Y-126877619D01*
X125809523Y-126877619D02*
X125571428Y-126877619D01*
X125571428Y-126877619D02*
X125476190Y-126830000D01*
X125476190Y-126830000D02*
X125428571Y-126782380D01*
X126285714Y-125877619D02*
X126619047Y-126877619D01*
X126619047Y-126877619D02*
X126952380Y-125877619D01*
X127238095Y-126591904D02*
X127714285Y-126591904D01*
X127142857Y-126877619D02*
X127476190Y-125877619D01*
X127476190Y-125877619D02*
X127809523Y-126877619D01*
D10*
D11*
X115095238Y-66877619D02*
X115428571Y-67877619D01*
X115428571Y-67877619D02*
X115761904Y-66877619D01*
X116095238Y-67496666D02*
X116857143Y-67496666D01*
X116476190Y-67877619D02*
X116476190Y-67115714D01*
D10*
D11*
X125761904Y-84925238D02*
X125666666Y-84877619D01*
X125666666Y-84877619D02*
X125523809Y-84877619D01*
X125523809Y-84877619D02*
X125380952Y-84925238D01*
X125380952Y-84925238D02*
X125285714Y-85020476D01*
X125285714Y-85020476D02*
X125238095Y-85115714D01*
X125238095Y-85115714D02*
X125190476Y-85306190D01*
X125190476Y-85306190D02*
X125190476Y-85449047D01*
X125190476Y-85449047D02*
X125238095Y-85639523D01*
X125238095Y-85639523D02*
X125285714Y-85734761D01*
X125285714Y-85734761D02*
X125380952Y-85830000D01*
X125380952Y-85830000D02*
X125523809Y-85877619D01*
X125523809Y-85877619D02*
X125619047Y-85877619D01*
X125619047Y-85877619D02*
X125761904Y-85830000D01*
X125761904Y-85830000D02*
X125809523Y-85782380D01*
X125809523Y-85782380D02*
X125809523Y-85449047D01*
X125809523Y-85449047D02*
X125619047Y-85449047D01*
X126238095Y-85877619D02*
X126238095Y-84877619D01*
X126238095Y-84877619D02*
X126809523Y-85877619D01*
X126809523Y-85877619D02*
X126809523Y-84877619D01*
X127285714Y-85877619D02*
X127285714Y-84877619D01*
X127285714Y-84877619D02*
X127523809Y-84877619D01*
X127523809Y-84877619D02*
X127666666Y-84925238D01*
X127666666Y-84925238D02*
X127761904Y-85020476D01*
X127761904Y-85020476D02*
X127809523Y-85115714D01*
X127809523Y-85115714D02*
X127857142Y-85306190D01*
X127857142Y-85306190D02*
X127857142Y-85449047D01*
X127857142Y-85449047D02*
X127809523Y-85639523D01*
X127809523Y-85639523D02*
X127761904Y-85734761D01*
X127761904Y-85734761D02*
X127666666Y-85830000D01*
X127666666Y-85830000D02*
X127523809Y-85877619D01*
X127523809Y-85877619D02*
X127285714Y-85877619D01*
X128857142Y-85877619D02*
X128523809Y-85401428D01*
X128285714Y-85877619D02*
X128285714Y-84877619D01*
X128285714Y-84877619D02*
X128666666Y-84877619D01*
X128666666Y-84877619D02*
X128761904Y-84925238D01*
X128761904Y-84925238D02*
X128809523Y-84972857D01*
X128809523Y-84972857D02*
X128857142Y-85068095D01*
X128857142Y-85068095D02*
X128857142Y-85210952D01*
X128857142Y-85210952D02*
X128809523Y-85306190D01*
X128809523Y-85306190D02*
X128761904Y-85353809D01*
X128761904Y-85353809D02*
X128666666Y-85401428D01*
X128666666Y-85401428D02*
X128285714Y-85401428D01*
X129285714Y-85353809D02*
X129619047Y-85353809D01*
X129761904Y-85877619D02*
X129285714Y-85877619D01*
X129285714Y-85877619D02*
X129285714Y-84877619D01*
X129285714Y-84877619D02*
X129761904Y-84877619D01*
X130523809Y-85353809D02*
X130190476Y-85353809D01*
X130190476Y-85877619D02*
X130190476Y-84877619D01*
X130190476Y-84877619D02*
X130666666Y-84877619D01*
D10*
D11*
X146238095Y-102496666D02*
X147000000Y-102496666D01*
X146619047Y-102877619D02*
X146619047Y-102115714D01*
X147999999Y-102877619D02*
X147428571Y-102877619D01*
X147714285Y-102877619D02*
X147714285Y-101877619D01*
X147714285Y-101877619D02*
X147619047Y-102020476D01*
X147619047Y-102020476D02*
X147523809Y-102115714D01*
X147523809Y-102115714D02*
X147428571Y-102163333D01*
X148380952Y-101972857D02*
X148428571Y-101925238D01*
X148428571Y-101925238D02*
X148523809Y-101877619D01*
X148523809Y-101877619D02*
X148761904Y-101877619D01*
X148761904Y-101877619D02*
X148857142Y-101925238D01*
X148857142Y-101925238D02*
X148904761Y-101972857D01*
X148904761Y-101972857D02*
X148952380Y-102068095D01*
X148952380Y-102068095D02*
X148952380Y-102163333D01*
X148952380Y-102163333D02*
X148904761Y-102306190D01*
X148904761Y-102306190D02*
X148333333Y-102877619D01*
X148333333Y-102877619D02*
X148952380Y-102877619D01*
X149238095Y-101877619D02*
X149571428Y-102877619D01*
X149571428Y-102877619D02*
X149904761Y-101877619D01*
D10*
D11*
X196238095Y-107496666D02*
X197000000Y-107496666D01*
X197952380Y-106877619D02*
X197476190Y-106877619D01*
X197476190Y-106877619D02*
X197428571Y-107353809D01*
X197428571Y-107353809D02*
X197476190Y-107306190D01*
X197476190Y-107306190D02*
X197571428Y-107258571D01*
X197571428Y-107258571D02*
X197809523Y-107258571D01*
X197809523Y-107258571D02*
X197904761Y-107306190D01*
X197904761Y-107306190D02*
X197952380Y-107353809D01*
X197952380Y-107353809D02*
X197999999Y-107449047D01*
X197999999Y-107449047D02*
X197999999Y-107687142D01*
X197999999Y-107687142D02*
X197952380Y-107782380D01*
X197952380Y-107782380D02*
X197904761Y-107830000D01*
X197904761Y-107830000D02*
X197809523Y-107877619D01*
X197809523Y-107877619D02*
X197571428Y-107877619D01*
X197571428Y-107877619D02*
X197476190Y-107830000D01*
X197476190Y-107830000D02*
X197428571Y-107782380D01*
X198285714Y-106877619D02*
X198619047Y-107877619D01*
X198619047Y-107877619D02*
X198952380Y-106877619D01*
D12*
D13*
X171014285Y-154273571D02*
X170942857Y-154345000D01*
X170942857Y-154345000D02*
X170728571Y-154416428D01*
X170728571Y-154416428D02*
X170585714Y-154416428D01*
X170585714Y-154416428D02*
X170371428Y-154345000D01*
X170371428Y-154345000D02*
X170228571Y-154202142D01*
X170228571Y-154202142D02*
X170157142Y-154059285D01*
X170157142Y-154059285D02*
X170085714Y-153773571D01*
X170085714Y-153773571D02*
X170085714Y-153559285D01*
X170085714Y-153559285D02*
X170157142Y-153273571D01*
X170157142Y-153273571D02*
X170228571Y-153130714D01*
X170228571Y-153130714D02*
X170371428Y-152987857D01*
X170371428Y-152987857D02*
X170585714Y-152916428D01*
X170585714Y-152916428D02*
X170728571Y-152916428D01*
X170728571Y-152916428D02*
X170942857Y-152987857D01*
X170942857Y-152987857D02*
X171014285Y-153059285D01*
X171514285Y-152916428D02*
X171871428Y-154416428D01*
X171871428Y-154416428D02*
X172157142Y-153345000D01*
X172157142Y-153345000D02*
X172442857Y-154416428D01*
X172442857Y-154416428D02*
X172800000Y-152916428D01*
X173371428Y-153845000D02*
X174514286Y-153845000D01*
X175157143Y-153987857D02*
X175871429Y-153987857D01*
X175014286Y-154416428D02*
X175514286Y-152916428D01*
X175514286Y-152916428D02*
X176014286Y-154416428D01*
X176514285Y-154416428D02*
X176514285Y-152916428D01*
X176514285Y-152916428D02*
X177014285Y-153987857D01*
X177014285Y-153987857D02*
X177514285Y-152916428D01*
X177514285Y-152916428D02*
X177514285Y-154416428D01*
X178228571Y-154416428D02*
X178228571Y-152916428D01*
X178228571Y-152916428D02*
X178800000Y-152916428D01*
X178800000Y-152916428D02*
X178942857Y-152987857D01*
X178942857Y-152987857D02*
X179014286Y-153059285D01*
X179014286Y-153059285D02*
X179085714Y-153202142D01*
X179085714Y-153202142D02*
X179085714Y-153416428D01*
X179085714Y-153416428D02*
X179014286Y-153559285D01*
X179014286Y-153559285D02*
X178942857Y-153630714D01*
X178942857Y-153630714D02*
X178800000Y-153702142D01*
X178800000Y-153702142D02*
X178228571Y-153702142D01*
X180800000Y-154345000D02*
X181014286Y-154416428D01*
X181014286Y-154416428D02*
X181371428Y-154416428D01*
X181371428Y-154416428D02*
X181514286Y-154345000D01*
X181514286Y-154345000D02*
X181585714Y-154273571D01*
X181585714Y-154273571D02*
X181657143Y-154130714D01*
X181657143Y-154130714D02*
X181657143Y-153987857D01*
X181657143Y-153987857D02*
X181585714Y-153845000D01*
X181585714Y-153845000D02*
X181514286Y-153773571D01*
X181514286Y-153773571D02*
X181371428Y-153702142D01*
X181371428Y-153702142D02*
X181085714Y-153630714D01*
X181085714Y-153630714D02*
X180942857Y-153559285D01*
X180942857Y-153559285D02*
X180871428Y-153487857D01*
X180871428Y-153487857D02*
X180800000Y-153345000D01*
X180800000Y-153345000D02*
X180800000Y-153202142D01*
X180800000Y-153202142D02*
X180871428Y-153059285D01*
X180871428Y-153059285D02*
X180942857Y-152987857D01*
X180942857Y-152987857D02*
X181085714Y-152916428D01*
X181085714Y-152916428D02*
X181442857Y-152916428D01*
X181442857Y-152916428D02*
X181657143Y-152987857D01*
X182942857Y-153416428D02*
X182942857Y-154416428D01*
X182299999Y-153416428D02*
X182299999Y-154202142D01*
X182299999Y-154202142D02*
X182371428Y-154345000D01*
X182371428Y-154345000D02*
X182514285Y-154416428D01*
X182514285Y-154416428D02*
X182728571Y-154416428D01*
X182728571Y-154416428D02*
X182871428Y-154345000D01*
X182871428Y-154345000D02*
X182942857Y-154273571D01*
X183657142Y-153416428D02*
X183657142Y-154916428D01*
X183657142Y-153487857D02*
X183800000Y-153416428D01*
X183800000Y-153416428D02*
X184085714Y-153416428D01*
X184085714Y-153416428D02*
X184228571Y-153487857D01*
X184228571Y-153487857D02*
X184300000Y-153559285D01*
X184300000Y-153559285D02*
X184371428Y-153702142D01*
X184371428Y-153702142D02*
X184371428Y-154130714D01*
X184371428Y-154130714D02*
X184300000Y-154273571D01*
X184300000Y-154273571D02*
X184228571Y-154345000D01*
X184228571Y-154345000D02*
X184085714Y-154416428D01*
X184085714Y-154416428D02*
X183800000Y-154416428D01*
X183800000Y-154416428D02*
X183657142Y-154345000D01*
X185014285Y-153416428D02*
X185014285Y-154916428D01*
X185014285Y-153487857D02*
X185157143Y-153416428D01*
X185157143Y-153416428D02*
X185442857Y-153416428D01*
X185442857Y-153416428D02*
X185585714Y-153487857D01*
X185585714Y-153487857D02*
X185657143Y-153559285D01*
X185657143Y-153559285D02*
X185728571Y-153702142D01*
X185728571Y-153702142D02*
X185728571Y-154130714D01*
X185728571Y-154130714D02*
X185657143Y-154273571D01*
X185657143Y-154273571D02*
X185585714Y-154345000D01*
X185585714Y-154345000D02*
X185442857Y-154416428D01*
X185442857Y-154416428D02*
X185157143Y-154416428D01*
X185157143Y-154416428D02*
X185014285Y-154345000D01*
X186585714Y-154416428D02*
X186442857Y-154345000D01*
X186442857Y-154345000D02*
X186371428Y-154202142D01*
X186371428Y-154202142D02*
X186371428Y-152916428D01*
X187014285Y-153416428D02*
X187371428Y-154416428D01*
X187728571Y-153416428D02*
X187371428Y-154416428D01*
X187371428Y-154416428D02*
X187228571Y-154773571D01*
X187228571Y-154773571D02*
X187157142Y-154845000D01*
X187157142Y-154845000D02*
X187014285Y-154916428D01*
X189228571Y-152916428D02*
X189728571Y-154416428D01*
X189728571Y-154416428D02*
X190228571Y-152916428D01*
X191514285Y-154416428D02*
X190657142Y-154416428D01*
X191085713Y-154416428D02*
X191085713Y-152916428D01*
X191085713Y-152916428D02*
X190942856Y-153130714D01*
X190942856Y-153130714D02*
X190799999Y-153273571D01*
X190799999Y-153273571D02*
X190657142Y-153345000D01*
X192157141Y-154273571D02*
X192228570Y-154345000D01*
X192228570Y-154345000D02*
X192157141Y-154416428D01*
X192157141Y-154416428D02*
X192085713Y-154345000D01*
X192085713Y-154345000D02*
X192157141Y-154273571D01*
X192157141Y-154273571D02*
X192157141Y-154416428D01*
X192728570Y-152916428D02*
X193657142Y-152916428D01*
X193657142Y-152916428D02*
X193157142Y-153487857D01*
X193157142Y-153487857D02*
X193371427Y-153487857D01*
X193371427Y-153487857D02*
X193514285Y-153559285D01*
X193514285Y-153559285D02*
X193585713Y-153630714D01*
X193585713Y-153630714D02*
X193657142Y-153773571D01*
X193657142Y-153773571D02*
X193657142Y-154130714D01*
X193657142Y-154130714D02*
X193585713Y-154273571D01*
X193585713Y-154273571D02*
X193514285Y-154345000D01*
X193514285Y-154345000D02*
X193371427Y-154416428D01*
X193371427Y-154416428D02*
X192942856Y-154416428D01*
X192942856Y-154416428D02*
X192799999Y-154345000D01*
X192799999Y-154345000D02*
X192728570Y-154273571D01*
D10*
D11*
X124238095Y-144496666D02*
X125000000Y-144496666D01*
X124619047Y-144877619D02*
X124619047Y-144115714D01*
X125952380Y-143877619D02*
X125476190Y-143877619D01*
X125476190Y-143877619D02*
X125428571Y-144353809D01*
X125428571Y-144353809D02*
X125476190Y-144306190D01*
X125476190Y-144306190D02*
X125571428Y-144258571D01*
X125571428Y-144258571D02*
X125809523Y-144258571D01*
X125809523Y-144258571D02*
X125904761Y-144306190D01*
X125904761Y-144306190D02*
X125952380Y-144353809D01*
X125952380Y-144353809D02*
X125999999Y-144449047D01*
X125999999Y-144449047D02*
X125999999Y-144687142D01*
X125999999Y-144687142D02*
X125952380Y-144782380D01*
X125952380Y-144782380D02*
X125904761Y-144830000D01*
X125904761Y-144830000D02*
X125809523Y-144877619D01*
X125809523Y-144877619D02*
X125571428Y-144877619D01*
X125571428Y-144877619D02*
X125476190Y-144830000D01*
X125476190Y-144830000D02*
X125428571Y-144782380D01*
X126285714Y-143877619D02*
X126619047Y-144877619D01*
X126619047Y-144877619D02*
X126952380Y-143877619D01*
X127238095Y-144591904D02*
X127714285Y-144591904D01*
X127142857Y-144877619D02*
X127476190Y-143877619D01*
X127476190Y-143877619D02*
X127809523Y-144877619D01*
D14*
G04 #@! TO.P,JP1,1,A*
G04 #@! TO.N,/Vin*
X110550000Y-71417677D03*
D15*
G04 #@! TO.P,JP1,2,B*
G04 #@! TO.N,V+*
X112000000Y-71417677D03*
G04 #@! TD*
D16*
G04 #@! TO.P,Q1,D,D*
G04 #@! TO.N,V+*
X115175000Y-80717677D03*
X115175000Y-81987677D03*
X115175000Y-83257677D03*
X115175000Y-84527677D03*
G04 #@! TO.P,Q1,G,G*
G04 #@! TO.N,Net-(U1-GATE)*
X107775000Y-84527677D03*
G04 #@! TO.P,Q1,S,S*
G04 #@! TO.N,/Vin*
X107775000Y-80717677D03*
X107775000Y-81987677D03*
X107775000Y-83257677D03*
G04 #@! TD*
D17*
G04 #@! TO.P,J1,1*
G04 #@! TO.N,/Vin*
X100000000Y-75460177D03*
D18*
G04 #@! TO.P,J1,2*
G04 #@! TO.N,GNDD*
X94000000Y-75460177D03*
D19*
G04 #@! TO.P,J1,3*
G04 #@! TO.N,N/C*
X97000000Y-80160177D03*
G04 #@! TD*
D20*
G04 #@! TO.P,U1,1,VCAP*
G04 #@! TO.N,Net-(U1-VCAP)*
X101137500Y-86967677D03*
G04 #@! TO.P,U1,2,GND*
G04 #@! TO.N,GNDD*
X101137500Y-87917677D03*
G04 #@! TO.P,U1,3,EN*
G04 #@! TO.N,/Vin*
X101137500Y-88867677D03*
G04 #@! TO.P,U1,4,CATHODE*
G04 #@! TO.N,V+*
X103412500Y-88867677D03*
G04 #@! TO.P,U1,5,GATE*
G04 #@! TO.N,Net-(U1-GATE)*
X103412500Y-87917677D03*
G04 #@! TO.P,U1,6,ANODE*
G04 #@! TO.N,/Vin*
X103412500Y-86967677D03*
G04 #@! TD*
D21*
G04 #@! TO.P,C6,1*
G04 #@! TO.N,GNDD*
X181000000Y-94000000D03*
D22*
G04 #@! TO.P,C6,2*
G04 #@! TO.N,-5V*
X186000000Y-94000000D03*
G04 #@! TD*
D23*
G04 #@! TO.P,C7,1*
G04 #@! TO.N,Net-(U4-+VIN)*
X103000000Y-126000000D03*
D24*
G04 #@! TO.P,C7,2*
G04 #@! TO.N,Net-(U4--VIN)*
X103000000Y-128000000D03*
G04 #@! TD*
D23*
G04 #@! TO.P,U4,1,+VIN*
G04 #@! TO.N,Net-(U4-+VIN)*
X113000000Y-125840000D03*
D25*
G04 #@! TO.P,U4,2,-VIN*
G04 #@! TO.N,Net-(U4--VIN)*
X113000000Y-128380000D03*
G04 #@! TO.P,U4,4,-VOUT*
G04 #@! TO.N,Net-(U4--VOUT)*
X113000000Y-133460000D03*
G04 #@! TO.P,U4,5,Common*
G04 #@! TO.N,Net-(U4-Common)*
X113000000Y-136000000D03*
G04 #@! TO.P,U4,6,+VOUT*
G04 #@! TO.N,Net-(U4-+VOUT)*
X113000000Y-138540000D03*
G04 #@! TD*
D26*
G04 #@! TO.P,U5,1,VI*
G04 #@! TO.N,Net-(U5-VI)*
X152000000Y-91920000D03*
D27*
G04 #@! TO.P,U5,2,GND*
G04 #@! TO.N,GNDD*
X152000000Y-94460000D03*
G04 #@! TO.P,U5,3,VO*
G04 #@! TO.N,+12V*
X152000000Y-97000000D03*
G04 #@! TD*
D23*
G04 #@! TO.P,C11,1*
G04 #@! TO.N,Net-(C11-Pad1)*
X150000000Y-73920000D03*
D24*
G04 #@! TO.P,C11,2*
G04 #@! TO.N,GNDD*
X148000000Y-73920000D03*
G04 #@! TD*
D28*
G04 #@! TO.P,C4,1*
G04 #@! TO.N,V+*
X123300000Y-73950000D03*
D29*
G04 #@! TO.P,C4,2*
G04 #@! TO.N,GNDD*
X123300000Y-78950000D03*
G04 #@! TD*
D21*
G04 #@! TO.P,C5,1*
G04 #@! TO.N,GNDD*
X181000000Y-108000000D03*
D22*
G04 #@! TO.P,C5,2*
G04 #@! TO.N,-5V*
X186000000Y-108000000D03*
G04 #@! TD*
D28*
G04 #@! TO.P,C9,1*
G04 #@! TO.N,Net-(C11-Pad1)*
X139000000Y-73920000D03*
D29*
G04 #@! TO.P,C9,2*
G04 #@! TO.N,GNDD*
X139000000Y-78920000D03*
G04 #@! TD*
D28*
G04 #@! TO.P,D1,1,K*
G04 #@! TO.N,Net-(D1-K)*
X179000000Y-79000000D03*
D30*
G04 #@! TO.P,D1,2,A*
G04 #@! TO.N,-5V*
X179000000Y-84080000D03*
G04 #@! TD*
D31*
G04 #@! TO.P,U2,1,VIN*
G04 #@! TO.N,V+*
X185000000Y-78300000D03*
D32*
G04 #@! TO.P,U2,2,OUT*
G04 #@! TO.N,Net-(D1-K)*
X185000000Y-80000000D03*
G04 #@! TO.P,U2,3,GND*
G04 #@! TO.N,-5V*
X185000000Y-81700000D03*
G04 #@! TO.P,U2,4,FB*
G04 #@! TO.N,Net-(U2-FB)*
X185000000Y-83400000D03*
G04 #@! TO.P,U2,5,~{ON}/OFF*
G04 #@! TO.N,-5V*
X185000000Y-85100000D03*
G04 #@! TD*
D14*
G04 #@! TO.P,JP2,1,A*
G04 #@! TO.N,/Vin*
X110550000Y-73917677D03*
D15*
G04 #@! TO.P,JP2,2,B*
G04 #@! TO.N,V+*
X112000000Y-73917677D03*
G04 #@! TD*
D33*
G04 #@! TO.P,C3,1*
G04 #@! TO.N,/Vin*
X103225000Y-84917677D03*
G04 #@! TO.P,C3,2*
G04 #@! TO.N,Net-(U1-VCAP)*
X101150000Y-84917677D03*
G04 #@! TD*
D34*
G04 #@! TO.P,C1,1*
G04 #@! TO.N,/Vin*
X97275000Y-88955177D03*
G04 #@! TO.P,C1,2*
G04 #@! TO.N,GNDD*
X97275000Y-86880177D03*
G04 #@! TD*
D21*
G04 #@! TO.P,C2,1*
G04 #@! TO.N,V+*
X189000000Y-68000000D03*
D22*
G04 #@! TO.P,C2,2*
G04 #@! TO.N,GNDD*
X184000000Y-68000000D03*
G04 #@! TD*
D23*
G04 #@! TO.P,C17,1*
G04 #@! TO.N,+12V*
X145000000Y-98920000D03*
D24*
G04 #@! TO.P,C17,2*
G04 #@! TO.N,GNDD*
X145000000Y-96920000D03*
G04 #@! TD*
D35*
G04 #@! TO.P,L1,1,1*
G04 #@! TO.N,Net-(D1-K)*
X173000000Y-69300000D03*
D36*
G04 #@! TO.P,L1,2,2*
G04 #@! TO.N,GNDD*
X173000000Y-94700000D03*
G04 #@! TD*
D23*
G04 #@! TO.P,C14,1*
G04 #@! TO.N,Net-(U5-VI)*
X145000000Y-89920000D03*
D24*
G04 #@! TO.P,C14,2*
G04 #@! TO.N,GNDD*
X145000000Y-91920000D03*
G04 #@! TD*
D35*
G04 #@! TO.P,L2,1,1*
G04 #@! TO.N,V+*
X155700000Y-65920000D03*
D36*
G04 #@! TO.P,L2,2,2*
G04 #@! TO.N,Net-(C11-Pad1)*
X130300000Y-65920000D03*
G04 #@! TD*
D23*
G04 #@! TO.P,C13,1*
G04 #@! TO.N,Net-(U4-Common)*
X118000000Y-133000000D03*
D24*
G04 #@! TO.P,C13,2*
G04 #@! TO.N,Net-(U4--VOUT)*
X118000000Y-131000000D03*
G04 #@! TD*
D23*
G04 #@! TO.P,C12,1*
G04 #@! TO.N,Net-(U4-+VOUT)*
X118000000Y-141000000D03*
D24*
G04 #@! TO.P,C12,2*
G04 #@! TO.N,Net-(U4-Common)*
X118000000Y-139000000D03*
G04 #@! TD*
D37*
G04 #@! TO.P,J2,0*
G04 #@! TO.N,N/C*
X131655000Y-150460000D03*
X156655000Y-150460000D03*
D23*
G04 #@! TO.P,J2,1,Pin_1*
G04 #@! TO.N,-5V*
X138615000Y-150160000D03*
D24*
G04 #@! TO.P,J2,2,Pin_2*
G04 #@! TO.N,+5V*
X141385000Y-150160000D03*
G04 #@! TO.P,J2,3,Pin_3*
G04 #@! TO.N,+12V*
X144155000Y-150160000D03*
G04 #@! TO.P,J2,4,Pin_4*
G04 #@! TO.N,GNDD*
X146925000Y-150160000D03*
G04 #@! TO.P,J2,5,Pin_5*
G04 #@! TO.N,V+*
X149695000Y-150160000D03*
G04 #@! TO.P,J2,6,Pin_6*
G04 #@! TO.N,+5VA*
X140000000Y-153000000D03*
G04 #@! TO.P,J2,7,Pin_7*
G04 #@! TO.N,GND_Input*
X142770000Y-153000000D03*
G04 #@! TO.P,J2,8,Pin_8*
G04 #@! TO.N,-5VA*
X145540000Y-153000000D03*
G04 #@! TO.P,J2,9,Pin_9*
G04 #@! TO.N,GNDD*
X148310000Y-153000000D03*
G04 #@! TD*
D38*
G04 #@! TO.P,TP2,1,1*
G04 #@! TO.N,GNDD*
X123000000Y-85000000D03*
G04 #@! TD*
G04 #@! TO.P,TP7,1,1*
G04 #@! TO.N,GND_Input*
X128000000Y-136000000D03*
G04 #@! TD*
D14*
G04 #@! TO.P,JP3,1,A*
G04 #@! TO.N,/Vin*
X110550000Y-76417677D03*
D15*
G04 #@! TO.P,JP3,2,B*
G04 #@! TO.N,V+*
X112000000Y-76417677D03*
G04 #@! TD*
D39*
G04 #@! TO.P,FID1,*
G04 #@! TO.N,*
X97800000Y-62000000D03*
G04 #@! TD*
D40*
G04 #@! TO.P,TP1,1,1*
G04 #@! TO.N,V+*
X114000000Y-68000000D03*
G04 #@! TD*
D39*
G04 #@! TO.P,FID2,*
G04 #@! TO.N,*
X201100000Y-62800000D03*
G04 #@! TD*
D40*
G04 #@! TO.P,TP3,1,1*
G04 #@! TO.N,-5V*
X195000000Y-108000000D03*
G04 #@! TD*
D29*
G04 #@! TO.P,L3,1,1*
G04 #@! TO.N,Net-(C11-Pad1)*
X151500000Y-82920000D03*
G04 #@! TO.P,L3,2,2*
G04 #@! TO.N,Net-(U5-VI)*
X146500000Y-82920000D03*
G04 #@! TD*
D40*
G04 #@! TO.P,TP5,1,1*
G04 #@! TO.N,+5VA*
X123000000Y-145000000D03*
G04 #@! TD*
D26*
G04 #@! TO.P,U3,1,VI*
G04 #@! TO.N,+12V*
X133000000Y-91920000D03*
D27*
G04 #@! TO.P,U3,2,GND*
G04 #@! TO.N,GNDD*
X133000000Y-94460000D03*
G04 #@! TO.P,U3,3,VO*
G04 #@! TO.N,+5V*
X133000000Y-97000000D03*
G04 #@! TD*
D39*
G04 #@! TO.P,FID3,*
G04 #@! TO.N,*
X200400000Y-150500000D03*
G04 #@! TD*
D40*
G04 #@! TO.P,TP4,1,1*
G04 #@! TO.N,+12V*
X145000000Y-102920000D03*
G04 #@! TD*
G04 #@! TO.P,TP6,1,1*
G04 #@! TO.N,-5VA*
X123000000Y-127300000D03*
G04 #@! TD*
D41*
G04 #@! TO.N,V+*
X123600000Y-114150000D03*
X155700000Y-59950000D03*
X116300000Y-73917677D03*
X128700000Y-112650000D03*
X121400000Y-69700000D03*
X126900000Y-83000000D03*
G04 #@! TO.N,+5V*
X133400000Y-118100000D03*
X141450000Y-145700000D03*
G04 #@! TO.N,+5VA*
X123050000Y-143050000D03*
G04 #@! TO.N,-5VA*
X123000000Y-128900000D03*
G04 #@! TO.N,/Vin*
X104100000Y-73917677D03*
G04 #@! TO.N,-5V*
X191100000Y-108000000D03*
G04 #@! TO.N,GNDD*
X191950000Y-81000000D03*
X97300000Y-85117677D03*
G04 #@! TO.N,+12V*
X132900000Y-85950000D03*
X145000000Y-127200000D03*
X144150000Y-145650000D03*
X141600000Y-98950000D03*
G04 #@! TD*
D42*
G04 #@! TO.N,Net-(U1-VCAP)*
X100100000Y-86967677D02*
X99900000Y-86767677D01*
X101137500Y-86967677D02*
X100100000Y-86967677D01*
X99900000Y-86767677D02*
X99900000Y-85267677D01*
X101150000Y-84917677D02*
X100250000Y-84917677D01*
X100250000Y-84917677D02*
X99900000Y-85267677D01*
D43*
G04 #@! TO.N,V+*
X115000000Y-73917677D02*
X116300000Y-73917677D01*
X118200000Y-75817677D02*
X116300000Y-73917677D01*
D44*
X125100000Y-112650000D02*
X123600000Y-114150000D01*
D43*
X115175000Y-84527677D02*
X112140000Y-84527677D01*
D45*
X112000000Y-76417677D02*
X112700000Y-76417677D01*
D43*
X126900000Y-70550000D02*
X126900000Y-83000000D01*
X118200000Y-80667677D02*
X118200000Y-75817677D01*
X117490000Y-84527677D02*
X118200000Y-83817677D01*
X118150000Y-80717677D02*
X118200000Y-80667677D01*
X121400000Y-69700000D02*
X126050000Y-69700000D01*
D44*
X128700000Y-112650000D02*
X125100000Y-112650000D01*
D43*
X115000000Y-73917677D02*
X115000000Y-75517677D01*
X118180000Y-81987677D02*
X118200000Y-81967677D01*
X114000000Y-71417677D02*
X114000000Y-68000000D01*
X114100000Y-76417677D02*
X112700000Y-76417677D01*
D45*
X103412500Y-88867677D02*
X105000000Y-88867677D01*
X112000000Y-73917677D02*
X112700000Y-73917677D01*
D43*
X115000000Y-72417677D02*
X115000000Y-73917677D01*
X126050000Y-69700000D02*
X126900000Y-70550000D01*
X112140000Y-84527677D02*
X107800000Y-88867677D01*
X115175000Y-80717677D02*
X118150000Y-80717677D01*
X107800000Y-88867677D02*
X105000000Y-88867677D01*
X118200000Y-83817677D02*
X118200000Y-83217677D01*
X112700000Y-71417677D02*
X114000000Y-71417677D01*
X115175000Y-83257677D02*
X118160000Y-83257677D01*
X115175000Y-84527677D02*
X117490000Y-84527677D01*
X155700000Y-65920000D02*
X155700000Y-59950000D01*
X115000000Y-73917677D02*
X112700000Y-73917677D01*
D45*
X112000000Y-71417677D02*
X112700000Y-71417677D01*
D43*
X118200000Y-81967677D02*
X118200000Y-80667677D01*
X115000000Y-72417677D02*
X114000000Y-71417677D01*
X118200000Y-83217677D02*
X118200000Y-81967677D01*
X115175000Y-81987677D02*
X118180000Y-81987677D01*
X118160000Y-83257677D02*
X118200000Y-83217677D01*
X115000000Y-75517677D02*
X114100000Y-76417677D01*
D44*
G04 #@! TO.N,+5V*
X133400000Y-118100000D02*
X140350000Y-125050000D01*
X140350000Y-125050000D02*
X141450000Y-126150000D01*
X141450000Y-126150000D02*
X141450000Y-145700000D01*
G04 #@! TO.N,+5VA*
X123050000Y-144950000D02*
X123000000Y-145000000D01*
X123050000Y-143050000D02*
X123050000Y-144950000D01*
G04 #@! TO.N,-5VA*
X123000000Y-128900000D02*
X123000000Y-127300000D01*
D42*
G04 #@! TO.N,/Vin*
X103225000Y-84917677D02*
X103225000Y-82642677D01*
D43*
X107300000Y-73917677D02*
X110550000Y-73917677D01*
D42*
X105470000Y-81987677D02*
X105400000Y-81917677D01*
X104100000Y-79417677D02*
X104100000Y-73917677D01*
X103412500Y-86967677D02*
X104150000Y-86967677D01*
D43*
X107300000Y-73917677D02*
X107300000Y-75317677D01*
X108300000Y-71417677D02*
X107300000Y-72417677D01*
D42*
X99200000Y-88955177D02*
X101050000Y-88955177D01*
X100650000Y-82617677D02*
X99200000Y-84067677D01*
D43*
X110550000Y-71417677D02*
X108300000Y-71417677D01*
D42*
X105400000Y-81917677D02*
X105400000Y-82617677D01*
X105400000Y-80717677D02*
X105400000Y-81917677D01*
X105400000Y-80717677D02*
X104100000Y-79417677D01*
X104700000Y-85367677D02*
X104250000Y-84917677D01*
X97275000Y-88955177D02*
X99200000Y-88955177D01*
D43*
X107300000Y-72417677D02*
X107300000Y-73917677D01*
D42*
X103225000Y-84917677D02*
X104250000Y-84917677D01*
X107775000Y-80717677D02*
X105400000Y-80717677D01*
X107775000Y-81987677D02*
X105470000Y-81987677D01*
X105400000Y-82617677D02*
X103250000Y-82617677D01*
X104150000Y-86967677D02*
X104700000Y-86417677D01*
X103225000Y-82642677D02*
X103250000Y-82617677D01*
X105400000Y-82617677D02*
X106040000Y-83257677D01*
X104700000Y-86417677D02*
X104700000Y-85367677D01*
X101050000Y-88955177D02*
X101137500Y-88867677D01*
X99200000Y-84067677D02*
X99200000Y-88955177D01*
D43*
X108400000Y-76417677D02*
X110550000Y-76417677D01*
D42*
X106040000Y-83257677D02*
X107775000Y-83257677D01*
D43*
X107300000Y-75317677D02*
X108400000Y-76417677D01*
X107300000Y-73917677D02*
X104100000Y-73917677D01*
D42*
X103250000Y-82617677D02*
X100650000Y-82617677D01*
D44*
G04 #@! TO.N,-5V*
X191100000Y-108000000D02*
X195000000Y-108000000D01*
D45*
G04 #@! TO.N,GNDD*
X101600000Y-90517677D02*
X95500000Y-90517677D01*
X102300000Y-89817677D02*
X101600000Y-90517677D01*
D44*
X177950000Y-97250000D02*
X181000000Y-97250000D01*
D45*
X102300000Y-88417677D02*
X102300000Y-89817677D01*
X95000000Y-90017677D02*
X95000000Y-87717677D01*
D44*
X189350000Y-97250000D02*
X191950000Y-94650000D01*
X173000000Y-94700000D02*
X175400000Y-94700000D01*
D45*
X95000000Y-87717677D02*
X95837500Y-86880177D01*
D44*
X175400000Y-94700000D02*
X177950000Y-97250000D01*
X97275000Y-86880177D02*
X97275000Y-85142677D01*
D45*
X101137500Y-87917677D02*
X101800000Y-87917677D01*
X101800000Y-87917677D02*
X102300000Y-88417677D01*
D44*
X181000000Y-97250000D02*
X189350000Y-97250000D01*
X191950000Y-94650000D02*
X191950000Y-81000000D01*
X97275000Y-85142677D02*
X97300000Y-85117677D01*
D45*
X95500000Y-90517677D02*
X95000000Y-90017677D01*
X95837500Y-86880177D02*
X97275000Y-86880177D01*
D44*
G04 #@! TO.N,+12V*
X143720000Y-102920000D02*
X145000000Y-102920000D01*
X145000000Y-127200000D02*
X145000000Y-144800000D01*
X141600000Y-100800000D02*
X143720000Y-102920000D01*
X141600000Y-98950000D02*
X141600000Y-100800000D01*
X137050000Y-85950000D02*
X132900000Y-85950000D01*
X141600000Y-98950000D02*
X141600000Y-95200000D01*
X141600000Y-90500000D02*
X137050000Y-85950000D01*
X141600000Y-95200000D02*
X141600000Y-90500000D01*
X145000000Y-144800000D02*
X144150000Y-145650000D01*
D42*
G04 #@! TO.N,Net-(U1-GATE)*
X106190000Y-84527677D02*
X107775000Y-84527677D01*
X103412500Y-87917677D02*
X104500000Y-87917677D01*
X105400000Y-87017677D02*
X105400000Y-85317677D01*
X104500000Y-87917677D02*
X105400000Y-87017677D01*
X105400000Y-85317677D02*
X106190000Y-84527677D01*
G04 #@! TD*
D46*
X123600000Y-114150000D03*
X155700000Y-59950000D03*
X116300000Y-73917677D03*
X128700000Y-112650000D03*
X121400000Y-69700000D03*
X126900000Y-83000000D03*
X133400000Y-118100000D03*
X141450000Y-145700000D03*
X123050000Y-143050000D03*
X123000000Y-128900000D03*
X104100000Y-73917677D03*
X191100000Y-108000000D03*
X191950000Y-81000000D03*
X97300000Y-85117677D03*
X132900000Y-85950000D03*
X145000000Y-127200000D03*
X144150000Y-145650000D03*
X141600000Y-98950000D03*
D47*
X100000000Y-75460177D03*
X94000000Y-75460177D03*
D48*
X97000000Y-80160177D03*
D46*
X181000000Y-94000000D03*
X186000000Y-94000000D03*
X103000000Y-126000000D03*
X103000000Y-128000000D03*
X113000000Y-125840000D03*
X113000000Y-128380000D03*
X113000000Y-133460000D03*
X113000000Y-136000000D03*
X113000000Y-138540000D03*
X152000000Y-91920000D03*
X152000000Y-94460000D03*
X152000000Y-97000000D03*
X150000000Y-73920000D03*
X148000000Y-73920000D03*
X123300000Y-73950000D03*
X123300000Y-78950000D03*
X181000000Y-108000000D03*
X186000000Y-108000000D03*
X139000000Y-73920000D03*
X139000000Y-78920000D03*
X179000000Y-79000000D03*
X179000000Y-84080000D03*
X185000000Y-78300000D03*
X185000000Y-80000000D03*
X185000000Y-81700000D03*
X185000000Y-83400000D03*
X185000000Y-85100000D03*
X189000000Y-68000000D03*
X184000000Y-68000000D03*
X145000000Y-98920000D03*
X145000000Y-96920000D03*
X173000000Y-69300000D03*
X173000000Y-94700000D03*
X145000000Y-89920000D03*
X145000000Y-91920000D03*
X155700000Y-65920000D03*
X130300000Y-65920000D03*
X118000000Y-133000000D03*
X118000000Y-131000000D03*
X118000000Y-141000000D03*
X118000000Y-139000000D03*
X131655000Y-150460000D03*
X156655000Y-150460000D03*
X138615000Y-150160000D03*
X141385000Y-150160000D03*
X144155000Y-150160000D03*
X146925000Y-150160000D03*
X149695000Y-150160000D03*
X140000000Y-153000000D03*
X142770000Y-153000000D03*
X145540000Y-153000000D03*
X148310000Y-153000000D03*
X123000000Y-85000000D03*
X128000000Y-136000000D03*
X151500000Y-82920000D03*
X146500000Y-82920000D03*
X133000000Y-91920000D03*
X133000000Y-94460000D03*
X133000000Y-97000000D03*
M02*
