G04 #@! TF.GenerationSoftware,KiCad,Pcbnew,7.0.2-1.fc37*
G04 #@! TF.CreationDate,2023-07-20T15:30:54+02:00*
G04 #@! TF.ProjectId,office_amp,6f666669-6365-45f6-916d-702e6b696361,V1.3*
G04 #@! TF.SameCoordinates,Original*
G04 #@! TF.FileFunction,Copper,L2,Bot*
G04 #@! TF.FilePolarity,Positive*
%FSLAX46Y46*%
G04 Gerber Fmt 4.6, Leading zero omitted, Abs format (unit mm)*
G04 Created by KiCad (PCBNEW 7.0.2-1.fc37) date 2023-07-20 15:30:54*
%MOMM*%
%LPD*%
G01*
G04 APERTURE LIST*
G04 Aperture macros list*
%AMRoundRect*
0 Rectangle with rounded corners*
0 $1 Rounding radius*
0 $2 $3 $4 $5 $6 $7 $8 $9 X,Y pos of 4 corners*
0 Add a 4 corners polygon primitive as box body*
4,1,4,$2,$3,$4,$5,$6,$7,$8,$9,$2,$3,0*
0 Add four circle primitives for the rounded corners*
1,1,$1+$1,$2,$3*
1,1,$1+$1,$4,$5*
1,1,$1+$1,$6,$7*
1,1,$1+$1,$8,$9*
0 Add four rect primitives between the rounded corners*
20,1,$1+$1,$2,$3,$4,$5,0*
20,1,$1+$1,$4,$5,$6,$7,0*
20,1,$1+$1,$6,$7,$8,$9,0*
20,1,$1+$1,$8,$9,$2,$3,0*%
G04 Aperture macros list end*
G04 #@! TA.AperFunction,Profile*
%ADD10C,0.100000*%
G04 #@! TD*
G04 #@! TA.AperFunction,ComponentPad*
%ADD11R,3.500000X3.500000*%
G04 #@! TD*
G04 #@! TA.AperFunction,ComponentPad*
%ADD12RoundRect,0.750000X-0.750000X-1.000000X0.750000X-1.000000X0.750000X1.000000X-0.750000X1.000000X0*%
G04 #@! TD*
G04 #@! TA.AperFunction,ComponentPad*
%ADD13RoundRect,0.875000X-0.875000X-0.875000X0.875000X-0.875000X0.875000X0.875000X-0.875000X0.875000X0*%
G04 #@! TD*
G04 #@! TA.AperFunction,ComponentPad*
%ADD14R,2.400000X2.400000*%
G04 #@! TD*
G04 #@! TA.AperFunction,ComponentPad*
%ADD15C,2.400000*%
G04 #@! TD*
G04 #@! TA.AperFunction,ComponentPad*
%ADD16R,1.600000X1.600000*%
G04 #@! TD*
G04 #@! TA.AperFunction,ComponentPad*
%ADD17C,1.600000*%
G04 #@! TD*
G04 #@! TA.AperFunction,ComponentPad*
%ADD18C,1.700000*%
G04 #@! TD*
G04 #@! TA.AperFunction,ComponentPad*
%ADD19R,2.000000X1.905000*%
G04 #@! TD*
G04 #@! TA.AperFunction,ComponentPad*
%ADD20O,2.000000X1.905000*%
G04 #@! TD*
G04 #@! TA.AperFunction,ComponentPad*
%ADD21R,2.000000X2.000000*%
G04 #@! TD*
G04 #@! TA.AperFunction,ComponentPad*
%ADD22C,2.000000*%
G04 #@! TD*
G04 #@! TA.AperFunction,ComponentPad*
%ADD23O,2.000000X2.000000*%
G04 #@! TD*
G04 #@! TA.AperFunction,ComponentPad*
%ADD24R,1.800000X1.275000*%
G04 #@! TD*
G04 #@! TA.AperFunction,ComponentPad*
%ADD25O,1.800000X1.275000*%
G04 #@! TD*
G04 #@! TA.AperFunction,ComponentPad*
%ADD26C,2.200000*%
G04 #@! TD*
G04 #@! TA.AperFunction,ComponentPad*
%ADD27O,2.200000X2.200000*%
G04 #@! TD*
G04 #@! TA.AperFunction,ComponentPad*
%ADD28C,4.000000*%
G04 #@! TD*
G04 #@! TA.AperFunction,ComponentPad*
%ADD29C,2.800000*%
G04 #@! TD*
G04 #@! TA.AperFunction,SMDPad,CuDef*
%ADD30RoundRect,0.250000X-0.337500X-0.475000X0.337500X-0.475000X0.337500X0.475000X-0.337500X0.475000X0*%
G04 #@! TD*
G04 #@! TA.AperFunction,SMDPad,CuDef*
%ADD31RoundRect,0.250000X0.350000X0.450000X-0.350000X0.450000X-0.350000X-0.450000X0.350000X-0.450000X0*%
G04 #@! TD*
G04 #@! TA.AperFunction,SMDPad,CuDef*
%ADD32RoundRect,0.250000X0.337500X0.475000X-0.337500X0.475000X-0.337500X-0.475000X0.337500X-0.475000X0*%
G04 #@! TD*
G04 #@! TA.AperFunction,SMDPad,CuDef*
%ADD33RoundRect,0.250000X-0.450000X0.350000X-0.450000X-0.350000X0.450000X-0.350000X0.450000X0.350000X0*%
G04 #@! TD*
G04 #@! TA.AperFunction,ViaPad*
%ADD34C,1.300000*%
G04 #@! TD*
G04 #@! TA.AperFunction,Conductor*
%ADD35C,1.000000*%
G04 #@! TD*
G04 #@! TA.AperFunction,Conductor*
%ADD36C,0.800000*%
G04 #@! TD*
G04 #@! TA.AperFunction,Conductor*
%ADD37C,0.600000*%
G04 #@! TD*
%ADD38C,0.350000*%
%ADD39O,1.000000X3.000000*%
%ADD40O,3.000000X1.000000*%
G04 APERTURE END LIST*
D10*
X90000000Y-58000000D02*
X207100000Y-58000000D01*
X207100000Y-158000000D02*
X90000000Y-158000000D01*
X207100000Y-58000000D02*
X207100000Y-158000000D01*
X90000000Y-158000000D02*
X90000000Y-58000000D01*
D11*
X100000000Y-75460177D03*
D12*
X94000000Y-75460177D03*
D13*
X97000000Y-80160177D03*
D14*
X181000000Y-94000000D03*
D15*
X186000000Y-94000000D03*
D16*
X103000000Y-126000000D03*
D17*
X103000000Y-128000000D03*
D16*
X113000000Y-125840000D03*
D18*
X113000000Y-128380000D03*
X113000000Y-133460000D03*
X113000000Y-136000000D03*
X113000000Y-138540000D03*
D19*
X152000000Y-91920000D03*
D20*
X152000000Y-94460000D03*
X152000000Y-97000000D03*
D16*
X150000000Y-73920000D03*
D17*
X148000000Y-73920000D03*
D21*
X123300000Y-73950000D03*
D22*
X123300000Y-78950000D03*
D14*
X181000000Y-108000000D03*
D15*
X186000000Y-108000000D03*
D21*
X139000000Y-73920000D03*
D22*
X139000000Y-78920000D03*
D21*
X179000000Y-79000000D03*
D23*
X179000000Y-84080000D03*
D24*
X185000000Y-78300000D03*
D25*
X185000000Y-80000000D03*
X185000000Y-81700000D03*
X185000000Y-83400000D03*
X185000000Y-85100000D03*
D14*
X189000000Y-68000000D03*
D15*
X184000000Y-68000000D03*
D16*
X145000000Y-98920000D03*
D17*
X145000000Y-96920000D03*
D26*
X173000000Y-69300000D03*
D27*
X173000000Y-94700000D03*
D16*
X145000000Y-89920000D03*
D17*
X145000000Y-91920000D03*
D26*
X155700000Y-65920000D03*
D27*
X130300000Y-65920000D03*
D16*
X118000000Y-133000000D03*
D17*
X118000000Y-131000000D03*
D16*
X118000000Y-141000000D03*
D17*
X118000000Y-139000000D03*
D28*
X131655000Y-150460000D03*
X156655000Y-150460000D03*
D16*
X138615000Y-150160000D03*
D17*
X141385000Y-150160000D03*
X144155000Y-150160000D03*
X146925000Y-150160000D03*
X149695000Y-150160000D03*
X140000000Y-153000000D03*
X142770000Y-153000000D03*
X145540000Y-153000000D03*
X148310000Y-153000000D03*
D29*
X123000000Y-85000000D03*
X128000000Y-136000000D03*
D22*
X151500000Y-82920000D03*
X146500000Y-82920000D03*
D19*
X133000000Y-91920000D03*
D20*
X133000000Y-94460000D03*
X133000000Y-97000000D03*
D30*
X132925000Y-88000000D03*
X135000000Y-88000000D03*
D31*
X120000000Y-136000000D03*
X118000000Y-136000000D03*
X123050000Y-141000000D03*
X121050000Y-141000000D03*
X123000000Y-131000000D03*
X121000000Y-131000000D03*
D32*
X123037500Y-139000000D03*
X120962500Y-139000000D03*
D30*
X132925000Y-101000000D03*
X135000000Y-101000000D03*
D33*
X190000000Y-81000000D03*
X190000000Y-83000000D03*
X190000000Y-85000000D03*
X190000000Y-87000000D03*
D31*
X100000000Y-126000000D03*
X98000000Y-126000000D03*
X100000000Y-128000000D03*
X98000000Y-128000000D03*
D30*
X120925000Y-133000000D03*
X123000000Y-133000000D03*
D34*
X123600000Y-114150000D03*
X155700000Y-59950000D03*
X116300000Y-73917677D03*
X128700000Y-112650000D03*
X121400000Y-69700000D03*
X126900000Y-83000000D03*
X133400000Y-118100000D03*
X141450000Y-145700000D03*
X123050000Y-143050000D03*
X123000000Y-128900000D03*
X104100000Y-73917677D03*
X191100000Y-108000000D03*
X191950000Y-81000000D03*
X97300000Y-85117677D03*
X132900000Y-85950000D03*
X145000000Y-127200000D03*
X144150000Y-145650000D03*
X141600000Y-98950000D03*
D35*
X123300000Y-73950000D02*
X123300000Y-69700000D01*
X123300000Y-69700000D02*
X121400000Y-69700000D01*
D36*
X103150000Y-114150000D02*
X95650000Y-121650000D01*
D35*
X149695000Y-136795000D02*
X126900000Y-114000000D01*
X155700000Y-61400000D02*
X155650000Y-61450000D01*
X126900000Y-112600000D02*
X126900000Y-83000000D01*
X126900000Y-114000000D02*
X126900000Y-112600000D01*
X123300000Y-69700000D02*
X123300000Y-63600000D01*
X123300000Y-63600000D02*
X125450000Y-61450000D01*
X189000000Y-63000000D02*
X189000000Y-68000000D01*
D36*
X96300000Y-126000000D02*
X98000000Y-126000000D01*
X128650000Y-112600000D02*
X128700000Y-112650000D01*
X95650000Y-121650000D02*
X95650000Y-125350000D01*
X123600000Y-114150000D02*
X103150000Y-114150000D01*
D35*
X116300000Y-73917677D02*
X123267677Y-73917677D01*
X187450000Y-61450000D02*
X189000000Y-63000000D01*
X149695000Y-150160000D02*
X149695000Y-136795000D01*
X125450000Y-61450000D02*
X155650000Y-61450000D01*
X155700000Y-59950000D02*
X155700000Y-61400000D01*
X155650000Y-61450000D02*
X187450000Y-61450000D01*
X189000000Y-73000000D02*
X185000000Y-77000000D01*
X189000000Y-68000000D02*
X189000000Y-73000000D01*
X185000000Y-77000000D02*
X185000000Y-78300000D01*
D36*
X126900000Y-112600000D02*
X128650000Y-112600000D01*
D35*
X123267677Y-73917677D02*
X123300000Y-73950000D01*
D36*
X95650000Y-125350000D02*
X96300000Y-126000000D01*
X132925000Y-101000000D02*
X132925000Y-117625000D01*
X132925000Y-117625000D02*
X133400000Y-118100000D01*
X141450000Y-150095000D02*
X141385000Y-150160000D01*
X132925000Y-97075000D02*
X133000000Y-97000000D01*
X141450000Y-145700000D02*
X141450000Y-150095000D01*
X132925000Y-101000000D02*
X132925000Y-97075000D01*
X108500000Y-126000000D02*
X108660000Y-125840000D01*
X113000000Y-125840000D02*
X108660000Y-125840000D01*
X103000000Y-126000000D02*
X108500000Y-126000000D01*
X100000000Y-126000000D02*
X103000000Y-126000000D01*
X140000000Y-153000000D02*
X140050000Y-152950000D01*
X123000000Y-141000000D02*
X123000000Y-143000000D01*
X140050000Y-147950000D02*
X140050000Y-142514214D01*
X123000000Y-143000000D02*
X123050000Y-143050000D01*
D37*
X140050000Y-152950000D02*
X140050000Y-149650000D01*
D36*
X123050000Y-139012500D02*
X123037500Y-139000000D01*
X140050000Y-142514214D02*
X136535786Y-139000000D01*
X136535786Y-139000000D02*
X123037500Y-139000000D01*
D37*
X140050000Y-149650000D02*
X140050000Y-147950000D01*
D36*
X123050000Y-141000000D02*
X123050000Y-139012500D01*
X103000000Y-128000000D02*
X109240000Y-128000000D01*
X109240000Y-128000000D02*
X109620000Y-128380000D01*
X113000000Y-128380000D02*
X109620000Y-128380000D01*
X100000000Y-128000000D02*
X103000000Y-128000000D01*
D37*
X145540000Y-151610000D02*
X145540000Y-148460000D01*
D36*
X123000000Y-133000000D02*
X123000000Y-131000000D01*
X134900000Y-133000000D02*
X145540000Y-143640000D01*
X145540000Y-153000000D02*
X145540000Y-151610000D01*
X145540000Y-143640000D02*
X145540000Y-148460000D01*
X123000000Y-133000000D02*
X134900000Y-133000000D01*
X123000000Y-131000000D02*
X123000000Y-128900000D01*
D35*
X102557500Y-75460177D02*
X104100000Y-73917677D01*
X100000000Y-75460177D02*
X102557500Y-75460177D01*
D36*
X139000000Y-65970000D02*
X138950000Y-65920000D01*
X138950000Y-65920000D02*
X146020000Y-65920000D01*
X150000000Y-81420000D02*
X151500000Y-82920000D01*
X139000000Y-73920000D02*
X139000000Y-65970000D01*
X130300000Y-65920000D02*
X138950000Y-65920000D01*
X146020000Y-65920000D02*
X150000000Y-69900000D01*
X150000000Y-69900000D02*
X150000000Y-73920000D01*
X150000000Y-73920000D02*
X150000000Y-81420000D01*
X118000000Y-141000000D02*
X115460000Y-141000000D01*
X118000000Y-141000000D02*
X121050000Y-141000000D01*
X115460000Y-141000000D02*
X113000000Y-138540000D01*
X118000000Y-139000000D02*
X118000000Y-136000000D01*
X113000000Y-136000000D02*
X118000000Y-136000000D01*
X118000000Y-133000000D02*
X118000000Y-136000000D01*
X152000000Y-91920000D02*
X152000000Y-90650000D01*
X152000000Y-90650000D02*
X151270000Y-89920000D01*
X145000000Y-89920000D02*
X151270000Y-89920000D01*
X145000000Y-89920000D02*
X145000000Y-84420000D01*
X145000000Y-84420000D02*
X146500000Y-82920000D01*
X185000000Y-80000000D02*
X180000000Y-80000000D01*
X179000000Y-79000000D02*
X179000000Y-73000000D01*
X180000000Y-80000000D02*
X179000000Y-79000000D01*
X179000000Y-73000000D02*
X175300000Y-69300000D01*
X175300000Y-69300000D02*
X173000000Y-69300000D01*
X190000000Y-83000000D02*
X188500000Y-83000000D01*
X185000000Y-83400000D02*
X188100000Y-83400000D01*
X190000000Y-85000000D02*
X190000000Y-83000000D01*
X188100000Y-83400000D02*
X188500000Y-83000000D01*
X182050000Y-83200000D02*
X182050000Y-84000000D01*
X182050000Y-84000000D02*
X182050000Y-85050000D01*
X160950000Y-156650000D02*
X138000000Y-156650000D01*
X135350000Y-154000000D02*
X135350000Y-151900000D01*
X137090000Y-150160000D02*
X138615000Y-150160000D01*
X182050000Y-85050000D02*
X182050000Y-87100000D01*
X185000000Y-85100000D02*
X182100000Y-85100000D01*
X190000000Y-92450000D02*
X188450000Y-94000000D01*
X182100000Y-85100000D02*
X182050000Y-85050000D01*
X179000000Y-84080000D02*
X181970000Y-84080000D01*
X186000000Y-91050000D02*
X186000000Y-94000000D01*
X182050000Y-87100000D02*
X186000000Y-91050000D01*
X138000000Y-156650000D02*
X135350000Y-154000000D01*
X186000000Y-131600000D02*
X160950000Y-156650000D01*
X185000000Y-81700000D02*
X183550000Y-81700000D01*
X188450000Y-94000000D02*
X186000000Y-94000000D01*
X190000000Y-87000000D02*
X190000000Y-92450000D01*
X181970000Y-84080000D02*
X182050000Y-84000000D01*
X186000000Y-108000000D02*
X186000000Y-131600000D01*
X186000000Y-108000000D02*
X186000000Y-94000000D01*
X183550000Y-81700000D02*
X182050000Y-83200000D01*
X135350000Y-151900000D02*
X137090000Y-150160000D01*
X186000000Y-108000000D02*
X191100000Y-108000000D01*
X118000000Y-131000000D02*
X121000000Y-131000000D01*
X113000000Y-133460000D02*
X115460000Y-131000000D01*
X115460000Y-131000000D02*
X118000000Y-131000000D01*
X121750000Y-135300000D02*
X121750000Y-136000000D01*
X135750000Y-136000000D02*
X128000000Y-136000000D01*
X120000000Y-136000000D02*
X121750000Y-136000000D01*
X142770000Y-143020000D02*
X135750000Y-136000000D01*
X120962500Y-139000000D02*
X120962500Y-137637500D01*
X120962500Y-137637500D02*
X121750000Y-136850000D01*
X121750000Y-136000000D02*
X128000000Y-136000000D01*
X121750000Y-136850000D02*
X121750000Y-136000000D01*
X142770000Y-148070000D02*
X142770000Y-143020000D01*
D37*
X142770000Y-149070000D02*
X142770000Y-148070000D01*
D36*
X120925000Y-134475000D02*
X121750000Y-135300000D01*
D37*
X142770000Y-153000000D02*
X142770000Y-149070000D01*
D36*
X120925000Y-133000000D02*
X120925000Y-134475000D01*
X180850000Y-96900000D02*
X181000000Y-96750000D01*
X169900000Y-96900000D02*
X172950000Y-96900000D01*
X123300000Y-78950000D02*
X123300000Y-84700000D01*
X151905634Y-137450000D02*
X135000000Y-120544366D01*
D35*
X94000000Y-83817677D02*
X94000000Y-75460177D01*
X97700000Y-71917677D02*
X106300000Y-71917677D01*
D36*
X138960000Y-94460000D02*
X139000000Y-94500000D01*
X182400000Y-62600000D02*
X184000000Y-64200000D01*
X136000000Y-77600000D02*
X137320000Y-78920000D01*
X127400000Y-62600000D02*
X182400000Y-62600000D01*
X173000000Y-94700000D02*
X173000000Y-96850000D01*
X126200000Y-68900000D02*
X131550000Y-68900000D01*
X131550000Y-68900000D02*
X136000000Y-73350000D01*
X123000000Y-85000000D02*
X123000000Y-91450000D01*
X145930000Y-73920000D02*
X140930000Y-78920000D01*
X94400000Y-128000000D02*
X98000000Y-128000000D01*
X148000000Y-73920000D02*
X145930000Y-73920000D01*
X146925000Y-151615000D02*
X148310000Y-153000000D01*
X125800000Y-112550000D02*
X102500000Y-112550000D01*
X178100000Y-68000000D02*
X176900000Y-66800000D01*
X150850000Y-153000000D02*
X152000000Y-151850000D01*
X191950000Y-81000000D02*
X190000000Y-81000000D01*
X167600000Y-94600000D02*
X169900000Y-96900000D01*
X126200000Y-76050000D02*
X126200000Y-68900000D01*
X93750000Y-127350000D02*
X94400000Y-128000000D01*
X152000000Y-137450000D02*
X151905634Y-137450000D01*
X125800000Y-112550000D02*
X125800000Y-114455635D01*
D35*
X106300000Y-71917677D02*
X113332323Y-78950000D01*
D36*
X181000000Y-94000000D02*
X181000000Y-96750000D01*
X145010000Y-94460000D02*
X145000000Y-94450000D01*
X145000000Y-94470000D02*
X145000000Y-96920000D01*
X126200000Y-63800000D02*
X127400000Y-62600000D01*
X146925000Y-135580634D02*
X146925000Y-150160000D01*
X138800000Y-88000000D02*
X139000000Y-88200000D01*
D35*
X113332323Y-78950000D02*
X123300000Y-78950000D01*
D36*
X123000000Y-91450000D02*
X125800000Y-94250000D01*
D35*
X94000000Y-75460177D02*
X94157500Y-75460177D01*
D36*
X173000000Y-96850000D02*
X172950000Y-96900000D01*
X146925000Y-150160000D02*
X146925000Y-151615000D01*
X167600000Y-68600000D02*
X167600000Y-94600000D01*
X139000000Y-78920000D02*
X139000000Y-88200000D01*
X125800000Y-114455635D02*
X146925000Y-135580634D01*
X123300000Y-84700000D02*
X123000000Y-85000000D01*
X135000000Y-120544366D02*
X135000000Y-101000000D01*
X133000000Y-94460000D02*
X138960000Y-94460000D01*
X145010000Y-94460000D02*
X145000000Y-94470000D01*
X125800000Y-94250000D02*
X125800000Y-112550000D01*
X144950000Y-94500000D02*
X145000000Y-94450000D01*
X140930000Y-78920000D02*
X139000000Y-78920000D01*
X148310000Y-153000000D02*
X150850000Y-153000000D01*
X136000000Y-73350000D02*
X136000000Y-77600000D01*
X139000000Y-94500000D02*
X144950000Y-94500000D01*
X137320000Y-78920000D02*
X139000000Y-78920000D01*
X172950000Y-96900000D02*
X180850000Y-96900000D01*
X184000000Y-64200000D02*
X184000000Y-68000000D01*
D35*
X94157500Y-75460177D02*
X97700000Y-71917677D01*
D36*
X139000000Y-88200000D02*
X139000000Y-94500000D01*
X126200000Y-68900000D02*
X126200000Y-63800000D01*
X181000000Y-96750000D02*
X181000000Y-108000000D01*
X135000000Y-88000000D02*
X138800000Y-88000000D01*
X123300000Y-78950000D02*
X126200000Y-76050000D01*
X102500000Y-112550000D02*
X93750000Y-121300000D01*
D35*
X97300000Y-85117677D02*
X95300000Y-85117677D01*
D36*
X184000000Y-68000000D02*
X178100000Y-68000000D01*
X152000000Y-94460000D02*
X145010000Y-94460000D01*
X93750000Y-121300000D02*
X93750000Y-127350000D01*
X145000000Y-94450000D02*
X145000000Y-91920000D01*
X169400000Y-66800000D02*
X167600000Y-68600000D01*
D35*
X95300000Y-85117677D02*
X94000000Y-83817677D01*
D36*
X176900000Y-66800000D02*
X169400000Y-66800000D01*
X152000000Y-151850000D02*
X152000000Y-137450000D01*
X150650000Y-97000000D02*
X148730000Y-98920000D01*
X133000000Y-88075000D02*
X132925000Y-88000000D01*
X144150000Y-150155000D02*
X144155000Y-150160000D01*
X132925000Y-88000000D02*
X132925000Y-85975000D01*
X144150000Y-145650000D02*
X144150000Y-150155000D01*
X148730000Y-98920000D02*
X145000000Y-98920000D01*
X145000000Y-98920000D02*
X145000000Y-127200000D01*
X145000000Y-98920000D02*
X141630000Y-98920000D01*
X152000000Y-97000000D02*
X150650000Y-97000000D01*
X133000000Y-91920000D02*
X133000000Y-88075000D01*
X132925000Y-85975000D02*
X132900000Y-85950000D01*
X141630000Y-98920000D02*
X141600000Y-98950000D01*
G04 #@! TA.AperFunction,Conductor*
G36*
X154783697Y-59019685D02*
G01*
X154829452Y-59072489D01*
X154839396Y-59141647D01*
X154815612Y-59198727D01*
X154710803Y-59337516D01*
X154615101Y-59529710D01*
X154556346Y-59736211D01*
X154536537Y-59949999D01*
X154556346Y-60163786D01*
X154590427Y-60283565D01*
X154589841Y-60353433D01*
X154551574Y-60411892D01*
X154487777Y-60440382D01*
X154471161Y-60441500D01*
X125505640Y-60441500D01*
X125493486Y-60440903D01*
X125450000Y-60436620D01*
X125400453Y-60441500D01*
X125252301Y-60456091D01*
X125188931Y-60475314D01*
X125062196Y-60513759D01*
X125062192Y-60513760D01*
X125062192Y-60513761D01*
X124886996Y-60607404D01*
X124733433Y-60733430D01*
X124705707Y-60767214D01*
X124697536Y-60776228D01*
X122626228Y-62847536D01*
X122617214Y-62855707D01*
X122583430Y-62883433D01*
X122457404Y-63036996D01*
X122371507Y-63197701D01*
X122363758Y-63212197D01*
X122306091Y-63402297D01*
X122286620Y-63599999D01*
X122290903Y-63643487D01*
X122291500Y-63655641D01*
X122291500Y-68567500D01*
X122271815Y-68634539D01*
X122219011Y-68680294D01*
X122167500Y-68691500D01*
X122007161Y-68691500D01*
X121941883Y-68672927D01*
X121918601Y-68658511D01*
X121785017Y-68606760D01*
X121718397Y-68580951D01*
X121507351Y-68541500D01*
X121292649Y-68541500D01*
X121081603Y-68580951D01*
X121081598Y-68580952D01*
X120881401Y-68658509D01*
X120698856Y-68771536D01*
X120540188Y-68916180D01*
X120410804Y-69087513D01*
X120315101Y-69279710D01*
X120256346Y-69486211D01*
X120236537Y-69700000D01*
X120256346Y-69913788D01*
X120315101Y-70120289D01*
X120410804Y-70312486D01*
X120540188Y-70483819D01*
X120673478Y-70605328D01*
X120698857Y-70628464D01*
X120790128Y-70684976D01*
X120881401Y-70741490D01*
X121062938Y-70811818D01*
X121081603Y-70819049D01*
X121292649Y-70858500D01*
X121292651Y-70858500D01*
X121507349Y-70858500D01*
X121507351Y-70858500D01*
X121718397Y-70819049D01*
X121918600Y-70741489D01*
X121941882Y-70727073D01*
X122007161Y-70708500D01*
X122167500Y-70708500D01*
X122234539Y-70728185D01*
X122280294Y-70780989D01*
X122291500Y-70832500D01*
X122291500Y-72325800D01*
X122271815Y-72392839D01*
X122219011Y-72438594D01*
X122205312Y-72442353D01*
X122205392Y-72442567D01*
X122053796Y-72499110D01*
X121936738Y-72586738D01*
X121849111Y-72703795D01*
X121802593Y-72828512D01*
X121760722Y-72884445D01*
X121695257Y-72908861D01*
X121686412Y-72909177D01*
X116907161Y-72909177D01*
X116841883Y-72890604D01*
X116818601Y-72876188D01*
X116709518Y-72833929D01*
X116618397Y-72798628D01*
X116407351Y-72759177D01*
X116192649Y-72759177D01*
X116005184Y-72794220D01*
X115981598Y-72798629D01*
X115781401Y-72876186D01*
X115598856Y-72989213D01*
X115440188Y-73133857D01*
X115310804Y-73305190D01*
X115215101Y-73497387D01*
X115156346Y-73703888D01*
X115136537Y-73917677D01*
X115156346Y-74131465D01*
X115215101Y-74337966D01*
X115310804Y-74530163D01*
X115440188Y-74701496D01*
X115580275Y-74829201D01*
X115598857Y-74846141D01*
X115690128Y-74902653D01*
X115781401Y-74959167D01*
X115947339Y-75023452D01*
X115981603Y-75036726D01*
X116192649Y-75076177D01*
X116192651Y-75076177D01*
X116407349Y-75076177D01*
X116407351Y-75076177D01*
X116618397Y-75036726D01*
X116818600Y-74959166D01*
X116841882Y-74944750D01*
X116907161Y-74926177D01*
X121672326Y-74926177D01*
X121739365Y-74945862D01*
X121785120Y-74998666D01*
X121795616Y-75036923D01*
X121798011Y-75059204D01*
X121849110Y-75196203D01*
X121936738Y-75313261D01*
X122053796Y-75400889D01*
X122190794Y-75451988D01*
X122190797Y-75451988D01*
X122190799Y-75451989D01*
X122251362Y-75458500D01*
X122254672Y-75458500D01*
X124345328Y-75458500D01*
X124348638Y-75458500D01*
X124409201Y-75451989D01*
X124409203Y-75451988D01*
X124409205Y-75451988D01*
X124489636Y-75421988D01*
X124546204Y-75400889D01*
X124663261Y-75313261D01*
X124750889Y-75196204D01*
X124793015Y-75083261D01*
X124801988Y-75059205D01*
X124801988Y-75059203D01*
X124801989Y-75059201D01*
X124808500Y-74998638D01*
X124808500Y-72901362D01*
X124801989Y-72840799D01*
X124801988Y-72840797D01*
X124801988Y-72840794D01*
X124750889Y-72703796D01*
X124663261Y-72586738D01*
X124546203Y-72499110D01*
X124394608Y-72442567D01*
X124395797Y-72439379D01*
X124354679Y-72422340D01*
X124314839Y-72364942D01*
X124308500Y-72325806D01*
X124308500Y-69755638D01*
X124309097Y-69743485D01*
X124310994Y-69724222D01*
X124313380Y-69700000D01*
X124309097Y-69656513D01*
X124308500Y-69644359D01*
X124308500Y-65920000D01*
X128686526Y-65920000D01*
X128706391Y-66172404D01*
X128765494Y-66418590D01*
X128773012Y-66436739D01*
X128862384Y-66652502D01*
X128994672Y-66868376D01*
X129159102Y-67060898D01*
X129351624Y-67225328D01*
X129567498Y-67357616D01*
X129801409Y-67454505D01*
X130047597Y-67513609D01*
X130300000Y-67533474D01*
X130552403Y-67513609D01*
X130798591Y-67454505D01*
X131032502Y-67357616D01*
X131248376Y-67225328D01*
X131440898Y-67060898D01*
X131602260Y-66871967D01*
X131660767Y-66833775D01*
X131696550Y-66828500D01*
X137967500Y-66828500D01*
X138034539Y-66848185D01*
X138080294Y-66900989D01*
X138091500Y-66952500D01*
X138091500Y-72287500D01*
X138071815Y-72354539D01*
X138019011Y-72400294D01*
X137967500Y-72411500D01*
X137951362Y-72411500D01*
X137948082Y-72411852D01*
X137948075Y-72411853D01*
X137890794Y-72418011D01*
X137753796Y-72469110D01*
X137636738Y-72556738D01*
X137549110Y-72673796D01*
X137498011Y-72810794D01*
X137491853Y-72868075D01*
X137491500Y-72871362D01*
X137491500Y-74968638D01*
X137491852Y-74971918D01*
X137491853Y-74971924D01*
X137498011Y-75029205D01*
X137549110Y-75166203D01*
X137636738Y-75283261D01*
X137753796Y-75370889D01*
X137890794Y-75421988D01*
X137890797Y-75421988D01*
X137890799Y-75421989D01*
X137951362Y-75428500D01*
X137954672Y-75428500D01*
X140045328Y-75428500D01*
X140048638Y-75428500D01*
X140109201Y-75421989D01*
X140109203Y-75421988D01*
X140109205Y-75421988D01*
X140187124Y-75392924D01*
X140246204Y-75370889D01*
X140363261Y-75283261D01*
X140450889Y-75166204D01*
X140472924Y-75107124D01*
X140501988Y-75029205D01*
X140501988Y-75029203D01*
X140501989Y-75029201D01*
X140508500Y-74968638D01*
X140508500Y-72871362D01*
X140501989Y-72810799D01*
X140501988Y-72810797D01*
X140501988Y-72810794D01*
X140450889Y-72673796D01*
X140363261Y-72556738D01*
X140246203Y-72469110D01*
X140109205Y-72418011D01*
X140051924Y-72411853D01*
X140051918Y-72411852D01*
X140048638Y-72411500D01*
X140045328Y-72411500D01*
X140032500Y-72411500D01*
X139965461Y-72391815D01*
X139919706Y-72339011D01*
X139908500Y-72287500D01*
X139908500Y-66952500D01*
X139928185Y-66885461D01*
X139980989Y-66839706D01*
X140032500Y-66828500D01*
X145592325Y-66828500D01*
X145659364Y-66848185D01*
X145680005Y-66864818D01*
X149055182Y-70239995D01*
X149088666Y-70301316D01*
X149091500Y-70327674D01*
X149091500Y-72531655D01*
X149071815Y-72598694D01*
X149019011Y-72644449D01*
X149010834Y-72647836D01*
X148953796Y-72669110D01*
X148836736Y-72756740D01*
X148829087Y-72766958D01*
X148773152Y-72808827D01*
X148703460Y-72813809D01*
X148658701Y-72794220D01*
X148652483Y-72789866D01*
X148446326Y-72693733D01*
X148226602Y-72634858D01*
X147999999Y-72615033D01*
X147773397Y-72634858D01*
X147553672Y-72693733D01*
X147347516Y-72789865D01*
X147274526Y-72840973D01*
X147955599Y-73522046D01*
X147874852Y-73534835D01*
X147761955Y-73592359D01*
X147672359Y-73681955D01*
X147614835Y-73794852D01*
X147602046Y-73875599D01*
X146920973Y-73194526D01*
X146920973Y-73194527D01*
X146869865Y-73267516D01*
X146773733Y-73473672D01*
X146714858Y-73693397D01*
X146695033Y-73920000D01*
X146714858Y-74146602D01*
X146773733Y-74366326D01*
X146869866Y-74572484D01*
X146920972Y-74645471D01*
X146920974Y-74645472D01*
X147602046Y-73964399D01*
X147614835Y-74045148D01*
X147672359Y-74158045D01*
X147761955Y-74247641D01*
X147874852Y-74305165D01*
X147955597Y-74317953D01*
X147274526Y-74999025D01*
X147274526Y-74999026D01*
X147347515Y-75050133D01*
X147553673Y-75146266D01*
X147773397Y-75205141D01*
X148000000Y-75224966D01*
X148226602Y-75205141D01*
X148446326Y-75146266D01*
X148652481Y-75050134D01*
X148658692Y-75045785D01*
X148724896Y-75023452D01*
X148792665Y-75040457D01*
X148829090Y-75073044D01*
X148836738Y-75083261D01*
X148906760Y-75135678D01*
X148953796Y-75170889D01*
X149010835Y-75192163D01*
X149066767Y-75234033D01*
X149091184Y-75299497D01*
X149091500Y-75308344D01*
X149091500Y-81338743D01*
X149089973Y-81358141D01*
X149087748Y-81372188D01*
X149091330Y-81440537D01*
X149091500Y-81447027D01*
X149091500Y-81467610D01*
X149091837Y-81470826D01*
X149091838Y-81470827D01*
X149093651Y-81488081D01*
X149094159Y-81494543D01*
X149097742Y-81562899D01*
X149097742Y-81562902D01*
X149097743Y-81562903D01*
X149101426Y-81576648D01*
X149104969Y-81595768D01*
X149106457Y-81609926D01*
X149127613Y-81675038D01*
X149129449Y-81681237D01*
X149133359Y-81695824D01*
X149147171Y-81747373D01*
X149153630Y-81760049D01*
X149161074Y-81778019D01*
X149165472Y-81791555D01*
X149165473Y-81791556D01*
X149199706Y-81850849D01*
X149202796Y-81856541D01*
X149233871Y-81917530D01*
X149242828Y-81928592D01*
X149253844Y-81944621D01*
X149260958Y-81956943D01*
X149306760Y-82007811D01*
X149310974Y-82012745D01*
X149323928Y-82028741D01*
X149326224Y-82031037D01*
X149338478Y-82043291D01*
X149342947Y-82048000D01*
X149384356Y-82093990D01*
X149388747Y-82098866D01*
X149400257Y-82107228D01*
X149415051Y-82119864D01*
X149963073Y-82667886D01*
X149996558Y-82729209D01*
X149999010Y-82765295D01*
X149986835Y-82919999D01*
X150005465Y-83156712D01*
X150060894Y-83387593D01*
X150074437Y-83420288D01*
X150151760Y-83606963D01*
X150275824Y-83809416D01*
X150430031Y-83989969D01*
X150610584Y-84144176D01*
X150813037Y-84268240D01*
X151032406Y-84359105D01*
X151263289Y-84414535D01*
X151500000Y-84433165D01*
X151736711Y-84414535D01*
X151967594Y-84359105D01*
X152186963Y-84268240D01*
X152389416Y-84144176D01*
X152569969Y-83989969D01*
X152724176Y-83809416D01*
X152848240Y-83606963D01*
X152939105Y-83387594D01*
X152994535Y-83156711D01*
X153013165Y-82920000D01*
X152994535Y-82683289D01*
X152939105Y-82452406D01*
X152848240Y-82233037D01*
X152724176Y-82030584D01*
X152569969Y-81850031D01*
X152389416Y-81695824D01*
X152186963Y-81571760D01*
X152020227Y-81502696D01*
X151967593Y-81480894D01*
X151736712Y-81425465D01*
X151618355Y-81416150D01*
X151500000Y-81406835D01*
X151499999Y-81406835D01*
X151345295Y-81419010D01*
X151276918Y-81404645D01*
X151247886Y-81383073D01*
X150944819Y-81080006D01*
X150911334Y-81018683D01*
X150908500Y-80992325D01*
X150908500Y-75308344D01*
X150928185Y-75241305D01*
X150980989Y-75195550D01*
X150989144Y-75192171D01*
X151046204Y-75170889D01*
X151163261Y-75083261D01*
X151250889Y-74966204D01*
X151301989Y-74829201D01*
X151308500Y-74768638D01*
X151308500Y-73071362D01*
X151301989Y-73010799D01*
X151301988Y-73010797D01*
X151301988Y-73010794D01*
X151250889Y-72873796D01*
X151163261Y-72756738D01*
X151046203Y-72669110D01*
X150989166Y-72647836D01*
X150933232Y-72605965D01*
X150908816Y-72540500D01*
X150908500Y-72531655D01*
X150908500Y-69981256D01*
X150910027Y-69961858D01*
X150910033Y-69961816D01*
X150912252Y-69947810D01*
X150908670Y-69879460D01*
X150908500Y-69872971D01*
X150908500Y-69855631D01*
X150908500Y-69852390D01*
X150906347Y-69831913D01*
X150905839Y-69825459D01*
X150902257Y-69757097D01*
X150898575Y-69743358D01*
X150895029Y-69724222D01*
X150893542Y-69710073D01*
X150890915Y-69701989D01*
X150872384Y-69644957D01*
X150870544Y-69638743D01*
X150852829Y-69572630D01*
X150846369Y-69559952D01*
X150838923Y-69541974D01*
X150834527Y-69528444D01*
X150810145Y-69486214D01*
X150800301Y-69469163D01*
X150797203Y-69463457D01*
X150766128Y-69402468D01*
X150757170Y-69391405D01*
X150746155Y-69375380D01*
X150739040Y-69363056D01*
X150731163Y-69354308D01*
X150693239Y-69312187D01*
X150689027Y-69307255D01*
X150678121Y-69293788D01*
X150678111Y-69293777D01*
X150676072Y-69291259D01*
X150661520Y-69276707D01*
X150657051Y-69271998D01*
X150611251Y-69221132D01*
X150599741Y-69212769D01*
X150584946Y-69200133D01*
X147304813Y-65920000D01*
X154086526Y-65920000D01*
X154106391Y-66172404D01*
X154165494Y-66418590D01*
X154173012Y-66436739D01*
X154262384Y-66652502D01*
X154394672Y-66868376D01*
X154559102Y-67060898D01*
X154751624Y-67225328D01*
X154967498Y-67357616D01*
X155201409Y-67454505D01*
X155447597Y-67513609D01*
X155700000Y-67533474D01*
X155952403Y-67513609D01*
X156198591Y-67454505D01*
X156432502Y-67357616D01*
X156648376Y-67225328D01*
X156840898Y-67060898D01*
X157005328Y-66868376D01*
X157137616Y-66652502D01*
X157234505Y-66418591D01*
X157293609Y-66172403D01*
X157313474Y-65920000D01*
X157293609Y-65667597D01*
X157234505Y-65421409D01*
X157137616Y-65187498D01*
X157005328Y-64971624D01*
X156840898Y-64779102D01*
X156648376Y-64614672D01*
X156432502Y-64482384D01*
X156315546Y-64433939D01*
X156198590Y-64385494D01*
X155952404Y-64326391D01*
X155826201Y-64316458D01*
X155700000Y-64306526D01*
X155699999Y-64306526D01*
X155447595Y-64326391D01*
X155201409Y-64385494D01*
X154967496Y-64482385D01*
X154751625Y-64614671D01*
X154559102Y-64779102D01*
X154394671Y-64971625D01*
X154262385Y-65187496D01*
X154165494Y-65421409D01*
X154106391Y-65667595D01*
X154086526Y-65920000D01*
X147304813Y-65920000D01*
X146719864Y-65335051D01*
X146707228Y-65320257D01*
X146698866Y-65308747D01*
X146648000Y-65262947D01*
X146643291Y-65258478D01*
X146631037Y-65246224D01*
X146628741Y-65243928D01*
X146612745Y-65230974D01*
X146607811Y-65226760D01*
X146556943Y-65180958D01*
X146544621Y-65173844D01*
X146528592Y-65162828D01*
X146517530Y-65153871D01*
X146456541Y-65122796D01*
X146450849Y-65119706D01*
X146418034Y-65100760D01*
X146391555Y-65085472D01*
X146378019Y-65081074D01*
X146360049Y-65073630D01*
X146347373Y-65067171D01*
X146311374Y-65057525D01*
X146281237Y-65049449D01*
X146275038Y-65047613D01*
X146209926Y-65026457D01*
X146195768Y-65024969D01*
X146176648Y-65021426D01*
X146162903Y-65017743D01*
X146162902Y-65017742D01*
X146162899Y-65017742D01*
X146094543Y-65014159D01*
X146088086Y-65013651D01*
X146067610Y-65011500D01*
X146064365Y-65011500D01*
X146047027Y-65011500D01*
X146040537Y-65011330D01*
X145972190Y-65007748D01*
X145972189Y-65007748D01*
X145958142Y-65009973D01*
X145938744Y-65011500D01*
X138977027Y-65011500D01*
X138970537Y-65011330D01*
X138902190Y-65007748D01*
X138902189Y-65007748D01*
X138888142Y-65009973D01*
X138868744Y-65011500D01*
X131696550Y-65011500D01*
X131629511Y-64991815D01*
X131602260Y-64968032D01*
X131440898Y-64779102D01*
X131248376Y-64614672D01*
X131032502Y-64482384D01*
X130915546Y-64433939D01*
X130798590Y-64385494D01*
X130552404Y-64326391D01*
X130426201Y-64316458D01*
X130300000Y-64306526D01*
X130299999Y-64306526D01*
X130047595Y-64326391D01*
X129801409Y-64385494D01*
X129567496Y-64482385D01*
X129351625Y-64614671D01*
X129159102Y-64779102D01*
X128994671Y-64971625D01*
X128862385Y-65187496D01*
X128765494Y-65421409D01*
X128706391Y-65667595D01*
X128686526Y-65920000D01*
X124308500Y-65920000D01*
X124308500Y-64069096D01*
X124328185Y-64002057D01*
X124344819Y-63981415D01*
X125831415Y-62494819D01*
X125892738Y-62461334D01*
X125919096Y-62458500D01*
X155594358Y-62458500D01*
X155606511Y-62459096D01*
X155650000Y-62463380D01*
X155693488Y-62459096D01*
X155705642Y-62458500D01*
X186980904Y-62458500D01*
X187047943Y-62478185D01*
X187068585Y-62494819D01*
X187955181Y-63381415D01*
X187988666Y-63442738D01*
X187991500Y-63469096D01*
X187991500Y-66167500D01*
X187971815Y-66234539D01*
X187919011Y-66280294D01*
X187867500Y-66291500D01*
X187751362Y-66291500D01*
X187748082Y-66291852D01*
X187748075Y-66291853D01*
X187690794Y-66298011D01*
X187553796Y-66349110D01*
X187436738Y-66436738D01*
X187349110Y-66553796D01*
X187298011Y-66690794D01*
X187291853Y-66748075D01*
X187291500Y-66751362D01*
X187291500Y-69248638D01*
X187291852Y-69251918D01*
X187291853Y-69251924D01*
X187298011Y-69309205D01*
X187349110Y-69446203D01*
X187436738Y-69563261D01*
X187553796Y-69650889D01*
X187690794Y-69701988D01*
X187690797Y-69701988D01*
X187690799Y-69701989D01*
X187751362Y-69708500D01*
X187867500Y-69708500D01*
X187934539Y-69728185D01*
X187980294Y-69780989D01*
X187991500Y-69832500D01*
X187991500Y-72530903D01*
X187971815Y-72597942D01*
X187955181Y-72618584D01*
X184326228Y-76247536D01*
X184317214Y-76255707D01*
X184283430Y-76283433D01*
X184157404Y-76436996D01*
X184063598Y-76612494D01*
X184062871Y-76615122D01*
X184006090Y-76802300D01*
X183986620Y-76999999D01*
X183990903Y-77043487D01*
X183991500Y-77055641D01*
X183991500Y-77074155D01*
X183971815Y-77141194D01*
X183919011Y-77186949D01*
X183910834Y-77190336D01*
X183853796Y-77211610D01*
X183736738Y-77299238D01*
X183649110Y-77416296D01*
X183598011Y-77553294D01*
X183591853Y-77610575D01*
X183591500Y-77613862D01*
X183591500Y-77617170D01*
X183591500Y-77617171D01*
X183591500Y-78967500D01*
X183571815Y-79034539D01*
X183519011Y-79080294D01*
X183467500Y-79091500D01*
X180632500Y-79091500D01*
X180565461Y-79071815D01*
X180519706Y-79019011D01*
X180508500Y-78967500D01*
X180508500Y-77954671D01*
X180508500Y-77951362D01*
X180501989Y-77890799D01*
X180501988Y-77890797D01*
X180501988Y-77890794D01*
X180450889Y-77753796D01*
X180363261Y-77636738D01*
X180246203Y-77549110D01*
X180109205Y-77498011D01*
X180051924Y-77491853D01*
X180051918Y-77491852D01*
X180048638Y-77491500D01*
X180045328Y-77491500D01*
X180032500Y-77491500D01*
X179965461Y-77471815D01*
X179919706Y-77419011D01*
X179908500Y-77367500D01*
X179908500Y-73081255D01*
X179910027Y-73061857D01*
X179910033Y-73061815D01*
X179912252Y-73047809D01*
X179908670Y-72979459D01*
X179908500Y-72972970D01*
X179908500Y-72955631D01*
X179908500Y-72952390D01*
X179906348Y-72931916D01*
X179905839Y-72925457D01*
X179902257Y-72857096D01*
X179898574Y-72843353D01*
X179895028Y-72824216D01*
X179893542Y-72810073D01*
X179889823Y-72798628D01*
X179872384Y-72744956D01*
X179870541Y-72738733D01*
X179861180Y-72703796D01*
X179852829Y-72672630D01*
X179846367Y-72659949D01*
X179838923Y-72641974D01*
X179836611Y-72634858D01*
X179834527Y-72628444D01*
X179820546Y-72604229D01*
X179800301Y-72569163D01*
X179797203Y-72563457D01*
X179766128Y-72502468D01*
X179757170Y-72491405D01*
X179746155Y-72475380D01*
X179739040Y-72463056D01*
X179719631Y-72441500D01*
X179693239Y-72412187D01*
X179689027Y-72407255D01*
X179678121Y-72393788D01*
X179678111Y-72393777D01*
X179676072Y-72391259D01*
X179661520Y-72376707D01*
X179657051Y-72371998D01*
X179611251Y-72321132D01*
X179599741Y-72312769D01*
X179584946Y-72300133D01*
X175999864Y-68715051D01*
X175987228Y-68700257D01*
X175978866Y-68688747D01*
X175928000Y-68642947D01*
X175923291Y-68638478D01*
X175911037Y-68626224D01*
X175908741Y-68623928D01*
X175892745Y-68610974D01*
X175887811Y-68606760D01*
X175836943Y-68560958D01*
X175824621Y-68553844D01*
X175808592Y-68542828D01*
X175797530Y-68533871D01*
X175736541Y-68502796D01*
X175730849Y-68499706D01*
X175698034Y-68480760D01*
X175671555Y-68465472D01*
X175658019Y-68461074D01*
X175640049Y-68453630D01*
X175627373Y-68447171D01*
X175591374Y-68437525D01*
X175561237Y-68429449D01*
X175555038Y-68427613D01*
X175489926Y-68406457D01*
X175475768Y-68404969D01*
X175456648Y-68401426D01*
X175442903Y-68397743D01*
X175442902Y-68397742D01*
X175442899Y-68397742D01*
X175374543Y-68394159D01*
X175368086Y-68393651D01*
X175347610Y-68391500D01*
X175344365Y-68391500D01*
X175327027Y-68391500D01*
X175320537Y-68391330D01*
X175252190Y-68387748D01*
X175252189Y-68387748D01*
X175238142Y-68389973D01*
X175218744Y-68391500D01*
X174396550Y-68391500D01*
X174329511Y-68371815D01*
X174302260Y-68348032D01*
X174222017Y-68254080D01*
X174140898Y-68159102D01*
X173954613Y-67999999D01*
X182295232Y-67999999D01*
X182314273Y-68254080D01*
X182370971Y-68502491D01*
X182464057Y-68739668D01*
X182591456Y-68960331D01*
X182633452Y-69012993D01*
X182633453Y-69012993D01*
X183437226Y-68209219D01*
X183475901Y-68302588D01*
X183572075Y-68427925D01*
X183697412Y-68524099D01*
X183790779Y-68562772D01*
X182986813Y-69366737D01*
X183147619Y-69476372D01*
X183377179Y-69586922D01*
X183620654Y-69662025D01*
X183872603Y-69700000D01*
X184127397Y-69700000D01*
X184379345Y-69662025D01*
X184622823Y-69586921D01*
X184852383Y-69476372D01*
X185013185Y-69366737D01*
X184209220Y-68562772D01*
X184302588Y-68524099D01*
X184427925Y-68427925D01*
X184524099Y-68302589D01*
X184562772Y-68209220D01*
X185366545Y-69012993D01*
X185366546Y-69012992D01*
X185408545Y-68960328D01*
X185535942Y-68739669D01*
X185629028Y-68502491D01*
X185685726Y-68254080D01*
X185704767Y-68000000D01*
X185685726Y-67745919D01*
X185629028Y-67497508D01*
X185535942Y-67260330D01*
X185408545Y-67039671D01*
X185366546Y-66987005D01*
X184562772Y-67790779D01*
X184524099Y-67697412D01*
X184427925Y-67572075D01*
X184302588Y-67475901D01*
X184209220Y-67437227D01*
X185013185Y-66633261D01*
X184852379Y-66523625D01*
X184622823Y-66413078D01*
X184379345Y-66337974D01*
X184127397Y-66300000D01*
X183872603Y-66300000D01*
X183620654Y-66337974D01*
X183377179Y-66413077D01*
X183147615Y-66523628D01*
X182986813Y-66633261D01*
X183790779Y-67437227D01*
X183697412Y-67475901D01*
X183572075Y-67572075D01*
X183475901Y-67697411D01*
X183437226Y-67790779D01*
X182633453Y-66987006D01*
X182591453Y-67039673D01*
X182464057Y-67260331D01*
X182370971Y-67497508D01*
X182314273Y-67745919D01*
X182295232Y-67999999D01*
X173954613Y-67999999D01*
X173948376Y-67994672D01*
X173732502Y-67862384D01*
X173615546Y-67813939D01*
X173498590Y-67765494D01*
X173252404Y-67706391D01*
X173000000Y-67686526D01*
X172747595Y-67706391D01*
X172501409Y-67765494D01*
X172267496Y-67862385D01*
X172051625Y-67994671D01*
X171859102Y-68159102D01*
X171694671Y-68351625D01*
X171562385Y-68567496D01*
X171465494Y-68801409D01*
X171406391Y-69047595D01*
X171386526Y-69300000D01*
X171406391Y-69552404D01*
X171465494Y-69798590D01*
X171496304Y-69872971D01*
X171562384Y-70032502D01*
X171694672Y-70248376D01*
X171859102Y-70440898D01*
X172051624Y-70605328D01*
X172267498Y-70737616D01*
X172501409Y-70834505D01*
X172747597Y-70893609D01*
X173000000Y-70913474D01*
X173252403Y-70893609D01*
X173498591Y-70834505D01*
X173732502Y-70737616D01*
X173948376Y-70605328D01*
X174140898Y-70440898D01*
X174302260Y-70251967D01*
X174360767Y-70213775D01*
X174396550Y-70208500D01*
X174872325Y-70208500D01*
X174939364Y-70228185D01*
X174960006Y-70244819D01*
X176503506Y-71788319D01*
X176536991Y-71849642D01*
X176532007Y-71919334D01*
X176490135Y-71975267D01*
X176424671Y-71999684D01*
X176415825Y-72000000D01*
X169000000Y-72000000D01*
X169000000Y-91900000D01*
X176800000Y-91900000D01*
X176800000Y-72384175D01*
X176819685Y-72317136D01*
X176872489Y-72271381D01*
X176941647Y-72261437D01*
X177005203Y-72290462D01*
X177011681Y-72296494D01*
X178055181Y-73339994D01*
X178088666Y-73401317D01*
X178091500Y-73427675D01*
X178091500Y-77367500D01*
X178071815Y-77434539D01*
X178019011Y-77480294D01*
X177967500Y-77491500D01*
X177951362Y-77491500D01*
X177948082Y-77491852D01*
X177948075Y-77491853D01*
X177890794Y-77498011D01*
X177753796Y-77549110D01*
X177636738Y-77636738D01*
X177549110Y-77753796D01*
X177498011Y-77890794D01*
X177491853Y-77948075D01*
X177491500Y-77951362D01*
X177491500Y-80048638D01*
X177491852Y-80051918D01*
X177491853Y-80051924D01*
X177498011Y-80109205D01*
X177549110Y-80246203D01*
X177636738Y-80363261D01*
X177753796Y-80450889D01*
X177890794Y-80501988D01*
X177890797Y-80501988D01*
X177890799Y-80501989D01*
X177951362Y-80508500D01*
X179172325Y-80508500D01*
X179239364Y-80528185D01*
X179260006Y-80544819D01*
X179300133Y-80584946D01*
X179312769Y-80599741D01*
X179321132Y-80611251D01*
X179371998Y-80657051D01*
X179376707Y-80661520D01*
X179391259Y-80676072D01*
X179393777Y-80678111D01*
X179393788Y-80678121D01*
X179407255Y-80689027D01*
X179412187Y-80693239D01*
X179450973Y-80728160D01*
X179463056Y-80739040D01*
X179475383Y-80746157D01*
X179491398Y-80757163D01*
X179502470Y-80766129D01*
X179502472Y-80766130D01*
X179563471Y-80797211D01*
X179569163Y-80800302D01*
X179628444Y-80834527D01*
X179640466Y-80838433D01*
X179641974Y-80838923D01*
X179659952Y-80846370D01*
X179672631Y-80852831D01*
X179738738Y-80870543D01*
X179744965Y-80872387D01*
X179770940Y-80880827D01*
X179810072Y-80893542D01*
X179816761Y-80894244D01*
X179824222Y-80895029D01*
X179843358Y-80898575D01*
X179857097Y-80902257D01*
X179925459Y-80905839D01*
X179931913Y-80906347D01*
X179952390Y-80908500D01*
X179972973Y-80908500D01*
X179979462Y-80908669D01*
X180047810Y-80912252D01*
X180061859Y-80910026D01*
X180081256Y-80908500D01*
X182757324Y-80908500D01*
X182824363Y-80928185D01*
X182870118Y-80980989D01*
X182880062Y-81050147D01*
X182851037Y-81113703D01*
X182845005Y-81120181D01*
X181465049Y-82500136D01*
X181450259Y-82512769D01*
X181438747Y-82521133D01*
X181392956Y-82571989D01*
X181388491Y-82576694D01*
X181376225Y-82588959D01*
X181376199Y-82588987D01*
X181373928Y-82591259D01*
X181371894Y-82593769D01*
X181371880Y-82593786D01*
X181360964Y-82607264D01*
X181356759Y-82612188D01*
X181310957Y-82663059D01*
X181303839Y-82675386D01*
X181292831Y-82691403D01*
X181283872Y-82702467D01*
X181252790Y-82763468D01*
X181249694Y-82769169D01*
X181215471Y-82828445D01*
X181211069Y-82841992D01*
X181203630Y-82859950D01*
X181197170Y-82872628D01*
X181179456Y-82938738D01*
X181177614Y-82944959D01*
X181156457Y-83010075D01*
X181154970Y-83024223D01*
X181151426Y-83043345D01*
X181144371Y-83069680D01*
X181142561Y-83069195D01*
X181124741Y-83119905D01*
X181069616Y-83162835D01*
X181024076Y-83171500D01*
X180265042Y-83171500D01*
X180198003Y-83151815D01*
X180170752Y-83128032D01*
X180110167Y-83057097D01*
X180069969Y-83010031D01*
X179889416Y-82855824D01*
X179686963Y-82731760D01*
X179569938Y-82683287D01*
X179467593Y-82640894D01*
X179236712Y-82585465D01*
X179000000Y-82566835D01*
X178763287Y-82585465D01*
X178532406Y-82640894D01*
X178313035Y-82731761D01*
X178110585Y-82855823D01*
X177930031Y-83010031D01*
X177775823Y-83190585D01*
X177655096Y-83387593D01*
X177651760Y-83393037D01*
X177648650Y-83400545D01*
X177560894Y-83612406D01*
X177505465Y-83843287D01*
X177489318Y-84048445D01*
X177486835Y-84080000D01*
X177492909Y-84157175D01*
X177505465Y-84316712D01*
X177560894Y-84547593D01*
X177601841Y-84646446D01*
X177651760Y-84766963D01*
X177775824Y-84969416D01*
X177930031Y-85149969D01*
X178110584Y-85304176D01*
X178313037Y-85428240D01*
X178532406Y-85519105D01*
X178763289Y-85574535D01*
X179000000Y-85593165D01*
X179236711Y-85574535D01*
X179467594Y-85519105D01*
X179686963Y-85428240D01*
X179889416Y-85304176D01*
X180069969Y-85149969D01*
X180170751Y-85031968D01*
X180229259Y-84993775D01*
X180265042Y-84988500D01*
X181017500Y-84988500D01*
X181084539Y-85008185D01*
X181130294Y-85060989D01*
X181141500Y-85112500D01*
X181141500Y-87018743D01*
X181139973Y-87038141D01*
X181137748Y-87052188D01*
X181141330Y-87120537D01*
X181141500Y-87127027D01*
X181141500Y-87147610D01*
X181141837Y-87150826D01*
X181141838Y-87150827D01*
X181143651Y-87168081D01*
X181144159Y-87174543D01*
X181147742Y-87242899D01*
X181147742Y-87242902D01*
X181147743Y-87242903D01*
X181151426Y-87256648D01*
X181154969Y-87275768D01*
X181156457Y-87289926D01*
X181177613Y-87355038D01*
X181179449Y-87361237D01*
X181187525Y-87391374D01*
X181197171Y-87427373D01*
X181203630Y-87440049D01*
X181211074Y-87458019D01*
X181215472Y-87471555D01*
X181230760Y-87498034D01*
X181249706Y-87530849D01*
X181252796Y-87536541D01*
X181283871Y-87597530D01*
X181292828Y-87608592D01*
X181303844Y-87624621D01*
X181310958Y-87636943D01*
X181356760Y-87687811D01*
X181360974Y-87692745D01*
X181373928Y-87708741D01*
X181376224Y-87711037D01*
X181388478Y-87723291D01*
X181392947Y-87728000D01*
X181438747Y-87778866D01*
X181450257Y-87787228D01*
X181465051Y-87799864D01*
X185055181Y-91389994D01*
X185088666Y-91451317D01*
X185091500Y-91477675D01*
X185091500Y-92486064D01*
X185071815Y-92553103D01*
X185037353Y-92588516D01*
X185030926Y-92592899D01*
X184931778Y-92660496D01*
X184744069Y-92834665D01*
X184584412Y-93034869D01*
X184456377Y-93256632D01*
X184362826Y-93494996D01*
X184305844Y-93744649D01*
X184286708Y-93999999D01*
X184305844Y-94255350D01*
X184362826Y-94505003D01*
X184456377Y-94743367D01*
X184580218Y-94957866D01*
X184584413Y-94965131D01*
X184744069Y-95165334D01*
X184931781Y-95339505D01*
X185037352Y-95411482D01*
X185081653Y-95465508D01*
X185091500Y-95513934D01*
X185091500Y-106486064D01*
X185071815Y-106553103D01*
X185037353Y-106588516D01*
X185009586Y-106607448D01*
X184931778Y-106660496D01*
X184744069Y-106834665D01*
X184584412Y-107034869D01*
X184456377Y-107256632D01*
X184362826Y-107494996D01*
X184305844Y-107744649D01*
X184286708Y-108000000D01*
X184305844Y-108255350D01*
X184362826Y-108505003D01*
X184456377Y-108743367D01*
X184580218Y-108957866D01*
X184584413Y-108965131D01*
X184744069Y-109165334D01*
X184931781Y-109339505D01*
X185037352Y-109411482D01*
X185081653Y-109465508D01*
X185091500Y-109513934D01*
X185091500Y-131172324D01*
X185071815Y-131239363D01*
X185055181Y-131260005D01*
X160610006Y-155705181D01*
X160548683Y-155738666D01*
X160522325Y-155741500D01*
X138427675Y-155741500D01*
X138360636Y-155721815D01*
X138339994Y-155705181D01*
X136294819Y-153660006D01*
X136261334Y-153598683D01*
X136258500Y-153572325D01*
X136258500Y-152327674D01*
X136278185Y-152260635D01*
X136294814Y-152239997D01*
X137247724Y-151287087D01*
X137309045Y-151253604D01*
X137378736Y-151258588D01*
X137434670Y-151300460D01*
X137451738Y-151323261D01*
X137568796Y-151410889D01*
X137705794Y-151461988D01*
X137705797Y-151461988D01*
X137705799Y-151461989D01*
X137766362Y-151468500D01*
X139117500Y-151468500D01*
X139184539Y-151488185D01*
X139230294Y-151540989D01*
X139241500Y-151592500D01*
X139241500Y-151869173D01*
X139221815Y-151936212D01*
X139188626Y-151970746D01*
X139155699Y-151993802D01*
X138993805Y-152155696D01*
X138993802Y-152155699D01*
X138993802Y-152155700D01*
X138974514Y-152183246D01*
X138862474Y-152343255D01*
X138765717Y-152550753D01*
X138706456Y-152771915D01*
X138686501Y-153000000D01*
X138706456Y-153228084D01*
X138706457Y-153228087D01*
X138764934Y-153446326D01*
X138765717Y-153449246D01*
X138862474Y-153656744D01*
X138862476Y-153656746D01*
X138862477Y-153656749D01*
X138993802Y-153844300D01*
X139155700Y-154006198D01*
X139343251Y-154137523D01*
X139343254Y-154137524D01*
X139343255Y-154137525D01*
X139404468Y-154166069D01*
X139550757Y-154234284D01*
X139771913Y-154293543D01*
X139902479Y-154304966D01*
X139999999Y-154313498D01*
X139999999Y-154313497D01*
X140000000Y-154313498D01*
X140228087Y-154293543D01*
X140449243Y-154234284D01*
X140656749Y-154137523D01*
X140844300Y-154006198D01*
X141006198Y-153844300D01*
X141137523Y-153656749D01*
X141234284Y-153449243D01*
X141265225Y-153333767D01*
X141301590Y-153274109D01*
X141364437Y-153243580D01*
X141433813Y-153251875D01*
X141487691Y-153296360D01*
X141504774Y-153333766D01*
X141535716Y-153449243D01*
X141535717Y-153449246D01*
X141632474Y-153656744D01*
X141632476Y-153656746D01*
X141632477Y-153656749D01*
X141763802Y-153844300D01*
X141925700Y-154006198D01*
X142113251Y-154137523D01*
X142113254Y-154137524D01*
X142113255Y-154137525D01*
X142174468Y-154166069D01*
X142320757Y-154234284D01*
X142541913Y-154293543D01*
X142770000Y-154313498D01*
X142998087Y-154293543D01*
X143219243Y-154234284D01*
X143426749Y-154137523D01*
X143614300Y-154006198D01*
X143776198Y-153844300D01*
X143907523Y-153656749D01*
X144004284Y-153449243D01*
X144035225Y-153333767D01*
X144071590Y-153274109D01*
X144134437Y-153243580D01*
X144203813Y-153251875D01*
X144257691Y-153296360D01*
X144274774Y-153333766D01*
X144305716Y-153449243D01*
X144305717Y-153449246D01*
X144402474Y-153656744D01*
X144402476Y-153656746D01*
X144402477Y-153656749D01*
X144533802Y-153844300D01*
X144695700Y-154006198D01*
X144883251Y-154137523D01*
X144883254Y-154137524D01*
X144883255Y-154137525D01*
X144944468Y-154166069D01*
X145090757Y-154234284D01*
X145311913Y-154293543D01*
X145540000Y-154313498D01*
X145768087Y-154293543D01*
X145989243Y-154234284D01*
X146196749Y-154137523D01*
X146384300Y-154006198D01*
X146546198Y-153844300D01*
X146677523Y-153656749D01*
X146774284Y-153449243D01*
X146809625Y-153317349D01*
X146845989Y-153257691D01*
X146908836Y-153227162D01*
X146978212Y-153235457D01*
X147032090Y-153279942D01*
X147049174Y-153317351D01*
X147083733Y-153446326D01*
X147179866Y-153652484D01*
X147230972Y-153725471D01*
X147230974Y-153725472D01*
X147826922Y-153129523D01*
X147850507Y-153209844D01*
X147928239Y-153330798D01*
X148036900Y-153424952D01*
X148167685Y-153484680D01*
X148177466Y-153486086D01*
X147584526Y-154079025D01*
X147584526Y-154079026D01*
X147657515Y-154130133D01*
X147863673Y-154226266D01*
X148083397Y-154285141D01*
X148310000Y-154304966D01*
X148536602Y-154285141D01*
X148756326Y-154226266D01*
X148962480Y-154130134D01*
X149035472Y-154079025D01*
X148442534Y-153486086D01*
X148452315Y-153484680D01*
X148583100Y-153424952D01*
X148691761Y-153330798D01*
X148769493Y-153209844D01*
X148793076Y-153129523D01*
X149389025Y-153725472D01*
X149440134Y-153652480D01*
X149536266Y-153446326D01*
X149595141Y-153226602D01*
X149614966Y-153000000D01*
X149595141Y-152773397D01*
X149536266Y-152553673D01*
X149440133Y-152347515D01*
X149389025Y-152274526D01*
X148793076Y-152870475D01*
X148769493Y-152790156D01*
X148691761Y-152669202D01*
X148583100Y-152575048D01*
X148452315Y-152515320D01*
X148442533Y-152513913D01*
X149035472Y-151920974D01*
X149035471Y-151920972D01*
X148962484Y-151869866D01*
X148756326Y-151773733D01*
X148536602Y-151714858D01*
X148309999Y-151695033D01*
X148083397Y-151714858D01*
X147863672Y-151773733D01*
X147657516Y-151869865D01*
X147584527Y-151920973D01*
X147584526Y-151920973D01*
X148177467Y-152513913D01*
X148167685Y-152515320D01*
X148036900Y-152575048D01*
X147928239Y-152669202D01*
X147850507Y-152790156D01*
X147826923Y-152870476D01*
X147230973Y-152274526D01*
X147230973Y-152274527D01*
X147179865Y-152347516D01*
X147083733Y-152553673D01*
X147049174Y-152682648D01*
X147012808Y-152742308D01*
X146949961Y-152772837D01*
X146880586Y-152764542D01*
X146826708Y-152720056D01*
X146809624Y-152682648D01*
X146805225Y-152666230D01*
X146774284Y-152550757D01*
X146702425Y-152396654D01*
X146677525Y-152343255D01*
X146677524Y-152343254D01*
X146677523Y-152343251D01*
X146546198Y-152155700D01*
X146484819Y-152094321D01*
X146451334Y-152032998D01*
X146448500Y-152006640D01*
X146448500Y-151565631D01*
X146448500Y-151565630D01*
X146448500Y-151562390D01*
X146447438Y-151552287D01*
X146460000Y-151483557D01*
X146507727Y-151432529D01*
X146575466Y-151415404D01*
X146602851Y-151419540D01*
X146698397Y-151445141D01*
X146924999Y-151464966D01*
X147151602Y-151445141D01*
X147371326Y-151386266D01*
X147577480Y-151290134D01*
X147650472Y-151239025D01*
X147057533Y-150646086D01*
X147067315Y-150644680D01*
X147198100Y-150584952D01*
X147306761Y-150490798D01*
X147384493Y-150369844D01*
X147408076Y-150289523D01*
X148004025Y-150885472D01*
X148055134Y-150812480D01*
X148151266Y-150606325D01*
X148185825Y-150477352D01*
X148222190Y-150417691D01*
X148285037Y-150387162D01*
X148354412Y-150395457D01*
X148408290Y-150439942D01*
X148425375Y-150477351D01*
X148460717Y-150609246D01*
X148557474Y-150816744D01*
X148557476Y-150816746D01*
X148557477Y-150816749D01*
X148688802Y-151004300D01*
X148850700Y-151166198D01*
X149038251Y-151297523D01*
X149245757Y-151394284D01*
X149466913Y-151453543D01*
X149695000Y-151473498D01*
X149923087Y-151453543D01*
X150144243Y-151394284D01*
X150351749Y-151297523D01*
X150539300Y-151166198D01*
X150701198Y-151004300D01*
X150832523Y-150816749D01*
X150929284Y-150609243D01*
X150969274Y-150460000D01*
X154141540Y-150460000D01*
X154161359Y-150775020D01*
X154162086Y-150778832D01*
X154162088Y-150778846D01*
X154205097Y-151004303D01*
X154220505Y-151085072D01*
X154221708Y-151088775D01*
X154221710Y-151088782D01*
X154295891Y-151317088D01*
X154318044Y-151385266D01*
X154319701Y-151388789D01*
X154319703Y-151388792D01*
X154450779Y-151667345D01*
X154450784Y-151667354D01*
X154452438Y-151670869D01*
X154621568Y-151937375D01*
X154624041Y-151940364D01*
X154624043Y-151940367D01*
X154657870Y-151981256D01*
X154822767Y-152180582D01*
X155052860Y-152396654D01*
X155308221Y-152582184D01*
X155311628Y-152584057D01*
X155529145Y-152703639D01*
X155584821Y-152734247D01*
X155878298Y-152850443D01*
X156184025Y-152928940D01*
X156497179Y-152968500D01*
X156501074Y-152968500D01*
X156808926Y-152968500D01*
X156812821Y-152968500D01*
X157125975Y-152928940D01*
X157431702Y-152850443D01*
X157725179Y-152734247D01*
X158001779Y-152582184D01*
X158257140Y-152396654D01*
X158487233Y-152180582D01*
X158688432Y-151937375D01*
X158857562Y-151670869D01*
X158991956Y-151385266D01*
X159089495Y-151085072D01*
X159148641Y-150775020D01*
X159168460Y-150460000D01*
X159148641Y-150144980D01*
X159089495Y-149834928D01*
X158991956Y-149534734D01*
X158884873Y-149307170D01*
X158859220Y-149252654D01*
X158859218Y-149252651D01*
X158857562Y-149249131D01*
X158688432Y-148982625D01*
X158487233Y-148739418D01*
X158257140Y-148523346D01*
X158235481Y-148507610D01*
X158004928Y-148340104D01*
X158004929Y-148340104D01*
X158001779Y-148337816D01*
X157998376Y-148335945D01*
X157998371Y-148335942D01*
X157728587Y-148187626D01*
X157728579Y-148187622D01*
X157725179Y-148185753D01*
X157609441Y-148139929D01*
X157435327Y-148070992D01*
X157435323Y-148070990D01*
X157431702Y-148069557D01*
X157427928Y-148068588D01*
X157427922Y-148068586D01*
X157129747Y-147992028D01*
X157129739Y-147992026D01*
X157125975Y-147991060D01*
X157122124Y-147990573D01*
X157122111Y-147990571D01*
X156816687Y-147951988D01*
X156816680Y-147951987D01*
X156812821Y-147951500D01*
X156497179Y-147951500D01*
X156493320Y-147951987D01*
X156493312Y-147951988D01*
X156187888Y-147990571D01*
X156187872Y-147990573D01*
X156184025Y-147991060D01*
X156180263Y-147992025D01*
X156180252Y-147992028D01*
X155882077Y-148068586D01*
X155882066Y-148068589D01*
X155878298Y-148069557D01*
X155874680Y-148070989D01*
X155874672Y-148070992D01*
X155588439Y-148184320D01*
X155588431Y-148184323D01*
X155584821Y-148185753D01*
X155581426Y-148187619D01*
X155581412Y-148187626D01*
X155311628Y-148335942D01*
X155311616Y-148335949D01*
X155308221Y-148337816D01*
X155305077Y-148340099D01*
X155305071Y-148340104D01*
X155056016Y-148521052D01*
X155056005Y-148521060D01*
X155052860Y-148523346D01*
X155050025Y-148526007D01*
X155050018Y-148526014D01*
X154825604Y-148736753D01*
X154825597Y-148736760D01*
X154822767Y-148739418D01*
X154820292Y-148742409D01*
X154820288Y-148742414D01*
X154624043Y-148979632D01*
X154624035Y-148979642D01*
X154621568Y-148982625D01*
X154619492Y-148985895D01*
X154619487Y-148985903D01*
X154466630Y-149226768D01*
X154452438Y-149249131D01*
X154450787Y-149252638D01*
X154450779Y-149252654D01*
X154319703Y-149531207D01*
X154319699Y-149531216D01*
X154318044Y-149534734D01*
X154316840Y-149538439D01*
X154316839Y-149538442D01*
X154221710Y-149831217D01*
X154221707Y-149831228D01*
X154220505Y-149834928D01*
X154219776Y-149838748D01*
X154219774Y-149838757D01*
X154162088Y-150141153D01*
X154162085Y-150141169D01*
X154161359Y-150144980D01*
X154141540Y-150460000D01*
X150969274Y-150460000D01*
X150988543Y-150388087D01*
X151008498Y-150160000D01*
X150988543Y-149931913D01*
X150929284Y-149710757D01*
X150832523Y-149503251D01*
X150774902Y-149420959D01*
X150725925Y-149351013D01*
X150703598Y-149284807D01*
X150703500Y-149279890D01*
X150703500Y-136850639D01*
X150704097Y-136838485D01*
X150704217Y-136837268D01*
X150708380Y-136795000D01*
X150688908Y-136597299D01*
X150631241Y-136407196D01*
X150588573Y-136327370D01*
X150537595Y-136231996D01*
X150411568Y-136078432D01*
X150377784Y-136050706D01*
X150368769Y-136042535D01*
X133728183Y-119401949D01*
X133694698Y-119340626D01*
X133699682Y-119270934D01*
X133741554Y-119215001D01*
X133771060Y-119198646D01*
X133918600Y-119141489D01*
X134101143Y-119028464D01*
X134259810Y-118883820D01*
X134259811Y-118883819D01*
X134389195Y-118712486D01*
X134484898Y-118520289D01*
X134543653Y-118313788D01*
X134546525Y-118282785D01*
X134563463Y-118100000D01*
X134543653Y-117886214D01*
X134543653Y-117886211D01*
X134484898Y-117679710D01*
X134389195Y-117487513D01*
X134259811Y-117316180D01*
X134101143Y-117171536D01*
X133918600Y-117058511D01*
X133912702Y-117056226D01*
X133857302Y-117013651D01*
X133833714Y-116947884D01*
X133833500Y-116940601D01*
X133833500Y-102028044D01*
X133853185Y-101961005D01*
X133856275Y-101957171D01*
X133861527Y-101948654D01*
X133861530Y-101948652D01*
X133861953Y-101947966D01*
X133868285Y-101942269D01*
X133869841Y-101940340D01*
X133871801Y-101938381D01*
X133872183Y-101938763D01*
X133913897Y-101901241D01*
X133982859Y-101890016D01*
X134046942Y-101917856D01*
X134061541Y-101934703D01*
X134194154Y-102067316D01*
X134343377Y-102159357D01*
X134509803Y-102214506D01*
X134609390Y-102224680D01*
X134615668Y-102224999D01*
X134749999Y-102224999D01*
X134750000Y-102224998D01*
X134750000Y-101250000D01*
X135250000Y-101250000D01*
X135250000Y-102224999D01*
X135384329Y-102224999D01*
X135390611Y-102224678D01*
X135490195Y-102214506D01*
X135656622Y-102159357D01*
X135805845Y-102067316D01*
X135929816Y-101943345D01*
X136021857Y-101794122D01*
X136077006Y-101627696D01*
X136087180Y-101528109D01*
X136087500Y-101521831D01*
X136087500Y-101250000D01*
X135250000Y-101250000D01*
X134750000Y-101250000D01*
X134750000Y-99775000D01*
X135250000Y-99775000D01*
X135250000Y-100750000D01*
X136087499Y-100750000D01*
X136087499Y-100478170D01*
X136087178Y-100471888D01*
X136077006Y-100372304D01*
X136021857Y-100205877D01*
X135929816Y-100056654D01*
X135805845Y-99932683D01*
X135656622Y-99840642D01*
X135490196Y-99785493D01*
X135390609Y-99775319D01*
X135384332Y-99775000D01*
X135250000Y-99775000D01*
X134750000Y-99775000D01*
X134615671Y-99775000D01*
X134609388Y-99775321D01*
X134509804Y-99785493D01*
X134343377Y-99840642D01*
X134194154Y-99932683D01*
X134059934Y-100066904D01*
X134058309Y-100065279D01*
X134021076Y-100098764D01*
X133952113Y-100109981D01*
X133888033Y-100082134D01*
X133861953Y-100052034D01*
X133853920Y-100039010D01*
X133857389Y-100036870D01*
X133836340Y-99998344D01*
X133833499Y-99971964D01*
X133833499Y-98949999D01*
X140436537Y-98949999D01*
X140456346Y-99163788D01*
X140515101Y-99370289D01*
X140610804Y-99562486D01*
X140740188Y-99733819D01*
X140871179Y-99853232D01*
X140898857Y-99878464D01*
X140948443Y-99909166D01*
X141081401Y-99991490D01*
X141235912Y-100051348D01*
X141281603Y-100069049D01*
X141492649Y-100108500D01*
X141492651Y-100108500D01*
X141707349Y-100108500D01*
X141707351Y-100108500D01*
X141918397Y-100069049D01*
X142051865Y-100017342D01*
X142118598Y-99991490D01*
X142118600Y-99991489D01*
X142301143Y-99878464D01*
X142313724Y-99866994D01*
X142320451Y-99860863D01*
X142383255Y-99830246D01*
X142403989Y-99828500D01*
X143611655Y-99828500D01*
X143678694Y-99848185D01*
X143724449Y-99900989D01*
X143727836Y-99909166D01*
X143749110Y-99966203D01*
X143836738Y-100083261D01*
X143906760Y-100135678D01*
X143953796Y-100170889D01*
X144010835Y-100192163D01*
X144066767Y-100234033D01*
X144091184Y-100299497D01*
X144091500Y-100308344D01*
X144091500Y-126439095D01*
X144071815Y-126506134D01*
X144066455Y-126513821D01*
X144010803Y-126587517D01*
X143915101Y-126779710D01*
X143856346Y-126986211D01*
X143836537Y-127200000D01*
X143856346Y-127413788D01*
X143915101Y-127620289D01*
X144010804Y-127812486D01*
X144140188Y-127983819D01*
X144283473Y-128114440D01*
X144298857Y-128128464D01*
X144342735Y-128155632D01*
X144481401Y-128241490D01*
X144662938Y-128311818D01*
X144681603Y-128319049D01*
X144892649Y-128358500D01*
X144892651Y-128358500D01*
X145107349Y-128358500D01*
X145107351Y-128358500D01*
X145318397Y-128319049D01*
X145496631Y-128250000D01*
X145518598Y-128241490D01*
X145518600Y-128241489D01*
X145701143Y-128128464D01*
X145859810Y-127983820D01*
X145859811Y-127983819D01*
X145989195Y-127812486D01*
X146084898Y-127620289D01*
X146143653Y-127413788D01*
X146150631Y-127338478D01*
X146163463Y-127200000D01*
X146145233Y-127003261D01*
X146143653Y-126986211D01*
X146084898Y-126779710D01*
X146023820Y-126657051D01*
X145989196Y-126587516D01*
X145933545Y-126513821D01*
X145908854Y-126448460D01*
X145908500Y-126439095D01*
X145908500Y-109244518D01*
X179300000Y-109244518D01*
X179300354Y-109251132D01*
X179306400Y-109307371D01*
X179356647Y-109442089D01*
X179442811Y-109557188D01*
X179557910Y-109643352D01*
X179692628Y-109693599D01*
X179748867Y-109699645D01*
X179755482Y-109700000D01*
X180750000Y-109700000D01*
X180750000Y-108545881D01*
X180843369Y-108584556D01*
X180960677Y-108600000D01*
X181039323Y-108600000D01*
X181156631Y-108584556D01*
X181250000Y-108545881D01*
X181250000Y-109700000D01*
X182244518Y-109700000D01*
X182251132Y-109699645D01*
X182307371Y-109693599D01*
X182442089Y-109643352D01*
X182557188Y-109557188D01*
X182643352Y-109442089D01*
X182693599Y-109307371D01*
X182699645Y-109251132D01*
X182700000Y-109244518D01*
X182700000Y-108250000D01*
X181545882Y-108250000D01*
X181584556Y-108156631D01*
X181605177Y-108000000D01*
X181584556Y-107843369D01*
X181545882Y-107750000D01*
X182700000Y-107750000D01*
X182700000Y-106755481D01*
X182699645Y-106748867D01*
X182693599Y-106692628D01*
X182643352Y-106557910D01*
X182557188Y-106442811D01*
X182442089Y-106356647D01*
X182307371Y-106306400D01*
X182251132Y-106300354D01*
X182244518Y-106300000D01*
X181250000Y-106300000D01*
X181250000Y-107454118D01*
X181156631Y-107415444D01*
X181039323Y-107400000D01*
X180960677Y-107400000D01*
X180843369Y-107415444D01*
X180750000Y-107454118D01*
X180750000Y-106300000D01*
X179755482Y-106300000D01*
X179748867Y-106300354D01*
X179692628Y-106306400D01*
X179557910Y-106356647D01*
X179442811Y-106442811D01*
X179356647Y-106557910D01*
X179306400Y-106692628D01*
X179300354Y-106748867D01*
X179300000Y-106755481D01*
X179300000Y-107750000D01*
X180454118Y-107750000D01*
X180415444Y-107843369D01*
X180394823Y-108000000D01*
X180415444Y-108156631D01*
X180454118Y-108250000D01*
X179300000Y-108250000D01*
X179300000Y-109244518D01*
X145908500Y-109244518D01*
X145908500Y-100308344D01*
X145928185Y-100241305D01*
X145980989Y-100195550D01*
X145989144Y-100192171D01*
X146046204Y-100170889D01*
X146163261Y-100083261D01*
X146250889Y-99966204D01*
X146263392Y-99932683D01*
X146272164Y-99909166D01*
X146314035Y-99853232D01*
X146379500Y-99828816D01*
X146388345Y-99828500D01*
X148648744Y-99828500D01*
X148668142Y-99830027D01*
X148682190Y-99832252D01*
X148750537Y-99828669D01*
X148757027Y-99828500D01*
X148774368Y-99828500D01*
X148777610Y-99828500D01*
X148780833Y-99828161D01*
X148780837Y-99828161D01*
X148787588Y-99827451D01*
X148798092Y-99826347D01*
X148804536Y-99825839D01*
X148872903Y-99822257D01*
X148886648Y-99818573D01*
X148905766Y-99815029D01*
X148919928Y-99813542D01*
X148985053Y-99792380D01*
X148991242Y-99790547D01*
X149057370Y-99772829D01*
X149057374Y-99772827D01*
X149070043Y-99766372D01*
X149088019Y-99758925D01*
X149101556Y-99754527D01*
X149160844Y-99720295D01*
X149166537Y-99717205D01*
X149227530Y-99686129D01*
X149238587Y-99677174D01*
X149254617Y-99666156D01*
X149266944Y-99659040D01*
X149317822Y-99613228D01*
X149322722Y-99609043D01*
X149338741Y-99596072D01*
X149353297Y-99581514D01*
X149357988Y-99577062D01*
X149408866Y-99531253D01*
X149417235Y-99519732D01*
X149429860Y-99504951D01*
X150825196Y-98109615D01*
X150886517Y-98076132D01*
X150956209Y-98081116D01*
X150996858Y-98106069D01*
X151052060Y-98156886D01*
X151254758Y-98289315D01*
X151476488Y-98386575D01*
X151711203Y-98446013D01*
X151892073Y-98461000D01*
X151894643Y-98461000D01*
X152105357Y-98461000D01*
X152107927Y-98461000D01*
X152288797Y-98446013D01*
X152523512Y-98386575D01*
X152745242Y-98289315D01*
X152947940Y-98156886D01*
X153126076Y-97992900D01*
X153274792Y-97801830D01*
X153390030Y-97588888D01*
X153429339Y-97474385D01*
X153468648Y-97359885D01*
X153508500Y-97121061D01*
X153508500Y-96878938D01*
X153468648Y-96640114D01*
X153409684Y-96468363D01*
X153390030Y-96411112D01*
X153274792Y-96198170D01*
X153126076Y-96007100D01*
X152947940Y-95843114D01*
X152947937Y-95843112D01*
X152947936Y-95843111D01*
X152925926Y-95828731D01*
X152880569Y-95775585D01*
X152871146Y-95706353D01*
X152900648Y-95643018D01*
X152925928Y-95621113D01*
X152942702Y-95610154D01*
X153119801Y-95447122D01*
X153267651Y-95257164D01*
X153382219Y-95045460D01*
X153414991Y-94950000D01*
X171414728Y-94950000D01*
X171414811Y-94951068D01*
X171473603Y-95195956D01*
X171569982Y-95428632D01*
X171701569Y-95643364D01*
X171865130Y-95834869D01*
X172056635Y-95998430D01*
X172271367Y-96130017D01*
X172504043Y-96226396D01*
X172748931Y-96285188D01*
X172749999Y-96285271D01*
X172750000Y-96285271D01*
X172750000Y-95191683D01*
X172778819Y-95209209D01*
X172924404Y-95250000D01*
X173037622Y-95250000D01*
X173149783Y-95234584D01*
X173250000Y-95191053D01*
X173250000Y-96285271D01*
X173251068Y-96285188D01*
X173495956Y-96226396D01*
X173728632Y-96130017D01*
X173943364Y-95998430D01*
X174134869Y-95834869D01*
X174298430Y-95643364D01*
X174430017Y-95428632D01*
X174506281Y-95244518D01*
X179300000Y-95244518D01*
X179300354Y-95251132D01*
X179306400Y-95307371D01*
X179356647Y-95442089D01*
X179442811Y-95557188D01*
X179557910Y-95643352D01*
X179692628Y-95693599D01*
X179748867Y-95699645D01*
X179755482Y-95700000D01*
X180750000Y-95700000D01*
X180750000Y-94545881D01*
X180843369Y-94584556D01*
X180960677Y-94600000D01*
X181039323Y-94600000D01*
X181156631Y-94584556D01*
X181250000Y-94545881D01*
X181250000Y-95700000D01*
X182244518Y-95700000D01*
X182251132Y-95699645D01*
X182307371Y-95693599D01*
X182442089Y-95643352D01*
X182557188Y-95557188D01*
X182643352Y-95442089D01*
X182693599Y-95307371D01*
X182699645Y-95251132D01*
X182700000Y-95244518D01*
X182700000Y-94250000D01*
X181545882Y-94250000D01*
X181584556Y-94156631D01*
X181605177Y-94000000D01*
X181584556Y-93843369D01*
X181545882Y-93750000D01*
X182700000Y-93750000D01*
X182700000Y-92755481D01*
X182699645Y-92748867D01*
X182693599Y-92692628D01*
X182643352Y-92557910D01*
X182557188Y-92442811D01*
X182442089Y-92356647D01*
X182307371Y-92306400D01*
X182251132Y-92300354D01*
X182244518Y-92300000D01*
X181250000Y-92300000D01*
X181250000Y-93454118D01*
X181156631Y-93415444D01*
X181039323Y-93400000D01*
X180960677Y-93400000D01*
X180843369Y-93415444D01*
X180750000Y-93454118D01*
X180750000Y-92300000D01*
X179755482Y-92300000D01*
X179748867Y-92300354D01*
X179692628Y-92306400D01*
X179557910Y-92356647D01*
X179442811Y-92442811D01*
X179356647Y-92557910D01*
X179306400Y-92692628D01*
X179300354Y-92748867D01*
X179300000Y-92755481D01*
X179300000Y-93750000D01*
X180454118Y-93750000D01*
X180415444Y-93843369D01*
X180394823Y-94000000D01*
X180415444Y-94156631D01*
X180454118Y-94250000D01*
X179300000Y-94250000D01*
X179300000Y-95244518D01*
X174506281Y-95244518D01*
X174526396Y-95195956D01*
X174585188Y-94951068D01*
X174585272Y-94950000D01*
X173494852Y-94950000D01*
X173543559Y-94812953D01*
X173553877Y-94662114D01*
X173523116Y-94514085D01*
X173489910Y-94450000D01*
X174585271Y-94450000D01*
X174585271Y-94449999D01*
X174585188Y-94448931D01*
X174526396Y-94204043D01*
X174430017Y-93971367D01*
X174298430Y-93756635D01*
X174134869Y-93565130D01*
X173943364Y-93401569D01*
X173728632Y-93269982D01*
X173495956Y-93173603D01*
X173251070Y-93114812D01*
X173250000Y-93114727D01*
X173250000Y-94208316D01*
X173221181Y-94190791D01*
X173075596Y-94150000D01*
X172962378Y-94150000D01*
X172850217Y-94165416D01*
X172750000Y-94208946D01*
X172750000Y-93114727D01*
X172748929Y-93114812D01*
X172504043Y-93173603D01*
X172271367Y-93269982D01*
X172056635Y-93401569D01*
X171865130Y-93565130D01*
X171701569Y-93756635D01*
X171569982Y-93971367D01*
X171473603Y-94204043D01*
X171414811Y-94448931D01*
X171414728Y-94449999D01*
X171414729Y-94450000D01*
X172505148Y-94450000D01*
X172456441Y-94587047D01*
X172446123Y-94737886D01*
X172476884Y-94885915D01*
X172510090Y-94950000D01*
X171414728Y-94950000D01*
X153414991Y-94950000D01*
X153460380Y-94817792D01*
X153478367Y-94710000D01*
X152494852Y-94710000D01*
X152543559Y-94572953D01*
X152553877Y-94422114D01*
X152523116Y-94274085D01*
X152489910Y-94210000D01*
X153478366Y-94210000D01*
X153478366Y-94209999D01*
X153460380Y-94102207D01*
X153382219Y-93874539D01*
X153267652Y-93662836D01*
X153161825Y-93526869D01*
X153136183Y-93461875D01*
X153149750Y-93393335D01*
X153198218Y-93343010D01*
X153216339Y-93334527D01*
X153246204Y-93323389D01*
X153363261Y-93235761D01*
X153450889Y-93118704D01*
X153479221Y-93042744D01*
X153501988Y-92981705D01*
X153501988Y-92981703D01*
X153501989Y-92981701D01*
X153508500Y-92921138D01*
X153508500Y-90918862D01*
X153501989Y-90858299D01*
X153501988Y-90858297D01*
X153501988Y-90858294D01*
X153450889Y-90721296D01*
X153363261Y-90604238D01*
X153246203Y-90516610D01*
X153109205Y-90465511D01*
X153051924Y-90459353D01*
X153051918Y-90459352D01*
X153048638Y-90459000D01*
X153045328Y-90459000D01*
X152984518Y-90459000D01*
X152917479Y-90439315D01*
X152871724Y-90386511D01*
X152864743Y-90367091D01*
X152852831Y-90322632D01*
X152846370Y-90309952D01*
X152838923Y-90291974D01*
X152838433Y-90290466D01*
X152834527Y-90278444D01*
X152800302Y-90219163D01*
X152797211Y-90213471D01*
X152766130Y-90152472D01*
X152766129Y-90152470D01*
X152757163Y-90141398D01*
X152746157Y-90125383D01*
X152739040Y-90113056D01*
X152728160Y-90100973D01*
X152693239Y-90062187D01*
X152689027Y-90057255D01*
X152678121Y-90043788D01*
X152678111Y-90043777D01*
X152676072Y-90041259D01*
X152661520Y-90026707D01*
X152657051Y-90021998D01*
X152611251Y-89971132D01*
X152599741Y-89962769D01*
X152584946Y-89950133D01*
X151969864Y-89335051D01*
X151957228Y-89320257D01*
X151948866Y-89308747D01*
X151898000Y-89262947D01*
X151893291Y-89258478D01*
X151881037Y-89246224D01*
X151878741Y-89243928D01*
X151862745Y-89230974D01*
X151857811Y-89226760D01*
X151806943Y-89180958D01*
X151794621Y-89173844D01*
X151778592Y-89162828D01*
X151767530Y-89153871D01*
X151706541Y-89122796D01*
X151700849Y-89119706D01*
X151668034Y-89100760D01*
X151641555Y-89085472D01*
X151628019Y-89081074D01*
X151610049Y-89073630D01*
X151597373Y-89067171D01*
X151561374Y-89057525D01*
X151531237Y-89049449D01*
X151525038Y-89047613D01*
X151459926Y-89026457D01*
X151445768Y-89024969D01*
X151426648Y-89021426D01*
X151412903Y-89017743D01*
X151412902Y-89017742D01*
X151412899Y-89017742D01*
X151344543Y-89014159D01*
X151338086Y-89013651D01*
X151317610Y-89011500D01*
X151314365Y-89011500D01*
X151297027Y-89011500D01*
X151290537Y-89011330D01*
X151280310Y-89010794D01*
X151222190Y-89007748D01*
X151222189Y-89007748D01*
X151208142Y-89009973D01*
X151188744Y-89011500D01*
X146388345Y-89011500D01*
X146321306Y-88991815D01*
X146275551Y-88939011D01*
X146272164Y-88930834D01*
X146250889Y-88873796D01*
X146163261Y-88756738D01*
X146046203Y-88669110D01*
X145989166Y-88647836D01*
X145933232Y-88605965D01*
X145908816Y-88540500D01*
X145908500Y-88531655D01*
X145908500Y-84847674D01*
X145928185Y-84780635D01*
X145944815Y-84759997D01*
X146247886Y-84456925D01*
X146309209Y-84423441D01*
X146345294Y-84420989D01*
X146500000Y-84433165D01*
X146736711Y-84414535D01*
X146967594Y-84359105D01*
X147186963Y-84268240D01*
X147389416Y-84144176D01*
X147569969Y-83989969D01*
X147724176Y-83809416D01*
X147848240Y-83606963D01*
X147939105Y-83387594D01*
X147994535Y-83156711D01*
X148013165Y-82920000D01*
X147994535Y-82683289D01*
X147939105Y-82452406D01*
X147848240Y-82233037D01*
X147724176Y-82030584D01*
X147569969Y-81850031D01*
X147389416Y-81695824D01*
X147186963Y-81571760D01*
X147020227Y-81502696D01*
X146967593Y-81480894D01*
X146736712Y-81425465D01*
X146500000Y-81406835D01*
X146263287Y-81425465D01*
X146032406Y-81480894D01*
X145845162Y-81558453D01*
X145834430Y-81562899D01*
X145813035Y-81571761D01*
X145610585Y-81695823D01*
X145430031Y-81850031D01*
X145275823Y-82030585D01*
X145151761Y-82233035D01*
X145060894Y-82452406D01*
X145005465Y-82683287D01*
X144986835Y-82920000D01*
X144999010Y-83074703D01*
X144984645Y-83143080D01*
X144963073Y-83172112D01*
X144415049Y-83720136D01*
X144400259Y-83732769D01*
X144388747Y-83741133D01*
X144342956Y-83791989D01*
X144338491Y-83796694D01*
X144326225Y-83808959D01*
X144326199Y-83808987D01*
X144323928Y-83811259D01*
X144321894Y-83813769D01*
X144321880Y-83813786D01*
X144310964Y-83827264D01*
X144306759Y-83832188D01*
X144260957Y-83883059D01*
X144253839Y-83895386D01*
X144242831Y-83911403D01*
X144233872Y-83922467D01*
X144202790Y-83983468D01*
X144199694Y-83989169D01*
X144165471Y-84048445D01*
X144161069Y-84061992D01*
X144153630Y-84079950D01*
X144147170Y-84092628D01*
X144129456Y-84158738D01*
X144127617Y-84164947D01*
X144122355Y-84181144D01*
X144106457Y-84230075D01*
X144104970Y-84244223D01*
X144101426Y-84263345D01*
X144097743Y-84277092D01*
X144094159Y-84345455D01*
X144093651Y-84351916D01*
X144091500Y-84372390D01*
X144091500Y-84375629D01*
X144091500Y-84375634D01*
X144091500Y-84392971D01*
X144091330Y-84399460D01*
X144087748Y-84467810D01*
X144089973Y-84481858D01*
X144091500Y-84501256D01*
X144091500Y-88531655D01*
X144071815Y-88598694D01*
X144019011Y-88644449D01*
X144010834Y-88647836D01*
X143953796Y-88669110D01*
X143836738Y-88756738D01*
X143749110Y-88873796D01*
X143698011Y-89010794D01*
X143691853Y-89068075D01*
X143691500Y-89071362D01*
X143691500Y-90768638D01*
X143691852Y-90771918D01*
X143691853Y-90771924D01*
X143698011Y-90829205D01*
X143749110Y-90966203D01*
X143836737Y-91083260D01*
X143846953Y-91090907D01*
X143888825Y-91146840D01*
X143893811Y-91216532D01*
X143874224Y-91261291D01*
X143869868Y-91267512D01*
X143773733Y-91473673D01*
X143714858Y-91693397D01*
X143695033Y-91920000D01*
X143714858Y-92146602D01*
X143773733Y-92366326D01*
X143869866Y-92572484D01*
X143920972Y-92645471D01*
X143920973Y-92645472D01*
X144602045Y-91964399D01*
X144614835Y-92045148D01*
X144672359Y-92158045D01*
X144761955Y-92247641D01*
X144874852Y-92305165D01*
X144955599Y-92317953D01*
X144274526Y-92999025D01*
X144274526Y-92999026D01*
X144347515Y-93050133D01*
X144553673Y-93146266D01*
X144773397Y-93205141D01*
X145000000Y-93224966D01*
X145226602Y-93205141D01*
X145446326Y-93146266D01*
X145652480Y-93050134D01*
X145725472Y-92999025D01*
X145044401Y-92317953D01*
X145125148Y-92305165D01*
X145238045Y-92247641D01*
X145327641Y-92158045D01*
X145385165Y-92045148D01*
X145397953Y-91964400D01*
X146079025Y-92645472D01*
X146130134Y-92572480D01*
X146226266Y-92366326D01*
X146285141Y-92146602D01*
X146304966Y-91919999D01*
X146285141Y-91693397D01*
X146226266Y-91473673D01*
X146130133Y-91267517D01*
X146125778Y-91261296D01*
X146103452Y-91195089D01*
X146120465Y-91127322D01*
X146153044Y-91090909D01*
X146163261Y-91083261D01*
X146250889Y-90966204D01*
X146269773Y-90915575D01*
X146272164Y-90909166D01*
X146314035Y-90853232D01*
X146379500Y-90828816D01*
X146388345Y-90828500D01*
X150367500Y-90828500D01*
X150434539Y-90848185D01*
X150480294Y-90900989D01*
X150491500Y-90952500D01*
X150491500Y-92921138D01*
X150491852Y-92924418D01*
X150491853Y-92924424D01*
X150498011Y-92981705D01*
X150549110Y-93118703D01*
X150636738Y-93235761D01*
X150753793Y-93323387D01*
X150753796Y-93323389D01*
X150783655Y-93334526D01*
X150839587Y-93376397D01*
X150864004Y-93441862D01*
X150849152Y-93510134D01*
X150838174Y-93526869D01*
X150732347Y-93662835D01*
X150617780Y-93874539D01*
X150539619Y-94102207D01*
X150521633Y-94209999D01*
X150521634Y-94210000D01*
X151505148Y-94210000D01*
X151456441Y-94347047D01*
X151446123Y-94497886D01*
X151476884Y-94645915D01*
X151510090Y-94710000D01*
X150521633Y-94710000D01*
X150539619Y-94817792D01*
X150617780Y-95045460D01*
X150732348Y-95257164D01*
X150880198Y-95447122D01*
X151057297Y-95610153D01*
X151074073Y-95621114D01*
X151119429Y-95674261D01*
X151128853Y-95743492D01*
X151099351Y-95806828D01*
X151074073Y-95828731D01*
X151052062Y-95843111D01*
X150873922Y-96007100D01*
X150845465Y-96043663D01*
X150788755Y-96084476D01*
X150747612Y-96091500D01*
X150731256Y-96091500D01*
X150711858Y-96089973D01*
X150697810Y-96087748D01*
X150629463Y-96091330D01*
X150622973Y-96091500D01*
X150602390Y-96091500D01*
X150599176Y-96091837D01*
X150599169Y-96091838D01*
X150581916Y-96093651D01*
X150575455Y-96094159D01*
X150507092Y-96097743D01*
X150493345Y-96101426D01*
X150474223Y-96104970D01*
X150460075Y-96106457D01*
X150460071Y-96106458D01*
X150460072Y-96106458D01*
X150394947Y-96127617D01*
X150388738Y-96129456D01*
X150322628Y-96147170D01*
X150309950Y-96153630D01*
X150291992Y-96161069D01*
X150278445Y-96165471D01*
X150219169Y-96199694D01*
X150213468Y-96202790D01*
X150152467Y-96233872D01*
X150141403Y-96242831D01*
X150125386Y-96253839D01*
X150113059Y-96260957D01*
X150062188Y-96306759D01*
X150057264Y-96310964D01*
X150043786Y-96321880D01*
X150043769Y-96321894D01*
X150041259Y-96323928D01*
X150038987Y-96326199D01*
X150038959Y-96326225D01*
X150026694Y-96338491D01*
X150021989Y-96342956D01*
X149971133Y-96388747D01*
X149962769Y-96400259D01*
X149950136Y-96415049D01*
X148390006Y-97975181D01*
X148328683Y-98008666D01*
X148302325Y-98011500D01*
X146388345Y-98011500D01*
X146321306Y-97991815D01*
X146275551Y-97939011D01*
X146272164Y-97930834D01*
X146250889Y-97873796D01*
X146163261Y-97756738D01*
X146153044Y-97749090D01*
X146111172Y-97693157D01*
X146106188Y-97623465D01*
X146125785Y-97578692D01*
X146130134Y-97572481D01*
X146226266Y-97366326D01*
X146285141Y-97146602D01*
X146304966Y-96920000D01*
X146285141Y-96693397D01*
X146226266Y-96473673D01*
X146130133Y-96267515D01*
X146079025Y-96194526D01*
X145397953Y-96875598D01*
X145385165Y-96794852D01*
X145327641Y-96681955D01*
X145238045Y-96592359D01*
X145125148Y-96534835D01*
X145044400Y-96522046D01*
X145725472Y-95840974D01*
X145725471Y-95840972D01*
X145652484Y-95789866D01*
X145446326Y-95693733D01*
X145226602Y-95634858D01*
X145000000Y-95615033D01*
X144773397Y-95634858D01*
X144553672Y-95693733D01*
X144347516Y-95789865D01*
X144274527Y-95840973D01*
X144274526Y-95840973D01*
X144955600Y-96522046D01*
X144874852Y-96534835D01*
X144761955Y-96592359D01*
X144672359Y-96681955D01*
X144614835Y-96794852D01*
X144602046Y-96875600D01*
X143920973Y-96194527D01*
X143869865Y-96267516D01*
X143773733Y-96473672D01*
X143714858Y-96693397D01*
X143695033Y-96920000D01*
X143714858Y-97146602D01*
X143773733Y-97366326D01*
X143869866Y-97572483D01*
X143874220Y-97578701D01*
X143896547Y-97644907D01*
X143879535Y-97712674D01*
X143846958Y-97749087D01*
X143836740Y-97756736D01*
X143749110Y-97873796D01*
X143727836Y-97930834D01*
X143685965Y-97986768D01*
X143620500Y-98011184D01*
X143611655Y-98011500D01*
X142320214Y-98011500D01*
X142254938Y-97992927D01*
X142118600Y-97908511D01*
X142118599Y-97908510D01*
X142118595Y-97908508D01*
X141918401Y-97830952D01*
X141918398Y-97830951D01*
X141918397Y-97830951D01*
X141707351Y-97791500D01*
X141492649Y-97791500D01*
X141281603Y-97830951D01*
X141281598Y-97830952D01*
X141081401Y-97908509D01*
X140898856Y-98021536D01*
X140740188Y-98166180D01*
X140610804Y-98337513D01*
X140515101Y-98529710D01*
X140456346Y-98736211D01*
X140436537Y-98949999D01*
X133833499Y-98949999D01*
X133833499Y-98298757D01*
X133853184Y-98231719D01*
X133889675Y-98194951D01*
X133947940Y-98156886D01*
X134126076Y-97992900D01*
X134274792Y-97801830D01*
X134390030Y-97588888D01*
X134429339Y-97474385D01*
X134468648Y-97359885D01*
X134508500Y-97121061D01*
X134508500Y-96878938D01*
X134468648Y-96640114D01*
X134409684Y-96468363D01*
X134390030Y-96411112D01*
X134274792Y-96198170D01*
X134126076Y-96007100D01*
X133947940Y-95843114D01*
X133947937Y-95843112D01*
X133947936Y-95843111D01*
X133925926Y-95828731D01*
X133880569Y-95775585D01*
X133871146Y-95706353D01*
X133900648Y-95643018D01*
X133925928Y-95621113D01*
X133942702Y-95610154D01*
X134119801Y-95447122D01*
X134267651Y-95257164D01*
X134382219Y-95045460D01*
X134460380Y-94817792D01*
X134478367Y-94710000D01*
X133494852Y-94710000D01*
X133543559Y-94572953D01*
X133553877Y-94422114D01*
X133523116Y-94274085D01*
X133489910Y-94210000D01*
X134478366Y-94210000D01*
X134478366Y-94209999D01*
X134460380Y-94102207D01*
X134382219Y-93874539D01*
X134267652Y-93662836D01*
X134161825Y-93526869D01*
X134136183Y-93461875D01*
X134149750Y-93393335D01*
X134198218Y-93343010D01*
X134216339Y-93334527D01*
X134246204Y-93323389D01*
X134363261Y-93235761D01*
X134450889Y-93118704D01*
X134479221Y-93042744D01*
X134501988Y-92981705D01*
X134501988Y-92981703D01*
X134501989Y-92981701D01*
X134508500Y-92921138D01*
X134508500Y-90918862D01*
X134501989Y-90858299D01*
X134501988Y-90858297D01*
X134501988Y-90858294D01*
X134450889Y-90721296D01*
X134363261Y-90604238D01*
X134246203Y-90516610D01*
X134109205Y-90465511D01*
X134051924Y-90459353D01*
X134051918Y-90459352D01*
X134048638Y-90459000D01*
X134045328Y-90459000D01*
X134032500Y-90459000D01*
X133965461Y-90439315D01*
X133919706Y-90386511D01*
X133908500Y-90335000D01*
X133908500Y-89081023D01*
X133928185Y-89013984D01*
X133980989Y-88968229D01*
X134050147Y-88958285D01*
X134113703Y-88987310D01*
X134120182Y-88993342D01*
X134194157Y-89067318D01*
X134343377Y-89159357D01*
X134509803Y-89214506D01*
X134609390Y-89224680D01*
X134615668Y-89224999D01*
X134749999Y-89224999D01*
X134750000Y-89224998D01*
X134750000Y-88250000D01*
X135250000Y-88250000D01*
X135250000Y-89224999D01*
X135384329Y-89224999D01*
X135390611Y-89224678D01*
X135490195Y-89214506D01*
X135656622Y-89159357D01*
X135805845Y-89067316D01*
X135929816Y-88943345D01*
X136021857Y-88794122D01*
X136077006Y-88627696D01*
X136087180Y-88528109D01*
X136087500Y-88521831D01*
X136087500Y-88250000D01*
X135250000Y-88250000D01*
X134750000Y-88250000D01*
X134750000Y-86775000D01*
X135250000Y-86775000D01*
X135250000Y-87750000D01*
X136087499Y-87750000D01*
X136087499Y-87478170D01*
X136087178Y-87471888D01*
X136077006Y-87372304D01*
X136021857Y-87205877D01*
X135929816Y-87056654D01*
X135805845Y-86932683D01*
X135656622Y-86840642D01*
X135490196Y-86785493D01*
X135390609Y-86775319D01*
X135384332Y-86775000D01*
X135250000Y-86775000D01*
X134750000Y-86775000D01*
X134615671Y-86775000D01*
X134609388Y-86775321D01*
X134509804Y-86785493D01*
X134343377Y-86840642D01*
X134194154Y-86932683D01*
X134059934Y-87066904D01*
X134058309Y-87065279D01*
X134021076Y-87098764D01*
X133952113Y-87109981D01*
X133888033Y-87082134D01*
X133861953Y-87052034D01*
X133853920Y-87039010D01*
X133857388Y-87036870D01*
X133836334Y-86998313D01*
X133833500Y-86971955D01*
X133833500Y-86677797D01*
X133853185Y-86610758D01*
X133858537Y-86603082D01*
X133889196Y-86562484D01*
X133984897Y-86370291D01*
X134040080Y-86176345D01*
X134043653Y-86163788D01*
X134050705Y-86087681D01*
X134063463Y-85950000D01*
X134043653Y-85736214D01*
X134043653Y-85736211D01*
X133984898Y-85529710D01*
X133889195Y-85337513D01*
X133759811Y-85166180D01*
X133601143Y-85021536D01*
X133418598Y-84908509D01*
X133218401Y-84830952D01*
X133218398Y-84830951D01*
X133218397Y-84830951D01*
X133007351Y-84791500D01*
X132792649Y-84791500D01*
X132581603Y-84830951D01*
X132581598Y-84830952D01*
X132381401Y-84908509D01*
X132198856Y-85021536D01*
X132040188Y-85166180D01*
X131910804Y-85337513D01*
X131815101Y-85529710D01*
X131756346Y-85736211D01*
X131736537Y-85949999D01*
X131756346Y-86163788D01*
X131815101Y-86370289D01*
X131910803Y-86562483D01*
X131910804Y-86562484D01*
X131991455Y-86669284D01*
X132016146Y-86734642D01*
X132016500Y-86744008D01*
X132016500Y-86971955D01*
X131996815Y-87038994D01*
X131993724Y-87042828D01*
X131895384Y-87202263D01*
X131839612Y-87370573D01*
X131829319Y-87471324D01*
X131829318Y-87471341D01*
X131829000Y-87474455D01*
X131829000Y-87477601D01*
X131829000Y-87477602D01*
X131829000Y-88522395D01*
X131829000Y-88522414D01*
X131829001Y-88525544D01*
X131829320Y-88528675D01*
X131829321Y-88528678D01*
X131839612Y-88629425D01*
X131895384Y-88797736D01*
X131895385Y-88797738D01*
X131988470Y-88948652D01*
X132047567Y-89007748D01*
X132055181Y-89015362D01*
X132088666Y-89076685D01*
X132091500Y-89103044D01*
X132091500Y-90335000D01*
X132071815Y-90402039D01*
X132019011Y-90447794D01*
X131967500Y-90459000D01*
X131951362Y-90459000D01*
X131948082Y-90459352D01*
X131948075Y-90459353D01*
X131890794Y-90465511D01*
X131753796Y-90516610D01*
X131636738Y-90604238D01*
X131549110Y-90721296D01*
X131498011Y-90858294D01*
X131492542Y-90909166D01*
X131491500Y-90918862D01*
X131491500Y-92921138D01*
X131491852Y-92924418D01*
X131491853Y-92924424D01*
X131498011Y-92981705D01*
X131549110Y-93118703D01*
X131636738Y-93235761D01*
X131753793Y-93323387D01*
X131753796Y-93323389D01*
X131783655Y-93334526D01*
X131839587Y-93376397D01*
X131864004Y-93441862D01*
X131849152Y-93510134D01*
X131838174Y-93526869D01*
X131732347Y-93662835D01*
X131617780Y-93874539D01*
X131539619Y-94102207D01*
X131521633Y-94209999D01*
X131521634Y-94210000D01*
X132505148Y-94210000D01*
X132456441Y-94347047D01*
X132446123Y-94497886D01*
X132476884Y-94645915D01*
X132510090Y-94710000D01*
X131521633Y-94710000D01*
X131539619Y-94817792D01*
X131617780Y-95045460D01*
X131732348Y-95257164D01*
X131880198Y-95447122D01*
X132057297Y-95610153D01*
X132074073Y-95621114D01*
X132119429Y-95674261D01*
X132128853Y-95743492D01*
X132099351Y-95806828D01*
X132074073Y-95828731D01*
X132052058Y-95843113D01*
X131873923Y-96007099D01*
X131750657Y-96165473D01*
X131725208Y-96198170D01*
X131673269Y-96294144D01*
X131609969Y-96411113D01*
X131531351Y-96640114D01*
X131491500Y-96878938D01*
X131491500Y-97121061D01*
X131531351Y-97359885D01*
X131609969Y-97588886D01*
X131609970Y-97588888D01*
X131725208Y-97801830D01*
X131725210Y-97801832D01*
X131873920Y-97992896D01*
X131873923Y-97992898D01*
X131873924Y-97992900D01*
X131976484Y-98087312D01*
X132012473Y-98147198D01*
X132016500Y-98178541D01*
X132016500Y-99971955D01*
X131996815Y-100038994D01*
X131993724Y-100042828D01*
X131895384Y-100202263D01*
X131839612Y-100370573D01*
X131829319Y-100471324D01*
X131829318Y-100471341D01*
X131829000Y-100474455D01*
X131829000Y-100477601D01*
X131829000Y-100477602D01*
X131829000Y-101522395D01*
X131829000Y-101522414D01*
X131829001Y-101525544D01*
X131829320Y-101528675D01*
X131829321Y-101528678D01*
X131839612Y-101629425D01*
X131895384Y-101797736D01*
X131996079Y-101960988D01*
X131992609Y-101963128D01*
X132013659Y-102001655D01*
X132016500Y-102028044D01*
X132016500Y-117390903D01*
X131996815Y-117457942D01*
X131944011Y-117503697D01*
X131874853Y-117513641D01*
X131811297Y-117484616D01*
X131804819Y-117478584D01*
X130014991Y-115688757D01*
X128312602Y-113986368D01*
X128279119Y-113925047D01*
X128284103Y-113855355D01*
X128325975Y-113799422D01*
X128391439Y-113775005D01*
X128423066Y-113776799D01*
X128592649Y-113808500D01*
X128592651Y-113808500D01*
X128807349Y-113808500D01*
X128807351Y-113808500D01*
X129018397Y-113769049D01*
X129151865Y-113717342D01*
X129218598Y-113691490D01*
X129218600Y-113691489D01*
X129401143Y-113578464D01*
X129559810Y-113433820D01*
X129590764Y-113392830D01*
X129689195Y-113262486D01*
X129784898Y-113070289D01*
X129843653Y-112863788D01*
X129846750Y-112830362D01*
X129863463Y-112650000D01*
X129843653Y-112436214D01*
X129843653Y-112436211D01*
X129784898Y-112229710D01*
X129689195Y-112037513D01*
X129559811Y-111866180D01*
X129401143Y-111721536D01*
X129218598Y-111608509D01*
X129018401Y-111530952D01*
X129018398Y-111530951D01*
X129018397Y-111530951D01*
X128807351Y-111491500D01*
X128592649Y-111491500D01*
X128381603Y-111530951D01*
X128381598Y-111530952D01*
X128181401Y-111608509D01*
X128097777Y-111660287D01*
X128030416Y-111678842D01*
X127963717Y-111658034D01*
X127918856Y-111604469D01*
X127908500Y-111554860D01*
X127908500Y-83602880D01*
X127921500Y-83547608D01*
X127925292Y-83539993D01*
X127984897Y-83420291D01*
X127990515Y-83400545D01*
X128043653Y-83213788D01*
X128052586Y-83117378D01*
X128063463Y-83000000D01*
X128043653Y-82786214D01*
X128043653Y-82786211D01*
X127984898Y-82579710D01*
X127889195Y-82387513D01*
X127759811Y-82216180D01*
X127601143Y-82071536D01*
X127418598Y-81958509D01*
X127218401Y-81880952D01*
X127218398Y-81880951D01*
X127218397Y-81880951D01*
X127007351Y-81841500D01*
X126792649Y-81841500D01*
X126587659Y-81879819D01*
X126581598Y-81880952D01*
X126381401Y-81958509D01*
X126198856Y-82071536D01*
X126040188Y-82216180D01*
X125910804Y-82387513D01*
X125815101Y-82579710D01*
X125756346Y-82786211D01*
X125736537Y-83000000D01*
X125756346Y-83213788D01*
X125815101Y-83420288D01*
X125850471Y-83491320D01*
X125856997Y-83504426D01*
X125878500Y-83547608D01*
X125891500Y-83602880D01*
X125891500Y-113944357D01*
X125890903Y-113956510D01*
X125886619Y-113999999D01*
X125901393Y-114150000D01*
X125906091Y-114197701D01*
X125934971Y-114292903D01*
X125956473Y-114363786D01*
X125963760Y-114387806D01*
X126057404Y-114563003D01*
X126183431Y-114716567D01*
X126217213Y-114744291D01*
X126226230Y-114752464D01*
X148650181Y-137176415D01*
X148683666Y-137237738D01*
X148686500Y-137264096D01*
X148686500Y-149279890D01*
X148666815Y-149346929D01*
X148664075Y-149351013D01*
X148557476Y-149503251D01*
X148460717Y-149710752D01*
X148425375Y-149842649D01*
X148389009Y-149902309D01*
X148326162Y-149932837D01*
X148256786Y-149924542D01*
X148202909Y-149880056D01*
X148185825Y-149842648D01*
X148151266Y-149713672D01*
X148055133Y-149507515D01*
X148004025Y-149434526D01*
X147408076Y-150030475D01*
X147384493Y-149950156D01*
X147306761Y-149829202D01*
X147198100Y-149735048D01*
X147067315Y-149675320D01*
X147057533Y-149673913D01*
X147650472Y-149080974D01*
X147650471Y-149080972D01*
X147577484Y-149029866D01*
X147371326Y-148933733D01*
X147151602Y-148874858D01*
X146925000Y-148855033D01*
X146698395Y-148874858D01*
X146548826Y-148914935D01*
X146478976Y-148913272D01*
X146421114Y-148874109D01*
X146393610Y-148809881D01*
X146398801Y-148756847D01*
X146433542Y-148649928D01*
X146448500Y-148507610D01*
X146448500Y-143721254D01*
X146450027Y-143701857D01*
X146450033Y-143701815D01*
X146452252Y-143687809D01*
X146448670Y-143619459D01*
X146448500Y-143612970D01*
X146448500Y-143595631D01*
X146448500Y-143592390D01*
X146446348Y-143571916D01*
X146445839Y-143565457D01*
X146442257Y-143497096D01*
X146438574Y-143483353D01*
X146435028Y-143464216D01*
X146433542Y-143450073D01*
X146412385Y-143384959D01*
X146410541Y-143378733D01*
X146392829Y-143312631D01*
X146392829Y-143312630D01*
X146386367Y-143299949D01*
X146378923Y-143281974D01*
X146374695Y-143268962D01*
X146374527Y-143268444D01*
X146358068Y-143239937D01*
X146340301Y-143209163D01*
X146337203Y-143203457D01*
X146306128Y-143142468D01*
X146297170Y-143131405D01*
X146286155Y-143115380D01*
X146279040Y-143103056D01*
X146268633Y-143091498D01*
X146233239Y-143052187D01*
X146229027Y-143047255D01*
X146218121Y-143033788D01*
X146218111Y-143033777D01*
X146216072Y-143031259D01*
X146201520Y-143016707D01*
X146197051Y-143011998D01*
X146151251Y-142961132D01*
X146139741Y-142952769D01*
X146124946Y-142940133D01*
X135599864Y-132415051D01*
X135587228Y-132400257D01*
X135578866Y-132388747D01*
X135528000Y-132342947D01*
X135523291Y-132338478D01*
X135511037Y-132326224D01*
X135508741Y-132323928D01*
X135492745Y-132310974D01*
X135487811Y-132306760D01*
X135436943Y-132260958D01*
X135424621Y-132253844D01*
X135408592Y-132242828D01*
X135397530Y-132233871D01*
X135336541Y-132202796D01*
X135330849Y-132199706D01*
X135298034Y-132180760D01*
X135271555Y-132165472D01*
X135258019Y-132161074D01*
X135240049Y-132153630D01*
X135227373Y-132147171D01*
X135189204Y-132136944D01*
X135161237Y-132129449D01*
X135155038Y-132127613D01*
X135089926Y-132106457D01*
X135075768Y-132104969D01*
X135056648Y-132101426D01*
X135042903Y-132097743D01*
X135042902Y-132097742D01*
X135042899Y-132097742D01*
X134974543Y-132094159D01*
X134968086Y-132093651D01*
X134947610Y-132091500D01*
X134944365Y-132091500D01*
X134927027Y-132091500D01*
X134920537Y-132091330D01*
X134910348Y-132090796D01*
X134852190Y-132087748D01*
X134852189Y-132087748D01*
X134838142Y-132089973D01*
X134818744Y-132091500D01*
X124067675Y-132091500D01*
X124000636Y-132071815D01*
X123954881Y-132019011D01*
X123944937Y-131949853D01*
X123962135Y-131902405D01*
X124042115Y-131772738D01*
X124097887Y-131604426D01*
X124108500Y-131500545D01*
X124108499Y-130499456D01*
X124097887Y-130395574D01*
X124042115Y-130227262D01*
X123949030Y-130076348D01*
X123949028Y-130076346D01*
X123949027Y-130076344D01*
X123944816Y-130072133D01*
X123911333Y-130010809D01*
X123908500Y-129984455D01*
X123908500Y-129660903D01*
X123928185Y-129593864D01*
X123933539Y-129586184D01*
X123989196Y-129512484D01*
X124084897Y-129320291D01*
X124086830Y-129313498D01*
X124143653Y-129113788D01*
X124149653Y-129049030D01*
X124163463Y-128900000D01*
X124143653Y-128686214D01*
X124143653Y-128686211D01*
X124084898Y-128479710D01*
X123989195Y-128287513D01*
X123859811Y-128116180D01*
X123701143Y-127971536D01*
X123518598Y-127858509D01*
X123318401Y-127780952D01*
X123318398Y-127780951D01*
X123318397Y-127780951D01*
X123107351Y-127741500D01*
X122892649Y-127741500D01*
X122681603Y-127780951D01*
X122681598Y-127780952D01*
X122481401Y-127858509D01*
X122298856Y-127971536D01*
X122140188Y-128116180D01*
X122010804Y-128287513D01*
X121915101Y-128479710D01*
X121856346Y-128686211D01*
X121836537Y-128900000D01*
X121856346Y-129113788D01*
X121915101Y-129320289D01*
X122010803Y-129512483D01*
X122010804Y-129512484D01*
X122066454Y-129586177D01*
X122091146Y-129651537D01*
X122091500Y-129660903D01*
X122091500Y-129919454D01*
X122071815Y-129986493D01*
X122019011Y-130032248D01*
X121949853Y-130042192D01*
X121886297Y-130013167D01*
X121879819Y-130007136D01*
X121823652Y-129950970D01*
X121772557Y-129919454D01*
X121672738Y-129857885D01*
X121672737Y-129857884D01*
X121672736Y-129857884D01*
X121504426Y-129802112D01*
X121403675Y-129791819D01*
X121403659Y-129791818D01*
X121400545Y-129791500D01*
X121397397Y-129791500D01*
X120602604Y-129791500D01*
X120602584Y-129791500D01*
X120599456Y-129791501D01*
X120596325Y-129791820D01*
X120596321Y-129791821D01*
X120495574Y-129802112D01*
X120327263Y-129857884D01*
X120176347Y-129950970D01*
X120142863Y-129984455D01*
X120072135Y-130055182D01*
X120010815Y-130088666D01*
X119984456Y-130091500D01*
X118993360Y-130091500D01*
X118926321Y-130071815D01*
X118905679Y-130055181D01*
X118844303Y-129993805D01*
X118844300Y-129993802D01*
X118656749Y-129862477D01*
X118656746Y-129862476D01*
X118656744Y-129862474D01*
X118449246Y-129765717D01*
X118449243Y-129765716D01*
X118338665Y-129736086D01*
X118228084Y-129706456D01*
X118000000Y-129686501D01*
X117771915Y-129706456D01*
X117550753Y-129765717D01*
X117343255Y-129862474D01*
X117343250Y-129862477D01*
X117343251Y-129862477D01*
X117166139Y-129986493D01*
X117155696Y-129993805D01*
X117094321Y-130055181D01*
X117032998Y-130088666D01*
X117006640Y-130091500D01*
X115541255Y-130091500D01*
X115521857Y-130089973D01*
X115507809Y-130087748D01*
X115439462Y-130091330D01*
X115432972Y-130091500D01*
X115412390Y-130091500D01*
X115409176Y-130091837D01*
X115409170Y-130091838D01*
X115391917Y-130093651D01*
X115385456Y-130094159D01*
X115317091Y-130097743D01*
X115303344Y-130101426D01*
X115284222Y-130104970D01*
X115270072Y-130106457D01*
X115204961Y-130127613D01*
X115198762Y-130129449D01*
X115164010Y-130138762D01*
X115132624Y-130147172D01*
X115119950Y-130153630D01*
X115101992Y-130161069D01*
X115088445Y-130165471D01*
X115029169Y-130199694D01*
X115023468Y-130202790D01*
X114962467Y-130233872D01*
X114951403Y-130242831D01*
X114935386Y-130253839D01*
X114923059Y-130260957D01*
X114872188Y-130306759D01*
X114867264Y-130310964D01*
X114853786Y-130321880D01*
X114853769Y-130321894D01*
X114851259Y-130323928D01*
X114848987Y-130326199D01*
X114848959Y-130326225D01*
X114836694Y-130338491D01*
X114831989Y-130342956D01*
X114781133Y-130388747D01*
X114772769Y-130400259D01*
X114760136Y-130415049D01*
X113110006Y-132065181D01*
X113048683Y-132098666D01*
X113022325Y-132101500D01*
X112887431Y-132101500D01*
X112665363Y-132138556D01*
X112452427Y-132211657D01*
X112254424Y-132318811D01*
X112076760Y-132457094D01*
X111924279Y-132622730D01*
X111801138Y-132811211D01*
X111710705Y-133017381D01*
X111655435Y-133235636D01*
X111636843Y-133460000D01*
X111655435Y-133684363D01*
X111655435Y-133684366D01*
X111655436Y-133684368D01*
X111710704Y-133902616D01*
X111713594Y-133909205D01*
X111801138Y-134108788D01*
X111801140Y-134108791D01*
X111924278Y-134297268D01*
X112076760Y-134462906D01*
X112254424Y-134601189D01*
X112254426Y-134601190D01*
X112290931Y-134620946D01*
X112340521Y-134670165D01*
X112355629Y-134738382D01*
X112331458Y-134803937D01*
X112290931Y-134839054D01*
X112254426Y-134858809D01*
X112076760Y-134997094D01*
X111924279Y-135162730D01*
X111801138Y-135351211D01*
X111710705Y-135557381D01*
X111655435Y-135775636D01*
X111636843Y-136000000D01*
X111655435Y-136224363D01*
X111655435Y-136224366D01*
X111655436Y-136224368D01*
X111701734Y-136407196D01*
X111710705Y-136442618D01*
X111801138Y-136648788D01*
X111801140Y-136648791D01*
X111924278Y-136837268D01*
X112076760Y-137002906D01*
X112254424Y-137141189D01*
X112254426Y-137141190D01*
X112290931Y-137160946D01*
X112340521Y-137210165D01*
X112355629Y-137278382D01*
X112331458Y-137343937D01*
X112290931Y-137379054D01*
X112254426Y-137398809D01*
X112076760Y-137537094D01*
X111924279Y-137702730D01*
X111801138Y-137891211D01*
X111710705Y-138097381D01*
X111710704Y-138097384D01*
X111684145Y-138202262D01*
X111655435Y-138315636D01*
X111636843Y-138540000D01*
X111655435Y-138764363D01*
X111710705Y-138982618D01*
X111801138Y-139188788D01*
X111801140Y-139188791D01*
X111924278Y-139377268D01*
X112076760Y-139542906D01*
X112254424Y-139681189D01*
X112452426Y-139788342D01*
X112665365Y-139861444D01*
X112887431Y-139898500D01*
X113022325Y-139898500D01*
X113089364Y-139918185D01*
X113110006Y-139934819D01*
X114760133Y-141584946D01*
X114772769Y-141599741D01*
X114781132Y-141611251D01*
X114831998Y-141657051D01*
X114836707Y-141661520D01*
X114851259Y-141676072D01*
X114853777Y-141678111D01*
X114853788Y-141678121D01*
X114867255Y-141689027D01*
X114872187Y-141693239D01*
X114914308Y-141731163D01*
X114923056Y-141739040D01*
X114935380Y-141746155D01*
X114951405Y-141757170D01*
X114962468Y-141766128D01*
X115023457Y-141797203D01*
X115029163Y-141800301D01*
X115064229Y-141820546D01*
X115088444Y-141834527D01*
X115101974Y-141838923D01*
X115119949Y-141846367D01*
X115132630Y-141852829D01*
X115198733Y-141870541D01*
X115204956Y-141872384D01*
X115270072Y-141893542D01*
X115284219Y-141895028D01*
X115303353Y-141898574D01*
X115317096Y-141902257D01*
X115385457Y-141905839D01*
X115391916Y-141906348D01*
X115412390Y-141908500D01*
X115432972Y-141908500D01*
X115439461Y-141908669D01*
X115507809Y-141912252D01*
X115521856Y-141910027D01*
X115541255Y-141908500D01*
X116611655Y-141908500D01*
X116678694Y-141928185D01*
X116724449Y-141980989D01*
X116727836Y-141989166D01*
X116749110Y-142046203D01*
X116836738Y-142163261D01*
X116953796Y-142250889D01*
X117090794Y-142301988D01*
X117090797Y-142301988D01*
X117090799Y-142301989D01*
X117151362Y-142308500D01*
X117154672Y-142308500D01*
X118845328Y-142308500D01*
X118848638Y-142308500D01*
X118909201Y-142301989D01*
X118909203Y-142301988D01*
X118909205Y-142301988D01*
X118987124Y-142272924D01*
X119046204Y-142250889D01*
X119163261Y-142163261D01*
X119250889Y-142046204D01*
X119264624Y-142009379D01*
X119272164Y-141989166D01*
X119314035Y-141933232D01*
X119379500Y-141908816D01*
X119388345Y-141908500D01*
X120034456Y-141908500D01*
X120101495Y-141928185D01*
X120122132Y-141944814D01*
X120226348Y-142049030D01*
X120377262Y-142142115D01*
X120441078Y-142163261D01*
X120545573Y-142197887D01*
X120591602Y-142202589D01*
X120649455Y-142208500D01*
X121450544Y-142208499D01*
X121554426Y-142197887D01*
X121722738Y-142142115D01*
X121873652Y-142049030D01*
X121876479Y-142046203D01*
X121879819Y-142042864D01*
X121941142Y-142009379D01*
X122010834Y-142014363D01*
X122066767Y-142056235D01*
X122091184Y-142121699D01*
X122091500Y-142130545D01*
X122091500Y-142355306D01*
X122071815Y-142422345D01*
X122066456Y-142430030D01*
X122060804Y-142437514D01*
X121965101Y-142629710D01*
X121906346Y-142836211D01*
X121886537Y-143050000D01*
X121906346Y-143263788D01*
X121965101Y-143470289D01*
X122060804Y-143662486D01*
X122190188Y-143833819D01*
X122333473Y-143964440D01*
X122348857Y-143978464D01*
X122409986Y-144016313D01*
X122531401Y-144091490D01*
X122712938Y-144161818D01*
X122731603Y-144169049D01*
X122942649Y-144208500D01*
X122942651Y-144208500D01*
X123157349Y-144208500D01*
X123157351Y-144208500D01*
X123368397Y-144169049D01*
X123501865Y-144117342D01*
X123568598Y-144091490D01*
X123607061Y-144067675D01*
X123751143Y-143978464D01*
X123909810Y-143833820D01*
X124002183Y-143711498D01*
X124039195Y-143662486D01*
X124134898Y-143470289D01*
X124193653Y-143263788D01*
X124196750Y-143230362D01*
X124213463Y-143050000D01*
X124197961Y-142882714D01*
X124193653Y-142836211D01*
X124134898Y-142629710D01*
X124039197Y-142437517D01*
X123933545Y-142297610D01*
X123908854Y-142232249D01*
X123908500Y-142222884D01*
X123908500Y-142065544D01*
X123928185Y-141998505D01*
X123944814Y-141977867D01*
X123999030Y-141923652D01*
X124092115Y-141772738D01*
X124147887Y-141604426D01*
X124158500Y-141500545D01*
X124158499Y-140499456D01*
X124147887Y-140395574D01*
X124092115Y-140227262D01*
X124012135Y-140097595D01*
X123993696Y-140030204D01*
X124014619Y-139963541D01*
X124068260Y-139918771D01*
X124117675Y-139908500D01*
X136108111Y-139908500D01*
X136175150Y-139928185D01*
X136195792Y-139944819D01*
X139105181Y-142854208D01*
X139138666Y-142915531D01*
X139141500Y-142941888D01*
X139141500Y-147997610D01*
X139141837Y-148000822D01*
X139141838Y-148000829D01*
X139156458Y-148139929D01*
X139171347Y-148185753D01*
X139215473Y-148321556D01*
X139224887Y-148337862D01*
X139241500Y-148399861D01*
X139241500Y-148727500D01*
X139221815Y-148794539D01*
X139169011Y-148840294D01*
X139117500Y-148851500D01*
X137766362Y-148851500D01*
X137763082Y-148851852D01*
X137763075Y-148851853D01*
X137705794Y-148858011D01*
X137568796Y-148909110D01*
X137451738Y-148996738D01*
X137364110Y-149113796D01*
X137342836Y-149170834D01*
X137300965Y-149226768D01*
X137235500Y-149251184D01*
X137226655Y-149251500D01*
X137171256Y-149251500D01*
X137151859Y-149249973D01*
X137137810Y-149247748D01*
X137069463Y-149251330D01*
X137062973Y-149251500D01*
X137042390Y-149251500D01*
X137039176Y-149251837D01*
X137039169Y-149251838D01*
X137021916Y-149253651D01*
X137015455Y-149254159D01*
X136947092Y-149257743D01*
X136933345Y-149261426D01*
X136914222Y-149264970D01*
X136900072Y-149266457D01*
X136834978Y-149287607D01*
X136828756Y-149289450D01*
X136762628Y-149307169D01*
X136749942Y-149313633D01*
X136731981Y-149321073D01*
X136718447Y-149325471D01*
X136659175Y-149359690D01*
X136653476Y-149362784D01*
X136592468Y-149393871D01*
X136581404Y-149402830D01*
X136565384Y-149413841D01*
X136553057Y-149420959D01*
X136502188Y-149466759D01*
X136497264Y-149470964D01*
X136483786Y-149481880D01*
X136483769Y-149481894D01*
X136481259Y-149483928D01*
X136478987Y-149486199D01*
X136478959Y-149486225D01*
X136466694Y-149498491D01*
X136461989Y-149502956D01*
X136411133Y-149548747D01*
X136402769Y-149560259D01*
X136390136Y-149575049D01*
X134765049Y-151200136D01*
X134750259Y-151212769D01*
X134738747Y-151221133D01*
X134692956Y-151271989D01*
X134688491Y-151276694D01*
X134676225Y-151288959D01*
X134676199Y-151288987D01*
X134673928Y-151291259D01*
X134671894Y-151293769D01*
X134671880Y-151293786D01*
X134660964Y-151307264D01*
X134656759Y-151312188D01*
X134610957Y-151363059D01*
X134603839Y-151375386D01*
X134592831Y-151391403D01*
X134583872Y-151402467D01*
X134552790Y-151463468D01*
X134549694Y-151469169D01*
X134515471Y-151528445D01*
X134511069Y-151541992D01*
X134503630Y-151559950D01*
X134497170Y-151572628D01*
X134479456Y-151638738D01*
X134477617Y-151644947D01*
X134468128Y-151674154D01*
X134456457Y-151710075D01*
X134454970Y-151724223D01*
X134451426Y-151743345D01*
X134447743Y-151757092D01*
X134444159Y-151825455D01*
X134443651Y-151831916D01*
X134441500Y-151852390D01*
X134441500Y-151855634D01*
X134441500Y-151872971D01*
X134441330Y-151879460D01*
X134437748Y-151947810D01*
X134439973Y-151961858D01*
X134441500Y-151981256D01*
X134441500Y-153918743D01*
X134439972Y-153938141D01*
X134437748Y-153952190D01*
X134441330Y-154020537D01*
X134441500Y-154027027D01*
X134441500Y-154047610D01*
X134441837Y-154050826D01*
X134441838Y-154050827D01*
X134443651Y-154068081D01*
X134444159Y-154074543D01*
X134447742Y-154142899D01*
X134447742Y-154142902D01*
X134447743Y-154142903D01*
X134451426Y-154156648D01*
X134454969Y-154175768D01*
X134456457Y-154189926D01*
X134477613Y-154255038D01*
X134479449Y-154261237D01*
X134485855Y-154285141D01*
X134497171Y-154327373D01*
X134503630Y-154340049D01*
X134511074Y-154358019D01*
X134515472Y-154371555D01*
X134515473Y-154371556D01*
X134549706Y-154430849D01*
X134552796Y-154436541D01*
X134583871Y-154497530D01*
X134592828Y-154508592D01*
X134603844Y-154524621D01*
X134610958Y-154536943D01*
X134656760Y-154587811D01*
X134660974Y-154592745D01*
X134673928Y-154608741D01*
X134676224Y-154611037D01*
X134688478Y-154623291D01*
X134692947Y-154628000D01*
X134738747Y-154678866D01*
X134750257Y-154687228D01*
X134765051Y-154699864D01*
X136853506Y-156788319D01*
X136886991Y-156849642D01*
X136882007Y-156919334D01*
X136840135Y-156975267D01*
X136774671Y-156999684D01*
X136765825Y-157000000D01*
X91124000Y-157000000D01*
X91056961Y-156980315D01*
X91011206Y-156927511D01*
X91000000Y-156876000D01*
X91000000Y-150460000D01*
X129141540Y-150460000D01*
X129161359Y-150775020D01*
X129162086Y-150778832D01*
X129162088Y-150778846D01*
X129205097Y-151004303D01*
X129220505Y-151085072D01*
X129221708Y-151088775D01*
X129221710Y-151088782D01*
X129295891Y-151317088D01*
X129318044Y-151385266D01*
X129319701Y-151388789D01*
X129319703Y-151388792D01*
X129450779Y-151667345D01*
X129450784Y-151667354D01*
X129452438Y-151670869D01*
X129621568Y-151937375D01*
X129624041Y-151940364D01*
X129624043Y-151940367D01*
X129657870Y-151981256D01*
X129822767Y-152180582D01*
X130052860Y-152396654D01*
X130308221Y-152582184D01*
X130311628Y-152584057D01*
X130529145Y-152703639D01*
X130584821Y-152734247D01*
X130878298Y-152850443D01*
X131184025Y-152928940D01*
X131497179Y-152968500D01*
X131501074Y-152968500D01*
X131808926Y-152968500D01*
X131812821Y-152968500D01*
X132125975Y-152928940D01*
X132431702Y-152850443D01*
X132725179Y-152734247D01*
X133001779Y-152582184D01*
X133257140Y-152396654D01*
X133487233Y-152180582D01*
X133688432Y-151937375D01*
X133857562Y-151670869D01*
X133991956Y-151385266D01*
X134089495Y-151085072D01*
X134148641Y-150775020D01*
X134168460Y-150460000D01*
X134148641Y-150144980D01*
X134089495Y-149834928D01*
X133991956Y-149534734D01*
X133884873Y-149307170D01*
X133859220Y-149252654D01*
X133859218Y-149252651D01*
X133857562Y-149249131D01*
X133688432Y-148982625D01*
X133487233Y-148739418D01*
X133257140Y-148523346D01*
X133235481Y-148507610D01*
X133004928Y-148340104D01*
X133004929Y-148340104D01*
X133001779Y-148337816D01*
X132998376Y-148335945D01*
X132998371Y-148335942D01*
X132728587Y-148187626D01*
X132728579Y-148187622D01*
X132725179Y-148185753D01*
X132609441Y-148139929D01*
X132435327Y-148070992D01*
X132435323Y-148070990D01*
X132431702Y-148069557D01*
X132427928Y-148068588D01*
X132427922Y-148068586D01*
X132129747Y-147992028D01*
X132129739Y-147992026D01*
X132125975Y-147991060D01*
X132122124Y-147990573D01*
X132122111Y-147990571D01*
X131816687Y-147951988D01*
X131816680Y-147951987D01*
X131812821Y-147951500D01*
X131497179Y-147951500D01*
X131493320Y-147951987D01*
X131493312Y-147951988D01*
X131187888Y-147990571D01*
X131187872Y-147990573D01*
X131184025Y-147991060D01*
X131180263Y-147992025D01*
X131180252Y-147992028D01*
X130882077Y-148068586D01*
X130882066Y-148068589D01*
X130878298Y-148069557D01*
X130874680Y-148070989D01*
X130874672Y-148070992D01*
X130588439Y-148184320D01*
X130588431Y-148184323D01*
X130584821Y-148185753D01*
X130581426Y-148187619D01*
X130581412Y-148187626D01*
X130311628Y-148335942D01*
X130311616Y-148335949D01*
X130308221Y-148337816D01*
X130305077Y-148340099D01*
X130305071Y-148340104D01*
X130056016Y-148521052D01*
X130056005Y-148521060D01*
X130052860Y-148523346D01*
X130050025Y-148526007D01*
X130050018Y-148526014D01*
X129825604Y-148736753D01*
X129825597Y-148736760D01*
X129822767Y-148739418D01*
X129820292Y-148742409D01*
X129820288Y-148742414D01*
X129624043Y-148979632D01*
X129624035Y-148979642D01*
X129621568Y-148982625D01*
X129619492Y-148985895D01*
X129619487Y-148985903D01*
X129466630Y-149226768D01*
X129452438Y-149249131D01*
X129450787Y-149252638D01*
X129450779Y-149252654D01*
X129319703Y-149531207D01*
X129319699Y-149531216D01*
X129318044Y-149534734D01*
X129316840Y-149538439D01*
X129316839Y-149538442D01*
X129221710Y-149831217D01*
X129221707Y-149831228D01*
X129220505Y-149834928D01*
X129219776Y-149838748D01*
X129219774Y-149838757D01*
X129162088Y-150141153D01*
X129162085Y-150141169D01*
X129161359Y-150144980D01*
X129141540Y-150460000D01*
X91000000Y-150460000D01*
X91000000Y-128250000D01*
X96900001Y-128250000D01*
X96900001Y-128496829D01*
X96900321Y-128503111D01*
X96910493Y-128602695D01*
X96965642Y-128769122D01*
X97057683Y-128918345D01*
X97181654Y-129042316D01*
X97330877Y-129134357D01*
X97497303Y-129189506D01*
X97596890Y-129199680D01*
X97603168Y-129199999D01*
X97749999Y-129199999D01*
X97750000Y-129199998D01*
X97750000Y-128250000D01*
X96900001Y-128250000D01*
X91000000Y-128250000D01*
X91000000Y-125302188D01*
X94737748Y-125302188D01*
X94741330Y-125370537D01*
X94741500Y-125377027D01*
X94741500Y-125397610D01*
X94741837Y-125400826D01*
X94741838Y-125400827D01*
X94743651Y-125418081D01*
X94744159Y-125424543D01*
X94747742Y-125492899D01*
X94747742Y-125492902D01*
X94747743Y-125492903D01*
X94751426Y-125506648D01*
X94754969Y-125525768D01*
X94756457Y-125539926D01*
X94777613Y-125605038D01*
X94779449Y-125611237D01*
X94787525Y-125641374D01*
X94797171Y-125677373D01*
X94803630Y-125690049D01*
X94811074Y-125708019D01*
X94815472Y-125721555D01*
X94815473Y-125721556D01*
X94849706Y-125780849D01*
X94852796Y-125786541D01*
X94883871Y-125847530D01*
X94892828Y-125858592D01*
X94903844Y-125874621D01*
X94910958Y-125886943D01*
X94956760Y-125937811D01*
X94960974Y-125942745D01*
X94973928Y-125958741D01*
X94976224Y-125961037D01*
X94988478Y-125973291D01*
X94992947Y-125978000D01*
X95038747Y-126028866D01*
X95050257Y-126037228D01*
X95065051Y-126049864D01*
X95600133Y-126584946D01*
X95612769Y-126599741D01*
X95621132Y-126611251D01*
X95671998Y-126657051D01*
X95676707Y-126661520D01*
X95691259Y-126676072D01*
X95693777Y-126678111D01*
X95693788Y-126678121D01*
X95707255Y-126689027D01*
X95712187Y-126693239D01*
X95750973Y-126728160D01*
X95763056Y-126739040D01*
X95775383Y-126746157D01*
X95791398Y-126757163D01*
X95802470Y-126766129D01*
X95802472Y-126766130D01*
X95863471Y-126797211D01*
X95869163Y-126800302D01*
X95928444Y-126834527D01*
X95940466Y-126838433D01*
X95941974Y-126838923D01*
X95959952Y-126846370D01*
X95972631Y-126852831D01*
X96038738Y-126870543D01*
X96044965Y-126872387D01*
X96070940Y-126880827D01*
X96110072Y-126893542D01*
X96116761Y-126894244D01*
X96124222Y-126895029D01*
X96143358Y-126898575D01*
X96157097Y-126902257D01*
X96225459Y-126905839D01*
X96231913Y-126906347D01*
X96252390Y-126908500D01*
X96272973Y-126908500D01*
X96279462Y-126908669D01*
X96347810Y-126912252D01*
X96361857Y-126910027D01*
X96381256Y-126908500D01*
X96942312Y-126908500D01*
X97009351Y-126928185D01*
X97055106Y-126980989D01*
X97065050Y-127050147D01*
X97047851Y-127097597D01*
X96965641Y-127230879D01*
X96910493Y-127397303D01*
X96900319Y-127496890D01*
X96900000Y-127503168D01*
X96900000Y-127750000D01*
X98126000Y-127750000D01*
X98193039Y-127769685D01*
X98238794Y-127822489D01*
X98250000Y-127874000D01*
X98250000Y-129199999D01*
X98396829Y-129199999D01*
X98403111Y-129199678D01*
X98502695Y-129189506D01*
X98669122Y-129134357D01*
X98818342Y-129042318D01*
X98906307Y-128954353D01*
X98967630Y-128920868D01*
X99037322Y-128925852D01*
X99081670Y-128954353D01*
X99176345Y-129049028D01*
X99176347Y-129049029D01*
X99176348Y-129049030D01*
X99327262Y-129142115D01*
X99411417Y-129170000D01*
X99495573Y-129197887D01*
X99516246Y-129199999D01*
X99599455Y-129208500D01*
X100400544Y-129208499D01*
X100504426Y-129197887D01*
X100672738Y-129142115D01*
X100823652Y-129049030D01*
X100927864Y-128944817D01*
X100989185Y-128911334D01*
X101015544Y-128908500D01*
X102006640Y-128908500D01*
X102073679Y-128928185D01*
X102094321Y-128944819D01*
X102155700Y-129006198D01*
X102343251Y-129137523D01*
X102343254Y-129137524D01*
X102343255Y-129137525D01*
X102361707Y-129146129D01*
X102550757Y-129234284D01*
X102771913Y-129293543D01*
X102923970Y-129306846D01*
X102999999Y-129313498D01*
X102999999Y-129313497D01*
X103000000Y-129313498D01*
X103228087Y-129293543D01*
X103449243Y-129234284D01*
X103656749Y-129137523D01*
X103844300Y-129006198D01*
X103905678Y-128944819D01*
X103967002Y-128911334D01*
X103993360Y-128908500D01*
X108812325Y-128908500D01*
X108879364Y-128928185D01*
X108900006Y-128944819D01*
X108920133Y-128964946D01*
X108932769Y-128979741D01*
X108941132Y-128991251D01*
X108991998Y-129037051D01*
X108996707Y-129041520D01*
X109011259Y-129056072D01*
X109013777Y-129058111D01*
X109013788Y-129058121D01*
X109027255Y-129069027D01*
X109032187Y-129073239D01*
X109074308Y-129111163D01*
X109083056Y-129119040D01*
X109095380Y-129126155D01*
X109111405Y-129137170D01*
X109122468Y-129146128D01*
X109183457Y-129177203D01*
X109189163Y-129180301D01*
X109205107Y-129189506D01*
X109248444Y-129214527D01*
X109261974Y-129218923D01*
X109279949Y-129226367D01*
X109292630Y-129232829D01*
X109358733Y-129250541D01*
X109364956Y-129252384D01*
X109430072Y-129273542D01*
X109444219Y-129275028D01*
X109463353Y-129278574D01*
X109477096Y-129282257D01*
X109545457Y-129285839D01*
X109551916Y-129286348D01*
X109572390Y-129288500D01*
X109592972Y-129288500D01*
X109599461Y-129288669D01*
X109667810Y-129292252D01*
X109681857Y-129290027D01*
X109701256Y-129288500D01*
X111935461Y-129288500D01*
X112002500Y-129308185D01*
X112026689Y-129328515D01*
X112076760Y-129382906D01*
X112254424Y-129521189D01*
X112452426Y-129628342D01*
X112665365Y-129701444D01*
X112887431Y-129738500D01*
X113112569Y-129738500D01*
X113334635Y-129701444D01*
X113547574Y-129628342D01*
X113745576Y-129521189D01*
X113923240Y-129382906D01*
X114075722Y-129217268D01*
X114198860Y-129028791D01*
X114289296Y-128822616D01*
X114344564Y-128604368D01*
X114363156Y-128380000D01*
X114344564Y-128155632D01*
X114289296Y-127937384D01*
X114198860Y-127731209D01*
X114075722Y-127542732D01*
X113923240Y-127377094D01*
X113889754Y-127351030D01*
X113848943Y-127294322D01*
X113845268Y-127224549D01*
X113879899Y-127163866D01*
X113922582Y-127136997D01*
X114046204Y-127090889D01*
X114163261Y-127003261D01*
X114250889Y-126886204D01*
X114282928Y-126800305D01*
X114301988Y-126749205D01*
X114301988Y-126749203D01*
X114301989Y-126749201D01*
X114308500Y-126688638D01*
X114308500Y-124991362D01*
X114301989Y-124930799D01*
X114301988Y-124930797D01*
X114301988Y-124930794D01*
X114250889Y-124793796D01*
X114163261Y-124676738D01*
X114046203Y-124589110D01*
X113909205Y-124538011D01*
X113851924Y-124531853D01*
X113851918Y-124531852D01*
X113848638Y-124531500D01*
X112151362Y-124531500D01*
X112148082Y-124531852D01*
X112148075Y-124531853D01*
X112090794Y-124538011D01*
X111953796Y-124589110D01*
X111836738Y-124676738D01*
X111749110Y-124793796D01*
X111727836Y-124850834D01*
X111685965Y-124906768D01*
X111620500Y-124931184D01*
X111611655Y-124931500D01*
X108741255Y-124931500D01*
X108721857Y-124929973D01*
X108707809Y-124927748D01*
X108639462Y-124931330D01*
X108632972Y-124931500D01*
X108612390Y-124931500D01*
X108609176Y-124931837D01*
X108609170Y-124931838D01*
X108591917Y-124933651D01*
X108585456Y-124934159D01*
X108517091Y-124937743D01*
X108503344Y-124941426D01*
X108484222Y-124944970D01*
X108470072Y-124946457D01*
X108404961Y-124967613D01*
X108398762Y-124969449D01*
X108364010Y-124978762D01*
X108332624Y-124987172D01*
X108319950Y-124993630D01*
X108301992Y-125001069D01*
X108288445Y-125005471D01*
X108229169Y-125039694D01*
X108223468Y-125042789D01*
X108154400Y-125077983D01*
X108098103Y-125091500D01*
X104388345Y-125091500D01*
X104321306Y-125071815D01*
X104275551Y-125019011D01*
X104272164Y-125010834D01*
X104250889Y-124953796D01*
X104163261Y-124836738D01*
X104046203Y-124749110D01*
X103909205Y-124698011D01*
X103851924Y-124691853D01*
X103851918Y-124691852D01*
X103848638Y-124691500D01*
X102151362Y-124691500D01*
X102148082Y-124691852D01*
X102148075Y-124691853D01*
X102090794Y-124698011D01*
X101953796Y-124749110D01*
X101836738Y-124836738D01*
X101749110Y-124953796D01*
X101727836Y-125010834D01*
X101685965Y-125066768D01*
X101620500Y-125091184D01*
X101611655Y-125091500D01*
X101015544Y-125091500D01*
X100948505Y-125071815D01*
X100927867Y-125055185D01*
X100823652Y-124950970D01*
X100672738Y-124857885D01*
X100672737Y-124857884D01*
X100672736Y-124857884D01*
X100504426Y-124802112D01*
X100403675Y-124791819D01*
X100403659Y-124791818D01*
X100400545Y-124791500D01*
X100397397Y-124791500D01*
X99602604Y-124791500D01*
X99602584Y-124791500D01*
X99599456Y-124791501D01*
X99596325Y-124791820D01*
X99596321Y-124791821D01*
X99495574Y-124802112D01*
X99327263Y-124857884D01*
X99176345Y-124950971D01*
X99087681Y-125039636D01*
X99026358Y-125073121D01*
X98956666Y-125068137D01*
X98912319Y-125039636D01*
X98823654Y-124950971D01*
X98672736Y-124857884D01*
X98504426Y-124802112D01*
X98403675Y-124791819D01*
X98403659Y-124791818D01*
X98400545Y-124791500D01*
X98397397Y-124791500D01*
X97602604Y-124791500D01*
X97602584Y-124791500D01*
X97599456Y-124791501D01*
X97596325Y-124791820D01*
X97596321Y-124791821D01*
X97495574Y-124802112D01*
X97327263Y-124857884D01*
X97176347Y-124950970D01*
X97140147Y-124987171D01*
X97072135Y-125055182D01*
X97010815Y-125088666D01*
X96984456Y-125091500D01*
X96727676Y-125091500D01*
X96660637Y-125071815D01*
X96639995Y-125055181D01*
X96594818Y-125010004D01*
X96561333Y-124948681D01*
X96558499Y-124922332D01*
X96558499Y-122077673D01*
X96578184Y-122010635D01*
X96594813Y-121989998D01*
X103489993Y-115094819D01*
X103551317Y-115061334D01*
X103577675Y-115058500D01*
X122831333Y-115058500D01*
X122896610Y-115077073D01*
X123081401Y-115191490D01*
X123262938Y-115261818D01*
X123281603Y-115269049D01*
X123492649Y-115308500D01*
X123492651Y-115308500D01*
X123707349Y-115308500D01*
X123707351Y-115308500D01*
X123918397Y-115269049D01*
X124051865Y-115217342D01*
X124118598Y-115191490D01*
X124118600Y-115191489D01*
X124301143Y-115078464D01*
X124459810Y-114933820D01*
X124459811Y-114933819D01*
X124589195Y-114762486D01*
X124684898Y-114570289D01*
X124743653Y-114363788D01*
X124750221Y-114292902D01*
X124763463Y-114150000D01*
X124743653Y-113936214D01*
X124743653Y-113936211D01*
X124684898Y-113729710D01*
X124589195Y-113537513D01*
X124459811Y-113366180D01*
X124301143Y-113221536D01*
X124118598Y-113108509D01*
X123918401Y-113030952D01*
X123918398Y-113030951D01*
X123918397Y-113030951D01*
X123707351Y-112991500D01*
X123492649Y-112991500D01*
X123281603Y-113030951D01*
X123281598Y-113030952D01*
X123081401Y-113108509D01*
X122896610Y-113222927D01*
X122831333Y-113241500D01*
X103231256Y-113241500D01*
X103211859Y-113239973D01*
X103197810Y-113237748D01*
X103129463Y-113241330D01*
X103122973Y-113241500D01*
X103102390Y-113241500D01*
X103099176Y-113241837D01*
X103099169Y-113241838D01*
X103081916Y-113243651D01*
X103075455Y-113244159D01*
X103007092Y-113247743D01*
X102993345Y-113251426D01*
X102974222Y-113254970D01*
X102960072Y-113256457D01*
X102894978Y-113277607D01*
X102888756Y-113279450D01*
X102822628Y-113297169D01*
X102809942Y-113303633D01*
X102791981Y-113311073D01*
X102778447Y-113315471D01*
X102719175Y-113349690D01*
X102713476Y-113352784D01*
X102652468Y-113383871D01*
X102641404Y-113392830D01*
X102625384Y-113403841D01*
X102613057Y-113410959D01*
X102562188Y-113456759D01*
X102557264Y-113460964D01*
X102543786Y-113471880D01*
X102543769Y-113471894D01*
X102541259Y-113473928D01*
X102538987Y-113476199D01*
X102538959Y-113476225D01*
X102526694Y-113488491D01*
X102521989Y-113492956D01*
X102471133Y-113538747D01*
X102462769Y-113550259D01*
X102450136Y-113565049D01*
X95065049Y-120950136D01*
X95050259Y-120962769D01*
X95038747Y-120971133D01*
X94992956Y-121021989D01*
X94988491Y-121026694D01*
X94976225Y-121038959D01*
X94976199Y-121038987D01*
X94973928Y-121041259D01*
X94971894Y-121043769D01*
X94971880Y-121043786D01*
X94960964Y-121057264D01*
X94956759Y-121062188D01*
X94910957Y-121113059D01*
X94903839Y-121125386D01*
X94892831Y-121141403D01*
X94883872Y-121152467D01*
X94852790Y-121213468D01*
X94849694Y-121219169D01*
X94815471Y-121278445D01*
X94811069Y-121291992D01*
X94803630Y-121309950D01*
X94797170Y-121322628D01*
X94779456Y-121388738D01*
X94777614Y-121394959D01*
X94756457Y-121460075D01*
X94754970Y-121474223D01*
X94751426Y-121493345D01*
X94747743Y-121507092D01*
X94744159Y-121575455D01*
X94743651Y-121581916D01*
X94741500Y-121602390D01*
X94741500Y-121605634D01*
X94741500Y-121622971D01*
X94741330Y-121629460D01*
X94737748Y-121697810D01*
X94739973Y-121711858D01*
X94741500Y-121731256D01*
X94741500Y-125268743D01*
X94739973Y-125288141D01*
X94737748Y-125302188D01*
X91000000Y-125302188D01*
X91000000Y-85000000D01*
X121095146Y-85000000D01*
X121114536Y-85271089D01*
X121172305Y-85536654D01*
X121267287Y-85791307D01*
X121397536Y-86029842D01*
X121491320Y-86155124D01*
X121491321Y-86155124D01*
X122359859Y-85286586D01*
X122419680Y-85400566D01*
X122532405Y-85527806D01*
X122672305Y-85624371D01*
X122713542Y-85640010D01*
X121844874Y-86508677D01*
X121844875Y-86508678D01*
X121970157Y-86602463D01*
X122208692Y-86732712D01*
X122463345Y-86827694D01*
X122728910Y-86885463D01*
X123000000Y-86904853D01*
X123271089Y-86885463D01*
X123536654Y-86827694D01*
X123791307Y-86732712D01*
X124029839Y-86602465D01*
X124155124Y-86508677D01*
X123286458Y-85640010D01*
X123327695Y-85624371D01*
X123467595Y-85527806D01*
X123580320Y-85400566D01*
X123640140Y-85286587D01*
X124508677Y-86155124D01*
X124602465Y-86029839D01*
X124732712Y-85791307D01*
X124827694Y-85536654D01*
X124885463Y-85271089D01*
X124904853Y-84999999D01*
X124885463Y-84728910D01*
X124827694Y-84463345D01*
X124732712Y-84208692D01*
X124602463Y-83970157D01*
X124508678Y-83844875D01*
X124508677Y-83844874D01*
X123640139Y-84713412D01*
X123580320Y-84599434D01*
X123467595Y-84472194D01*
X123327695Y-84375629D01*
X123286457Y-84359989D01*
X124155124Y-83491321D01*
X124155124Y-83491320D01*
X124029842Y-83397536D01*
X123791307Y-83267287D01*
X123536654Y-83172305D01*
X123271089Y-83114536D01*
X122999999Y-83095146D01*
X122728910Y-83114536D01*
X122463345Y-83172305D01*
X122208692Y-83267286D01*
X121970162Y-83397534D01*
X121844875Y-83491321D01*
X122713543Y-84359989D01*
X122672305Y-84375629D01*
X122532405Y-84472194D01*
X122419680Y-84599434D01*
X122359859Y-84713413D01*
X121491321Y-83844875D01*
X121397534Y-83970162D01*
X121267286Y-84208692D01*
X121172305Y-84463345D01*
X121114536Y-84728910D01*
X121095146Y-85000000D01*
X91000000Y-85000000D01*
X91000000Y-81127728D01*
X94741500Y-81127728D01*
X94741501Y-81129347D01*
X94741587Y-81130979D01*
X94741588Y-81130991D01*
X94744084Y-81178004D01*
X94744084Y-81178011D01*
X94744311Y-81182269D01*
X94745121Y-81186459D01*
X94745122Y-81186464D01*
X94789029Y-81413489D01*
X94830606Y-81523660D01*
X94872182Y-81633829D01*
X94991375Y-81836945D01*
X95143181Y-82016996D01*
X95323232Y-82168802D01*
X95526348Y-82287995D01*
X95746686Y-82371147D01*
X95977908Y-82415866D01*
X96030829Y-82418677D01*
X97969170Y-82418676D01*
X98022092Y-82415866D01*
X98253314Y-82371147D01*
X98473652Y-82287995D01*
X98676768Y-82168802D01*
X98856819Y-82016996D01*
X99008625Y-81836945D01*
X99127818Y-81633829D01*
X99210970Y-81413491D01*
X99255689Y-81182269D01*
X99258500Y-81129348D01*
X99258499Y-79191007D01*
X99255689Y-79138085D01*
X99219313Y-78950000D01*
X121794858Y-78950000D01*
X121815386Y-79197732D01*
X121876413Y-79438721D01*
X121976268Y-79666370D01*
X122076563Y-79819882D01*
X122076564Y-79819882D01*
X122816923Y-79079523D01*
X122840507Y-79159844D01*
X122918239Y-79280798D01*
X123026900Y-79374952D01*
X123157685Y-79434680D01*
X123167466Y-79436086D01*
X122429942Y-80173609D01*
X122429942Y-80173610D01*
X122476766Y-80210055D01*
X122695393Y-80328368D01*
X122930506Y-80409083D01*
X123175707Y-80450000D01*
X123424293Y-80450000D01*
X123669493Y-80409083D01*
X123904606Y-80328368D01*
X124123233Y-80210053D01*
X124170056Y-80173609D01*
X123432533Y-79436086D01*
X123442315Y-79434680D01*
X123573100Y-79374952D01*
X123681761Y-79280798D01*
X123759493Y-79159844D01*
X123783076Y-79079524D01*
X124523434Y-79819882D01*
X124623730Y-79666369D01*
X124723586Y-79438721D01*
X124784613Y-79197732D01*
X124805141Y-78950000D01*
X124802655Y-78919999D01*
X137494858Y-78919999D01*
X137515386Y-79167732D01*
X137576413Y-79408721D01*
X137676268Y-79636370D01*
X137776563Y-79789882D01*
X137776564Y-79789882D01*
X138516923Y-79049523D01*
X138540507Y-79129844D01*
X138618239Y-79250798D01*
X138726900Y-79344952D01*
X138857685Y-79404680D01*
X138867466Y-79406086D01*
X138129942Y-80143609D01*
X138129942Y-80143610D01*
X138176766Y-80180055D01*
X138395393Y-80298368D01*
X138630506Y-80379083D01*
X138875707Y-80420000D01*
X139124293Y-80420000D01*
X139369493Y-80379083D01*
X139604606Y-80298368D01*
X139823233Y-80180053D01*
X139870056Y-80143609D01*
X139132533Y-79406086D01*
X139142315Y-79404680D01*
X139273100Y-79344952D01*
X139381761Y-79250798D01*
X139459493Y-79129844D01*
X139483076Y-79049524D01*
X140223434Y-79789882D01*
X140323730Y-79636369D01*
X140423586Y-79408721D01*
X140484613Y-79167732D01*
X140505141Y-78919999D01*
X140484613Y-78672267D01*
X140423586Y-78431278D01*
X140323730Y-78203630D01*
X140223434Y-78050116D01*
X139483076Y-78790475D01*
X139459493Y-78710156D01*
X139381761Y-78589202D01*
X139273100Y-78495048D01*
X139142315Y-78435320D01*
X139132531Y-78433913D01*
X139870056Y-77696389D01*
X139870056Y-77696387D01*
X139823235Y-77659947D01*
X139604606Y-77541631D01*
X139369493Y-77460916D01*
X139124293Y-77420000D01*
X138875707Y-77420000D01*
X138630506Y-77460916D01*
X138395393Y-77541631D01*
X138176764Y-77659946D01*
X138129942Y-77696388D01*
X138129941Y-77696389D01*
X138867466Y-78433913D01*
X138857685Y-78435320D01*
X138726900Y-78495048D01*
X138618239Y-78589202D01*
X138540507Y-78710156D01*
X138516923Y-78790475D01*
X137776564Y-78050116D01*
X137676266Y-78203634D01*
X137576413Y-78431278D01*
X137515386Y-78672267D01*
X137494858Y-78919999D01*
X124802655Y-78919999D01*
X124784613Y-78702267D01*
X124723586Y-78461278D01*
X124623730Y-78233630D01*
X124523434Y-78080116D01*
X123783076Y-78820475D01*
X123759493Y-78740156D01*
X123681761Y-78619202D01*
X123573100Y-78525048D01*
X123442315Y-78465320D01*
X123432532Y-78463913D01*
X124170056Y-77726389D01*
X124170056Y-77726387D01*
X124123235Y-77689947D01*
X123904606Y-77571631D01*
X123669493Y-77490916D01*
X123424293Y-77450000D01*
X123175707Y-77450000D01*
X122930506Y-77490916D01*
X122695393Y-77571631D01*
X122476764Y-77689946D01*
X122429942Y-77726388D01*
X122429942Y-77726390D01*
X123167464Y-78463913D01*
X123157685Y-78465320D01*
X123026900Y-78525048D01*
X122918239Y-78619202D01*
X122840507Y-78740156D01*
X122816923Y-78820475D01*
X122076564Y-78080116D01*
X121976266Y-78233634D01*
X121876413Y-78461278D01*
X121815386Y-78702267D01*
X121794858Y-78950000D01*
X99219313Y-78950000D01*
X99210970Y-78906863D01*
X99127818Y-78686525D01*
X99008625Y-78483409D01*
X98856819Y-78303358D01*
X98676768Y-78151552D01*
X98473652Y-78032359D01*
X98278443Y-77958690D01*
X98222673Y-77916604D01*
X98198509Y-77851045D01*
X98213624Y-77782830D01*
X98263220Y-77733616D01*
X98322226Y-77718677D01*
X101795328Y-77718677D01*
X101798638Y-77718677D01*
X101859201Y-77712166D01*
X101859203Y-77712165D01*
X101859205Y-77712165D01*
X101937124Y-77683101D01*
X101996204Y-77661066D01*
X102113261Y-77573438D01*
X102200889Y-77456381D01*
X102251989Y-77319378D01*
X102258500Y-77258815D01*
X102258500Y-76592677D01*
X102278185Y-76525638D01*
X102330989Y-76479883D01*
X102382500Y-76468677D01*
X102501858Y-76468677D01*
X102514011Y-76469273D01*
X102557500Y-76473557D01*
X102755201Y-76454086D01*
X102945304Y-76396418D01*
X103120504Y-76302772D01*
X103274068Y-76176745D01*
X103301799Y-76142953D01*
X103309951Y-76133958D01*
X104381597Y-75062312D01*
X104424482Y-75034369D01*
X104618598Y-74959167D01*
X104618600Y-74959166D01*
X104801143Y-74846141D01*
X104959810Y-74701497D01*
X105002119Y-74645471D01*
X105089195Y-74530163D01*
X105184898Y-74337966D01*
X105243653Y-74131465D01*
X105259232Y-73963333D01*
X105263463Y-73917677D01*
X105243653Y-73703891D01*
X105243653Y-73703888D01*
X105184898Y-73497387D01*
X105089195Y-73305190D01*
X104959811Y-73133857D01*
X104801143Y-72989213D01*
X104618598Y-72876186D01*
X104418401Y-72798629D01*
X104418398Y-72798628D01*
X104418397Y-72798628D01*
X104207351Y-72759177D01*
X103992649Y-72759177D01*
X103805184Y-72794220D01*
X103781598Y-72798629D01*
X103581401Y-72876186D01*
X103398856Y-72989213D01*
X103240188Y-73133857D01*
X103110804Y-73305190D01*
X103015102Y-73497387D01*
X102992517Y-73576763D01*
X102960932Y-73630509D01*
X102470181Y-74121261D01*
X102408858Y-74154746D01*
X102339167Y-74149762D01*
X102283233Y-74107891D01*
X102258816Y-74042426D01*
X102258500Y-74033580D01*
X102258500Y-73664848D01*
X102258500Y-73661539D01*
X102251989Y-73600976D01*
X102251988Y-73600974D01*
X102251988Y-73600971D01*
X102200889Y-73463973D01*
X102113261Y-73346915D01*
X101996203Y-73259287D01*
X101859205Y-73208188D01*
X101801924Y-73202030D01*
X101801918Y-73202029D01*
X101798638Y-73201677D01*
X98201362Y-73201677D01*
X98198082Y-73202029D01*
X98198075Y-73202030D01*
X98140794Y-73208188D01*
X98003796Y-73259287D01*
X97886738Y-73346915D01*
X97799110Y-73463973D01*
X97748011Y-73600971D01*
X97747284Y-73607737D01*
X97741500Y-73661539D01*
X97741500Y-77258815D01*
X97741852Y-77262095D01*
X97741853Y-77262101D01*
X97748011Y-77319382D01*
X97799110Y-77456380D01*
X97886738Y-77573438D01*
X97936348Y-77610575D01*
X98003796Y-77661066D01*
X98004949Y-77661496D01*
X98060882Y-77703369D01*
X98085297Y-77768834D01*
X98070444Y-77837106D01*
X98021038Y-77886510D01*
X97961613Y-77901677D01*
X96032485Y-77901677D01*
X96032447Y-77901677D01*
X96030830Y-77901678D01*
X96029198Y-77901764D01*
X96029185Y-77901765D01*
X95982172Y-77904261D01*
X95982163Y-77904262D01*
X95977908Y-77904488D01*
X95973719Y-77905298D01*
X95973712Y-77905299D01*
X95746687Y-77949206D01*
X95526345Y-78032360D01*
X95323232Y-78151552D01*
X95143181Y-78303358D01*
X94991375Y-78483409D01*
X94872183Y-78686522D01*
X94789029Y-78906864D01*
X94745905Y-79129844D01*
X94744311Y-79138085D01*
X94744085Y-79142349D01*
X94744083Y-79142364D01*
X94741587Y-79189355D01*
X94741587Y-79189362D01*
X94741500Y-79191006D01*
X94741500Y-79192649D01*
X94741500Y-79192650D01*
X94741500Y-81127691D01*
X94741500Y-81127728D01*
X91000000Y-81127728D01*
X91000000Y-75210176D01*
X91999999Y-75210176D01*
X92000000Y-75210177D01*
X93500000Y-75210177D01*
X93500000Y-75710177D01*
X92000001Y-75710177D01*
X92000001Y-76521921D01*
X92000192Y-76526802D01*
X92010400Y-76656508D01*
X92065377Y-76874695D01*
X92158430Y-77079556D01*
X92286565Y-77264509D01*
X92445667Y-77423611D01*
X92630620Y-77551746D01*
X92835481Y-77644799D01*
X93053668Y-77699776D01*
X93183374Y-77709985D01*
X93188254Y-77710176D01*
X93749999Y-77710176D01*
X93750000Y-77710175D01*
X93750000Y-76893863D01*
X93790156Y-76919670D01*
X93928111Y-76960177D01*
X94071889Y-76960177D01*
X94209844Y-76919670D01*
X94250000Y-76893863D01*
X94250000Y-77710176D01*
X94811744Y-77710176D01*
X94816625Y-77709984D01*
X94946331Y-77699776D01*
X95164518Y-77644799D01*
X95369379Y-77551746D01*
X95554332Y-77423611D01*
X95713434Y-77264509D01*
X95841569Y-77079556D01*
X95934622Y-76874695D01*
X95989599Y-76656508D01*
X95999808Y-76526802D01*
X96000000Y-76521922D01*
X96000000Y-75710177D01*
X94500000Y-75710177D01*
X94500000Y-75210177D01*
X95999999Y-75210177D01*
X95999999Y-74398432D01*
X95999807Y-74393551D01*
X95989599Y-74263845D01*
X95934622Y-74045658D01*
X95841569Y-73840797D01*
X95713434Y-73655844D01*
X95554332Y-73496742D01*
X95369379Y-73368607D01*
X95164518Y-73275554D01*
X94946331Y-73220577D01*
X94816625Y-73210368D01*
X94811746Y-73210177D01*
X94250000Y-73210177D01*
X94250000Y-74026490D01*
X94209844Y-74000684D01*
X94071889Y-73960177D01*
X93928111Y-73960177D01*
X93790156Y-74000684D01*
X93750000Y-74026490D01*
X93750000Y-73210177D01*
X93188255Y-73210177D01*
X93183374Y-73210369D01*
X93053668Y-73220577D01*
X92835481Y-73275554D01*
X92630620Y-73368607D01*
X92445667Y-73496742D01*
X92286565Y-73655844D01*
X92158430Y-73840797D01*
X92065377Y-74045658D01*
X92010400Y-74263845D01*
X92000191Y-74393551D01*
X92000000Y-74398431D01*
X91999999Y-75210176D01*
X91000000Y-75210176D01*
X91000000Y-59124000D01*
X91019685Y-59056961D01*
X91072489Y-59011206D01*
X91124000Y-59000000D01*
X154716658Y-59000000D01*
X154783697Y-59019685D01*
G37*
G04 #@! TD.AperFunction*
G04 #@! TA.AperFunction,Conductor*
G36*
X205943039Y-59019685D02*
G01*
X205988794Y-59072489D01*
X206000000Y-59124000D01*
X206000000Y-156876000D01*
X205980315Y-156943039D01*
X205927511Y-156988794D01*
X205876000Y-157000000D01*
X162184174Y-157000000D01*
X162117135Y-156980315D01*
X162071380Y-156927511D01*
X162061436Y-156858353D01*
X162090461Y-156794797D01*
X162096493Y-156788319D01*
X174329039Y-144555773D01*
X186584951Y-132299860D01*
X186599732Y-132287235D01*
X186611253Y-132278866D01*
X186657062Y-132227988D01*
X186661517Y-132223295D01*
X186673773Y-132211040D01*
X186673774Y-132211038D01*
X186676072Y-132208741D01*
X186689043Y-132192722D01*
X186693228Y-132187822D01*
X186739040Y-132136944D01*
X186746156Y-132124617D01*
X186757167Y-132108595D01*
X186766129Y-132097530D01*
X186797211Y-132036527D01*
X186800291Y-132030853D01*
X186834527Y-131971556D01*
X186838921Y-131958029D01*
X186846372Y-131940043D01*
X186852830Y-131927370D01*
X186853826Y-131923652D01*
X186870552Y-131861223D01*
X186872384Y-131855042D01*
X186893542Y-131789928D01*
X186895029Y-131775766D01*
X186898573Y-131756648D01*
X186902257Y-131742903D01*
X186905839Y-131674536D01*
X186906348Y-131668081D01*
X186908161Y-131650837D01*
X186908161Y-131650833D01*
X186908500Y-131647610D01*
X186908500Y-131627027D01*
X186908670Y-131620537D01*
X186909514Y-131604426D01*
X186912252Y-131552190D01*
X186910024Y-131538125D01*
X186908500Y-131518755D01*
X186908500Y-109513934D01*
X186928185Y-109446896D01*
X186962647Y-109411483D01*
X187068219Y-109339505D01*
X187255931Y-109165334D01*
X187415587Y-108965131D01*
X187415588Y-108965130D01*
X187421381Y-108957866D01*
X187423752Y-108959757D01*
X187463064Y-108922280D01*
X187519875Y-108908500D01*
X190331333Y-108908500D01*
X190396610Y-108927073D01*
X190581401Y-109041490D01*
X190762938Y-109111818D01*
X190781603Y-109119049D01*
X190992649Y-109158500D01*
X190992651Y-109158500D01*
X191207349Y-109158500D01*
X191207351Y-109158500D01*
X191418397Y-109119049D01*
X191551865Y-109067342D01*
X191618598Y-109041490D01*
X191618600Y-109041489D01*
X191801143Y-108928464D01*
X191959810Y-108783820D01*
X191990357Y-108743369D01*
X192089195Y-108612486D01*
X192184898Y-108420289D01*
X192243653Y-108213788D01*
X192248949Y-108156631D01*
X192263463Y-108000000D01*
X192243653Y-107786214D01*
X192243653Y-107786211D01*
X192184898Y-107579710D01*
X192089195Y-107387513D01*
X191959811Y-107216180D01*
X191801143Y-107071536D01*
X191618598Y-106958509D01*
X191418401Y-106880952D01*
X191418398Y-106880951D01*
X191418397Y-106880951D01*
X191207351Y-106841500D01*
X190992649Y-106841500D01*
X190781603Y-106880951D01*
X190781598Y-106880952D01*
X190581401Y-106958509D01*
X190396610Y-107072927D01*
X190331333Y-107091500D01*
X187519875Y-107091500D01*
X187452836Y-107071815D01*
X187423171Y-107040706D01*
X187421381Y-107042134D01*
X187255930Y-106834665D01*
X187068217Y-106660492D01*
X186962648Y-106588516D01*
X186918346Y-106534487D01*
X186908500Y-106486063D01*
X186908500Y-95513935D01*
X186928185Y-95446896D01*
X186962647Y-95411483D01*
X187068219Y-95339505D01*
X187255931Y-95165334D01*
X187415587Y-94965131D01*
X187415588Y-94965130D01*
X187421381Y-94957866D01*
X187423752Y-94959757D01*
X187463064Y-94922280D01*
X187519875Y-94908500D01*
X188368744Y-94908500D01*
X188388142Y-94910027D01*
X188402190Y-94912252D01*
X188470537Y-94908669D01*
X188477027Y-94908500D01*
X188494368Y-94908500D01*
X188497610Y-94908500D01*
X188500833Y-94908161D01*
X188500837Y-94908161D01*
X188507588Y-94907451D01*
X188518092Y-94906347D01*
X188524536Y-94905839D01*
X188592903Y-94902257D01*
X188606648Y-94898573D01*
X188625766Y-94895029D01*
X188639928Y-94893542D01*
X188705053Y-94872380D01*
X188711242Y-94870547D01*
X188777370Y-94852829D01*
X188777374Y-94852827D01*
X188790043Y-94846372D01*
X188808019Y-94838925D01*
X188821556Y-94834527D01*
X188880844Y-94800295D01*
X188886537Y-94797205D01*
X188919999Y-94780156D01*
X188947530Y-94766129D01*
X188958587Y-94757174D01*
X188974617Y-94746156D01*
X188986944Y-94739040D01*
X189037822Y-94693228D01*
X189042722Y-94689043D01*
X189058741Y-94676072D01*
X189073297Y-94661514D01*
X189077988Y-94657062D01*
X189128866Y-94611253D01*
X189137235Y-94599732D01*
X189149860Y-94584951D01*
X190584951Y-93149860D01*
X190599732Y-93137235D01*
X190611253Y-93128866D01*
X190657062Y-93077988D01*
X190661517Y-93073295D01*
X190673773Y-93061040D01*
X190673774Y-93061038D01*
X190676072Y-93058741D01*
X190689043Y-93042722D01*
X190693228Y-93037822D01*
X190739040Y-92986944D01*
X190746156Y-92974617D01*
X190757175Y-92958587D01*
X190766129Y-92947530D01*
X190797205Y-92886536D01*
X190800295Y-92880844D01*
X190834527Y-92821556D01*
X190838925Y-92808019D01*
X190846372Y-92790043D01*
X190852827Y-92777374D01*
X190852827Y-92777373D01*
X190852829Y-92777370D01*
X190870547Y-92711242D01*
X190872385Y-92705040D01*
X190876418Y-92692628D01*
X190893542Y-92639928D01*
X190895029Y-92625766D01*
X190898573Y-92606648D01*
X190902257Y-92592903D01*
X190905839Y-92524536D01*
X190906348Y-92518081D01*
X190908161Y-92500837D01*
X190908161Y-92500833D01*
X190908500Y-92497610D01*
X190908500Y-92477027D01*
X190908670Y-92470537D01*
X190910123Y-92442811D01*
X190912252Y-92402190D01*
X190910027Y-92388141D01*
X190908500Y-92368743D01*
X190908500Y-88015544D01*
X190928185Y-87948505D01*
X190944814Y-87927867D01*
X191049030Y-87823652D01*
X191142115Y-87672738D01*
X191197887Y-87504426D01*
X191208500Y-87400545D01*
X191208499Y-86599456D01*
X191197887Y-86495574D01*
X191142115Y-86327262D01*
X191049030Y-86176348D01*
X191049029Y-86176347D01*
X191049028Y-86176345D01*
X190960364Y-86087681D01*
X190926879Y-86026358D01*
X190931863Y-85956666D01*
X190960364Y-85912319D01*
X191049028Y-85823654D01*
X191049027Y-85823653D01*
X191049030Y-85823652D01*
X191142115Y-85672738D01*
X191197887Y-85504426D01*
X191208500Y-85400545D01*
X191208499Y-84599456D01*
X191197887Y-84495574D01*
X191142115Y-84327262D01*
X191049030Y-84176348D01*
X190960361Y-84087679D01*
X190926878Y-84026359D01*
X190931862Y-83956667D01*
X190960361Y-83912320D01*
X191049030Y-83823652D01*
X191142115Y-83672738D01*
X191197887Y-83504426D01*
X191208500Y-83400545D01*
X191208499Y-82599456D01*
X191197887Y-82495574D01*
X191142115Y-82327262D01*
X191049030Y-82176348D01*
X191049029Y-82176347D01*
X191049028Y-82176345D01*
X190954353Y-82081670D01*
X190920868Y-82020347D01*
X190925852Y-81950655D01*
X190954353Y-81906307D01*
X191042318Y-81818342D01*
X191134357Y-81669122D01*
X191189506Y-81502696D01*
X191199680Y-81403109D01*
X191200000Y-81396831D01*
X191200000Y-81250000D01*
X188800001Y-81250000D01*
X188800001Y-81396829D01*
X188800321Y-81403111D01*
X188810493Y-81502695D01*
X188865642Y-81669122D01*
X188957683Y-81818345D01*
X189019157Y-81879819D01*
X189052642Y-81941142D01*
X189047658Y-82010834D01*
X189005786Y-82066767D01*
X188940322Y-82091184D01*
X188931476Y-82091500D01*
X188581255Y-82091500D01*
X188561857Y-82089973D01*
X188547809Y-82087748D01*
X188479462Y-82091330D01*
X188472972Y-82091500D01*
X188452390Y-82091500D01*
X188449176Y-82091837D01*
X188449170Y-82091838D01*
X188431917Y-82093651D01*
X188425456Y-82094159D01*
X188357091Y-82097743D01*
X188343344Y-82101426D01*
X188324222Y-82104970D01*
X188310072Y-82106457D01*
X188244961Y-82127613D01*
X188238762Y-82129449D01*
X188194818Y-82141225D01*
X188172625Y-82147172D01*
X188159953Y-82153629D01*
X188141987Y-82161071D01*
X188128444Y-82165471D01*
X188069175Y-82199691D01*
X188063471Y-82202788D01*
X188002468Y-82233871D01*
X187991406Y-82242829D01*
X187975380Y-82253844D01*
X187963056Y-82260959D01*
X187912196Y-82306753D01*
X187907268Y-82310962D01*
X187893779Y-82321885D01*
X187893754Y-82321906D01*
X187891259Y-82323928D01*
X187888979Y-82326207D01*
X187888961Y-82326224D01*
X187876694Y-82338491D01*
X187871989Y-82342956D01*
X187821132Y-82388748D01*
X187812770Y-82400257D01*
X187800140Y-82415044D01*
X187760007Y-82455179D01*
X187698685Y-82488666D01*
X187672324Y-82491500D01*
X186342938Y-82491500D01*
X186275899Y-82471815D01*
X186230144Y-82419011D01*
X186220200Y-82349853D01*
X186237511Y-82302223D01*
X186256939Y-82270844D01*
X186292752Y-82213005D01*
X186369475Y-82014961D01*
X186408500Y-81806193D01*
X186408500Y-81593807D01*
X186369475Y-81385039D01*
X186292752Y-81186995D01*
X186180946Y-81006422D01*
X186180945Y-81006421D01*
X186180944Y-81006419D01*
X186114503Y-80933537D01*
X186083886Y-80870733D01*
X186092084Y-80801346D01*
X186114501Y-80766463D01*
X186129509Y-80750000D01*
X188800000Y-80750000D01*
X189750000Y-80750000D01*
X189750000Y-79900000D01*
X190250000Y-79900000D01*
X190250000Y-80750000D01*
X191199999Y-80750000D01*
X191199999Y-80603170D01*
X191199678Y-80596888D01*
X191189506Y-80497304D01*
X191134357Y-80330877D01*
X191042316Y-80181654D01*
X190918345Y-80057683D01*
X190769122Y-79965642D01*
X190602696Y-79910493D01*
X190503109Y-79900319D01*
X190496832Y-79900000D01*
X190250000Y-79900000D01*
X189750000Y-79900000D01*
X189503171Y-79900000D01*
X189496888Y-79900321D01*
X189397304Y-79910493D01*
X189230877Y-79965642D01*
X189081654Y-80057683D01*
X188957683Y-80181654D01*
X188865642Y-80330877D01*
X188810493Y-80497303D01*
X188800319Y-80596890D01*
X188800000Y-80603168D01*
X188800000Y-80750000D01*
X186129509Y-80750000D01*
X186180946Y-80693578D01*
X186292752Y-80513005D01*
X186369475Y-80314961D01*
X186408500Y-80106193D01*
X186408500Y-79893807D01*
X186369475Y-79685039D01*
X186292752Y-79486995D01*
X186260804Y-79435397D01*
X186242249Y-79368039D01*
X186263057Y-79301340D01*
X186266939Y-79295847D01*
X186350889Y-79183704D01*
X186385280Y-79091500D01*
X186401988Y-79046705D01*
X186401988Y-79046703D01*
X186401989Y-79046701D01*
X186408500Y-78986138D01*
X186408500Y-77613862D01*
X186401989Y-77553299D01*
X186401988Y-77553297D01*
X186401988Y-77553294D01*
X186350890Y-77416298D01*
X186350889Y-77416296D01*
X186269311Y-77307322D01*
X186244896Y-77241861D01*
X186259748Y-77173588D01*
X186280896Y-77145336D01*
X189673781Y-73752451D01*
X189682776Y-73744299D01*
X189716568Y-73716568D01*
X189842595Y-73563004D01*
X189936241Y-73387804D01*
X189993908Y-73197701D01*
X190008500Y-73049547D01*
X190008499Y-73049547D01*
X190008857Y-73045928D01*
X190012316Y-73010799D01*
X190013380Y-73000000D01*
X190009096Y-72956511D01*
X190008499Y-72944356D01*
X190008500Y-69832500D01*
X190028185Y-69765461D01*
X190080989Y-69719706D01*
X190132500Y-69708500D01*
X190245328Y-69708500D01*
X190248638Y-69708500D01*
X190309201Y-69701989D01*
X190309203Y-69701988D01*
X190309205Y-69701988D01*
X190387124Y-69672924D01*
X190446204Y-69650889D01*
X190563261Y-69563261D01*
X190650889Y-69446204D01*
X190681903Y-69363054D01*
X190701988Y-69309205D01*
X190701988Y-69309203D01*
X190701989Y-69309201D01*
X190708500Y-69248638D01*
X190708500Y-66751362D01*
X190701989Y-66690799D01*
X190701988Y-66690797D01*
X190701988Y-66690794D01*
X190650889Y-66553796D01*
X190563261Y-66436738D01*
X190446203Y-66349110D01*
X190309205Y-66298011D01*
X190251924Y-66291853D01*
X190251918Y-66291852D01*
X190248638Y-66291500D01*
X190245328Y-66291500D01*
X190132500Y-66291500D01*
X190065461Y-66271815D01*
X190019706Y-66219011D01*
X190008500Y-66167500D01*
X190008500Y-63055641D01*
X190009097Y-63043487D01*
X190009736Y-63036996D01*
X190013380Y-63000000D01*
X189993909Y-62802299D01*
X189936241Y-62612196D01*
X189936241Y-62612195D01*
X189846290Y-62443909D01*
X189842594Y-62436995D01*
X189716568Y-62283432D01*
X189682784Y-62255706D01*
X189673769Y-62247535D01*
X188202464Y-60776230D01*
X188194291Y-60767213D01*
X188166567Y-60733431D01*
X188013003Y-60607404D01*
X187840504Y-60515202D01*
X187838130Y-60513857D01*
X187647699Y-60456090D01*
X187471597Y-60438747D01*
X187450000Y-60436620D01*
X187449999Y-60436620D01*
X187406512Y-60440903D01*
X187394358Y-60441500D01*
X156928839Y-60441500D01*
X156861800Y-60421815D01*
X156816045Y-60369011D01*
X156806101Y-60299853D01*
X156809573Y-60283565D01*
X156843653Y-60163786D01*
X156843653Y-60163785D01*
X156863463Y-59950000D01*
X156843653Y-59736214D01*
X156843653Y-59736211D01*
X156784898Y-59529710D01*
X156689196Y-59337516D01*
X156584388Y-59198727D01*
X156559696Y-59133365D01*
X156574261Y-59065031D01*
X156623459Y-59015418D01*
X156683342Y-59000000D01*
X205876000Y-59000000D01*
X205943039Y-59019685D01*
G37*
G04 #@! TD.AperFunction*
D38*
X123600000Y-114150000D03*
X155700000Y-59950000D03*
X116300000Y-73917677D03*
X128700000Y-112650000D03*
X121400000Y-69700000D03*
X126900000Y-83000000D03*
X133400000Y-118100000D03*
X141450000Y-145700000D03*
X123050000Y-143050000D03*
X123000000Y-128900000D03*
X104100000Y-73917677D03*
X191100000Y-108000000D03*
X191950000Y-81000000D03*
X97300000Y-85117677D03*
X132900000Y-85950000D03*
X145000000Y-127200000D03*
X144150000Y-145650000D03*
X141600000Y-98950000D03*
D39*
X100000000Y-75460177D03*
X94000000Y-75460177D03*
D40*
X97000000Y-80160177D03*
D38*
X181000000Y-94000000D03*
X186000000Y-94000000D03*
X103000000Y-126000000D03*
X103000000Y-128000000D03*
X113000000Y-125840000D03*
X113000000Y-128380000D03*
X113000000Y-133460000D03*
X113000000Y-136000000D03*
X113000000Y-138540000D03*
X152000000Y-91920000D03*
X152000000Y-94460000D03*
X152000000Y-97000000D03*
X150000000Y-73920000D03*
X148000000Y-73920000D03*
X123300000Y-73950000D03*
X123300000Y-78950000D03*
X181000000Y-108000000D03*
X186000000Y-108000000D03*
X139000000Y-73920000D03*
X139000000Y-78920000D03*
X179000000Y-79000000D03*
X179000000Y-84080000D03*
X185000000Y-78300000D03*
X185000000Y-80000000D03*
X185000000Y-81700000D03*
X185000000Y-83400000D03*
X185000000Y-85100000D03*
X189000000Y-68000000D03*
X184000000Y-68000000D03*
X145000000Y-98920000D03*
X145000000Y-96920000D03*
X173000000Y-69300000D03*
X173000000Y-94700000D03*
X145000000Y-89920000D03*
X145000000Y-91920000D03*
X155700000Y-65920000D03*
X130300000Y-65920000D03*
X118000000Y-133000000D03*
X118000000Y-131000000D03*
X118000000Y-141000000D03*
X118000000Y-139000000D03*
X131655000Y-150460000D03*
X156655000Y-150460000D03*
X138615000Y-150160000D03*
X141385000Y-150160000D03*
X144155000Y-150160000D03*
X146925000Y-150160000D03*
X149695000Y-150160000D03*
X140000000Y-153000000D03*
X142770000Y-153000000D03*
X145540000Y-153000000D03*
X148310000Y-153000000D03*
X123000000Y-85000000D03*
X128000000Y-136000000D03*
X151500000Y-82920000D03*
X146500000Y-82920000D03*
X133000000Y-91920000D03*
X133000000Y-94460000D03*
X133000000Y-97000000D03*
M02*
