G04 #@! TF.GenerationSoftware,KiCad,Pcbnew,7.0.2-1.fc37*
G04 #@! TF.CreationDate,2023-07-20T15:30:54+02:00*
G04 #@! TF.ProjectId,office_amp,6f666669-6365-45f6-916d-702e6b696361,V1.3*
G04 #@! TF.SameCoordinates,Original*
G04 #@! TF.FileFunction,Copper,L1,Top*
G04 #@! TF.FilePolarity,Positive*
%FSLAX46Y46*%
G04 Gerber Fmt 4.6, Leading zero omitted, Abs format (unit mm)*
G04 Created by KiCad (PCBNEW 7.0.2-1.fc37) date 2023-07-20 15:30:54*
%MOMM*%
%LPD*%
G01*
G04 APERTURE LIST*
G04 Aperture macros list*
%AMRoundRect*
0 Rectangle with rounded corners*
0 $1 Rounding radius*
0 $2 $3 $4 $5 $6 $7 $8 $9 X,Y pos of 4 corners*
0 Add a 4 corners polygon primitive as box body*
4,1,4,$2,$3,$4,$5,$6,$7,$8,$9,$2,$3,0*
0 Add four circle primitives for the rounded corners*
1,1,$1+$1,$2,$3*
1,1,$1+$1,$4,$5*
1,1,$1+$1,$6,$7*
1,1,$1+$1,$8,$9*
0 Add four rect primitives between the rounded corners*
20,1,$1+$1,$2,$3,$4,$5,0*
20,1,$1+$1,$4,$5,$6,$7,0*
20,1,$1+$1,$6,$7,$8,$9,0*
20,1,$1+$1,$8,$9,$2,$3,0*%
%AMFreePoly0*
4,1,6,1.000000,0.000000,0.500000,-0.750000,-0.500000,-0.750000,-0.500000,0.750000,0.500000,0.750000,1.000000,0.000000,1.000000,0.000000,$1*%
%AMFreePoly1*
4,1,6,0.500000,-0.750000,-0.650000,-0.750000,-0.150000,0.000000,-0.650000,0.750000,0.500000,0.750000,0.500000,-0.750000,0.500000,-0.750000,$1*%
G04 Aperture macros list end*
G04 #@! TA.AperFunction,Profile*
%ADD10C,0.100000*%
G04 #@! TD*
%ADD11C,0.150000*%
G04 #@! TA.AperFunction,NonConductor*
%ADD12C,0.150000*%
G04 #@! TD*
%ADD13C,0.300000*%
G04 #@! TA.AperFunction,NonConductor*
%ADD14C,0.300000*%
G04 #@! TD*
G04 #@! TA.AperFunction,SMDPad,CuDef*
%ADD15FreePoly0,0.000000*%
G04 #@! TD*
G04 #@! TA.AperFunction,SMDPad,CuDef*
%ADD16FreePoly1,0.000000*%
G04 #@! TD*
G04 #@! TA.AperFunction,SMDPad,CuDef*
%ADD17R,1.750000X0.550000*%
G04 #@! TD*
G04 #@! TA.AperFunction,ComponentPad*
%ADD18R,3.500000X3.500000*%
G04 #@! TD*
G04 #@! TA.AperFunction,ComponentPad*
%ADD19RoundRect,0.750000X-0.750000X-1.000000X0.750000X-1.000000X0.750000X1.000000X-0.750000X1.000000X0*%
G04 #@! TD*
G04 #@! TA.AperFunction,ComponentPad*
%ADD20RoundRect,0.875000X-0.875000X-0.875000X0.875000X-0.875000X0.875000X0.875000X-0.875000X0.875000X0*%
G04 #@! TD*
G04 #@! TA.AperFunction,SMDPad,CuDef*
%ADD21RoundRect,0.150000X-0.512500X-0.150000X0.512500X-0.150000X0.512500X0.150000X-0.512500X0.150000X0*%
G04 #@! TD*
G04 #@! TA.AperFunction,ComponentPad*
%ADD22R,2.400000X2.400000*%
G04 #@! TD*
G04 #@! TA.AperFunction,ComponentPad*
%ADD23C,2.400000*%
G04 #@! TD*
G04 #@! TA.AperFunction,ComponentPad*
%ADD24R,1.600000X1.600000*%
G04 #@! TD*
G04 #@! TA.AperFunction,ComponentPad*
%ADD25C,1.600000*%
G04 #@! TD*
G04 #@! TA.AperFunction,ComponentPad*
%ADD26C,1.700000*%
G04 #@! TD*
G04 #@! TA.AperFunction,ComponentPad*
%ADD27R,2.000000X1.905000*%
G04 #@! TD*
G04 #@! TA.AperFunction,ComponentPad*
%ADD28O,2.000000X1.905000*%
G04 #@! TD*
G04 #@! TA.AperFunction,ComponentPad*
%ADD29R,2.000000X2.000000*%
G04 #@! TD*
G04 #@! TA.AperFunction,ComponentPad*
%ADD30C,2.000000*%
G04 #@! TD*
G04 #@! TA.AperFunction,ComponentPad*
%ADD31O,2.000000X2.000000*%
G04 #@! TD*
G04 #@! TA.AperFunction,ComponentPad*
%ADD32R,1.800000X1.275000*%
G04 #@! TD*
G04 #@! TA.AperFunction,ComponentPad*
%ADD33O,1.800000X1.275000*%
G04 #@! TD*
G04 #@! TA.AperFunction,SMDPad,CuDef*
%ADD34RoundRect,0.250000X0.337500X0.475000X-0.337500X0.475000X-0.337500X-0.475000X0.337500X-0.475000X0*%
G04 #@! TD*
G04 #@! TA.AperFunction,SMDPad,CuDef*
%ADD35RoundRect,0.250000X0.475000X-0.337500X0.475000X0.337500X-0.475000X0.337500X-0.475000X-0.337500X0*%
G04 #@! TD*
G04 #@! TA.AperFunction,ComponentPad*
%ADD36C,2.200000*%
G04 #@! TD*
G04 #@! TA.AperFunction,ComponentPad*
%ADD37O,2.200000X2.200000*%
G04 #@! TD*
G04 #@! TA.AperFunction,ComponentPad*
%ADD38C,4.000000*%
G04 #@! TD*
G04 #@! TA.AperFunction,ComponentPad*
%ADD39C,2.800000*%
G04 #@! TD*
G04 #@! TA.AperFunction,SMDPad,CuDef*
%ADD40C,1.500000*%
G04 #@! TD*
G04 #@! TA.AperFunction,SMDPad,CuDef*
%ADD41C,1.000000*%
G04 #@! TD*
G04 #@! TA.AperFunction,ViaPad*
%ADD42C,1.300000*%
G04 #@! TD*
G04 #@! TA.AperFunction,Conductor*
%ADD43C,0.500000*%
G04 #@! TD*
G04 #@! TA.AperFunction,Conductor*
%ADD44C,1.000000*%
G04 #@! TD*
G04 #@! TA.AperFunction,Conductor*
%ADD45C,0.800000*%
G04 #@! TD*
G04 #@! TA.AperFunction,Conductor*
%ADD46C,0.400000*%
G04 #@! TD*
%ADD47C,0.350000*%
%ADD48O,1.000000X3.000000*%
%ADD49O,3.000000X1.000000*%
G04 APERTURE END LIST*
D10*
X90000000Y-58000000D02*
X207100000Y-58000000D01*
X207100000Y-158000000D02*
X90000000Y-158000000D01*
X207100000Y-58000000D02*
X207100000Y-158000000D01*
X90000000Y-158000000D02*
X90000000Y-58000000D01*
D11*
D12*
X130761904Y-134925238D02*
X130666666Y-134877619D01*
X130666666Y-134877619D02*
X130523809Y-134877619D01*
X130523809Y-134877619D02*
X130380952Y-134925238D01*
X130380952Y-134925238D02*
X130285714Y-135020476D01*
X130285714Y-135020476D02*
X130238095Y-135115714D01*
X130238095Y-135115714D02*
X130190476Y-135306190D01*
X130190476Y-135306190D02*
X130190476Y-135449047D01*
X130190476Y-135449047D02*
X130238095Y-135639523D01*
X130238095Y-135639523D02*
X130285714Y-135734761D01*
X130285714Y-135734761D02*
X130380952Y-135830000D01*
X130380952Y-135830000D02*
X130523809Y-135877619D01*
X130523809Y-135877619D02*
X130619047Y-135877619D01*
X130619047Y-135877619D02*
X130761904Y-135830000D01*
X130761904Y-135830000D02*
X130809523Y-135782380D01*
X130809523Y-135782380D02*
X130809523Y-135449047D01*
X130809523Y-135449047D02*
X130619047Y-135449047D01*
X131238095Y-135877619D02*
X131238095Y-134877619D01*
X131238095Y-134877619D02*
X131809523Y-135877619D01*
X131809523Y-135877619D02*
X131809523Y-134877619D01*
X132285714Y-135877619D02*
X132285714Y-134877619D01*
X132285714Y-134877619D02*
X132523809Y-134877619D01*
X132523809Y-134877619D02*
X132666666Y-134925238D01*
X132666666Y-134925238D02*
X132761904Y-135020476D01*
X132761904Y-135020476D02*
X132809523Y-135115714D01*
X132809523Y-135115714D02*
X132857142Y-135306190D01*
X132857142Y-135306190D02*
X132857142Y-135449047D01*
X132857142Y-135449047D02*
X132809523Y-135639523D01*
X132809523Y-135639523D02*
X132761904Y-135734761D01*
X132761904Y-135734761D02*
X132666666Y-135830000D01*
X132666666Y-135830000D02*
X132523809Y-135877619D01*
X132523809Y-135877619D02*
X132285714Y-135877619D01*
X133047619Y-135972857D02*
X133809523Y-135972857D01*
X134047619Y-135877619D02*
X134047619Y-134877619D01*
X134523809Y-135210952D02*
X134523809Y-135877619D01*
X134523809Y-135306190D02*
X134571428Y-135258571D01*
X134571428Y-135258571D02*
X134666666Y-135210952D01*
X134666666Y-135210952D02*
X134809523Y-135210952D01*
X134809523Y-135210952D02*
X134904761Y-135258571D01*
X134904761Y-135258571D02*
X134952380Y-135353809D01*
X134952380Y-135353809D02*
X134952380Y-135877619D01*
X135428571Y-135210952D02*
X135428571Y-136210952D01*
X135428571Y-135258571D02*
X135523809Y-135210952D01*
X135523809Y-135210952D02*
X135714285Y-135210952D01*
X135714285Y-135210952D02*
X135809523Y-135258571D01*
X135809523Y-135258571D02*
X135857142Y-135306190D01*
X135857142Y-135306190D02*
X135904761Y-135401428D01*
X135904761Y-135401428D02*
X135904761Y-135687142D01*
X135904761Y-135687142D02*
X135857142Y-135782380D01*
X135857142Y-135782380D02*
X135809523Y-135830000D01*
X135809523Y-135830000D02*
X135714285Y-135877619D01*
X135714285Y-135877619D02*
X135523809Y-135877619D01*
X135523809Y-135877619D02*
X135428571Y-135830000D01*
X136761904Y-135210952D02*
X136761904Y-135877619D01*
X136333333Y-135210952D02*
X136333333Y-135734761D01*
X136333333Y-135734761D02*
X136380952Y-135830000D01*
X136380952Y-135830000D02*
X136476190Y-135877619D01*
X136476190Y-135877619D02*
X136619047Y-135877619D01*
X136619047Y-135877619D02*
X136714285Y-135830000D01*
X136714285Y-135830000D02*
X136761904Y-135782380D01*
X137095238Y-135210952D02*
X137476190Y-135210952D01*
X137238095Y-134877619D02*
X137238095Y-135734761D01*
X137238095Y-135734761D02*
X137285714Y-135830000D01*
X137285714Y-135830000D02*
X137380952Y-135877619D01*
X137380952Y-135877619D02*
X137476190Y-135877619D01*
D11*
D12*
X124238095Y-126496666D02*
X125000000Y-126496666D01*
X125952380Y-125877619D02*
X125476190Y-125877619D01*
X125476190Y-125877619D02*
X125428571Y-126353809D01*
X125428571Y-126353809D02*
X125476190Y-126306190D01*
X125476190Y-126306190D02*
X125571428Y-126258571D01*
X125571428Y-126258571D02*
X125809523Y-126258571D01*
X125809523Y-126258571D02*
X125904761Y-126306190D01*
X125904761Y-126306190D02*
X125952380Y-126353809D01*
X125952380Y-126353809D02*
X125999999Y-126449047D01*
X125999999Y-126449047D02*
X125999999Y-126687142D01*
X125999999Y-126687142D02*
X125952380Y-126782380D01*
X125952380Y-126782380D02*
X125904761Y-126830000D01*
X125904761Y-126830000D02*
X125809523Y-126877619D01*
X125809523Y-126877619D02*
X125571428Y-126877619D01*
X125571428Y-126877619D02*
X125476190Y-126830000D01*
X125476190Y-126830000D02*
X125428571Y-126782380D01*
X126285714Y-125877619D02*
X126619047Y-126877619D01*
X126619047Y-126877619D02*
X126952380Y-125877619D01*
X127238095Y-126591904D02*
X127714285Y-126591904D01*
X127142857Y-126877619D02*
X127476190Y-125877619D01*
X127476190Y-125877619D02*
X127809523Y-126877619D01*
D11*
D12*
X115095238Y-66877619D02*
X115428571Y-67877619D01*
X115428571Y-67877619D02*
X115761904Y-66877619D01*
X116095238Y-67496666D02*
X116857143Y-67496666D01*
X116476190Y-67877619D02*
X116476190Y-67115714D01*
D11*
D12*
X125761904Y-84925238D02*
X125666666Y-84877619D01*
X125666666Y-84877619D02*
X125523809Y-84877619D01*
X125523809Y-84877619D02*
X125380952Y-84925238D01*
X125380952Y-84925238D02*
X125285714Y-85020476D01*
X125285714Y-85020476D02*
X125238095Y-85115714D01*
X125238095Y-85115714D02*
X125190476Y-85306190D01*
X125190476Y-85306190D02*
X125190476Y-85449047D01*
X125190476Y-85449047D02*
X125238095Y-85639523D01*
X125238095Y-85639523D02*
X125285714Y-85734761D01*
X125285714Y-85734761D02*
X125380952Y-85830000D01*
X125380952Y-85830000D02*
X125523809Y-85877619D01*
X125523809Y-85877619D02*
X125619047Y-85877619D01*
X125619047Y-85877619D02*
X125761904Y-85830000D01*
X125761904Y-85830000D02*
X125809523Y-85782380D01*
X125809523Y-85782380D02*
X125809523Y-85449047D01*
X125809523Y-85449047D02*
X125619047Y-85449047D01*
X126238095Y-85877619D02*
X126238095Y-84877619D01*
X126238095Y-84877619D02*
X126809523Y-85877619D01*
X126809523Y-85877619D02*
X126809523Y-84877619D01*
X127285714Y-85877619D02*
X127285714Y-84877619D01*
X127285714Y-84877619D02*
X127523809Y-84877619D01*
X127523809Y-84877619D02*
X127666666Y-84925238D01*
X127666666Y-84925238D02*
X127761904Y-85020476D01*
X127761904Y-85020476D02*
X127809523Y-85115714D01*
X127809523Y-85115714D02*
X127857142Y-85306190D01*
X127857142Y-85306190D02*
X127857142Y-85449047D01*
X127857142Y-85449047D02*
X127809523Y-85639523D01*
X127809523Y-85639523D02*
X127761904Y-85734761D01*
X127761904Y-85734761D02*
X127666666Y-85830000D01*
X127666666Y-85830000D02*
X127523809Y-85877619D01*
X127523809Y-85877619D02*
X127285714Y-85877619D01*
X128857142Y-85877619D02*
X128523809Y-85401428D01*
X128285714Y-85877619D02*
X128285714Y-84877619D01*
X128285714Y-84877619D02*
X128666666Y-84877619D01*
X128666666Y-84877619D02*
X128761904Y-84925238D01*
X128761904Y-84925238D02*
X128809523Y-84972857D01*
X128809523Y-84972857D02*
X128857142Y-85068095D01*
X128857142Y-85068095D02*
X128857142Y-85210952D01*
X128857142Y-85210952D02*
X128809523Y-85306190D01*
X128809523Y-85306190D02*
X128761904Y-85353809D01*
X128761904Y-85353809D02*
X128666666Y-85401428D01*
X128666666Y-85401428D02*
X128285714Y-85401428D01*
X129285714Y-85353809D02*
X129619047Y-85353809D01*
X129761904Y-85877619D02*
X129285714Y-85877619D01*
X129285714Y-85877619D02*
X129285714Y-84877619D01*
X129285714Y-84877619D02*
X129761904Y-84877619D01*
X130523809Y-85353809D02*
X130190476Y-85353809D01*
X130190476Y-85877619D02*
X130190476Y-84877619D01*
X130190476Y-84877619D02*
X130666666Y-84877619D01*
D11*
D12*
X146238095Y-102496666D02*
X147000000Y-102496666D01*
X146619047Y-102877619D02*
X146619047Y-102115714D01*
X147999999Y-102877619D02*
X147428571Y-102877619D01*
X147714285Y-102877619D02*
X147714285Y-101877619D01*
X147714285Y-101877619D02*
X147619047Y-102020476D01*
X147619047Y-102020476D02*
X147523809Y-102115714D01*
X147523809Y-102115714D02*
X147428571Y-102163333D01*
X148380952Y-101972857D02*
X148428571Y-101925238D01*
X148428571Y-101925238D02*
X148523809Y-101877619D01*
X148523809Y-101877619D02*
X148761904Y-101877619D01*
X148761904Y-101877619D02*
X148857142Y-101925238D01*
X148857142Y-101925238D02*
X148904761Y-101972857D01*
X148904761Y-101972857D02*
X148952380Y-102068095D01*
X148952380Y-102068095D02*
X148952380Y-102163333D01*
X148952380Y-102163333D02*
X148904761Y-102306190D01*
X148904761Y-102306190D02*
X148333333Y-102877619D01*
X148333333Y-102877619D02*
X148952380Y-102877619D01*
X149238095Y-101877619D02*
X149571428Y-102877619D01*
X149571428Y-102877619D02*
X149904761Y-101877619D01*
D11*
D12*
X196238095Y-107496666D02*
X197000000Y-107496666D01*
X197952380Y-106877619D02*
X197476190Y-106877619D01*
X197476190Y-106877619D02*
X197428571Y-107353809D01*
X197428571Y-107353809D02*
X197476190Y-107306190D01*
X197476190Y-107306190D02*
X197571428Y-107258571D01*
X197571428Y-107258571D02*
X197809523Y-107258571D01*
X197809523Y-107258571D02*
X197904761Y-107306190D01*
X197904761Y-107306190D02*
X197952380Y-107353809D01*
X197952380Y-107353809D02*
X197999999Y-107449047D01*
X197999999Y-107449047D02*
X197999999Y-107687142D01*
X197999999Y-107687142D02*
X197952380Y-107782380D01*
X197952380Y-107782380D02*
X197904761Y-107830000D01*
X197904761Y-107830000D02*
X197809523Y-107877619D01*
X197809523Y-107877619D02*
X197571428Y-107877619D01*
X197571428Y-107877619D02*
X197476190Y-107830000D01*
X197476190Y-107830000D02*
X197428571Y-107782380D01*
X198285714Y-106877619D02*
X198619047Y-107877619D01*
X198619047Y-107877619D02*
X198952380Y-106877619D01*
D13*
D14*
X171014285Y-154273571D02*
X170942857Y-154345000D01*
X170942857Y-154345000D02*
X170728571Y-154416428D01*
X170728571Y-154416428D02*
X170585714Y-154416428D01*
X170585714Y-154416428D02*
X170371428Y-154345000D01*
X170371428Y-154345000D02*
X170228571Y-154202142D01*
X170228571Y-154202142D02*
X170157142Y-154059285D01*
X170157142Y-154059285D02*
X170085714Y-153773571D01*
X170085714Y-153773571D02*
X170085714Y-153559285D01*
X170085714Y-153559285D02*
X170157142Y-153273571D01*
X170157142Y-153273571D02*
X170228571Y-153130714D01*
X170228571Y-153130714D02*
X170371428Y-152987857D01*
X170371428Y-152987857D02*
X170585714Y-152916428D01*
X170585714Y-152916428D02*
X170728571Y-152916428D01*
X170728571Y-152916428D02*
X170942857Y-152987857D01*
X170942857Y-152987857D02*
X171014285Y-153059285D01*
X171514285Y-152916428D02*
X171871428Y-154416428D01*
X171871428Y-154416428D02*
X172157142Y-153345000D01*
X172157142Y-153345000D02*
X172442857Y-154416428D01*
X172442857Y-154416428D02*
X172800000Y-152916428D01*
X173371428Y-153845000D02*
X174514286Y-153845000D01*
X175157143Y-153987857D02*
X175871429Y-153987857D01*
X175014286Y-154416428D02*
X175514286Y-152916428D01*
X175514286Y-152916428D02*
X176014286Y-154416428D01*
X176514285Y-154416428D02*
X176514285Y-152916428D01*
X176514285Y-152916428D02*
X177014285Y-153987857D01*
X177014285Y-153987857D02*
X177514285Y-152916428D01*
X177514285Y-152916428D02*
X177514285Y-154416428D01*
X178228571Y-154416428D02*
X178228571Y-152916428D01*
X178228571Y-152916428D02*
X178800000Y-152916428D01*
X178800000Y-152916428D02*
X178942857Y-152987857D01*
X178942857Y-152987857D02*
X179014286Y-153059285D01*
X179014286Y-153059285D02*
X179085714Y-153202142D01*
X179085714Y-153202142D02*
X179085714Y-153416428D01*
X179085714Y-153416428D02*
X179014286Y-153559285D01*
X179014286Y-153559285D02*
X178942857Y-153630714D01*
X178942857Y-153630714D02*
X178800000Y-153702142D01*
X178800000Y-153702142D02*
X178228571Y-153702142D01*
X180800000Y-154345000D02*
X181014286Y-154416428D01*
X181014286Y-154416428D02*
X181371428Y-154416428D01*
X181371428Y-154416428D02*
X181514286Y-154345000D01*
X181514286Y-154345000D02*
X181585714Y-154273571D01*
X181585714Y-154273571D02*
X181657143Y-154130714D01*
X181657143Y-154130714D02*
X181657143Y-153987857D01*
X181657143Y-153987857D02*
X181585714Y-153845000D01*
X181585714Y-153845000D02*
X181514286Y-153773571D01*
X181514286Y-153773571D02*
X181371428Y-153702142D01*
X181371428Y-153702142D02*
X181085714Y-153630714D01*
X181085714Y-153630714D02*
X180942857Y-153559285D01*
X180942857Y-153559285D02*
X180871428Y-153487857D01*
X180871428Y-153487857D02*
X180800000Y-153345000D01*
X180800000Y-153345000D02*
X180800000Y-153202142D01*
X180800000Y-153202142D02*
X180871428Y-153059285D01*
X180871428Y-153059285D02*
X180942857Y-152987857D01*
X180942857Y-152987857D02*
X181085714Y-152916428D01*
X181085714Y-152916428D02*
X181442857Y-152916428D01*
X181442857Y-152916428D02*
X181657143Y-152987857D01*
X182942857Y-153416428D02*
X182942857Y-154416428D01*
X182299999Y-153416428D02*
X182299999Y-154202142D01*
X182299999Y-154202142D02*
X182371428Y-154345000D01*
X182371428Y-154345000D02*
X182514285Y-154416428D01*
X182514285Y-154416428D02*
X182728571Y-154416428D01*
X182728571Y-154416428D02*
X182871428Y-154345000D01*
X182871428Y-154345000D02*
X182942857Y-154273571D01*
X183657142Y-153416428D02*
X183657142Y-154916428D01*
X183657142Y-153487857D02*
X183800000Y-153416428D01*
X183800000Y-153416428D02*
X184085714Y-153416428D01*
X184085714Y-153416428D02*
X184228571Y-153487857D01*
X184228571Y-153487857D02*
X184300000Y-153559285D01*
X184300000Y-153559285D02*
X184371428Y-153702142D01*
X184371428Y-153702142D02*
X184371428Y-154130714D01*
X184371428Y-154130714D02*
X184300000Y-154273571D01*
X184300000Y-154273571D02*
X184228571Y-154345000D01*
X184228571Y-154345000D02*
X184085714Y-154416428D01*
X184085714Y-154416428D02*
X183800000Y-154416428D01*
X183800000Y-154416428D02*
X183657142Y-154345000D01*
X185014285Y-153416428D02*
X185014285Y-154916428D01*
X185014285Y-153487857D02*
X185157143Y-153416428D01*
X185157143Y-153416428D02*
X185442857Y-153416428D01*
X185442857Y-153416428D02*
X185585714Y-153487857D01*
X185585714Y-153487857D02*
X185657143Y-153559285D01*
X185657143Y-153559285D02*
X185728571Y-153702142D01*
X185728571Y-153702142D02*
X185728571Y-154130714D01*
X185728571Y-154130714D02*
X185657143Y-154273571D01*
X185657143Y-154273571D02*
X185585714Y-154345000D01*
X185585714Y-154345000D02*
X185442857Y-154416428D01*
X185442857Y-154416428D02*
X185157143Y-154416428D01*
X185157143Y-154416428D02*
X185014285Y-154345000D01*
X186585714Y-154416428D02*
X186442857Y-154345000D01*
X186442857Y-154345000D02*
X186371428Y-154202142D01*
X186371428Y-154202142D02*
X186371428Y-152916428D01*
X187014285Y-153416428D02*
X187371428Y-154416428D01*
X187728571Y-153416428D02*
X187371428Y-154416428D01*
X187371428Y-154416428D02*
X187228571Y-154773571D01*
X187228571Y-154773571D02*
X187157142Y-154845000D01*
X187157142Y-154845000D02*
X187014285Y-154916428D01*
X189228571Y-152916428D02*
X189728571Y-154416428D01*
X189728571Y-154416428D02*
X190228571Y-152916428D01*
X191514285Y-154416428D02*
X190657142Y-154416428D01*
X191085713Y-154416428D02*
X191085713Y-152916428D01*
X191085713Y-152916428D02*
X190942856Y-153130714D01*
X190942856Y-153130714D02*
X190799999Y-153273571D01*
X190799999Y-153273571D02*
X190657142Y-153345000D01*
X192157141Y-154273571D02*
X192228570Y-154345000D01*
X192228570Y-154345000D02*
X192157141Y-154416428D01*
X192157141Y-154416428D02*
X192085713Y-154345000D01*
X192085713Y-154345000D02*
X192157141Y-154273571D01*
X192157141Y-154273571D02*
X192157141Y-154416428D01*
X192728570Y-152916428D02*
X193657142Y-152916428D01*
X193657142Y-152916428D02*
X193157142Y-153487857D01*
X193157142Y-153487857D02*
X193371427Y-153487857D01*
X193371427Y-153487857D02*
X193514285Y-153559285D01*
X193514285Y-153559285D02*
X193585713Y-153630714D01*
X193585713Y-153630714D02*
X193657142Y-153773571D01*
X193657142Y-153773571D02*
X193657142Y-154130714D01*
X193657142Y-154130714D02*
X193585713Y-154273571D01*
X193585713Y-154273571D02*
X193514285Y-154345000D01*
X193514285Y-154345000D02*
X193371427Y-154416428D01*
X193371427Y-154416428D02*
X192942856Y-154416428D01*
X192942856Y-154416428D02*
X192799999Y-154345000D01*
X192799999Y-154345000D02*
X192728570Y-154273571D01*
D11*
D12*
X124238095Y-144496666D02*
X125000000Y-144496666D01*
X124619047Y-144877619D02*
X124619047Y-144115714D01*
X125952380Y-143877619D02*
X125476190Y-143877619D01*
X125476190Y-143877619D02*
X125428571Y-144353809D01*
X125428571Y-144353809D02*
X125476190Y-144306190D01*
X125476190Y-144306190D02*
X125571428Y-144258571D01*
X125571428Y-144258571D02*
X125809523Y-144258571D01*
X125809523Y-144258571D02*
X125904761Y-144306190D01*
X125904761Y-144306190D02*
X125952380Y-144353809D01*
X125952380Y-144353809D02*
X125999999Y-144449047D01*
X125999999Y-144449047D02*
X125999999Y-144687142D01*
X125999999Y-144687142D02*
X125952380Y-144782380D01*
X125952380Y-144782380D02*
X125904761Y-144830000D01*
X125904761Y-144830000D02*
X125809523Y-144877619D01*
X125809523Y-144877619D02*
X125571428Y-144877619D01*
X125571428Y-144877619D02*
X125476190Y-144830000D01*
X125476190Y-144830000D02*
X125428571Y-144782380D01*
X126285714Y-143877619D02*
X126619047Y-144877619D01*
X126619047Y-144877619D02*
X126952380Y-143877619D01*
X127238095Y-144591904D02*
X127714285Y-144591904D01*
X127142857Y-144877619D02*
X127476190Y-143877619D01*
X127476190Y-143877619D02*
X127809523Y-144877619D01*
D15*
X110550000Y-71417677D03*
D16*
X112000000Y-71417677D03*
D17*
X115175000Y-80717677D03*
X115175000Y-81987677D03*
X115175000Y-83257677D03*
X115175000Y-84527677D03*
X107775000Y-84527677D03*
X107775000Y-80717677D03*
X107775000Y-81987677D03*
X107775000Y-83257677D03*
D18*
X100000000Y-75460177D03*
D19*
X94000000Y-75460177D03*
D20*
X97000000Y-80160177D03*
D21*
X101137500Y-86967677D03*
X101137500Y-87917677D03*
X101137500Y-88867677D03*
X103412500Y-88867677D03*
X103412500Y-87917677D03*
X103412500Y-86967677D03*
D22*
X181000000Y-94000000D03*
D23*
X186000000Y-94000000D03*
D24*
X103000000Y-126000000D03*
D25*
X103000000Y-128000000D03*
D24*
X113000000Y-125840000D03*
D26*
X113000000Y-128380000D03*
X113000000Y-133460000D03*
X113000000Y-136000000D03*
X113000000Y-138540000D03*
D27*
X152000000Y-91920000D03*
D28*
X152000000Y-94460000D03*
X152000000Y-97000000D03*
D24*
X150000000Y-73920000D03*
D25*
X148000000Y-73920000D03*
D29*
X123300000Y-73950000D03*
D30*
X123300000Y-78950000D03*
D22*
X181000000Y-108000000D03*
D23*
X186000000Y-108000000D03*
D29*
X139000000Y-73920000D03*
D30*
X139000000Y-78920000D03*
D29*
X179000000Y-79000000D03*
D31*
X179000000Y-84080000D03*
D32*
X185000000Y-78300000D03*
D33*
X185000000Y-80000000D03*
X185000000Y-81700000D03*
X185000000Y-83400000D03*
X185000000Y-85100000D03*
D15*
X110550000Y-73917677D03*
D16*
X112000000Y-73917677D03*
D34*
X103225000Y-84917677D03*
X101150000Y-84917677D03*
D35*
X97275000Y-88955177D03*
X97275000Y-86880177D03*
D22*
X189000000Y-68000000D03*
D23*
X184000000Y-68000000D03*
D24*
X145000000Y-98920000D03*
D25*
X145000000Y-96920000D03*
D36*
X173000000Y-69300000D03*
D37*
X173000000Y-94700000D03*
D24*
X145000000Y-89920000D03*
D25*
X145000000Y-91920000D03*
D36*
X155700000Y-65920000D03*
D37*
X130300000Y-65920000D03*
D24*
X118000000Y-133000000D03*
D25*
X118000000Y-131000000D03*
D24*
X118000000Y-141000000D03*
D25*
X118000000Y-139000000D03*
D38*
X131655000Y-150460000D03*
X156655000Y-150460000D03*
D24*
X138615000Y-150160000D03*
D25*
X141385000Y-150160000D03*
X144155000Y-150160000D03*
X146925000Y-150160000D03*
X149695000Y-150160000D03*
X140000000Y-153000000D03*
X142770000Y-153000000D03*
X145540000Y-153000000D03*
X148310000Y-153000000D03*
D39*
X123000000Y-85000000D03*
X128000000Y-136000000D03*
D15*
X110550000Y-76417677D03*
D16*
X112000000Y-76417677D03*
D40*
X97800000Y-62000000D03*
D41*
X114000000Y-68000000D03*
D40*
X201100000Y-62800000D03*
D41*
X195000000Y-108000000D03*
D30*
X151500000Y-82920000D03*
X146500000Y-82920000D03*
D41*
X123000000Y-145000000D03*
D27*
X133000000Y-91920000D03*
D28*
X133000000Y-94460000D03*
X133000000Y-97000000D03*
D40*
X200400000Y-150500000D03*
D41*
X145000000Y-102920000D03*
X123000000Y-127300000D03*
D42*
X123600000Y-114150000D03*
X155700000Y-59950000D03*
X116300000Y-73917677D03*
X128700000Y-112650000D03*
X121400000Y-69700000D03*
X126900000Y-83000000D03*
X133400000Y-118100000D03*
X141450000Y-145700000D03*
X123050000Y-143050000D03*
X123000000Y-128900000D03*
X104100000Y-73917677D03*
X191100000Y-108000000D03*
X191950000Y-81000000D03*
X97300000Y-85117677D03*
X132900000Y-85950000D03*
X145000000Y-127200000D03*
X144150000Y-145650000D03*
X141600000Y-98950000D03*
D43*
X100100000Y-86967677D02*
X99900000Y-86767677D01*
X101137500Y-86967677D02*
X100100000Y-86967677D01*
X99900000Y-86767677D02*
X99900000Y-85267677D01*
X101150000Y-84917677D02*
X100250000Y-84917677D01*
X100250000Y-84917677D02*
X99900000Y-85267677D01*
D44*
X115000000Y-73917677D02*
X116300000Y-73917677D01*
X118200000Y-75817677D02*
X116300000Y-73917677D01*
D45*
X125100000Y-112650000D02*
X123600000Y-114150000D01*
D44*
X115175000Y-84527677D02*
X112140000Y-84527677D01*
D46*
X112000000Y-76417677D02*
X112700000Y-76417677D01*
D44*
X126900000Y-70550000D02*
X126900000Y-83000000D01*
X118200000Y-80667677D02*
X118200000Y-75817677D01*
X117490000Y-84527677D02*
X118200000Y-83817677D01*
X118150000Y-80717677D02*
X118200000Y-80667677D01*
X121400000Y-69700000D02*
X126050000Y-69700000D01*
D45*
X128700000Y-112650000D02*
X125100000Y-112650000D01*
D44*
X115000000Y-73917677D02*
X115000000Y-75517677D01*
X118180000Y-81987677D02*
X118200000Y-81967677D01*
X114000000Y-71417677D02*
X114000000Y-68000000D01*
X114100000Y-76417677D02*
X112700000Y-76417677D01*
D46*
X103412500Y-88867677D02*
X105000000Y-88867677D01*
X112000000Y-73917677D02*
X112700000Y-73917677D01*
D44*
X115000000Y-72417677D02*
X115000000Y-73917677D01*
X126050000Y-69700000D02*
X126900000Y-70550000D01*
X112140000Y-84527677D02*
X107800000Y-88867677D01*
X115175000Y-80717677D02*
X118150000Y-80717677D01*
X107800000Y-88867677D02*
X105000000Y-88867677D01*
X118200000Y-83817677D02*
X118200000Y-83217677D01*
X112700000Y-71417677D02*
X114000000Y-71417677D01*
X115175000Y-83257677D02*
X118160000Y-83257677D01*
X115175000Y-84527677D02*
X117490000Y-84527677D01*
X155700000Y-65920000D02*
X155700000Y-59950000D01*
X115000000Y-73917677D02*
X112700000Y-73917677D01*
D46*
X112000000Y-71417677D02*
X112700000Y-71417677D01*
D44*
X118200000Y-81967677D02*
X118200000Y-80667677D01*
X115000000Y-72417677D02*
X114000000Y-71417677D01*
X118200000Y-83217677D02*
X118200000Y-81967677D01*
X115175000Y-81987677D02*
X118180000Y-81987677D01*
X118160000Y-83257677D02*
X118200000Y-83217677D01*
X115000000Y-75517677D02*
X114100000Y-76417677D01*
D45*
X133400000Y-118100000D02*
X140350000Y-125050000D01*
X140350000Y-125050000D02*
X141450000Y-126150000D01*
X141450000Y-126150000D02*
X141450000Y-145700000D01*
X123050000Y-144950000D02*
X123000000Y-145000000D01*
X123050000Y-143050000D02*
X123050000Y-144950000D01*
X123000000Y-128900000D02*
X123000000Y-127300000D01*
D43*
X103225000Y-84917677D02*
X103225000Y-82642677D01*
D44*
X107300000Y-73917677D02*
X110550000Y-73917677D01*
D43*
X105470000Y-81987677D02*
X105400000Y-81917677D01*
X104100000Y-79417677D02*
X104100000Y-73917677D01*
X103412500Y-86967677D02*
X104150000Y-86967677D01*
D44*
X107300000Y-73917677D02*
X107300000Y-75317677D01*
X108300000Y-71417677D02*
X107300000Y-72417677D01*
D43*
X99200000Y-88955177D02*
X101050000Y-88955177D01*
X100650000Y-82617677D02*
X99200000Y-84067677D01*
D44*
X110550000Y-71417677D02*
X108300000Y-71417677D01*
D43*
X105400000Y-81917677D02*
X105400000Y-82617677D01*
X105400000Y-80717677D02*
X105400000Y-81917677D01*
X105400000Y-80717677D02*
X104100000Y-79417677D01*
X104700000Y-85367677D02*
X104250000Y-84917677D01*
X97275000Y-88955177D02*
X99200000Y-88955177D01*
D44*
X107300000Y-72417677D02*
X107300000Y-73917677D01*
D43*
X103225000Y-84917677D02*
X104250000Y-84917677D01*
X107775000Y-80717677D02*
X105400000Y-80717677D01*
X107775000Y-81987677D02*
X105470000Y-81987677D01*
X105400000Y-82617677D02*
X103250000Y-82617677D01*
X104150000Y-86967677D02*
X104700000Y-86417677D01*
X103225000Y-82642677D02*
X103250000Y-82617677D01*
X105400000Y-82617677D02*
X106040000Y-83257677D01*
X104700000Y-86417677D02*
X104700000Y-85367677D01*
X101050000Y-88955177D02*
X101137500Y-88867677D01*
X99200000Y-84067677D02*
X99200000Y-88955177D01*
D44*
X108400000Y-76417677D02*
X110550000Y-76417677D01*
D43*
X106040000Y-83257677D02*
X107775000Y-83257677D01*
D44*
X107300000Y-75317677D02*
X108400000Y-76417677D01*
X107300000Y-73917677D02*
X104100000Y-73917677D01*
D43*
X103250000Y-82617677D02*
X100650000Y-82617677D01*
D45*
X191100000Y-108000000D02*
X195000000Y-108000000D01*
D46*
X101600000Y-90517677D02*
X95500000Y-90517677D01*
X102300000Y-89817677D02*
X101600000Y-90517677D01*
D45*
X177950000Y-97250000D02*
X181000000Y-97250000D01*
D46*
X102300000Y-88417677D02*
X102300000Y-89817677D01*
X95000000Y-90017677D02*
X95000000Y-87717677D01*
D45*
X189350000Y-97250000D02*
X191950000Y-94650000D01*
X173000000Y-94700000D02*
X175400000Y-94700000D01*
D46*
X95000000Y-87717677D02*
X95837500Y-86880177D01*
D45*
X175400000Y-94700000D02*
X177950000Y-97250000D01*
X97275000Y-86880177D02*
X97275000Y-85142677D01*
D46*
X101137500Y-87917677D02*
X101800000Y-87917677D01*
X101800000Y-87917677D02*
X102300000Y-88417677D01*
D45*
X181000000Y-97250000D02*
X189350000Y-97250000D01*
X191950000Y-94650000D02*
X191950000Y-81000000D01*
X97275000Y-85142677D02*
X97300000Y-85117677D01*
D46*
X95500000Y-90517677D02*
X95000000Y-90017677D01*
X95837500Y-86880177D02*
X97275000Y-86880177D01*
D45*
X143720000Y-102920000D02*
X145000000Y-102920000D01*
X145000000Y-127200000D02*
X145000000Y-144800000D01*
X141600000Y-100800000D02*
X143720000Y-102920000D01*
X141600000Y-98950000D02*
X141600000Y-100800000D01*
X137050000Y-85950000D02*
X132900000Y-85950000D01*
X141600000Y-98950000D02*
X141600000Y-95200000D01*
X141600000Y-90500000D02*
X137050000Y-85950000D01*
X141600000Y-95200000D02*
X141600000Y-90500000D01*
X145000000Y-144800000D02*
X144150000Y-145650000D01*
D43*
X106190000Y-84527677D02*
X107775000Y-84527677D01*
X103412500Y-87917677D02*
X104500000Y-87917677D01*
X105400000Y-87017677D02*
X105400000Y-85317677D01*
X104500000Y-87917677D02*
X105400000Y-87017677D01*
X105400000Y-85317677D02*
X106190000Y-84527677D01*
G04 #@! TA.AperFunction,Conductor*
G36*
X154783697Y-59019685D02*
G01*
X154829452Y-59072489D01*
X154839396Y-59141647D01*
X154815612Y-59198727D01*
X154710803Y-59337516D01*
X154615101Y-59529710D01*
X154556346Y-59736211D01*
X154536537Y-59949999D01*
X154556346Y-60163788D01*
X154615101Y-60370288D01*
X154678500Y-60497608D01*
X154691500Y-60552880D01*
X154691500Y-64608857D01*
X154671815Y-64675896D01*
X154648032Y-64703147D01*
X154559101Y-64779102D01*
X154394671Y-64971625D01*
X154262385Y-65187496D01*
X154165494Y-65421409D01*
X154106391Y-65667595D01*
X154086526Y-65920000D01*
X154106391Y-66172404D01*
X154165494Y-66418590D01*
X154173012Y-66436739D01*
X154262384Y-66652502D01*
X154394672Y-66868376D01*
X154559102Y-67060898D01*
X154751624Y-67225328D01*
X154967498Y-67357616D01*
X155201409Y-67454505D01*
X155447597Y-67513609D01*
X155700000Y-67533474D01*
X155952403Y-67513609D01*
X156198591Y-67454505D01*
X156432502Y-67357616D01*
X156648376Y-67225328D01*
X156840898Y-67060898D01*
X157005328Y-66868376D01*
X157137616Y-66652502D01*
X157234505Y-66418591D01*
X157293609Y-66172403D01*
X157313474Y-65920000D01*
X157293609Y-65667597D01*
X157234505Y-65421409D01*
X157137616Y-65187498D01*
X157005328Y-64971624D01*
X156840898Y-64779102D01*
X156840898Y-64779101D01*
X156751968Y-64703147D01*
X156713775Y-64644639D01*
X156708500Y-64608857D01*
X156708500Y-62800000D01*
X199594356Y-62800000D01*
X199614891Y-63047816D01*
X199614891Y-63047819D01*
X199614892Y-63047821D01*
X199675937Y-63288881D01*
X199715392Y-63378829D01*
X199775825Y-63516604D01*
X199775827Y-63516607D01*
X199911836Y-63724785D01*
X200080256Y-63907738D01*
X200080259Y-63907740D01*
X200276485Y-64060470D01*
X200276487Y-64060471D01*
X200276491Y-64060474D01*
X200495190Y-64178828D01*
X200730386Y-64259571D01*
X200975665Y-64300500D01*
X201224335Y-64300500D01*
X201469614Y-64259571D01*
X201704810Y-64178828D01*
X201923509Y-64060474D01*
X202119744Y-63907738D01*
X202288164Y-63724785D01*
X202424173Y-63516607D01*
X202524063Y-63288881D01*
X202585108Y-63047821D01*
X202605643Y-62800000D01*
X202585108Y-62552179D01*
X202524063Y-62311119D01*
X202424173Y-62083393D01*
X202288164Y-61875215D01*
X202119744Y-61692262D01*
X202097612Y-61675036D01*
X201923514Y-61539529D01*
X201923510Y-61539526D01*
X201923509Y-61539526D01*
X201704810Y-61421172D01*
X201704806Y-61421170D01*
X201704805Y-61421170D01*
X201469615Y-61340429D01*
X201224335Y-61299500D01*
X200975665Y-61299500D01*
X200730384Y-61340429D01*
X200495194Y-61421170D01*
X200276485Y-61539529D01*
X200080259Y-61692259D01*
X199911837Y-61875214D01*
X199775825Y-62083395D01*
X199675938Y-62311117D01*
X199614891Y-62552183D01*
X199594356Y-62800000D01*
X156708500Y-62800000D01*
X156708500Y-60552880D01*
X156721500Y-60497608D01*
X156784898Y-60370288D01*
X156843653Y-60163788D01*
X156846525Y-60132785D01*
X156863463Y-59950000D01*
X156843653Y-59736214D01*
X156843653Y-59736211D01*
X156784898Y-59529710D01*
X156689196Y-59337516D01*
X156584388Y-59198727D01*
X156559696Y-59133365D01*
X156574261Y-59065031D01*
X156623459Y-59015418D01*
X156683342Y-59000000D01*
X205876000Y-59000000D01*
X205943039Y-59019685D01*
X205988794Y-59072489D01*
X206000000Y-59124000D01*
X206000000Y-156876000D01*
X205980315Y-156943039D01*
X205927511Y-156988794D01*
X205876000Y-157000000D01*
X91124000Y-157000000D01*
X91056961Y-156980315D01*
X91011206Y-156927511D01*
X91000000Y-156876000D01*
X91000000Y-153000000D01*
X138686501Y-153000000D01*
X138706456Y-153228084D01*
X138706457Y-153228087D01*
X138764934Y-153446326D01*
X138765717Y-153449246D01*
X138862474Y-153656744D01*
X138862476Y-153656746D01*
X138862477Y-153656749D01*
X138993802Y-153844300D01*
X139155700Y-154006198D01*
X139343251Y-154137523D01*
X139550757Y-154234284D01*
X139771913Y-154293543D01*
X139902479Y-154304966D01*
X139999999Y-154313498D01*
X139999999Y-154313497D01*
X140000000Y-154313498D01*
X140228087Y-154293543D01*
X140449243Y-154234284D01*
X140656749Y-154137523D01*
X140844300Y-154006198D01*
X141006198Y-153844300D01*
X141137523Y-153656749D01*
X141234284Y-153449243D01*
X141265225Y-153333767D01*
X141301590Y-153274109D01*
X141364437Y-153243580D01*
X141433813Y-153251875D01*
X141487691Y-153296360D01*
X141504774Y-153333766D01*
X141535716Y-153449243D01*
X141535717Y-153449246D01*
X141632474Y-153656744D01*
X141632476Y-153656746D01*
X141632477Y-153656749D01*
X141763802Y-153844300D01*
X141925700Y-154006198D01*
X142113251Y-154137523D01*
X142320757Y-154234284D01*
X142541913Y-154293543D01*
X142770000Y-154313498D01*
X142998087Y-154293543D01*
X143219243Y-154234284D01*
X143426749Y-154137523D01*
X143614300Y-154006198D01*
X143776198Y-153844300D01*
X143907523Y-153656749D01*
X144004284Y-153449243D01*
X144035225Y-153333767D01*
X144071590Y-153274109D01*
X144134437Y-153243580D01*
X144203813Y-153251875D01*
X144257691Y-153296360D01*
X144274774Y-153333766D01*
X144305716Y-153449243D01*
X144305717Y-153449246D01*
X144402474Y-153656744D01*
X144402476Y-153656746D01*
X144402477Y-153656749D01*
X144533802Y-153844300D01*
X144695700Y-154006198D01*
X144883251Y-154137523D01*
X145090757Y-154234284D01*
X145311913Y-154293543D01*
X145540000Y-154313498D01*
X145768087Y-154293543D01*
X145989243Y-154234284D01*
X146196749Y-154137523D01*
X146384300Y-154006198D01*
X146546198Y-153844300D01*
X146677523Y-153656749D01*
X146774284Y-153449243D01*
X146809625Y-153317349D01*
X146845989Y-153257691D01*
X146908836Y-153227162D01*
X146978212Y-153235457D01*
X147032090Y-153279942D01*
X147049174Y-153317351D01*
X147083733Y-153446326D01*
X147179866Y-153652484D01*
X147230972Y-153725471D01*
X147230974Y-153725472D01*
X147826922Y-153129523D01*
X147850507Y-153209844D01*
X147928239Y-153330798D01*
X148036900Y-153424952D01*
X148167685Y-153484680D01*
X148177466Y-153486086D01*
X147584526Y-154079025D01*
X147584526Y-154079026D01*
X147657515Y-154130133D01*
X147863673Y-154226266D01*
X148083397Y-154285141D01*
X148310000Y-154304966D01*
X148536602Y-154285141D01*
X148756326Y-154226266D01*
X148962480Y-154130134D01*
X149035472Y-154079025D01*
X148442534Y-153486086D01*
X148452315Y-153484680D01*
X148583100Y-153424952D01*
X148691761Y-153330798D01*
X148769493Y-153209844D01*
X148793076Y-153129523D01*
X149389025Y-153725472D01*
X149440134Y-153652480D01*
X149536266Y-153446326D01*
X149595141Y-153226602D01*
X149614966Y-153000000D01*
X149595141Y-152773397D01*
X149536266Y-152553673D01*
X149440133Y-152347515D01*
X149389025Y-152274526D01*
X148793076Y-152870475D01*
X148769493Y-152790156D01*
X148691761Y-152669202D01*
X148583100Y-152575048D01*
X148452315Y-152515320D01*
X148442533Y-152513913D01*
X149035472Y-151920974D01*
X149035471Y-151920972D01*
X148962484Y-151869866D01*
X148756326Y-151773733D01*
X148536602Y-151714858D01*
X148309999Y-151695033D01*
X148083397Y-151714858D01*
X147863672Y-151773733D01*
X147657516Y-151869865D01*
X147584527Y-151920973D01*
X147584526Y-151920973D01*
X148177467Y-152513913D01*
X148167685Y-152515320D01*
X148036900Y-152575048D01*
X147928239Y-152669202D01*
X147850507Y-152790156D01*
X147826923Y-152870476D01*
X147230973Y-152274526D01*
X147230973Y-152274527D01*
X147179865Y-152347516D01*
X147083733Y-152553673D01*
X147049174Y-152682648D01*
X147012808Y-152742308D01*
X146949961Y-152772837D01*
X146880586Y-152764542D01*
X146826708Y-152720056D01*
X146809624Y-152682648D01*
X146805225Y-152666230D01*
X146774284Y-152550757D01*
X146702425Y-152396654D01*
X146677525Y-152343255D01*
X146677524Y-152343254D01*
X146677523Y-152343251D01*
X146546198Y-152155700D01*
X146384300Y-151993802D01*
X146196749Y-151862477D01*
X146196746Y-151862476D01*
X146196744Y-151862474D01*
X145989246Y-151765717D01*
X145989243Y-151765716D01*
X145799440Y-151714858D01*
X145768084Y-151706456D01*
X145539999Y-151686501D01*
X145311915Y-151706456D01*
X145090753Y-151765717D01*
X144883255Y-151862474D01*
X144695696Y-151993805D01*
X144533805Y-152155696D01*
X144533802Y-152155699D01*
X144533802Y-152155700D01*
X144514514Y-152183246D01*
X144402474Y-152343255D01*
X144305717Y-152550753D01*
X144274775Y-152666230D01*
X144238410Y-152725890D01*
X144175562Y-152756419D01*
X144106187Y-152748124D01*
X144052309Y-152703639D01*
X144035225Y-152666230D01*
X144029924Y-152646446D01*
X144004284Y-152550757D01*
X143932425Y-152396654D01*
X143907525Y-152343255D01*
X143907524Y-152343254D01*
X143907523Y-152343251D01*
X143776198Y-152155700D01*
X143614300Y-151993802D01*
X143426749Y-151862477D01*
X143426746Y-151862476D01*
X143426744Y-151862474D01*
X143219246Y-151765717D01*
X143219243Y-151765716D01*
X143029440Y-151714858D01*
X142998084Y-151706456D01*
X142770000Y-151686501D01*
X142541915Y-151706456D01*
X142320753Y-151765717D01*
X142113255Y-151862474D01*
X141925696Y-151993805D01*
X141763805Y-152155696D01*
X141763802Y-152155699D01*
X141763802Y-152155700D01*
X141744514Y-152183246D01*
X141632474Y-152343255D01*
X141535717Y-152550753D01*
X141504775Y-152666230D01*
X141468410Y-152725890D01*
X141405562Y-152756419D01*
X141336187Y-152748124D01*
X141282309Y-152703639D01*
X141265225Y-152666230D01*
X141259924Y-152646446D01*
X141234284Y-152550757D01*
X141162425Y-152396654D01*
X141137525Y-152343255D01*
X141137524Y-152343254D01*
X141137523Y-152343251D01*
X141006198Y-152155700D01*
X140844300Y-151993802D01*
X140656749Y-151862477D01*
X140656746Y-151862476D01*
X140656744Y-151862474D01*
X140449246Y-151765717D01*
X140449243Y-151765716D01*
X140259440Y-151714858D01*
X140228084Y-151706456D01*
X140000000Y-151686501D01*
X139771915Y-151706456D01*
X139550753Y-151765717D01*
X139343255Y-151862474D01*
X139155696Y-151993805D01*
X138993805Y-152155696D01*
X138993802Y-152155699D01*
X138993802Y-152155700D01*
X138974514Y-152183246D01*
X138862474Y-152343255D01*
X138765717Y-152550753D01*
X138706456Y-152771915D01*
X138686501Y-153000000D01*
X91000000Y-153000000D01*
X91000000Y-150460000D01*
X129141540Y-150460000D01*
X129141785Y-150463894D01*
X129159647Y-150747816D01*
X129161359Y-150775020D01*
X129162086Y-150778832D01*
X129162088Y-150778846D01*
X129205924Y-151008638D01*
X129220505Y-151085072D01*
X129318044Y-151385266D01*
X129319701Y-151388789D01*
X129319703Y-151388792D01*
X129450779Y-151667345D01*
X129450784Y-151667354D01*
X129452438Y-151670869D01*
X129621568Y-151937375D01*
X129822767Y-152180582D01*
X130052860Y-152396654D01*
X130308221Y-152582184D01*
X130311628Y-152584057D01*
X130529145Y-152703639D01*
X130584821Y-152734247D01*
X130878298Y-152850443D01*
X131184025Y-152928940D01*
X131497179Y-152968500D01*
X131501074Y-152968500D01*
X131808926Y-152968500D01*
X131812821Y-152968500D01*
X132125975Y-152928940D01*
X132431702Y-152850443D01*
X132725179Y-152734247D01*
X133001779Y-152582184D01*
X133257140Y-152396654D01*
X133487233Y-152180582D01*
X133688432Y-151937375D01*
X133857562Y-151670869D01*
X133991956Y-151385266D01*
X134089495Y-151085072D01*
X134104076Y-151008638D01*
X137306500Y-151008638D01*
X137306852Y-151011918D01*
X137306853Y-151011924D01*
X137313011Y-151069205D01*
X137364110Y-151206203D01*
X137451738Y-151323261D01*
X137568796Y-151410889D01*
X137705794Y-151461988D01*
X137705797Y-151461988D01*
X137705799Y-151461989D01*
X137766362Y-151468500D01*
X137769672Y-151468500D01*
X139460328Y-151468500D01*
X139463638Y-151468500D01*
X139524201Y-151461989D01*
X139524203Y-151461988D01*
X139524205Y-151461988D01*
X139602124Y-151432924D01*
X139661204Y-151410889D01*
X139778261Y-151323261D01*
X139865889Y-151206204D01*
X139909686Y-151088782D01*
X139916988Y-151069205D01*
X139916988Y-151069203D01*
X139916989Y-151069201D01*
X139923500Y-151008638D01*
X139923500Y-150681303D01*
X139943185Y-150614265D01*
X139995989Y-150568510D01*
X140065147Y-150558566D01*
X140128703Y-150587591D01*
X140159882Y-150628900D01*
X140247474Y-150816744D01*
X140247476Y-150816746D01*
X140247477Y-150816749D01*
X140378802Y-151004300D01*
X140540700Y-151166198D01*
X140728251Y-151297523D01*
X140935757Y-151394284D01*
X141156913Y-151453543D01*
X141385000Y-151473498D01*
X141613087Y-151453543D01*
X141834243Y-151394284D01*
X142041749Y-151297523D01*
X142229300Y-151166198D01*
X142391198Y-151004300D01*
X142522523Y-150816749D01*
X142619284Y-150609243D01*
X142650225Y-150493767D01*
X142686590Y-150434109D01*
X142749437Y-150403580D01*
X142818813Y-150411875D01*
X142872691Y-150456360D01*
X142889774Y-150493766D01*
X142920716Y-150609243D01*
X142920717Y-150609246D01*
X143017474Y-150816744D01*
X143017476Y-150816746D01*
X143017477Y-150816749D01*
X143148802Y-151004300D01*
X143310700Y-151166198D01*
X143498251Y-151297523D01*
X143705757Y-151394284D01*
X143926913Y-151453543D01*
X144057479Y-151464966D01*
X144154999Y-151473498D01*
X144154999Y-151473497D01*
X144155000Y-151473498D01*
X144383087Y-151453543D01*
X144604243Y-151394284D01*
X144811749Y-151297523D01*
X144999300Y-151166198D01*
X145161198Y-151004300D01*
X145292523Y-150816749D01*
X145389284Y-150609243D01*
X145424625Y-150477349D01*
X145460989Y-150417691D01*
X145523836Y-150387162D01*
X145593212Y-150395457D01*
X145647090Y-150439942D01*
X145664174Y-150477351D01*
X145698733Y-150606326D01*
X145794866Y-150812484D01*
X145845972Y-150885471D01*
X145845974Y-150885472D01*
X146441922Y-150289523D01*
X146465507Y-150369844D01*
X146543239Y-150490798D01*
X146651900Y-150584952D01*
X146782685Y-150644680D01*
X146792466Y-150646086D01*
X146199526Y-151239025D01*
X146199526Y-151239026D01*
X146272515Y-151290133D01*
X146478673Y-151386266D01*
X146698397Y-151445141D01*
X146924999Y-151464966D01*
X147151602Y-151445141D01*
X147371326Y-151386266D01*
X147577480Y-151290134D01*
X147650472Y-151239025D01*
X147057534Y-150646086D01*
X147067315Y-150644680D01*
X147198100Y-150584952D01*
X147306761Y-150490798D01*
X147384493Y-150369844D01*
X147408076Y-150289523D01*
X148004025Y-150885472D01*
X148055134Y-150812480D01*
X148151266Y-150606325D01*
X148185825Y-150477352D01*
X148222190Y-150417691D01*
X148285037Y-150387162D01*
X148354412Y-150395457D01*
X148408290Y-150439942D01*
X148425375Y-150477351D01*
X148431444Y-150499999D01*
X148459934Y-150606326D01*
X148460717Y-150609246D01*
X148557474Y-150816744D01*
X148557476Y-150816746D01*
X148557477Y-150816749D01*
X148688802Y-151004300D01*
X148850700Y-151166198D01*
X149038251Y-151297523D01*
X149245757Y-151394284D01*
X149466913Y-151453543D01*
X149695000Y-151473498D01*
X149923087Y-151453543D01*
X150144243Y-151394284D01*
X150351749Y-151297523D01*
X150539300Y-151166198D01*
X150701198Y-151004300D01*
X150832523Y-150816749D01*
X150929284Y-150609243D01*
X150969274Y-150460000D01*
X154141540Y-150460000D01*
X154141785Y-150463894D01*
X154159647Y-150747816D01*
X154161359Y-150775020D01*
X154162086Y-150778832D01*
X154162088Y-150778846D01*
X154205924Y-151008638D01*
X154220505Y-151085072D01*
X154318044Y-151385266D01*
X154319701Y-151388789D01*
X154319703Y-151388792D01*
X154450779Y-151667345D01*
X154450784Y-151667354D01*
X154452438Y-151670869D01*
X154621568Y-151937375D01*
X154822767Y-152180582D01*
X155052860Y-152396654D01*
X155308221Y-152582184D01*
X155311628Y-152584057D01*
X155529145Y-152703639D01*
X155584821Y-152734247D01*
X155878298Y-152850443D01*
X156184025Y-152928940D01*
X156497179Y-152968500D01*
X156501074Y-152968500D01*
X156808926Y-152968500D01*
X156812821Y-152968500D01*
X157125975Y-152928940D01*
X157431702Y-152850443D01*
X157725179Y-152734247D01*
X158001779Y-152582184D01*
X158257140Y-152396654D01*
X158487233Y-152180582D01*
X158688432Y-151937375D01*
X158857562Y-151670869D01*
X158878104Y-151627214D01*
X169077214Y-151627214D01*
X169077214Y-155322786D01*
X195115642Y-155322786D01*
X195115642Y-151627214D01*
X169077214Y-151627214D01*
X158878104Y-151627214D01*
X158991956Y-151385266D01*
X159089495Y-151085072D01*
X159148641Y-150775020D01*
X159165944Y-150499999D01*
X198894356Y-150499999D01*
X198914891Y-150747816D01*
X198914891Y-150747819D01*
X198914892Y-150747821D01*
X198975937Y-150988881D01*
X199016450Y-151081242D01*
X199075825Y-151216604D01*
X199075827Y-151216607D01*
X199211836Y-151424785D01*
X199380256Y-151607738D01*
X199380259Y-151607740D01*
X199576485Y-151760470D01*
X199576487Y-151760471D01*
X199576491Y-151760474D01*
X199795190Y-151878828D01*
X200030386Y-151959571D01*
X200275665Y-152000500D01*
X200524335Y-152000500D01*
X200769614Y-151959571D01*
X201004810Y-151878828D01*
X201223509Y-151760474D01*
X201419744Y-151607738D01*
X201588164Y-151424785D01*
X201724173Y-151216607D01*
X201824063Y-150988881D01*
X201885108Y-150747821D01*
X201905643Y-150500000D01*
X201885108Y-150252179D01*
X201824063Y-150011119D01*
X201724173Y-149783393D01*
X201588164Y-149575215D01*
X201419744Y-149392262D01*
X201397612Y-149375036D01*
X201223514Y-149239529D01*
X201223510Y-149239526D01*
X201223509Y-149239526D01*
X201004810Y-149121172D01*
X201004806Y-149121170D01*
X201004805Y-149121170D01*
X200769615Y-149040429D01*
X200524335Y-148999500D01*
X200275665Y-148999500D01*
X200030384Y-149040429D01*
X199795194Y-149121170D01*
X199576485Y-149239529D01*
X199380259Y-149392259D01*
X199380256Y-149392261D01*
X199380256Y-149392262D01*
X199278082Y-149503253D01*
X199211837Y-149575214D01*
X199075825Y-149783395D01*
X198975938Y-150011117D01*
X198914891Y-150252183D01*
X198894356Y-150499999D01*
X159165944Y-150499999D01*
X159168460Y-150460000D01*
X159148641Y-150144980D01*
X159089495Y-149834928D01*
X158991956Y-149534734D01*
X158857562Y-149249131D01*
X158688432Y-148982625D01*
X158487233Y-148739418D01*
X158257140Y-148523346D01*
X158001779Y-148337816D01*
X157998376Y-148335945D01*
X157998371Y-148335942D01*
X157728587Y-148187626D01*
X157728579Y-148187622D01*
X157725179Y-148185753D01*
X157721560Y-148184320D01*
X157435327Y-148070992D01*
X157435323Y-148070990D01*
X157431702Y-148069557D01*
X157427928Y-148068588D01*
X157427922Y-148068586D01*
X157129747Y-147992028D01*
X157129739Y-147992026D01*
X157125975Y-147991060D01*
X157122124Y-147990573D01*
X157122111Y-147990571D01*
X156816687Y-147951988D01*
X156816680Y-147951987D01*
X156812821Y-147951500D01*
X156497179Y-147951500D01*
X156493320Y-147951987D01*
X156493312Y-147951988D01*
X156187888Y-147990571D01*
X156187872Y-147990573D01*
X156184025Y-147991060D01*
X156180263Y-147992025D01*
X156180252Y-147992028D01*
X155882077Y-148068586D01*
X155882066Y-148068589D01*
X155878298Y-148069557D01*
X155874680Y-148070989D01*
X155874672Y-148070992D01*
X155588439Y-148184320D01*
X155588431Y-148184323D01*
X155584821Y-148185753D01*
X155581426Y-148187619D01*
X155581412Y-148187626D01*
X155311628Y-148335942D01*
X155311616Y-148335949D01*
X155308221Y-148337816D01*
X155305077Y-148340099D01*
X155305071Y-148340104D01*
X155056016Y-148521052D01*
X155056005Y-148521060D01*
X155052860Y-148523346D01*
X155050025Y-148526007D01*
X155050018Y-148526014D01*
X154825604Y-148736753D01*
X154825597Y-148736760D01*
X154822767Y-148739418D01*
X154820292Y-148742409D01*
X154820288Y-148742414D01*
X154624043Y-148979632D01*
X154624035Y-148979642D01*
X154621568Y-148982625D01*
X154619492Y-148985895D01*
X154619487Y-148985903D01*
X154454523Y-149245845D01*
X154452438Y-149249131D01*
X154450787Y-149252638D01*
X154450779Y-149252654D01*
X154319703Y-149531207D01*
X154319699Y-149531216D01*
X154318044Y-149534734D01*
X154316840Y-149538439D01*
X154316839Y-149538442D01*
X154221710Y-149831217D01*
X154221707Y-149831228D01*
X154220505Y-149834928D01*
X154219776Y-149838748D01*
X154219774Y-149838757D01*
X154162088Y-150141153D01*
X154162085Y-150141169D01*
X154161359Y-150144980D01*
X154141540Y-150460000D01*
X150969274Y-150460000D01*
X150988543Y-150388087D01*
X151008498Y-150160000D01*
X150988543Y-149931913D01*
X150929284Y-149710757D01*
X150832523Y-149503251D01*
X150701198Y-149315700D01*
X150539300Y-149153802D01*
X150351749Y-149022477D01*
X150351746Y-149022476D01*
X150351744Y-149022474D01*
X150144246Y-148925717D01*
X150144243Y-148925716D01*
X149954440Y-148874858D01*
X149923084Y-148866456D01*
X149694999Y-148846501D01*
X149466915Y-148866456D01*
X149245753Y-148925717D01*
X149038255Y-149022474D01*
X148850696Y-149153805D01*
X148688805Y-149315696D01*
X148557474Y-149503255D01*
X148460717Y-149710752D01*
X148425375Y-149842649D01*
X148389009Y-149902309D01*
X148326162Y-149932837D01*
X148256786Y-149924542D01*
X148202909Y-149880056D01*
X148185825Y-149842648D01*
X148151266Y-149713672D01*
X148055133Y-149507515D01*
X148004025Y-149434526D01*
X147408076Y-150030475D01*
X147384493Y-149950156D01*
X147306761Y-149829202D01*
X147198100Y-149735048D01*
X147067315Y-149675320D01*
X147057533Y-149673913D01*
X147650472Y-149080974D01*
X147650471Y-149080972D01*
X147577484Y-149029866D01*
X147371326Y-148933733D01*
X147151602Y-148874858D01*
X146925000Y-148855033D01*
X146698397Y-148874858D01*
X146478672Y-148933733D01*
X146272516Y-149029865D01*
X146199527Y-149080973D01*
X146199526Y-149080973D01*
X146792467Y-149673913D01*
X146782685Y-149675320D01*
X146651900Y-149735048D01*
X146543239Y-149829202D01*
X146465507Y-149950156D01*
X146441923Y-150030476D01*
X145845973Y-149434526D01*
X145845973Y-149434527D01*
X145794865Y-149507516D01*
X145698733Y-149713673D01*
X145664174Y-149842648D01*
X145627808Y-149902308D01*
X145564961Y-149932837D01*
X145495586Y-149924542D01*
X145441708Y-149880056D01*
X145424624Y-149842649D01*
X145389284Y-149710757D01*
X145292523Y-149503251D01*
X145161198Y-149315700D01*
X144999300Y-149153802D01*
X144811749Y-149022477D01*
X144811746Y-149022476D01*
X144811744Y-149022474D01*
X144604246Y-148925717D01*
X144604243Y-148925716D01*
X144414440Y-148874858D01*
X144383084Y-148866456D01*
X144155000Y-148846501D01*
X143926915Y-148866456D01*
X143705753Y-148925717D01*
X143498255Y-149022474D01*
X143310696Y-149153805D01*
X143148805Y-149315696D01*
X143017474Y-149503255D01*
X142920717Y-149710753D01*
X142889775Y-149826230D01*
X142853410Y-149885890D01*
X142790562Y-149916419D01*
X142721187Y-149908124D01*
X142667309Y-149863639D01*
X142650225Y-149826230D01*
X142638747Y-149783395D01*
X142619284Y-149710757D01*
X142522523Y-149503251D01*
X142391198Y-149315700D01*
X142229300Y-149153802D01*
X142041749Y-149022477D01*
X142041746Y-149022476D01*
X142041744Y-149022474D01*
X141834246Y-148925717D01*
X141834243Y-148925716D01*
X141644440Y-148874858D01*
X141613084Y-148866456D01*
X141384999Y-148846501D01*
X141156915Y-148866456D01*
X140935753Y-148925717D01*
X140728255Y-149022474D01*
X140540696Y-149153805D01*
X140378805Y-149315696D01*
X140378802Y-149315699D01*
X140378802Y-149315700D01*
X140295599Y-149434527D01*
X140247476Y-149503253D01*
X140159882Y-149691100D01*
X140113710Y-149743539D01*
X140046516Y-149762691D01*
X139979635Y-149742475D01*
X139934301Y-149689310D01*
X139923500Y-149638695D01*
X139923500Y-149314671D01*
X139923500Y-149311362D01*
X139916989Y-149250799D01*
X139916988Y-149250797D01*
X139916988Y-149250794D01*
X139865889Y-149113796D01*
X139778261Y-148996738D01*
X139661203Y-148909110D01*
X139524205Y-148858011D01*
X139466924Y-148851853D01*
X139466918Y-148851852D01*
X139463638Y-148851500D01*
X137766362Y-148851500D01*
X137763082Y-148851852D01*
X137763075Y-148851853D01*
X137705794Y-148858011D01*
X137568796Y-148909110D01*
X137451738Y-148996738D01*
X137364110Y-149113796D01*
X137313011Y-149250794D01*
X137306853Y-149308075D01*
X137306500Y-149311362D01*
X137306500Y-151008638D01*
X134104076Y-151008638D01*
X134148641Y-150775020D01*
X134168460Y-150460000D01*
X134148641Y-150144980D01*
X134089495Y-149834928D01*
X133991956Y-149534734D01*
X133857562Y-149249131D01*
X133688432Y-148982625D01*
X133487233Y-148739418D01*
X133257140Y-148523346D01*
X133001779Y-148337816D01*
X132998376Y-148335945D01*
X132998371Y-148335942D01*
X132728587Y-148187626D01*
X132728579Y-148187622D01*
X132725179Y-148185753D01*
X132721560Y-148184320D01*
X132435327Y-148070992D01*
X132435323Y-148070990D01*
X132431702Y-148069557D01*
X132427928Y-148068588D01*
X132427922Y-148068586D01*
X132129747Y-147992028D01*
X132129739Y-147992026D01*
X132125975Y-147991060D01*
X132122124Y-147990573D01*
X132122111Y-147990571D01*
X131816687Y-147951988D01*
X131816680Y-147951987D01*
X131812821Y-147951500D01*
X131497179Y-147951500D01*
X131493320Y-147951987D01*
X131493312Y-147951988D01*
X131187888Y-147990571D01*
X131187872Y-147990573D01*
X131184025Y-147991060D01*
X131180263Y-147992025D01*
X131180252Y-147992028D01*
X130882077Y-148068586D01*
X130882066Y-148068589D01*
X130878298Y-148069557D01*
X130874680Y-148070989D01*
X130874672Y-148070992D01*
X130588439Y-148184320D01*
X130588431Y-148184323D01*
X130584821Y-148185753D01*
X130581426Y-148187619D01*
X130581412Y-148187626D01*
X130311628Y-148335942D01*
X130311616Y-148335949D01*
X130308221Y-148337816D01*
X130305077Y-148340099D01*
X130305071Y-148340104D01*
X130056016Y-148521052D01*
X130056005Y-148521060D01*
X130052860Y-148523346D01*
X130050025Y-148526007D01*
X130050018Y-148526014D01*
X129825604Y-148736753D01*
X129825597Y-148736760D01*
X129822767Y-148739418D01*
X129820292Y-148742409D01*
X129820288Y-148742414D01*
X129624043Y-148979632D01*
X129624035Y-148979642D01*
X129621568Y-148982625D01*
X129619492Y-148985895D01*
X129619487Y-148985903D01*
X129454523Y-149245845D01*
X129452438Y-149249131D01*
X129450787Y-149252638D01*
X129450779Y-149252654D01*
X129319703Y-149531207D01*
X129319699Y-149531216D01*
X129318044Y-149534734D01*
X129316840Y-149538439D01*
X129316839Y-149538442D01*
X129221710Y-149831217D01*
X129221707Y-149831228D01*
X129220505Y-149834928D01*
X129219776Y-149838748D01*
X129219774Y-149838757D01*
X129162088Y-150141153D01*
X129162085Y-150141169D01*
X129161359Y-150144980D01*
X129141540Y-150460000D01*
X91000000Y-150460000D01*
X91000000Y-143050000D01*
X121886537Y-143050000D01*
X121906346Y-143263788D01*
X121965101Y-143470289D01*
X122060803Y-143662483D01*
X122060804Y-143662484D01*
X122116454Y-143736177D01*
X122141146Y-143801537D01*
X122141500Y-143810903D01*
X122141500Y-144435692D01*
X122126859Y-144494142D01*
X122065730Y-144608509D01*
X122063759Y-144612196D01*
X122006091Y-144802301D01*
X121986620Y-144999999D01*
X122006091Y-145197698D01*
X122006092Y-145197701D01*
X122063759Y-145387804D01*
X122157405Y-145563004D01*
X122283432Y-145716568D01*
X122436996Y-145842595D01*
X122612196Y-145936241D01*
X122802299Y-145993908D01*
X123000000Y-146013380D01*
X123197701Y-145993908D01*
X123387804Y-145936241D01*
X123563004Y-145842595D01*
X123716568Y-145716568D01*
X123732879Y-145696692D01*
X123790625Y-145657358D01*
X123828733Y-145651357D01*
X128731119Y-145651357D01*
X128731119Y-142973643D01*
X124319429Y-142973643D01*
X124252390Y-142953958D01*
X124206635Y-142901154D01*
X124195958Y-142861085D01*
X124195276Y-142853729D01*
X124193653Y-142836214D01*
X124183670Y-142801129D01*
X124134898Y-142629710D01*
X124039195Y-142437513D01*
X123909811Y-142266180D01*
X123751143Y-142121536D01*
X123568598Y-142008509D01*
X123368401Y-141930952D01*
X123368398Y-141930951D01*
X123368397Y-141930951D01*
X123157351Y-141891500D01*
X122942649Y-141891500D01*
X122731603Y-141930951D01*
X122731598Y-141930952D01*
X122531401Y-142008509D01*
X122348856Y-142121536D01*
X122190188Y-142266180D01*
X122060804Y-142437513D01*
X121965101Y-142629710D01*
X121906346Y-142836211D01*
X121886537Y-143050000D01*
X91000000Y-143050000D01*
X91000000Y-138540000D01*
X111636843Y-138540000D01*
X111655435Y-138764363D01*
X111710705Y-138982618D01*
X111801138Y-139188788D01*
X111801140Y-139188791D01*
X111924278Y-139377268D01*
X112076760Y-139542906D01*
X112254424Y-139681189D01*
X112452426Y-139788342D01*
X112665365Y-139861444D01*
X112887431Y-139898500D01*
X113112569Y-139898500D01*
X113334635Y-139861444D01*
X113547574Y-139788342D01*
X113745576Y-139681189D01*
X113923240Y-139542906D01*
X114075722Y-139377268D01*
X114198860Y-139188791D01*
X114281671Y-139000000D01*
X116686501Y-139000000D01*
X116706456Y-139228084D01*
X116706457Y-139228087D01*
X116746430Y-139377269D01*
X116765717Y-139449246D01*
X116862475Y-139656746D01*
X116862476Y-139656748D01*
X116862477Y-139656749D01*
X116867410Y-139663795D01*
X116889739Y-139729999D01*
X116872730Y-139797766D01*
X116840152Y-139834183D01*
X116836739Y-139836738D01*
X116749110Y-139953796D01*
X116698011Y-140090794D01*
X116691853Y-140148075D01*
X116691500Y-140151362D01*
X116691500Y-141848638D01*
X116691852Y-141851918D01*
X116691853Y-141851924D01*
X116698011Y-141909205D01*
X116749110Y-142046203D01*
X116836738Y-142163261D01*
X116953796Y-142250889D01*
X117090794Y-142301988D01*
X117090797Y-142301988D01*
X117090799Y-142301989D01*
X117151362Y-142308500D01*
X117154672Y-142308500D01*
X118845328Y-142308500D01*
X118848638Y-142308500D01*
X118909201Y-142301989D01*
X118909203Y-142301988D01*
X118909205Y-142301988D01*
X118987124Y-142272924D01*
X119046204Y-142250889D01*
X119163261Y-142163261D01*
X119250889Y-142046204D01*
X119272924Y-141987124D01*
X119301988Y-141909205D01*
X119301988Y-141909203D01*
X119301989Y-141909201D01*
X119308500Y-141848638D01*
X119308500Y-140151362D01*
X119301989Y-140090799D01*
X119301988Y-140090797D01*
X119301988Y-140090794D01*
X119250889Y-139953796D01*
X119163262Y-139836740D01*
X119163261Y-139836739D01*
X119159853Y-139834187D01*
X119117981Y-139778256D01*
X119112995Y-139708564D01*
X119132588Y-139663795D01*
X119137523Y-139656749D01*
X119234284Y-139449243D01*
X119293543Y-139228087D01*
X119313498Y-139000000D01*
X119293543Y-138771913D01*
X119234284Y-138550757D01*
X119137523Y-138343251D01*
X119006198Y-138155700D01*
X118844300Y-137993802D01*
X118656749Y-137862477D01*
X118656746Y-137862476D01*
X118656744Y-137862474D01*
X118449246Y-137765717D01*
X118449243Y-137765716D01*
X118338665Y-137736086D01*
X118228084Y-137706456D01*
X117999999Y-137686501D01*
X117771915Y-137706456D01*
X117550753Y-137765717D01*
X117343255Y-137862474D01*
X117155696Y-137993805D01*
X116993805Y-138155696D01*
X116862474Y-138343255D01*
X116765717Y-138550753D01*
X116706456Y-138771915D01*
X116686501Y-139000000D01*
X114281671Y-139000000D01*
X114289296Y-138982616D01*
X114344564Y-138764368D01*
X114363156Y-138540000D01*
X114344564Y-138315632D01*
X114289296Y-138097384D01*
X114198860Y-137891209D01*
X114075722Y-137702732D01*
X113923240Y-137537094D01*
X113745576Y-137398811D01*
X113745575Y-137398810D01*
X113709067Y-137379053D01*
X113659477Y-137329833D01*
X113644370Y-137261616D01*
X113668541Y-137196061D01*
X113709066Y-137160946D01*
X113745576Y-137141189D01*
X113923240Y-137002906D01*
X114075722Y-136837268D01*
X114198860Y-136648791D01*
X114289296Y-136442616D01*
X114344564Y-136224368D01*
X114363156Y-136000000D01*
X126086624Y-136000000D01*
X126106100Y-136272302D01*
X126164128Y-136539055D01*
X126164130Y-136539060D01*
X126205056Y-136648788D01*
X126259534Y-136794847D01*
X126390365Y-137034447D01*
X126470271Y-137141188D01*
X126553968Y-137252994D01*
X126747006Y-137446032D01*
X126910914Y-137568732D01*
X126965552Y-137609634D01*
X127098874Y-137682433D01*
X127205155Y-137740467D01*
X127460940Y-137835870D01*
X127460943Y-137835870D01*
X127460944Y-137835871D01*
X127498910Y-137844130D01*
X127727698Y-137893900D01*
X128000000Y-137913375D01*
X128272302Y-137893900D01*
X128539060Y-137835870D01*
X128794845Y-137740467D01*
X129034449Y-137609633D01*
X129252994Y-137446032D01*
X129446032Y-137252994D01*
X129609633Y-137034449D01*
X129717302Y-136837269D01*
X129740467Y-136794846D01*
X129763898Y-136732024D01*
X129805769Y-136676090D01*
X129871233Y-136651673D01*
X129880080Y-136651357D01*
X138397786Y-136651357D01*
X138397786Y-133973643D01*
X129348643Y-133973643D01*
X129348643Y-134377849D01*
X129328958Y-134444888D01*
X129276154Y-134490643D01*
X129206996Y-134500587D01*
X129150333Y-134477116D01*
X129034450Y-134390367D01*
X128794847Y-134259534D01*
X128794846Y-134259533D01*
X128794845Y-134259533D01*
X128539060Y-134164130D01*
X128539055Y-134164128D01*
X128272302Y-134106100D01*
X128000000Y-134086624D01*
X127727697Y-134106100D01*
X127460944Y-134164128D01*
X127205152Y-134259534D01*
X126965552Y-134390365D01*
X126747003Y-134553970D01*
X126553970Y-134747003D01*
X126390365Y-134965552D01*
X126259534Y-135205152D01*
X126164128Y-135460944D01*
X126106100Y-135727697D01*
X126086624Y-136000000D01*
X114363156Y-136000000D01*
X114344564Y-135775632D01*
X114289296Y-135557384D01*
X114198860Y-135351209D01*
X114075722Y-135162732D01*
X113923240Y-134997094D01*
X113745576Y-134858811D01*
X113745575Y-134858810D01*
X113709067Y-134839053D01*
X113659477Y-134789833D01*
X113644370Y-134721616D01*
X113668541Y-134656061D01*
X113709066Y-134620946D01*
X113745576Y-134601189D01*
X113923240Y-134462906D01*
X114075722Y-134297268D01*
X114198860Y-134108791D01*
X114289296Y-133902616D01*
X114344564Y-133684368D01*
X114363156Y-133460000D01*
X114344564Y-133235632D01*
X114289296Y-133017384D01*
X114198860Y-132811209D01*
X114075722Y-132622732D01*
X113923240Y-132457094D01*
X113745576Y-132318811D01*
X113547574Y-132211658D01*
X113547573Y-132211657D01*
X113547572Y-132211657D01*
X113334636Y-132138556D01*
X113112569Y-132101500D01*
X112887431Y-132101500D01*
X112665363Y-132138556D01*
X112452427Y-132211657D01*
X112254424Y-132318811D01*
X112076760Y-132457094D01*
X111924279Y-132622730D01*
X111801138Y-132811211D01*
X111710705Y-133017381D01*
X111655435Y-133235636D01*
X111636843Y-133460000D01*
X111655435Y-133684363D01*
X111655435Y-133684366D01*
X111655436Y-133684368D01*
X111710704Y-133902616D01*
X111713594Y-133909205D01*
X111801138Y-134108788D01*
X111801140Y-134108791D01*
X111924278Y-134297268D01*
X112076760Y-134462906D01*
X112254424Y-134601189D01*
X112254426Y-134601190D01*
X112290931Y-134620946D01*
X112340521Y-134670165D01*
X112355629Y-134738382D01*
X112331458Y-134803937D01*
X112290931Y-134839054D01*
X112254426Y-134858809D01*
X112076760Y-134997094D01*
X111924279Y-135162730D01*
X111801138Y-135351211D01*
X111710705Y-135557381D01*
X111655435Y-135775636D01*
X111636843Y-136000000D01*
X111655435Y-136224363D01*
X111710705Y-136442618D01*
X111801138Y-136648788D01*
X111801140Y-136648791D01*
X111924278Y-136837268D01*
X112076760Y-137002906D01*
X112254424Y-137141189D01*
X112254426Y-137141190D01*
X112290931Y-137160946D01*
X112340521Y-137210165D01*
X112355629Y-137278382D01*
X112331458Y-137343937D01*
X112290931Y-137379054D01*
X112254426Y-137398809D01*
X112076760Y-137537094D01*
X111924279Y-137702730D01*
X111801138Y-137891211D01*
X111710705Y-138097381D01*
X111710704Y-138097384D01*
X111655436Y-138315632D01*
X111655435Y-138315636D01*
X111636843Y-138540000D01*
X91000000Y-138540000D01*
X91000000Y-131000000D01*
X116686501Y-131000000D01*
X116706456Y-131228084D01*
X116765717Y-131449246D01*
X116862475Y-131656746D01*
X116862476Y-131656748D01*
X116862477Y-131656749D01*
X116867410Y-131663795D01*
X116889739Y-131729999D01*
X116872730Y-131797766D01*
X116840152Y-131834183D01*
X116836739Y-131836738D01*
X116749110Y-131953796D01*
X116698011Y-132090794D01*
X116691853Y-132148075D01*
X116691500Y-132151362D01*
X116691500Y-133848638D01*
X116691852Y-133851918D01*
X116691853Y-133851924D01*
X116698011Y-133909205D01*
X116749110Y-134046203D01*
X116836738Y-134163261D01*
X116953796Y-134250889D01*
X117090794Y-134301988D01*
X117090797Y-134301988D01*
X117090799Y-134301989D01*
X117151362Y-134308500D01*
X117154672Y-134308500D01*
X118845328Y-134308500D01*
X118848638Y-134308500D01*
X118909201Y-134301989D01*
X118909203Y-134301988D01*
X118909205Y-134301988D01*
X118987124Y-134272924D01*
X119046204Y-134250889D01*
X119163261Y-134163261D01*
X119250889Y-134046204D01*
X119301989Y-133909201D01*
X119308500Y-133848638D01*
X119308500Y-132151362D01*
X119301989Y-132090799D01*
X119301988Y-132090797D01*
X119301988Y-132090794D01*
X119250889Y-131953796D01*
X119163262Y-131836740D01*
X119163261Y-131836739D01*
X119159853Y-131834187D01*
X119117981Y-131778256D01*
X119112995Y-131708564D01*
X119132588Y-131663795D01*
X119137523Y-131656749D01*
X119234284Y-131449243D01*
X119293543Y-131228087D01*
X119313498Y-131000000D01*
X119293543Y-130771913D01*
X119234284Y-130550757D01*
X119137523Y-130343251D01*
X119006198Y-130155700D01*
X118844300Y-129993802D01*
X118656749Y-129862477D01*
X118656746Y-129862476D01*
X118656744Y-129862474D01*
X118449246Y-129765717D01*
X118449243Y-129765716D01*
X118338665Y-129736086D01*
X118228084Y-129706456D01*
X118000000Y-129686501D01*
X117771915Y-129706456D01*
X117550753Y-129765717D01*
X117343255Y-129862474D01*
X117343250Y-129862477D01*
X117343251Y-129862477D01*
X117230411Y-129941489D01*
X117155696Y-129993805D01*
X116993805Y-130155696D01*
X116862474Y-130343255D01*
X116765717Y-130550753D01*
X116706456Y-130771915D01*
X116686501Y-131000000D01*
X91000000Y-131000000D01*
X91000000Y-128000000D01*
X101686501Y-128000000D01*
X101706456Y-128228084D01*
X101765717Y-128449246D01*
X101862474Y-128656744D01*
X101862476Y-128656746D01*
X101862477Y-128656749D01*
X101993802Y-128844300D01*
X102155700Y-129006198D01*
X102343251Y-129137523D01*
X102550757Y-129234284D01*
X102771913Y-129293543D01*
X102923970Y-129306846D01*
X102999999Y-129313498D01*
X102999999Y-129313497D01*
X103000000Y-129313498D01*
X103228087Y-129293543D01*
X103449243Y-129234284D01*
X103656749Y-129137523D01*
X103844300Y-129006198D01*
X104006198Y-128844300D01*
X104137523Y-128656749D01*
X104234284Y-128449243D01*
X104252838Y-128380000D01*
X111636843Y-128380000D01*
X111655435Y-128604363D01*
X111655435Y-128604366D01*
X111655436Y-128604368D01*
X111676162Y-128686214D01*
X111710705Y-128822618D01*
X111801138Y-129028788D01*
X111801140Y-129028791D01*
X111924278Y-129217268D01*
X112076760Y-129382906D01*
X112254424Y-129521189D01*
X112452426Y-129628342D01*
X112665365Y-129701444D01*
X112887431Y-129738500D01*
X113112569Y-129738500D01*
X113334635Y-129701444D01*
X113547574Y-129628342D01*
X113745576Y-129521189D01*
X113923240Y-129382906D01*
X114075722Y-129217268D01*
X114198860Y-129028791D01*
X114255353Y-128900000D01*
X121836537Y-128900000D01*
X121856346Y-129113788D01*
X121915101Y-129320289D01*
X122010804Y-129512486D01*
X122140188Y-129683819D01*
X122283473Y-129814439D01*
X122298857Y-129828464D01*
X122390128Y-129884976D01*
X122481401Y-129941490D01*
X122662938Y-130011818D01*
X122681603Y-130019049D01*
X122892649Y-130058500D01*
X122892651Y-130058500D01*
X123107349Y-130058500D01*
X123107351Y-130058500D01*
X123318397Y-130019049D01*
X123451865Y-129967342D01*
X123518598Y-129941490D01*
X123518600Y-129941489D01*
X123701143Y-129828464D01*
X123859810Y-129683820D01*
X123901705Y-129628342D01*
X123989195Y-129512486D01*
X124084898Y-129320289D01*
X124143653Y-129113788D01*
X124153622Y-129006198D01*
X124163463Y-128900000D01*
X124143653Y-128686214D01*
X124143653Y-128686211D01*
X124084898Y-128479710D01*
X123989196Y-128287517D01*
X123989196Y-128287516D01*
X123933545Y-128213821D01*
X123908854Y-128148460D01*
X123908500Y-128139095D01*
X123908500Y-127775357D01*
X123928185Y-127708318D01*
X123980989Y-127662563D01*
X124032500Y-127651357D01*
X128731119Y-127651357D01*
X128731119Y-124973643D01*
X123348643Y-124973643D01*
X123348643Y-126184684D01*
X123328958Y-126251723D01*
X123276154Y-126297478D01*
X123209882Y-126307006D01*
X123209855Y-126307289D01*
X123208707Y-126307175D01*
X123206996Y-126307422D01*
X123203640Y-126306676D01*
X123000000Y-126286620D01*
X122802301Y-126306091D01*
X122738931Y-126325314D01*
X122612196Y-126363759D01*
X122612192Y-126363760D01*
X122612192Y-126363761D01*
X122436996Y-126457404D01*
X122283432Y-126583432D01*
X122157404Y-126736996D01*
X122077652Y-126886203D01*
X122063759Y-126912196D01*
X122041307Y-126986211D01*
X122006091Y-127102301D01*
X121986620Y-127299999D01*
X122006091Y-127497699D01*
X122006092Y-127497701D01*
X122063759Y-127687804D01*
X122063760Y-127687805D01*
X122076858Y-127712311D01*
X122091499Y-127770763D01*
X122091500Y-128139095D01*
X122071816Y-128206134D01*
X122066455Y-128213821D01*
X122010803Y-128287517D01*
X121915101Y-128479710D01*
X121856346Y-128686211D01*
X121836537Y-128900000D01*
X114255353Y-128900000D01*
X114289296Y-128822616D01*
X114344564Y-128604368D01*
X114363156Y-128380000D01*
X114344564Y-128155632D01*
X114289296Y-127937384D01*
X114198860Y-127731209D01*
X114075722Y-127542732D01*
X113923240Y-127377094D01*
X113889754Y-127351030D01*
X113848943Y-127294322D01*
X113845268Y-127224549D01*
X113879899Y-127163866D01*
X113922582Y-127136997D01*
X114046204Y-127090889D01*
X114163261Y-127003261D01*
X114250889Y-126886204D01*
X114301989Y-126749201D01*
X114308500Y-126688638D01*
X114308500Y-124991362D01*
X114301989Y-124930799D01*
X114301988Y-124930797D01*
X114301988Y-124930794D01*
X114250889Y-124793796D01*
X114163261Y-124676738D01*
X114046203Y-124589110D01*
X113909205Y-124538011D01*
X113851924Y-124531853D01*
X113851918Y-124531852D01*
X113848638Y-124531500D01*
X112151362Y-124531500D01*
X112148082Y-124531852D01*
X112148075Y-124531853D01*
X112090794Y-124538011D01*
X111953796Y-124589110D01*
X111836738Y-124676738D01*
X111749110Y-124793796D01*
X111698011Y-124930794D01*
X111693405Y-124973643D01*
X111691500Y-124991362D01*
X111691500Y-126688638D01*
X111691852Y-126691918D01*
X111691853Y-126691924D01*
X111698011Y-126749205D01*
X111749110Y-126886203D01*
X111836738Y-127003261D01*
X111953796Y-127090889D01*
X112077415Y-127136998D01*
X112133349Y-127178869D01*
X112157765Y-127244334D01*
X112142913Y-127312607D01*
X112110244Y-127351032D01*
X112076760Y-127377093D01*
X111924279Y-127542730D01*
X111801138Y-127731211D01*
X111729793Y-127893864D01*
X111710704Y-127937384D01*
X111659624Y-128139095D01*
X111655435Y-128155636D01*
X111636843Y-128380000D01*
X104252838Y-128380000D01*
X104293543Y-128228087D01*
X104313498Y-128000000D01*
X104293543Y-127771913D01*
X104234284Y-127550757D01*
X104137523Y-127343251D01*
X104132588Y-127336203D01*
X104110260Y-127269997D01*
X104127270Y-127202230D01*
X104159853Y-127165811D01*
X104163261Y-127163261D01*
X104250889Y-127046204D01*
X104300872Y-126912196D01*
X104301988Y-126909205D01*
X104301988Y-126909203D01*
X104301989Y-126909201D01*
X104308500Y-126848638D01*
X104308500Y-125151362D01*
X104301989Y-125090799D01*
X104301988Y-125090797D01*
X104301988Y-125090794D01*
X104250889Y-124953796D01*
X104163261Y-124836738D01*
X104046203Y-124749110D01*
X103909205Y-124698011D01*
X103851924Y-124691853D01*
X103851918Y-124691852D01*
X103848638Y-124691500D01*
X102151362Y-124691500D01*
X102148082Y-124691852D01*
X102148075Y-124691853D01*
X102090794Y-124698011D01*
X101953796Y-124749110D01*
X101836738Y-124836738D01*
X101749110Y-124953796D01*
X101698011Y-125090794D01*
X101691853Y-125148075D01*
X101691500Y-125151362D01*
X101691500Y-126848638D01*
X101691852Y-126851918D01*
X101691853Y-126851924D01*
X101698011Y-126909205D01*
X101749110Y-127046203D01*
X101836738Y-127163261D01*
X101840146Y-127165812D01*
X101882018Y-127221745D01*
X101887002Y-127291437D01*
X101867415Y-127336196D01*
X101862477Y-127343248D01*
X101765717Y-127550753D01*
X101706456Y-127771915D01*
X101686501Y-128000000D01*
X91000000Y-128000000D01*
X91000000Y-118100000D01*
X132236537Y-118100000D01*
X132256346Y-118313788D01*
X132315101Y-118520289D01*
X132410804Y-118712486D01*
X132540188Y-118883819D01*
X132683473Y-119014440D01*
X132698857Y-119028464D01*
X132790128Y-119084976D01*
X132881401Y-119141490D01*
X133062938Y-119211818D01*
X133081603Y-119219049D01*
X133231584Y-119247084D01*
X133293864Y-119278752D01*
X133296479Y-119281292D01*
X140505181Y-126489994D01*
X140538666Y-126551317D01*
X140541500Y-126577675D01*
X140541500Y-144939095D01*
X140521815Y-145006134D01*
X140516455Y-145013821D01*
X140460803Y-145087517D01*
X140365101Y-145279710D01*
X140306346Y-145486211D01*
X140286537Y-145700000D01*
X140306346Y-145913788D01*
X140365101Y-146120289D01*
X140460804Y-146312486D01*
X140590188Y-146483819D01*
X140733473Y-146614439D01*
X140748857Y-146628464D01*
X140840128Y-146684976D01*
X140931401Y-146741490D01*
X141104373Y-146808500D01*
X141131603Y-146819049D01*
X141342649Y-146858500D01*
X141342651Y-146858500D01*
X141557349Y-146858500D01*
X141557351Y-146858500D01*
X141768397Y-146819049D01*
X141901865Y-146767342D01*
X141968598Y-146741490D01*
X141968600Y-146741489D01*
X142151143Y-146628464D01*
X142309810Y-146483820D01*
X142347569Y-146433819D01*
X142439195Y-146312486D01*
X142534898Y-146120289D01*
X142593653Y-145913788D01*
X142605703Y-145783742D01*
X142613463Y-145700000D01*
X142608830Y-145650000D01*
X142986537Y-145650000D01*
X143006346Y-145863788D01*
X143065101Y-146070289D01*
X143160804Y-146262486D01*
X143290188Y-146433819D01*
X143345036Y-146483819D01*
X143448857Y-146578464D01*
X143529609Y-146628463D01*
X143631401Y-146691490D01*
X143812938Y-146761818D01*
X143831603Y-146769049D01*
X144042649Y-146808500D01*
X144042651Y-146808500D01*
X144257349Y-146808500D01*
X144257351Y-146808500D01*
X144468397Y-146769049D01*
X144601865Y-146717342D01*
X144668598Y-146691490D01*
X144668600Y-146691489D01*
X144851143Y-146578464D01*
X145009810Y-146433820D01*
X145101438Y-146312484D01*
X145139195Y-146262486D01*
X145234898Y-146070289D01*
X145293653Y-145863788D01*
X145296939Y-145828323D01*
X145322724Y-145763385D01*
X145332721Y-145752090D01*
X145584951Y-145499860D01*
X145599732Y-145487235D01*
X145611253Y-145478866D01*
X145657062Y-145427988D01*
X145661517Y-145423295D01*
X145673773Y-145411040D01*
X145673774Y-145411038D01*
X145676072Y-145408741D01*
X145689043Y-145392722D01*
X145693228Y-145387822D01*
X145739040Y-145336944D01*
X145746156Y-145324617D01*
X145757167Y-145308595D01*
X145766129Y-145297530D01*
X145797211Y-145236527D01*
X145800291Y-145230853D01*
X145834527Y-145171556D01*
X145838921Y-145158029D01*
X145846372Y-145140043D01*
X145852830Y-145127370D01*
X145852829Y-145127369D01*
X145870552Y-145061223D01*
X145872384Y-145055042D01*
X145893542Y-144989928D01*
X145895029Y-144975766D01*
X145898573Y-144956648D01*
X145902257Y-144942903D01*
X145905839Y-144874536D01*
X145906348Y-144868081D01*
X145908161Y-144850837D01*
X145908161Y-144850833D01*
X145908500Y-144847610D01*
X145908500Y-144827027D01*
X145908670Y-144820537D01*
X145912252Y-144752190D01*
X145910027Y-144738141D01*
X145908500Y-144718743D01*
X145908500Y-127960903D01*
X145928185Y-127893864D01*
X145933539Y-127886184D01*
X145989196Y-127812484D01*
X146084897Y-127620291D01*
X146084898Y-127620289D01*
X146143653Y-127413788D01*
X146150842Y-127336203D01*
X146163463Y-127200000D01*
X146143653Y-126986214D01*
X146143653Y-126986211D01*
X146084898Y-126779710D01*
X145989195Y-126587513D01*
X145859811Y-126416180D01*
X145701143Y-126271536D01*
X145518598Y-126158509D01*
X145318401Y-126080952D01*
X145318398Y-126080951D01*
X145318397Y-126080951D01*
X145107351Y-126041500D01*
X144892649Y-126041500D01*
X144681603Y-126080951D01*
X144681598Y-126080952D01*
X144481401Y-126158509D01*
X144298856Y-126271536D01*
X144140188Y-126416180D01*
X144010804Y-126587513D01*
X143915101Y-126779710D01*
X143856346Y-126986211D01*
X143836537Y-127200000D01*
X143856346Y-127413788D01*
X143915101Y-127620289D01*
X144010803Y-127812483D01*
X144010804Y-127812484D01*
X144066454Y-127886177D01*
X144091146Y-127951537D01*
X144091500Y-127960903D01*
X144091500Y-144372323D01*
X144071815Y-144439362D01*
X144055176Y-144460009D01*
X144046473Y-144468711D01*
X143985148Y-144502193D01*
X143981583Y-144502913D01*
X143831602Y-144530950D01*
X143631401Y-144608509D01*
X143448856Y-144721536D01*
X143290188Y-144866180D01*
X143160804Y-145037513D01*
X143065101Y-145229710D01*
X143006346Y-145436211D01*
X142986537Y-145650000D01*
X142608830Y-145650000D01*
X142594918Y-145499866D01*
X142593653Y-145486211D01*
X142534898Y-145279710D01*
X142474308Y-145158031D01*
X142439196Y-145087516D01*
X142383545Y-145013821D01*
X142358854Y-144948460D01*
X142358500Y-144939095D01*
X142358500Y-126231256D01*
X142360027Y-126211858D01*
X142360033Y-126211816D01*
X142362252Y-126197810D01*
X142358670Y-126129460D01*
X142358500Y-126122971D01*
X142358500Y-126105631D01*
X142358500Y-126102390D01*
X142356347Y-126081913D01*
X142355839Y-126075459D01*
X142352257Y-126007097D01*
X142348575Y-125993358D01*
X142345029Y-125974222D01*
X142343542Y-125960073D01*
X142322387Y-125894965D01*
X142320543Y-125888738D01*
X142302831Y-125822631D01*
X142296370Y-125809952D01*
X142288923Y-125791974D01*
X142288433Y-125790466D01*
X142284527Y-125778444D01*
X142250302Y-125719163D01*
X142247211Y-125713471D01*
X142216130Y-125652472D01*
X142216129Y-125652470D01*
X142207163Y-125641398D01*
X142196157Y-125625383D01*
X142189040Y-125613056D01*
X142178160Y-125600973D01*
X142143239Y-125562187D01*
X142139027Y-125557255D01*
X142128121Y-125543788D01*
X142128111Y-125543777D01*
X142126072Y-125541259D01*
X142111520Y-125526707D01*
X142107051Y-125521998D01*
X142061251Y-125471132D01*
X142049741Y-125462769D01*
X142034946Y-125450133D01*
X134582729Y-117997916D01*
X134549244Y-117936593D01*
X134546939Y-117921676D01*
X134543653Y-117886214D01*
X134533670Y-117851129D01*
X134484898Y-117679710D01*
X134389195Y-117487513D01*
X134259811Y-117316180D01*
X134101143Y-117171536D01*
X133918598Y-117058509D01*
X133718401Y-116980952D01*
X133718398Y-116980951D01*
X133718397Y-116980951D01*
X133507351Y-116941500D01*
X133292649Y-116941500D01*
X133081603Y-116980951D01*
X133081598Y-116980952D01*
X132881401Y-117058509D01*
X132698856Y-117171536D01*
X132540188Y-117316180D01*
X132410804Y-117487513D01*
X132315101Y-117679710D01*
X132256346Y-117886211D01*
X132236537Y-118100000D01*
X91000000Y-118100000D01*
X91000000Y-114150000D01*
X122436537Y-114150000D01*
X122456346Y-114363788D01*
X122515101Y-114570289D01*
X122610804Y-114762486D01*
X122740188Y-114933819D01*
X122883473Y-115064440D01*
X122898857Y-115078464D01*
X122990128Y-115134976D01*
X123081401Y-115191490D01*
X123262938Y-115261818D01*
X123281603Y-115269049D01*
X123492649Y-115308500D01*
X123492651Y-115308500D01*
X123707349Y-115308500D01*
X123707351Y-115308500D01*
X123918397Y-115269049D01*
X124051865Y-115217342D01*
X124118598Y-115191490D01*
X124118600Y-115191489D01*
X124301143Y-115078464D01*
X124459810Y-114933820D01*
X124459811Y-114933819D01*
X124589195Y-114762486D01*
X124684898Y-114570289D01*
X124743653Y-114363788D01*
X124746939Y-114328323D01*
X124772724Y-114263385D01*
X124782720Y-114252091D01*
X125439993Y-113594819D01*
X125501317Y-113561334D01*
X125527675Y-113558500D01*
X127931333Y-113558500D01*
X127996610Y-113577073D01*
X128181401Y-113691490D01*
X128362938Y-113761818D01*
X128381603Y-113769049D01*
X128592649Y-113808500D01*
X128592651Y-113808500D01*
X128807349Y-113808500D01*
X128807351Y-113808500D01*
X129018397Y-113769049D01*
X129151865Y-113717342D01*
X129218598Y-113691490D01*
X129218600Y-113691489D01*
X129401143Y-113578464D01*
X129559810Y-113433820D01*
X129610889Y-113366180D01*
X129689195Y-113262486D01*
X129784898Y-113070289D01*
X129843653Y-112863788D01*
X129846750Y-112830362D01*
X129863463Y-112650000D01*
X129843653Y-112436214D01*
X129843653Y-112436211D01*
X129784898Y-112229710D01*
X129689195Y-112037513D01*
X129559811Y-111866180D01*
X129401143Y-111721536D01*
X129218598Y-111608509D01*
X129018401Y-111530952D01*
X129018398Y-111530951D01*
X129018397Y-111530951D01*
X128807351Y-111491500D01*
X128592649Y-111491500D01*
X128381603Y-111530951D01*
X128381598Y-111530952D01*
X128181401Y-111608509D01*
X127996610Y-111722927D01*
X127931333Y-111741500D01*
X125181255Y-111741500D01*
X125161857Y-111739973D01*
X125147809Y-111737748D01*
X125079462Y-111741330D01*
X125072972Y-111741500D01*
X125052390Y-111741500D01*
X125049176Y-111741837D01*
X125049170Y-111741838D01*
X125031917Y-111743651D01*
X125025456Y-111744159D01*
X124957091Y-111747743D01*
X124943344Y-111751426D01*
X124924222Y-111754970D01*
X124910072Y-111756457D01*
X124844961Y-111777613D01*
X124838762Y-111779449D01*
X124804010Y-111788762D01*
X124772624Y-111797172D01*
X124759950Y-111803630D01*
X124741992Y-111811069D01*
X124728445Y-111815471D01*
X124669169Y-111849694D01*
X124663468Y-111852790D01*
X124602467Y-111883872D01*
X124591403Y-111892831D01*
X124575386Y-111903839D01*
X124563059Y-111910957D01*
X124512188Y-111956759D01*
X124507264Y-111960964D01*
X124493786Y-111971880D01*
X124493769Y-111971894D01*
X124491259Y-111973928D01*
X124488987Y-111976199D01*
X124488959Y-111976225D01*
X124476694Y-111988491D01*
X124471989Y-111992956D01*
X124421133Y-112038747D01*
X124412769Y-112050259D01*
X124400136Y-112065049D01*
X123496479Y-112968706D01*
X123435156Y-113002191D01*
X123431584Y-113002913D01*
X123281602Y-113030950D01*
X123081401Y-113108509D01*
X122898856Y-113221536D01*
X122740188Y-113366180D01*
X122610804Y-113537513D01*
X122515101Y-113729710D01*
X122456346Y-113936211D01*
X122436537Y-114150000D01*
X91000000Y-114150000D01*
X91000000Y-109244518D01*
X179300000Y-109244518D01*
X179300354Y-109251132D01*
X179306400Y-109307371D01*
X179356647Y-109442089D01*
X179442811Y-109557188D01*
X179557910Y-109643352D01*
X179692628Y-109693599D01*
X179748867Y-109699645D01*
X179755482Y-109700000D01*
X180750000Y-109700000D01*
X180750000Y-108545881D01*
X180843369Y-108584556D01*
X180960677Y-108600000D01*
X181039323Y-108600000D01*
X181156631Y-108584556D01*
X181250000Y-108545881D01*
X181250000Y-109700000D01*
X182244518Y-109700000D01*
X182251132Y-109699645D01*
X182307371Y-109693599D01*
X182442089Y-109643352D01*
X182557188Y-109557188D01*
X182643352Y-109442089D01*
X182693599Y-109307371D01*
X182699645Y-109251132D01*
X182700000Y-109244518D01*
X182700000Y-108250000D01*
X181545882Y-108250000D01*
X181584556Y-108156631D01*
X181605177Y-108000000D01*
X184286708Y-108000000D01*
X184305844Y-108255350D01*
X184362826Y-108505003D01*
X184456377Y-108743367D01*
X184584412Y-108965130D01*
X184744069Y-109165334D01*
X184931778Y-109339503D01*
X184931781Y-109339505D01*
X185143355Y-109483754D01*
X185374065Y-109594858D01*
X185618757Y-109670335D01*
X185871966Y-109708500D01*
X186128034Y-109708500D01*
X186381243Y-109670335D01*
X186625935Y-109594858D01*
X186856646Y-109483754D01*
X187068219Y-109339505D01*
X187255931Y-109165334D01*
X187415587Y-108965131D01*
X187543622Y-108743369D01*
X187637174Y-108505001D01*
X187694155Y-108255353D01*
X187713291Y-108000000D01*
X189936537Y-108000000D01*
X189956346Y-108213788D01*
X190015101Y-108420289D01*
X190110804Y-108612486D01*
X190240188Y-108783819D01*
X190383473Y-108914439D01*
X190398857Y-108928464D01*
X190458075Y-108965130D01*
X190581401Y-109041490D01*
X190762938Y-109111818D01*
X190781603Y-109119049D01*
X190992649Y-109158500D01*
X190992651Y-109158500D01*
X191207349Y-109158500D01*
X191207351Y-109158500D01*
X191418397Y-109119049D01*
X191551865Y-109067342D01*
X191618598Y-109041490D01*
X191664000Y-109013379D01*
X191788583Y-108936241D01*
X191803390Y-108927073D01*
X191868667Y-108908500D01*
X194529237Y-108908500D01*
X194587688Y-108923141D01*
X194612196Y-108936241D01*
X194802299Y-108993908D01*
X195000000Y-109013380D01*
X195197701Y-108993908D01*
X195387804Y-108936241D01*
X195563004Y-108842595D01*
X195716568Y-108716568D01*
X195732879Y-108696692D01*
X195790625Y-108657358D01*
X195828733Y-108651357D01*
X199873976Y-108651357D01*
X199873976Y-105973643D01*
X195348643Y-105973643D01*
X195348643Y-106884684D01*
X195328958Y-106951723D01*
X195276154Y-106997478D01*
X195209882Y-107007006D01*
X195209855Y-107007289D01*
X195208707Y-107007175D01*
X195206996Y-107007422D01*
X195203640Y-107006676D01*
X195000000Y-106986620D01*
X194802301Y-107006091D01*
X194738931Y-107025314D01*
X194612196Y-107063759D01*
X194587688Y-107076858D01*
X194529237Y-107091500D01*
X191868667Y-107091500D01*
X191803390Y-107072927D01*
X191618598Y-106958509D01*
X191418401Y-106880952D01*
X191418398Y-106880951D01*
X191418397Y-106880951D01*
X191207351Y-106841500D01*
X190992649Y-106841500D01*
X190781603Y-106880951D01*
X190781598Y-106880952D01*
X190581401Y-106958509D01*
X190398856Y-107071536D01*
X190240188Y-107216180D01*
X190110804Y-107387513D01*
X190015101Y-107579710D01*
X189956346Y-107786211D01*
X189936537Y-108000000D01*
X187713291Y-108000000D01*
X187694155Y-107744647D01*
X187637174Y-107494999D01*
X187543622Y-107256631D01*
X187415587Y-107034869D01*
X187255931Y-106834666D01*
X187163462Y-106748867D01*
X187068221Y-106660496D01*
X186917755Y-106557910D01*
X186856646Y-106516246D01*
X186856643Y-106516245D01*
X186856641Y-106516243D01*
X186625935Y-106405142D01*
X186381244Y-106329665D01*
X186128034Y-106291500D01*
X185871966Y-106291500D01*
X185618755Y-106329665D01*
X185374066Y-106405141D01*
X185295844Y-106442811D01*
X185143355Y-106516246D01*
X185088758Y-106553469D01*
X184931778Y-106660496D01*
X184744069Y-106834665D01*
X184584412Y-107034869D01*
X184456377Y-107256632D01*
X184362826Y-107494996D01*
X184305844Y-107744649D01*
X184286708Y-108000000D01*
X181605177Y-108000000D01*
X181584556Y-107843369D01*
X181545882Y-107750000D01*
X182700000Y-107750000D01*
X182700000Y-106755481D01*
X182699645Y-106748867D01*
X182693599Y-106692628D01*
X182643352Y-106557910D01*
X182557188Y-106442811D01*
X182442089Y-106356647D01*
X182307371Y-106306400D01*
X182251132Y-106300354D01*
X182244518Y-106300000D01*
X181250000Y-106300000D01*
X181250000Y-107454118D01*
X181156631Y-107415444D01*
X181039323Y-107400000D01*
X180960677Y-107400000D01*
X180843369Y-107415444D01*
X180750000Y-107454118D01*
X180750000Y-106300000D01*
X179755482Y-106300000D01*
X179748867Y-106300354D01*
X179692628Y-106306400D01*
X179557910Y-106356647D01*
X179442811Y-106442811D01*
X179356647Y-106557910D01*
X179306400Y-106692628D01*
X179300354Y-106748867D01*
X179300000Y-106755481D01*
X179300000Y-107750000D01*
X180454118Y-107750000D01*
X180415444Y-107843369D01*
X180394823Y-108000000D01*
X180415444Y-108156631D01*
X180454118Y-108250000D01*
X179300000Y-108250000D01*
X179300000Y-109244518D01*
X91000000Y-109244518D01*
X91000000Y-97121061D01*
X131491500Y-97121061D01*
X131531351Y-97359885D01*
X131609969Y-97588886D01*
X131609970Y-97588888D01*
X131725208Y-97801830D01*
X131873924Y-97992900D01*
X132052060Y-98156886D01*
X132254758Y-98289315D01*
X132476488Y-98386575D01*
X132711203Y-98446013D01*
X132892073Y-98461000D01*
X132894643Y-98461000D01*
X133105357Y-98461000D01*
X133107927Y-98461000D01*
X133288797Y-98446013D01*
X133523512Y-98386575D01*
X133745242Y-98289315D01*
X133947940Y-98156886D01*
X134126076Y-97992900D01*
X134274792Y-97801830D01*
X134390030Y-97588888D01*
X134429339Y-97474385D01*
X134468648Y-97359885D01*
X134508500Y-97121061D01*
X134508500Y-96878938D01*
X134468648Y-96640114D01*
X134390030Y-96411113D01*
X134390030Y-96411112D01*
X134274792Y-96198170D01*
X134126076Y-96007100D01*
X133947940Y-95843114D01*
X133947937Y-95843112D01*
X133947936Y-95843111D01*
X133925926Y-95828731D01*
X133880569Y-95775585D01*
X133871146Y-95706353D01*
X133900648Y-95643018D01*
X133925928Y-95621113D01*
X133942702Y-95610154D01*
X134119801Y-95447122D01*
X134267651Y-95257164D01*
X134382219Y-95045460D01*
X134460380Y-94817792D01*
X134478367Y-94710000D01*
X133494852Y-94710000D01*
X133543559Y-94572953D01*
X133553877Y-94422114D01*
X133523116Y-94274085D01*
X133489910Y-94210000D01*
X134478366Y-94210000D01*
X134478366Y-94209999D01*
X134460380Y-94102207D01*
X134382219Y-93874539D01*
X134267652Y-93662836D01*
X134161825Y-93526869D01*
X134136183Y-93461875D01*
X134149750Y-93393335D01*
X134198218Y-93343010D01*
X134216339Y-93334527D01*
X134246204Y-93323389D01*
X134363261Y-93235761D01*
X134450889Y-93118704D01*
X134495527Y-92999026D01*
X134501988Y-92981705D01*
X134501988Y-92981703D01*
X134501989Y-92981701D01*
X134508500Y-92921138D01*
X134508500Y-90918862D01*
X134501989Y-90858299D01*
X134501988Y-90858297D01*
X134501988Y-90858294D01*
X134450889Y-90721296D01*
X134363261Y-90604238D01*
X134246203Y-90516610D01*
X134109205Y-90465511D01*
X134051924Y-90459353D01*
X134051918Y-90459352D01*
X134048638Y-90459000D01*
X131951362Y-90459000D01*
X131948082Y-90459352D01*
X131948075Y-90459353D01*
X131890794Y-90465511D01*
X131753796Y-90516610D01*
X131636738Y-90604238D01*
X131549110Y-90721296D01*
X131498011Y-90858294D01*
X131496074Y-90876312D01*
X131491500Y-90918862D01*
X131491500Y-92921138D01*
X131491852Y-92924418D01*
X131491853Y-92924424D01*
X131498011Y-92981705D01*
X131549110Y-93118703D01*
X131636738Y-93235761D01*
X131753793Y-93323387D01*
X131753796Y-93323389D01*
X131783655Y-93334526D01*
X131839587Y-93376397D01*
X131864004Y-93441862D01*
X131849152Y-93510134D01*
X131838174Y-93526869D01*
X131732347Y-93662835D01*
X131617780Y-93874539D01*
X131539619Y-94102207D01*
X131521633Y-94209999D01*
X131521634Y-94210000D01*
X132505148Y-94210000D01*
X132456441Y-94347047D01*
X132446123Y-94497886D01*
X132476884Y-94645915D01*
X132510090Y-94710000D01*
X131521633Y-94710000D01*
X131539619Y-94817792D01*
X131617780Y-95045460D01*
X131732348Y-95257164D01*
X131880198Y-95447122D01*
X132057297Y-95610153D01*
X132074073Y-95621114D01*
X132119429Y-95674261D01*
X132128853Y-95743492D01*
X132099351Y-95806828D01*
X132074073Y-95828731D01*
X132052058Y-95843113D01*
X131873923Y-96007099D01*
X131728044Y-96194526D01*
X131725208Y-96198170D01*
X131673269Y-96294144D01*
X131609969Y-96411113D01*
X131531351Y-96640114D01*
X131491500Y-96878938D01*
X131491500Y-97121061D01*
X91000000Y-97121061D01*
X91000000Y-89340091D01*
X96041500Y-89340091D01*
X96041501Y-89343221D01*
X96041820Y-89346352D01*
X96041821Y-89346355D01*
X96052112Y-89447102D01*
X96107884Y-89615413D01*
X96200971Y-89766331D01*
X96326345Y-89891705D01*
X96326347Y-89891706D01*
X96326348Y-89891707D01*
X96477262Y-89984792D01*
X96530612Y-90002470D01*
X96645573Y-90040564D01*
X96691602Y-90045266D01*
X96749455Y-90051177D01*
X97800544Y-90051176D01*
X97904426Y-90040564D01*
X98072738Y-89984792D01*
X98223652Y-89891707D01*
X98253774Y-89861585D01*
X98359279Y-89756081D01*
X98361286Y-89758088D01*
X98397119Y-89725857D01*
X98450713Y-89713677D01*
X99111344Y-89713677D01*
X99174320Y-89713677D01*
X99181529Y-89713886D01*
X99244403Y-89717549D01*
X99255679Y-89715561D01*
X99277211Y-89713677D01*
X100985706Y-89713677D01*
X101003676Y-89714986D01*
X101007114Y-89715489D01*
X101027789Y-89718518D01*
X101077726Y-89714148D01*
X101088533Y-89713677D01*
X101090571Y-89713677D01*
X101094180Y-89713677D01*
X101125370Y-89710030D01*
X101128851Y-89709675D01*
X101204426Y-89703064D01*
X101204429Y-89703062D01*
X101205594Y-89702961D01*
X101225014Y-89698655D01*
X101226109Y-89698256D01*
X101226113Y-89698256D01*
X101266229Y-89683654D01*
X101308639Y-89676177D01*
X101714057Y-89676177D01*
X101716502Y-89676177D01*
X101753831Y-89673239D01*
X101913601Y-89626822D01*
X102056807Y-89542130D01*
X102057489Y-89541448D01*
X102185530Y-89413408D01*
X102188332Y-89416210D01*
X102219294Y-89387280D01*
X102288030Y-89374750D01*
X102352630Y-89401371D01*
X102363717Y-89414160D01*
X102364470Y-89413408D01*
X102493191Y-89542129D01*
X102636399Y-89626822D01*
X102796165Y-89673238D01*
X102796169Y-89673239D01*
X102833498Y-89676177D01*
X102835943Y-89676177D01*
X103989057Y-89676177D01*
X103991502Y-89676177D01*
X104028831Y-89673239D01*
X104188601Y-89626822D01*
X104199165Y-89620574D01*
X104266885Y-89603389D01*
X104333149Y-89625546D01*
X104340947Y-89631446D01*
X104436996Y-89710272D01*
X104612196Y-89803918D01*
X104802299Y-89861585D01*
X104950453Y-89876177D01*
X107744358Y-89876177D01*
X107756511Y-89876773D01*
X107800000Y-89881057D01*
X107997701Y-89861586D01*
X108187804Y-89803918D01*
X108258128Y-89766329D01*
X108363004Y-89710272D01*
X108516568Y-89584245D01*
X108544299Y-89550453D01*
X108552451Y-89541458D01*
X112521414Y-85572496D01*
X112582738Y-85539011D01*
X112609096Y-85536177D01*
X115125453Y-85536177D01*
X117434358Y-85536177D01*
X117446511Y-85536773D01*
X117490000Y-85541057D01*
X117687701Y-85521586D01*
X117877804Y-85463918D01*
X118053004Y-85370272D01*
X118206568Y-85244245D01*
X118234299Y-85210453D01*
X118242451Y-85201458D01*
X118873781Y-84570128D01*
X118882776Y-84561976D01*
X118916568Y-84534245D01*
X119042595Y-84380681D01*
X119136241Y-84205481D01*
X119148078Y-84166461D01*
X119168157Y-84100272D01*
X119187915Y-84035135D01*
X119193909Y-84015377D01*
X119213380Y-83817677D01*
X119212733Y-83811107D01*
X119209097Y-83774187D01*
X119208500Y-83762034D01*
X119208500Y-83273326D01*
X119209097Y-83261172D01*
X119209188Y-83260240D01*
X119213381Y-83217677D01*
X119209097Y-83174180D01*
X119208500Y-83162026D01*
X119208500Y-82023316D01*
X119209097Y-82011162D01*
X119213380Y-81967677D01*
X119209097Y-81924190D01*
X119208500Y-81912036D01*
X119208500Y-80723316D01*
X119209097Y-80711162D01*
X119213380Y-80667676D01*
X119209097Y-80624187D01*
X119208500Y-80612034D01*
X119208500Y-78950000D01*
X121794858Y-78950000D01*
X121815386Y-79197732D01*
X121876413Y-79438721D01*
X121976268Y-79666370D01*
X122076563Y-79819882D01*
X122076564Y-79819882D01*
X122816923Y-79079523D01*
X122840507Y-79159844D01*
X122918239Y-79280798D01*
X123026900Y-79374952D01*
X123157685Y-79434680D01*
X123167466Y-79436086D01*
X122429942Y-80173609D01*
X122429942Y-80173610D01*
X122476766Y-80210055D01*
X122695393Y-80328368D01*
X122930506Y-80409083D01*
X123175707Y-80450000D01*
X123424293Y-80450000D01*
X123669493Y-80409083D01*
X123904606Y-80328368D01*
X124123233Y-80210053D01*
X124170056Y-80173609D01*
X123432533Y-79436086D01*
X123442315Y-79434680D01*
X123573100Y-79374952D01*
X123681761Y-79280798D01*
X123759493Y-79159844D01*
X123783076Y-79079524D01*
X124523434Y-79819882D01*
X124623730Y-79666369D01*
X124723586Y-79438721D01*
X124784613Y-79197732D01*
X124805141Y-78950000D01*
X124784613Y-78702267D01*
X124723586Y-78461278D01*
X124623730Y-78233630D01*
X124523434Y-78080116D01*
X123783076Y-78820475D01*
X123759493Y-78740156D01*
X123681761Y-78619202D01*
X123573100Y-78525048D01*
X123442315Y-78465320D01*
X123432532Y-78463913D01*
X124170056Y-77726389D01*
X124170056Y-77726387D01*
X124123235Y-77689947D01*
X123904606Y-77571631D01*
X123669493Y-77490916D01*
X123424293Y-77450000D01*
X123175707Y-77450000D01*
X122930506Y-77490916D01*
X122695393Y-77571631D01*
X122476764Y-77689946D01*
X122429942Y-77726388D01*
X122429942Y-77726390D01*
X123167464Y-78463913D01*
X123157685Y-78465320D01*
X123026900Y-78525048D01*
X122918239Y-78619202D01*
X122840507Y-78740156D01*
X122816923Y-78820475D01*
X122076564Y-78080116D01*
X121976266Y-78233634D01*
X121876413Y-78461278D01*
X121815386Y-78702267D01*
X121794858Y-78950000D01*
X119208500Y-78950000D01*
X119208500Y-75873318D01*
X119209097Y-75861164D01*
X119213380Y-75817677D01*
X119193909Y-75619976D01*
X119144925Y-75458500D01*
X119136241Y-75429873D01*
X119042595Y-75254673D01*
X118916568Y-75101109D01*
X118882784Y-75073383D01*
X118873769Y-75065212D01*
X118807195Y-74998638D01*
X121791500Y-74998638D01*
X121791852Y-75001918D01*
X121791853Y-75001924D01*
X121798011Y-75059205D01*
X121849110Y-75196203D01*
X121936738Y-75313261D01*
X122053796Y-75400889D01*
X122190794Y-75451988D01*
X122190797Y-75451988D01*
X122190799Y-75451989D01*
X122251362Y-75458500D01*
X122254672Y-75458500D01*
X124345328Y-75458500D01*
X124348638Y-75458500D01*
X124409201Y-75451989D01*
X124409203Y-75451988D01*
X124409205Y-75451988D01*
X124531581Y-75406343D01*
X124546204Y-75400889D01*
X124663261Y-75313261D01*
X124750889Y-75196204D01*
X124786358Y-75101109D01*
X124801988Y-75059205D01*
X124801988Y-75059203D01*
X124801989Y-75059201D01*
X124808500Y-74998638D01*
X124808500Y-72901362D01*
X124801989Y-72840799D01*
X124801988Y-72840797D01*
X124801988Y-72840794D01*
X124750889Y-72703796D01*
X124663261Y-72586738D01*
X124546203Y-72499110D01*
X124409205Y-72448011D01*
X124351924Y-72441853D01*
X124351918Y-72441852D01*
X124348638Y-72441500D01*
X122251362Y-72441500D01*
X122248082Y-72441852D01*
X122248075Y-72441853D01*
X122190794Y-72448011D01*
X122053796Y-72499110D01*
X121936738Y-72586738D01*
X121849110Y-72703796D01*
X121798011Y-72840794D01*
X121791853Y-72898075D01*
X121791500Y-72901362D01*
X121791500Y-74998638D01*
X118807195Y-74998638D01*
X117439067Y-73630510D01*
X117407482Y-73576763D01*
X117384898Y-73497387D01*
X117289195Y-73305190D01*
X117159811Y-73133857D01*
X117001143Y-72989213D01*
X116818598Y-72876186D01*
X116618401Y-72798629D01*
X116618398Y-72798628D01*
X116618397Y-72798628D01*
X116407351Y-72759177D01*
X116192649Y-72759177D01*
X116192648Y-72759177D01*
X116155283Y-72766161D01*
X116085768Y-72759129D01*
X116031090Y-72715630D01*
X116008609Y-72649476D01*
X116008500Y-72644272D01*
X116008500Y-72473318D01*
X116009097Y-72461164D01*
X116010604Y-72445862D01*
X116013380Y-72417677D01*
X115993909Y-72219977D01*
X115936242Y-72029874D01*
X115920274Y-72000000D01*
X115892650Y-71948319D01*
X115842595Y-71854673D01*
X115716568Y-71701109D01*
X115682789Y-71673387D01*
X115673773Y-71665215D01*
X115673771Y-71665213D01*
X115044816Y-71036258D01*
X115011333Y-70974938D01*
X115008500Y-70948589D01*
X115008500Y-69700000D01*
X120236537Y-69700000D01*
X120256346Y-69913788D01*
X120315101Y-70120289D01*
X120410804Y-70312486D01*
X120540188Y-70483819D01*
X120673478Y-70605328D01*
X120698857Y-70628464D01*
X120790128Y-70684976D01*
X120881401Y-70741490D01*
X121062938Y-70811818D01*
X121081603Y-70819049D01*
X121292649Y-70858500D01*
X121292651Y-70858500D01*
X121507349Y-70858500D01*
X121507351Y-70858500D01*
X121718397Y-70819049D01*
X121918600Y-70741489D01*
X121941882Y-70727073D01*
X122007161Y-70708500D01*
X125580904Y-70708500D01*
X125647943Y-70728185D01*
X125668585Y-70744819D01*
X125855181Y-70931415D01*
X125888666Y-70992738D01*
X125891500Y-71019096D01*
X125891500Y-82397118D01*
X125878500Y-82452389D01*
X125815102Y-82579708D01*
X125756346Y-82786211D01*
X125736537Y-83000000D01*
X125756346Y-83213788D01*
X125815101Y-83420289D01*
X125910804Y-83612486D01*
X126033466Y-83774917D01*
X126058158Y-83840278D01*
X126043593Y-83908613D01*
X125994395Y-83958225D01*
X125934512Y-83973643D01*
X124667142Y-83973643D01*
X124600103Y-83953958D01*
X124567875Y-83923953D01*
X124508678Y-83844875D01*
X124416230Y-83937324D01*
X124354907Y-83970809D01*
X124351063Y-83971222D01*
X124340289Y-83981996D01*
X124328958Y-84020587D01*
X124312324Y-84041229D01*
X123640140Y-84713412D01*
X123580320Y-84599434D01*
X123467595Y-84472194D01*
X123327695Y-84375629D01*
X123286457Y-84359989D01*
X124155124Y-83491321D01*
X124155124Y-83491320D01*
X124029842Y-83397536D01*
X123791307Y-83267287D01*
X123536654Y-83172305D01*
X123271089Y-83114536D01*
X122999999Y-83095146D01*
X122728910Y-83114536D01*
X122463345Y-83172305D01*
X122208692Y-83267286D01*
X121970162Y-83397534D01*
X121844875Y-83491321D01*
X122713543Y-84359989D01*
X122672305Y-84375629D01*
X122532405Y-84472194D01*
X122419680Y-84599434D01*
X122359859Y-84713413D01*
X121491321Y-83844875D01*
X121397534Y-83970162D01*
X121267286Y-84208692D01*
X121172305Y-84463345D01*
X121114536Y-84728910D01*
X121095146Y-85000000D01*
X121114536Y-85271089D01*
X121172305Y-85536654D01*
X121267287Y-85791307D01*
X121397536Y-86029842D01*
X121491320Y-86155124D01*
X121491321Y-86155124D01*
X122359859Y-85286586D01*
X122419680Y-85400566D01*
X122532405Y-85527806D01*
X122672305Y-85624371D01*
X122713542Y-85640010D01*
X121844874Y-86508677D01*
X121844875Y-86508678D01*
X121970157Y-86602463D01*
X122208692Y-86732712D01*
X122463345Y-86827694D01*
X122728910Y-86885463D01*
X123000000Y-86904853D01*
X123271089Y-86885463D01*
X123536654Y-86827694D01*
X123791307Y-86732712D01*
X124029839Y-86602465D01*
X124150332Y-86512265D01*
X124215797Y-86487848D01*
X124284070Y-86502700D01*
X124333475Y-86552105D01*
X124348643Y-86611532D01*
X124348643Y-86651357D01*
X131635881Y-86651357D01*
X131635881Y-86537580D01*
X131655566Y-86470541D01*
X131708370Y-86424786D01*
X131777528Y-86414842D01*
X131841084Y-86443867D01*
X131870881Y-86482309D01*
X131910803Y-86562484D01*
X132040188Y-86733819D01*
X132183473Y-86864440D01*
X132198857Y-86878464D01*
X132241477Y-86904853D01*
X132381401Y-86991490D01*
X132562938Y-87061818D01*
X132581603Y-87069049D01*
X132792649Y-87108500D01*
X132792651Y-87108500D01*
X133007349Y-87108500D01*
X133007351Y-87108500D01*
X133218397Y-87069049D01*
X133374902Y-87008418D01*
X133418598Y-86991490D01*
X133603390Y-86877073D01*
X133668667Y-86858500D01*
X136622325Y-86858500D01*
X136689364Y-86878185D01*
X136710006Y-86894819D01*
X140655181Y-90839993D01*
X140688666Y-90901316D01*
X140691500Y-90927674D01*
X140691500Y-98189095D01*
X140671815Y-98256134D01*
X140666455Y-98263821D01*
X140610803Y-98337517D01*
X140515101Y-98529710D01*
X140456346Y-98736211D01*
X140436537Y-98949999D01*
X140456346Y-99163788D01*
X140515101Y-99370289D01*
X140610803Y-99562483D01*
X140610804Y-99562484D01*
X140666454Y-99636177D01*
X140691146Y-99701537D01*
X140691500Y-99710903D01*
X140691500Y-100718743D01*
X140689973Y-100738141D01*
X140687748Y-100752188D01*
X140691330Y-100820537D01*
X140691500Y-100827027D01*
X140691500Y-100847610D01*
X140691837Y-100850826D01*
X140691838Y-100850827D01*
X140693651Y-100868081D01*
X140694159Y-100874543D01*
X140697742Y-100942899D01*
X140697742Y-100942902D01*
X140697743Y-100942903D01*
X140701426Y-100956648D01*
X140704969Y-100975768D01*
X140706457Y-100989926D01*
X140727613Y-101055038D01*
X140729449Y-101061237D01*
X140737525Y-101091374D01*
X140747171Y-101127373D01*
X140753630Y-101140049D01*
X140761074Y-101158019D01*
X140765472Y-101171555D01*
X140765473Y-101171556D01*
X140799706Y-101230849D01*
X140802796Y-101236541D01*
X140833871Y-101297530D01*
X140842828Y-101308592D01*
X140853844Y-101324621D01*
X140860958Y-101336943D01*
X140906760Y-101387811D01*
X140910974Y-101392745D01*
X140923928Y-101408741D01*
X140926224Y-101411037D01*
X140938478Y-101423291D01*
X140942947Y-101428000D01*
X140988747Y-101478866D01*
X141000257Y-101487228D01*
X141015051Y-101499864D01*
X143020133Y-103504946D01*
X143032769Y-103519741D01*
X143041132Y-103531251D01*
X143091998Y-103577051D01*
X143096707Y-103581520D01*
X143111259Y-103596072D01*
X143113777Y-103598111D01*
X143113788Y-103598121D01*
X143127255Y-103609027D01*
X143132187Y-103613239D01*
X143170973Y-103648160D01*
X143183056Y-103659040D01*
X143195383Y-103666157D01*
X143211398Y-103677163D01*
X143222470Y-103686129D01*
X143222472Y-103686130D01*
X143283471Y-103717211D01*
X143289163Y-103720302D01*
X143348444Y-103754527D01*
X143360466Y-103758433D01*
X143361974Y-103758923D01*
X143379952Y-103766370D01*
X143392631Y-103772831D01*
X143458738Y-103790543D01*
X143464965Y-103792387D01*
X143490940Y-103800827D01*
X143530072Y-103813542D01*
X143536761Y-103814244D01*
X143544222Y-103815029D01*
X143563358Y-103818575D01*
X143577097Y-103822257D01*
X143645459Y-103825839D01*
X143651913Y-103826347D01*
X143672390Y-103828500D01*
X143692973Y-103828500D01*
X143699462Y-103828669D01*
X143767810Y-103832252D01*
X143781859Y-103830026D01*
X143801256Y-103828500D01*
X144529237Y-103828500D01*
X144587688Y-103843141D01*
X144612196Y-103856241D01*
X144802299Y-103913908D01*
X145000000Y-103933380D01*
X145197701Y-103913908D01*
X145387804Y-103856241D01*
X145563004Y-103762595D01*
X145664250Y-103679504D01*
X145728561Y-103652191D01*
X145742916Y-103651357D01*
X150826357Y-103651357D01*
X150826357Y-100973643D01*
X145348643Y-100973643D01*
X145348643Y-101804684D01*
X145328958Y-101871723D01*
X145276154Y-101917478D01*
X145209882Y-101927006D01*
X145209855Y-101927289D01*
X145208707Y-101927175D01*
X145206996Y-101927422D01*
X145203640Y-101926676D01*
X145000000Y-101906620D01*
X144802301Y-101926091D01*
X144738931Y-101945314D01*
X144612196Y-101983759D01*
X144587688Y-101996858D01*
X144529237Y-102011500D01*
X144147675Y-102011500D01*
X144080636Y-101991815D01*
X144059994Y-101975181D01*
X142544819Y-100460006D01*
X142511334Y-100398683D01*
X142508500Y-100372325D01*
X142508500Y-99768638D01*
X143691500Y-99768638D01*
X143691852Y-99771918D01*
X143691853Y-99771924D01*
X143698011Y-99829205D01*
X143749110Y-99966203D01*
X143836738Y-100083261D01*
X143953796Y-100170889D01*
X144090794Y-100221988D01*
X144090797Y-100221988D01*
X144090799Y-100221989D01*
X144151362Y-100228500D01*
X144154672Y-100228500D01*
X145845328Y-100228500D01*
X145848638Y-100228500D01*
X145909201Y-100221989D01*
X145909203Y-100221988D01*
X145909205Y-100221988D01*
X145987124Y-100192924D01*
X146046204Y-100170889D01*
X146163261Y-100083261D01*
X146250889Y-99966204D01*
X146301989Y-99829201D01*
X146308500Y-99768638D01*
X146308500Y-98071362D01*
X146301989Y-98010799D01*
X146301988Y-98010797D01*
X146301988Y-98010794D01*
X146250889Y-97873796D01*
X146163261Y-97756738D01*
X146153044Y-97749090D01*
X146111172Y-97693157D01*
X146106188Y-97623465D01*
X146125785Y-97578692D01*
X146130134Y-97572481D01*
X146226266Y-97366326D01*
X146285141Y-97146602D01*
X146287376Y-97121061D01*
X150491500Y-97121061D01*
X150531351Y-97359885D01*
X150609969Y-97588886D01*
X150609970Y-97588888D01*
X150725208Y-97801830D01*
X150873924Y-97992900D01*
X151052060Y-98156886D01*
X151254758Y-98289315D01*
X151476488Y-98386575D01*
X151711203Y-98446013D01*
X151892073Y-98461000D01*
X151894643Y-98461000D01*
X152105357Y-98461000D01*
X152107927Y-98461000D01*
X152288797Y-98446013D01*
X152523512Y-98386575D01*
X152745242Y-98289315D01*
X152947940Y-98156886D01*
X153126076Y-97992900D01*
X153274792Y-97801830D01*
X153390030Y-97588888D01*
X153429339Y-97474385D01*
X153468648Y-97359885D01*
X153508500Y-97121061D01*
X153508500Y-96878938D01*
X153468648Y-96640114D01*
X153390030Y-96411113D01*
X153390030Y-96411112D01*
X153274792Y-96198170D01*
X153126076Y-96007100D01*
X152947940Y-95843114D01*
X152947937Y-95843112D01*
X152947936Y-95843111D01*
X152925926Y-95828731D01*
X152880569Y-95775585D01*
X152871146Y-95706353D01*
X152900648Y-95643018D01*
X152925928Y-95621113D01*
X152942702Y-95610154D01*
X153119801Y-95447122D01*
X153267651Y-95257164D01*
X153382219Y-95045460D01*
X153414991Y-94950000D01*
X171414728Y-94950000D01*
X171414811Y-94951068D01*
X171473603Y-95195956D01*
X171569982Y-95428632D01*
X171701569Y-95643364D01*
X171865130Y-95834869D01*
X172056635Y-95998430D01*
X172271367Y-96130017D01*
X172504043Y-96226396D01*
X172748931Y-96285188D01*
X172749999Y-96285271D01*
X172750000Y-96285271D01*
X172750000Y-95191683D01*
X172778819Y-95209209D01*
X172924404Y-95250000D01*
X173037622Y-95250000D01*
X173149783Y-95234584D01*
X173250000Y-95191053D01*
X173250000Y-96285271D01*
X173251068Y-96285188D01*
X173495956Y-96226396D01*
X173728632Y-96130017D01*
X173943364Y-95998430D01*
X174134869Y-95834869D01*
X174298430Y-95643364D01*
X174430017Y-95428632D01*
X174506281Y-95244518D01*
X179300000Y-95244518D01*
X179300354Y-95251132D01*
X179306400Y-95307371D01*
X179356647Y-95442089D01*
X179442811Y-95557188D01*
X179557910Y-95643352D01*
X179692628Y-95693599D01*
X179748867Y-95699645D01*
X179755482Y-95700000D01*
X180750000Y-95700000D01*
X180750000Y-94545881D01*
X180843369Y-94584556D01*
X180960677Y-94600000D01*
X181039323Y-94600000D01*
X181156631Y-94584556D01*
X181250000Y-94545881D01*
X181250000Y-95700000D01*
X182244518Y-95700000D01*
X182251132Y-95699645D01*
X182307371Y-95693599D01*
X182442089Y-95643352D01*
X182557188Y-95557188D01*
X182643352Y-95442089D01*
X182693599Y-95307371D01*
X182699645Y-95251132D01*
X182700000Y-95244518D01*
X182700000Y-94250000D01*
X181545882Y-94250000D01*
X181584556Y-94156631D01*
X181605177Y-94000000D01*
X181605177Y-93999999D01*
X184286708Y-93999999D01*
X184305844Y-94255350D01*
X184362826Y-94505003D01*
X184456377Y-94743367D01*
X184584412Y-94965130D01*
X184744069Y-95165334D01*
X184931778Y-95339503D01*
X184931781Y-95339505D01*
X185143355Y-95483754D01*
X185374065Y-95594858D01*
X185618757Y-95670335D01*
X185871966Y-95708500D01*
X186128034Y-95708500D01*
X186381243Y-95670335D01*
X186625935Y-95594858D01*
X186856646Y-95483754D01*
X187068219Y-95339505D01*
X187255931Y-95165334D01*
X187415587Y-94965131D01*
X187543622Y-94743369D01*
X187637174Y-94505001D01*
X187694155Y-94255353D01*
X187713291Y-94000000D01*
X187694155Y-93744647D01*
X187637174Y-93494999D01*
X187543622Y-93256631D01*
X187415587Y-93034869D01*
X187255931Y-92834666D01*
X187163462Y-92748867D01*
X187068221Y-92660496D01*
X186939131Y-92572484D01*
X186856646Y-92516246D01*
X186856643Y-92516245D01*
X186856641Y-92516243D01*
X186625935Y-92405142D01*
X186381244Y-92329665D01*
X186128034Y-92291500D01*
X185871966Y-92291500D01*
X185618755Y-92329665D01*
X185374066Y-92405141D01*
X185295844Y-92442811D01*
X185143355Y-92516246D01*
X185088758Y-92553469D01*
X184931778Y-92660496D01*
X184744069Y-92834665D01*
X184584412Y-93034869D01*
X184456377Y-93256632D01*
X184362826Y-93494996D01*
X184305844Y-93744649D01*
X184286708Y-93999999D01*
X181605177Y-93999999D01*
X181584556Y-93843369D01*
X181545882Y-93750000D01*
X182700000Y-93750000D01*
X182700000Y-92755481D01*
X182699645Y-92748867D01*
X182693599Y-92692628D01*
X182643352Y-92557910D01*
X182557188Y-92442811D01*
X182442089Y-92356647D01*
X182307371Y-92306400D01*
X182251132Y-92300354D01*
X182244518Y-92300000D01*
X181250000Y-92300000D01*
X181250000Y-93454118D01*
X181156631Y-93415444D01*
X181039323Y-93400000D01*
X180960677Y-93400000D01*
X180843369Y-93415444D01*
X180750000Y-93454118D01*
X180750000Y-92300000D01*
X179755482Y-92300000D01*
X179748867Y-92300354D01*
X179692628Y-92306400D01*
X179557910Y-92356647D01*
X179442811Y-92442811D01*
X179356647Y-92557910D01*
X179306400Y-92692628D01*
X179300354Y-92748867D01*
X179300000Y-92755481D01*
X179300000Y-93750000D01*
X180454118Y-93750000D01*
X180415444Y-93843369D01*
X180394823Y-94000000D01*
X180415444Y-94156631D01*
X180454118Y-94250000D01*
X179300000Y-94250000D01*
X179300000Y-95244518D01*
X174506281Y-95244518D01*
X174526396Y-95195956D01*
X174585188Y-94951068D01*
X174585272Y-94950000D01*
X173494852Y-94950000D01*
X173543559Y-94812953D01*
X173553877Y-94662114D01*
X173523116Y-94514085D01*
X173489910Y-94450000D01*
X174585271Y-94450000D01*
X174585271Y-94449999D01*
X174585188Y-94448931D01*
X174526396Y-94204043D01*
X174430017Y-93971367D01*
X174298430Y-93756635D01*
X174134869Y-93565130D01*
X173943364Y-93401569D01*
X173728632Y-93269982D01*
X173495956Y-93173603D01*
X173251070Y-93114812D01*
X173250000Y-93114727D01*
X173250000Y-94208316D01*
X173221181Y-94190791D01*
X173075596Y-94150000D01*
X172962378Y-94150000D01*
X172850217Y-94165416D01*
X172750000Y-94208946D01*
X172750000Y-93114727D01*
X172748929Y-93114812D01*
X172504043Y-93173603D01*
X172271367Y-93269982D01*
X172056635Y-93401569D01*
X171865130Y-93565130D01*
X171701569Y-93756635D01*
X171569982Y-93971367D01*
X171473603Y-94204043D01*
X171414811Y-94448931D01*
X171414728Y-94449999D01*
X171414729Y-94450000D01*
X172505148Y-94450000D01*
X172456441Y-94587047D01*
X172446123Y-94737886D01*
X172476884Y-94885915D01*
X172510090Y-94950000D01*
X171414728Y-94950000D01*
X153414991Y-94950000D01*
X153460380Y-94817792D01*
X153478367Y-94710000D01*
X152494852Y-94710000D01*
X152543559Y-94572953D01*
X152553877Y-94422114D01*
X152523116Y-94274085D01*
X152489910Y-94210000D01*
X153478366Y-94210000D01*
X153478366Y-94209999D01*
X153460380Y-94102207D01*
X153382219Y-93874539D01*
X153267652Y-93662836D01*
X153161825Y-93526869D01*
X153136183Y-93461875D01*
X153149750Y-93393335D01*
X153198218Y-93343010D01*
X153216339Y-93334527D01*
X153246204Y-93323389D01*
X153363261Y-93235761D01*
X153450889Y-93118704D01*
X153495527Y-92999026D01*
X153501988Y-92981705D01*
X153501988Y-92981703D01*
X153501989Y-92981701D01*
X153508500Y-92921138D01*
X153508500Y-90918862D01*
X153501989Y-90858299D01*
X153501988Y-90858297D01*
X153501988Y-90858294D01*
X153450889Y-90721296D01*
X153363261Y-90604238D01*
X153246203Y-90516610D01*
X153109205Y-90465511D01*
X153051924Y-90459353D01*
X153051918Y-90459352D01*
X153048638Y-90459000D01*
X150951362Y-90459000D01*
X150948082Y-90459352D01*
X150948075Y-90459353D01*
X150890794Y-90465511D01*
X150753796Y-90516610D01*
X150636738Y-90604238D01*
X150549110Y-90721296D01*
X150498011Y-90858294D01*
X150496074Y-90876312D01*
X150491500Y-90918862D01*
X150491500Y-92921138D01*
X150491852Y-92924418D01*
X150491853Y-92924424D01*
X150498011Y-92981705D01*
X150549110Y-93118703D01*
X150636738Y-93235761D01*
X150753793Y-93323387D01*
X150753796Y-93323389D01*
X150783655Y-93334526D01*
X150839587Y-93376397D01*
X150864004Y-93441862D01*
X150849152Y-93510134D01*
X150838174Y-93526869D01*
X150732347Y-93662835D01*
X150617780Y-93874539D01*
X150539619Y-94102207D01*
X150521633Y-94209999D01*
X150521634Y-94210000D01*
X151505148Y-94210000D01*
X151456441Y-94347047D01*
X151446123Y-94497886D01*
X151476884Y-94645915D01*
X151510090Y-94710000D01*
X150521633Y-94710000D01*
X150539619Y-94817792D01*
X150617780Y-95045460D01*
X150732348Y-95257164D01*
X150880198Y-95447122D01*
X151057297Y-95610153D01*
X151074073Y-95621114D01*
X151119429Y-95674261D01*
X151128853Y-95743492D01*
X151099351Y-95806828D01*
X151074073Y-95828731D01*
X151052058Y-95843113D01*
X150873923Y-96007099D01*
X150728044Y-96194526D01*
X150725208Y-96198170D01*
X150673269Y-96294144D01*
X150609969Y-96411113D01*
X150531351Y-96640114D01*
X150491500Y-96878938D01*
X150491500Y-97121061D01*
X146287376Y-97121061D01*
X146304966Y-96920000D01*
X146285141Y-96693397D01*
X146226266Y-96473673D01*
X146130133Y-96267515D01*
X146079025Y-96194526D01*
X145397953Y-96875598D01*
X145385165Y-96794852D01*
X145327641Y-96681955D01*
X145238045Y-96592359D01*
X145125148Y-96534835D01*
X145044400Y-96522046D01*
X145725472Y-95840974D01*
X145725471Y-95840972D01*
X145652484Y-95789866D01*
X145446326Y-95693733D01*
X145226602Y-95634858D01*
X145000000Y-95615033D01*
X144773397Y-95634858D01*
X144553672Y-95693733D01*
X144347516Y-95789865D01*
X144274527Y-95840973D01*
X144274526Y-95840973D01*
X144955600Y-96522046D01*
X144874852Y-96534835D01*
X144761955Y-96592359D01*
X144672359Y-96681955D01*
X144614835Y-96794852D01*
X144602046Y-96875600D01*
X143920973Y-96194527D01*
X143869865Y-96267516D01*
X143773733Y-96473672D01*
X143714858Y-96693397D01*
X143695033Y-96920000D01*
X143714858Y-97146602D01*
X143773733Y-97366326D01*
X143869866Y-97572483D01*
X143874220Y-97578701D01*
X143896547Y-97644907D01*
X143879535Y-97712674D01*
X143846958Y-97749087D01*
X143836740Y-97756736D01*
X143749110Y-97873796D01*
X143698011Y-98010794D01*
X143691853Y-98068075D01*
X143691500Y-98071362D01*
X143691500Y-99768638D01*
X142508500Y-99768638D01*
X142508500Y-99710903D01*
X142528185Y-99643864D01*
X142533539Y-99636184D01*
X142589196Y-99562484D01*
X142684897Y-99370291D01*
X142684898Y-99370289D01*
X142743653Y-99163788D01*
X142746525Y-99132785D01*
X142763463Y-98950000D01*
X142743653Y-98736214D01*
X142743653Y-98736211D01*
X142684898Y-98529710D01*
X142636850Y-98433217D01*
X142589196Y-98337516D01*
X142533545Y-98263821D01*
X142508854Y-98198460D01*
X142508500Y-98189095D01*
X142508500Y-90768638D01*
X143691500Y-90768638D01*
X143691852Y-90771918D01*
X143691853Y-90771924D01*
X143698011Y-90829205D01*
X143749110Y-90966203D01*
X143836737Y-91083260D01*
X143846953Y-91090907D01*
X143888825Y-91146840D01*
X143893811Y-91216532D01*
X143874224Y-91261291D01*
X143869868Y-91267512D01*
X143773733Y-91473673D01*
X143714858Y-91693397D01*
X143695033Y-91920000D01*
X143714858Y-92146602D01*
X143773733Y-92366326D01*
X143869866Y-92572484D01*
X143920972Y-92645471D01*
X143920973Y-92645472D01*
X144602045Y-91964399D01*
X144614835Y-92045148D01*
X144672359Y-92158045D01*
X144761955Y-92247641D01*
X144874852Y-92305165D01*
X144955599Y-92317953D01*
X144274526Y-92999025D01*
X144274526Y-92999026D01*
X144347515Y-93050133D01*
X144553673Y-93146266D01*
X144773397Y-93205141D01*
X145000000Y-93224966D01*
X145226602Y-93205141D01*
X145446326Y-93146266D01*
X145652480Y-93050134D01*
X145725472Y-92999025D01*
X145044401Y-92317953D01*
X145125148Y-92305165D01*
X145238045Y-92247641D01*
X145327641Y-92158045D01*
X145385165Y-92045148D01*
X145397953Y-91964400D01*
X146079025Y-92645472D01*
X146130134Y-92572480D01*
X146226266Y-92366326D01*
X146285141Y-92146602D01*
X146304966Y-91919999D01*
X146285141Y-91693397D01*
X146226266Y-91473673D01*
X146130133Y-91267517D01*
X146125778Y-91261296D01*
X146103452Y-91195089D01*
X146120465Y-91127322D01*
X146153044Y-91090909D01*
X146163261Y-91083261D01*
X146250889Y-90966204D01*
X146275091Y-90901316D01*
X146301988Y-90829205D01*
X146301988Y-90829203D01*
X146301989Y-90829201D01*
X146308500Y-90768638D01*
X146308500Y-89071362D01*
X146301989Y-89010799D01*
X146301988Y-89010797D01*
X146301988Y-89010794D01*
X146250889Y-88873796D01*
X146163261Y-88756738D01*
X146046203Y-88669110D01*
X145909205Y-88618011D01*
X145851924Y-88611853D01*
X145851918Y-88611852D01*
X145848638Y-88611500D01*
X144151362Y-88611500D01*
X144148082Y-88611852D01*
X144148075Y-88611853D01*
X144090794Y-88618011D01*
X143953796Y-88669110D01*
X143836738Y-88756738D01*
X143749110Y-88873796D01*
X143698011Y-89010794D01*
X143691853Y-89068075D01*
X143691500Y-89071362D01*
X143691500Y-90768638D01*
X142508500Y-90768638D01*
X142508500Y-90581256D01*
X142510027Y-90561858D01*
X142510033Y-90561816D01*
X142512252Y-90547810D01*
X142508670Y-90479460D01*
X142508500Y-90472971D01*
X142508500Y-90455631D01*
X142508500Y-90452390D01*
X142506347Y-90431913D01*
X142505839Y-90425459D01*
X142502257Y-90357097D01*
X142498575Y-90343358D01*
X142495029Y-90324222D01*
X142493542Y-90310073D01*
X142472387Y-90244965D01*
X142470543Y-90238738D01*
X142452831Y-90172631D01*
X142446370Y-90159952D01*
X142438923Y-90141974D01*
X142438433Y-90140466D01*
X142434527Y-90128444D01*
X142400302Y-90069163D01*
X142397211Y-90063471D01*
X142366130Y-90002472D01*
X142366129Y-90002470D01*
X142357163Y-89991398D01*
X142346157Y-89975383D01*
X142339040Y-89963056D01*
X142328160Y-89950973D01*
X142293239Y-89912187D01*
X142289027Y-89907255D01*
X142278121Y-89893788D01*
X142278111Y-89893777D01*
X142276072Y-89891259D01*
X142261520Y-89876707D01*
X142257051Y-89871998D01*
X142211251Y-89821132D01*
X142199741Y-89812769D01*
X142184946Y-89800133D01*
X137749864Y-85365051D01*
X137737228Y-85350257D01*
X137728866Y-85338747D01*
X137710817Y-85322496D01*
X137678000Y-85292947D01*
X137673291Y-85288478D01*
X137661037Y-85276224D01*
X137658741Y-85273928D01*
X137642745Y-85260974D01*
X137637811Y-85256760D01*
X137586943Y-85210958D01*
X137574621Y-85203844D01*
X137558592Y-85192828D01*
X137547530Y-85183871D01*
X137486541Y-85152796D01*
X137480849Y-85149706D01*
X137448034Y-85130760D01*
X137421555Y-85115472D01*
X137408019Y-85111074D01*
X137390049Y-85103630D01*
X137377373Y-85097171D01*
X137341374Y-85087525D01*
X137311237Y-85079449D01*
X137305038Y-85077613D01*
X137239926Y-85056457D01*
X137225768Y-85054969D01*
X137206648Y-85051426D01*
X137192903Y-85047743D01*
X137192902Y-85047742D01*
X137192899Y-85047742D01*
X137124543Y-85044159D01*
X137118086Y-85043651D01*
X137097610Y-85041500D01*
X137094365Y-85041500D01*
X137077027Y-85041500D01*
X137070537Y-85041330D01*
X137002190Y-85037748D01*
X137002189Y-85037748D01*
X136988142Y-85039973D01*
X136968744Y-85041500D01*
X133668667Y-85041500D01*
X133603390Y-85022927D01*
X133418598Y-84908509D01*
X133218401Y-84830952D01*
X133218398Y-84830951D01*
X133218397Y-84830951D01*
X133007351Y-84791500D01*
X132792649Y-84791500D01*
X132581603Y-84830951D01*
X132581598Y-84830952D01*
X132381401Y-84908509D01*
X132198856Y-85021536D01*
X132040188Y-85166180D01*
X131910804Y-85337513D01*
X131870881Y-85417691D01*
X131823378Y-85468928D01*
X131755715Y-85486349D01*
X131689375Y-85464423D01*
X131645420Y-85410112D01*
X131635881Y-85362419D01*
X131635881Y-83973643D01*
X127865488Y-83973643D01*
X127798449Y-83953958D01*
X127752694Y-83901154D01*
X127742750Y-83831996D01*
X127766534Y-83774917D01*
X127889195Y-83612486D01*
X127984898Y-83420289D01*
X128043653Y-83213788D01*
X128048942Y-83156711D01*
X128063463Y-83000000D01*
X128056050Y-82919999D01*
X144986835Y-82919999D01*
X145005465Y-83156712D01*
X145060894Y-83387593D01*
X145101603Y-83485872D01*
X145151760Y-83606963D01*
X145275824Y-83809416D01*
X145430031Y-83989969D01*
X145610584Y-84144176D01*
X145813037Y-84268240D01*
X146032406Y-84359105D01*
X146263289Y-84414535D01*
X146500000Y-84433165D01*
X146736711Y-84414535D01*
X146967594Y-84359105D01*
X147186963Y-84268240D01*
X147389416Y-84144176D01*
X147569969Y-83989969D01*
X147724176Y-83809416D01*
X147848240Y-83606963D01*
X147939105Y-83387594D01*
X147994535Y-83156711D01*
X148013165Y-82920000D01*
X148013165Y-82919999D01*
X149986835Y-82919999D01*
X150005465Y-83156712D01*
X150060894Y-83387593D01*
X150101603Y-83485872D01*
X150151760Y-83606963D01*
X150275824Y-83809416D01*
X150430031Y-83989969D01*
X150610584Y-84144176D01*
X150813037Y-84268240D01*
X151032406Y-84359105D01*
X151263289Y-84414535D01*
X151500000Y-84433165D01*
X151736711Y-84414535D01*
X151967594Y-84359105D01*
X152186963Y-84268240D01*
X152389416Y-84144176D01*
X152569969Y-83989969D01*
X152724176Y-83809416D01*
X152848240Y-83606963D01*
X152939105Y-83387594D01*
X152994535Y-83156711D01*
X153013165Y-82920000D01*
X152994535Y-82683289D01*
X152939105Y-82452406D01*
X152848240Y-82233037D01*
X152724176Y-82030584D01*
X152569969Y-81850031D01*
X152389416Y-81695824D01*
X152186963Y-81571760D01*
X152077278Y-81526327D01*
X151967593Y-81480894D01*
X151736712Y-81425465D01*
X151500000Y-81406835D01*
X151263287Y-81425465D01*
X151032406Y-81480894D01*
X150813035Y-81571761D01*
X150610585Y-81695823D01*
X150430031Y-81850031D01*
X150275823Y-82030585D01*
X150151761Y-82233035D01*
X150060894Y-82452406D01*
X150005465Y-82683287D01*
X149986835Y-82919999D01*
X148013165Y-82919999D01*
X147994535Y-82683289D01*
X147939105Y-82452406D01*
X147848240Y-82233037D01*
X147724176Y-82030584D01*
X147569969Y-81850031D01*
X147389416Y-81695824D01*
X147186963Y-81571760D01*
X147077278Y-81526327D01*
X146967593Y-81480894D01*
X146736712Y-81425465D01*
X146500000Y-81406835D01*
X146263287Y-81425465D01*
X146032406Y-81480894D01*
X145813035Y-81571761D01*
X145610585Y-81695823D01*
X145430031Y-81850031D01*
X145275823Y-82030585D01*
X145151761Y-82233035D01*
X145060894Y-82452406D01*
X145005465Y-82683287D01*
X144986835Y-82919999D01*
X128056050Y-82919999D01*
X128043653Y-82786214D01*
X128043653Y-82786211D01*
X127984897Y-82579708D01*
X127921500Y-82452389D01*
X127908500Y-82397118D01*
X127908500Y-78919999D01*
X137494858Y-78919999D01*
X137515386Y-79167732D01*
X137576413Y-79408721D01*
X137676268Y-79636370D01*
X137776563Y-79789882D01*
X137776564Y-79789882D01*
X138516923Y-79049523D01*
X138540507Y-79129844D01*
X138618239Y-79250798D01*
X138726900Y-79344952D01*
X138857685Y-79404680D01*
X138867466Y-79406086D01*
X138129942Y-80143609D01*
X138129942Y-80143610D01*
X138176766Y-80180055D01*
X138395393Y-80298368D01*
X138630506Y-80379083D01*
X138875707Y-80420000D01*
X139124293Y-80420000D01*
X139369493Y-80379083D01*
X139604606Y-80298368D01*
X139823233Y-80180053D01*
X139870056Y-80143609D01*
X139132533Y-79406086D01*
X139142315Y-79404680D01*
X139273100Y-79344952D01*
X139381761Y-79250798D01*
X139459493Y-79129844D01*
X139483076Y-79049524D01*
X140223434Y-79789882D01*
X140323730Y-79636369D01*
X140423586Y-79408721D01*
X140484613Y-79167732D01*
X140505141Y-78919999D01*
X140484613Y-78672267D01*
X140423586Y-78431278D01*
X140323730Y-78203630D01*
X140223434Y-78050116D01*
X139483076Y-78790475D01*
X139459493Y-78710156D01*
X139381761Y-78589202D01*
X139273100Y-78495048D01*
X139142315Y-78435320D01*
X139132531Y-78433913D01*
X139870056Y-77696389D01*
X139870056Y-77696387D01*
X139823235Y-77659947D01*
X139604606Y-77541631D01*
X139369493Y-77460916D01*
X139124293Y-77420000D01*
X138875707Y-77420000D01*
X138630506Y-77460916D01*
X138395393Y-77541631D01*
X138176764Y-77659946D01*
X138129942Y-77696388D01*
X138129941Y-77696389D01*
X138867466Y-78433913D01*
X138857685Y-78435320D01*
X138726900Y-78495048D01*
X138618239Y-78589202D01*
X138540507Y-78710156D01*
X138516923Y-78790475D01*
X137776564Y-78050116D01*
X137676266Y-78203634D01*
X137576413Y-78431278D01*
X137515386Y-78672267D01*
X137494858Y-78919999D01*
X127908500Y-78919999D01*
X127908500Y-74968638D01*
X137491500Y-74968638D01*
X137491852Y-74971918D01*
X137491853Y-74971924D01*
X137498011Y-75029205D01*
X137549110Y-75166203D01*
X137636738Y-75283261D01*
X137753796Y-75370889D01*
X137890794Y-75421988D01*
X137890797Y-75421988D01*
X137890799Y-75421989D01*
X137951362Y-75428500D01*
X137954672Y-75428500D01*
X140045328Y-75428500D01*
X140048638Y-75428500D01*
X140109201Y-75421989D01*
X140109203Y-75421988D01*
X140109205Y-75421988D01*
X140196328Y-75389492D01*
X140246204Y-75370889D01*
X140363261Y-75283261D01*
X140450889Y-75166204D01*
X140475637Y-75099853D01*
X140501988Y-75029205D01*
X140501988Y-75029203D01*
X140501989Y-75029201D01*
X140508500Y-74968638D01*
X140508500Y-73920000D01*
X146695033Y-73920000D01*
X146714858Y-74146602D01*
X146773733Y-74366326D01*
X146869866Y-74572484D01*
X146920972Y-74645471D01*
X146920974Y-74645472D01*
X147602046Y-73964399D01*
X147614835Y-74045148D01*
X147672359Y-74158045D01*
X147761955Y-74247641D01*
X147874852Y-74305165D01*
X147955597Y-74317953D01*
X147274526Y-74999025D01*
X147274526Y-74999026D01*
X147347515Y-75050133D01*
X147553673Y-75146266D01*
X147773397Y-75205141D01*
X148000000Y-75224966D01*
X148226602Y-75205141D01*
X148446326Y-75146266D01*
X148652481Y-75050134D01*
X148658692Y-75045785D01*
X148724896Y-75023452D01*
X148792665Y-75040457D01*
X148829090Y-75073044D01*
X148836738Y-75083261D01*
X148953796Y-75170889D01*
X149090794Y-75221988D01*
X149090797Y-75221988D01*
X149090799Y-75221989D01*
X149151362Y-75228500D01*
X149154672Y-75228500D01*
X150845328Y-75228500D01*
X150848638Y-75228500D01*
X150909201Y-75221989D01*
X150909203Y-75221988D01*
X150909205Y-75221988D01*
X150987124Y-75192924D01*
X151046204Y-75170889D01*
X151163261Y-75083261D01*
X151250889Y-74966204D01*
X151301989Y-74829201D01*
X151308500Y-74768638D01*
X151308500Y-73071362D01*
X151301989Y-73010799D01*
X151301988Y-73010797D01*
X151301988Y-73010794D01*
X151250889Y-72873796D01*
X151163261Y-72756738D01*
X151046203Y-72669110D01*
X150909205Y-72618011D01*
X150851924Y-72611853D01*
X150851918Y-72611852D01*
X150848638Y-72611500D01*
X149151362Y-72611500D01*
X149148082Y-72611852D01*
X149148075Y-72611853D01*
X149090794Y-72618011D01*
X148953796Y-72669110D01*
X148836736Y-72756740D01*
X148829087Y-72766958D01*
X148773152Y-72808827D01*
X148703460Y-72813809D01*
X148658701Y-72794220D01*
X148652483Y-72789866D01*
X148446326Y-72693733D01*
X148226602Y-72634858D01*
X147999999Y-72615033D01*
X147773397Y-72634858D01*
X147553672Y-72693733D01*
X147347516Y-72789865D01*
X147274526Y-72840973D01*
X147955599Y-73522046D01*
X147874852Y-73534835D01*
X147761955Y-73592359D01*
X147672359Y-73681955D01*
X147614835Y-73794852D01*
X147602046Y-73875599D01*
X146920973Y-73194526D01*
X146920973Y-73194527D01*
X146869865Y-73267516D01*
X146773733Y-73473672D01*
X146714858Y-73693397D01*
X146695033Y-73920000D01*
X140508500Y-73920000D01*
X140508500Y-72871362D01*
X140501989Y-72810799D01*
X140501988Y-72810797D01*
X140501988Y-72810794D01*
X140450889Y-72673796D01*
X140363261Y-72556738D01*
X140246203Y-72469110D01*
X140109205Y-72418011D01*
X140051924Y-72411853D01*
X140051918Y-72411852D01*
X140048638Y-72411500D01*
X137951362Y-72411500D01*
X137948082Y-72411852D01*
X137948075Y-72411853D01*
X137890794Y-72418011D01*
X137753796Y-72469110D01*
X137636738Y-72556738D01*
X137549110Y-72673796D01*
X137498011Y-72810794D01*
X137491853Y-72868075D01*
X137491500Y-72871362D01*
X137491500Y-74968638D01*
X127908500Y-74968638D01*
X127908500Y-72000000D01*
X169000000Y-72000000D01*
X169000000Y-91900000D01*
X176800000Y-91900000D01*
X176800000Y-84080000D01*
X177486835Y-84080000D01*
X177492889Y-84156918D01*
X177505465Y-84316712D01*
X177560894Y-84547593D01*
X177601841Y-84646446D01*
X177651760Y-84766963D01*
X177775824Y-84969416D01*
X177930031Y-85149969D01*
X178110584Y-85304176D01*
X178313037Y-85428240D01*
X178532406Y-85519105D01*
X178763289Y-85574535D01*
X179000000Y-85593165D01*
X179236711Y-85574535D01*
X179467594Y-85519105D01*
X179686963Y-85428240D01*
X179889416Y-85304176D01*
X180004139Y-85206193D01*
X183591500Y-85206193D01*
X183630525Y-85414961D01*
X183679375Y-85541056D01*
X183707248Y-85613005D01*
X183819055Y-85793580D01*
X183962134Y-85950531D01*
X183962137Y-85950533D01*
X184131624Y-86078523D01*
X184299498Y-86162115D01*
X184321745Y-86173193D01*
X184423881Y-86202253D01*
X184526021Y-86231314D01*
X184684512Y-86246000D01*
X184687384Y-86246000D01*
X185312616Y-86246000D01*
X185315488Y-86246000D01*
X185473979Y-86231314D01*
X185644731Y-86182731D01*
X185678254Y-86173193D01*
X185678254Y-86173192D01*
X185678257Y-86173192D01*
X185868376Y-86078523D01*
X186037863Y-85950533D01*
X186046379Y-85941192D01*
X186180944Y-85793580D01*
X186180943Y-85793580D01*
X186180946Y-85793578D01*
X186292752Y-85613005D01*
X186369475Y-85414961D01*
X186408500Y-85206193D01*
X186408500Y-84993807D01*
X186369475Y-84785039D01*
X186292752Y-84586995D01*
X186180946Y-84406422D01*
X186114501Y-84333536D01*
X186083886Y-84270735D01*
X186092083Y-84201348D01*
X186114500Y-84166465D01*
X186180946Y-84093578D01*
X186292752Y-83913005D01*
X186369475Y-83714961D01*
X186408500Y-83506193D01*
X186408500Y-83293807D01*
X186369475Y-83085039D01*
X186292752Y-82886995D01*
X186180946Y-82706422D01*
X186180945Y-82706421D01*
X186180944Y-82706419D01*
X186114503Y-82633537D01*
X186083886Y-82570733D01*
X186092084Y-82501346D01*
X186114501Y-82466463D01*
X186180946Y-82393578D01*
X186292752Y-82213005D01*
X186369475Y-82014961D01*
X186408500Y-81806193D01*
X186408500Y-81593807D01*
X186369475Y-81385039D01*
X186292752Y-81186995D01*
X186180946Y-81006422D01*
X186180945Y-81006421D01*
X186180944Y-81006419D01*
X186114503Y-80933537D01*
X186083886Y-80870733D01*
X186092084Y-80801346D01*
X186114503Y-80766462D01*
X186180946Y-80693578D01*
X186292752Y-80513005D01*
X186369475Y-80314961D01*
X186408500Y-80106193D01*
X186408500Y-79893807D01*
X186369475Y-79685039D01*
X186292752Y-79486995D01*
X186260804Y-79435397D01*
X186242249Y-79368039D01*
X186263057Y-79301340D01*
X186266939Y-79295847D01*
X186350889Y-79183704D01*
X186380805Y-79103496D01*
X186401988Y-79046705D01*
X186401988Y-79046703D01*
X186401989Y-79046701D01*
X186408500Y-78986138D01*
X186408500Y-77613862D01*
X186401989Y-77553299D01*
X186401988Y-77553297D01*
X186401988Y-77553294D01*
X186350889Y-77416296D01*
X186263261Y-77299238D01*
X186146203Y-77211610D01*
X186009205Y-77160511D01*
X185951924Y-77154353D01*
X185951918Y-77154352D01*
X185948638Y-77154000D01*
X184051362Y-77154000D01*
X184048082Y-77154352D01*
X184048075Y-77154353D01*
X183990794Y-77160511D01*
X183853796Y-77211610D01*
X183736738Y-77299238D01*
X183649110Y-77416296D01*
X183598011Y-77553294D01*
X183593006Y-77599853D01*
X183591500Y-77613862D01*
X183591500Y-78986138D01*
X183591852Y-78989418D01*
X183591853Y-78989424D01*
X183598011Y-79046705D01*
X183649110Y-79183703D01*
X183733033Y-79295812D01*
X183757450Y-79361276D01*
X183742598Y-79429549D01*
X183739194Y-79435398D01*
X183707249Y-79486992D01*
X183707247Y-79486995D01*
X183707248Y-79486995D01*
X183630525Y-79685039D01*
X183591500Y-79893807D01*
X183591500Y-80106193D01*
X183627423Y-80298368D01*
X183630525Y-80314960D01*
X183707248Y-80513005D01*
X183819055Y-80693580D01*
X183885496Y-80766462D01*
X183916113Y-80829266D01*
X183907915Y-80898653D01*
X183885496Y-80933538D01*
X183819055Y-81006419D01*
X183707248Y-81186994D01*
X183643062Y-81352677D01*
X183630525Y-81385039D01*
X183591500Y-81593807D01*
X183591500Y-81806193D01*
X183630525Y-82014961D01*
X183659270Y-82089159D01*
X183707248Y-82213005D01*
X183770153Y-82314601D01*
X183819054Y-82393578D01*
X183885497Y-82466463D01*
X183916113Y-82529264D01*
X183907916Y-82598651D01*
X183885497Y-82633537D01*
X183819053Y-82706422D01*
X183707248Y-82886994D01*
X183690296Y-82930752D01*
X183630525Y-83085039D01*
X183591500Y-83293807D01*
X183591500Y-83506193D01*
X183630525Y-83714961D01*
X183689637Y-83867547D01*
X183707248Y-83913005D01*
X183819055Y-84093580D01*
X183885495Y-84166461D01*
X183916112Y-84229265D01*
X183907914Y-84298652D01*
X183885496Y-84333536D01*
X183819056Y-84406419D01*
X183819054Y-84406421D01*
X183819054Y-84406422D01*
X183802496Y-84433164D01*
X183707248Y-84586994D01*
X183644117Y-84749954D01*
X183630525Y-84785039D01*
X183591500Y-84993807D01*
X183591500Y-85206193D01*
X180004139Y-85206193D01*
X180069969Y-85149969D01*
X180224176Y-84969416D01*
X180348240Y-84766963D01*
X180439105Y-84547594D01*
X180494535Y-84316711D01*
X180513165Y-84080000D01*
X180494535Y-83843289D01*
X180439105Y-83612406D01*
X180348240Y-83393037D01*
X180224176Y-83190584D01*
X180069969Y-83010031D01*
X179889416Y-82855824D01*
X179686963Y-82731760D01*
X179569938Y-82683287D01*
X179467593Y-82640894D01*
X179236712Y-82585465D01*
X179000000Y-82566835D01*
X178763287Y-82585465D01*
X178532406Y-82640894D01*
X178313035Y-82731761D01*
X178110585Y-82855823D01*
X177930031Y-83010031D01*
X177775823Y-83190585D01*
X177712567Y-83293809D01*
X177651760Y-83393037D01*
X177643701Y-83412494D01*
X177560894Y-83612406D01*
X177505465Y-83843287D01*
X177494762Y-83979274D01*
X177486835Y-84080000D01*
X176800000Y-84080000D01*
X176800000Y-80048638D01*
X177491500Y-80048638D01*
X177491852Y-80051918D01*
X177491853Y-80051924D01*
X177498011Y-80109205D01*
X177549110Y-80246203D01*
X177636738Y-80363261D01*
X177753796Y-80450889D01*
X177890794Y-80501988D01*
X177890797Y-80501988D01*
X177890799Y-80501989D01*
X177951362Y-80508500D01*
X177954672Y-80508500D01*
X180045328Y-80508500D01*
X180048638Y-80508500D01*
X180109201Y-80501989D01*
X180109203Y-80501988D01*
X180109205Y-80501988D01*
X180187124Y-80472924D01*
X180246204Y-80450889D01*
X180363261Y-80363261D01*
X180450889Y-80246204D01*
X180475562Y-80180053D01*
X180501988Y-80109205D01*
X180501988Y-80109203D01*
X180501989Y-80109201D01*
X180508500Y-80048638D01*
X180508500Y-77951362D01*
X180501989Y-77890799D01*
X180501988Y-77890797D01*
X180501988Y-77890794D01*
X180450889Y-77753796D01*
X180363261Y-77636738D01*
X180246203Y-77549110D01*
X180109205Y-77498011D01*
X180051924Y-77491853D01*
X180051918Y-77491852D01*
X180048638Y-77491500D01*
X177951362Y-77491500D01*
X177948082Y-77491852D01*
X177948075Y-77491853D01*
X177890794Y-77498011D01*
X177753796Y-77549110D01*
X177636738Y-77636738D01*
X177549110Y-77753796D01*
X177498011Y-77890794D01*
X177491853Y-77948075D01*
X177491500Y-77951362D01*
X177491500Y-80048638D01*
X176800000Y-80048638D01*
X176800000Y-72000000D01*
X169000000Y-72000000D01*
X127908500Y-72000000D01*
X127908500Y-70605649D01*
X127909097Y-70593495D01*
X127913381Y-70550000D01*
X127893909Y-70352300D01*
X127836242Y-70162197D01*
X127813842Y-70120289D01*
X127766918Y-70032501D01*
X127742595Y-69986996D01*
X127616568Y-69833432D01*
X127582789Y-69805710D01*
X127573773Y-69797538D01*
X127076234Y-69300000D01*
X171386526Y-69300000D01*
X171406391Y-69552404D01*
X171465494Y-69798590D01*
X171513210Y-69913786D01*
X171562384Y-70032502D01*
X171694672Y-70248376D01*
X171859102Y-70440898D01*
X172051624Y-70605328D01*
X172267498Y-70737616D01*
X172501409Y-70834505D01*
X172747597Y-70893609D01*
X173000000Y-70913474D01*
X173252403Y-70893609D01*
X173498591Y-70834505D01*
X173732502Y-70737616D01*
X173948376Y-70605328D01*
X174140898Y-70440898D01*
X174305328Y-70248376D01*
X174437616Y-70032502D01*
X174534505Y-69798591D01*
X174593609Y-69552403D01*
X174613474Y-69300000D01*
X174593609Y-69047597D01*
X174534505Y-68801409D01*
X174437616Y-68567498D01*
X174305328Y-68351624D01*
X174140898Y-68159102D01*
X173954613Y-67999999D01*
X182295232Y-67999999D01*
X182314273Y-68254080D01*
X182370971Y-68502491D01*
X182464057Y-68739668D01*
X182591456Y-68960331D01*
X182633452Y-69012993D01*
X182633453Y-69012993D01*
X183437226Y-68209219D01*
X183475901Y-68302588D01*
X183572075Y-68427925D01*
X183697412Y-68524099D01*
X183790779Y-68562772D01*
X182986813Y-69366737D01*
X183147619Y-69476372D01*
X183377179Y-69586922D01*
X183620654Y-69662025D01*
X183872603Y-69700000D01*
X184127397Y-69700000D01*
X184379345Y-69662025D01*
X184622823Y-69586921D01*
X184852383Y-69476372D01*
X185013185Y-69366737D01*
X184895086Y-69248638D01*
X187291500Y-69248638D01*
X187291852Y-69251918D01*
X187291853Y-69251924D01*
X187298011Y-69309205D01*
X187349110Y-69446203D01*
X187436738Y-69563261D01*
X187553796Y-69650889D01*
X187690794Y-69701988D01*
X187690797Y-69701988D01*
X187690799Y-69701989D01*
X187751362Y-69708500D01*
X187754672Y-69708500D01*
X190245328Y-69708500D01*
X190248638Y-69708500D01*
X190309201Y-69701989D01*
X190309203Y-69701988D01*
X190309205Y-69701988D01*
X190387124Y-69672924D01*
X190446204Y-69650889D01*
X190563261Y-69563261D01*
X190650889Y-69446204D01*
X190701989Y-69309201D01*
X190708500Y-69248638D01*
X190708500Y-66751362D01*
X190701989Y-66690799D01*
X190701988Y-66690797D01*
X190701988Y-66690794D01*
X190650889Y-66553796D01*
X190563261Y-66436738D01*
X190446203Y-66349110D01*
X190309205Y-66298011D01*
X190251924Y-66291853D01*
X190251918Y-66291852D01*
X190248638Y-66291500D01*
X187751362Y-66291500D01*
X187748082Y-66291852D01*
X187748075Y-66291853D01*
X187690794Y-66298011D01*
X187553796Y-66349110D01*
X187436738Y-66436738D01*
X187349110Y-66553796D01*
X187298011Y-66690794D01*
X187291853Y-66748075D01*
X187291500Y-66751362D01*
X187291500Y-69248638D01*
X184895086Y-69248638D01*
X184209220Y-68562772D01*
X184302588Y-68524099D01*
X184427925Y-68427925D01*
X184524099Y-68302589D01*
X184562772Y-68209220D01*
X185366545Y-69012993D01*
X185366546Y-69012992D01*
X185408545Y-68960328D01*
X185535942Y-68739669D01*
X185629028Y-68502491D01*
X185685726Y-68254080D01*
X185704767Y-68000000D01*
X185685726Y-67745919D01*
X185629028Y-67497508D01*
X185535942Y-67260330D01*
X185408545Y-67039671D01*
X185366546Y-66987005D01*
X184562772Y-67790779D01*
X184524099Y-67697412D01*
X184427925Y-67572075D01*
X184302588Y-67475901D01*
X184209220Y-67437227D01*
X185013185Y-66633261D01*
X184852379Y-66523625D01*
X184622823Y-66413078D01*
X184379345Y-66337974D01*
X184127397Y-66300000D01*
X183872603Y-66300000D01*
X183620654Y-66337974D01*
X183377179Y-66413077D01*
X183147615Y-66523628D01*
X182986813Y-66633261D01*
X183790779Y-67437227D01*
X183697412Y-67475901D01*
X183572075Y-67572075D01*
X183475901Y-67697411D01*
X183437226Y-67790779D01*
X182633453Y-66987006D01*
X182591453Y-67039673D01*
X182464057Y-67260331D01*
X182370971Y-67497508D01*
X182314273Y-67745919D01*
X182295232Y-67999999D01*
X173954613Y-67999999D01*
X173948376Y-67994672D01*
X173732502Y-67862384D01*
X173587444Y-67802299D01*
X173498590Y-67765494D01*
X173252404Y-67706391D01*
X173000000Y-67686526D01*
X172747595Y-67706391D01*
X172501409Y-67765494D01*
X172267496Y-67862385D01*
X172051625Y-67994671D01*
X171859102Y-68159102D01*
X171694671Y-68351625D01*
X171562385Y-68567496D01*
X171465494Y-68801409D01*
X171406391Y-69047595D01*
X171386526Y-69300000D01*
X127076234Y-69300000D01*
X126802464Y-69026230D01*
X126794291Y-69017213D01*
X126766567Y-68983431D01*
X126613003Y-68857404D01*
X126437803Y-68763758D01*
X126247702Y-68706091D01*
X126148850Y-68696355D01*
X126050000Y-68686620D01*
X126049999Y-68686620D01*
X126006512Y-68690903D01*
X125994358Y-68691500D01*
X122007161Y-68691500D01*
X121941883Y-68672927D01*
X121918601Y-68658511D01*
X121818498Y-68619731D01*
X121718397Y-68580951D01*
X121507351Y-68541500D01*
X121292649Y-68541500D01*
X121081603Y-68580951D01*
X121081598Y-68580952D01*
X120881401Y-68658509D01*
X120698856Y-68771536D01*
X120540188Y-68916180D01*
X120410804Y-69087513D01*
X120315101Y-69279710D01*
X120256346Y-69486211D01*
X120236537Y-69700000D01*
X115008500Y-69700000D01*
X115008500Y-68775356D01*
X115028185Y-68708317D01*
X115080989Y-68662563D01*
X115132500Y-68651357D01*
X117921594Y-68651357D01*
X117921595Y-68651357D01*
X117921595Y-65973643D01*
X114348643Y-65973643D01*
X114348643Y-66884684D01*
X114328958Y-66951723D01*
X114276154Y-66997478D01*
X114209882Y-67007006D01*
X114209855Y-67007289D01*
X114208707Y-67007175D01*
X114206996Y-67007422D01*
X114203640Y-67006676D01*
X114000000Y-66986620D01*
X113802301Y-67006091D01*
X113738931Y-67025314D01*
X113612196Y-67063759D01*
X113612192Y-67063760D01*
X113612192Y-67063761D01*
X113436996Y-67157404D01*
X113283432Y-67283432D01*
X113157404Y-67436996D01*
X113085204Y-67572075D01*
X113063759Y-67612196D01*
X113025314Y-67738931D01*
X113006091Y-67802301D01*
X112986620Y-67999999D01*
X112990903Y-68043485D01*
X112991500Y-68055639D01*
X112991500Y-70149200D01*
X112971815Y-70216239D01*
X112919011Y-70261994D01*
X112849853Y-70271938D01*
X112786298Y-70242914D01*
X112777742Y-70235500D01*
X112644734Y-70174757D01*
X112518193Y-70156563D01*
X112500000Y-70153948D01*
X111350000Y-70153948D01*
X111347545Y-70154144D01*
X111347527Y-70154145D01*
X111268357Y-70160476D01*
X111240588Y-70169139D01*
X111186014Y-70173503D01*
X111050001Y-70153948D01*
X111050000Y-70153948D01*
X110050000Y-70153948D01*
X110047792Y-70154105D01*
X110047789Y-70154106D01*
X109976888Y-70159176D01*
X109836590Y-70200372D01*
X109713576Y-70279428D01*
X109638234Y-70366379D01*
X109579456Y-70404154D01*
X109544521Y-70409177D01*
X108355642Y-70409177D01*
X108343488Y-70408580D01*
X108300000Y-70404297D01*
X108102301Y-70423767D01*
X107912196Y-70481435D01*
X107834542Y-70522943D01*
X107736996Y-70575081D01*
X107583433Y-70701107D01*
X107555711Y-70734886D01*
X107547540Y-70743900D01*
X106626228Y-71665213D01*
X106617214Y-71673384D01*
X106583430Y-71701110D01*
X106457404Y-71854673D01*
X106405440Y-71951892D01*
X106363758Y-72029872D01*
X106306091Y-72219974D01*
X106286620Y-72417676D01*
X106290903Y-72461164D01*
X106291500Y-72473318D01*
X106291500Y-72785177D01*
X106271815Y-72852216D01*
X106219011Y-72897971D01*
X106167500Y-72909177D01*
X104707161Y-72909177D01*
X104641883Y-72890604D01*
X104618601Y-72876188D01*
X104513344Y-72835411D01*
X104418397Y-72798628D01*
X104207351Y-72759177D01*
X103992649Y-72759177D01*
X103808501Y-72793600D01*
X103781598Y-72798629D01*
X103581401Y-72876186D01*
X103398856Y-72989213D01*
X103240188Y-73133857D01*
X103110804Y-73305190D01*
X103015101Y-73497387D01*
X102956346Y-73703888D01*
X102936537Y-73917677D01*
X102956346Y-74131465D01*
X103015101Y-74337966D01*
X103110804Y-74530163D01*
X103240185Y-74701492D01*
X103240188Y-74701495D01*
X103240190Y-74701497D01*
X103301039Y-74756968D01*
X103337319Y-74816677D01*
X103341500Y-74848604D01*
X103341500Y-79353383D01*
X103340191Y-79371353D01*
X103336659Y-79395466D01*
X103341028Y-79445402D01*
X103341500Y-79456209D01*
X103341500Y-79461857D01*
X103341916Y-79465416D01*
X103341917Y-79465433D01*
X103345139Y-79492998D01*
X103345505Y-79496582D01*
X103352214Y-79573259D01*
X103356523Y-79592694D01*
X103356920Y-79593786D01*
X103356921Y-79593790D01*
X103372419Y-79636370D01*
X103382855Y-79665044D01*
X103384037Y-79668448D01*
X103408251Y-79741520D01*
X103416922Y-79759431D01*
X103459245Y-79823780D01*
X103461178Y-79826815D01*
X103500970Y-79891328D01*
X103500972Y-79891330D01*
X103501589Y-79892330D01*
X103514153Y-79907752D01*
X103514997Y-79908548D01*
X103514999Y-79908551D01*
X103560373Y-79951359D01*
X103570173Y-79960605D01*
X103572760Y-79963118D01*
X104605181Y-80995539D01*
X104638666Y-81056862D01*
X104641500Y-81083220D01*
X104641500Y-81735177D01*
X104621815Y-81802216D01*
X104569011Y-81847971D01*
X104517500Y-81859177D01*
X103314294Y-81859177D01*
X103296324Y-81857868D01*
X103283501Y-81855989D01*
X103272211Y-81854336D01*
X103272210Y-81854336D01*
X103222274Y-81858705D01*
X103211467Y-81859177D01*
X100714295Y-81859177D01*
X100696325Y-81857868D01*
X100682233Y-81855804D01*
X100672211Y-81854336D01*
X100672210Y-81854336D01*
X100622274Y-81858705D01*
X100611467Y-81859177D01*
X100605820Y-81859177D01*
X100602258Y-81859593D01*
X100602246Y-81859594D01*
X100574682Y-81862816D01*
X100571097Y-81863182D01*
X100494419Y-81869891D01*
X100474973Y-81874201D01*
X100402652Y-81900524D01*
X100399249Y-81901707D01*
X100326160Y-81925927D01*
X100308239Y-81934602D01*
X100243901Y-81976918D01*
X100240861Y-81978855D01*
X100175359Y-82019257D01*
X100159916Y-82031837D01*
X100107052Y-82087868D01*
X100104541Y-82090453D01*
X98709122Y-83485872D01*
X98695493Y-83497651D01*
X98675940Y-83512208D01*
X98643713Y-83550613D01*
X98636430Y-83558563D01*
X98634980Y-83560012D01*
X98634950Y-83560045D01*
X98632420Y-83562576D01*
X98630194Y-83565390D01*
X98630186Y-83565400D01*
X98612982Y-83587157D01*
X98610710Y-83589946D01*
X98561220Y-83648927D01*
X98550521Y-83665721D01*
X98517982Y-83735501D01*
X98516427Y-83738714D01*
X98487887Y-83795545D01*
X98481862Y-83807543D01*
X98475332Y-83826331D01*
X98459759Y-83901749D01*
X98458979Y-83905268D01*
X98441228Y-83980167D01*
X98439207Y-83999951D01*
X98441448Y-84076968D01*
X98441500Y-84080574D01*
X98441500Y-85874153D01*
X98421815Y-85941192D01*
X98369011Y-85986947D01*
X98299853Y-85996891D01*
X98236297Y-85967866D01*
X98229819Y-85961834D01*
X98218345Y-85950360D01*
X98069122Y-85858319D01*
X97902696Y-85803170D01*
X97803109Y-85792996D01*
X97796832Y-85792677D01*
X97525000Y-85792677D01*
X97525000Y-87006177D01*
X97505315Y-87073216D01*
X97452511Y-87118971D01*
X97401000Y-87130177D01*
X96050001Y-87130177D01*
X96050001Y-87264506D01*
X96050321Y-87270788D01*
X96060493Y-87370372D01*
X96115642Y-87536799D01*
X96207683Y-87686022D01*
X96341904Y-87820243D01*
X96340278Y-87821868D01*
X96373759Y-87859089D01*
X96384983Y-87928052D01*
X96357141Y-87992135D01*
X96327040Y-88018219D01*
X96326348Y-88018645D01*
X96200971Y-88144022D01*
X96107884Y-88294940D01*
X96052112Y-88463250D01*
X96041819Y-88564001D01*
X96041818Y-88564018D01*
X96041500Y-88567132D01*
X96041500Y-88570278D01*
X96041500Y-88570279D01*
X96041500Y-89340072D01*
X96041500Y-89340091D01*
X91000000Y-89340091D01*
X91000000Y-86630177D01*
X96050000Y-86630177D01*
X97025000Y-86630177D01*
X97025000Y-85792677D01*
X96753171Y-85792677D01*
X96746888Y-85792998D01*
X96647304Y-85803170D01*
X96480877Y-85858319D01*
X96331654Y-85950360D01*
X96207683Y-86074331D01*
X96115642Y-86223554D01*
X96060493Y-86389980D01*
X96050319Y-86489567D01*
X96050000Y-86495845D01*
X96050000Y-86630177D01*
X91000000Y-86630177D01*
X91000000Y-81127728D01*
X94741500Y-81127728D01*
X94741501Y-81129347D01*
X94741587Y-81130979D01*
X94741588Y-81130991D01*
X94744084Y-81178004D01*
X94744084Y-81178011D01*
X94744311Y-81182269D01*
X94745121Y-81186459D01*
X94745122Y-81186464D01*
X94789029Y-81413489D01*
X94809025Y-81466475D01*
X94872182Y-81633829D01*
X94991375Y-81836945D01*
X95143181Y-82016996D01*
X95323232Y-82168802D01*
X95526348Y-82287995D01*
X95746686Y-82371147D01*
X95977908Y-82415866D01*
X96030829Y-82418677D01*
X97969170Y-82418676D01*
X98022092Y-82415866D01*
X98253314Y-82371147D01*
X98473652Y-82287995D01*
X98676768Y-82168802D01*
X98856819Y-82016996D01*
X99008625Y-81836945D01*
X99127818Y-81633829D01*
X99210970Y-81413491D01*
X99255689Y-81182269D01*
X99258500Y-81129348D01*
X99258499Y-79191007D01*
X99255689Y-79138085D01*
X99210970Y-78906863D01*
X99127818Y-78686525D01*
X99008625Y-78483409D01*
X98856819Y-78303358D01*
X98676768Y-78151552D01*
X98473652Y-78032359D01*
X98278443Y-77958690D01*
X98222673Y-77916604D01*
X98198509Y-77851045D01*
X98213624Y-77782830D01*
X98263220Y-77733616D01*
X98322226Y-77718677D01*
X101795328Y-77718677D01*
X101798638Y-77718677D01*
X101859201Y-77712166D01*
X101859203Y-77712165D01*
X101859205Y-77712165D01*
X101955690Y-77676177D01*
X101996204Y-77661066D01*
X102113261Y-77573438D01*
X102200889Y-77456381D01*
X102251989Y-77319378D01*
X102258500Y-77258815D01*
X102258500Y-73661539D01*
X102251989Y-73600976D01*
X102251988Y-73600974D01*
X102251988Y-73600971D01*
X102200889Y-73463973D01*
X102113261Y-73346915D01*
X101996203Y-73259287D01*
X101859205Y-73208188D01*
X101801924Y-73202030D01*
X101801918Y-73202029D01*
X101798638Y-73201677D01*
X98201362Y-73201677D01*
X98198082Y-73202029D01*
X98198075Y-73202030D01*
X98140794Y-73208188D01*
X98003796Y-73259287D01*
X97886738Y-73346915D01*
X97799110Y-73463973D01*
X97748011Y-73600971D01*
X97742112Y-73655844D01*
X97741500Y-73661539D01*
X97741500Y-77258815D01*
X97741852Y-77262095D01*
X97741853Y-77262101D01*
X97748011Y-77319382D01*
X97799110Y-77456380D01*
X97886738Y-77573438D01*
X97922025Y-77599853D01*
X98003796Y-77661066D01*
X98004826Y-77661450D01*
X98004949Y-77661496D01*
X98060882Y-77703369D01*
X98085297Y-77768834D01*
X98070444Y-77837106D01*
X98021038Y-77886510D01*
X97961613Y-77901677D01*
X96032485Y-77901677D01*
X96032447Y-77901677D01*
X96030830Y-77901678D01*
X96029198Y-77901764D01*
X96029185Y-77901765D01*
X95982172Y-77904261D01*
X95982163Y-77904262D01*
X95977908Y-77904488D01*
X95973719Y-77905298D01*
X95973712Y-77905299D01*
X95746687Y-77949206D01*
X95526345Y-78032360D01*
X95323232Y-78151552D01*
X95143181Y-78303358D01*
X94991375Y-78483409D01*
X94872183Y-78686522D01*
X94789029Y-78906864D01*
X94745905Y-79129844D01*
X94744311Y-79138085D01*
X94744085Y-79142349D01*
X94744083Y-79142364D01*
X94741587Y-79189355D01*
X94741587Y-79189362D01*
X94741500Y-79191006D01*
X94741500Y-79192649D01*
X94741500Y-79192650D01*
X94741500Y-81127691D01*
X94741500Y-81127728D01*
X91000000Y-81127728D01*
X91000000Y-75210176D01*
X91999999Y-75210176D01*
X92000000Y-75210177D01*
X93500000Y-75210177D01*
X93500000Y-75710177D01*
X92000001Y-75710177D01*
X92000001Y-76521921D01*
X92000192Y-76526802D01*
X92010400Y-76656508D01*
X92065377Y-76874695D01*
X92158430Y-77079556D01*
X92286565Y-77264509D01*
X92445667Y-77423611D01*
X92630620Y-77551746D01*
X92835481Y-77644799D01*
X93053668Y-77699776D01*
X93183374Y-77709985D01*
X93188254Y-77710176D01*
X93749999Y-77710176D01*
X93750000Y-77710175D01*
X93750000Y-76893863D01*
X93790156Y-76919670D01*
X93928111Y-76960177D01*
X94071889Y-76960177D01*
X94209844Y-76919670D01*
X94250000Y-76893863D01*
X94250000Y-77710176D01*
X94811744Y-77710176D01*
X94816625Y-77709984D01*
X94946331Y-77699776D01*
X95164518Y-77644799D01*
X95369379Y-77551746D01*
X95554332Y-77423611D01*
X95713434Y-77264509D01*
X95841569Y-77079556D01*
X95934622Y-76874695D01*
X95989599Y-76656508D01*
X95999808Y-76526802D01*
X96000000Y-76521922D01*
X96000000Y-75710177D01*
X94500000Y-75710177D01*
X94500000Y-75210177D01*
X95999999Y-75210177D01*
X95999999Y-74398432D01*
X95999807Y-74393551D01*
X95989599Y-74263845D01*
X95934622Y-74045658D01*
X95841569Y-73840797D01*
X95713434Y-73655844D01*
X95554332Y-73496742D01*
X95369379Y-73368607D01*
X95164518Y-73275554D01*
X94946331Y-73220577D01*
X94816625Y-73210368D01*
X94811746Y-73210177D01*
X94250000Y-73210177D01*
X94250000Y-74026490D01*
X94209844Y-74000684D01*
X94071889Y-73960177D01*
X93928111Y-73960177D01*
X93790156Y-74000684D01*
X93750000Y-74026490D01*
X93750000Y-73210177D01*
X93188255Y-73210177D01*
X93183374Y-73210369D01*
X93053668Y-73220577D01*
X92835481Y-73275554D01*
X92630620Y-73368607D01*
X92445667Y-73496742D01*
X92286565Y-73655844D01*
X92158430Y-73840797D01*
X92065377Y-74045658D01*
X92010400Y-74263845D01*
X92000191Y-74393551D01*
X92000000Y-74398431D01*
X91999999Y-75210176D01*
X91000000Y-75210176D01*
X91000000Y-65920000D01*
X128686526Y-65920000D01*
X128706391Y-66172404D01*
X128765494Y-66418590D01*
X128773012Y-66436739D01*
X128862384Y-66652502D01*
X128994672Y-66868376D01*
X129159102Y-67060898D01*
X129351624Y-67225328D01*
X129567498Y-67357616D01*
X129801409Y-67454505D01*
X130047597Y-67513609D01*
X130300000Y-67533474D01*
X130552403Y-67513609D01*
X130798591Y-67454505D01*
X131032502Y-67357616D01*
X131248376Y-67225328D01*
X131440898Y-67060898D01*
X131605328Y-66868376D01*
X131737616Y-66652502D01*
X131834505Y-66418591D01*
X131893609Y-66172403D01*
X131913474Y-65920000D01*
X131893609Y-65667597D01*
X131834505Y-65421409D01*
X131737616Y-65187498D01*
X131605328Y-64971624D01*
X131440898Y-64779102D01*
X131248376Y-64614672D01*
X131032502Y-64482384D01*
X130915546Y-64433939D01*
X130798590Y-64385494D01*
X130552404Y-64326391D01*
X130426201Y-64316458D01*
X130300000Y-64306526D01*
X130299999Y-64306526D01*
X130047595Y-64326391D01*
X129801409Y-64385494D01*
X129567496Y-64482385D01*
X129351625Y-64614671D01*
X129159102Y-64779102D01*
X128994671Y-64971625D01*
X128862385Y-65187496D01*
X128765494Y-65421409D01*
X128706391Y-65667595D01*
X128686526Y-65920000D01*
X91000000Y-65920000D01*
X91000000Y-62000000D01*
X96294356Y-62000000D01*
X96314891Y-62247816D01*
X96314891Y-62247819D01*
X96314892Y-62247821D01*
X96375937Y-62488881D01*
X96403702Y-62552179D01*
X96475825Y-62716604D01*
X96475827Y-62716607D01*
X96611836Y-62924785D01*
X96780256Y-63107738D01*
X96780259Y-63107740D01*
X96976485Y-63260470D01*
X96976487Y-63260471D01*
X96976491Y-63260474D01*
X97195190Y-63378828D01*
X97430386Y-63459571D01*
X97675665Y-63500500D01*
X97924335Y-63500500D01*
X98169614Y-63459571D01*
X98404810Y-63378828D01*
X98623509Y-63260474D01*
X98819744Y-63107738D01*
X98988164Y-62924785D01*
X99124173Y-62716607D01*
X99224063Y-62488881D01*
X99285108Y-62247821D01*
X99305643Y-62000000D01*
X99285108Y-61752179D01*
X99224063Y-61511119D01*
X99124173Y-61283393D01*
X98988164Y-61075215D01*
X98819744Y-60892262D01*
X98797612Y-60875036D01*
X98623514Y-60739529D01*
X98623510Y-60739526D01*
X98623509Y-60739526D01*
X98404810Y-60621172D01*
X98404806Y-60621170D01*
X98404805Y-60621170D01*
X98169615Y-60540429D01*
X97924335Y-60499500D01*
X97675665Y-60499500D01*
X97430384Y-60540429D01*
X97195194Y-60621170D01*
X96976485Y-60739529D01*
X96780259Y-60892259D01*
X96611837Y-61075214D01*
X96475825Y-61283395D01*
X96415392Y-61421170D01*
X96375937Y-61511119D01*
X96368743Y-61539529D01*
X96314891Y-61752183D01*
X96294356Y-62000000D01*
X91000000Y-62000000D01*
X91000000Y-59124000D01*
X91019685Y-59056961D01*
X91072489Y-59011206D01*
X91124000Y-59000000D01*
X154716658Y-59000000D01*
X154783697Y-59019685D01*
G37*
G04 #@! TD.AperFunction*
D47*
X123600000Y-114150000D03*
X155700000Y-59950000D03*
X116300000Y-73917677D03*
X128700000Y-112650000D03*
X121400000Y-69700000D03*
X126900000Y-83000000D03*
X133400000Y-118100000D03*
X141450000Y-145700000D03*
X123050000Y-143050000D03*
X123000000Y-128900000D03*
X104100000Y-73917677D03*
X191100000Y-108000000D03*
X191950000Y-81000000D03*
X97300000Y-85117677D03*
X132900000Y-85950000D03*
X145000000Y-127200000D03*
X144150000Y-145650000D03*
X141600000Y-98950000D03*
D48*
X100000000Y-75460177D03*
X94000000Y-75460177D03*
D49*
X97000000Y-80160177D03*
D47*
X181000000Y-94000000D03*
X186000000Y-94000000D03*
X103000000Y-126000000D03*
X103000000Y-128000000D03*
X113000000Y-125840000D03*
X113000000Y-128380000D03*
X113000000Y-133460000D03*
X113000000Y-136000000D03*
X113000000Y-138540000D03*
X152000000Y-91920000D03*
X152000000Y-94460000D03*
X152000000Y-97000000D03*
X150000000Y-73920000D03*
X148000000Y-73920000D03*
X123300000Y-73950000D03*
X123300000Y-78950000D03*
X181000000Y-108000000D03*
X186000000Y-108000000D03*
X139000000Y-73920000D03*
X139000000Y-78920000D03*
X179000000Y-79000000D03*
X179000000Y-84080000D03*
X185000000Y-78300000D03*
X185000000Y-80000000D03*
X185000000Y-81700000D03*
X185000000Y-83400000D03*
X185000000Y-85100000D03*
X189000000Y-68000000D03*
X184000000Y-68000000D03*
X145000000Y-98920000D03*
X145000000Y-96920000D03*
X173000000Y-69300000D03*
X173000000Y-94700000D03*
X145000000Y-89920000D03*
X145000000Y-91920000D03*
X155700000Y-65920000D03*
X130300000Y-65920000D03*
X118000000Y-133000000D03*
X118000000Y-131000000D03*
X118000000Y-141000000D03*
X118000000Y-139000000D03*
X131655000Y-150460000D03*
X156655000Y-150460000D03*
X138615000Y-150160000D03*
X141385000Y-150160000D03*
X144155000Y-150160000D03*
X146925000Y-150160000D03*
X149695000Y-150160000D03*
X140000000Y-153000000D03*
X142770000Y-153000000D03*
X145540000Y-153000000D03*
X148310000Y-153000000D03*
X123000000Y-85000000D03*
X128000000Y-136000000D03*
X151500000Y-82920000D03*
X146500000Y-82920000D03*
X133000000Y-91920000D03*
X133000000Y-94460000D03*
X133000000Y-97000000D03*
M02*
