%TF.GenerationSoftware,KiCad,Pcbnew,6.0.4-1.fc35*%
%TF.CreationDate,2022-04-07T15:47:32+02:00*%
%TF.ProjectId,office_amp,6f666669-6365-45f6-916d-702e6b696361,rev?*%
%TF.SameCoordinates,Original*%
%TF.FileFunction,Plated,1,4,PTH,Mixed*%
%TF.FilePolarity,Positive*%
%FSLAX46Y46*%
G04 Gerber Fmt 4.6, Leading zero omitted, Abs format (unit mm)*
G04 Created by KiCad (PCBNEW 6.0.4-1.fc35) date 2022-04-07 15:47:32*
%MOMM*%
%LPD*%
G01*
G04 APERTURE LIST*
%TA.AperFunction,ComponentDrill*%
%ADD10C,0.300000*%
%TD*%
%TA.AperFunction,ViaDrill*%
%ADD11C,0.400000*%
%TD*%
%TA.AperFunction,ViaDrill*%
%ADD12C,0.600000*%
%TD*%
%TA.AperFunction,ComponentDrill*%
%ADD13C,0.800000*%
%TD*%
G04 aperture for slot hole*
%TA.AperFunction,ComponentDrill*%
%ADD14O,1.000000X3.000000*%
%TD*%
G04 aperture for slot hole*
%TA.AperFunction,ComponentDrill*%
%ADD15O,3.000000X1.000000*%
%TD*%
%TA.AperFunction,ComponentDrill*%
%ADD16C,1.000000*%
%TD*%
%TA.AperFunction,ComponentDrill*%
%ADD17C,1.300000*%
%TD*%
%TA.AperFunction,ComponentDrill*%
%ADD18C,1.400000*%
%TD*%
%TA.AperFunction,ComponentDrill*%
%ADD19C,3.500000*%
%TD*%
G04 APERTURE END LIST*
D10*
%TO.C,U6*%
X131700000Y-127850000D03*
X131700000Y-129150000D03*
X131700000Y-130450000D03*
X131700000Y-131750000D03*
X131700000Y-133050000D03*
X131700000Y-134350000D03*
X133000000Y-127850000D03*
X133000000Y-129150000D03*
X133000000Y-130450000D03*
X133000000Y-131750000D03*
X133000000Y-133050000D03*
X133000000Y-134350000D03*
X134300000Y-127850000D03*
X134300000Y-129150000D03*
X134300000Y-130450000D03*
X134300000Y-131750000D03*
X134300000Y-133050000D03*
X134300000Y-134350000D03*
%TD*%
D11*
X93500000Y-134300000D03*
X93600000Y-116000000D03*
X93600000Y-118100000D03*
X94200000Y-111200000D03*
X94500000Y-138300000D03*
X96100000Y-120700000D03*
X96100000Y-124900000D03*
X96200000Y-128600000D03*
X98300000Y-133900000D03*
X98500000Y-123900000D03*
X98600000Y-125900000D03*
X98800000Y-78100000D03*
X100100000Y-140100000D03*
X102349500Y-119300000D03*
X102400000Y-120300000D03*
X103300000Y-125900000D03*
X103300000Y-133900000D03*
X103600000Y-123900000D03*
X103700000Y-109000000D03*
X105400000Y-109500000D03*
X105700000Y-122700000D03*
X105800000Y-129999500D03*
X105900000Y-111200000D03*
X106600000Y-140200000D03*
X108400000Y-116000000D03*
X108400000Y-118100000D03*
X112900000Y-140000000D03*
X115500000Y-121600000D03*
X117100000Y-122000000D03*
X117600000Y-126000000D03*
X117700000Y-129500000D03*
X117700000Y-132000000D03*
X120300000Y-95200000D03*
X121100000Y-94300000D03*
X124200000Y-129100000D03*
X126000000Y-107900000D03*
X126000000Y-109500000D03*
X126100000Y-134100000D03*
X126200000Y-111000000D03*
X128270023Y-127929977D03*
X128300000Y-134124500D03*
X136000000Y-106562355D03*
X139100000Y-74000000D03*
X139300000Y-131100000D03*
X139410377Y-132099500D03*
X140800000Y-132324500D03*
X152250000Y-81250000D03*
X153750000Y-74250000D03*
X155700000Y-78000000D03*
X156000000Y-105800000D03*
X159200000Y-74600000D03*
X160500000Y-76900000D03*
X172000000Y-95700000D03*
X172200000Y-97700000D03*
X172200000Y-106500000D03*
X172700000Y-69800000D03*
X177000000Y-91700000D03*
X181100000Y-99000000D03*
X183100000Y-75900000D03*
X190400000Y-79900000D03*
X191272536Y-63827464D03*
X191800000Y-107500000D03*
X191900000Y-84100000D03*
X191900000Y-94200000D03*
X192200000Y-63000000D03*
X193900000Y-107600000D03*
X194000000Y-98200000D03*
X194037500Y-78362500D03*
X194100000Y-82900000D03*
X197500000Y-99000000D03*
X199000000Y-67300000D03*
X199100000Y-86200000D03*
D12*
X100000000Y-137500000D03*
X104800000Y-79000000D03*
X106800000Y-134200000D03*
X113000000Y-134500000D03*
X113800000Y-61500000D03*
X113800000Y-64000000D03*
X113800000Y-66500000D03*
X116900000Y-70800000D03*
X116900000Y-72000000D03*
X116900000Y-73300000D03*
X116900000Y-74600000D03*
X118500000Y-106000000D03*
X120399500Y-136600000D03*
X122600000Y-126000000D03*
X125800000Y-63000000D03*
X125800000Y-65000000D03*
X139300000Y-63000000D03*
X139300000Y-65100000D03*
D13*
%TO.C,L3*%
X100300000Y-89500000D03*
X113000000Y-89500000D03*
%TO.C,K3*%
X123920000Y-87840000D03*
X123920000Y-90380000D03*
X123920000Y-92920000D03*
X123920000Y-98000000D03*
X129000000Y-87840000D03*
X129000000Y-90380000D03*
X129000000Y-92920000D03*
X129000000Y-98180000D03*
%TO.C,K4*%
X133920000Y-87840000D03*
X133920000Y-90380000D03*
X133920000Y-92920000D03*
X133920000Y-98000000D03*
X139000000Y-87840000D03*
X139000000Y-90380000D03*
X139000000Y-92920000D03*
X139000000Y-98000000D03*
%TO.C,K2*%
X143920000Y-87840000D03*
X143920000Y-90380000D03*
X143920000Y-92920000D03*
X143920000Y-98000000D03*
X149000000Y-87840000D03*
X149000000Y-90380000D03*
X149000000Y-92920000D03*
X149000000Y-98000000D03*
%TO.C,K1*%
X153920000Y-87840000D03*
X153920000Y-90380000D03*
X153920000Y-92920000D03*
X153920000Y-98000000D03*
X159000000Y-87840000D03*
X159000000Y-90380000D03*
X159000000Y-92920000D03*
X159000000Y-98000000D03*
%TO.C,C22*%
X166600000Y-124100000D03*
X166600000Y-129100000D03*
%TO.C,C23*%
X166600000Y-132900000D03*
X166600000Y-137900000D03*
%TO.C,U9*%
X181280000Y-88600000D03*
X181280000Y-96220000D03*
X183820000Y-88600000D03*
X183820000Y-96220000D03*
X186360000Y-88600000D03*
X186360000Y-96220000D03*
X188900000Y-88600000D03*
X188900000Y-96220000D03*
%TO.C,U8*%
X196900000Y-88600000D03*
X196900000Y-96220000D03*
X199440000Y-88600000D03*
X199440000Y-96220000D03*
X201980000Y-88600000D03*
X201980000Y-96220000D03*
X204520000Y-88600000D03*
X204520000Y-96220000D03*
D14*
%TO.C,J1*%
X96200000Y-67000000D03*
D15*
X99200000Y-71700000D03*
D16*
%TO.C,J3*%
X99380000Y-148212500D03*
X99380000Y-150752500D03*
X101920000Y-148212500D03*
X101920000Y-150752500D03*
D14*
%TO.C,J1*%
X102200000Y-67000000D03*
D16*
%TO.C,J3*%
X104460000Y-148212500D03*
X104460000Y-150752500D03*
X107000000Y-148212500D03*
X107000000Y-150752500D03*
%TO.C,C3*%
X109000000Y-82000000D03*
%TO.C,J3*%
X109540000Y-148212500D03*
X109540000Y-150752500D03*
X112080000Y-148212500D03*
X112080000Y-150752500D03*
%TO.C,U5*%
X113000000Y-93300000D03*
X113000000Y-95840000D03*
X113000000Y-98380000D03*
X113000000Y-100920000D03*
X113000000Y-103460000D03*
X113000000Y-106000000D03*
%TO.C,C3*%
X114000000Y-82000000D03*
%TO.C,J3*%
X114620000Y-148212500D03*
X114620000Y-150752500D03*
%TO.C,C10*%
X130000000Y-116100000D03*
%TO.C,C11*%
X130000000Y-146100000D03*
%TO.C,U2*%
X132000000Y-63000000D03*
X132000000Y-65540000D03*
X132000000Y-70620000D03*
X132000000Y-73160000D03*
X132000000Y-75700000D03*
%TO.C,C10*%
X135000000Y-116100000D03*
%TO.C,C11*%
X135000000Y-146100000D03*
%TO.C,U4*%
X145000000Y-63000000D03*
X145000000Y-65540000D03*
X145000000Y-70620000D03*
X145000000Y-73160000D03*
X145000000Y-75700000D03*
%TO.C,J8*%
X157000000Y-67475000D03*
X157000000Y-70015000D03*
X157000000Y-72555000D03*
%TO.C,J2*%
X162000000Y-67475000D03*
X162000000Y-70015000D03*
X162000000Y-72555000D03*
%TO.C,C24*%
X172600000Y-124100000D03*
%TO.C,C25*%
X172600000Y-139000000D03*
%TO.C,C24*%
X177600000Y-124100000D03*
%TO.C,C25*%
X177600000Y-139000000D03*
D17*
%TO.C,RV2*%
X180425000Y-104400000D03*
X182925000Y-114400000D03*
X185425000Y-104400000D03*
%TO.C,J7*%
X187600000Y-123600000D03*
X187600000Y-128600000D03*
X187600000Y-133600000D03*
X187600000Y-138600000D03*
%TO.C,RV1*%
X200900000Y-104400000D03*
X203400000Y-114400000D03*
X205900000Y-104400000D03*
D18*
%TO.C,TP2*%
X97250000Y-84000000D03*
%TO.C,TP5*%
X179000000Y-79500000D03*
D19*
%TO.C,REF\u002A\u002A*%
X122500000Y-70050000D03*
X166500000Y-90000000D03*
X166500000Y-147950000D03*
X179500000Y-70050000D03*
M02*
