G04 #@! TF.GenerationSoftware,KiCad,Pcbnew,6.0.6-2.fc35*
G04 #@! TF.CreationDate,2022-07-15T01:41:46+02:00*
G04 #@! TF.ProjectId,office_amp,6f666669-6365-45f6-916d-702e6b696361,rev?*
G04 #@! TF.SameCoordinates,Original*
G04 #@! TF.FileFunction,Soldermask,Top*
G04 #@! TF.FilePolarity,Negative*
%FSLAX46Y46*%
G04 Gerber Fmt 4.6, Leading zero omitted, Abs format (unit mm)*
G04 Created by KiCad (PCBNEW 6.0.6-2.fc35) date 2022-07-15 01:41:46*
%MOMM*%
%LPD*%
G01*
G04 APERTURE LIST*
G04 Aperture macros list*
%AMRoundRect*
0 Rectangle with rounded corners*
0 $1 Rounding radius*
0 $2 $3 $4 $5 $6 $7 $8 $9 X,Y pos of 4 corners*
0 Add a 4 corners polygon primitive as box body*
4,1,4,$2,$3,$4,$5,$6,$7,$8,$9,$2,$3,0*
0 Add four circle primitives for the rounded corners*
1,1,$1+$1,$2,$3*
1,1,$1+$1,$4,$5*
1,1,$1+$1,$6,$7*
1,1,$1+$1,$8,$9*
0 Add four rect primitives between the rounded corners*
20,1,$1+$1,$2,$3,$4,$5,0*
20,1,$1+$1,$4,$5,$6,$7,0*
20,1,$1+$1,$6,$7,$8,$9,0*
20,1,$1+$1,$8,$9,$2,$3,0*%
%AMFreePoly0*
4,1,6,1.000000,0.000000,0.500000,-0.750000,-0.500000,-0.750000,-0.500000,0.750000,0.500000,0.750000,1.000000,0.000000,1.000000,0.000000,$1*%
%AMFreePoly1*
4,1,6,0.500000,-0.750000,-0.650000,-0.750000,-0.150000,0.000000,-0.650000,0.750000,0.500000,0.750000,0.500000,-0.750000,0.500000,-0.750000,$1*%
G04 Aperture macros list end*
%ADD10RoundRect,0.250000X0.450000X-0.350000X0.450000X0.350000X-0.450000X0.350000X-0.450000X-0.350000X0*%
%ADD11FreePoly0,0.000000*%
%ADD12FreePoly1,0.000000*%
%ADD13R,1.750000X0.550000*%
%ADD14R,3.500000X3.500000*%
%ADD15RoundRect,0.750000X-0.750000X-1.000000X0.750000X-1.000000X0.750000X1.000000X-0.750000X1.000000X0*%
%ADD16RoundRect,0.875000X-0.875000X-0.875000X0.875000X-0.875000X0.875000X0.875000X-0.875000X0.875000X0*%
%ADD17RoundRect,0.150000X-0.512500X-0.150000X0.512500X-0.150000X0.512500X0.150000X-0.512500X0.150000X0*%
%ADD18RoundRect,0.250000X0.337500X0.475000X-0.337500X0.475000X-0.337500X-0.475000X0.337500X-0.475000X0*%
%ADD19RoundRect,0.250000X-0.475000X0.337500X-0.475000X-0.337500X0.475000X-0.337500X0.475000X0.337500X0*%
%ADD20RoundRect,0.250000X-0.337500X-0.475000X0.337500X-0.475000X0.337500X0.475000X-0.337500X0.475000X0*%
%ADD21R,1.600000X1.600000*%
%ADD22C,1.700000*%
%ADD23C,1.900000*%
%ADD24R,2.000000X2.000000*%
%ADD25C,2.000000*%
%ADD26RoundRect,0.250000X0.600000X-0.600000X0.600000X0.600000X-0.600000X0.600000X-0.600000X-0.600000X0*%
%ADD27C,1.600000*%
%ADD28RoundRect,0.250000X0.475000X-0.337500X0.475000X0.337500X-0.475000X0.337500X-0.475000X-0.337500X0*%
%ADD29R,0.900000X1.200000*%
%ADD30RoundRect,0.250500X0.499500X0.499500X-0.499500X0.499500X-0.499500X-0.499500X0.499500X-0.499500X0*%
%ADD31C,1.500000*%
%ADD32RoundRect,0.250000X-0.450000X0.350000X-0.450000X-0.350000X0.450000X-0.350000X0.450000X0.350000X0*%
%ADD33C,2.340000*%
%ADD34R,1.905000X2.000000*%
%ADD35O,1.905000X2.000000*%
%ADD36O,1.600000X1.600000*%
%ADD37RoundRect,0.250000X-0.350000X-0.450000X0.350000X-0.450000X0.350000X0.450000X-0.350000X0.450000X0*%
%ADD38RoundRect,0.150000X0.150000X-0.587500X0.150000X0.587500X-0.150000X0.587500X-0.150000X-0.587500X0*%
%ADD39RoundRect,0.250000X0.350000X0.450000X-0.350000X0.450000X-0.350000X-0.450000X0.350000X-0.450000X0*%
%ADD40R,1.700000X1.700000*%
%ADD41O,1.700000X1.700000*%
%ADD42R,2.400000X4.680000*%
%ADD43RoundRect,0.100000X-0.687500X-0.100000X0.687500X-0.100000X0.687500X0.100000X-0.687500X0.100000X0*%
%ADD44R,2.500000X2.500000*%
%ADD45C,2.500000*%
%ADD46R,6.705000X2.794000*%
%ADD47C,1.000000*%
%ADD48C,7.000000*%
%ADD49C,2.800000*%
%ADD50C,3.000000*%
%ADD51RoundRect,0.150000X-0.725000X-0.150000X0.725000X-0.150000X0.725000X0.150000X-0.725000X0.150000X0*%
%ADD52R,1.800000X3.500000*%
%ADD53RoundRect,0.100000X-0.637500X-0.100000X0.637500X-0.100000X0.637500X0.100000X-0.637500X0.100000X0*%
%ADD54R,2.000000X1.905000*%
%ADD55O,2.000000X1.905000*%
%ADD56RoundRect,0.150000X0.825000X0.150000X-0.825000X0.150000X-0.825000X-0.150000X0.825000X-0.150000X0*%
%ADD57RoundRect,0.150000X0.725000X0.150000X-0.725000X0.150000X-0.725000X-0.150000X0.725000X-0.150000X0*%
G04 APERTURE END LIST*
D10*
X113100000Y-118000000D03*
X113100000Y-116000000D03*
X111100000Y-118000000D03*
X111100000Y-116000000D03*
D11*
X110275000Y-61500000D03*
D12*
X111725000Y-61500000D03*
D13*
X114900000Y-70800000D03*
X114900000Y-74610000D03*
X114900000Y-73340000D03*
X114900000Y-72070000D03*
X107500000Y-74610000D03*
X107500000Y-72070000D03*
X107500000Y-70800000D03*
X107500000Y-73340000D03*
D14*
X102200000Y-67000000D03*
D15*
X96200000Y-67000000D03*
D16*
X99200000Y-71700000D03*
D17*
X100862500Y-77050000D03*
X100862500Y-78000000D03*
X100862500Y-78950000D03*
X103137500Y-78950000D03*
X103137500Y-78000000D03*
X103137500Y-77050000D03*
D18*
X168982500Y-77000000D03*
X166907500Y-77000000D03*
D19*
X165000000Y-65962500D03*
X165000000Y-68037500D03*
D20*
X162907500Y-77000000D03*
X164982500Y-77000000D03*
D21*
X138550000Y-62600000D03*
D22*
X138550000Y-65140000D03*
X138550000Y-70220000D03*
X138550000Y-72760000D03*
X138550000Y-75300000D03*
D23*
X113000000Y-106000000D03*
X113000000Y-103460000D03*
X113000000Y-100920000D03*
X113000000Y-98380000D03*
X113000000Y-95840000D03*
X113000000Y-93300000D03*
D24*
X130000000Y-146100000D03*
D25*
X135000000Y-146100000D03*
D26*
X99380000Y-150752500D03*
D22*
X99380000Y-148212500D03*
X101920000Y-150752500D03*
X101920000Y-148212500D03*
X104460000Y-150752500D03*
X104460000Y-148212500D03*
X107000000Y-150752500D03*
X107000000Y-148212500D03*
X109540000Y-150752500D03*
X109540000Y-148212500D03*
X112080000Y-150752500D03*
X112080000Y-148212500D03*
X114620000Y-150752500D03*
X114620000Y-148212500D03*
D21*
X128000000Y-61000000D03*
D27*
X128000000Y-63000000D03*
D21*
X161000000Y-66000000D03*
D27*
X161000000Y-68000000D03*
D21*
X146000000Y-73044888D03*
D27*
X146000000Y-71044888D03*
D28*
X186900000Y-71037500D03*
X186900000Y-68962500D03*
D20*
X197062500Y-78400000D03*
X199137500Y-78400000D03*
D18*
X188937500Y-78400000D03*
X186862500Y-78400000D03*
X194037500Y-111000000D03*
X191962500Y-111000000D03*
D21*
X146000000Y-66000000D03*
D27*
X146000000Y-64000000D03*
D28*
X202950000Y-101037500D03*
X202950000Y-98962500D03*
X187000000Y-101037500D03*
X187000000Y-98962500D03*
D29*
X153800000Y-101000000D03*
X150500000Y-101000000D03*
X123650000Y-101000000D03*
X120350000Y-101000000D03*
D30*
X154500000Y-98000000D03*
D31*
X154500000Y-92920000D03*
X154500000Y-90380000D03*
X154500000Y-87840000D03*
X149420000Y-87840000D03*
X149420000Y-90380000D03*
X149420000Y-92920000D03*
X149420000Y-98000000D03*
D30*
X134500000Y-98000000D03*
D31*
X134500000Y-92920000D03*
X134500000Y-90380000D03*
X134500000Y-87840000D03*
X129420000Y-87840000D03*
X129420000Y-90380000D03*
X129420000Y-92920000D03*
X129420000Y-98000000D03*
D10*
X186900000Y-74900000D03*
X186900000Y-72900000D03*
D32*
X193900000Y-85400000D03*
X193900000Y-87400000D03*
X191900000Y-85400000D03*
X191900000Y-87400000D03*
D10*
X200950000Y-101000000D03*
X200950000Y-99000000D03*
X185000000Y-101000000D03*
X185000000Y-99000000D03*
D32*
X199000000Y-99000000D03*
X199000000Y-101000000D03*
X183000000Y-99000000D03*
X183000000Y-101000000D03*
D33*
X200900000Y-104400000D03*
X203400000Y-114400000D03*
X205900000Y-104400000D03*
X180425000Y-104400000D03*
X182925000Y-114400000D03*
X185425000Y-104400000D03*
D34*
X169000000Y-80000000D03*
D35*
X166460000Y-80000000D03*
X163920000Y-80000000D03*
D21*
X188900000Y-88600000D03*
D36*
X186360000Y-88600000D03*
X183820000Y-88600000D03*
X181280000Y-88600000D03*
X181280000Y-96220000D03*
X183820000Y-96220000D03*
X186360000Y-96220000D03*
X188900000Y-96220000D03*
D11*
X110275000Y-64000000D03*
D12*
X111725000Y-64000000D03*
D24*
X114000000Y-82000000D03*
D25*
X109000000Y-82000000D03*
D28*
X97000000Y-79037500D03*
X97000000Y-76962500D03*
X95000000Y-79037500D03*
X95000000Y-76962500D03*
D21*
X204520000Y-88600000D03*
D36*
X201980000Y-88600000D03*
X199440000Y-88600000D03*
X196900000Y-88600000D03*
X196900000Y-96220000D03*
X199440000Y-96220000D03*
X201980000Y-96220000D03*
X204520000Y-96220000D03*
D20*
X191962500Y-68900000D03*
X194037500Y-68900000D03*
D10*
X199000000Y-74900000D03*
X199000000Y-72900000D03*
D28*
X199000000Y-71037500D03*
X199000000Y-68962500D03*
D37*
X197100000Y-80400000D03*
X199100000Y-80400000D03*
D38*
X197150000Y-84737500D03*
X199050000Y-84737500D03*
X198100000Y-82862500D03*
X186950000Y-84737500D03*
X188850000Y-84737500D03*
X187900000Y-82862500D03*
D39*
X188900000Y-80400000D03*
X186900000Y-80400000D03*
D20*
X191962500Y-79900000D03*
X194037500Y-79900000D03*
D40*
X158000000Y-103475000D03*
D41*
X158000000Y-106015000D03*
X158000000Y-108555000D03*
D27*
X166600000Y-124100000D03*
X166600000Y-129100000D03*
D42*
X133000000Y-131100000D03*
D43*
X130137500Y-127525000D03*
X130137500Y-128175000D03*
X130137500Y-128825000D03*
X130137500Y-129475000D03*
X130137500Y-130125000D03*
X130137500Y-130775000D03*
X130137500Y-131425000D03*
X130137500Y-132075000D03*
X130137500Y-132725000D03*
X130137500Y-133375000D03*
X130137500Y-134025000D03*
X130137500Y-134675000D03*
X135862500Y-134675000D03*
X135862500Y-134025000D03*
X135862500Y-133375000D03*
X135862500Y-132725000D03*
X135862500Y-132075000D03*
X135862500Y-131425000D03*
X135862500Y-130775000D03*
X135862500Y-130125000D03*
X135862500Y-129475000D03*
X135862500Y-128825000D03*
X135862500Y-128175000D03*
X135862500Y-127525000D03*
D19*
X145000000Y-127562500D03*
X145000000Y-129637500D03*
D44*
X187600000Y-123600000D03*
D45*
X187600000Y-128600000D03*
X187600000Y-133600000D03*
X187600000Y-138600000D03*
D18*
X121037500Y-129500000D03*
X118962500Y-129500000D03*
D24*
X172600000Y-139000000D03*
D25*
X177600000Y-139000000D03*
D46*
X146316500Y-121000000D03*
X161683500Y-121000000D03*
D28*
X145000000Y-134637500D03*
X145000000Y-132562500D03*
D18*
X121000000Y-135100000D03*
X118925000Y-135100000D03*
D27*
X166600000Y-132900000D03*
X166600000Y-137900000D03*
D20*
X129962500Y-138100000D03*
X132037500Y-138100000D03*
X130000000Y-124100000D03*
X132075000Y-124100000D03*
D24*
X172600000Y-124100000D03*
D25*
X177600000Y-124100000D03*
D46*
X146316500Y-141000000D03*
X161683500Y-141000000D03*
D24*
X130000000Y-116100000D03*
D25*
X135000000Y-116100000D03*
D18*
X121000000Y-138100000D03*
X118925000Y-138100000D03*
X121037500Y-132000000D03*
X118962500Y-132000000D03*
D30*
X124500000Y-98180000D03*
D31*
X124500000Y-92920000D03*
X124500000Y-90380000D03*
X124500000Y-87840000D03*
X119420000Y-87840000D03*
X119420000Y-90380000D03*
X119420000Y-92920000D03*
X119420000Y-98000000D03*
D40*
X167000000Y-103475000D03*
D41*
X167000000Y-106015000D03*
X167000000Y-108555000D03*
D30*
X144500000Y-98000000D03*
D31*
X144500000Y-92920000D03*
X144500000Y-90380000D03*
X144500000Y-87840000D03*
X139420000Y-87840000D03*
X139420000Y-90380000D03*
X139420000Y-92920000D03*
X139420000Y-98000000D03*
D19*
X138500000Y-102962500D03*
X138500000Y-105037500D03*
D47*
X200100000Y-138600000D03*
D28*
X178000000Y-83037500D03*
X178000000Y-80962500D03*
D47*
X122900000Y-127900000D03*
X136500000Y-107000000D03*
D39*
X152500000Y-70544888D03*
X150500000Y-70544888D03*
D48*
X179500000Y-70050000D03*
D28*
X154500000Y-72582388D03*
X154500000Y-70507388D03*
D32*
X108000000Y-126000000D03*
X108000000Y-128000000D03*
D47*
X167600000Y-96400000D03*
D18*
X102037500Y-134000000D03*
X99962500Y-134000000D03*
D47*
X138500000Y-107000000D03*
D10*
X94000000Y-132000000D03*
X94000000Y-130000000D03*
D48*
X166500000Y-147950000D03*
D47*
X159000000Y-96000000D03*
D49*
X97250000Y-84000000D03*
D47*
X176000000Y-74000000D03*
D10*
X108000000Y-132000000D03*
X108000000Y-130000000D03*
D19*
X136500000Y-102962500D03*
X136500000Y-105037500D03*
D10*
X176000000Y-79000000D03*
X176000000Y-77000000D03*
D11*
X110275000Y-66500000D03*
D12*
X111725000Y-66500000D03*
D47*
X199000000Y-66500000D03*
D39*
X152500000Y-66544888D03*
X150500000Y-66544888D03*
D47*
X200100000Y-123600000D03*
D39*
X124000000Y-61000000D03*
X122000000Y-61000000D03*
D50*
X94000000Y-62000000D03*
D47*
X122000000Y-79000000D03*
D28*
X154500000Y-66544888D03*
X154500000Y-64469888D03*
X107000000Y-118037500D03*
X107000000Y-115962500D03*
D47*
X186900000Y-66550000D03*
X110200000Y-143000000D03*
D51*
X98425000Y-127995000D03*
X98425000Y-129265000D03*
X98425000Y-130535000D03*
X98425000Y-131805000D03*
X103575000Y-131805000D03*
X103575000Y-130535000D03*
X103575000Y-129265000D03*
X103575000Y-127995000D03*
D47*
X169750000Y-96400000D03*
D19*
X110000000Y-98662500D03*
X110000000Y-100737500D03*
D47*
X107800000Y-143000000D03*
D52*
X175000000Y-108500000D03*
X175000000Y-103500000D03*
D53*
X98137500Y-117625000D03*
X98137500Y-118275000D03*
X98137500Y-118925000D03*
X98137500Y-119575000D03*
X98137500Y-120225000D03*
X98137500Y-120875000D03*
X98137500Y-121525000D03*
X98137500Y-122175000D03*
X103862500Y-122175000D03*
X103862500Y-121525000D03*
X103862500Y-120875000D03*
X103862500Y-120225000D03*
X103862500Y-119575000D03*
X103862500Y-118925000D03*
X103862500Y-118275000D03*
X103862500Y-117625000D03*
D50*
X206000000Y-62000000D03*
D54*
X168055000Y-65460000D03*
D55*
X168055000Y-68000000D03*
X168055000Y-70540000D03*
D47*
X189000000Y-62000000D03*
D10*
X176000000Y-83000000D03*
X176000000Y-81000000D03*
D56*
X195437500Y-108410000D03*
X195437500Y-107140000D03*
X195437500Y-105870000D03*
X195437500Y-104600000D03*
X195437500Y-103330000D03*
X195437500Y-102060000D03*
X195437500Y-100790000D03*
X190487500Y-100790000D03*
X190487500Y-102060000D03*
X190487500Y-103330000D03*
X190487500Y-104600000D03*
X190487500Y-105870000D03*
X190487500Y-107140000D03*
X190487500Y-108410000D03*
D47*
X123100000Y-133100000D03*
D18*
X102037500Y-116000000D03*
X99962500Y-116000000D03*
D52*
X171000000Y-108500000D03*
X171000000Y-103500000D03*
D27*
X100300000Y-89500000D03*
D36*
X113000000Y-89500000D03*
D32*
X94000000Y-126000000D03*
X94000000Y-128000000D03*
D48*
X166500000Y-90000000D03*
D39*
X124000000Y-63000000D03*
X122000000Y-63000000D03*
D49*
X158000000Y-72000000D03*
D48*
X122500000Y-70050000D03*
D47*
X162000000Y-96000000D03*
D57*
X195475000Y-75305000D03*
X195475000Y-74035000D03*
X195475000Y-72765000D03*
X195475000Y-71495000D03*
X190325000Y-71495000D03*
X190325000Y-72765000D03*
X190325000Y-74035000D03*
X190325000Y-75305000D03*
D50*
X206000000Y-154000000D03*
D47*
X194000000Y-62000000D03*
D28*
X173000000Y-70037500D03*
X173000000Y-67962500D03*
D39*
X152500000Y-68544888D03*
X150500000Y-68544888D03*
M02*
