G04 #@! TF.GenerationSoftware,KiCad,Pcbnew,6.0.4-1.fc35*
G04 #@! TF.CreationDate,2022-04-14T23:25:06+02:00*
G04 #@! TF.ProjectId,office_amp,6f666669-6365-45f6-916d-702e6b696361,rev?*
G04 #@! TF.SameCoordinates,Original*
G04 #@! TF.FileFunction,Soldermask,Top*
G04 #@! TF.FilePolarity,Negative*
%FSLAX46Y46*%
G04 Gerber Fmt 4.6, Leading zero omitted, Abs format (unit mm)*
G04 Created by KiCad (PCBNEW 6.0.4-1.fc35) date 2022-04-14 23:25:06*
%MOMM*%
%LPD*%
G01*
G04 APERTURE LIST*
G04 Aperture macros list*
%AMRoundRect*
0 Rectangle with rounded corners*
0 $1 Rounding radius*
0 $2 $3 $4 $5 $6 $7 $8 $9 X,Y pos of 4 corners*
0 Add a 4 corners polygon primitive as box body*
4,1,4,$2,$3,$4,$5,$6,$7,$8,$9,$2,$3,0*
0 Add four circle primitives for the rounded corners*
1,1,$1+$1,$2,$3*
1,1,$1+$1,$4,$5*
1,1,$1+$1,$6,$7*
1,1,$1+$1,$8,$9*
0 Add four rect primitives between the rounded corners*
20,1,$1+$1,$2,$3,$4,$5,0*
20,1,$1+$1,$4,$5,$6,$7,0*
20,1,$1+$1,$6,$7,$8,$9,0*
20,1,$1+$1,$8,$9,$2,$3,0*%
%AMFreePoly0*
4,1,6,1.000000,0.000000,0.500000,-0.750000,-0.500000,-0.750000,-0.500000,0.750000,0.500000,0.750000,1.000000,0.000000,1.000000,0.000000,$1*%
%AMFreePoly1*
4,1,6,0.500000,-0.750000,-0.650000,-0.750000,-0.150000,0.000000,-0.650000,0.750000,0.500000,0.750000,0.500000,-0.750000,0.500000,-0.750000,$1*%
%AMFreePoly2*
4,1,22,0.500000,-0.750000,0.000000,-0.750000,0.000000,-0.745033,-0.079941,-0.743568,-0.215256,-0.701293,-0.333266,-0.622738,-0.424486,-0.514219,-0.481581,-0.384460,-0.499164,-0.250000,-0.500000,-0.250000,-0.500000,0.250000,-0.499164,0.250000,-0.499963,0.256109,-0.478152,0.396186,-0.417904,0.524511,-0.324060,0.630769,-0.204165,0.706417,-0.067858,0.745374,0.000000,0.744959,0.000000,0.750000,
0.500000,0.750000,0.500000,-0.750000,0.500000,-0.750000,$1*%
%AMFreePoly3*
4,1,20,0.000000,0.744959,0.073905,0.744508,0.209726,0.703889,0.328688,0.626782,0.421226,0.519385,0.479903,0.390333,0.500000,0.250000,0.500000,-0.250000,0.499851,-0.262216,0.476331,-0.402017,0.414519,-0.529596,0.319384,-0.634700,0.198574,-0.708877,0.061801,-0.746166,0.000000,-0.745033,0.000000,-0.750000,-0.500000,-0.750000,-0.500000,0.750000,0.000000,0.750000,0.000000,0.744959,
0.000000,0.744959,$1*%
G04 Aperture macros list end*
%ADD10RoundRect,0.250000X-0.450000X0.350000X-0.450000X-0.350000X0.450000X-0.350000X0.450000X0.350000X0*%
%ADD11R,0.700000X0.700000*%
%ADD12R,0.900000X1.500000*%
%ADD13RoundRect,0.250000X0.450000X-0.350000X0.450000X0.350000X-0.450000X0.350000X-0.450000X-0.350000X0*%
%ADD14RoundRect,0.250000X-0.475000X0.337500X-0.475000X-0.337500X0.475000X-0.337500X0.475000X0.337500X0*%
%ADD15RoundRect,0.250000X0.475000X-0.337500X0.475000X0.337500X-0.475000X0.337500X-0.475000X-0.337500X0*%
%ADD16RoundRect,0.250000X-0.337500X-0.475000X0.337500X-0.475000X0.337500X0.475000X-0.337500X0.475000X0*%
%ADD17O,1.700000X1.700000*%
%ADD18R,1.700000X1.700000*%
%ADD19RoundRect,0.150000X0.150000X-0.587500X0.150000X0.587500X-0.150000X0.587500X-0.150000X-0.587500X0*%
%ADD20C,3.000000*%
%ADD21RoundRect,0.150000X0.150000X-0.875000X0.150000X0.875000X-0.150000X0.875000X-0.150000X-0.875000X0*%
%ADD22RoundRect,0.100000X0.637500X0.100000X-0.637500X0.100000X-0.637500X-0.100000X0.637500X-0.100000X0*%
%ADD23RoundRect,0.250000X-0.350000X-0.450000X0.350000X-0.450000X0.350000X0.450000X-0.350000X0.450000X0*%
%ADD24R,1.500000X2.000000*%
%ADD25R,3.800000X2.000000*%
%ADD26C,1.800000*%
%ADD27O,3.500000X2.600000*%
%ADD28C,7.000000*%
%ADD29RoundRect,0.250000X0.337500X0.475000X-0.337500X0.475000X-0.337500X-0.475000X0.337500X-0.475000X0*%
%ADD30C,1.700000*%
%ADD31RoundRect,0.250000X0.600000X-0.600000X0.600000X0.600000X-0.600000X0.600000X-0.600000X-0.600000X0*%
%ADD32FreePoly0,0.000000*%
%ADD33FreePoly1,0.000000*%
%ADD34R,1.750000X0.550000*%
%ADD35R,3.500000X3.500000*%
%ADD36RoundRect,0.750000X-0.750000X-1.000000X0.750000X-1.000000X0.750000X1.000000X-0.750000X1.000000X0*%
%ADD37RoundRect,0.875000X-0.875000X-0.875000X0.875000X-0.875000X0.875000X0.875000X-0.875000X0.875000X0*%
%ADD38RoundRect,0.150000X-0.512500X-0.150000X0.512500X-0.150000X0.512500X0.150000X-0.512500X0.150000X0*%
%ADD39R,1.600000X1.600000*%
%ADD40C,1.900000*%
%ADD41R,2.000000X2.000000*%
%ADD42C,2.000000*%
%ADD43R,0.900000X1.200000*%
%ADD44RoundRect,0.250500X0.499500X0.499500X-0.499500X0.499500X-0.499500X-0.499500X0.499500X-0.499500X0*%
%ADD45C,1.500000*%
%ADD46C,2.340000*%
%ADD47O,1.600000X1.600000*%
%ADD48RoundRect,0.250000X0.350000X0.450000X-0.350000X0.450000X-0.350000X-0.450000X0.350000X-0.450000X0*%
%ADD49C,1.600000*%
%ADD50R,2.400000X4.680000*%
%ADD51RoundRect,0.100000X-0.687500X-0.100000X0.687500X-0.100000X0.687500X0.100000X-0.687500X0.100000X0*%
%ADD52R,2.500000X2.500000*%
%ADD53C,2.500000*%
%ADD54R,6.705000X2.794000*%
%ADD55FreePoly2,180.000000*%
%ADD56FreePoly3,180.000000*%
%ADD57C,1.000000*%
%ADD58C,2.800000*%
%ADD59RoundRect,0.150000X-0.725000X-0.150000X0.725000X-0.150000X0.725000X0.150000X-0.725000X0.150000X0*%
%ADD60R,1.800000X3.500000*%
%ADD61RoundRect,0.100000X-0.637500X-0.100000X0.637500X-0.100000X0.637500X0.100000X-0.637500X0.100000X0*%
%ADD62RoundRect,0.150000X0.725000X0.150000X-0.725000X0.150000X-0.725000X-0.150000X0.725000X-0.150000X0*%
G04 APERTURE END LIST*
D10*
X259000000Y-97000000D03*
X259000000Y-95000000D03*
D11*
X226150000Y-88140000D03*
X226150000Y-85940000D03*
X226150000Y-87090000D03*
X223950000Y-87090000D03*
X225050000Y-85940000D03*
X225050000Y-87090000D03*
X223950000Y-85940000D03*
X223950000Y-88140000D03*
X225050000Y-88140000D03*
D12*
X218850000Y-79250000D03*
X220350000Y-79250000D03*
X221850000Y-79250000D03*
X223350000Y-79250000D03*
X224850000Y-79250000D03*
X226350000Y-79250000D03*
X227850000Y-79250000D03*
X229350000Y-79250000D03*
X230850000Y-79250000D03*
X230850000Y-96750000D03*
X229350000Y-96750000D03*
X227850000Y-96750000D03*
X226350000Y-96750000D03*
X224850000Y-96750000D03*
X223350000Y-96750000D03*
X221850000Y-96750000D03*
X220350000Y-96750000D03*
X218850000Y-96750000D03*
D13*
X262000000Y-95000000D03*
X262000000Y-97000000D03*
D14*
X217000000Y-102075000D03*
X217000000Y-100000000D03*
D15*
X231500000Y-141900000D03*
X231500000Y-143975000D03*
D16*
X247037500Y-89000000D03*
X244962500Y-89000000D03*
D10*
X279500000Y-141000000D03*
X279500000Y-139000000D03*
D13*
X269000000Y-95000000D03*
X269000000Y-97000000D03*
D17*
X221000000Y-106300000D03*
X221000000Y-108840000D03*
X221000000Y-111380000D03*
X221000000Y-113920000D03*
X221000000Y-116460000D03*
D18*
X221000000Y-119000000D03*
D14*
X232000000Y-120037500D03*
X232000000Y-117962500D03*
D19*
X272000000Y-91062500D03*
X272950000Y-92937500D03*
X271050000Y-92937500D03*
D13*
X271000000Y-95000000D03*
X271000000Y-97000000D03*
D20*
X217000000Y-63000000D03*
D15*
X237000000Y-151437500D03*
X237000000Y-153512500D03*
X231000000Y-151437500D03*
X231000000Y-153512500D03*
D10*
X266000000Y-97000000D03*
X266000000Y-95000000D03*
X222000000Y-76250000D03*
X222000000Y-74250000D03*
D15*
X266000000Y-117962500D03*
X266000000Y-120037500D03*
D21*
X269285000Y-114350000D03*
X270555000Y-114350000D03*
X271825000Y-114350000D03*
X273095000Y-114350000D03*
X274365000Y-114350000D03*
X275635000Y-114350000D03*
X276905000Y-114350000D03*
X278175000Y-114350000D03*
X279445000Y-114350000D03*
X280715000Y-114350000D03*
X280715000Y-123650000D03*
X279445000Y-123650000D03*
X278175000Y-123650000D03*
X276905000Y-123650000D03*
X275635000Y-123650000D03*
X274365000Y-123650000D03*
X273095000Y-123650000D03*
X271825000Y-123650000D03*
X270555000Y-123650000D03*
X269285000Y-123650000D03*
D15*
X239000000Y-151437500D03*
X239000000Y-153512500D03*
D22*
X222637500Y-149400000D03*
X222637500Y-148750000D03*
X222637500Y-148100000D03*
X222637500Y-147450000D03*
X222637500Y-146800000D03*
X222637500Y-146150000D03*
X222637500Y-145500000D03*
X222637500Y-144850000D03*
X222637500Y-144200000D03*
X222637500Y-143550000D03*
X228362500Y-143550000D03*
X228362500Y-144200000D03*
X228362500Y-144850000D03*
X228362500Y-145500000D03*
X228362500Y-146150000D03*
X228362500Y-146800000D03*
X228362500Y-147450000D03*
X228362500Y-148100000D03*
X228362500Y-148750000D03*
X228362500Y-149400000D03*
D13*
X236000000Y-100000000D03*
X236000000Y-102000000D03*
X275000000Y-108500000D03*
X275000000Y-110500000D03*
X276000000Y-95000000D03*
X276000000Y-97000000D03*
D14*
X242500000Y-145050000D03*
X242500000Y-142975000D03*
D10*
X284500000Y-81500000D03*
X284500000Y-79500000D03*
D21*
X252555000Y-114350000D03*
X253825000Y-114350000D03*
X255095000Y-114350000D03*
X256365000Y-114350000D03*
X257635000Y-114350000D03*
X258905000Y-114350000D03*
X260175000Y-114350000D03*
X261445000Y-114350000D03*
X261445000Y-123650000D03*
X260175000Y-123650000D03*
X258905000Y-123650000D03*
X257635000Y-123650000D03*
X256365000Y-123650000D03*
X255095000Y-123650000D03*
X253825000Y-123650000D03*
X252555000Y-123650000D03*
D19*
X279000000Y-91062500D03*
X279950000Y-92937500D03*
X278050000Y-92937500D03*
D20*
X287500000Y-63000000D03*
X217000000Y-153000000D03*
D23*
X240500000Y-148975000D03*
X238500000Y-148975000D03*
D13*
X264000000Y-95000000D03*
X264000000Y-97000000D03*
D17*
X248500000Y-143420000D03*
X248500000Y-145960000D03*
D18*
X248500000Y-148500000D03*
D10*
X280500000Y-81500000D03*
X280500000Y-79500000D03*
D13*
X255000000Y-95000000D03*
X255000000Y-97000000D03*
D24*
X243700000Y-79850000D03*
D25*
X246000000Y-86150000D03*
D24*
X246000000Y-79850000D03*
X248300000Y-79850000D03*
D15*
X219500000Y-147437500D03*
X219500000Y-149512500D03*
D10*
X273000000Y-97000000D03*
X273000000Y-95000000D03*
X282500000Y-81500000D03*
X282500000Y-79500000D03*
D21*
X235555000Y-114350000D03*
X236825000Y-114350000D03*
X238095000Y-114350000D03*
X239365000Y-114350000D03*
X240635000Y-114350000D03*
X241905000Y-114350000D03*
X243175000Y-114350000D03*
X244445000Y-114350000D03*
X244445000Y-123650000D03*
X243175000Y-123650000D03*
X241905000Y-123650000D03*
X240635000Y-123650000D03*
X239365000Y-123650000D03*
X238095000Y-123650000D03*
X236825000Y-123650000D03*
X235555000Y-123650000D03*
D15*
X221000000Y-100000000D03*
X221000000Y-102075000D03*
D10*
X239500000Y-110500000D03*
X239500000Y-108500000D03*
D26*
X285750000Y-145000000D03*
X285750000Y-142500000D03*
X285750000Y-147500000D03*
X283250000Y-147500000D03*
X283250000Y-142500000D03*
D27*
X284500000Y-150450000D03*
X284500000Y-139550000D03*
D13*
X257000000Y-95000000D03*
X257000000Y-97000000D03*
D15*
X242500000Y-146937500D03*
X242500000Y-149012500D03*
D10*
X277500000Y-141000000D03*
X277500000Y-139000000D03*
D13*
X278000000Y-95000000D03*
X278000000Y-97000000D03*
D15*
X217500000Y-147437500D03*
X217500000Y-149512500D03*
D28*
X255930588Y-147000000D03*
D10*
X219000000Y-102037500D03*
X219000000Y-100037500D03*
X273000000Y-110500000D03*
X273000000Y-108500000D03*
D19*
X265000000Y-91062500D03*
X265950000Y-92937500D03*
X264050000Y-92937500D03*
D16*
X247037500Y-77000000D03*
X244962500Y-77000000D03*
D10*
X256500000Y-110500000D03*
X256500000Y-108500000D03*
X278500000Y-81500000D03*
X278500000Y-79500000D03*
D29*
X224425000Y-140475000D03*
X226500000Y-140475000D03*
D15*
X235000000Y-151437500D03*
X235000000Y-153512500D03*
D23*
X240500000Y-142975000D03*
X238500000Y-142975000D03*
D15*
X233000000Y-151437500D03*
X233000000Y-153512500D03*
D13*
X238000000Y-100000000D03*
X238000000Y-102000000D03*
X228000000Y-100000000D03*
X228000000Y-102000000D03*
D30*
X251620000Y-65460000D03*
X251620000Y-68000000D03*
X249080000Y-65460000D03*
X249080000Y-68000000D03*
X246540000Y-65460000D03*
X246540000Y-68000000D03*
X244000000Y-65460000D03*
X244000000Y-68000000D03*
X241460000Y-65460000D03*
X241460000Y-68000000D03*
X238920000Y-65460000D03*
X238920000Y-68000000D03*
X236380000Y-65460000D03*
D31*
X236380000Y-68000000D03*
D19*
X258000000Y-91062500D03*
X258950000Y-92937500D03*
X257050000Y-92937500D03*
D14*
X249000000Y-120037500D03*
X249000000Y-117962500D03*
D30*
X275160000Y-65460000D03*
X275160000Y-68000000D03*
X272620000Y-65460000D03*
X272620000Y-68000000D03*
X270080000Y-65460000D03*
X270080000Y-68000000D03*
X267540000Y-65460000D03*
X267540000Y-68000000D03*
X265000000Y-65460000D03*
D31*
X265000000Y-68000000D03*
D32*
X110275000Y-61500000D03*
D33*
X111725000Y-61500000D03*
D34*
X114900000Y-70800000D03*
X114900000Y-74610000D03*
X114900000Y-73340000D03*
X114900000Y-72070000D03*
X107500000Y-74610000D03*
X107500000Y-72070000D03*
X107500000Y-70800000D03*
X107500000Y-73340000D03*
D35*
X102200000Y-67000000D03*
D36*
X96200000Y-67000000D03*
D37*
X99200000Y-71700000D03*
D38*
X100862500Y-77050000D03*
X100862500Y-78000000D03*
X100862500Y-78950000D03*
X103137500Y-78950000D03*
X103137500Y-78000000D03*
X103137500Y-77050000D03*
D14*
X141000000Y-62962500D03*
X141000000Y-65037500D03*
D15*
X141000000Y-76037500D03*
X141000000Y-73962500D03*
D14*
X128000000Y-62962500D03*
X128000000Y-65037500D03*
D39*
X149000000Y-63000000D03*
D30*
X149000000Y-65540000D03*
X149000000Y-70620000D03*
X149000000Y-73160000D03*
X149000000Y-75700000D03*
D40*
X113000000Y-106000000D03*
X113000000Y-103460000D03*
X113000000Y-100920000D03*
X113000000Y-98380000D03*
X113000000Y-95840000D03*
X113000000Y-93300000D03*
D41*
X130000000Y-146100000D03*
D42*
X135000000Y-146100000D03*
D31*
X99380000Y-150752500D03*
D30*
X99380000Y-148212500D03*
X101920000Y-150752500D03*
X101920000Y-148212500D03*
X104460000Y-150752500D03*
X104460000Y-148212500D03*
X107000000Y-150752500D03*
X107000000Y-148212500D03*
X109540000Y-150752500D03*
X109540000Y-148212500D03*
X112080000Y-150752500D03*
X112080000Y-148212500D03*
X114620000Y-150752500D03*
X114620000Y-148212500D03*
D15*
X128000000Y-72037500D03*
X128000000Y-69962500D03*
X128000000Y-76037500D03*
X128000000Y-73962500D03*
X141000000Y-72000000D03*
X141000000Y-69925000D03*
X186900000Y-71037500D03*
X186900000Y-68962500D03*
D16*
X197062500Y-78400000D03*
X199137500Y-78400000D03*
D29*
X188937500Y-78400000D03*
X186862500Y-78400000D03*
D16*
X191862500Y-109400000D03*
X193937500Y-109400000D03*
X191862500Y-96400000D03*
X193937500Y-96400000D03*
D15*
X201000000Y-101037500D03*
X201000000Y-98962500D03*
X187000000Y-101037500D03*
X187000000Y-98962500D03*
D43*
X158300000Y-101000000D03*
X155000000Y-101000000D03*
X128150000Y-101000000D03*
X124850000Y-101000000D03*
X138150000Y-101000000D03*
X134850000Y-101000000D03*
D44*
X159000000Y-98000000D03*
D45*
X159000000Y-92920000D03*
X159000000Y-90380000D03*
X159000000Y-87840000D03*
X153920000Y-87840000D03*
X153920000Y-90380000D03*
X153920000Y-92920000D03*
X153920000Y-98000000D03*
D44*
X139000000Y-98000000D03*
D45*
X139000000Y-92920000D03*
X139000000Y-90380000D03*
X139000000Y-87840000D03*
X133920000Y-87840000D03*
X133920000Y-90380000D03*
X133920000Y-92920000D03*
X133920000Y-98000000D03*
D13*
X186900000Y-74900000D03*
X186900000Y-72900000D03*
D10*
X193900000Y-85400000D03*
X193900000Y-87400000D03*
X191900000Y-85400000D03*
X191900000Y-87400000D03*
D13*
X203000000Y-101000000D03*
X203000000Y-99000000D03*
X185000000Y-101000000D03*
X185000000Y-99000000D03*
D10*
X199000000Y-99000000D03*
X199000000Y-101000000D03*
X183000000Y-99000000D03*
X183000000Y-101000000D03*
D46*
X200900000Y-104400000D03*
X203400000Y-114400000D03*
X205900000Y-104400000D03*
X180425000Y-104400000D03*
X182925000Y-114400000D03*
X185425000Y-104400000D03*
D39*
X136000000Y-63000000D03*
D30*
X136000000Y-65540000D03*
X136000000Y-70620000D03*
X136000000Y-73160000D03*
X136000000Y-75700000D03*
D39*
X188900000Y-88600000D03*
D47*
X186360000Y-88600000D03*
X183820000Y-88600000D03*
X181280000Y-88600000D03*
X181280000Y-96220000D03*
X183820000Y-96220000D03*
X186360000Y-96220000D03*
X188900000Y-96220000D03*
D32*
X110275000Y-64000000D03*
D33*
X111725000Y-64000000D03*
D41*
X114000000Y-82000000D03*
D42*
X109000000Y-82000000D03*
D15*
X97000000Y-79037500D03*
X97000000Y-76962500D03*
X95000000Y-79037500D03*
X95000000Y-76962500D03*
D39*
X204520000Y-88600000D03*
D47*
X201980000Y-88600000D03*
X199440000Y-88600000D03*
X196900000Y-88600000D03*
X196900000Y-96220000D03*
X199440000Y-96220000D03*
X201980000Y-96220000D03*
X204520000Y-96220000D03*
D16*
X191962500Y-68900000D03*
X194037500Y-68900000D03*
D13*
X199000000Y-74900000D03*
X199000000Y-72900000D03*
D15*
X199000000Y-71037500D03*
X199000000Y-68962500D03*
D23*
X197100000Y-80400000D03*
X199100000Y-80400000D03*
D19*
X197150000Y-84737500D03*
X199050000Y-84737500D03*
X198100000Y-82862500D03*
X186950000Y-84737500D03*
X188850000Y-84737500D03*
X187900000Y-82862500D03*
D48*
X188900000Y-80400000D03*
X186900000Y-80400000D03*
D16*
X191962500Y-79900000D03*
X194037500Y-79900000D03*
D18*
X157000000Y-67475000D03*
D17*
X157000000Y-70015000D03*
X157000000Y-72555000D03*
D43*
X148150000Y-101000000D03*
X144850000Y-101000000D03*
D49*
X166600000Y-124100000D03*
X166600000Y-129100000D03*
D50*
X133000000Y-131100000D03*
D51*
X130137500Y-127525000D03*
X130137500Y-128175000D03*
X130137500Y-128825000D03*
X130137500Y-129475000D03*
X130137500Y-130125000D03*
X130137500Y-130775000D03*
X130137500Y-131425000D03*
X130137500Y-132075000D03*
X130137500Y-132725000D03*
X130137500Y-133375000D03*
X130137500Y-134025000D03*
X130137500Y-134675000D03*
X135862500Y-134675000D03*
X135862500Y-134025000D03*
X135862500Y-133375000D03*
X135862500Y-132725000D03*
X135862500Y-132075000D03*
X135862500Y-131425000D03*
X135862500Y-130775000D03*
X135862500Y-130125000D03*
X135862500Y-129475000D03*
X135862500Y-128825000D03*
X135862500Y-128175000D03*
X135862500Y-127525000D03*
D14*
X145000000Y-127562500D03*
X145000000Y-129637500D03*
D52*
X187600000Y-123600000D03*
D53*
X187600000Y-128600000D03*
X187600000Y-133600000D03*
X187600000Y-138600000D03*
D29*
X121037500Y-129500000D03*
X118962500Y-129500000D03*
D41*
X172600000Y-139000000D03*
D42*
X177600000Y-139000000D03*
D54*
X146316500Y-121000000D03*
X161683500Y-121000000D03*
D55*
X121000000Y-126000000D03*
D56*
X119700000Y-126000000D03*
D15*
X145000000Y-134637500D03*
X145000000Y-132562500D03*
D29*
X121000000Y-135100000D03*
X118925000Y-135100000D03*
D49*
X166600000Y-132900000D03*
X166600000Y-137900000D03*
D16*
X129962500Y-138100000D03*
X132037500Y-138100000D03*
X130000000Y-124100000D03*
X132075000Y-124100000D03*
D41*
X172600000Y-124100000D03*
D42*
X177600000Y-124100000D03*
D54*
X146316500Y-141000000D03*
X161683500Y-141000000D03*
D41*
X130000000Y-116100000D03*
D42*
X135000000Y-116100000D03*
D29*
X121000000Y-138100000D03*
X118925000Y-138100000D03*
X121037500Y-132000000D03*
X118962500Y-132000000D03*
D44*
X129000000Y-98180000D03*
D45*
X129000000Y-92920000D03*
X129000000Y-90380000D03*
X129000000Y-87840000D03*
X123920000Y-87840000D03*
X123920000Y-90380000D03*
X123920000Y-92920000D03*
X123920000Y-98000000D03*
D18*
X162000000Y-67475000D03*
D17*
X162000000Y-70015000D03*
X162000000Y-72555000D03*
D44*
X149000000Y-98000000D03*
D45*
X149000000Y-92920000D03*
X149000000Y-90380000D03*
X149000000Y-87840000D03*
X143920000Y-87840000D03*
X143920000Y-90380000D03*
X143920000Y-92920000D03*
X143920000Y-98000000D03*
D57*
X200100000Y-138600000D03*
X122900000Y-127900000D03*
X172200000Y-104900000D03*
D28*
X179500000Y-70050000D03*
D29*
X102037500Y-133900000D03*
X99962500Y-133900000D03*
D57*
X174200000Y-69800000D03*
D29*
X102037500Y-125900000D03*
X99962500Y-125900000D03*
D57*
X172200000Y-101600000D03*
D28*
X166500000Y-147950000D03*
D57*
X153750000Y-70500000D03*
D58*
X97250000Y-84000000D03*
D57*
X126250000Y-66750000D03*
D32*
X110275000Y-66500000D03*
D33*
X111725000Y-66500000D03*
D57*
X199000000Y-65200000D03*
X200100000Y-123600000D03*
D20*
X94000000Y-62000000D03*
D57*
X119500000Y-82000000D03*
D15*
X107000000Y-118037500D03*
X107000000Y-115962500D03*
D57*
X186900000Y-66600000D03*
X105400000Y-143000000D03*
D59*
X98425000Y-127995000D03*
X98425000Y-129265000D03*
X98425000Y-130535000D03*
X98425000Y-131805000D03*
X103575000Y-131805000D03*
X103575000Y-130535000D03*
X103575000Y-129265000D03*
X103575000Y-127995000D03*
D57*
X174200000Y-72400000D03*
D14*
X110000000Y-98662500D03*
X110000000Y-100737500D03*
D57*
X107800000Y-143000000D03*
D60*
X171000000Y-72500000D03*
X171000000Y-67500000D03*
D61*
X98137500Y-117625000D03*
X98137500Y-118275000D03*
X98137500Y-118925000D03*
X98137500Y-119575000D03*
X98137500Y-120225000D03*
X98137500Y-120875000D03*
X98137500Y-121525000D03*
X98137500Y-122175000D03*
X103862500Y-122175000D03*
X103862500Y-121525000D03*
X103862500Y-120875000D03*
X103862500Y-120225000D03*
X103862500Y-119575000D03*
X103862500Y-118925000D03*
X103862500Y-118275000D03*
X103862500Y-117625000D03*
D20*
X206000000Y-62000000D03*
D62*
X195475000Y-104305000D03*
X195475000Y-103035000D03*
X195475000Y-101765000D03*
X195475000Y-100495000D03*
X190325000Y-100495000D03*
X190325000Y-101765000D03*
X190325000Y-103035000D03*
X190325000Y-104305000D03*
D57*
X153750000Y-77250000D03*
X123100000Y-133100000D03*
D29*
X102037500Y-123900000D03*
X99962500Y-123900000D03*
D60*
X167000000Y-72500000D03*
X167000000Y-67500000D03*
D49*
X100300000Y-89500000D03*
D47*
X113000000Y-89500000D03*
D28*
X166500000Y-90000000D03*
D58*
X179000000Y-79500000D03*
D28*
X122500000Y-70050000D03*
D57*
X153750000Y-72500000D03*
D62*
X195475000Y-75305000D03*
X195475000Y-74035000D03*
X195475000Y-72765000D03*
X195475000Y-71495000D03*
X190325000Y-71495000D03*
X190325000Y-72765000D03*
X190325000Y-74035000D03*
X190325000Y-75305000D03*
D20*
X206000000Y-154000000D03*
D57*
X153750000Y-80500000D03*
X125250000Y-76000000D03*
D14*
X95000000Y-115962500D03*
X95000000Y-118037500D03*
M02*
