M48
; DRILL file {KiCad 6.0.4-1.fc35} date Thu 14 Apr 2022 11:25:32 PM CEST
; FORMAT={-:-/ absolute / metric / decimal}
; #@! TF.CreationDate,2022-04-14T23:25:32+02:00
; #@! TF.GenerationSoftware,Kicad,Pcbnew,6.0.4-1.fc35
; #@! TF.FileFunction,Plated,1,4,PTH
FMAT,2
METRIC
; #@! TA.AperFunction,Plated,PTH,ComponentDrill
T1C0.300
; #@! TA.AperFunction,Plated,PTH,ViaDrill
T2C0.400
; #@! TA.AperFunction,Plated,PTH,ViaDrill
T3C0.600
; #@! TA.AperFunction,Plated,PTH,ViaDrill
T4C0.800
; #@! TA.AperFunction,Plated,PTH,ComponentDrill
T5C0.800
; #@! TA.AperFunction,Plated,PTH,ComponentDrill
T6C1.000
; #@! TA.AperFunction,Plated,PTH,ComponentDrill
T7C1.300
; #@! TA.AperFunction,Plated,PTH,ComponentDrill
T8C1.400
; #@! TA.AperFunction,Plated,PTH,ComponentDrill
T9C3.500
%
G90
G05
T1
X131.7Y-127.85
X131.7Y-129.15
X131.7Y-130.45
X131.7Y-131.75
X131.7Y-133.05
X131.7Y-134.35
X133.0Y-127.85
X133.0Y-129.15
X133.0Y-130.45
X133.0Y-131.75
X133.0Y-133.05
X133.0Y-134.35
X134.3Y-127.85
X134.3Y-129.15
X134.3Y-130.45
X134.3Y-131.75
X134.3Y-133.05
X134.3Y-134.35
T2
X93.5Y-134.3
X93.6Y-116.0
X93.6Y-118.1
X94.2Y-111.2
X94.5Y-138.3
X96.1Y-120.7
X96.1Y-124.9
X96.2Y-128.6
X98.3Y-133.9
X98.5Y-123.9
X98.6Y-125.9
X98.8Y-78.1
X100.1Y-140.1
X102.349Y-119.3
X102.4Y-120.3
X103.3Y-125.9
X103.3Y-133.9
X103.6Y-123.9
X103.7Y-109.0
X105.4Y-109.5
X105.7Y-122.7
X105.8Y-129.999
X105.9Y-111.2
X106.6Y-140.2
X108.4Y-116.0
X108.4Y-118.1
X112.9Y-140.0
X115.5Y-121.6
X117.1Y-122.0
X117.6Y-126.0
X117.7Y-129.5
X117.7Y-132.0
X120.3Y-95.2
X121.1Y-94.3
X124.2Y-129.1
X126.0Y-107.9
X126.0Y-109.5
X126.1Y-134.1
X126.2Y-111.0
X128.0Y-79.6
X128.27Y-127.93
X128.3Y-134.124
X129.338Y-69.962
X136.0Y-106.562
X139.3Y-131.1
X139.4Y-78.5
X139.41Y-132.1
X140.8Y-132.325
X143.362Y-76.037
X143.425Y-69.925
X152.25Y-81.25
X153.75Y-74.25
X155.7Y-78.0
X156.0Y-105.8
X159.2Y-74.6
X160.5Y-76.9
X172.0Y-95.7
X172.2Y-97.7
X172.2Y-106.5
X172.7Y-69.8
X177.0Y-91.7
X181.1Y-99.0
X183.1Y-75.9
X190.4Y-79.9
X191.273Y-63.827
X191.8Y-107.5
X191.9Y-84.1
X191.9Y-94.2
X192.2Y-63.0
X193.9Y-107.6
X194.0Y-98.2
X194.037Y-78.362
X194.1Y-82.9
X197.5Y-99.0
X199.0Y-67.3
X199.1Y-86.2
T3
X100.0Y-137.5
X104.8Y-79.0
X106.8Y-134.2
X113.0Y-134.5
X113.8Y-61.5
X113.8Y-64.0
X113.8Y-66.5
X116.9Y-70.8
X116.9Y-72.0
X116.9Y-73.3
X116.9Y-74.6
X118.5Y-106.0
X120.399Y-136.6
X122.6Y-126.0
X125.8Y-63.0
X125.8Y-65.0
X139.3Y-63.0
X139.3Y-65.1
T4
X216.8Y-122.2
X217.5Y-145.975
X218.2Y-122.2
X219.0Y-98.5
X219.5Y-151.075
X219.599Y-122.2
X220.1Y-81.1
X220.3Y-76.4
X220.999Y-122.2
X221.0Y-103.7
X222.0Y-72.4
X224.427Y-138.803
X225.1Y-94.5
X225.4Y-75.7
X226.449Y-103.5
X226.5Y-138.775
X226.507Y-94.507
X227.2Y-133.0
X227.207Y-131.593
X227.6Y-76.8
X227.6Y-87.1
X228.1Y-140.475
X229.0Y-76.8
X229.3Y-153.475
X229.3Y-155.3
X229.8Y-102.0
X229.9Y-141.875
X230.2Y-118.0
X230.3Y-120.0
X230.8Y-76.8
X230.9Y-94.9
X231.4Y-147.149
X231.993Y-105.307
X232.0Y-108.106
X232.0Y-103.901
X232.001Y-106.707
X233.0Y-149.8
X233.1Y-144.0
X236.0Y-96.8
X236.5Y-112.1
X237.8Y-108.5
X238.0Y-95.2
X238.1Y-112.1
X240.7Y-96.8
X241.0Y-104.9
X241.0Y-146.0
X242.4Y-105.3
X242.5Y-76.9
X243.8Y-105.3
X243.8Y-106.7
X245.0Y-90.9
X246.9Y-75.2
X247.2Y-95.4
X247.3Y-120.0
X247.4Y-118.0
X249.1Y-89.0
X250.6Y-79.9
X252.5Y-121.3
X253.8Y-111.0
X254.9Y-108.5
X255.2Y-112.1
X255.7Y-88.1
X256.7Y-126.6
X258.4Y-126.6
X258.504Y-107.165
X259.0Y-102.0
X259.494Y-108.155
X259.893Y-126.607
X260.445Y-109.181
X262.8Y-126.1
X264.2Y-118.0
X264.3Y-120.0
X266.0Y-102.0
X273.0Y-102.0
X274.5Y-112.1
X275.0Y-128.0
X275.8Y-139.0
X276.147Y-128.999
X277.391Y-129.64
X277.5Y-142.7
X278.0Y-102.0
X278.2Y-112.2
X279.5Y-142.7
X280.7Y-120.9
X282.013Y-104.035
X282.401Y-117.4
X283.0Y-125.6
X283.001Y-118.705
X283.064Y-104.96
X283.601Y-119.969
X284.0Y-106.0
X284.399Y-125.62
X284.6Y-121.04
X285.817Y-125.615
T5
X100.3Y-89.5
X113.0Y-89.5
X123.92Y-87.84
X123.92Y-90.38
X123.92Y-92.92
X123.92Y-98.0
X129.0Y-87.84
X129.0Y-90.38
X129.0Y-92.92
X129.0Y-98.18
X133.92Y-87.84
X133.92Y-90.38
X133.92Y-92.92
X133.92Y-98.0
X139.0Y-87.84
X139.0Y-90.38
X139.0Y-92.92
X139.0Y-98.0
X143.92Y-87.84
X143.92Y-90.38
X143.92Y-92.92
X143.92Y-98.0
X149.0Y-87.84
X149.0Y-90.38
X149.0Y-92.92
X149.0Y-98.0
X153.92Y-87.84
X153.92Y-90.38
X153.92Y-92.92
X153.92Y-98.0
X159.0Y-87.84
X159.0Y-90.38
X159.0Y-92.92
X159.0Y-98.0
X166.6Y-124.1
X166.6Y-129.1
X166.6Y-132.9
X166.6Y-137.9
X181.28Y-88.6
X181.28Y-96.22
X183.82Y-88.6
X183.82Y-96.22
X186.36Y-88.6
X186.36Y-96.22
X188.9Y-88.6
X188.9Y-96.22
X196.9Y-88.6
X196.9Y-96.22
X199.44Y-88.6
X199.44Y-96.22
X201.98Y-88.6
X201.98Y-96.22
X204.52Y-88.6
X204.52Y-96.22
T6
X99.38Y-148.213
X99.38Y-150.752
X101.92Y-148.213
X101.92Y-150.752
X104.46Y-148.213
X104.46Y-150.752
X107.0Y-148.213
X107.0Y-150.752
X109.0Y-82.0
X109.54Y-148.213
X109.54Y-150.752
X112.08Y-148.213
X112.08Y-150.752
X113.0Y-93.3
X113.0Y-95.84
X113.0Y-98.38
X113.0Y-100.92
X113.0Y-103.46
X113.0Y-106.0
X114.0Y-82.0
X114.62Y-148.213
X114.62Y-150.752
X130.0Y-116.1
X130.0Y-146.1
X135.0Y-116.1
X135.0Y-146.1
X136.0Y-63.0
X136.0Y-65.54
X136.0Y-70.62
X136.0Y-73.16
X136.0Y-75.7
X149.0Y-63.0
X149.0Y-65.54
X149.0Y-70.62
X149.0Y-73.16
X149.0Y-75.7
X157.0Y-67.475
X157.0Y-70.015
X157.0Y-72.555
X162.0Y-67.475
X162.0Y-70.015
X162.0Y-72.555
X172.6Y-124.1
X172.6Y-139.0
X177.6Y-124.1
X177.6Y-139.0
X221.0Y-106.3
X221.0Y-108.84
X221.0Y-111.38
X221.0Y-113.92
X221.0Y-116.46
X221.0Y-119.0
X236.38Y-65.46
X236.38Y-68.0
X238.92Y-65.46
X238.92Y-68.0
X241.46Y-65.46
X241.46Y-68.0
X244.0Y-65.46
X244.0Y-68.0
X246.54Y-65.46
X246.54Y-68.0
X248.5Y-143.42
X248.5Y-145.96
X248.5Y-148.5
X249.08Y-65.46
X249.08Y-68.0
X251.62Y-65.46
X251.62Y-68.0
X265.0Y-65.46
X265.0Y-68.0
X267.54Y-65.46
X267.54Y-68.0
X270.08Y-65.46
X270.08Y-68.0
X272.62Y-65.46
X272.62Y-68.0
X275.16Y-65.46
X275.16Y-68.0
X283.25Y-142.5
X283.25Y-147.5
X285.75Y-142.5
X285.75Y-145.0
X285.75Y-147.5
T7
X180.425Y-104.4
X182.925Y-114.4
X185.425Y-104.4
X187.6Y-123.6
X187.6Y-128.6
X187.6Y-133.6
X187.6Y-138.6
X200.9Y-104.4
X203.4Y-114.4
X205.9Y-104.4
T8
X97.25Y-84.0
X179.0Y-79.5
T9
X122.5Y-70.05
X166.5Y-90.0
X166.5Y-147.95
X179.5Y-70.05
X255.931Y-147.0
T6
X96.2Y-66.0G85X96.2Y-68.0
G05
X98.2Y-71.7G85X100.2Y-71.7
G05
X102.2Y-66.0G85X102.2Y-68.0
G05
T0
M30
