G04 #@! TF.GenerationSoftware,KiCad,Pcbnew,6.0.4-1.fc35*
G04 #@! TF.CreationDate,2022-04-14T23:25:06+02:00*
G04 #@! TF.ProjectId,office_amp,6f666669-6365-45f6-916d-702e6b696361,rev?*
G04 #@! TF.SameCoordinates,Original*
G04 #@! TF.FileFunction,Legend,Bot*
G04 #@! TF.FilePolarity,Positive*
%FSLAX46Y46*%
G04 Gerber Fmt 4.6, Leading zero omitted, Abs format (unit mm)*
G04 Created by KiCad (PCBNEW 6.0.4-1.fc35) date 2022-04-14 23:25:06*
%MOMM*%
%LPD*%
G01*
G04 APERTURE LIST*
G04 Aperture macros list*
%AMRoundRect*
0 Rectangle with rounded corners*
0 $1 Rounding radius*
0 $2 $3 $4 $5 $6 $7 $8 $9 X,Y pos of 4 corners*
0 Add a 4 corners polygon primitive as box body*
4,1,4,$2,$3,$4,$5,$6,$7,$8,$9,$2,$3,0*
0 Add four circle primitives for the rounded corners*
1,1,$1+$1,$2,$3*
1,1,$1+$1,$4,$5*
1,1,$1+$1,$6,$7*
1,1,$1+$1,$8,$9*
0 Add four rect primitives between the rounded corners*
20,1,$1+$1,$2,$3,$4,$5,0*
20,1,$1+$1,$4,$5,$6,$7,0*
20,1,$1+$1,$6,$7,$8,$9,0*
20,1,$1+$1,$8,$9,$2,$3,0*%
%AMFreePoly0*
4,1,20,0.000000,0.744959,0.073905,0.744508,0.209726,0.703889,0.328688,0.626782,0.421226,0.519385,0.479903,0.390333,0.500000,0.250000,0.500000,-0.250000,0.499851,-0.262216,0.476331,-0.402017,0.414519,-0.529596,0.319384,-0.634700,0.198574,-0.708877,0.061801,-0.746166,0.000000,-0.745033,0.000000,-0.750000,-0.500000,-0.750000,-0.500000,0.750000,0.000000,0.750000,0.000000,0.744959,
0.000000,0.744959,$1*%
%AMFreePoly1*
4,1,22,0.500000,-0.750000,0.000000,-0.750000,0.000000,-0.745033,-0.079941,-0.743568,-0.215256,-0.701293,-0.333266,-0.622738,-0.424486,-0.514219,-0.481581,-0.384460,-0.499164,-0.250000,-0.500000,-0.250000,-0.500000,0.250000,-0.499164,0.250000,-0.499963,0.256109,-0.478152,0.396186,-0.417904,0.524511,-0.324060,0.630769,-0.204165,0.706417,-0.067858,0.745374,0.000000,0.744959,0.000000,0.750000,
0.500000,0.750000,0.500000,-0.750000,0.500000,-0.750000,$1*%
G04 Aperture macros list end*
%ADD10C,0.150000*%
%ADD11C,0.300000*%
%ADD12C,0.120000*%
%ADD13FreePoly0,180.000000*%
%ADD14FreePoly1,180.000000*%
%ADD15FreePoly0,270.000000*%
%ADD16FreePoly1,270.000000*%
%ADD17O,1.700000X1.700000*%
%ADD18R,1.700000X1.700000*%
%ADD19C,1.800000*%
%ADD20O,3.500000X2.600000*%
%ADD21C,7.000000*%
%ADD22C,1.700000*%
%ADD23RoundRect,0.250000X0.600000X-0.600000X0.600000X0.600000X-0.600000X0.600000X-0.600000X-0.600000X0*%
%ADD24R,3.500000X3.500000*%
%ADD25RoundRect,0.750000X-0.750000X-1.000000X0.750000X-1.000000X0.750000X1.000000X-0.750000X1.000000X0*%
%ADD26RoundRect,0.875000X-0.875000X-0.875000X0.875000X-0.875000X0.875000X0.875000X-0.875000X0.875000X0*%
%ADD27R,1.600000X1.600000*%
%ADD28C,1.900000*%
%ADD29R,2.000000X2.000000*%
%ADD30C,2.000000*%
%ADD31RoundRect,0.250500X0.499500X0.499500X-0.499500X0.499500X-0.499500X-0.499500X0.499500X-0.499500X0*%
%ADD32C,1.500000*%
%ADD33C,2.340000*%
%ADD34O,1.600000X1.600000*%
%ADD35C,1.600000*%
%ADD36R,2.500000X2.500000*%
%ADD37C,2.500000*%
%ADD38C,2.800000*%
%ADD39RoundRect,0.250000X0.475000X-0.337500X0.475000X0.337500X-0.475000X0.337500X-0.475000X-0.337500X0*%
%ADD40RoundRect,0.250000X0.350000X0.450000X-0.350000X0.450000X-0.350000X-0.450000X0.350000X-0.450000X0*%
%ADD41RoundRect,0.250000X-0.350000X-0.450000X0.350000X-0.450000X0.350000X0.450000X-0.350000X0.450000X0*%
%ADD42RoundRect,0.250000X-0.450000X0.350000X-0.450000X-0.350000X0.450000X-0.350000X0.450000X0.350000X0*%
%ADD43FreePoly1,0.000000*%
%ADD44FreePoly0,0.000000*%
%ADD45RoundRect,0.150000X0.150000X-0.587500X0.150000X0.587500X-0.150000X0.587500X-0.150000X-0.587500X0*%
%ADD46RoundRect,0.250000X0.450000X-0.350000X0.450000X0.350000X-0.450000X0.350000X-0.450000X-0.350000X0*%
G04 APERTURE END LIST*
D10*
X213800000Y-152700000D02*
X213800000Y-153200000D01*
X218100000Y-153200000D02*
X218100000Y-148800000D01*
X216700000Y-148800000D02*
X216700000Y-153200000D01*
X217400000Y-154200000D02*
X217400000Y-153200000D01*
X215300000Y-148800000D02*
X215300000Y-153200000D01*
X218100000Y-148800000D02*
X216700000Y-148800000D01*
X216700000Y-153200000D02*
X218100000Y-153200000D01*
X213800000Y-148800000D02*
X215300000Y-150600000D01*
X217400000Y-147800000D02*
X217400000Y-148800000D01*
X214200000Y-153200000D02*
X213800000Y-153200000D01*
X216700000Y-151000000D02*
X215300000Y-151000000D01*
X213800000Y-153200000D02*
X215300000Y-151400000D01*
X218266666Y-155428571D02*
X218266666Y-155961904D01*
X218457142Y-155123809D02*
X218647619Y-155695238D01*
X218152380Y-155695238D01*
X217885714Y-155238095D02*
X217847619Y-155200000D01*
X217771428Y-155161904D01*
X217580952Y-155161904D01*
X217504761Y-155200000D01*
X217466666Y-155238095D01*
X217428571Y-155314285D01*
X217428571Y-155390476D01*
X217466666Y-155504761D01*
X217923809Y-155961904D01*
X217428571Y-155961904D01*
X217200000Y-155161904D02*
X216933333Y-155961904D01*
X216666666Y-155161904D01*
X216285714Y-155961904D02*
X216361904Y-155923809D01*
X216400000Y-155885714D01*
X216438095Y-155809523D01*
X216438095Y-155580952D01*
X216400000Y-155504761D01*
X216361904Y-155466666D01*
X216285714Y-155428571D01*
X216171428Y-155428571D01*
X216095238Y-155466666D01*
X216057142Y-155504761D01*
X216019047Y-155580952D01*
X216019047Y-155809523D01*
X216057142Y-155885714D01*
X216095238Y-155923809D01*
X216171428Y-155961904D01*
X216285714Y-155961904D01*
X215561904Y-155961904D02*
X215638095Y-155923809D01*
X215676190Y-155847619D01*
X215676190Y-155161904D01*
X215371428Y-155428571D02*
X215066666Y-155428571D01*
X215257142Y-155161904D02*
X215257142Y-155847619D01*
X215219047Y-155923809D01*
X215142857Y-155961904D01*
X215066666Y-155961904D01*
X214800000Y-155885714D02*
X214761904Y-155923809D01*
X214800000Y-155961904D01*
X214838095Y-155923809D01*
X214800000Y-155885714D01*
X214800000Y-155961904D01*
X214076190Y-155961904D02*
X214076190Y-155161904D01*
X214076190Y-155923809D02*
X214152380Y-155961904D01*
X214304761Y-155961904D01*
X214380952Y-155923809D01*
X214419047Y-155885714D01*
X214457142Y-155809523D01*
X214457142Y-155580952D01*
X214419047Y-155504761D01*
X214380952Y-155466666D01*
X214304761Y-155428571D01*
X214152380Y-155428571D01*
X214076190Y-155466666D01*
X213390476Y-155923809D02*
X213466666Y-155961904D01*
X213619047Y-155961904D01*
X213695238Y-155923809D01*
X213733333Y-155847619D01*
X213733333Y-155542857D01*
X213695238Y-155466666D01*
X213619047Y-155428571D01*
X213466666Y-155428571D01*
X213390476Y-155466666D01*
X213352380Y-155542857D01*
X213352380Y-155619047D01*
X213733333Y-155695238D01*
D11*
X280090714Y-60178571D02*
X279733571Y-61678571D01*
X279447857Y-60607142D01*
X279162142Y-61678571D01*
X278805000Y-60178571D01*
X277662142Y-61607142D02*
X277805000Y-61678571D01*
X278090714Y-61678571D01*
X278233571Y-61607142D01*
X278305000Y-61464285D01*
X278305000Y-60892857D01*
X278233571Y-60750000D01*
X278090714Y-60678571D01*
X277805000Y-60678571D01*
X277662142Y-60750000D01*
X277590714Y-60892857D01*
X277590714Y-61035714D01*
X278305000Y-61178571D01*
X277019285Y-61607142D02*
X276876428Y-61678571D01*
X276590714Y-61678571D01*
X276447857Y-61607142D01*
X276376428Y-61464285D01*
X276376428Y-61392857D01*
X276447857Y-61250000D01*
X276590714Y-61178571D01*
X276805000Y-61178571D01*
X276947857Y-61107142D01*
X277019285Y-60964285D01*
X277019285Y-60892857D01*
X276947857Y-60750000D01*
X276805000Y-60678571D01*
X276590714Y-60678571D01*
X276447857Y-60750000D01*
X275947857Y-60678571D02*
X275376428Y-60678571D01*
X275733571Y-60178571D02*
X275733571Y-61464285D01*
X275662142Y-61607142D01*
X275519285Y-61678571D01*
X275376428Y-61678571D01*
X275090714Y-60678571D02*
X274519285Y-60678571D01*
X274876428Y-61678571D02*
X274876428Y-60392857D01*
X274805000Y-60250000D01*
X274662142Y-60178571D01*
X274519285Y-60178571D01*
X273376428Y-61678571D02*
X273376428Y-60892857D01*
X273447857Y-60750000D01*
X273590714Y-60678571D01*
X273876428Y-60678571D01*
X274019285Y-60750000D01*
X273376428Y-61607142D02*
X273519285Y-61678571D01*
X273876428Y-61678571D01*
X274019285Y-61607142D01*
X274090714Y-61464285D01*
X274090714Y-61321428D01*
X274019285Y-61178571D01*
X273876428Y-61107142D01*
X273519285Y-61107142D01*
X273376428Y-61035714D01*
X274019285Y-60178571D02*
X273947857Y-60250000D01*
X274019285Y-60321428D01*
X274090714Y-60250000D01*
X274019285Y-60178571D01*
X274019285Y-60321428D01*
X273447857Y-60178571D02*
X273376428Y-60250000D01*
X273447857Y-60321428D01*
X273519285Y-60250000D01*
X273447857Y-60178571D01*
X273447857Y-60321428D01*
X272447857Y-61678571D02*
X272590714Y-61607142D01*
X272662142Y-61464285D01*
X272662142Y-60178571D01*
X271876428Y-61678571D02*
X271876428Y-60678571D01*
X271876428Y-60178571D02*
X271947857Y-60250000D01*
X271876428Y-60321428D01*
X271805000Y-60250000D01*
X271876428Y-60178571D01*
X271876428Y-60321428D01*
X271233571Y-61607142D02*
X271090714Y-61678571D01*
X270805000Y-61678571D01*
X270662142Y-61607142D01*
X270590714Y-61464285D01*
X270590714Y-61392857D01*
X270662142Y-61250000D01*
X270805000Y-61178571D01*
X271019285Y-61178571D01*
X271162142Y-61107142D01*
X271233571Y-60964285D01*
X271233571Y-60892857D01*
X271162142Y-60750000D01*
X271019285Y-60678571D01*
X270805000Y-60678571D01*
X270662142Y-60750000D01*
X269305000Y-61607142D02*
X269447857Y-61678571D01*
X269733571Y-61678571D01*
X269876428Y-61607142D01*
X269947857Y-61535714D01*
X270019285Y-61392857D01*
X270019285Y-60964285D01*
X269947857Y-60821428D01*
X269876428Y-60750000D01*
X269733571Y-60678571D01*
X269447857Y-60678571D01*
X269305000Y-60750000D01*
X268662142Y-61678571D02*
X268662142Y-60178571D01*
X268019285Y-61678571D02*
X268019285Y-60892857D01*
X268090714Y-60750000D01*
X268233571Y-60678571D01*
X268447857Y-60678571D01*
X268590714Y-60750000D01*
X268662142Y-60821428D01*
X266733571Y-61607142D02*
X266876428Y-61678571D01*
X267162142Y-61678571D01*
X267305000Y-61607142D01*
X267376428Y-61464285D01*
X267376428Y-60892857D01*
X267305000Y-60750000D01*
X267162142Y-60678571D01*
X266876428Y-60678571D01*
X266733571Y-60750000D01*
X266662142Y-60892857D01*
X266662142Y-61035714D01*
X267376428Y-61178571D01*
X264876428Y-61678571D02*
X264876428Y-60178571D01*
X264876428Y-60892857D02*
X264019285Y-60892857D01*
X264019285Y-61678571D02*
X264019285Y-60178571D01*
X263090714Y-61678571D02*
X263233571Y-61607142D01*
X263305000Y-61535714D01*
X263376428Y-61392857D01*
X263376428Y-60964285D01*
X263305000Y-60821428D01*
X263233571Y-60750000D01*
X263090714Y-60678571D01*
X262876428Y-60678571D01*
X262733571Y-60750000D01*
X262662142Y-60821428D01*
X262590714Y-60964285D01*
X262590714Y-61392857D01*
X262662142Y-61535714D01*
X262733571Y-61607142D01*
X262876428Y-61678571D01*
X263090714Y-61678571D01*
X261305000Y-61607142D02*
X261447857Y-61678571D01*
X261733571Y-61678571D01*
X261876428Y-61607142D01*
X261947857Y-61535714D01*
X262019285Y-61392857D01*
X262019285Y-60964285D01*
X261947857Y-60821428D01*
X261876428Y-60750000D01*
X261733571Y-60678571D01*
X261447857Y-60678571D01*
X261305000Y-60750000D01*
X260662142Y-61678571D02*
X260662142Y-60178571D01*
X260019285Y-61678571D02*
X260019285Y-60892857D01*
X260090714Y-60750000D01*
X260233571Y-60678571D01*
X260447857Y-60678571D01*
X260590714Y-60750000D01*
X260662142Y-60821428D01*
X259376428Y-61607142D02*
X259233571Y-61678571D01*
X258947857Y-61678571D01*
X258805000Y-61607142D01*
X258733571Y-61464285D01*
X258733571Y-61392857D01*
X258805000Y-61250000D01*
X258947857Y-61178571D01*
X259162142Y-61178571D01*
X259305000Y-61107142D01*
X259376428Y-60964285D01*
X259376428Y-60892857D01*
X259305000Y-60750000D01*
X259162142Y-60678571D01*
X258947857Y-60678571D01*
X258805000Y-60750000D01*
X257447857Y-61607142D02*
X257590714Y-61678571D01*
X257876428Y-61678571D01*
X258019285Y-61607142D01*
X258090714Y-61535714D01*
X258162142Y-61392857D01*
X258162142Y-60964285D01*
X258090714Y-60821428D01*
X258019285Y-60750000D01*
X257876428Y-60678571D01*
X257590714Y-60678571D01*
X257447857Y-60750000D01*
X256805000Y-61678571D02*
X256805000Y-60178571D01*
X256162142Y-61678571D02*
X256162142Y-60892857D01*
X256233571Y-60750000D01*
X256376428Y-60678571D01*
X256590714Y-60678571D01*
X256733571Y-60750000D01*
X256805000Y-60821428D01*
X254805000Y-60678571D02*
X254805000Y-61678571D01*
X255447857Y-60678571D02*
X255447857Y-61464285D01*
X255376428Y-61607142D01*
X255233571Y-61678571D01*
X255019285Y-61678571D01*
X254876428Y-61607142D01*
X254805000Y-61535714D01*
X253876428Y-61678571D02*
X254019285Y-61607142D01*
X254090714Y-61464285D01*
X254090714Y-60178571D01*
X252733571Y-61607142D02*
X252876428Y-61678571D01*
X253162142Y-61678571D01*
X253305000Y-61607142D01*
X253376428Y-61464285D01*
X253376428Y-60892857D01*
X253305000Y-60750000D01*
X253162142Y-60678571D01*
X252876428Y-60678571D01*
X252733571Y-60750000D01*
X252662142Y-60892857D01*
X252662142Y-61035714D01*
X253376428Y-61178571D01*
X239892857Y-61535714D02*
X239964285Y-61607142D01*
X240178571Y-61678571D01*
X240321428Y-61678571D01*
X240535714Y-61607142D01*
X240678571Y-61464285D01*
X240750000Y-61321428D01*
X240821428Y-61035714D01*
X240821428Y-60821428D01*
X240750000Y-60535714D01*
X240678571Y-60392857D01*
X240535714Y-60250000D01*
X240321428Y-60178571D01*
X240178571Y-60178571D01*
X239964285Y-60250000D01*
X239892857Y-60321428D01*
X238321428Y-60964285D02*
X238392857Y-60892857D01*
X238535714Y-60821428D01*
X238678571Y-60821428D01*
X238821428Y-60892857D01*
X238892857Y-60964285D01*
X238964285Y-61107142D01*
X238964285Y-61250000D01*
X238892857Y-61392857D01*
X238821428Y-61464285D01*
X238678571Y-61535714D01*
X238535714Y-61535714D01*
X238392857Y-61464285D01*
X238321428Y-61392857D01*
X238321428Y-60821428D02*
X238321428Y-61392857D01*
X238250000Y-61464285D01*
X238178571Y-61464285D01*
X238035714Y-61392857D01*
X237964285Y-61250000D01*
X237964285Y-60892857D01*
X238107142Y-60678571D01*
X238321428Y-60535714D01*
X238607142Y-60464285D01*
X238892857Y-60535714D01*
X239107142Y-60678571D01*
X239250000Y-60892857D01*
X239321428Y-61178571D01*
X239250000Y-61464285D01*
X239107142Y-61678571D01*
X238892857Y-61821428D01*
X238607142Y-61892857D01*
X238321428Y-61821428D01*
X238107142Y-61678571D01*
X237321428Y-61678571D02*
X237321428Y-60678571D01*
X237321428Y-60821428D02*
X237250000Y-60750000D01*
X237107142Y-60678571D01*
X236892857Y-60678571D01*
X236750000Y-60750000D01*
X236678571Y-60892857D01*
X236678571Y-61678571D01*
X236678571Y-60892857D02*
X236607142Y-60750000D01*
X236464285Y-60678571D01*
X236250000Y-60678571D01*
X236107142Y-60750000D01*
X236035714Y-60892857D01*
X236035714Y-61678571D01*
X235321428Y-60678571D02*
X235321428Y-62178571D01*
X235321428Y-60750000D02*
X235178571Y-60678571D01*
X234892857Y-60678571D01*
X234750000Y-60750000D01*
X234678571Y-60821428D01*
X234607142Y-60964285D01*
X234607142Y-61392857D01*
X234678571Y-61535714D01*
X234750000Y-61607142D01*
X234892857Y-61678571D01*
X235178571Y-61678571D01*
X235321428Y-61607142D01*
X233321428Y-60678571D02*
X233321428Y-61678571D01*
X233964285Y-60678571D02*
X233964285Y-61464285D01*
X233892857Y-61607142D01*
X233750000Y-61678571D01*
X233535714Y-61678571D01*
X233392857Y-61607142D01*
X233321428Y-61535714D01*
X232678571Y-61607142D02*
X232535714Y-61678571D01*
X232250000Y-61678571D01*
X232107142Y-61607142D01*
X232035714Y-61464285D01*
X232035714Y-61392857D01*
X232107142Y-61250000D01*
X232250000Y-61178571D01*
X232464285Y-61178571D01*
X232607142Y-61107142D01*
X232678571Y-60964285D01*
X232678571Y-60892857D01*
X232607142Y-60750000D01*
X232464285Y-60678571D01*
X232250000Y-60678571D01*
X232107142Y-60750000D01*
X231535714Y-60678571D02*
X231250000Y-61678571D01*
X230964285Y-60964285D01*
X230678571Y-61678571D01*
X230392857Y-60678571D01*
X229607142Y-61678571D02*
X229750000Y-61607142D01*
X229821428Y-61535714D01*
X229892857Y-61392857D01*
X229892857Y-60964285D01*
X229821428Y-60821428D01*
X229750000Y-60750000D01*
X229607142Y-60678571D01*
X229392857Y-60678571D01*
X229250000Y-60750000D01*
X229178571Y-60821428D01*
X229107142Y-60964285D01*
X229107142Y-61392857D01*
X229178571Y-61535714D01*
X229250000Y-61607142D01*
X229392857Y-61678571D01*
X229607142Y-61678571D01*
X227821428Y-61607142D02*
X227964285Y-61678571D01*
X228250000Y-61678571D01*
X228392857Y-61607142D01*
X228464285Y-61535714D01*
X228535714Y-61392857D01*
X228535714Y-60964285D01*
X228464285Y-60821428D01*
X228392857Y-60750000D01*
X228250000Y-60678571D01*
X227964285Y-60678571D01*
X227821428Y-60750000D01*
X227178571Y-61678571D02*
X227178571Y-60178571D01*
X226535714Y-61678571D02*
X226535714Y-60892857D01*
X226607142Y-60750000D01*
X226750000Y-60678571D01*
X226964285Y-60678571D01*
X227107142Y-60750000D01*
X227178571Y-60821428D01*
X225250000Y-61607142D02*
X225392857Y-61678571D01*
X225678571Y-61678571D01*
X225821428Y-61607142D01*
X225892857Y-61464285D01*
X225892857Y-60892857D01*
X225821428Y-60750000D01*
X225678571Y-60678571D01*
X225392857Y-60678571D01*
X225250000Y-60750000D01*
X225178571Y-60892857D01*
X225178571Y-61035714D01*
X225892857Y-61178571D01*
D10*
X195500000Y-150200000D02*
X195100000Y-150200000D01*
X196600000Y-145800000D02*
X196600000Y-150200000D01*
X195100000Y-145800000D02*
X196600000Y-147600000D01*
X198000000Y-150200000D02*
X199400000Y-150200000D01*
X198700000Y-144800000D02*
X198700000Y-145800000D01*
X195100000Y-149700000D02*
X195100000Y-150200000D01*
X195100000Y-150200000D02*
X196600000Y-148400000D01*
X199400000Y-150200000D02*
X199400000Y-145800000D01*
X199400000Y-145800000D02*
X198000000Y-145800000D01*
X156500000Y-132700000D02*
X156500000Y-133200000D01*
X198700000Y-151200000D02*
X198700000Y-150200000D01*
X198000000Y-145800000D02*
X198000000Y-150200000D01*
X198000000Y-148000000D02*
X196600000Y-148000000D01*
X199566666Y-152428571D02*
X199566666Y-152961904D01*
X199757142Y-152123809D02*
X199947619Y-152695238D01*
X199452380Y-152695238D01*
X199185714Y-152238095D02*
X199147619Y-152200000D01*
X199071428Y-152161904D01*
X198880952Y-152161904D01*
X198804761Y-152200000D01*
X198766666Y-152238095D01*
X198728571Y-152314285D01*
X198728571Y-152390476D01*
X198766666Y-152504761D01*
X199223809Y-152961904D01*
X198728571Y-152961904D01*
X198500000Y-152161904D02*
X198233333Y-152961904D01*
X197966666Y-152161904D01*
X197585714Y-152961904D02*
X197661904Y-152923809D01*
X197700000Y-152885714D01*
X197738095Y-152809523D01*
X197738095Y-152580952D01*
X197700000Y-152504761D01*
X197661904Y-152466666D01*
X197585714Y-152428571D01*
X197471428Y-152428571D01*
X197395238Y-152466666D01*
X197357142Y-152504761D01*
X197319047Y-152580952D01*
X197319047Y-152809523D01*
X197357142Y-152885714D01*
X197395238Y-152923809D01*
X197471428Y-152961904D01*
X197585714Y-152961904D01*
X196861904Y-152961904D02*
X196938095Y-152923809D01*
X196976190Y-152847619D01*
X196976190Y-152161904D01*
X196671428Y-152428571D02*
X196366666Y-152428571D01*
X196557142Y-152161904D02*
X196557142Y-152847619D01*
X196519047Y-152923809D01*
X196442857Y-152961904D01*
X196366666Y-152961904D01*
X196100000Y-152885714D02*
X196061904Y-152923809D01*
X196100000Y-152961904D01*
X196138095Y-152923809D01*
X196100000Y-152885714D01*
X196100000Y-152961904D01*
X195376190Y-152961904D02*
X195376190Y-152161904D01*
X195376190Y-152923809D02*
X195452380Y-152961904D01*
X195604761Y-152961904D01*
X195680952Y-152923809D01*
X195719047Y-152885714D01*
X195757142Y-152809523D01*
X195757142Y-152580952D01*
X195719047Y-152504761D01*
X195680952Y-152466666D01*
X195604761Y-152428571D01*
X195452380Y-152428571D01*
X195376190Y-152466666D01*
X194690476Y-152923809D02*
X194766666Y-152961904D01*
X194919047Y-152961904D01*
X194995238Y-152923809D01*
X195033333Y-152847619D01*
X195033333Y-152542857D01*
X194995238Y-152466666D01*
X194919047Y-152428571D01*
X194766666Y-152428571D01*
X194690476Y-152466666D01*
X194652380Y-152542857D01*
X194652380Y-152619047D01*
X195033333Y-152695238D01*
X141357142Y-125107142D02*
X141404761Y-125059523D01*
X141452380Y-124916666D01*
X141452380Y-124821428D01*
X141404761Y-124678571D01*
X141309523Y-124583333D01*
X141214285Y-124535714D01*
X141023809Y-124488095D01*
X140880952Y-124488095D01*
X140690476Y-124535714D01*
X140595238Y-124583333D01*
X140500000Y-124678571D01*
X140452380Y-124821428D01*
X140452380Y-124916666D01*
X140500000Y-125059523D01*
X140547619Y-125107142D01*
X141452380Y-126059523D02*
X141452380Y-125488095D01*
X141452380Y-125773809D02*
X140452380Y-125773809D01*
X140595238Y-125678571D01*
X140690476Y-125583333D01*
X140738095Y-125488095D01*
X140452380Y-126392857D02*
X140452380Y-127011904D01*
X140833333Y-126678571D01*
X140833333Y-126821428D01*
X140880952Y-126916666D01*
X140928571Y-126964285D01*
X141023809Y-127011904D01*
X141261904Y-127011904D01*
X141357142Y-126964285D01*
X141404761Y-126916666D01*
X141452380Y-126821428D01*
X141452380Y-126535714D01*
X141404761Y-126440476D01*
X141357142Y-126392857D01*
X111416666Y-136452380D02*
X111750000Y-135976190D01*
X111988095Y-136452380D02*
X111988095Y-135452380D01*
X111607142Y-135452380D01*
X111511904Y-135500000D01*
X111464285Y-135547619D01*
X111416666Y-135642857D01*
X111416666Y-135785714D01*
X111464285Y-135880952D01*
X111511904Y-135928571D01*
X111607142Y-135976190D01*
X111988095Y-135976190D01*
X110464285Y-136452380D02*
X111035714Y-136452380D01*
X110750000Y-136452380D02*
X110750000Y-135452380D01*
X110845238Y-135595238D01*
X110940476Y-135690476D01*
X111035714Y-135738095D01*
X104666666Y-136452380D02*
X105000000Y-135976190D01*
X105238095Y-136452380D02*
X105238095Y-135452380D01*
X104857142Y-135452380D01*
X104761904Y-135500000D01*
X104714285Y-135547619D01*
X104666666Y-135642857D01*
X104666666Y-135785714D01*
X104714285Y-135880952D01*
X104761904Y-135928571D01*
X104857142Y-135976190D01*
X105238095Y-135976190D01*
X104285714Y-135547619D02*
X104238095Y-135500000D01*
X104142857Y-135452380D01*
X103904761Y-135452380D01*
X103809523Y-135500000D01*
X103761904Y-135547619D01*
X103714285Y-135642857D01*
X103714285Y-135738095D01*
X103761904Y-135880952D01*
X104333333Y-136452380D01*
X103714285Y-136452380D01*
X98316666Y-136452380D02*
X98650000Y-135976190D01*
X98888095Y-136452380D02*
X98888095Y-135452380D01*
X98507142Y-135452380D01*
X98411904Y-135500000D01*
X98364285Y-135547619D01*
X98316666Y-135642857D01*
X98316666Y-135785714D01*
X98364285Y-135880952D01*
X98411904Y-135928571D01*
X98507142Y-135976190D01*
X98888095Y-135976190D01*
X97983333Y-135452380D02*
X97364285Y-135452380D01*
X97697619Y-135833333D01*
X97554761Y-135833333D01*
X97459523Y-135880952D01*
X97411904Y-135928571D01*
X97364285Y-136023809D01*
X97364285Y-136261904D01*
X97411904Y-136357142D01*
X97459523Y-136404761D01*
X97554761Y-136452380D01*
X97840476Y-136452380D01*
X97935714Y-136404761D01*
X97983333Y-136357142D01*
X91816666Y-136452380D02*
X92150000Y-135976190D01*
X92388095Y-136452380D02*
X92388095Y-135452380D01*
X92007142Y-135452380D01*
X91911904Y-135500000D01*
X91864285Y-135547619D01*
X91816666Y-135642857D01*
X91816666Y-135785714D01*
X91864285Y-135880952D01*
X91911904Y-135928571D01*
X92007142Y-135976190D01*
X92388095Y-135976190D01*
X90959523Y-135785714D02*
X90959523Y-136452380D01*
X91197619Y-135404761D02*
X91435714Y-136119047D01*
X90816666Y-136119047D01*
X143357142Y-125107142D02*
X143404761Y-125059523D01*
X143452380Y-124916666D01*
X143452380Y-124821428D01*
X143404761Y-124678571D01*
X143309523Y-124583333D01*
X143214285Y-124535714D01*
X143023809Y-124488095D01*
X142880952Y-124488095D01*
X142690476Y-124535714D01*
X142595238Y-124583333D01*
X142500000Y-124678571D01*
X142452380Y-124821428D01*
X142452380Y-124916666D01*
X142500000Y-125059523D01*
X142547619Y-125107142D01*
X143452380Y-126059523D02*
X143452380Y-125488095D01*
X143452380Y-125773809D02*
X142452380Y-125773809D01*
X142595238Y-125678571D01*
X142690476Y-125583333D01*
X142738095Y-125488095D01*
X142547619Y-126440476D02*
X142500000Y-126488095D01*
X142452380Y-126583333D01*
X142452380Y-126821428D01*
X142500000Y-126916666D01*
X142547619Y-126964285D01*
X142642857Y-127011904D01*
X142738095Y-127011904D01*
X142880952Y-126964285D01*
X143452380Y-126392857D01*
X143452380Y-127011904D01*
X133642857Y-108102380D02*
X133976190Y-107626190D01*
X134214285Y-108102380D02*
X134214285Y-107102380D01*
X133833333Y-107102380D01*
X133738095Y-107150000D01*
X133690476Y-107197619D01*
X133642857Y-107292857D01*
X133642857Y-107435714D01*
X133690476Y-107530952D01*
X133738095Y-107578571D01*
X133833333Y-107626190D01*
X134214285Y-107626190D01*
X132690476Y-108102380D02*
X133261904Y-108102380D01*
X132976190Y-108102380D02*
X132976190Y-107102380D01*
X133071428Y-107245238D01*
X133166666Y-107340476D01*
X133261904Y-107388095D01*
X132119047Y-107530952D02*
X132214285Y-107483333D01*
X132261904Y-107435714D01*
X132309523Y-107340476D01*
X132309523Y-107292857D01*
X132261904Y-107197619D01*
X132214285Y-107150000D01*
X132119047Y-107102380D01*
X131928571Y-107102380D01*
X131833333Y-107150000D01*
X131785714Y-107197619D01*
X131738095Y-107292857D01*
X131738095Y-107340476D01*
X131785714Y-107435714D01*
X131833333Y-107483333D01*
X131928571Y-107530952D01*
X132119047Y-107530952D01*
X132214285Y-107578571D01*
X132261904Y-107626190D01*
X132309523Y-107721428D01*
X132309523Y-107911904D01*
X132261904Y-108007142D01*
X132214285Y-108054761D01*
X132119047Y-108102380D01*
X131928571Y-108102380D01*
X131833333Y-108054761D01*
X131785714Y-108007142D01*
X131738095Y-107911904D01*
X131738095Y-107721428D01*
X131785714Y-107626190D01*
X131833333Y-107578571D01*
X131928571Y-107530952D01*
X96142857Y-146102380D02*
X96476190Y-145626190D01*
X96714285Y-146102380D02*
X96714285Y-145102380D01*
X96333333Y-145102380D01*
X96238095Y-145150000D01*
X96190476Y-145197619D01*
X96142857Y-145292857D01*
X96142857Y-145435714D01*
X96190476Y-145530952D01*
X96238095Y-145578571D01*
X96333333Y-145626190D01*
X96714285Y-145626190D01*
X95761904Y-145197619D02*
X95714285Y-145150000D01*
X95619047Y-145102380D01*
X95380952Y-145102380D01*
X95285714Y-145150000D01*
X95238095Y-145197619D01*
X95190476Y-145292857D01*
X95190476Y-145388095D01*
X95238095Y-145530952D01*
X95809523Y-146102380D01*
X95190476Y-146102380D01*
X94333333Y-145435714D02*
X94333333Y-146102380D01*
X94571428Y-145054761D02*
X94809523Y-145769047D01*
X94190476Y-145769047D01*
X115642857Y-146452380D02*
X115976190Y-145976190D01*
X116214285Y-146452380D02*
X116214285Y-145452380D01*
X115833333Y-145452380D01*
X115738095Y-145500000D01*
X115690476Y-145547619D01*
X115642857Y-145642857D01*
X115642857Y-145785714D01*
X115690476Y-145880952D01*
X115738095Y-145928571D01*
X115833333Y-145976190D01*
X116214285Y-145976190D01*
X115261904Y-145547619D02*
X115214285Y-145500000D01*
X115119047Y-145452380D01*
X114880952Y-145452380D01*
X114785714Y-145500000D01*
X114738095Y-145547619D01*
X114690476Y-145642857D01*
X114690476Y-145738095D01*
X114738095Y-145880952D01*
X115309523Y-146452380D01*
X114690476Y-146452380D01*
X114119047Y-145880952D02*
X114214285Y-145833333D01*
X114261904Y-145785714D01*
X114309523Y-145690476D01*
X114309523Y-145642857D01*
X114261904Y-145547619D01*
X114214285Y-145500000D01*
X114119047Y-145452380D01*
X113928571Y-145452380D01*
X113833333Y-145500000D01*
X113785714Y-145547619D01*
X113738095Y-145642857D01*
X113738095Y-145690476D01*
X113785714Y-145785714D01*
X113833333Y-145833333D01*
X113928571Y-145880952D01*
X114119047Y-145880952D01*
X114214285Y-145928571D01*
X114261904Y-145976190D01*
X114309523Y-146071428D01*
X114309523Y-146261904D01*
X114261904Y-146357142D01*
X114214285Y-146404761D01*
X114119047Y-146452380D01*
X113928571Y-146452380D01*
X113833333Y-146404761D01*
X113785714Y-146357142D01*
X113738095Y-146261904D01*
X113738095Y-146071428D01*
X113785714Y-145976190D01*
X113833333Y-145928571D01*
X113928571Y-145880952D01*
X135642857Y-102802380D02*
X135976190Y-102326190D01*
X136214285Y-102802380D02*
X136214285Y-101802380D01*
X135833333Y-101802380D01*
X135738095Y-101850000D01*
X135690476Y-101897619D01*
X135642857Y-101992857D01*
X135642857Y-102135714D01*
X135690476Y-102230952D01*
X135738095Y-102278571D01*
X135833333Y-102326190D01*
X136214285Y-102326190D01*
X134690476Y-102802380D02*
X135261904Y-102802380D01*
X134976190Y-102802380D02*
X134976190Y-101802380D01*
X135071428Y-101945238D01*
X135166666Y-102040476D01*
X135261904Y-102088095D01*
X134357142Y-101802380D02*
X133690476Y-101802380D01*
X134119047Y-102802380D01*
X155642857Y-102802380D02*
X155976190Y-102326190D01*
X156214285Y-102802380D02*
X156214285Y-101802380D01*
X155833333Y-101802380D01*
X155738095Y-101850000D01*
X155690476Y-101897619D01*
X155642857Y-101992857D01*
X155642857Y-102135714D01*
X155690476Y-102230952D01*
X155738095Y-102278571D01*
X155833333Y-102326190D01*
X156214285Y-102326190D01*
X154690476Y-102802380D02*
X155261904Y-102802380D01*
X154976190Y-102802380D02*
X154976190Y-101802380D01*
X155071428Y-101945238D01*
X155166666Y-102040476D01*
X155261904Y-102088095D01*
X153785714Y-101802380D02*
X154261904Y-101802380D01*
X154309523Y-102278571D01*
X154261904Y-102230952D01*
X154166666Y-102183333D01*
X153928571Y-102183333D01*
X153833333Y-102230952D01*
X153785714Y-102278571D01*
X153738095Y-102373809D01*
X153738095Y-102611904D01*
X153785714Y-102707142D01*
X153833333Y-102754761D01*
X153928571Y-102802380D01*
X154166666Y-102802380D01*
X154261904Y-102754761D01*
X154309523Y-102707142D01*
X105452380Y-138857142D02*
X104976190Y-138523809D01*
X105452380Y-138285714D02*
X104452380Y-138285714D01*
X104452380Y-138666666D01*
X104500000Y-138761904D01*
X104547619Y-138809523D01*
X104642857Y-138857142D01*
X104785714Y-138857142D01*
X104880952Y-138809523D01*
X104928571Y-138761904D01*
X104976190Y-138666666D01*
X104976190Y-138285714D01*
X104547619Y-139238095D02*
X104500000Y-139285714D01*
X104452380Y-139380952D01*
X104452380Y-139619047D01*
X104500000Y-139714285D01*
X104547619Y-139761904D01*
X104642857Y-139809523D01*
X104738095Y-139809523D01*
X104880952Y-139761904D01*
X105452380Y-139190476D01*
X105452380Y-139809523D01*
X104452380Y-140714285D02*
X104452380Y-140238095D01*
X104928571Y-140190476D01*
X104880952Y-140238095D01*
X104833333Y-140333333D01*
X104833333Y-140571428D01*
X104880952Y-140666666D01*
X104928571Y-140714285D01*
X105023809Y-140761904D01*
X105261904Y-140761904D01*
X105357142Y-140714285D01*
X105404761Y-140666666D01*
X105452380Y-140571428D01*
X105452380Y-140333333D01*
X105404761Y-140238095D01*
X105357142Y-140190476D01*
X111952380Y-138857142D02*
X111476190Y-138523809D01*
X111952380Y-138285714D02*
X110952380Y-138285714D01*
X110952380Y-138666666D01*
X111000000Y-138761904D01*
X111047619Y-138809523D01*
X111142857Y-138857142D01*
X111285714Y-138857142D01*
X111380952Y-138809523D01*
X111428571Y-138761904D01*
X111476190Y-138666666D01*
X111476190Y-138285714D01*
X111047619Y-139238095D02*
X111000000Y-139285714D01*
X110952380Y-139380952D01*
X110952380Y-139619047D01*
X111000000Y-139714285D01*
X111047619Y-139761904D01*
X111142857Y-139809523D01*
X111238095Y-139809523D01*
X111380952Y-139761904D01*
X111952380Y-139190476D01*
X111952380Y-139809523D01*
X111952380Y-140761904D02*
X111952380Y-140190476D01*
X111952380Y-140476190D02*
X110952380Y-140476190D01*
X111095238Y-140380952D01*
X111190476Y-140285714D01*
X111238095Y-140190476D01*
X118452380Y-138857142D02*
X117976190Y-138523809D01*
X118452380Y-138285714D02*
X117452380Y-138285714D01*
X117452380Y-138666666D01*
X117500000Y-138761904D01*
X117547619Y-138809523D01*
X117642857Y-138857142D01*
X117785714Y-138857142D01*
X117880952Y-138809523D01*
X117928571Y-138761904D01*
X117976190Y-138666666D01*
X117976190Y-138285714D01*
X117547619Y-139238095D02*
X117500000Y-139285714D01*
X117452380Y-139380952D01*
X117452380Y-139619047D01*
X117500000Y-139714285D01*
X117547619Y-139761904D01*
X117642857Y-139809523D01*
X117738095Y-139809523D01*
X117880952Y-139761904D01*
X118452380Y-139190476D01*
X118452380Y-139809523D01*
X117452380Y-140666666D02*
X117452380Y-140476190D01*
X117500000Y-140380952D01*
X117547619Y-140333333D01*
X117690476Y-140238095D01*
X117880952Y-140190476D01*
X118261904Y-140190476D01*
X118357142Y-140238095D01*
X118404761Y-140285714D01*
X118452380Y-140380952D01*
X118452380Y-140571428D01*
X118404761Y-140666666D01*
X118357142Y-140714285D01*
X118261904Y-140761904D01*
X118023809Y-140761904D01*
X117928571Y-140714285D01*
X117880952Y-140666666D01*
X117833333Y-140571428D01*
X117833333Y-140380952D01*
X117880952Y-140285714D01*
X117928571Y-140238095D01*
X118023809Y-140190476D01*
X149047619Y-102904761D02*
X149000000Y-102809523D01*
X148904761Y-102714285D01*
X148761904Y-102571428D01*
X148714285Y-102476190D01*
X148714285Y-102380952D01*
X148952380Y-102428571D02*
X148904761Y-102333333D01*
X148809523Y-102238095D01*
X148619047Y-102190476D01*
X148285714Y-102190476D01*
X148095238Y-102238095D01*
X148000000Y-102333333D01*
X147952380Y-102428571D01*
X147952380Y-102619047D01*
X148000000Y-102714285D01*
X148095238Y-102809523D01*
X148285714Y-102857142D01*
X148619047Y-102857142D01*
X148809523Y-102809523D01*
X148904761Y-102714285D01*
X148952380Y-102619047D01*
X148952380Y-102428571D01*
X148285714Y-103714285D02*
X148952380Y-103714285D01*
X147904761Y-103476190D02*
X148619047Y-103238095D01*
X148619047Y-103857142D01*
X102642857Y-146202380D02*
X102976190Y-145726190D01*
X103214285Y-146202380D02*
X103214285Y-145202380D01*
X102833333Y-145202380D01*
X102738095Y-145250000D01*
X102690476Y-145297619D01*
X102642857Y-145392857D01*
X102642857Y-145535714D01*
X102690476Y-145630952D01*
X102738095Y-145678571D01*
X102833333Y-145726190D01*
X103214285Y-145726190D01*
X102261904Y-145297619D02*
X102214285Y-145250000D01*
X102119047Y-145202380D01*
X101880952Y-145202380D01*
X101785714Y-145250000D01*
X101738095Y-145297619D01*
X101690476Y-145392857D01*
X101690476Y-145488095D01*
X101738095Y-145630952D01*
X102309523Y-146202380D01*
X101690476Y-146202380D01*
X101357142Y-145202380D02*
X100690476Y-145202380D01*
X101119047Y-146202380D01*
X99202380Y-138857142D02*
X98726190Y-138523809D01*
X99202380Y-138285714D02*
X98202380Y-138285714D01*
X98202380Y-138666666D01*
X98250000Y-138761904D01*
X98297619Y-138809523D01*
X98392857Y-138857142D01*
X98535714Y-138857142D01*
X98630952Y-138809523D01*
X98678571Y-138761904D01*
X98726190Y-138666666D01*
X98726190Y-138285714D01*
X98297619Y-139238095D02*
X98250000Y-139285714D01*
X98202380Y-139380952D01*
X98202380Y-139619047D01*
X98250000Y-139714285D01*
X98297619Y-139761904D01*
X98392857Y-139809523D01*
X98488095Y-139809523D01*
X98630952Y-139761904D01*
X99202380Y-139190476D01*
X99202380Y-139809523D01*
X98297619Y-140190476D02*
X98250000Y-140238095D01*
X98202380Y-140333333D01*
X98202380Y-140571428D01*
X98250000Y-140666666D01*
X98297619Y-140714285D01*
X98392857Y-140761904D01*
X98488095Y-140761904D01*
X98630952Y-140714285D01*
X99202380Y-140142857D01*
X99202380Y-140761904D01*
X115095238Y-138547619D02*
X115190476Y-138500000D01*
X115285714Y-138404761D01*
X115428571Y-138261904D01*
X115523809Y-138214285D01*
X115619047Y-138214285D01*
X115571428Y-138452380D02*
X115666666Y-138404761D01*
X115761904Y-138309523D01*
X115809523Y-138119047D01*
X115809523Y-137785714D01*
X115761904Y-137595238D01*
X115666666Y-137500000D01*
X115571428Y-137452380D01*
X115380952Y-137452380D01*
X115285714Y-137500000D01*
X115190476Y-137595238D01*
X115142857Y-137785714D01*
X115142857Y-138119047D01*
X115190476Y-138309523D01*
X115285714Y-138404761D01*
X115380952Y-138452380D01*
X115571428Y-138452380D01*
X114666666Y-138452380D02*
X114476190Y-138452380D01*
X114380952Y-138404761D01*
X114333333Y-138357142D01*
X114238095Y-138214285D01*
X114190476Y-138023809D01*
X114190476Y-137642857D01*
X114238095Y-137547619D01*
X114285714Y-137500000D01*
X114380952Y-137452380D01*
X114571428Y-137452380D01*
X114666666Y-137500000D01*
X114714285Y-137547619D01*
X114761904Y-137642857D01*
X114761904Y-137880952D01*
X114714285Y-137976190D01*
X114666666Y-138023809D01*
X114571428Y-138071428D01*
X114380952Y-138071428D01*
X114285714Y-138023809D01*
X114238095Y-137976190D01*
X114190476Y-137880952D01*
X153642857Y-108102380D02*
X153976190Y-107626190D01*
X154214285Y-108102380D02*
X154214285Y-107102380D01*
X153833333Y-107102380D01*
X153738095Y-107150000D01*
X153690476Y-107197619D01*
X153642857Y-107292857D01*
X153642857Y-107435714D01*
X153690476Y-107530952D01*
X153738095Y-107578571D01*
X153833333Y-107626190D01*
X154214285Y-107626190D01*
X152690476Y-108102380D02*
X153261904Y-108102380D01*
X152976190Y-108102380D02*
X152976190Y-107102380D01*
X153071428Y-107245238D01*
X153166666Y-107340476D01*
X153261904Y-107388095D01*
X151833333Y-107102380D02*
X152023809Y-107102380D01*
X152119047Y-107150000D01*
X152166666Y-107197619D01*
X152261904Y-107340476D01*
X152309523Y-107530952D01*
X152309523Y-107911904D01*
X152261904Y-108007142D01*
X152214285Y-108054761D01*
X152119047Y-108102380D01*
X151928571Y-108102380D01*
X151833333Y-108054761D01*
X151785714Y-108007142D01*
X151738095Y-107911904D01*
X151738095Y-107673809D01*
X151785714Y-107578571D01*
X151833333Y-107530952D01*
X151928571Y-107483333D01*
X152119047Y-107483333D01*
X152214285Y-107530952D01*
X152261904Y-107578571D01*
X152309523Y-107673809D01*
X129047619Y-102904761D02*
X129000000Y-102809523D01*
X128904761Y-102714285D01*
X128761904Y-102571428D01*
X128714285Y-102476190D01*
X128714285Y-102380952D01*
X128952380Y-102428571D02*
X128904761Y-102333333D01*
X128809523Y-102238095D01*
X128619047Y-102190476D01*
X128285714Y-102190476D01*
X128095238Y-102238095D01*
X128000000Y-102333333D01*
X127952380Y-102428571D01*
X127952380Y-102619047D01*
X128000000Y-102714285D01*
X128095238Y-102809523D01*
X128285714Y-102857142D01*
X128619047Y-102857142D01*
X128809523Y-102809523D01*
X128904761Y-102714285D01*
X128952380Y-102619047D01*
X128952380Y-102428571D01*
X127952380Y-103761904D02*
X127952380Y-103285714D01*
X128428571Y-103238095D01*
X128380952Y-103285714D01*
X128333333Y-103380952D01*
X128333333Y-103619047D01*
X128380952Y-103714285D01*
X128428571Y-103761904D01*
X128523809Y-103809523D01*
X128761904Y-103809523D01*
X128857142Y-103761904D01*
X128904761Y-103714285D01*
X128952380Y-103619047D01*
X128952380Y-103380952D01*
X128904761Y-103285714D01*
X128857142Y-103238095D01*
X102095238Y-138547619D02*
X102190476Y-138500000D01*
X102285714Y-138404761D01*
X102428571Y-138261904D01*
X102523809Y-138214285D01*
X102619047Y-138214285D01*
X102571428Y-138452380D02*
X102666666Y-138404761D01*
X102761904Y-138309523D01*
X102809523Y-138119047D01*
X102809523Y-137785714D01*
X102761904Y-137595238D01*
X102666666Y-137500000D01*
X102571428Y-137452380D01*
X102380952Y-137452380D01*
X102285714Y-137500000D01*
X102190476Y-137595238D01*
X102142857Y-137785714D01*
X102142857Y-138119047D01*
X102190476Y-138309523D01*
X102285714Y-138404761D01*
X102380952Y-138452380D01*
X102571428Y-138452380D01*
X101571428Y-137880952D02*
X101666666Y-137833333D01*
X101714285Y-137785714D01*
X101761904Y-137690476D01*
X101761904Y-137642857D01*
X101714285Y-137547619D01*
X101666666Y-137500000D01*
X101571428Y-137452380D01*
X101380952Y-137452380D01*
X101285714Y-137500000D01*
X101238095Y-137547619D01*
X101190476Y-137642857D01*
X101190476Y-137690476D01*
X101238095Y-137785714D01*
X101285714Y-137833333D01*
X101380952Y-137880952D01*
X101571428Y-137880952D01*
X101666666Y-137928571D01*
X101714285Y-137976190D01*
X101761904Y-138071428D01*
X101761904Y-138261904D01*
X101714285Y-138357142D01*
X101666666Y-138404761D01*
X101571428Y-138452380D01*
X101380952Y-138452380D01*
X101285714Y-138404761D01*
X101238095Y-138357142D01*
X101190476Y-138261904D01*
X101190476Y-138071428D01*
X101238095Y-137976190D01*
X101285714Y-137928571D01*
X101380952Y-137880952D01*
X108595238Y-138547619D02*
X108690476Y-138500000D01*
X108785714Y-138404761D01*
X108928571Y-138261904D01*
X109023809Y-138214285D01*
X109119047Y-138214285D01*
X109071428Y-138452380D02*
X109166666Y-138404761D01*
X109261904Y-138309523D01*
X109309523Y-138119047D01*
X109309523Y-137785714D01*
X109261904Y-137595238D01*
X109166666Y-137500000D01*
X109071428Y-137452380D01*
X108880952Y-137452380D01*
X108785714Y-137500000D01*
X108690476Y-137595238D01*
X108642857Y-137785714D01*
X108642857Y-138119047D01*
X108690476Y-138309523D01*
X108785714Y-138404761D01*
X108880952Y-138452380D01*
X109071428Y-138452380D01*
X107785714Y-137452380D02*
X107976190Y-137452380D01*
X108071428Y-137500000D01*
X108119047Y-137547619D01*
X108214285Y-137690476D01*
X108261904Y-137880952D01*
X108261904Y-138261904D01*
X108214285Y-138357142D01*
X108166666Y-138404761D01*
X108071428Y-138452380D01*
X107880952Y-138452380D01*
X107785714Y-138404761D01*
X107738095Y-138357142D01*
X107690476Y-138261904D01*
X107690476Y-138023809D01*
X107738095Y-137928571D01*
X107785714Y-137880952D01*
X107880952Y-137833333D01*
X108071428Y-137833333D01*
X108166666Y-137880952D01*
X108214285Y-137928571D01*
X108261904Y-138023809D01*
X109142857Y-146452380D02*
X109476190Y-145976190D01*
X109714285Y-146452380D02*
X109714285Y-145452380D01*
X109333333Y-145452380D01*
X109238095Y-145500000D01*
X109190476Y-145547619D01*
X109142857Y-145642857D01*
X109142857Y-145785714D01*
X109190476Y-145880952D01*
X109238095Y-145928571D01*
X109333333Y-145976190D01*
X109714285Y-145976190D01*
X108761904Y-145547619D02*
X108714285Y-145500000D01*
X108619047Y-145452380D01*
X108380952Y-145452380D01*
X108285714Y-145500000D01*
X108238095Y-145547619D01*
X108190476Y-145642857D01*
X108190476Y-145738095D01*
X108238095Y-145880952D01*
X108809523Y-146452380D01*
X108190476Y-146452380D01*
X107857142Y-145452380D02*
X107238095Y-145452380D01*
X107571428Y-145833333D01*
X107428571Y-145833333D01*
X107333333Y-145880952D01*
X107285714Y-145928571D01*
X107238095Y-146023809D01*
X107238095Y-146261904D01*
X107285714Y-146357142D01*
X107333333Y-146404761D01*
X107428571Y-146452380D01*
X107714285Y-146452380D01*
X107809523Y-146404761D01*
X107857142Y-146357142D01*
X95595238Y-138547619D02*
X95690476Y-138500000D01*
X95785714Y-138404761D01*
X95928571Y-138261904D01*
X96023809Y-138214285D01*
X96119047Y-138214285D01*
X96071428Y-138452380D02*
X96166666Y-138404761D01*
X96261904Y-138309523D01*
X96309523Y-138119047D01*
X96309523Y-137785714D01*
X96261904Y-137595238D01*
X96166666Y-137500000D01*
X96071428Y-137452380D01*
X95880952Y-137452380D01*
X95785714Y-137500000D01*
X95690476Y-137595238D01*
X95642857Y-137785714D01*
X95642857Y-138119047D01*
X95690476Y-138309523D01*
X95785714Y-138404761D01*
X95880952Y-138452380D01*
X96071428Y-138452380D01*
X95309523Y-137452380D02*
X94642857Y-137452380D01*
X95071428Y-138452380D01*
D12*
X225200000Y-117500000D02*
G75*
G03*
X225900000Y-116800000I1J699999D01*
G01*
X225900000Y-116200000D02*
G75*
G03*
X225200000Y-115500000I-699999J1D01*
G01*
X223100000Y-116800000D02*
G75*
G03*
X223800000Y-117500000I700000J0D01*
G01*
X223800000Y-115500000D02*
G75*
G03*
X223100000Y-116200000I0J-700000D01*
G01*
X223800000Y-117500000D02*
X225200000Y-117500000D01*
X223100000Y-116200000D02*
X223100000Y-116800000D01*
X225900000Y-116800000D02*
X225900000Y-116200000D01*
X225200000Y-115500000D02*
X223800000Y-115500000D01*
X225500000Y-145175000D02*
G75*
G03*
X226200000Y-145875000I700000J0D01*
G01*
X226200000Y-143075000D02*
G75*
G03*
X225500000Y-143775000I-1J-699999D01*
G01*
X226800000Y-145875000D02*
G75*
G03*
X227500000Y-145175000I0J700000D01*
G01*
X227500000Y-143775000D02*
G75*
G03*
X226800000Y-143075000I-699999J1D01*
G01*
X226800000Y-143075000D02*
X226200000Y-143075000D01*
X226200000Y-145875000D02*
X226800000Y-145875000D01*
X225500000Y-143775000D02*
X225500000Y-145175000D01*
X227500000Y-145175000D02*
X227500000Y-143775000D01*
X140265000Y-130361252D02*
X140265000Y-129838748D01*
X141735000Y-130361252D02*
X141735000Y-129838748D01*
X114227064Y-135265000D02*
X113772936Y-135265000D01*
X114227064Y-136735000D02*
X113772936Y-136735000D01*
X107727064Y-136735000D02*
X107272936Y-136735000D01*
X107727064Y-135265000D02*
X107272936Y-135265000D01*
X101227064Y-135265000D02*
X100772936Y-135265000D01*
X101227064Y-136735000D02*
X100772936Y-136735000D01*
X94272936Y-136735000D02*
X94727064Y-136735000D01*
X94272936Y-135265000D02*
X94727064Y-135265000D01*
X143735000Y-130361252D02*
X143735000Y-129838748D01*
X142265000Y-130361252D02*
X142265000Y-129838748D01*
X132772936Y-106735000D02*
X133227064Y-106735000D01*
X132772936Y-105265000D02*
X133227064Y-105265000D01*
X95272936Y-143265000D02*
X95727064Y-143265000D01*
X95272936Y-144735000D02*
X95727064Y-144735000D01*
X115227064Y-143265000D02*
X114772936Y-143265000D01*
X115227064Y-144735000D02*
X114772936Y-144735000D01*
X135227064Y-103265000D02*
X134772936Y-103265000D01*
X135227064Y-104735000D02*
X134772936Y-104735000D01*
X155227064Y-104735000D02*
X154772936Y-104735000D01*
X155227064Y-103265000D02*
X154772936Y-103265000D01*
X104265000Y-142772936D02*
X104265000Y-143227064D01*
X105735000Y-142772936D02*
X105735000Y-143227064D01*
X112235000Y-142772936D02*
X112235000Y-143227064D01*
X110765000Y-142772936D02*
X110765000Y-143227064D01*
X118735000Y-142772936D02*
X118735000Y-143227064D01*
X117265000Y-142772936D02*
X117265000Y-143227064D01*
X98100000Y-110200000D02*
X96700000Y-110200000D01*
X96700000Y-112200000D02*
X98100000Y-112200000D01*
X96000000Y-110900000D02*
X96000000Y-111500000D01*
X98800000Y-111500000D02*
X98800000Y-110900000D01*
X98100000Y-112200000D02*
G75*
G03*
X98800000Y-111500000I0J700000D01*
G01*
X98800000Y-110900000D02*
G75*
G03*
X98100000Y-110200000I-700000J0D01*
G01*
X96000000Y-111500000D02*
G75*
G03*
X96700000Y-112200000I699999J-1D01*
G01*
X96700000Y-110200000D02*
G75*
G03*
X96000000Y-110900000I-1J-699999D01*
G01*
X149440000Y-103000000D02*
X149440000Y-102350000D01*
X149440000Y-103000000D02*
X149440000Y-103650000D01*
X152560000Y-103000000D02*
X152560000Y-102350000D01*
X152560000Y-103000000D02*
X152560000Y-104675000D01*
X138400000Y-81300000D02*
X138400000Y-80700000D01*
X135600000Y-80700000D02*
X135600000Y-81300000D01*
X137700000Y-80000000D02*
X136300000Y-80000000D01*
X136300000Y-82000000D02*
X137700000Y-82000000D01*
X136300000Y-80000000D02*
G75*
G03*
X135600000Y-80700000I0J-700000D01*
G01*
X137700000Y-82000000D02*
G75*
G03*
X138400000Y-81300000I1J699999D01*
G01*
X138400000Y-80700000D02*
G75*
G03*
X137700000Y-80000000I-699999J1D01*
G01*
X135600000Y-81300000D02*
G75*
G03*
X136300000Y-82000000I700000J0D01*
G01*
X102227064Y-143265000D02*
X101772936Y-143265000D01*
X102227064Y-144735000D02*
X101772936Y-144735000D01*
X97765000Y-143227064D02*
X97765000Y-142772936D01*
X99235000Y-143227064D02*
X99235000Y-142772936D01*
X116560000Y-141000000D02*
X116560000Y-142675000D01*
X113440000Y-141000000D02*
X113440000Y-141650000D01*
X113440000Y-141000000D02*
X113440000Y-140350000D01*
X116560000Y-141000000D02*
X116560000Y-140350000D01*
X152772936Y-105265000D02*
X153227064Y-105265000D01*
X152772936Y-106735000D02*
X153227064Y-106735000D01*
X120300000Y-107000000D02*
X121700000Y-107000000D01*
X119600000Y-105700000D02*
X119600000Y-106300000D01*
X122400000Y-106300000D02*
X122400000Y-105700000D01*
X121700000Y-105000000D02*
X120300000Y-105000000D01*
X122400000Y-105700000D02*
G75*
G03*
X121700000Y-105000000I-699999J1D01*
G01*
X121700000Y-107000000D02*
G75*
G03*
X122400000Y-106300000I1J699999D01*
G01*
X119600000Y-106300000D02*
G75*
G03*
X120300000Y-107000000I700000J0D01*
G01*
X120300000Y-105000000D02*
G75*
G03*
X119600000Y-105700000I0J-700000D01*
G01*
X129440000Y-103000000D02*
X129440000Y-103650000D01*
X132560000Y-103000000D02*
X132560000Y-104675000D01*
X132560000Y-103000000D02*
X132560000Y-102350000D01*
X129440000Y-103000000D02*
X129440000Y-102350000D01*
X100440000Y-141000000D02*
X100440000Y-141650000D01*
X103560000Y-141000000D02*
X103560000Y-140350000D01*
X100440000Y-141000000D02*
X100440000Y-140350000D01*
X103560000Y-141000000D02*
X103560000Y-142675000D01*
X136300000Y-79500000D02*
X137700000Y-79500000D01*
X135600000Y-78200000D02*
X135600000Y-78800000D01*
X138400000Y-78800000D02*
X138400000Y-78200000D01*
X137700000Y-77500000D02*
X136300000Y-77500000D01*
X138400000Y-78200000D02*
G75*
G03*
X137700000Y-77500000I-699999J1D01*
G01*
X135600000Y-78800000D02*
G75*
G03*
X136300000Y-79500000I700000J0D01*
G01*
X137700000Y-79500000D02*
G75*
G03*
X138400000Y-78800000I1J699999D01*
G01*
X136300000Y-77500000D02*
G75*
G03*
X135600000Y-78200000I0J-700000D01*
G01*
X110060000Y-141000000D02*
X110060000Y-142675000D01*
X106940000Y-141000000D02*
X106940000Y-141650000D01*
X110060000Y-141000000D02*
X110060000Y-140350000D01*
X106940000Y-141000000D02*
X106940000Y-140350000D01*
X108727064Y-143265000D02*
X108272936Y-143265000D01*
X108727064Y-144735000D02*
X108272936Y-144735000D01*
X93940000Y-141000000D02*
X93940000Y-140350000D01*
X93940000Y-141000000D02*
X93940000Y-141650000D01*
X97060000Y-141000000D02*
X97060000Y-140350000D01*
X97060000Y-141000000D02*
X97060000Y-142675000D01*
%LPC*%
D13*
X223850000Y-116500000D03*
D14*
X225150000Y-116500000D03*
D15*
X226500000Y-145125000D03*
D16*
X226500000Y-143825000D03*
D17*
X221000000Y-106300000D03*
X221000000Y-108840000D03*
X221000000Y-111380000D03*
X221000000Y-113920000D03*
X221000000Y-116460000D03*
D18*
X221000000Y-119000000D03*
D17*
X248500000Y-143420000D03*
X248500000Y-145960000D03*
D18*
X248500000Y-148500000D03*
D19*
X285750000Y-145000000D03*
X285750000Y-142500000D03*
X285750000Y-147500000D03*
X283250000Y-147500000D03*
X283250000Y-142500000D03*
D20*
X284500000Y-150450000D03*
X284500000Y-139550000D03*
D21*
X255930588Y-147000000D03*
D22*
X251620000Y-65460000D03*
X251620000Y-68000000D03*
X249080000Y-65460000D03*
X249080000Y-68000000D03*
X246540000Y-65460000D03*
X246540000Y-68000000D03*
X244000000Y-65460000D03*
X244000000Y-68000000D03*
X241460000Y-65460000D03*
X241460000Y-68000000D03*
X238920000Y-65460000D03*
X238920000Y-68000000D03*
X236380000Y-65460000D03*
D23*
X236380000Y-68000000D03*
D22*
X275160000Y-65460000D03*
X275160000Y-68000000D03*
X272620000Y-65460000D03*
X272620000Y-68000000D03*
X270080000Y-65460000D03*
X270080000Y-68000000D03*
X267540000Y-65460000D03*
X267540000Y-68000000D03*
X265000000Y-65460000D03*
D23*
X265000000Y-68000000D03*
D24*
X102200000Y-67000000D03*
D25*
X96200000Y-67000000D03*
D26*
X99200000Y-71700000D03*
D27*
X149000000Y-63000000D03*
D22*
X149000000Y-65540000D03*
X149000000Y-70620000D03*
X149000000Y-73160000D03*
X149000000Y-75700000D03*
D28*
X113000000Y-106000000D03*
X113000000Y-103460000D03*
X113000000Y-100920000D03*
X113000000Y-98380000D03*
X113000000Y-95840000D03*
X113000000Y-93300000D03*
D29*
X130000000Y-146100000D03*
D30*
X135000000Y-146100000D03*
D23*
X99380000Y-150752500D03*
D22*
X99380000Y-148212500D03*
X101920000Y-150752500D03*
X101920000Y-148212500D03*
X104460000Y-150752500D03*
X104460000Y-148212500D03*
X107000000Y-150752500D03*
X107000000Y-148212500D03*
X109540000Y-150752500D03*
X109540000Y-148212500D03*
X112080000Y-150752500D03*
X112080000Y-148212500D03*
X114620000Y-150752500D03*
X114620000Y-148212500D03*
D31*
X159000000Y-98000000D03*
D32*
X159000000Y-92920000D03*
X159000000Y-90380000D03*
X159000000Y-87840000D03*
X153920000Y-87840000D03*
X153920000Y-90380000D03*
X153920000Y-92920000D03*
X153920000Y-98000000D03*
D31*
X139000000Y-98000000D03*
D32*
X139000000Y-92920000D03*
X139000000Y-90380000D03*
X139000000Y-87840000D03*
X133920000Y-87840000D03*
X133920000Y-90380000D03*
X133920000Y-92920000D03*
X133920000Y-98000000D03*
D33*
X200900000Y-104400000D03*
X203400000Y-114400000D03*
X205900000Y-104400000D03*
X180425000Y-104400000D03*
X182925000Y-114400000D03*
X185425000Y-104400000D03*
D27*
X136000000Y-63000000D03*
D22*
X136000000Y-65540000D03*
X136000000Y-70620000D03*
X136000000Y-73160000D03*
X136000000Y-75700000D03*
D27*
X188900000Y-88600000D03*
D34*
X186360000Y-88600000D03*
X183820000Y-88600000D03*
X181280000Y-88600000D03*
X181280000Y-96220000D03*
X183820000Y-96220000D03*
X186360000Y-96220000D03*
X188900000Y-96220000D03*
D29*
X114000000Y-82000000D03*
D30*
X109000000Y-82000000D03*
D27*
X204520000Y-88600000D03*
D34*
X201980000Y-88600000D03*
X199440000Y-88600000D03*
X196900000Y-88600000D03*
X196900000Y-96220000D03*
X199440000Y-96220000D03*
X201980000Y-96220000D03*
X204520000Y-96220000D03*
D18*
X157000000Y-67475000D03*
D17*
X157000000Y-70015000D03*
X157000000Y-72555000D03*
D35*
X166600000Y-124100000D03*
X166600000Y-129100000D03*
D36*
X187600000Y-123600000D03*
D37*
X187600000Y-128600000D03*
X187600000Y-133600000D03*
X187600000Y-138600000D03*
D29*
X172600000Y-139000000D03*
D30*
X177600000Y-139000000D03*
D35*
X166600000Y-132900000D03*
X166600000Y-137900000D03*
D29*
X172600000Y-124100000D03*
D30*
X177600000Y-124100000D03*
D29*
X130000000Y-116100000D03*
D30*
X135000000Y-116100000D03*
D31*
X129000000Y-98180000D03*
D32*
X129000000Y-92920000D03*
X129000000Y-90380000D03*
X129000000Y-87840000D03*
X123920000Y-87840000D03*
X123920000Y-90380000D03*
X123920000Y-92920000D03*
X123920000Y-98000000D03*
D18*
X162000000Y-67475000D03*
D17*
X162000000Y-70015000D03*
X162000000Y-72555000D03*
D31*
X149000000Y-98000000D03*
D32*
X149000000Y-92920000D03*
X149000000Y-90380000D03*
X149000000Y-87840000D03*
X143920000Y-87840000D03*
X143920000Y-90380000D03*
X143920000Y-92920000D03*
X143920000Y-98000000D03*
D21*
X179500000Y-70050000D03*
X166500000Y-147950000D03*
D38*
X97250000Y-84000000D03*
D35*
X100300000Y-89500000D03*
D34*
X113000000Y-89500000D03*
D21*
X166500000Y-90000000D03*
D38*
X179000000Y-79500000D03*
D21*
X122500000Y-70050000D03*
D39*
X141000000Y-131137500D03*
X141000000Y-129062500D03*
D40*
X115000000Y-136000000D03*
X113000000Y-136000000D03*
X108500000Y-136000000D03*
X106500000Y-136000000D03*
X102000000Y-136000000D03*
X100000000Y-136000000D03*
D41*
X93500000Y-136000000D03*
X95500000Y-136000000D03*
D39*
X143000000Y-131137500D03*
X143000000Y-129062500D03*
D41*
X132000000Y-106000000D03*
X134000000Y-106000000D03*
X94500000Y-144000000D03*
X96500000Y-144000000D03*
D40*
X116000000Y-144000000D03*
X114000000Y-144000000D03*
X136000000Y-104000000D03*
X134000000Y-104000000D03*
X156000000Y-104000000D03*
X154000000Y-104000000D03*
D42*
X105000000Y-142000000D03*
X105000000Y-144000000D03*
X111500000Y-142000000D03*
X111500000Y-144000000D03*
X118000000Y-142000000D03*
X118000000Y-144000000D03*
D43*
X96750000Y-111200000D03*
D44*
X98050000Y-111200000D03*
D45*
X151950000Y-103937500D03*
X150050000Y-103937500D03*
X151000000Y-102062500D03*
D14*
X137650000Y-81000000D03*
D13*
X136350000Y-81000000D03*
D40*
X103000000Y-144000000D03*
X101000000Y-144000000D03*
D46*
X98500000Y-144000000D03*
X98500000Y-142000000D03*
D45*
X115950000Y-141937500D03*
X114050000Y-141937500D03*
X115000000Y-140062500D03*
D41*
X152000000Y-106000000D03*
X154000000Y-106000000D03*
D14*
X121650000Y-106000000D03*
D13*
X120350000Y-106000000D03*
D45*
X131950000Y-103937500D03*
X130050000Y-103937500D03*
X131000000Y-102062500D03*
X102950000Y-141937500D03*
X101050000Y-141937500D03*
X102000000Y-140062500D03*
D14*
X137650000Y-78500000D03*
D13*
X136350000Y-78500000D03*
D45*
X109450000Y-141937500D03*
X107550000Y-141937500D03*
X108500000Y-140062500D03*
D40*
X109500000Y-144000000D03*
X107500000Y-144000000D03*
D45*
X96450000Y-141937500D03*
X94550000Y-141937500D03*
X95500000Y-140062500D03*
M02*
