G04 #@! TF.GenerationSoftware,KiCad,Pcbnew,6.0.4-1.fc35*
G04 #@! TF.CreationDate,2022-04-14T23:25:07+02:00*
G04 #@! TF.ProjectId,office_amp,6f666669-6365-45f6-916d-702e6b696361,rev?*
G04 #@! TF.SameCoordinates,Original*
G04 #@! TF.FileFunction,Profile,NP*
%FSLAX46Y46*%
G04 Gerber Fmt 4.6, Leading zero omitted, Abs format (unit mm)*
G04 Created by KiCad (PCBNEW 6.0.4-1.fc35) date 2022-04-14 23:25:07*
%MOMM*%
%LPD*%
G01*
G04 APERTURE LIST*
G04 #@! TA.AperFunction,Profile*
%ADD10C,0.100000*%
G04 #@! TD*
G04 APERTURE END LIST*
D10*
X212000000Y-149000000D02*
X212000000Y-129000000D01*
X210000000Y-149000000D02*
X212000000Y-149000000D01*
X210000000Y-67000000D02*
X210000000Y-149000000D01*
X210000000Y-67000000D02*
X212000000Y-67000000D01*
X212000000Y-71000000D02*
X212000000Y-79000000D01*
X214000000Y-71000000D02*
G75*
G03*
X214000000Y-67000000I0J2000000D01*
G01*
X212000000Y-125000000D02*
X214000000Y-125000000D01*
X290000000Y-158000000D02*
X212000000Y-158000000D01*
X214000000Y-129000000D02*
G75*
G03*
X214000000Y-125000000I0J2000000D01*
G01*
X214000000Y-71000000D02*
X212000000Y-71000000D01*
X214000000Y-67000000D02*
X212000000Y-67000000D01*
X217750000Y-79000000D02*
X217750000Y-97000000D01*
X212000000Y-79000000D02*
X217750000Y-79000000D01*
X212000000Y-58000000D02*
X290000000Y-58000000D01*
X212000000Y-97000000D02*
X212000000Y-125000000D01*
X214000000Y-129000000D02*
X212000000Y-129000000D01*
X217750000Y-97000000D02*
X212000000Y-97000000D01*
X290000000Y-58000000D02*
X290000000Y-158000000D01*
X90000000Y-58000000D02*
X212000000Y-58000000D01*
X212000000Y-158000000D02*
X90000000Y-158000000D01*
X90000000Y-158000000D02*
X90000000Y-58000000D01*
M02*
