G04 #@! TF.GenerationSoftware,KiCad,Pcbnew,6.0.6-2.fc36*
G04 #@! TF.CreationDate,2022-07-19T13:12:57+02:00*
G04 #@! TF.ProjectId,touch-testcontroller-testboard,746f7563-682d-4746-9573-74636f6e7472,rev?*
G04 #@! TF.SameCoordinates,Original*
G04 #@! TF.FileFunction,Copper,L1,Top*
G04 #@! TF.FilePolarity,Positive*
%FSLAX46Y46*%
G04 Gerber Fmt 4.6, Leading zero omitted, Abs format (unit mm)*
G04 Created by KiCad (PCBNEW 6.0.6-2.fc36) date 2022-07-19 13:12:57*
%MOMM*%
%LPD*%
G01*
G04 APERTURE LIST*
G04 Aperture macros list*
%AMRoundRect*
0 Rectangle with rounded corners*
0 $1 Rounding radius*
0 $2 $3 $4 $5 $6 $7 $8 $9 X,Y pos of 4 corners*
0 Add a 4 corners polygon primitive as box body*
4,1,4,$2,$3,$4,$5,$6,$7,$8,$9,$2,$3,0*
0 Add four circle primitives for the rounded corners*
1,1,$1+$1,$2,$3*
1,1,$1+$1,$4,$5*
1,1,$1+$1,$6,$7*
1,1,$1+$1,$8,$9*
0 Add four rect primitives between the rounded corners*
20,1,$1+$1,$2,$3,$4,$5,0*
20,1,$1+$1,$4,$5,$6,$7,0*
20,1,$1+$1,$6,$7,$8,$9,0*
20,1,$1+$1,$8,$9,$2,$3,0*%
G04 Aperture macros list end*
G04 #@! TA.AperFunction,SMDPad,CuDef*
%ADD10RoundRect,0.150000X0.875000X0.150000X-0.875000X0.150000X-0.875000X-0.150000X0.875000X-0.150000X0*%
G04 #@! TD*
G04 #@! TA.AperFunction,SMDPad,CuDef*
%ADD11RoundRect,0.250000X0.350000X0.450000X-0.350000X0.450000X-0.350000X-0.450000X0.350000X-0.450000X0*%
G04 #@! TD*
G04 #@! TA.AperFunction,SMDPad,CuDef*
%ADD12RoundRect,0.250000X-0.450000X0.350000X-0.450000X-0.350000X0.450000X-0.350000X0.450000X0.350000X0*%
G04 #@! TD*
G04 #@! TA.AperFunction,SMDPad,CuDef*
%ADD13RoundRect,0.250000X0.450000X-0.350000X0.450000X0.350000X-0.450000X0.350000X-0.450000X-0.350000X0*%
G04 #@! TD*
G04 #@! TA.AperFunction,ComponentPad*
%ADD14RoundRect,0.250000X-0.600000X-0.600000X0.600000X-0.600000X0.600000X0.600000X-0.600000X0.600000X0*%
G04 #@! TD*
G04 #@! TA.AperFunction,ComponentPad*
%ADD15C,1.700000*%
G04 #@! TD*
G04 #@! TA.AperFunction,ComponentPad*
%ADD16R,1.200000X1.200000*%
G04 #@! TD*
G04 #@! TA.AperFunction,ComponentPad*
%ADD17C,1.200000*%
G04 #@! TD*
G04 #@! TA.AperFunction,ViaPad*
%ADD18C,1.500000*%
G04 #@! TD*
G04 #@! TA.AperFunction,Conductor*
%ADD19C,0.500000*%
G04 #@! TD*
%ADD20C,0.350000*%
G04 APERTURE END LIST*
D10*
G04 #@! TO.P,U1,1,KEY8/GPO6*
G04 #@! TO.N,unconnected-(U1-Pad1)*
X84550000Y-79515000D03*
G04 #@! TO.P,U1,2,KEY7/GPO5*
G04 #@! TO.N,unconnected-(U1-Pad2)*
X84550000Y-78245000D03*
G04 #@! TO.P,U1,3,KEY6/GPO4*
G04 #@! TO.N,unconnected-(U1-Pad3)*
X84550000Y-76975000D03*
G04 #@! TO.P,U1,4,KEY5/GPO3*
G04 #@! TO.N,unconnected-(U1-Pad4)*
X84550000Y-75705000D03*
G04 #@! TO.P,U1,5,KEY4/GPO2*
G04 #@! TO.N,unconnected-(U1-Pad5)*
X84550000Y-74435000D03*
G04 #@! TO.P,U1,6,KEY3/GPO1*
G04 #@! TO.N,/TOUCH-KEY-4-BT*
X84550000Y-73165000D03*
G04 #@! TO.P,U1,7,KEY2/GPO0*
G04 #@! TO.N,/TOUCH-KEY2-ANALOG-INT*
X84550000Y-71895000D03*
G04 #@! TO.P,U1,8,KEY1*
G04 #@! TO.N,/TOUCH-KEY-1-ANALOG-EXT*
X84550000Y-70625000D03*
G04 #@! TO.P,U1,9,KEY0*
G04 #@! TO.N,/TOUCH-KEY-0-POWER*
X84550000Y-69355000D03*
G04 #@! TO.P,U1,10,VSS*
G04 #@! TO.N,GNDD*
X84550000Y-68085000D03*
G04 #@! TO.P,U1,11,VDD*
G04 #@! TO.N,+3V3*
X75250000Y-68085000D03*
G04 #@! TO.P,U1,12,MODE*
G04 #@! TO.N,GNDD*
X75250000Y-69355000D03*
G04 #@! TO.P,U1,13,SDA*
G04 #@! TO.N,SDA*
X75250000Y-70625000D03*
G04 #@! TO.P,U1,14,~{RESET}*
G04 #@! TO.N,+3V3*
X75250000Y-71895000D03*
G04 #@! TO.P,U1,15,N/C*
G04 #@! TO.N,unconnected-(U1-Pad15)*
X75250000Y-73165000D03*
G04 #@! TO.P,U1,16,SCL*
G04 #@! TO.N,SCL*
X75250000Y-74435000D03*
G04 #@! TO.P,U1,17,~{CHANGE}*
G04 #@! TO.N,~{TOUCH-INT}*
X75250000Y-75705000D03*
G04 #@! TO.P,U1,18,KEY11/GPO9*
G04 #@! TO.N,unconnected-(U1-Pad18)*
X75250000Y-76975000D03*
G04 #@! TO.P,U1,19,KEY10/GPO8*
G04 #@! TO.N,unconnected-(U1-Pad19)*
X75250000Y-78245000D03*
G04 #@! TO.P,U1,20,KEY9/GPO7*
G04 #@! TO.N,unconnected-(U1-Pad20)*
X75250000Y-79515000D03*
G04 #@! TD*
D11*
G04 #@! TO.P,R6,1*
G04 #@! TO.N,TOUCH-KEY-BT*
X91510000Y-75380000D03*
G04 #@! TO.P,R6,2*
G04 #@! TO.N,/TOUCH-KEY-4-BT*
X89510000Y-75380000D03*
G04 #@! TD*
G04 #@! TO.P,R5,1*
G04 #@! TO.N,TOUCH-KEY-ANALOG-INT*
X91510000Y-73350000D03*
G04 #@! TO.P,R5,2*
G04 #@! TO.N,/TOUCH-KEY2-ANALOG-INT*
X89510000Y-73350000D03*
G04 #@! TD*
G04 #@! TO.P,R4,2*
G04 #@! TO.N,/TOUCH-KEY-1-ANALOG-EXT*
X89500000Y-71350000D03*
G04 #@! TO.P,R4,1*
G04 #@! TO.N,TOUCH-KEY-ANALOG-EXT*
X91500000Y-71350000D03*
G04 #@! TD*
G04 #@! TO.P,R3,1*
G04 #@! TO.N,TOUCH-KEY-POWER*
X91500000Y-69350000D03*
G04 #@! TO.P,R3,2*
G04 #@! TO.N,/TOUCH-KEY-0-POWER*
X89500000Y-69350000D03*
G04 #@! TD*
D12*
G04 #@! TO.P,R2,1*
G04 #@! TO.N,/~{TOUCH-INT}-PULL-UP*
X71400000Y-77600000D03*
G04 #@! TO.P,R2,2*
G04 #@! TO.N,~{TOUCH-INT}*
X71400000Y-79600000D03*
G04 #@! TD*
D13*
G04 #@! TO.P,R1,1*
G04 #@! TO.N,+3V3*
X69450000Y-79600000D03*
G04 #@! TO.P,R1,2*
G04 #@! TO.N,/~{TOUCH-INT}-PULL-UP*
X69450000Y-77600000D03*
G04 #@! TD*
D14*
G04 #@! TO.P,J2,1,Pin_1*
G04 #@! TO.N,LED-BT*
X100247500Y-64000000D03*
D15*
G04 #@! TO.P,J2,2,Pin_2*
G04 #@! TO.N,TOUCH-KEY-POWER*
X102787500Y-64000000D03*
G04 #@! TO.P,J2,3,Pin_3*
G04 #@! TO.N,LED-ANALOG-EXT*
X100247500Y-66540000D03*
G04 #@! TO.P,J2,4,Pin_4*
G04 #@! TO.N,TOUCH-KEY-ANALOG-EXT*
X102787500Y-66540000D03*
G04 #@! TO.P,J2,5,Pin_5*
G04 #@! TO.N,LED-ANALOG-INT*
X100247500Y-69080000D03*
G04 #@! TO.P,J2,6,Pin_6*
G04 #@! TO.N,TOUCH-KEY-ANALOG-INT*
X102787500Y-69080000D03*
G04 #@! TO.P,J2,7,Pin_7*
G04 #@! TO.N,unconnected-(J2-Pad7)*
X100247500Y-71620000D03*
G04 #@! TO.P,J2,8,Pin_8*
G04 #@! TO.N,TOUCH-KEY-BT*
X102787500Y-71620000D03*
G04 #@! TO.P,J2,9,Pin_9*
G04 #@! TO.N,+3V3*
X100247500Y-74160000D03*
G04 #@! TO.P,J2,10,Pin_10*
G04 #@! TO.N,GNDD*
X102787500Y-74160000D03*
G04 #@! TD*
D14*
G04 #@! TO.P,J1,1,Pin_1*
G04 #@! TO.N,+5V*
X60700000Y-64000000D03*
D15*
G04 #@! TO.P,J1,2,Pin_2*
G04 #@! TO.N,GNDD*
X63240000Y-64000000D03*
G04 #@! TO.P,J1,3,Pin_3*
G04 #@! TO.N,unconnected-(J1-Pad3)*
X60700000Y-66540000D03*
G04 #@! TO.P,J1,4,Pin_4*
G04 #@! TO.N,unconnected-(J1-Pad4)*
X63240000Y-66540000D03*
G04 #@! TO.P,J1,5,Pin_5*
G04 #@! TO.N,unconnected-(J1-Pad5)*
X60700000Y-69080000D03*
G04 #@! TO.P,J1,6,Pin_6*
G04 #@! TO.N,unconnected-(J1-Pad6)*
X63240000Y-69080000D03*
G04 #@! TO.P,J1,7,Pin_7*
G04 #@! TO.N,unconnected-(J1-Pad7)*
X60700000Y-71620000D03*
G04 #@! TO.P,J1,8,Pin_8*
G04 #@! TO.N,unconnected-(J1-Pad8)*
X63240000Y-71620000D03*
G04 #@! TO.P,J1,9,Pin_9*
G04 #@! TO.N,unconnected-(J1-Pad9)*
X60700000Y-74160000D03*
G04 #@! TO.P,J1,10,Pin_10*
G04 #@! TO.N,SDA*
X63240000Y-74160000D03*
G04 #@! TO.P,J1,11,Pin_11*
G04 #@! TO.N,unconnected-(J1-Pad11)*
X60700000Y-76700000D03*
G04 #@! TO.P,J1,12,Pin_12*
G04 #@! TO.N,SCL*
X63240000Y-76700000D03*
G04 #@! TO.P,J1,13,Pin_13*
G04 #@! TO.N,+3V3*
X60700000Y-79240000D03*
G04 #@! TO.P,J1,14,Pin_14*
G04 #@! TO.N,GNDD*
X63240000Y-79240000D03*
G04 #@! TD*
D16*
G04 #@! TO.P,C1,1*
G04 #@! TO.N,+3V3*
X78927401Y-64400000D03*
D17*
G04 #@! TO.P,C1,2*
G04 #@! TO.N,GNDD*
X80927401Y-64400000D03*
G04 #@! TD*
D18*
G04 #@! TO.N,TOUCH-KEY-BT*
X95600000Y-75400000D03*
G04 #@! TO.N,TOUCH-KEY-ANALOG-INT*
X95700000Y-73300000D03*
G04 #@! TO.N,TOUCH-KEY-ANALOG-EXT*
X95500000Y-71300000D03*
G04 #@! TO.N,TOUCH-KEY-POWER*
X95600000Y-69300000D03*
G04 #@! TO.N,+3V3*
X83100000Y-61500000D03*
G04 #@! TO.N,SDA*
X72999500Y-70000000D03*
G04 #@! TO.N,SCL*
X70100000Y-75000000D03*
G04 #@! TO.N,+3V3*
X69400000Y-83300000D03*
G04 #@! TO.N,GNDD*
X84500000Y-65900000D03*
G04 #@! TO.N,+3V3*
X75300000Y-66000000D03*
G04 #@! TD*
D19*
G04 #@! TO.N,/TOUCH-KEY-4-BT*
X84550000Y-73165000D02*
X86265000Y-73165000D01*
X86265000Y-73165000D02*
X88480000Y-75380000D01*
X88480000Y-75380000D02*
X89510000Y-75380000D01*
G04 #@! TO.N,/TOUCH-KEY2-ANALOG-INT*
X84550000Y-71895000D02*
X86795000Y-71895000D01*
X86795000Y-71895000D02*
X88250000Y-73350000D01*
X88250000Y-73350000D02*
X89510000Y-73350000D01*
G04 #@! TO.N,/TOUCH-KEY-1-ANALOG-EXT*
X84550000Y-70625000D02*
X87525000Y-70625000D01*
X87525000Y-70625000D02*
X88250000Y-71350000D01*
X88250000Y-71350000D02*
X89500000Y-71350000D01*
G04 #@! TO.N,/TOUCH-KEY-0-POWER*
X84550000Y-69355000D02*
X89495000Y-69355000D01*
X89495000Y-69355000D02*
X89500000Y-69350000D01*
G04 #@! TO.N,TOUCH-KEY-BT*
X95600000Y-75400000D02*
X91530000Y-75400000D01*
X91530000Y-75400000D02*
X91510000Y-75380000D01*
G04 #@! TO.N,TOUCH-KEY-ANALOG-INT*
X95700000Y-73300000D02*
X91560000Y-73300000D01*
X91560000Y-73300000D02*
X91510000Y-73350000D01*
G04 #@! TO.N,TOUCH-KEY-ANALOG-EXT*
X91500000Y-71350000D02*
X95450000Y-71350000D01*
X95450000Y-71350000D02*
X95500000Y-71300000D01*
G04 #@! TO.N,TOUCH-KEY-POWER*
X91500000Y-69350000D02*
X95550000Y-69350000D01*
X95550000Y-69350000D02*
X95600000Y-69300000D01*
G04 #@! TO.N,+3V3*
X75300000Y-66000000D02*
X75300000Y-62400000D01*
X75300000Y-62400000D02*
X76200000Y-61500000D01*
X76200000Y-61500000D02*
X83100000Y-61500000D01*
G04 #@! TO.N,SDA*
X73624500Y-70625000D02*
X72999500Y-70000000D01*
X75250000Y-70625000D02*
X73624500Y-70625000D01*
G04 #@! TO.N,+3V3*
X72700000Y-68100000D02*
X71800000Y-69000000D01*
X71800000Y-69000000D02*
X71800000Y-71300000D01*
X71800000Y-71300000D02*
X72395000Y-71895000D01*
X72395000Y-71895000D02*
X75250000Y-71895000D01*
G04 #@! TO.N,SCL*
X70665000Y-74435000D02*
X70100000Y-75000000D01*
X75250000Y-74435000D02*
X70665000Y-74435000D01*
G04 #@! TO.N,~{TOUCH-INT}*
X75250000Y-75705000D02*
X73495000Y-75705000D01*
X73495000Y-75705000D02*
X73000000Y-76200000D01*
X73000000Y-76200000D02*
X73000000Y-79100000D01*
X72500000Y-79600000D02*
X73000000Y-79100000D01*
X71400000Y-79600000D02*
X72500000Y-79600000D01*
G04 #@! TO.N,/~{TOUCH-INT}-PULL-UP*
X69450000Y-77600000D02*
X71400000Y-77600000D01*
G04 #@! TO.N,+3V3*
X69450000Y-79600000D02*
X69450000Y-83250000D01*
X69450000Y-83250000D02*
X69400000Y-83300000D01*
G04 #@! TO.N,GNDD*
X75250000Y-69355000D02*
X76845000Y-69355000D01*
X76845000Y-69355000D02*
X78115000Y-68085000D01*
X78115000Y-68085000D02*
X84550000Y-68085000D01*
X87100000Y-66800000D02*
X87100000Y-67800000D01*
X87100000Y-67800000D02*
X86815000Y-68085000D01*
X84500000Y-65900000D02*
X86200000Y-65900000D01*
X86200000Y-65900000D02*
X87100000Y-66800000D01*
X86815000Y-68085000D02*
X84550000Y-68085000D01*
G04 #@! TO.N,+3V3*
X72700000Y-66600000D02*
X72700000Y-68100000D01*
X75250000Y-68085000D02*
X72715000Y-68085000D01*
X72715000Y-68085000D02*
X72700000Y-68100000D01*
X75300000Y-66000000D02*
X73300000Y-66000000D01*
X73300000Y-66000000D02*
X72700000Y-66600000D01*
G04 #@! TD*
D20*
X95600000Y-75400000D03*
X95700000Y-73300000D03*
X95500000Y-71300000D03*
X95600000Y-69300000D03*
X83100000Y-61500000D03*
X72999500Y-70000000D03*
X70100000Y-75000000D03*
X69400000Y-83300000D03*
X84500000Y-65900000D03*
X75300000Y-66000000D03*
X100247500Y-64000000D03*
X102787500Y-64000000D03*
X100247500Y-66540000D03*
X102787500Y-66540000D03*
X100247500Y-69080000D03*
X102787500Y-69080000D03*
X100247500Y-71620000D03*
X102787500Y-71620000D03*
X100247500Y-74160000D03*
X102787500Y-74160000D03*
X60700000Y-64000000D03*
X63240000Y-64000000D03*
X60700000Y-66540000D03*
X63240000Y-66540000D03*
X60700000Y-69080000D03*
X63240000Y-69080000D03*
X60700000Y-71620000D03*
X63240000Y-71620000D03*
X60700000Y-74160000D03*
X63240000Y-74160000D03*
X60700000Y-76700000D03*
X63240000Y-76700000D03*
X60700000Y-79240000D03*
X63240000Y-79240000D03*
X78927401Y-64400000D03*
X80927401Y-64400000D03*
M02*
