G04 #@! TF.GenerationSoftware,KiCad,Pcbnew,6.0.6-2.fc36*
G04 #@! TF.CreationDate,2022-07-19T13:12:57+02:00*
G04 #@! TF.ProjectId,touch-testcontroller-testboard,746f7563-682d-4746-9573-74636f6e7472,rev?*
G04 #@! TF.SameCoordinates,Original*
G04 #@! TF.FileFunction,Copper,L2,Bot*
G04 #@! TF.FilePolarity,Positive*
%FSLAX46Y46*%
G04 Gerber Fmt 4.6, Leading zero omitted, Abs format (unit mm)*
G04 Created by KiCad (PCBNEW 6.0.6-2.fc36) date 2022-07-19 13:12:57*
%MOMM*%
%LPD*%
G01*
G04 APERTURE LIST*
G04 Aperture macros list*
%AMRoundRect*
0 Rectangle with rounded corners*
0 $1 Rounding radius*
0 $2 $3 $4 $5 $6 $7 $8 $9 X,Y pos of 4 corners*
0 Add a 4 corners polygon primitive as box body*
4,1,4,$2,$3,$4,$5,$6,$7,$8,$9,$2,$3,0*
0 Add four circle primitives for the rounded corners*
1,1,$1+$1,$2,$3*
1,1,$1+$1,$4,$5*
1,1,$1+$1,$6,$7*
1,1,$1+$1,$8,$9*
0 Add four rect primitives between the rounded corners*
20,1,$1+$1,$2,$3,$4,$5,0*
20,1,$1+$1,$4,$5,$6,$7,0*
20,1,$1+$1,$6,$7,$8,$9,0*
20,1,$1+$1,$8,$9,$2,$3,0*%
G04 Aperture macros list end*
G04 #@! TA.AperFunction,ComponentPad*
%ADD10RoundRect,0.250000X-0.600000X-0.600000X0.600000X-0.600000X0.600000X0.600000X-0.600000X0.600000X0*%
G04 #@! TD*
G04 #@! TA.AperFunction,ComponentPad*
%ADD11C,1.700000*%
G04 #@! TD*
G04 #@! TA.AperFunction,ComponentPad*
%ADD12R,1.200000X1.200000*%
G04 #@! TD*
G04 #@! TA.AperFunction,ComponentPad*
%ADD13C,1.200000*%
G04 #@! TD*
G04 #@! TA.AperFunction,ViaPad*
%ADD14C,1.500000*%
G04 #@! TD*
G04 #@! TA.AperFunction,Conductor*
%ADD15C,0.500000*%
G04 #@! TD*
G04 #@! TA.AperFunction,Conductor*
%ADD16C,0.400000*%
G04 #@! TD*
G04 #@! TA.AperFunction,Conductor*
%ADD17C,0.300000*%
G04 #@! TD*
%ADD18C,0.350000*%
G04 APERTURE END LIST*
D10*
G04 #@! TO.P,J2,1,Pin_1*
G04 #@! TO.N,LED-BT*
X100247500Y-64000000D03*
D11*
G04 #@! TO.P,J2,2,Pin_2*
G04 #@! TO.N,TOUCH-KEY-POWER*
X102787500Y-64000000D03*
G04 #@! TO.P,J2,3,Pin_3*
G04 #@! TO.N,LED-ANALOG-EXT*
X100247500Y-66540000D03*
G04 #@! TO.P,J2,4,Pin_4*
G04 #@! TO.N,TOUCH-KEY-ANALOG-EXT*
X102787500Y-66540000D03*
G04 #@! TO.P,J2,5,Pin_5*
G04 #@! TO.N,LED-ANALOG-INT*
X100247500Y-69080000D03*
G04 #@! TO.P,J2,6,Pin_6*
G04 #@! TO.N,TOUCH-KEY-ANALOG-INT*
X102787500Y-69080000D03*
G04 #@! TO.P,J2,7,Pin_7*
G04 #@! TO.N,unconnected-(J2-Pad7)*
X100247500Y-71620000D03*
G04 #@! TO.P,J2,8,Pin_8*
G04 #@! TO.N,TOUCH-KEY-BT*
X102787500Y-71620000D03*
G04 #@! TO.P,J2,9,Pin_9*
G04 #@! TO.N,+3V3*
X100247500Y-74160000D03*
G04 #@! TO.P,J2,10,Pin_10*
G04 #@! TO.N,GNDD*
X102787500Y-74160000D03*
G04 #@! TD*
D10*
G04 #@! TO.P,J1,1,Pin_1*
G04 #@! TO.N,+5V*
X60700000Y-64000000D03*
D11*
G04 #@! TO.P,J1,2,Pin_2*
G04 #@! TO.N,GNDD*
X63240000Y-64000000D03*
G04 #@! TO.P,J1,3,Pin_3*
G04 #@! TO.N,unconnected-(J1-Pad3)*
X60700000Y-66540000D03*
G04 #@! TO.P,J1,4,Pin_4*
G04 #@! TO.N,unconnected-(J1-Pad4)*
X63240000Y-66540000D03*
G04 #@! TO.P,J1,5,Pin_5*
G04 #@! TO.N,unconnected-(J1-Pad5)*
X60700000Y-69080000D03*
G04 #@! TO.P,J1,6,Pin_6*
G04 #@! TO.N,unconnected-(J1-Pad6)*
X63240000Y-69080000D03*
G04 #@! TO.P,J1,7,Pin_7*
G04 #@! TO.N,unconnected-(J1-Pad7)*
X60700000Y-71620000D03*
G04 #@! TO.P,J1,8,Pin_8*
G04 #@! TO.N,unconnected-(J1-Pad8)*
X63240000Y-71620000D03*
G04 #@! TO.P,J1,9,Pin_9*
G04 #@! TO.N,unconnected-(J1-Pad9)*
X60700000Y-74160000D03*
G04 #@! TO.P,J1,10,Pin_10*
G04 #@! TO.N,SDA*
X63240000Y-74160000D03*
G04 #@! TO.P,J1,11,Pin_11*
G04 #@! TO.N,unconnected-(J1-Pad11)*
X60700000Y-76700000D03*
G04 #@! TO.P,J1,12,Pin_12*
G04 #@! TO.N,SCL*
X63240000Y-76700000D03*
G04 #@! TO.P,J1,13,Pin_13*
G04 #@! TO.N,+3V3*
X60700000Y-79240000D03*
G04 #@! TO.P,J1,14,Pin_14*
G04 #@! TO.N,GNDD*
X63240000Y-79240000D03*
G04 #@! TD*
D12*
G04 #@! TO.P,C1,1*
G04 #@! TO.N,+3V3*
X78927401Y-64400000D03*
D13*
G04 #@! TO.P,C1,2*
G04 #@! TO.N,GNDD*
X80927401Y-64400000D03*
G04 #@! TD*
D14*
G04 #@! TO.N,TOUCH-KEY-BT*
X95600000Y-75400000D03*
G04 #@! TO.N,TOUCH-KEY-ANALOG-INT*
X95700000Y-73300000D03*
G04 #@! TO.N,TOUCH-KEY-ANALOG-EXT*
X95500000Y-71300000D03*
G04 #@! TO.N,TOUCH-KEY-POWER*
X95600000Y-69300000D03*
G04 #@! TO.N,+3V3*
X83100000Y-61500000D03*
G04 #@! TO.N,SDA*
X72999500Y-70000000D03*
G04 #@! TO.N,SCL*
X70100000Y-75000000D03*
G04 #@! TO.N,+3V3*
X69400000Y-83300000D03*
G04 #@! TO.N,GNDD*
X84500000Y-65900000D03*
G04 #@! TO.N,+3V3*
X75300000Y-66000000D03*
G04 #@! TD*
D15*
G04 #@! TO.N,GNDD*
X69750000Y-67600000D02*
X79750000Y-67600000D01*
X79750000Y-67600000D02*
X80927401Y-66422599D01*
X80927401Y-66422599D02*
X80927401Y-64400000D01*
X63240000Y-64000000D02*
X66150000Y-64000000D01*
X66150000Y-64000000D02*
X69750000Y-67600000D01*
G04 #@! TO.N,TOUCH-KEY-BT*
X96550000Y-75400000D02*
X95600000Y-75400000D01*
X98450000Y-73500000D02*
X96550000Y-75400000D01*
D16*
X100950000Y-72900000D02*
X99050000Y-72900000D01*
D15*
X101607500Y-72800000D02*
X101507500Y-72900000D01*
X102787500Y-71620000D02*
X101607500Y-72800000D01*
X101507500Y-72900000D02*
X100950000Y-72900000D01*
X99050000Y-72900000D02*
X98450000Y-73500000D01*
D16*
G04 #@! TO.N,TOUCH-KEY-ANALOG-INT*
X101100000Y-70350000D02*
X98790000Y-70350000D01*
X98790000Y-70350000D02*
X98770000Y-70330000D01*
D15*
X101100000Y-70350000D02*
X101517500Y-70350000D01*
X101517500Y-70350000D02*
X102787500Y-69080000D01*
X95800000Y-73300000D02*
X95700000Y-73300000D01*
X98300000Y-70800000D02*
X95800000Y-73300000D01*
X98770000Y-70330000D02*
X98300000Y-70800000D01*
G04 #@! TO.N,TOUCH-KEY-ANALOG-EXT*
X93500000Y-69300000D02*
X95500000Y-71300000D01*
X93500000Y-63300000D02*
X93500000Y-69300000D01*
X102900000Y-61300000D02*
X95500000Y-61300000D01*
X104500000Y-64827500D02*
X104500000Y-62900000D01*
X102787500Y-66540000D02*
X104500000Y-64827500D01*
X104500000Y-62900000D02*
X102900000Y-61300000D01*
X95500000Y-61300000D02*
X93500000Y-63300000D01*
G04 #@! TO.N,TOUCH-KEY-POWER*
X95600000Y-67100000D02*
X95600000Y-69300000D01*
X96500000Y-62200000D02*
X95600000Y-63100000D01*
X102787500Y-62887500D02*
X102100000Y-62200000D01*
X102100000Y-62200000D02*
X96500000Y-62200000D01*
X102787500Y-64000000D02*
X102787500Y-62887500D01*
X95600000Y-63100000D02*
X95600000Y-67100000D01*
G04 #@! TO.N,GNDD*
X83000000Y-64400000D02*
X87300000Y-60100000D01*
X105600000Y-71347500D02*
X102787500Y-74160000D01*
X87300000Y-60100000D02*
X104000000Y-60100000D01*
X104000000Y-60100000D02*
X105600000Y-61700000D01*
X105600000Y-61700000D02*
X105600000Y-71347500D01*
G04 #@! TO.N,+3V3*
X83100000Y-61500000D02*
X85200000Y-59400000D01*
X104500000Y-59400000D02*
X106300000Y-61200000D01*
X85200000Y-59400000D02*
X104500000Y-59400000D01*
X106300000Y-61200000D02*
X106300000Y-74000000D01*
X106300000Y-74000000D02*
X103600000Y-76700000D01*
X103600000Y-76700000D02*
X100800000Y-76700000D01*
X100800000Y-76700000D02*
X100247500Y-76147500D01*
X100247500Y-76147500D02*
X100247500Y-74160000D01*
G04 #@! TO.N,SDA*
X63240000Y-74160000D02*
X68839500Y-74160000D01*
X68839500Y-74160000D02*
X72999500Y-70000000D01*
G04 #@! TO.N,SCL*
X63240000Y-76700000D02*
X68400000Y-76700000D01*
X68400000Y-76700000D02*
X70100000Y-75000000D01*
G04 #@! TO.N,+3V3*
X69400000Y-81500000D02*
X65900000Y-78000000D01*
D17*
X65900000Y-78000000D02*
X61940000Y-78000000D01*
X61940000Y-78000000D02*
X60700000Y-79240000D01*
D15*
X69400000Y-83300000D02*
X69400000Y-81500000D01*
G04 #@! TO.N,GNDD*
X83000000Y-64400000D02*
X84500000Y-65900000D01*
X80927401Y-64400000D02*
X83000000Y-64400000D01*
G04 #@! TO.N,+3V3*
X77600000Y-66000000D02*
X75300000Y-66000000D01*
X78927401Y-64672599D02*
X77600000Y-66000000D01*
X78927401Y-64400000D02*
X78927401Y-64672599D01*
G04 #@! TO.N,GNDD*
X63240000Y-79240000D02*
X63240000Y-80760000D01*
X59200000Y-60400000D02*
X67100000Y-60400000D01*
X63240000Y-80760000D02*
X62600000Y-81400000D01*
X62600000Y-81400000D02*
X59200000Y-81400000D01*
X59200000Y-81400000D02*
X57900000Y-80100000D01*
X79428090Y-62900689D02*
X80927401Y-64400000D01*
X57900000Y-80100000D02*
X57900000Y-61700000D01*
X57900000Y-61700000D02*
X59200000Y-60400000D01*
X72099311Y-62900689D02*
X79428090Y-62900689D01*
X67100000Y-60400000D02*
X69600000Y-62900000D01*
X72098622Y-62900000D02*
X72099311Y-62900689D01*
X69600000Y-62900000D02*
X72098622Y-62900000D01*
G04 #@! TO.N,+3V3*
X60700000Y-79240000D02*
X59340000Y-79240000D01*
X59340000Y-79240000D02*
X58900000Y-78800000D01*
X58900000Y-62100000D02*
X59600000Y-61400000D01*
X58900000Y-78800000D02*
X58900000Y-62100000D01*
X59600000Y-61400000D02*
X66600000Y-61400000D01*
X66600000Y-61400000D02*
X69600000Y-64400000D01*
X69600000Y-64400000D02*
X78927401Y-64400000D01*
G04 #@! TD*
D18*
X95600000Y-75400000D03*
X95700000Y-73300000D03*
X95500000Y-71300000D03*
X95600000Y-69300000D03*
X83100000Y-61500000D03*
X72999500Y-70000000D03*
X70100000Y-75000000D03*
X69400000Y-83300000D03*
X84500000Y-65900000D03*
X75300000Y-66000000D03*
X100247500Y-64000000D03*
X102787500Y-64000000D03*
X100247500Y-66540000D03*
X102787500Y-66540000D03*
X100247500Y-69080000D03*
X102787500Y-69080000D03*
X100247500Y-71620000D03*
X102787500Y-71620000D03*
X100247500Y-74160000D03*
X102787500Y-74160000D03*
X60700000Y-64000000D03*
X63240000Y-64000000D03*
X60700000Y-66540000D03*
X63240000Y-66540000D03*
X60700000Y-69080000D03*
X63240000Y-69080000D03*
X60700000Y-71620000D03*
X63240000Y-71620000D03*
X60700000Y-74160000D03*
X63240000Y-74160000D03*
X60700000Y-76700000D03*
X63240000Y-76700000D03*
X60700000Y-79240000D03*
X63240000Y-79240000D03*
X78927401Y-64400000D03*
X80927401Y-64400000D03*
M02*
