G04 #@! TF.GenerationSoftware,KiCad,Pcbnew,6.0.6-2.fc35*
G04 #@! TF.CreationDate,2022-07-18T13:01:05+02:00*
G04 #@! TF.ProjectId,cw-amp-touch,63772d61-6d70-42d7-946f-7563682e6b69,rev?*
G04 #@! TF.SameCoordinates,Original*
G04 #@! TF.FileFunction,Copper,L1,Top*
G04 #@! TF.FilePolarity,Positive*
%FSLAX46Y46*%
G04 Gerber Fmt 4.6, Leading zero omitted, Abs format (unit mm)*
G04 Created by KiCad (PCBNEW 6.0.6-2.fc35) date 2022-07-18 13:01:05*
%MOMM*%
%LPD*%
G01*
G04 APERTURE LIST*
G04 Aperture macros list*
%AMRoundRect*
0 Rectangle with rounded corners*
0 $1 Rounding radius*
0 $2 $3 $4 $5 $6 $7 $8 $9 X,Y pos of 4 corners*
0 Add a 4 corners polygon primitive as box body*
4,1,4,$2,$3,$4,$5,$6,$7,$8,$9,$2,$3,0*
0 Add four circle primitives for the rounded corners*
1,1,$1+$1,$2,$3*
1,1,$1+$1,$4,$5*
1,1,$1+$1,$6,$7*
1,1,$1+$1,$8,$9*
0 Add four rect primitives between the rounded corners*
20,1,$1+$1,$2,$3,$4,$5,0*
20,1,$1+$1,$4,$5,$6,$7,0*
20,1,$1+$1,$6,$7,$8,$9,0*
20,1,$1+$1,$8,$9,$2,$3,0*%
G04 Aperture macros list end*
%ADD10C,0.750000*%
G04 #@! TA.AperFunction,NonConductor*
%ADD11C,0.750000*%
G04 #@! TD*
G04 #@! TA.AperFunction,SMDPad,CuDef*
%ADD12C,10.000000*%
G04 #@! TD*
G04 #@! TA.AperFunction,WasherPad*
%ADD13C,6.000000*%
G04 #@! TD*
G04 #@! TA.AperFunction,ComponentPad*
%ADD14RoundRect,0.250000X0.600000X-0.600000X0.600000X0.600000X-0.600000X0.600000X-0.600000X-0.600000X0*%
G04 #@! TD*
G04 #@! TA.AperFunction,ComponentPad*
%ADD15C,1.700000*%
G04 #@! TD*
G04 #@! TA.AperFunction,ViaPad*
%ADD16C,1.200000*%
G04 #@! TD*
G04 #@! TA.AperFunction,Conductor*
%ADD17C,0.600000*%
G04 #@! TD*
G04 #@! TA.AperFunction,Conductor*
%ADD18C,0.400000*%
G04 #@! TD*
G04 #@! TA.AperFunction,Conductor*
%ADD19C,0.800000*%
G04 #@! TD*
%ADD20C,0.350000*%
G04 APERTURE END LIST*
D10*
D11*
X119285714Y-129700000D02*
X120714285Y-129700000D01*
X118999999Y-130557142D02*
X119999999Y-127557142D01*
X120999999Y-130557142D01*
X123285714Y-128557142D02*
X123285714Y-130557142D01*
X121999999Y-128557142D02*
X121999999Y-130128571D01*
X122142857Y-130414285D01*
X122428571Y-130557142D01*
X122857142Y-130557142D01*
X123142857Y-130414285D01*
X123285714Y-130271428D01*
X124285714Y-128557142D02*
X125428571Y-128557142D01*
X124714285Y-130557142D02*
X124714285Y-127985714D01*
X124857142Y-127700000D01*
X125142857Y-127557142D01*
X125428571Y-127557142D01*
X128571428Y-130414285D02*
X128999999Y-130557142D01*
X129714285Y-130557142D01*
X129999999Y-130414285D01*
X130142857Y-130271428D01*
X130285714Y-129985714D01*
X130285714Y-129700000D01*
X130142857Y-129414285D01*
X129999999Y-129271428D01*
X129714285Y-129128571D01*
X129142857Y-128985714D01*
X128857142Y-128842857D01*
X128714285Y-128700000D01*
X128571428Y-128414285D01*
X128571428Y-128128571D01*
X128714285Y-127842857D01*
X128857142Y-127700000D01*
X129142857Y-127557142D01*
X129857142Y-127557142D01*
X130285714Y-127700000D01*
X131571428Y-130557142D02*
X131571428Y-127557142D01*
X132571428Y-129700000D01*
X133571428Y-127557142D01*
X133571428Y-130557142D01*
X135000000Y-130557142D02*
X135000000Y-127557142D01*
X135714285Y-127557142D01*
X136142857Y-127700000D01*
X136428571Y-127985714D01*
X136571428Y-128271428D01*
X136714285Y-128842857D01*
X136714285Y-129271428D01*
X136571428Y-129842857D01*
X136428571Y-130128571D01*
X136142857Y-130414285D01*
X135714285Y-130557142D01*
X135000000Y-130557142D01*
X140000000Y-127557142D02*
X140714285Y-130557142D01*
X141285714Y-128414285D01*
X141857142Y-130557142D01*
X142571428Y-127557142D01*
X145000000Y-130557142D02*
X145000000Y-128985714D01*
X144857142Y-128700000D01*
X144571428Y-128557142D01*
X144000000Y-128557142D01*
X143714285Y-128700000D01*
X145000000Y-130414285D02*
X144714285Y-130557142D01*
X144000000Y-130557142D01*
X143714285Y-130414285D01*
X143571428Y-130128571D01*
X143571428Y-129842857D01*
X143714285Y-129557142D01*
X144000000Y-129414285D01*
X144714285Y-129414285D01*
X145000000Y-129271428D01*
X146428571Y-128557142D02*
X146428571Y-130557142D01*
X146428571Y-128842857D02*
X146571428Y-128700000D01*
X146857142Y-128557142D01*
X147285714Y-128557142D01*
X147571428Y-128700000D01*
X147714285Y-128985714D01*
X147714285Y-130557142D01*
X149142857Y-128557142D02*
X149142857Y-130557142D01*
X149142857Y-128842857D02*
X149285714Y-128700000D01*
X149571428Y-128557142D01*
X150000000Y-128557142D01*
X150285714Y-128700000D01*
X150428571Y-128985714D01*
X150428571Y-130557142D01*
X153000000Y-130414285D02*
X152714285Y-130557142D01*
X152142857Y-130557142D01*
X151857142Y-130414285D01*
X151714285Y-130128571D01*
X151714285Y-128985714D01*
X151857142Y-128700000D01*
X152142857Y-128557142D01*
X152714285Y-128557142D01*
X153000000Y-128700000D01*
X153142857Y-128985714D01*
X153142857Y-129271428D01*
X151714285Y-129557142D01*
X158000000Y-130557142D02*
X158000000Y-128985714D01*
X157857142Y-128700000D01*
X157571428Y-128557142D01*
X157000000Y-128557142D01*
X156714285Y-128700000D01*
X158000000Y-130414285D02*
X157714285Y-130557142D01*
X157000000Y-130557142D01*
X156714285Y-130414285D01*
X156571428Y-130128571D01*
X156571428Y-129842857D01*
X156714285Y-129557142D01*
X157000000Y-129414285D01*
X157714285Y-129414285D01*
X158000000Y-129271428D01*
X156714285Y-127557142D02*
X156857142Y-127700000D01*
X156714285Y-127842857D01*
X156571428Y-127700000D01*
X156714285Y-127557142D01*
X156714285Y-127842857D01*
X157857142Y-127557142D02*
X158000000Y-127700000D01*
X157857142Y-127842857D01*
X157714285Y-127700000D01*
X157857142Y-127557142D01*
X157857142Y-127842857D01*
X159428571Y-128557142D02*
X159428571Y-130557142D01*
X159428571Y-128842857D02*
X159571428Y-128700000D01*
X159857142Y-128557142D01*
X160285714Y-128557142D01*
X160571428Y-128700000D01*
X160714285Y-128985714D01*
X160714285Y-130557142D01*
X163428571Y-130557142D02*
X163428571Y-127557142D01*
X163428571Y-130414285D02*
X163142857Y-130557142D01*
X162571428Y-130557142D01*
X162285714Y-130414285D01*
X162142857Y-130271428D01*
X162000000Y-129985714D01*
X162000000Y-129128571D01*
X162142857Y-128842857D01*
X162285714Y-128700000D01*
X162571428Y-128557142D01*
X163142857Y-128557142D01*
X163428571Y-128700000D01*
X166000000Y-130414285D02*
X165714285Y-130557142D01*
X165142857Y-130557142D01*
X164857142Y-130414285D01*
X164714285Y-130128571D01*
X164714285Y-128985714D01*
X164857142Y-128700000D01*
X165142857Y-128557142D01*
X165714285Y-128557142D01*
X166000000Y-128700000D01*
X166142857Y-128985714D01*
X166142857Y-129271428D01*
X164714285Y-129557142D01*
X167428571Y-130557142D02*
X167428571Y-128557142D01*
X167428571Y-129128571D02*
X167571428Y-128842857D01*
X167714285Y-128700000D01*
X168000000Y-128557142D01*
X168285714Y-128557142D01*
X169285714Y-128557142D02*
X169285714Y-130557142D01*
X169285714Y-128842857D02*
X169428571Y-128700000D01*
X169714285Y-128557142D01*
X170142857Y-128557142D01*
X170428571Y-128700000D01*
X170571428Y-128985714D01*
X170571428Y-130557142D01*
D12*
G04 #@! TO.P,TS1,1,1*
G04 #@! TO.N,TOUCH-KEY-POWER*
X138000000Y-100500000D03*
G04 #@! TD*
G04 #@! TO.P,TS2,1,1*
G04 #@! TO.N,TOUCH-KEY-ANALOG-INT*
X152500000Y-100500000D03*
G04 #@! TD*
G04 #@! TO.P,TS3,1,1*
G04 #@! TO.N,TOUCH-KEY-ANALOG-EXT*
X167500000Y-100500000D03*
G04 #@! TD*
G04 #@! TO.P,TS4,1,1*
G04 #@! TO.N,TOUCH-KEY-BT*
X182500000Y-100500000D03*
G04 #@! TD*
D13*
G04 #@! TO.P,D4,*
G04 #@! TO.N,*
X182500000Y-88000000D03*
G04 #@! TD*
G04 #@! TO.P,D2,*
G04 #@! TO.N,*
X152500000Y-88000000D03*
G04 #@! TD*
G04 #@! TO.P,D3,*
G04 #@! TO.N,*
X167500000Y-88000000D03*
G04 #@! TD*
D14*
G04 #@! TO.P,J1,1,Pin_1*
G04 #@! TO.N,LED-BT*
X148000000Y-116000000D03*
D15*
G04 #@! TO.P,J1,2,Pin_2*
G04 #@! TO.N,TOUCH-KEY-POWER*
X148000000Y-113460000D03*
G04 #@! TO.P,J1,3,Pin_3*
G04 #@! TO.N,LED-ANALOG-EXT*
X145460000Y-116000000D03*
G04 #@! TO.P,J1,4,Pin_4*
G04 #@! TO.N,TOUCH-KEY-ANALOG-EXT*
X145460000Y-113460000D03*
G04 #@! TO.P,J1,5,Pin_5*
G04 #@! TO.N,LED-ANALOG-INT*
X142920000Y-116000000D03*
G04 #@! TO.P,J1,6,Pin_6*
G04 #@! TO.N,TOUCH-KEY-ANALOG-INT*
X142920000Y-113460000D03*
G04 #@! TO.P,J1,7,Pin_7*
G04 #@! TO.N,unconnected-(J1-Pad7)*
X140380000Y-116000000D03*
G04 #@! TO.P,J1,8,Pin_8*
G04 #@! TO.N,TOUCH-KEY-BT*
X140380000Y-113460000D03*
G04 #@! TO.P,J1,9,Pin_9*
G04 #@! TO.N,+3V3*
X137840000Y-116000000D03*
G04 #@! TO.P,J1,10,Pin_10*
G04 #@! TO.N,GNDD*
X137840000Y-113460000D03*
G04 #@! TD*
D16*
G04 #@! TO.N,LED-ANALOG-INT*
X157000000Y-118799503D03*
G04 #@! TO.N,LED-ANALOG-EXT*
X157000000Y-117400000D03*
G04 #@! TO.N,LED-BT*
X157000000Y-116000000D03*
G04 #@! TO.N,TOUCH-KEY-POWER*
X131200000Y-112700000D03*
X138000000Y-106900000D03*
G04 #@! TO.N,TOUCH-KEY-ANALOG-EXT*
X167500000Y-107000000D03*
X156402841Y-112600000D03*
G04 #@! TO.N,TOUCH-KEY-ANALOG-INT*
X152500000Y-107000000D03*
X155292996Y-113793496D03*
G04 #@! TO.N,TOUCH-KEY-BT*
X182500000Y-107000000D03*
X155300000Y-111400000D03*
G04 #@! TO.N,+3V3*
X161700000Y-119300000D03*
G04 #@! TD*
D17*
G04 #@! TO.N,LED-ANALOG-INT*
X145719503Y-118799503D02*
X157000000Y-118799503D01*
X142920000Y-116000000D02*
X145719503Y-118799503D01*
G04 #@! TO.N,LED-ANALOG-EXT*
X145460000Y-116000000D02*
X147060000Y-117600000D01*
D18*
X156800000Y-117600000D02*
X157000000Y-117400000D01*
D17*
X147060000Y-117600000D02*
X156800000Y-117600000D01*
G04 #@! TO.N,LED-BT*
X148000000Y-116000000D02*
X157000000Y-116000000D01*
D18*
G04 #@! TO.N,TOUCH-KEY-POWER*
X133209511Y-114709511D02*
X146750489Y-114709511D01*
X133209511Y-114709511D02*
X131200000Y-112700000D01*
X146750489Y-114709511D02*
X148000000Y-113460000D01*
X138000000Y-100500000D02*
X138000000Y-106900000D01*
G04 #@! TO.N,TOUCH-KEY-ANALOG-EXT*
X156402841Y-112600000D02*
X156402841Y-114097159D01*
X154552150Y-114800000D02*
X151451670Y-111699520D01*
X145460000Y-112240000D02*
X145460000Y-113460000D01*
X156402841Y-114097159D02*
X155700000Y-114800000D01*
X155700000Y-114800000D02*
X154552150Y-114800000D01*
X146000480Y-111699520D02*
X145460000Y-112240000D01*
X151451670Y-111699520D02*
X146000480Y-111699520D01*
X167500000Y-100500000D02*
X167500000Y-107000000D01*
G04 #@! TO.N,TOUCH-KEY-ANALOG-INT*
X154393496Y-113793496D02*
X151700000Y-111100000D01*
X142920000Y-112180000D02*
X142920000Y-113460000D01*
X152500000Y-100500000D02*
X152500000Y-107000000D01*
X155292996Y-113793496D02*
X154393496Y-113793496D01*
X144000000Y-111100000D02*
X142920000Y-112180000D01*
X151700000Y-111100000D02*
X144000000Y-111100000D01*
G04 #@! TO.N,TOUCH-KEY-BT*
X141300000Y-110500000D02*
X148600000Y-110500000D01*
X148600000Y-110500000D02*
X154400000Y-110500000D01*
X140380000Y-111420000D02*
X141300000Y-110500000D01*
X154400000Y-110500000D02*
X155300000Y-111400000D01*
X140380000Y-113460000D02*
X140380000Y-111420000D01*
X182500000Y-100500000D02*
X182500000Y-107000000D01*
D19*
G04 #@! TO.N,+3V3*
X141940000Y-120100000D02*
X157700000Y-120100000D01*
X141840000Y-120000000D02*
X141940000Y-120100000D01*
X160900000Y-120100000D02*
X161700000Y-119300000D01*
X157700000Y-120100000D02*
X160900000Y-120100000D01*
X137840000Y-116000000D02*
X141840000Y-120000000D01*
G04 #@! TD*
G04 #@! TA.AperFunction,Conductor*
G04 #@! TO.N,GNDD*
G36*
X212433621Y-80528502D02*
G01*
X212480114Y-80582158D01*
X212491500Y-80634500D01*
X212491500Y-120365500D01*
X212471498Y-120433621D01*
X212417842Y-120480114D01*
X212365500Y-120491500D01*
X162324070Y-120491500D01*
X162255949Y-120471498D01*
X162209456Y-120417842D01*
X162199352Y-120347568D01*
X162228846Y-120282988D01*
X162262499Y-120255569D01*
X162330551Y-120217458D01*
X162487186Y-120087186D01*
X162617458Y-119930551D01*
X162717004Y-119752799D01*
X162718860Y-119747332D01*
X162718862Y-119747327D01*
X162780634Y-119565352D01*
X162780635Y-119565347D01*
X162782490Y-119559883D01*
X162811723Y-119358263D01*
X162813249Y-119300000D01*
X162798494Y-119139416D01*
X162795137Y-119102880D01*
X162795136Y-119102877D01*
X162794608Y-119097126D01*
X162783964Y-119059386D01*
X162740875Y-118906606D01*
X162740874Y-118906604D01*
X162739307Y-118901047D01*
X162736551Y-118895457D01*
X162721054Y-118864032D01*
X163780500Y-118864032D01*
X163787827Y-118895457D01*
X163789008Y-118901106D01*
X163793210Y-118923779D01*
X163794132Y-118929476D01*
X163803695Y-118998611D01*
X163804354Y-119004346D01*
X163822995Y-119207220D01*
X163823280Y-119210919D01*
X163826067Y-119255679D01*
X163826243Y-119259381D01*
X163826729Y-119274209D01*
X163826796Y-119277922D01*
X163826944Y-119322835D01*
X163826902Y-119326549D01*
X163825376Y-119384812D01*
X163825224Y-119388521D01*
X163822727Y-119433343D01*
X163822466Y-119437045D01*
X163821205Y-119451826D01*
X163820835Y-119455516D01*
X163818306Y-119477500D01*
X165306500Y-119477500D01*
X166320500Y-119477500D01*
X167846500Y-119477500D01*
X168860500Y-119477500D01*
X170386500Y-119477500D01*
X171400500Y-119477500D01*
X172926500Y-119477500D01*
X173940500Y-119477500D01*
X175466500Y-119477500D01*
X176480500Y-119477500D01*
X178006500Y-119477500D01*
X179020500Y-119477500D01*
X180546500Y-119477500D01*
X181560500Y-119477500D01*
X183086500Y-119477500D01*
X184100500Y-119477500D01*
X185626500Y-119477500D01*
X186640500Y-119477500D01*
X188166500Y-119477500D01*
X189180500Y-119477500D01*
X190706500Y-119477500D01*
X191720500Y-119477500D01*
X193246500Y-119477500D01*
X194260500Y-119477500D01*
X195786500Y-119477500D01*
X196800500Y-119477500D01*
X198326500Y-119477500D01*
X199340500Y-119477500D01*
X200866500Y-119477500D01*
X201880500Y-119477500D01*
X203406500Y-119477500D01*
X204420500Y-119477500D01*
X205946500Y-119477500D01*
X206960500Y-119477500D01*
X208486500Y-119477500D01*
X209500500Y-119477500D01*
X211026500Y-119477500D01*
X211026500Y-118860500D01*
X209500500Y-118860500D01*
X209500500Y-119477500D01*
X208486500Y-119477500D01*
X208486500Y-118860500D01*
X206960500Y-118860500D01*
X206960500Y-119477500D01*
X205946500Y-119477500D01*
X205946500Y-118860500D01*
X204420500Y-118860500D01*
X204420500Y-119477500D01*
X203406500Y-119477500D01*
X203406500Y-118860500D01*
X201880500Y-118860500D01*
X201880500Y-119477500D01*
X200866500Y-119477500D01*
X200866500Y-118860500D01*
X199340500Y-118860500D01*
X199340500Y-119477500D01*
X198326500Y-119477500D01*
X198326500Y-118860500D01*
X196800500Y-118860500D01*
X196800500Y-119477500D01*
X195786500Y-119477500D01*
X195786500Y-118860500D01*
X194260500Y-118860500D01*
X194260500Y-119477500D01*
X193246500Y-119477500D01*
X193246500Y-118860500D01*
X191720500Y-118860500D01*
X191720500Y-119477500D01*
X190706500Y-119477500D01*
X190706500Y-118860500D01*
X189180500Y-118860500D01*
X189180500Y-119477500D01*
X188166500Y-119477500D01*
X188166500Y-118860500D01*
X186640500Y-118860500D01*
X186640500Y-119477500D01*
X185626500Y-119477500D01*
X185626500Y-118860500D01*
X184100500Y-118860500D01*
X184100500Y-119477500D01*
X183086500Y-119477500D01*
X183086500Y-118860500D01*
X181560500Y-118860500D01*
X181560500Y-119477500D01*
X180546500Y-119477500D01*
X180546500Y-118860500D01*
X179020500Y-118860500D01*
X179020500Y-119477500D01*
X178006500Y-119477500D01*
X178006500Y-118860500D01*
X176480500Y-118860500D01*
X176480500Y-119477500D01*
X175466500Y-119477500D01*
X175466500Y-118860500D01*
X173940500Y-118860500D01*
X173940500Y-119477500D01*
X172926500Y-119477500D01*
X172926500Y-118860500D01*
X171400500Y-118860500D01*
X171400500Y-119477500D01*
X170386500Y-119477500D01*
X170386500Y-118860500D01*
X168860500Y-118860500D01*
X168860500Y-119477500D01*
X167846500Y-119477500D01*
X167846500Y-118860500D01*
X166320500Y-118860500D01*
X166320500Y-119477500D01*
X165306500Y-119477500D01*
X165306500Y-118860500D01*
X163780500Y-118860500D01*
X163780500Y-118864032D01*
X162721054Y-118864032D01*
X162651756Y-118723510D01*
X162649201Y-118718329D01*
X162630796Y-118693681D01*
X162530758Y-118559715D01*
X162530758Y-118559714D01*
X162527305Y-118555091D01*
X162377703Y-118416800D01*
X162331675Y-118387759D01*
X162210288Y-118311169D01*
X162210283Y-118311167D01*
X162205404Y-118308088D01*
X162016180Y-118232595D01*
X161816366Y-118192849D01*
X161810592Y-118192773D01*
X161810588Y-118192773D01*
X161707452Y-118191424D01*
X161612655Y-118190183D01*
X161606958Y-118191162D01*
X161606957Y-118191162D01*
X161417567Y-118223705D01*
X161411870Y-118224684D01*
X161220734Y-118295198D01*
X161215773Y-118298150D01*
X161215772Y-118298150D01*
X161052361Y-118395370D01*
X161045649Y-118399363D01*
X160892478Y-118533690D01*
X160888911Y-118538215D01*
X160888906Y-118538220D01*
X160802331Y-118648040D01*
X160766351Y-118693681D01*
X160671492Y-118873978D01*
X160611078Y-119068543D01*
X160610400Y-119074269D01*
X160609922Y-119076519D01*
X160575771Y-119139416D01*
X160560592Y-119154595D01*
X160498280Y-119188621D01*
X160471497Y-119191500D01*
X158208921Y-119191500D01*
X158140800Y-119171498D01*
X158094307Y-119117842D01*
X158084225Y-119047420D01*
X158104269Y-118909178D01*
X158111723Y-118857766D01*
X158113249Y-118799503D01*
X158094608Y-118596629D01*
X158082893Y-118555091D01*
X158040875Y-118406109D01*
X158040874Y-118406107D01*
X158039307Y-118400550D01*
X157995230Y-118311169D01*
X157951756Y-118223013D01*
X157949201Y-118217832D01*
X157930546Y-118192849D01*
X157919334Y-118177835D01*
X157894603Y-118111285D01*
X157909778Y-118041929D01*
X157914845Y-118033693D01*
X157917458Y-118030551D01*
X158017004Y-117852799D01*
X158018860Y-117847332D01*
X158018862Y-117847327D01*
X158080634Y-117665352D01*
X158080635Y-117665347D01*
X158082490Y-117659883D01*
X158111723Y-117458263D01*
X158113249Y-117400000D01*
X158100765Y-117264136D01*
X158095137Y-117202880D01*
X158095136Y-117202877D01*
X158094608Y-117197126D01*
X158089478Y-117178936D01*
X158040875Y-117006606D01*
X158040874Y-117006604D01*
X158039307Y-117001047D01*
X158025939Y-116973938D01*
X157951756Y-116823510D01*
X157949201Y-116818329D01*
X157939314Y-116805088D01*
X157919157Y-116778095D01*
X157894425Y-116711545D01*
X157897891Y-116695704D01*
X159005377Y-116695704D01*
X159013542Y-116720284D01*
X159015235Y-116725802D01*
X159070536Y-116921881D01*
X159071976Y-116927472D01*
X159087827Y-116995456D01*
X159089008Y-117001106D01*
X159093210Y-117023779D01*
X159094132Y-117029476D01*
X159103695Y-117098611D01*
X159104354Y-117104346D01*
X159122995Y-117307220D01*
X159123280Y-117310919D01*
X159126067Y-117355679D01*
X159126243Y-117359381D01*
X159126729Y-117374209D01*
X159126796Y-117377922D01*
X159126944Y-117422835D01*
X159126902Y-117426549D01*
X159125376Y-117484812D01*
X159125224Y-117488521D01*
X159122727Y-117533343D01*
X159122466Y-117537045D01*
X159121205Y-117551826D01*
X159120835Y-117555516D01*
X159115708Y-117600083D01*
X159115230Y-117603763D01*
X159085997Y-117805383D01*
X159085038Y-117811077D01*
X159078232Y-117846500D01*
X160147516Y-117846500D01*
X163780500Y-117846500D01*
X165306500Y-117846500D01*
X166320500Y-117846500D01*
X167846500Y-117846500D01*
X168860500Y-117846500D01*
X170386500Y-117846500D01*
X171400500Y-117846500D01*
X172926500Y-117846500D01*
X173940500Y-117846500D01*
X175466500Y-117846500D01*
X176480500Y-117846500D01*
X178006500Y-117846500D01*
X179020500Y-117846500D01*
X180546500Y-117846500D01*
X181560500Y-117846500D01*
X183086500Y-117846500D01*
X184100500Y-117846500D01*
X185626500Y-117846500D01*
X186640500Y-117846500D01*
X188166500Y-117846500D01*
X189180500Y-117846500D01*
X190706500Y-117846500D01*
X191720500Y-117846500D01*
X193246500Y-117846500D01*
X194260500Y-117846500D01*
X195786500Y-117846500D01*
X196800500Y-117846500D01*
X198326500Y-117846500D01*
X199340500Y-117846500D01*
X200866500Y-117846500D01*
X201880500Y-117846500D01*
X203406500Y-117846500D01*
X204420500Y-117846500D01*
X205946500Y-117846500D01*
X206960500Y-117846500D01*
X208486500Y-117846500D01*
X209500500Y-117846500D01*
X211026500Y-117846500D01*
X211026500Y-116320500D01*
X209500500Y-116320500D01*
X209500500Y-117846500D01*
X208486500Y-117846500D01*
X208486500Y-116320500D01*
X206960500Y-116320500D01*
X206960500Y-117846500D01*
X205946500Y-117846500D01*
X205946500Y-116320500D01*
X204420500Y-116320500D01*
X204420500Y-117846500D01*
X203406500Y-117846500D01*
X203406500Y-116320500D01*
X201880500Y-116320500D01*
X201880500Y-117846500D01*
X200866500Y-117846500D01*
X200866500Y-116320500D01*
X199340500Y-116320500D01*
X199340500Y-117846500D01*
X198326500Y-117846500D01*
X198326500Y-116320500D01*
X196800500Y-116320500D01*
X196800500Y-117846500D01*
X195786500Y-117846500D01*
X195786500Y-116320500D01*
X194260500Y-116320500D01*
X194260500Y-117846500D01*
X193246500Y-117846500D01*
X193246500Y-116320500D01*
X191720500Y-116320500D01*
X191720500Y-117846500D01*
X190706500Y-117846500D01*
X190706500Y-116320500D01*
X189180500Y-116320500D01*
X189180500Y-117846500D01*
X188166500Y-117846500D01*
X188166500Y-116320500D01*
X186640500Y-116320500D01*
X186640500Y-117846500D01*
X185626500Y-117846500D01*
X185626500Y-116320500D01*
X184100500Y-116320500D01*
X184100500Y-117846500D01*
X183086500Y-117846500D01*
X183086500Y-116320500D01*
X181560500Y-116320500D01*
X181560500Y-117846500D01*
X180546500Y-117846500D01*
X180546500Y-116320500D01*
X179020500Y-116320500D01*
X179020500Y-117846500D01*
X178006500Y-117846500D01*
X178006500Y-116320500D01*
X176480500Y-116320500D01*
X176480500Y-117846500D01*
X175466500Y-117846500D01*
X175466500Y-116320500D01*
X173940500Y-116320500D01*
X173940500Y-117846500D01*
X172926500Y-117846500D01*
X172926500Y-116320500D01*
X171400500Y-116320500D01*
X171400500Y-117846500D01*
X170386500Y-117846500D01*
X170386500Y-116320500D01*
X168860500Y-116320500D01*
X168860500Y-117846500D01*
X167846500Y-117846500D01*
X167846500Y-116320500D01*
X166320500Y-116320500D01*
X166320500Y-117846500D01*
X165306500Y-117846500D01*
X165306500Y-116320500D01*
X163780500Y-116320500D01*
X163780500Y-117846500D01*
X160147516Y-117846500D01*
X160149408Y-117844413D01*
X160165281Y-117827687D01*
X160169347Y-117823593D01*
X160219651Y-117775227D01*
X160223902Y-117771323D01*
X160226500Y-117769045D01*
X160226500Y-117225270D01*
X161240500Y-117225270D01*
X161440935Y-117190829D01*
X161446646Y-117189982D01*
X161515908Y-117181325D01*
X161521650Y-117180740D01*
X161544637Y-117178931D01*
X161550399Y-117178610D01*
X161620153Y-117176326D01*
X161625925Y-117176270D01*
X161829636Y-117178936D01*
X161835404Y-117179143D01*
X161905071Y-117183251D01*
X161910823Y-117183723D01*
X161933756Y-117186133D01*
X161939482Y-117186868D01*
X162008504Y-117197337D01*
X162014191Y-117198333D01*
X162214005Y-117238079D01*
X162219639Y-117239335D01*
X162287407Y-117256075D01*
X162292979Y-117257587D01*
X162315087Y-117264136D01*
X162320580Y-117265901D01*
X162386517Y-117288766D01*
X162391926Y-117290782D01*
X162581150Y-117366275D01*
X162586461Y-117368536D01*
X162650031Y-117397339D01*
X162655232Y-117399841D01*
X162675777Y-117410309D01*
X162680859Y-117413047D01*
X162741536Y-117447551D01*
X162746487Y-117450518D01*
X162766500Y-117463145D01*
X162766500Y-116320500D01*
X161240500Y-116320500D01*
X161240500Y-117225270D01*
X160226500Y-117225270D01*
X160226500Y-116320500D01*
X159098304Y-116320500D01*
X159085997Y-116405383D01*
X159085038Y-116411077D01*
X159071867Y-116479628D01*
X159070648Y-116485269D01*
X159065265Y-116507690D01*
X159063790Y-116513269D01*
X159044407Y-116580314D01*
X159042677Y-116585821D01*
X159005377Y-116695704D01*
X157897891Y-116695704D01*
X157909600Y-116642189D01*
X157914774Y-116633778D01*
X157917458Y-116630551D01*
X158017004Y-116452799D01*
X158018860Y-116447332D01*
X158018862Y-116447327D01*
X158080634Y-116265352D01*
X158080635Y-116265347D01*
X158082490Y-116259883D01*
X158111723Y-116058263D01*
X158113249Y-116000000D01*
X158094608Y-115797126D01*
X158081234Y-115749707D01*
X158040875Y-115606606D01*
X158040874Y-115606604D01*
X158039307Y-115601047D01*
X158027786Y-115577683D01*
X157951756Y-115423510D01*
X157949201Y-115418329D01*
X157930091Y-115392737D01*
X157830758Y-115259715D01*
X157830758Y-115259714D01*
X157827305Y-115255091D01*
X157677703Y-115116800D01*
X157603250Y-115069824D01*
X157510288Y-115011169D01*
X157510283Y-115011167D01*
X157505404Y-115008088D01*
X157316180Y-114932595D01*
X157116366Y-114892849D01*
X157110591Y-114892773D01*
X157110587Y-114892773D01*
X156914297Y-114890204D01*
X156846444Y-114869312D01*
X156800657Y-114815053D01*
X156791474Y-114744653D01*
X156798537Y-114729708D01*
X158700500Y-114729708D01*
X158761672Y-114811627D01*
X158765019Y-114816331D01*
X158804180Y-114874118D01*
X158807308Y-114878969D01*
X158819356Y-114898630D01*
X158822258Y-114903619D01*
X158855960Y-114964734D01*
X158858631Y-114969851D01*
X158948737Y-115152569D01*
X158951171Y-115157803D01*
X158979142Y-115221750D01*
X158981333Y-115227090D01*
X158989596Y-115248616D01*
X158991541Y-115254050D01*
X159008963Y-115306500D01*
X160226500Y-115306500D01*
X161240500Y-115306500D01*
X162766500Y-115306500D01*
X163780500Y-115306500D01*
X165306500Y-115306500D01*
X166320500Y-115306500D01*
X167846500Y-115306500D01*
X168860500Y-115306500D01*
X170386500Y-115306500D01*
X171400500Y-115306500D01*
X172926500Y-115306500D01*
X173940500Y-115306500D01*
X175466500Y-115306500D01*
X176480500Y-115306500D01*
X178006500Y-115306500D01*
X179020500Y-115306500D01*
X180546500Y-115306500D01*
X181560500Y-115306500D01*
X183086500Y-115306500D01*
X184100500Y-115306500D01*
X185626500Y-115306500D01*
X186640500Y-115306500D01*
X188166500Y-115306500D01*
X189180500Y-115306500D01*
X190706500Y-115306500D01*
X191720500Y-115306500D01*
X193246500Y-115306500D01*
X194260500Y-115306500D01*
X195786500Y-115306500D01*
X196800500Y-115306500D01*
X198326500Y-115306500D01*
X199340500Y-115306500D01*
X200866500Y-115306500D01*
X201880500Y-115306500D01*
X203406500Y-115306500D01*
X204420500Y-115306500D01*
X205946500Y-115306500D01*
X206960500Y-115306500D01*
X208486500Y-115306500D01*
X209500500Y-115306500D01*
X211026500Y-115306500D01*
X211026500Y-113780500D01*
X209500500Y-113780500D01*
X209500500Y-115306500D01*
X208486500Y-115306500D01*
X208486500Y-113780500D01*
X206960500Y-113780500D01*
X206960500Y-115306500D01*
X205946500Y-115306500D01*
X205946500Y-113780500D01*
X204420500Y-113780500D01*
X204420500Y-115306500D01*
X203406500Y-115306500D01*
X203406500Y-113780500D01*
X201880500Y-113780500D01*
X201880500Y-115306500D01*
X200866500Y-115306500D01*
X200866500Y-113780500D01*
X199340500Y-113780500D01*
X199340500Y-115306500D01*
X198326500Y-115306500D01*
X198326500Y-113780500D01*
X196800500Y-113780500D01*
X196800500Y-115306500D01*
X195786500Y-115306500D01*
X195786500Y-113780500D01*
X194260500Y-113780500D01*
X194260500Y-115306500D01*
X193246500Y-115306500D01*
X193246500Y-113780500D01*
X191720500Y-113780500D01*
X191720500Y-115306500D01*
X190706500Y-115306500D01*
X190706500Y-113780500D01*
X189180500Y-113780500D01*
X189180500Y-115306500D01*
X188166500Y-115306500D01*
X188166500Y-113780500D01*
X186640500Y-113780500D01*
X186640500Y-115306500D01*
X185626500Y-115306500D01*
X185626500Y-113780500D01*
X184100500Y-113780500D01*
X184100500Y-115306500D01*
X183086500Y-115306500D01*
X183086500Y-113780500D01*
X181560500Y-113780500D01*
X181560500Y-115306500D01*
X180546500Y-115306500D01*
X180546500Y-113780500D01*
X179020500Y-113780500D01*
X179020500Y-115306500D01*
X178006500Y-115306500D01*
X178006500Y-113780500D01*
X176480500Y-113780500D01*
X176480500Y-115306500D01*
X175466500Y-115306500D01*
X175466500Y-113780500D01*
X173940500Y-113780500D01*
X173940500Y-115306500D01*
X172926500Y-115306500D01*
X172926500Y-113780500D01*
X171400500Y-113780500D01*
X171400500Y-115306500D01*
X170386500Y-115306500D01*
X170386500Y-113780500D01*
X168860500Y-113780500D01*
X168860500Y-115306500D01*
X167846500Y-115306500D01*
X167846500Y-113780500D01*
X166320500Y-113780500D01*
X166320500Y-115306500D01*
X165306500Y-115306500D01*
X165306500Y-113780500D01*
X163780500Y-113780500D01*
X163780500Y-115306500D01*
X162766500Y-115306500D01*
X162766500Y-113780500D01*
X161240500Y-113780500D01*
X161240500Y-115306500D01*
X160226500Y-115306500D01*
X160226500Y-113780500D01*
X158700500Y-113780500D01*
X158700500Y-114729708D01*
X156798537Y-114729708D01*
X156821810Y-114680463D01*
X156826837Y-114675134D01*
X156883377Y-114618594D01*
X156889642Y-114612741D01*
X156927505Y-114579711D01*
X156927506Y-114579710D01*
X156933226Y-114574720D01*
X156969977Y-114522430D01*
X156973869Y-114517188D01*
X157013317Y-114466877D01*
X157016441Y-114459958D01*
X157017829Y-114457666D01*
X157026198Y-114442994D01*
X157027463Y-114440634D01*
X157031831Y-114434420D01*
X157055044Y-114374882D01*
X157057600Y-114368801D01*
X157070925Y-114339292D01*
X157083886Y-114310586D01*
X157085271Y-114303113D01*
X157086075Y-114300547D01*
X157090696Y-114284324D01*
X157091361Y-114281732D01*
X157094123Y-114274650D01*
X157102463Y-114211298D01*
X157103495Y-114204782D01*
X157113752Y-114149440D01*
X157115136Y-114141973D01*
X157111550Y-114079779D01*
X157111341Y-114072526D01*
X157111341Y-113511718D01*
X157131343Y-113443597D01*
X157156769Y-113414846D01*
X157190027Y-113387186D01*
X157320299Y-113230551D01*
X157419845Y-113052799D01*
X157421701Y-113047332D01*
X157421703Y-113047327D01*
X157483475Y-112865352D01*
X157483476Y-112865347D01*
X157485331Y-112859883D01*
X157498871Y-112766500D01*
X158700500Y-112766500D01*
X160226500Y-112766500D01*
X161240500Y-112766500D01*
X162766500Y-112766500D01*
X163780500Y-112766500D01*
X165306500Y-112766500D01*
X166320500Y-112766500D01*
X167846500Y-112766500D01*
X168860500Y-112766500D01*
X170386500Y-112766500D01*
X171400500Y-112766500D01*
X172926500Y-112766500D01*
X173940500Y-112766500D01*
X175466500Y-112766500D01*
X176480500Y-112766500D01*
X178006500Y-112766500D01*
X179020500Y-112766500D01*
X180546500Y-112766500D01*
X181560500Y-112766500D01*
X183086500Y-112766500D01*
X184100500Y-112766500D01*
X185626500Y-112766500D01*
X186640500Y-112766500D01*
X188166500Y-112766500D01*
X189180500Y-112766500D01*
X190706500Y-112766500D01*
X191720500Y-112766500D01*
X193246500Y-112766500D01*
X194260500Y-112766500D01*
X195786500Y-112766500D01*
X196800500Y-112766500D01*
X198326500Y-112766500D01*
X199340500Y-112766500D01*
X200866500Y-112766500D01*
X201880500Y-112766500D01*
X203406500Y-112766500D01*
X204420500Y-112766500D01*
X205946500Y-112766500D01*
X206960500Y-112766500D01*
X208486500Y-112766500D01*
X209500500Y-112766500D01*
X211026500Y-112766500D01*
X211026500Y-111240500D01*
X209500500Y-111240500D01*
X209500500Y-112766500D01*
X208486500Y-112766500D01*
X208486500Y-111240500D01*
X206960500Y-111240500D01*
X206960500Y-112766500D01*
X205946500Y-112766500D01*
X205946500Y-111240500D01*
X204420500Y-111240500D01*
X204420500Y-112766500D01*
X203406500Y-112766500D01*
X203406500Y-111240500D01*
X201880500Y-111240500D01*
X201880500Y-112766500D01*
X200866500Y-112766500D01*
X200866500Y-111240500D01*
X199340500Y-111240500D01*
X199340500Y-112766500D01*
X198326500Y-112766500D01*
X198326500Y-111240500D01*
X196800500Y-111240500D01*
X196800500Y-112766500D01*
X195786500Y-112766500D01*
X195786500Y-111240500D01*
X194260500Y-111240500D01*
X194260500Y-112766500D01*
X193246500Y-112766500D01*
X193246500Y-111240500D01*
X191720500Y-111240500D01*
X191720500Y-112766500D01*
X190706500Y-112766500D01*
X190706500Y-111240500D01*
X189180500Y-111240500D01*
X189180500Y-112766500D01*
X188166500Y-112766500D01*
X188166500Y-111240500D01*
X186640500Y-111240500D01*
X186640500Y-112766500D01*
X185626500Y-112766500D01*
X185626500Y-111240500D01*
X184100500Y-111240500D01*
X184100500Y-112766500D01*
X183086500Y-112766500D01*
X183086500Y-111240500D01*
X181560500Y-111240500D01*
X181560500Y-112766500D01*
X180546500Y-112766500D01*
X180546500Y-111240500D01*
X179020500Y-111240500D01*
X179020500Y-112766500D01*
X178006500Y-112766500D01*
X178006500Y-111240500D01*
X176480500Y-111240500D01*
X176480500Y-112766500D01*
X175466500Y-112766500D01*
X175466500Y-111240500D01*
X173940500Y-111240500D01*
X173940500Y-112766500D01*
X172926500Y-112766500D01*
X172926500Y-111240500D01*
X171400500Y-111240500D01*
X171400500Y-112766500D01*
X170386500Y-112766500D01*
X170386500Y-111240500D01*
X168860500Y-111240500D01*
X168860500Y-112766500D01*
X167846500Y-112766500D01*
X167846500Y-111240500D01*
X166320500Y-111240500D01*
X166320500Y-112766500D01*
X165306500Y-112766500D01*
X165306500Y-111240500D01*
X163780500Y-111240500D01*
X163780500Y-112766500D01*
X162766500Y-112766500D01*
X162766500Y-111240500D01*
X161240500Y-111240500D01*
X161240500Y-112766500D01*
X160226500Y-112766500D01*
X160226500Y-111240500D01*
X158700500Y-111240500D01*
X158700500Y-112766500D01*
X157498871Y-112766500D01*
X157514564Y-112658263D01*
X157516090Y-112600000D01*
X157503857Y-112466870D01*
X157497978Y-112402880D01*
X157497977Y-112402877D01*
X157497449Y-112397126D01*
X157478764Y-112330874D01*
X157443716Y-112206606D01*
X157443715Y-112206604D01*
X157442148Y-112201047D01*
X157408280Y-112132368D01*
X157354597Y-112023510D01*
X157352042Y-112018329D01*
X157333015Y-111992848D01*
X157233599Y-111859715D01*
X157233599Y-111859714D01*
X157230146Y-111855091D01*
X157124477Y-111757411D01*
X157084784Y-111720719D01*
X157084781Y-111720717D01*
X157080544Y-111716800D01*
X156997514Y-111664412D01*
X156913129Y-111611169D01*
X156913124Y-111611167D01*
X156908245Y-111608088D01*
X156719021Y-111532595D01*
X156519207Y-111492849D01*
X156519364Y-111492062D01*
X156458065Y-111466844D01*
X156417433Y-111408624D01*
X156411418Y-111380074D01*
X156409692Y-111361283D01*
X156402421Y-111282158D01*
X156395137Y-111202880D01*
X156395136Y-111202877D01*
X156394608Y-111197126D01*
X156339307Y-111001047D01*
X156336187Y-110994719D01*
X156251756Y-110823510D01*
X156249201Y-110818329D01*
X156127305Y-110655091D01*
X155977703Y-110516800D01*
X155931675Y-110487759D01*
X155810288Y-110411169D01*
X155810283Y-110411167D01*
X155805404Y-110408088D01*
X155616180Y-110332595D01*
X155416366Y-110292849D01*
X155410591Y-110292773D01*
X155410587Y-110292773D01*
X155243103Y-110290581D01*
X155175250Y-110269689D01*
X155155657Y-110253687D01*
X154921450Y-110019480D01*
X154915596Y-110013215D01*
X154895255Y-109989898D01*
X154877561Y-109969615D01*
X154825280Y-109932871D01*
X154819986Y-109928939D01*
X154775693Y-109894209D01*
X154769718Y-109889524D01*
X154762802Y-109886401D01*
X154760516Y-109885017D01*
X154745835Y-109876643D01*
X154743475Y-109875378D01*
X154737261Y-109871010D01*
X154730182Y-109868250D01*
X154730180Y-109868249D01*
X154677725Y-109847798D01*
X154671656Y-109845247D01*
X154613427Y-109818955D01*
X154605960Y-109817571D01*
X154603405Y-109816770D01*
X154587152Y-109812141D01*
X154584572Y-109811478D01*
X154577491Y-109808718D01*
X154569960Y-109807727D01*
X154569958Y-109807726D01*
X154540339Y-109803827D01*
X154514139Y-109800378D01*
X154507641Y-109799348D01*
X154444814Y-109787704D01*
X154437234Y-109788141D01*
X154437233Y-109788141D01*
X154382608Y-109791291D01*
X154375354Y-109791500D01*
X141328911Y-109791500D01*
X141320342Y-109791208D01*
X141270223Y-109787791D01*
X141270219Y-109787791D01*
X141262647Y-109787275D01*
X141199685Y-109798264D01*
X141193195Y-109799221D01*
X141129758Y-109806898D01*
X141122649Y-109809584D01*
X141120078Y-109810216D01*
X141103772Y-109814676D01*
X141101204Y-109815451D01*
X141093716Y-109816758D01*
X141058722Y-109832119D01*
X141035212Y-109842439D01*
X141029105Y-109844931D01*
X141021518Y-109847798D01*
X140969344Y-109867513D01*
X140963083Y-109871816D01*
X140960717Y-109873053D01*
X140945937Y-109881280D01*
X140943652Y-109882631D01*
X140936695Y-109885685D01*
X140930675Y-109890305D01*
X140930669Y-109890308D01*
X140904372Y-109910488D01*
X140885998Y-109924587D01*
X140880668Y-109928459D01*
X140834280Y-109960339D01*
X140834275Y-109960344D01*
X140828019Y-109964643D01*
X140822968Y-109970313D01*
X140822966Y-109970314D01*
X140786565Y-110011170D01*
X140781584Y-110016446D01*
X139899480Y-110898550D01*
X139893215Y-110904404D01*
X139849615Y-110942439D01*
X139845248Y-110948653D01*
X139812872Y-110994719D01*
X139808939Y-111000014D01*
X139769524Y-111050282D01*
X139766401Y-111057198D01*
X139765017Y-111059484D01*
X139756643Y-111074165D01*
X139755378Y-111076525D01*
X139751010Y-111082739D01*
X139748250Y-111089818D01*
X139748249Y-111089820D01*
X139727798Y-111142275D01*
X139725247Y-111148344D01*
X139698955Y-111206573D01*
X139697571Y-111214040D01*
X139696770Y-111216595D01*
X139692141Y-111232848D01*
X139691478Y-111235428D01*
X139688718Y-111242509D01*
X139687727Y-111250040D01*
X139687726Y-111250042D01*
X139680379Y-111305852D01*
X139679348Y-111312359D01*
X139667704Y-111375186D01*
X139668141Y-111382766D01*
X139668141Y-111382767D01*
X139671291Y-111437392D01*
X139671500Y-111444646D01*
X139671500Y-112230114D01*
X139651498Y-112298235D01*
X139621153Y-112330874D01*
X139489733Y-112429547D01*
X139474965Y-112440635D01*
X139320629Y-112602138D01*
X139317720Y-112606403D01*
X139317714Y-112606411D01*
X139264186Y-112684880D01*
X139194743Y-112786680D01*
X139100688Y-112989305D01*
X139040989Y-113204570D01*
X139017251Y-113426695D01*
X139017548Y-113431848D01*
X139017548Y-113431851D01*
X139023011Y-113526590D01*
X139030110Y-113649715D01*
X139064870Y-113803952D01*
X139074641Y-113847310D01*
X139070105Y-113918161D01*
X139027984Y-113975313D01*
X138961650Y-114000619D01*
X138951724Y-114001011D01*
X133555171Y-114001011D01*
X133487050Y-113981009D01*
X133466076Y-113964106D01*
X132348688Y-112846718D01*
X132314662Y-112784406D01*
X132311826Y-112754324D01*
X132313152Y-112703704D01*
X132313249Y-112700000D01*
X132295729Y-112509326D01*
X132295137Y-112502880D01*
X132295136Y-112502877D01*
X132294608Y-112497126D01*
X132290251Y-112481678D01*
X132257209Y-112364520D01*
X133300500Y-112364520D01*
X133702480Y-112766500D01*
X134826500Y-112766500D01*
X135840500Y-112766500D01*
X136781627Y-112766500D01*
X136785081Y-112761181D01*
X136914223Y-112597365D01*
X136930095Y-112580639D01*
X137086928Y-112443100D01*
X137105583Y-112429547D01*
X137284854Y-112322892D01*
X137305667Y-112312965D01*
X137366500Y-112290523D01*
X137366500Y-111240500D01*
X135840500Y-111240500D01*
X135840500Y-112766500D01*
X134826500Y-112766500D01*
X134826500Y-111240500D01*
X133300500Y-111240500D01*
X133300500Y-112364520D01*
X132257209Y-112364520D01*
X132240875Y-112306606D01*
X132240874Y-112306604D01*
X132239307Y-112301047D01*
X132234118Y-112290523D01*
X132151756Y-112123510D01*
X132149201Y-112118329D01*
X132110015Y-112065852D01*
X132030758Y-111959715D01*
X132030758Y-111959714D01*
X132027305Y-111955091D01*
X131905764Y-111842739D01*
X131881943Y-111820719D01*
X131881940Y-111820717D01*
X131877703Y-111816800D01*
X131806081Y-111771610D01*
X131710288Y-111711169D01*
X131710283Y-111711167D01*
X131705404Y-111708088D01*
X131516180Y-111632595D01*
X131316366Y-111592849D01*
X131310592Y-111592773D01*
X131310588Y-111592773D01*
X131207452Y-111591424D01*
X131112655Y-111590183D01*
X131106958Y-111591162D01*
X131106957Y-111591162D01*
X130990523Y-111611169D01*
X130911870Y-111624684D01*
X130720734Y-111695198D01*
X130715778Y-111698147D01*
X130715775Y-111698148D01*
X130698922Y-111708175D01*
X130630152Y-111725814D01*
X130562762Y-111703473D01*
X130518148Y-111648245D01*
X130508500Y-111599889D01*
X130508500Y-110226500D01*
X131522500Y-110226500D01*
X132286500Y-110226500D01*
X133300500Y-110226500D01*
X134826500Y-110226500D01*
X135840500Y-110226500D01*
X137366500Y-110226500D01*
X138380500Y-110226500D01*
X139133774Y-110226500D01*
X139177470Y-110183485D01*
X139183033Y-110178328D01*
X139203865Y-110160155D01*
X139905984Y-109458036D01*
X156160500Y-109458036D01*
X156181150Y-109466275D01*
X156186461Y-109468536D01*
X156250031Y-109497339D01*
X156255232Y-109499841D01*
X156275777Y-109510309D01*
X156280859Y-109513047D01*
X156341536Y-109547551D01*
X156346487Y-109550518D01*
X156518786Y-109659230D01*
X156523596Y-109662421D01*
X156580849Y-109702324D01*
X156585506Y-109705731D01*
X156603800Y-109719768D01*
X156608299Y-109723387D01*
X156661680Y-109768377D01*
X156666008Y-109772197D01*
X156815610Y-109910488D01*
X156819758Y-109914502D01*
X156868793Y-109964183D01*
X156872753Y-109968385D01*
X156888182Y-109985521D01*
X156891945Y-109989898D01*
X156936218Y-110043846D01*
X156939776Y-110048389D01*
X157061672Y-110211627D01*
X157065019Y-110216331D01*
X157071910Y-110226500D01*
X157686500Y-110226500D01*
X158700500Y-110226500D01*
X160226500Y-110226500D01*
X161240500Y-110226500D01*
X162766500Y-110226500D01*
X163780500Y-110226500D01*
X165306500Y-110226500D01*
X165306500Y-108764686D01*
X166320500Y-108764686D01*
X166320500Y-110226500D01*
X167846500Y-110226500D01*
X168860500Y-110226500D01*
X170386500Y-110226500D01*
X171400500Y-110226500D01*
X172926500Y-110226500D01*
X173940500Y-110226500D01*
X175466500Y-110226500D01*
X176480500Y-110226500D01*
X178006500Y-110226500D01*
X179020500Y-110226500D01*
X180546500Y-110226500D01*
X180546500Y-108906247D01*
X181560500Y-108906247D01*
X181560500Y-110226500D01*
X183086500Y-110226500D01*
X184100500Y-110226500D01*
X185626500Y-110226500D01*
X186640500Y-110226500D01*
X188166500Y-110226500D01*
X189180500Y-110226500D01*
X190706500Y-110226500D01*
X191720500Y-110226500D01*
X193246500Y-110226500D01*
X194260500Y-110226500D01*
X195786500Y-110226500D01*
X195786500Y-109554484D01*
X196800500Y-109554484D01*
X196800500Y-110226500D01*
X198326500Y-110226500D01*
X201880500Y-110226500D01*
X203406500Y-110226500D01*
X204420500Y-110226500D01*
X205946500Y-110226500D01*
X206960500Y-110226500D01*
X208486500Y-110226500D01*
X209500500Y-110226500D01*
X211026500Y-110226500D01*
X211026500Y-108700500D01*
X209500500Y-108700500D01*
X209500500Y-110226500D01*
X208486500Y-110226500D01*
X208486500Y-108700500D01*
X206960500Y-108700500D01*
X206960500Y-110226500D01*
X205946500Y-110226500D01*
X205946500Y-108700500D01*
X204598334Y-108700500D01*
X204586362Y-108708054D01*
X204584537Y-108709184D01*
X204562375Y-108722645D01*
X204560535Y-108723742D01*
X204553132Y-108728068D01*
X204551272Y-108729133D01*
X204528661Y-108741835D01*
X204526782Y-108742870D01*
X204420500Y-108800217D01*
X204420500Y-110226500D01*
X203406500Y-110226500D01*
X203406500Y-109297688D01*
X203401876Y-109299696D01*
X203399899Y-109300535D01*
X203391977Y-109303816D01*
X203389992Y-109304619D01*
X203365899Y-109314121D01*
X203363900Y-109314889D01*
X202821387Y-109518266D01*
X202819375Y-109519001D01*
X202794938Y-109527691D01*
X202792909Y-109528393D01*
X202784782Y-109531128D01*
X202782741Y-109531796D01*
X202758029Y-109539646D01*
X202755984Y-109540276D01*
X202200895Y-109706283D01*
X202198841Y-109706879D01*
X202173882Y-109713884D01*
X202171809Y-109714446D01*
X202163515Y-109716622D01*
X202161435Y-109717149D01*
X202136234Y-109723304D01*
X202134147Y-109723795D01*
X201880500Y-109781189D01*
X201880500Y-110226500D01*
X198326500Y-110226500D01*
X198326500Y-109920249D01*
X198315239Y-109918721D01*
X198313118Y-109918415D01*
X198304642Y-109917118D01*
X198302528Y-109916776D01*
X198276963Y-109912418D01*
X198274850Y-109912040D01*
X197705449Y-109804965D01*
X197703344Y-109804550D01*
X197677899Y-109799315D01*
X197675797Y-109798864D01*
X197667429Y-109796993D01*
X197665343Y-109796508D01*
X197640180Y-109790431D01*
X197638105Y-109789911D01*
X197077305Y-109644356D01*
X197075237Y-109643801D01*
X197050288Y-109636871D01*
X197048230Y-109636280D01*
X197040008Y-109633845D01*
X197037956Y-109633218D01*
X197013183Y-109625420D01*
X197011139Y-109624758D01*
X196800500Y-109554484D01*
X195786500Y-109554484D01*
X195786500Y-109162903D01*
X195278477Y-108912373D01*
X195276561Y-108911408D01*
X195253503Y-108899545D01*
X195251606Y-108898548D01*
X195244049Y-108894496D01*
X195242169Y-108893468D01*
X195219525Y-108880826D01*
X195217661Y-108879764D01*
X194909035Y-108700500D01*
X194260500Y-108700500D01*
X194260500Y-110226500D01*
X193246500Y-110226500D01*
X193246500Y-108700500D01*
X191720500Y-108700500D01*
X191720500Y-110226500D01*
X190706500Y-110226500D01*
X190706500Y-108700500D01*
X189180500Y-108700500D01*
X189180500Y-110226500D01*
X188166500Y-110226500D01*
X188166500Y-108700500D01*
X186640500Y-108700500D01*
X186640500Y-110226500D01*
X185626500Y-110226500D01*
X185626500Y-108700500D01*
X184100500Y-108700500D01*
X184100500Y-110226500D01*
X183086500Y-110226500D01*
X183086500Y-109042447D01*
X183085821Y-109042677D01*
X183080314Y-109044407D01*
X183013269Y-109063790D01*
X183007690Y-109065265D01*
X182985269Y-109070648D01*
X182979628Y-109071867D01*
X182911077Y-109085038D01*
X182905383Y-109085997D01*
X182703763Y-109115230D01*
X182698032Y-109115927D01*
X182628579Y-109122767D01*
X182622825Y-109123201D01*
X182599798Y-109124408D01*
X182594030Y-109124578D01*
X182524228Y-109125036D01*
X182518454Y-109124942D01*
X182314883Y-109116944D01*
X182309121Y-109116585D01*
X182239566Y-109110652D01*
X182233827Y-109110030D01*
X182210966Y-109107020D01*
X182205262Y-109106136D01*
X182136562Y-109093867D01*
X182130906Y-109092722D01*
X181932201Y-109047760D01*
X181926604Y-109046358D01*
X181859318Y-109027857D01*
X181853789Y-109026200D01*
X181831859Y-109019075D01*
X181826410Y-109017165D01*
X181761070Y-108992573D01*
X181755715Y-108990417D01*
X181568531Y-108909996D01*
X181563281Y-108907596D01*
X181560500Y-108906247D01*
X180546500Y-108906247D01*
X180546500Y-108700500D01*
X179020500Y-108700500D01*
X179020500Y-110226500D01*
X178006500Y-110226500D01*
X178006500Y-108700500D01*
X176480500Y-108700500D01*
X176480500Y-110226500D01*
X175466500Y-110226500D01*
X175466500Y-108700500D01*
X173940500Y-108700500D01*
X173940500Y-110226500D01*
X172926500Y-110226500D01*
X172926500Y-108700500D01*
X171400500Y-108700500D01*
X171400500Y-110226500D01*
X170386500Y-110226500D01*
X170386500Y-108700500D01*
X168860500Y-108700500D01*
X168860500Y-110226500D01*
X167846500Y-110226500D01*
X167846500Y-109094534D01*
X167703763Y-109115230D01*
X167698032Y-109115927D01*
X167628579Y-109122767D01*
X167622825Y-109123201D01*
X167599798Y-109124408D01*
X167594030Y-109124578D01*
X167524228Y-109125036D01*
X167518454Y-109124942D01*
X167314883Y-109116944D01*
X167309121Y-109116585D01*
X167239566Y-109110652D01*
X167233827Y-109110030D01*
X167210966Y-109107020D01*
X167205262Y-109106136D01*
X167136562Y-109093867D01*
X167130906Y-109092722D01*
X166932201Y-109047760D01*
X166926604Y-109046358D01*
X166859318Y-109027857D01*
X166853789Y-109026200D01*
X166831859Y-109019075D01*
X166826410Y-109017165D01*
X166761070Y-108992573D01*
X166755715Y-108990417D01*
X166568531Y-108909996D01*
X166563281Y-108907596D01*
X166500468Y-108877129D01*
X166495332Y-108874491D01*
X166475068Y-108863488D01*
X166470060Y-108860618D01*
X166410324Y-108824546D01*
X166405454Y-108821451D01*
X166320500Y-108764686D01*
X165306500Y-108764686D01*
X165306500Y-108700500D01*
X163780500Y-108700500D01*
X163780500Y-110226500D01*
X162766500Y-110226500D01*
X162766500Y-108700500D01*
X161240500Y-108700500D01*
X161240500Y-110226500D01*
X160226500Y-110226500D01*
X160226500Y-108700500D01*
X158700500Y-108700500D01*
X158700500Y-110226500D01*
X157686500Y-110226500D01*
X157686500Y-108700500D01*
X156160500Y-108700500D01*
X156160500Y-109458036D01*
X139905984Y-109458036D01*
X139906500Y-109457520D01*
X139906500Y-108700500D01*
X139128838Y-108700500D01*
X139126013Y-108702168D01*
X138948261Y-108801714D01*
X138943161Y-108804419D01*
X138880771Y-108835695D01*
X138875555Y-108838162D01*
X138854490Y-108847541D01*
X138849165Y-108849768D01*
X138784161Y-108875211D01*
X138778737Y-108877191D01*
X138585821Y-108942677D01*
X138580314Y-108944407D01*
X138513269Y-108963790D01*
X138507690Y-108965265D01*
X138485269Y-108970648D01*
X138479628Y-108971867D01*
X138411077Y-108985038D01*
X138405383Y-108985997D01*
X138380500Y-108989605D01*
X138380500Y-110226500D01*
X137366500Y-110226500D01*
X137366500Y-108929832D01*
X137359318Y-108927857D01*
X137353789Y-108926200D01*
X137331859Y-108919075D01*
X137326410Y-108917165D01*
X137261070Y-108892573D01*
X137255715Y-108890417D01*
X137068531Y-108809996D01*
X137063281Y-108807596D01*
X137000468Y-108777129D01*
X136995332Y-108774491D01*
X136975068Y-108763488D01*
X136970060Y-108760618D01*
X136910324Y-108724546D01*
X136905454Y-108721451D01*
X136874099Y-108700500D01*
X135840500Y-108700500D01*
X135840500Y-110226500D01*
X134826500Y-110226500D01*
X134826500Y-108700500D01*
X133300500Y-108700500D01*
X133300500Y-110226500D01*
X132286500Y-110226500D01*
X132286500Y-108700500D01*
X131522500Y-108700500D01*
X131522500Y-110226500D01*
X130508500Y-110226500D01*
X130508500Y-107686500D01*
X131522500Y-107686500D01*
X132286500Y-107686500D01*
X133300500Y-107686500D01*
X134826500Y-107686500D01*
X134826500Y-106201130D01*
X134773483Y-106173413D01*
X134771155Y-106172165D01*
X134749938Y-106160500D01*
X133300500Y-106160500D01*
X133300500Y-107686500D01*
X132286500Y-107686500D01*
X132286500Y-106160500D01*
X131522500Y-106160500D01*
X131522500Y-107686500D01*
X130508500Y-107686500D01*
X130508500Y-105146500D01*
X131522500Y-105146500D01*
X132286500Y-105146500D01*
X132286500Y-103646532D01*
X132272189Y-103620500D01*
X131522500Y-103620500D01*
X131522500Y-105146500D01*
X130508500Y-105146500D01*
X130508500Y-100730880D01*
X132491368Y-100730880D01*
X132530007Y-101191021D01*
X132530449Y-101193634D01*
X132602606Y-101620244D01*
X132607015Y-101646314D01*
X132654087Y-101829649D01*
X132719534Y-102084547D01*
X132721850Y-102093568D01*
X132873707Y-102529643D01*
X133061522Y-102951482D01*
X133283977Y-103356125D01*
X133285429Y-103358311D01*
X133285433Y-103358317D01*
X133414939Y-103553239D01*
X133539511Y-103740735D01*
X133623678Y-103846927D01*
X133781380Y-104045898D01*
X133826332Y-104102614D01*
X133828145Y-104104544D01*
X133828147Y-104104547D01*
X134050173Y-104340980D01*
X134142429Y-104439222D01*
X134485583Y-104748200D01*
X134853389Y-105027380D01*
X134855620Y-105028796D01*
X134855626Y-105028800D01*
X135177538Y-105233091D01*
X135243266Y-105274803D01*
X135245593Y-105276019D01*
X135245599Y-105276023D01*
X135650142Y-105487513D01*
X135650147Y-105487515D01*
X135652480Y-105488735D01*
X136078159Y-105667674D01*
X136080667Y-105668489D01*
X136080670Y-105668490D01*
X136514804Y-105809549D01*
X136514808Y-105809550D01*
X136517319Y-105810366D01*
X136838502Y-105885699D01*
X136964303Y-105915205D01*
X136964307Y-105915206D01*
X136966879Y-105915809D01*
X137107562Y-105936583D01*
X137172029Y-105966321D01*
X137210185Y-106026193D01*
X137209915Y-106097189D01*
X137188105Y-106139237D01*
X137171343Y-106160500D01*
X137066351Y-106293681D01*
X137063662Y-106298792D01*
X137063660Y-106298795D01*
X137017071Y-106387346D01*
X136971492Y-106473978D01*
X136911078Y-106668543D01*
X136887132Y-106870859D01*
X136900457Y-107074151D01*
X136950605Y-107271610D01*
X137035898Y-107456624D01*
X137153479Y-107622997D01*
X137299410Y-107765157D01*
X137304206Y-107768362D01*
X137304209Y-107768364D01*
X137427114Y-107850486D01*
X137468803Y-107878342D01*
X137474106Y-107880620D01*
X137474109Y-107880622D01*
X137559847Y-107917458D01*
X137655987Y-107958763D01*
X137728328Y-107975132D01*
X137849055Y-108002450D01*
X137849060Y-108002451D01*
X137854692Y-108003725D01*
X137860463Y-108003952D01*
X137860465Y-108003952D01*
X137923470Y-108006427D01*
X138058263Y-108011723D01*
X138259883Y-107982490D01*
X138265347Y-107980635D01*
X138265352Y-107980634D01*
X138447327Y-107918862D01*
X138447332Y-107918860D01*
X138452799Y-107917004D01*
X138630551Y-107817458D01*
X138787186Y-107687186D01*
X138787757Y-107686500D01*
X140920500Y-107686500D01*
X142446500Y-107686500D01*
X143460500Y-107686500D01*
X144986500Y-107686500D01*
X146000500Y-107686500D01*
X147526500Y-107686500D01*
X148540500Y-107686500D01*
X150066500Y-107686500D01*
X150066500Y-106552539D01*
X149759539Y-106423505D01*
X149757117Y-106422457D01*
X149727957Y-106409474D01*
X149725557Y-106408375D01*
X149716009Y-106403882D01*
X149713633Y-106402733D01*
X149685048Y-106388543D01*
X149682698Y-106387346D01*
X149273484Y-106173414D01*
X149271155Y-106172165D01*
X149249938Y-106160500D01*
X148540500Y-106160500D01*
X148540500Y-107686500D01*
X147526500Y-107686500D01*
X147526500Y-106160500D01*
X146000500Y-106160500D01*
X146000500Y-107686500D01*
X144986500Y-107686500D01*
X144986500Y-106160500D01*
X143460500Y-106160500D01*
X143460500Y-107686500D01*
X142446500Y-107686500D01*
X142446500Y-106160500D01*
X141240988Y-106160500D01*
X141061368Y-106264204D01*
X141059068Y-106265500D01*
X141031093Y-106280879D01*
X141028767Y-106282126D01*
X141019415Y-106287015D01*
X141017066Y-106288212D01*
X140988485Y-106302400D01*
X140986108Y-106303549D01*
X140920500Y-106334422D01*
X140920500Y-107686500D01*
X138787757Y-107686500D01*
X138917458Y-107530551D01*
X139002073Y-107379461D01*
X139014180Y-107357842D01*
X139014181Y-107357840D01*
X139017004Y-107352799D01*
X139018860Y-107347332D01*
X139018862Y-107347327D01*
X139080634Y-107165352D01*
X139080635Y-107165347D01*
X139082490Y-107159883D01*
X139111723Y-106958263D01*
X139113249Y-106900000D01*
X139097074Y-106723959D01*
X139095137Y-106702880D01*
X139095136Y-106702877D01*
X139094608Y-106697126D01*
X139073058Y-106620718D01*
X139040875Y-106506606D01*
X139040874Y-106506604D01*
X139039307Y-106501047D01*
X139028680Y-106479496D01*
X138951756Y-106323510D01*
X138949201Y-106318329D01*
X138930796Y-106293681D01*
X138830758Y-106159715D01*
X138830758Y-106159714D01*
X138827305Y-106155091D01*
X138823069Y-106151175D01*
X138819197Y-106146875D01*
X138821143Y-106145123D01*
X138790429Y-106093718D01*
X138792745Y-106022760D01*
X138833056Y-105964317D01*
X138888807Y-105938415D01*
X139259005Y-105867796D01*
X139261534Y-105867090D01*
X139261542Y-105867088D01*
X139701221Y-105744328D01*
X139701232Y-105744324D01*
X139703755Y-105743620D01*
X139979857Y-105640938D01*
X140134082Y-105583583D01*
X140134088Y-105583580D01*
X140136555Y-105582663D01*
X140554368Y-105386055D01*
X140954264Y-105155175D01*
X140966746Y-105146500D01*
X143460500Y-105146500D01*
X144986500Y-105146500D01*
X146000500Y-105146500D01*
X147526500Y-105146500D01*
X147526500Y-104725937D01*
X147244846Y-104370577D01*
X147243230Y-104368495D01*
X147223951Y-104343097D01*
X147222379Y-104340980D01*
X147216176Y-104332443D01*
X147214645Y-104330289D01*
X147196413Y-104304057D01*
X147194929Y-104301873D01*
X146939395Y-103917263D01*
X146937959Y-103915052D01*
X146920879Y-103888139D01*
X146919491Y-103885900D01*
X146914024Y-103876874D01*
X146912679Y-103874601D01*
X146896700Y-103846927D01*
X146895402Y-103844624D01*
X146772189Y-103620500D01*
X146000500Y-103620500D01*
X146000500Y-105146500D01*
X144986500Y-105146500D01*
X144986500Y-103620500D01*
X143732711Y-103620500D01*
X143723744Y-103637652D01*
X143722495Y-103639982D01*
X143717411Y-103649229D01*
X143716116Y-103651527D01*
X143700171Y-103679143D01*
X143698829Y-103681411D01*
X143460500Y-104074940D01*
X143460500Y-105146500D01*
X140966746Y-105146500D01*
X141333438Y-104891642D01*
X141689230Y-104597305D01*
X141864216Y-104425946D01*
X142017256Y-104276079D01*
X142017258Y-104276077D01*
X142019145Y-104274229D01*
X142320869Y-103924678D01*
X142592285Y-103551107D01*
X142609211Y-103523160D01*
X142770003Y-103257659D01*
X142831489Y-103156133D01*
X143036804Y-102742529D01*
X143090662Y-102606500D01*
X144177440Y-102606500D01*
X144986500Y-102606500D01*
X144986500Y-101080500D01*
X144500998Y-101080500D01*
X144500439Y-101085818D01*
X144500135Y-101088441D01*
X144442262Y-101546560D01*
X144441905Y-101549172D01*
X144437252Y-101580686D01*
X144436840Y-101583285D01*
X144435081Y-101593690D01*
X144434613Y-101596291D01*
X144428622Y-101627705D01*
X144428100Y-101630298D01*
X144332094Y-102081968D01*
X144331517Y-102084547D01*
X144324217Y-102115666D01*
X144323586Y-102118233D01*
X144320961Y-102128454D01*
X144320280Y-102130996D01*
X144311710Y-102161689D01*
X144310974Y-102164222D01*
X144177511Y-102606274D01*
X144177440Y-102606500D01*
X143090662Y-102606500D01*
X143206789Y-102313196D01*
X143340252Y-101871144D01*
X143348165Y-101833920D01*
X143435711Y-101422047D01*
X143436258Y-101419474D01*
X143494131Y-100961355D01*
X143503791Y-100730880D01*
X146991368Y-100730880D01*
X147030007Y-101191021D01*
X147030449Y-101193634D01*
X147102606Y-101620244D01*
X147107015Y-101646314D01*
X147154087Y-101829649D01*
X147219534Y-102084547D01*
X147221850Y-102093568D01*
X147373707Y-102529643D01*
X147561522Y-102951482D01*
X147783977Y-103356125D01*
X147785429Y-103358311D01*
X147785433Y-103358317D01*
X147914939Y-103553239D01*
X148039511Y-103740735D01*
X148123678Y-103846927D01*
X148281380Y-104045898D01*
X148326332Y-104102614D01*
X148328145Y-104104544D01*
X148328147Y-104104547D01*
X148550173Y-104340980D01*
X148642429Y-104439222D01*
X148985583Y-104748200D01*
X149353389Y-105027380D01*
X149355620Y-105028796D01*
X149355626Y-105028800D01*
X149677538Y-105233091D01*
X149743266Y-105274803D01*
X149745593Y-105276019D01*
X149745599Y-105276023D01*
X150150142Y-105487513D01*
X150150147Y-105487515D01*
X150152480Y-105488735D01*
X150578159Y-105667674D01*
X150580667Y-105668489D01*
X150580670Y-105668490D01*
X151014804Y-105809549D01*
X151014808Y-105809550D01*
X151017319Y-105810366D01*
X151338502Y-105885699D01*
X151464303Y-105915205D01*
X151464307Y-105915206D01*
X151466879Y-105915809D01*
X151469496Y-105916196D01*
X151469499Y-105916196D01*
X151683907Y-105947857D01*
X151748375Y-105977595D01*
X151786530Y-106037467D01*
X151791500Y-106072505D01*
X151791500Y-106089760D01*
X151771498Y-106157881D01*
X151748577Y-106184492D01*
X151696824Y-106229878D01*
X151696820Y-106229882D01*
X151692478Y-106233690D01*
X151688903Y-106238225D01*
X151688902Y-106238226D01*
X151668423Y-106264204D01*
X151566351Y-106393681D01*
X151563662Y-106398792D01*
X151563660Y-106398795D01*
X151555817Y-106413702D01*
X151471492Y-106573978D01*
X151411078Y-106768543D01*
X151387132Y-106970859D01*
X151400457Y-107174151D01*
X151450605Y-107371610D01*
X151535898Y-107556624D01*
X151653479Y-107722997D01*
X151657613Y-107727024D01*
X151769324Y-107835848D01*
X151799410Y-107865157D01*
X151804206Y-107868362D01*
X151804209Y-107868364D01*
X151856514Y-107903313D01*
X151968803Y-107978342D01*
X151974106Y-107980620D01*
X151974109Y-107980622D01*
X152063115Y-108018862D01*
X152155987Y-108058763D01*
X152228817Y-108075243D01*
X152349055Y-108102450D01*
X152349060Y-108102451D01*
X152354692Y-108103725D01*
X152360463Y-108103952D01*
X152360465Y-108103952D01*
X152423470Y-108106427D01*
X152558263Y-108111723D01*
X152759883Y-108082490D01*
X152765347Y-108080635D01*
X152765352Y-108080634D01*
X152947327Y-108018862D01*
X152947332Y-108018860D01*
X152952799Y-108017004D01*
X152962635Y-108011496D01*
X153054519Y-107960038D01*
X153130551Y-107917458D01*
X153287186Y-107787186D01*
X153370926Y-107686500D01*
X154508501Y-107686500D01*
X155146500Y-107686500D01*
X156160500Y-107686500D01*
X157686500Y-107686500D01*
X158700500Y-107686500D01*
X160226500Y-107686500D01*
X161240500Y-107686500D01*
X162766500Y-107686500D01*
X163780500Y-107686500D01*
X165306500Y-107686500D01*
X165306500Y-106645589D01*
X165264816Y-106632045D01*
X165262318Y-106631204D01*
X165232204Y-106620718D01*
X165229722Y-106619825D01*
X165219831Y-106616147D01*
X165217366Y-106615201D01*
X165187664Y-106603442D01*
X165185218Y-106602444D01*
X164759539Y-106423505D01*
X164757117Y-106422457D01*
X164727957Y-106409474D01*
X164725557Y-106408375D01*
X164716009Y-106403882D01*
X164713633Y-106402733D01*
X164685048Y-106388543D01*
X164682698Y-106387346D01*
X164273484Y-106173414D01*
X164271155Y-106172165D01*
X164249938Y-106160500D01*
X163780500Y-106160500D01*
X163780500Y-107686500D01*
X162766500Y-107686500D01*
X162766500Y-106160500D01*
X161240500Y-106160500D01*
X161240500Y-107686500D01*
X160226500Y-107686500D01*
X160226500Y-106160500D01*
X158700500Y-106160500D01*
X158700500Y-107686500D01*
X157686500Y-107686500D01*
X157686500Y-106160500D01*
X156160500Y-106160500D01*
X156160500Y-107686500D01*
X155146500Y-107686500D01*
X155146500Y-106463357D01*
X155068295Y-106500157D01*
X155065899Y-106501254D01*
X155036786Y-106514217D01*
X155034368Y-106515264D01*
X155024640Y-106519354D01*
X155022195Y-106520352D01*
X154992476Y-106532120D01*
X154990007Y-106533068D01*
X154600817Y-106677806D01*
X154603695Y-106698611D01*
X154604354Y-106704346D01*
X154622995Y-106907220D01*
X154623280Y-106910919D01*
X154626067Y-106955679D01*
X154626243Y-106959381D01*
X154626729Y-106974209D01*
X154626796Y-106977922D01*
X154626944Y-107022835D01*
X154626902Y-107026549D01*
X154625376Y-107084812D01*
X154625224Y-107088521D01*
X154622727Y-107133343D01*
X154622466Y-107137045D01*
X154621205Y-107151826D01*
X154620835Y-107155516D01*
X154615708Y-107200083D01*
X154615230Y-107203763D01*
X154585997Y-107405383D01*
X154585038Y-107411077D01*
X154571867Y-107479628D01*
X154570648Y-107485269D01*
X154565265Y-107507690D01*
X154563790Y-107513269D01*
X154544407Y-107580314D01*
X154542677Y-107585821D01*
X154508501Y-107686500D01*
X153370926Y-107686500D01*
X153417458Y-107630551D01*
X153517004Y-107452799D01*
X153518860Y-107447332D01*
X153518862Y-107447327D01*
X153580634Y-107265352D01*
X153580635Y-107265347D01*
X153582490Y-107259883D01*
X153611723Y-107058263D01*
X153613249Y-107000000D01*
X153594608Y-106797126D01*
X153582519Y-106754263D01*
X153540875Y-106606606D01*
X153540874Y-106606604D01*
X153539307Y-106601047D01*
X153528680Y-106579496D01*
X153451756Y-106423510D01*
X153449201Y-106418329D01*
X153430796Y-106393681D01*
X153330758Y-106259715D01*
X153330758Y-106259714D01*
X153327305Y-106255091D01*
X153304154Y-106233690D01*
X153248971Y-106182680D01*
X153212526Y-106121751D01*
X153208500Y-106090155D01*
X153208500Y-106077046D01*
X153228502Y-106008925D01*
X153282158Y-105962432D01*
X153310888Y-105953279D01*
X153759005Y-105867796D01*
X153761534Y-105867090D01*
X153761542Y-105867088D01*
X154201221Y-105744328D01*
X154201232Y-105744324D01*
X154203755Y-105743620D01*
X154479857Y-105640938D01*
X154634082Y-105583583D01*
X154634088Y-105583580D01*
X154636555Y-105582663D01*
X155054368Y-105386055D01*
X155454264Y-105155175D01*
X155466746Y-105146500D01*
X158700500Y-105146500D01*
X160226500Y-105146500D01*
X161240500Y-105146500D01*
X162766500Y-105146500D01*
X162766500Y-104987724D01*
X162587159Y-104796746D01*
X162585369Y-104794800D01*
X162563979Y-104771042D01*
X162562232Y-104769060D01*
X162555337Y-104761071D01*
X162553638Y-104759059D01*
X162533326Y-104734505D01*
X162531667Y-104732456D01*
X162244846Y-104370577D01*
X162243230Y-104368495D01*
X162223951Y-104343097D01*
X162222379Y-104340980D01*
X162216176Y-104332443D01*
X162214645Y-104330289D01*
X162196413Y-104304057D01*
X162194929Y-104301873D01*
X161939395Y-103917263D01*
X161937959Y-103915052D01*
X161920879Y-103888139D01*
X161919491Y-103885900D01*
X161914024Y-103876874D01*
X161912679Y-103874601D01*
X161896700Y-103846927D01*
X161895402Y-103844624D01*
X161772189Y-103620500D01*
X161240500Y-103620500D01*
X161240500Y-105146500D01*
X160226500Y-105146500D01*
X160226500Y-103620500D01*
X158700500Y-103620500D01*
X158700500Y-105146500D01*
X155466746Y-105146500D01*
X155833438Y-104891642D01*
X156189230Y-104597305D01*
X156364216Y-104425946D01*
X156517256Y-104276079D01*
X156517258Y-104276077D01*
X156519145Y-104274229D01*
X156820869Y-103924678D01*
X157092285Y-103551107D01*
X157109211Y-103523160D01*
X157270003Y-103257659D01*
X157331489Y-103156133D01*
X157536804Y-102742529D01*
X157590662Y-102606500D01*
X158700500Y-102606500D01*
X160226500Y-102606500D01*
X160226500Y-101080500D01*
X159000998Y-101080500D01*
X159000439Y-101085818D01*
X159000135Y-101088441D01*
X158942262Y-101546560D01*
X158941905Y-101549172D01*
X158937252Y-101580686D01*
X158936840Y-101583285D01*
X158935081Y-101593690D01*
X158934613Y-101596291D01*
X158928622Y-101627705D01*
X158928100Y-101630298D01*
X158832094Y-102081968D01*
X158831517Y-102084547D01*
X158824217Y-102115666D01*
X158823586Y-102118233D01*
X158820961Y-102128454D01*
X158820280Y-102130996D01*
X158811710Y-102161689D01*
X158810974Y-102164222D01*
X158700500Y-102530130D01*
X158700500Y-102606500D01*
X157590662Y-102606500D01*
X157706789Y-102313196D01*
X157840252Y-101871144D01*
X157848165Y-101833920D01*
X157935711Y-101422047D01*
X157936258Y-101419474D01*
X157994131Y-100961355D01*
X158003791Y-100730880D01*
X161991368Y-100730880D01*
X162030007Y-101191021D01*
X162030449Y-101193634D01*
X162102606Y-101620244D01*
X162107015Y-101646314D01*
X162154087Y-101829649D01*
X162219534Y-102084547D01*
X162221850Y-102093568D01*
X162373707Y-102529643D01*
X162561522Y-102951482D01*
X162783977Y-103356125D01*
X162785429Y-103358311D01*
X162785433Y-103358317D01*
X162914939Y-103553239D01*
X163039511Y-103740735D01*
X163123678Y-103846927D01*
X163281380Y-104045898D01*
X163326332Y-104102614D01*
X163328145Y-104104544D01*
X163328147Y-104104547D01*
X163550173Y-104340980D01*
X163642429Y-104439222D01*
X163985583Y-104748200D01*
X164353389Y-105027380D01*
X164355620Y-105028796D01*
X164355626Y-105028800D01*
X164677538Y-105233091D01*
X164743266Y-105274803D01*
X164745593Y-105276019D01*
X164745599Y-105276023D01*
X165150142Y-105487513D01*
X165150147Y-105487515D01*
X165152480Y-105488735D01*
X165578159Y-105667674D01*
X165580667Y-105668489D01*
X165580670Y-105668490D01*
X166014804Y-105809549D01*
X166014808Y-105809550D01*
X166017319Y-105810366D01*
X166338502Y-105885699D01*
X166464303Y-105915205D01*
X166464307Y-105915206D01*
X166466879Y-105915809D01*
X166469496Y-105916196D01*
X166469499Y-105916196D01*
X166683907Y-105947857D01*
X166748375Y-105977595D01*
X166786530Y-106037467D01*
X166791500Y-106072505D01*
X166791500Y-106089760D01*
X166771498Y-106157881D01*
X166748577Y-106184492D01*
X166696824Y-106229878D01*
X166696820Y-106229882D01*
X166692478Y-106233690D01*
X166688903Y-106238225D01*
X166688902Y-106238226D01*
X166668423Y-106264204D01*
X166566351Y-106393681D01*
X166563662Y-106398792D01*
X166563660Y-106398795D01*
X166555817Y-106413702D01*
X166471492Y-106573978D01*
X166411078Y-106768543D01*
X166387132Y-106970859D01*
X166400457Y-107174151D01*
X166450605Y-107371610D01*
X166535898Y-107556624D01*
X166653479Y-107722997D01*
X166657613Y-107727024D01*
X166769324Y-107835848D01*
X166799410Y-107865157D01*
X166804206Y-107868362D01*
X166804209Y-107868364D01*
X166856514Y-107903313D01*
X166968803Y-107978342D01*
X166974106Y-107980620D01*
X166974109Y-107980622D01*
X167063115Y-108018862D01*
X167155987Y-108058763D01*
X167228817Y-108075243D01*
X167349055Y-108102450D01*
X167349060Y-108102451D01*
X167354692Y-108103725D01*
X167360463Y-108103952D01*
X167360465Y-108103952D01*
X167423470Y-108106427D01*
X167558263Y-108111723D01*
X167759883Y-108082490D01*
X167765347Y-108080635D01*
X167765352Y-108080634D01*
X167947327Y-108018862D01*
X167947332Y-108018860D01*
X167952799Y-108017004D01*
X167962635Y-108011496D01*
X168054519Y-107960038D01*
X168130551Y-107917458D01*
X168287186Y-107787186D01*
X168370926Y-107686500D01*
X169508501Y-107686500D01*
X170386500Y-107686500D01*
X171400500Y-107686500D01*
X172926500Y-107686500D01*
X173940500Y-107686500D01*
X175466500Y-107686500D01*
X176480500Y-107686500D01*
X178006500Y-107686500D01*
X179020500Y-107686500D01*
X180487472Y-107686500D01*
X180469353Y-107626769D01*
X180467805Y-107621208D01*
X180417657Y-107423749D01*
X180416365Y-107418124D01*
X180402300Y-107349758D01*
X180401266Y-107344078D01*
X180397659Y-107321304D01*
X180396887Y-107315583D01*
X180389138Y-107246220D01*
X180388629Y-107240472D01*
X180375304Y-107037180D01*
X180375058Y-107031415D01*
X180373687Y-106961649D01*
X180373706Y-106955878D01*
X180374309Y-106932827D01*
X180374592Y-106927061D01*
X180379613Y-106857423D01*
X180380160Y-106851674D01*
X180400921Y-106676268D01*
X180264816Y-106632045D01*
X180262318Y-106631204D01*
X180232204Y-106620718D01*
X180229722Y-106619825D01*
X180219831Y-106616147D01*
X180217366Y-106615201D01*
X180187664Y-106603442D01*
X180185218Y-106602444D01*
X179759539Y-106423505D01*
X179757117Y-106422457D01*
X179727957Y-106409474D01*
X179725557Y-106408375D01*
X179716009Y-106403882D01*
X179713633Y-106402733D01*
X179685048Y-106388543D01*
X179682698Y-106387346D01*
X179273484Y-106173414D01*
X179271155Y-106172165D01*
X179249938Y-106160500D01*
X179020500Y-106160500D01*
X179020500Y-107686500D01*
X178006500Y-107686500D01*
X178006500Y-106160500D01*
X176480500Y-106160500D01*
X176480500Y-107686500D01*
X175466500Y-107686500D01*
X175466500Y-106160500D01*
X173940500Y-106160500D01*
X173940500Y-107686500D01*
X172926500Y-107686500D01*
X172926500Y-106160500D01*
X171400500Y-106160500D01*
X171400500Y-107686500D01*
X170386500Y-107686500D01*
X170386500Y-106350421D01*
X170068295Y-106500157D01*
X170065899Y-106501254D01*
X170036786Y-106514217D01*
X170034368Y-106515264D01*
X170024640Y-106519354D01*
X170022195Y-106520352D01*
X169992476Y-106532120D01*
X169990007Y-106533068D01*
X169600817Y-106677806D01*
X169603695Y-106698611D01*
X169604354Y-106704346D01*
X169622995Y-106907220D01*
X169623280Y-106910919D01*
X169626067Y-106955679D01*
X169626243Y-106959381D01*
X169626729Y-106974209D01*
X169626796Y-106977922D01*
X169626944Y-107022835D01*
X169626902Y-107026549D01*
X169625376Y-107084812D01*
X169625224Y-107088521D01*
X169622727Y-107133343D01*
X169622466Y-107137045D01*
X169621205Y-107151826D01*
X169620835Y-107155516D01*
X169615708Y-107200083D01*
X169615230Y-107203763D01*
X169585997Y-107405383D01*
X169585038Y-107411077D01*
X169571867Y-107479628D01*
X169570648Y-107485269D01*
X169565265Y-107507690D01*
X169563790Y-107513269D01*
X169544407Y-107580314D01*
X169542677Y-107585821D01*
X169508501Y-107686500D01*
X168370926Y-107686500D01*
X168417458Y-107630551D01*
X168517004Y-107452799D01*
X168518860Y-107447332D01*
X168518862Y-107447327D01*
X168580634Y-107265352D01*
X168580635Y-107265347D01*
X168582490Y-107259883D01*
X168611723Y-107058263D01*
X168613249Y-107000000D01*
X168594608Y-106797126D01*
X168582519Y-106754263D01*
X168540875Y-106606606D01*
X168540874Y-106606604D01*
X168539307Y-106601047D01*
X168528680Y-106579496D01*
X168451756Y-106423510D01*
X168449201Y-106418329D01*
X168430796Y-106393681D01*
X168330758Y-106259715D01*
X168330758Y-106259714D01*
X168327305Y-106255091D01*
X168304154Y-106233690D01*
X168248971Y-106182680D01*
X168212526Y-106121751D01*
X168208500Y-106090155D01*
X168208500Y-106077046D01*
X168228502Y-106008925D01*
X168282158Y-105962432D01*
X168310888Y-105953279D01*
X168759005Y-105867796D01*
X168761534Y-105867090D01*
X168761542Y-105867088D01*
X169201221Y-105744328D01*
X169201232Y-105744324D01*
X169203755Y-105743620D01*
X169479857Y-105640938D01*
X169634082Y-105583583D01*
X169634088Y-105583580D01*
X169636555Y-105582663D01*
X170054368Y-105386055D01*
X170454264Y-105155175D01*
X170466746Y-105146500D01*
X173940500Y-105146500D01*
X175466500Y-105146500D01*
X176480500Y-105146500D01*
X177916091Y-105146500D01*
X177905081Y-105135257D01*
X177903256Y-105133354D01*
X177587159Y-104796746D01*
X177585369Y-104794800D01*
X177563979Y-104771042D01*
X177562232Y-104769060D01*
X177555337Y-104761071D01*
X177553638Y-104759059D01*
X177533326Y-104734505D01*
X177531667Y-104732456D01*
X177244846Y-104370577D01*
X177243230Y-104368495D01*
X177223951Y-104343097D01*
X177222379Y-104340980D01*
X177216176Y-104332443D01*
X177214645Y-104330289D01*
X177196413Y-104304057D01*
X177194929Y-104301873D01*
X176939395Y-103917263D01*
X176937959Y-103915052D01*
X176920879Y-103888139D01*
X176919491Y-103885900D01*
X176914024Y-103876874D01*
X176912679Y-103874601D01*
X176896700Y-103846927D01*
X176895402Y-103844624D01*
X176772189Y-103620500D01*
X176480500Y-103620500D01*
X176480500Y-105146500D01*
X175466500Y-105146500D01*
X175466500Y-103620500D01*
X173940500Y-103620500D01*
X173940500Y-105146500D01*
X170466746Y-105146500D01*
X170833438Y-104891642D01*
X171189230Y-104597305D01*
X171364216Y-104425946D01*
X171517256Y-104276079D01*
X171517258Y-104276077D01*
X171519145Y-104274229D01*
X171820869Y-103924678D01*
X172092285Y-103551107D01*
X172109211Y-103523160D01*
X172270003Y-103257659D01*
X172331489Y-103156133D01*
X172536804Y-102742529D01*
X172590662Y-102606500D01*
X173940500Y-102606500D01*
X175466500Y-102606500D01*
X175466500Y-101080500D01*
X174000998Y-101080500D01*
X174000439Y-101085818D01*
X174000135Y-101088441D01*
X173942262Y-101546560D01*
X173941905Y-101549172D01*
X173940500Y-101558688D01*
X173940500Y-102606500D01*
X172590662Y-102606500D01*
X172706789Y-102313196D01*
X172840252Y-101871144D01*
X172848165Y-101833920D01*
X172935711Y-101422047D01*
X172936258Y-101419474D01*
X172994131Y-100961355D01*
X173003791Y-100730880D01*
X176991368Y-100730880D01*
X177030007Y-101191021D01*
X177030449Y-101193634D01*
X177102606Y-101620244D01*
X177107015Y-101646314D01*
X177154087Y-101829649D01*
X177219534Y-102084547D01*
X177221850Y-102093568D01*
X177373707Y-102529643D01*
X177561522Y-102951482D01*
X177783977Y-103356125D01*
X177785429Y-103358311D01*
X177785433Y-103358317D01*
X177914939Y-103553239D01*
X178039511Y-103740735D01*
X178123678Y-103846927D01*
X178281380Y-104045898D01*
X178326332Y-104102614D01*
X178328145Y-104104544D01*
X178328147Y-104104547D01*
X178550173Y-104340980D01*
X178642429Y-104439222D01*
X178985583Y-104748200D01*
X179353389Y-105027380D01*
X179355620Y-105028796D01*
X179355626Y-105028800D01*
X179677538Y-105233091D01*
X179743266Y-105274803D01*
X179745593Y-105276019D01*
X179745599Y-105276023D01*
X180150142Y-105487513D01*
X180150147Y-105487515D01*
X180152480Y-105488735D01*
X180578159Y-105667674D01*
X180580667Y-105668489D01*
X180580670Y-105668490D01*
X181014804Y-105809549D01*
X181014808Y-105809550D01*
X181017319Y-105810366D01*
X181338502Y-105885699D01*
X181464303Y-105915205D01*
X181464307Y-105915206D01*
X181466879Y-105915809D01*
X181469496Y-105916196D01*
X181469499Y-105916196D01*
X181683907Y-105947857D01*
X181748375Y-105977595D01*
X181786530Y-106037467D01*
X181791500Y-106072505D01*
X181791500Y-106089760D01*
X181771498Y-106157881D01*
X181748577Y-106184492D01*
X181696824Y-106229878D01*
X181696820Y-106229882D01*
X181692478Y-106233690D01*
X181688903Y-106238225D01*
X181688902Y-106238226D01*
X181668423Y-106264204D01*
X181566351Y-106393681D01*
X181563662Y-106398792D01*
X181563660Y-106398795D01*
X181555817Y-106413702D01*
X181471492Y-106573978D01*
X181411078Y-106768543D01*
X181387132Y-106970859D01*
X181400457Y-107174151D01*
X181450605Y-107371610D01*
X181535898Y-107556624D01*
X181653479Y-107722997D01*
X181657613Y-107727024D01*
X181769324Y-107835848D01*
X181799410Y-107865157D01*
X181804206Y-107868362D01*
X181804209Y-107868364D01*
X181856514Y-107903313D01*
X181968803Y-107978342D01*
X181974106Y-107980620D01*
X181974109Y-107980622D01*
X182063115Y-108018862D01*
X182155987Y-108058763D01*
X182228817Y-108075243D01*
X182349055Y-108102450D01*
X182349060Y-108102451D01*
X182354692Y-108103725D01*
X182360463Y-108103952D01*
X182360465Y-108103952D01*
X182423470Y-108106427D01*
X182558263Y-108111723D01*
X182759883Y-108082490D01*
X182765347Y-108080635D01*
X182765352Y-108080634D01*
X182947327Y-108018862D01*
X182947332Y-108018860D01*
X182952799Y-108017004D01*
X182962635Y-108011496D01*
X183054519Y-107960038D01*
X183130551Y-107917458D01*
X183287186Y-107787186D01*
X183370926Y-107686500D01*
X184508501Y-107686500D01*
X185626500Y-107686500D01*
X186640500Y-107686500D01*
X188166500Y-107686500D01*
X189180500Y-107686500D01*
X190706500Y-107686500D01*
X191720500Y-107686500D01*
X193246500Y-107686500D01*
X193246500Y-107458722D01*
X193180941Y-107400002D01*
X193179354Y-107398556D01*
X193160337Y-107380930D01*
X193158779Y-107379461D01*
X193152590Y-107373526D01*
X193151055Y-107372029D01*
X193132644Y-107353762D01*
X193131135Y-107352239D01*
X192726848Y-106937227D01*
X192725362Y-106935675D01*
X192707555Y-106916761D01*
X192706096Y-106915185D01*
X192700325Y-106908842D01*
X192698900Y-106907248D01*
X192681806Y-106887807D01*
X192680405Y-106886186D01*
X192305282Y-106444638D01*
X192303905Y-106442989D01*
X192287445Y-106422931D01*
X192286100Y-106421264D01*
X192280774Y-106414544D01*
X192279460Y-106412856D01*
X192263709Y-106392274D01*
X192262419Y-106390558D01*
X192092495Y-106160500D01*
X191720500Y-106160500D01*
X191720500Y-107686500D01*
X190706500Y-107686500D01*
X190706500Y-106160500D01*
X189180500Y-106160500D01*
X189180500Y-107686500D01*
X188166500Y-107686500D01*
X188166500Y-106160500D01*
X186640500Y-106160500D01*
X186640500Y-107686500D01*
X185626500Y-107686500D01*
X185626500Y-106226600D01*
X185561368Y-106264204D01*
X185559068Y-106265500D01*
X185531093Y-106280879D01*
X185528767Y-106282126D01*
X185519415Y-106287015D01*
X185517066Y-106288212D01*
X185488485Y-106302400D01*
X185486108Y-106303549D01*
X185068295Y-106500157D01*
X185065899Y-106501254D01*
X185036786Y-106514217D01*
X185034368Y-106515264D01*
X185024640Y-106519354D01*
X185022195Y-106520352D01*
X184992476Y-106532120D01*
X184990007Y-106533068D01*
X184600817Y-106677806D01*
X184603695Y-106698611D01*
X184604354Y-106704346D01*
X184622995Y-106907220D01*
X184623280Y-106910919D01*
X184626067Y-106955679D01*
X184626243Y-106959381D01*
X184626729Y-106974209D01*
X184626796Y-106977922D01*
X184626944Y-107022835D01*
X184626902Y-107026549D01*
X184625376Y-107084812D01*
X184625224Y-107088521D01*
X184622727Y-107133343D01*
X184622466Y-107137045D01*
X184621205Y-107151826D01*
X184620835Y-107155516D01*
X184615708Y-107200083D01*
X184615230Y-107203763D01*
X184585997Y-107405383D01*
X184585038Y-107411077D01*
X184571867Y-107479628D01*
X184570648Y-107485269D01*
X184565265Y-107507690D01*
X184563790Y-107513269D01*
X184544407Y-107580314D01*
X184542677Y-107585821D01*
X184508501Y-107686500D01*
X183370926Y-107686500D01*
X183417458Y-107630551D01*
X183517004Y-107452799D01*
X183518860Y-107447332D01*
X183518862Y-107447327D01*
X183580634Y-107265352D01*
X183580635Y-107265347D01*
X183582490Y-107259883D01*
X183611723Y-107058263D01*
X183613249Y-107000000D01*
X183594608Y-106797126D01*
X183582519Y-106754263D01*
X183540875Y-106606606D01*
X183540874Y-106606604D01*
X183539307Y-106601047D01*
X183528680Y-106579496D01*
X183451756Y-106423510D01*
X183449201Y-106418329D01*
X183430796Y-106393681D01*
X183330758Y-106259715D01*
X183330758Y-106259714D01*
X183327305Y-106255091D01*
X183304154Y-106233690D01*
X183248971Y-106182680D01*
X183212526Y-106121751D01*
X183208500Y-106090155D01*
X183208500Y-106077046D01*
X183228502Y-106008925D01*
X183282158Y-105962432D01*
X183310888Y-105953279D01*
X183759005Y-105867796D01*
X183761534Y-105867090D01*
X183761542Y-105867088D01*
X184201221Y-105744328D01*
X184201232Y-105744324D01*
X184203755Y-105743620D01*
X184479857Y-105640938D01*
X184634082Y-105583583D01*
X184634088Y-105583580D01*
X184636555Y-105582663D01*
X185054368Y-105386055D01*
X185454264Y-105155175D01*
X185466746Y-105146500D01*
X187077679Y-105146500D01*
X188166500Y-105146500D01*
X189180500Y-105146500D01*
X190706500Y-105146500D01*
X190706500Y-103620500D01*
X189180500Y-103620500D01*
X189180500Y-105146500D01*
X188166500Y-105146500D01*
X188166500Y-103734793D01*
X187959625Y-104076385D01*
X187958234Y-104078629D01*
X187941134Y-104105574D01*
X187939697Y-104107786D01*
X187933857Y-104116576D01*
X187932373Y-104118759D01*
X187914155Y-104144971D01*
X187912627Y-104147122D01*
X187641211Y-104520693D01*
X187639639Y-104522810D01*
X187620334Y-104548244D01*
X187618714Y-104550333D01*
X187612159Y-104558603D01*
X187610499Y-104560653D01*
X187590165Y-104585232D01*
X187588462Y-104587246D01*
X187286738Y-104936797D01*
X187284994Y-104938775D01*
X187263645Y-104962486D01*
X187261859Y-104964429D01*
X187254635Y-104972122D01*
X187252808Y-104974027D01*
X187230469Y-104996839D01*
X187228602Y-104998706D01*
X187077679Y-105146500D01*
X185466746Y-105146500D01*
X185833438Y-104891642D01*
X186189230Y-104597305D01*
X186364216Y-104425946D01*
X186517256Y-104276079D01*
X186517258Y-104276077D01*
X186519145Y-104274229D01*
X186820869Y-103924678D01*
X187092285Y-103551107D01*
X187109211Y-103523160D01*
X187270003Y-103257659D01*
X187331489Y-103156133D01*
X187536804Y-102742529D01*
X187590662Y-102606500D01*
X189180500Y-102606500D01*
X190463272Y-102606500D01*
X190407989Y-102367992D01*
X190407523Y-102365898D01*
X190402099Y-102340542D01*
X190401668Y-102338443D01*
X190400017Y-102330028D01*
X190399623Y-102327923D01*
X190395063Y-102302391D01*
X190394703Y-102300274D01*
X190302570Y-101728265D01*
X190302247Y-101726140D01*
X190298552Y-101700411D01*
X190298264Y-101698282D01*
X190297190Y-101689775D01*
X190296940Y-101687649D01*
X190294136Y-101661929D01*
X190293923Y-101659802D01*
X190240909Y-101082851D01*
X190240731Y-101080721D01*
X190240714Y-101080500D01*
X189180500Y-101080500D01*
X189180500Y-102606500D01*
X187590662Y-102606500D01*
X187706789Y-102313196D01*
X187840252Y-101871144D01*
X187848165Y-101833920D01*
X187935711Y-101422047D01*
X187936258Y-101419474D01*
X187994131Y-100961355D01*
X188013468Y-100500000D01*
X188009731Y-100410849D01*
X191237004Y-100410849D01*
X191239167Y-100502648D01*
X191240337Y-100552300D01*
X191249268Y-100931241D01*
X191250654Y-100990069D01*
X191259452Y-101085818D01*
X191290111Y-101419474D01*
X191303668Y-101567020D01*
X191313860Y-101630298D01*
X191388479Y-102093568D01*
X191395801Y-102139029D01*
X191526626Y-102703446D01*
X191695537Y-103257659D01*
X191901752Y-103799100D01*
X191902655Y-103801058D01*
X191902658Y-103801066D01*
X192015528Y-104045898D01*
X192144316Y-104325261D01*
X192422105Y-104833705D01*
X192544706Y-105025780D01*
X192704435Y-105276023D01*
X192733832Y-105322079D01*
X193078055Y-105788119D01*
X193079451Y-105789762D01*
X193079454Y-105789766D01*
X193413260Y-106182680D01*
X193453178Y-106229667D01*
X193454675Y-106231204D01*
X193454678Y-106231207D01*
X193855971Y-106643146D01*
X193855980Y-106643155D01*
X193857465Y-106644679D01*
X194289042Y-107031232D01*
X194336679Y-107068383D01*
X194744225Y-107386221D01*
X194744237Y-107386230D01*
X194745912Y-107387536D01*
X194747690Y-107388737D01*
X194747692Y-107388739D01*
X194780747Y-107411077D01*
X195225958Y-107711941D01*
X195407619Y-107817458D01*
X195725109Y-108001871D01*
X195725118Y-108001876D01*
X195726957Y-108002944D01*
X196246588Y-108259198D01*
X196502769Y-108364527D01*
X196780474Y-108478706D01*
X196780484Y-108478710D01*
X196782445Y-108479516D01*
X197047780Y-108568038D01*
X197330019Y-108662200D01*
X197330026Y-108662202D01*
X197332046Y-108662876D01*
X197892846Y-108808431D01*
X197894943Y-108808825D01*
X197894946Y-108808826D01*
X197901168Y-108809996D01*
X198462247Y-108915506D01*
X198464354Y-108915755D01*
X198464358Y-108915756D01*
X198673894Y-108940556D01*
X199037612Y-108983605D01*
X199039758Y-108983712D01*
X199039760Y-108983712D01*
X199614143Y-109012307D01*
X199614149Y-109012307D01*
X199616276Y-109012413D01*
X199618405Y-109012374D01*
X199618407Y-109012374D01*
X199764164Y-109009703D01*
X200195560Y-109001796D01*
X200575116Y-108968923D01*
X200770635Y-108951989D01*
X200770639Y-108951989D01*
X200772781Y-108951803D01*
X201345264Y-108862666D01*
X201723283Y-108777129D01*
X201908274Y-108735270D01*
X201908280Y-108735268D01*
X201910359Y-108734798D01*
X201929302Y-108729133D01*
X202086880Y-108682007D01*
X202465448Y-108568791D01*
X202467445Y-108568042D01*
X202467458Y-108568038D01*
X202824739Y-108434100D01*
X203007961Y-108365414D01*
X203239770Y-108260017D01*
X203533442Y-108126493D01*
X203533456Y-108126486D01*
X203535385Y-108125609D01*
X203537256Y-108124600D01*
X203537265Y-108124595D01*
X204043381Y-107851509D01*
X204043380Y-107851509D01*
X204045277Y-107850486D01*
X204305179Y-107686500D01*
X206960500Y-107686500D01*
X208486500Y-107686500D01*
X209500500Y-107686500D01*
X211026500Y-107686500D01*
X211026500Y-106160500D01*
X209500500Y-106160500D01*
X209500500Y-107686500D01*
X208486500Y-107686500D01*
X208486500Y-106160500D01*
X207413164Y-106160500D01*
X207408868Y-106166145D01*
X207407552Y-106167844D01*
X207048860Y-106622842D01*
X207047515Y-106624519D01*
X207031087Y-106644642D01*
X207029715Y-106646292D01*
X207024180Y-106652841D01*
X207022787Y-106654462D01*
X207005744Y-106673947D01*
X207004319Y-106675548D01*
X206960500Y-106723959D01*
X206960500Y-107686500D01*
X204305179Y-107686500D01*
X204535276Y-107541320D01*
X204537001Y-107540060D01*
X204537011Y-107540053D01*
X205001381Y-107200807D01*
X205001389Y-107200801D01*
X205003112Y-107199542D01*
X205446619Y-106826736D01*
X205448147Y-106825263D01*
X205448157Y-106825254D01*
X205862193Y-106426121D01*
X205863742Y-106424628D01*
X206252549Y-105995080D01*
X206298665Y-105936583D01*
X206609916Y-105541763D01*
X206609919Y-105541759D01*
X206611241Y-105540082D01*
X206874300Y-105155175D01*
X206880229Y-105146500D01*
X209500500Y-105146500D01*
X211026500Y-105146500D01*
X211026500Y-103620500D01*
X209500500Y-103620500D01*
X209500500Y-105146500D01*
X206880229Y-105146500D01*
X206936939Y-105063522D01*
X206936946Y-105063511D01*
X206938155Y-105061742D01*
X207231777Y-104562273D01*
X207490748Y-104043991D01*
X207491565Y-104042033D01*
X207491571Y-104042020D01*
X207713045Y-103511268D01*
X207713048Y-103511260D01*
X207713868Y-103509295D01*
X207832981Y-103158401D01*
X207899412Y-102962701D01*
X207899413Y-102962697D01*
X207900104Y-102960662D01*
X207994008Y-102606500D01*
X209500500Y-102606500D01*
X211026500Y-102606500D01*
X211026500Y-101080500D01*
X209500500Y-101080500D01*
X209500500Y-102606500D01*
X207994008Y-102606500D01*
X208048593Y-102400632D01*
X208097669Y-102146978D01*
X208158238Y-101833920D01*
X208158240Y-101833910D01*
X208158648Y-101831799D01*
X208229759Y-101256798D01*
X208261596Y-100678293D01*
X208263463Y-100500000D01*
X208255692Y-100271750D01*
X208248704Y-100066500D01*
X209500500Y-100066500D01*
X211026500Y-100066500D01*
X211026500Y-98540500D01*
X209500500Y-98540500D01*
X209500500Y-100066500D01*
X208248704Y-100066500D01*
X208243821Y-99923085D01*
X208243820Y-99923072D01*
X208243748Y-99920954D01*
X208209137Y-99583146D01*
X208184914Y-99346726D01*
X208184913Y-99346722D01*
X208184695Y-99344590D01*
X208108977Y-98903935D01*
X208086941Y-98775696D01*
X208086941Y-98775694D01*
X208086577Y-98773578D01*
X208086073Y-98771503D01*
X208086070Y-98771488D01*
X207950355Y-98212644D01*
X207950354Y-98212640D01*
X207949849Y-98210561D01*
X207923391Y-98126900D01*
X207775786Y-97660182D01*
X207775143Y-97658148D01*
X207723419Y-97526500D01*
X209500500Y-97526500D01*
X211026500Y-97526500D01*
X211026500Y-96000500D01*
X209500500Y-96000500D01*
X209500500Y-97526500D01*
X207723419Y-97526500D01*
X207564054Y-97120891D01*
X207564052Y-97120887D01*
X207563270Y-97118896D01*
X207315210Y-96595304D01*
X207314162Y-96593433D01*
X207314156Y-96593421D01*
X207033162Y-96091671D01*
X207032112Y-96089796D01*
X206981298Y-96011995D01*
X206716455Y-95606502D01*
X206716452Y-95606498D01*
X206715287Y-95604714D01*
X206366203Y-95142304D01*
X206315775Y-95084191D01*
X205987876Y-94706320D01*
X205987873Y-94706317D01*
X205986477Y-94704708D01*
X205894904Y-94612654D01*
X205579388Y-94295483D01*
X205577866Y-94293953D01*
X205561982Y-94280023D01*
X206960500Y-94280023D01*
X207132060Y-94477729D01*
X207133452Y-94479361D01*
X207150130Y-94499255D01*
X207151495Y-94500912D01*
X207156891Y-94507576D01*
X207158226Y-94509253D01*
X207174183Y-94529660D01*
X207175487Y-94531358D01*
X207519084Y-94986500D01*
X208486500Y-94986500D01*
X209500500Y-94986500D01*
X211026500Y-94986500D01*
X211026500Y-93460500D01*
X209500500Y-93460500D01*
X209500500Y-94986500D01*
X208486500Y-94986500D01*
X208486500Y-93460500D01*
X206960500Y-93460500D01*
X206960500Y-94280023D01*
X205561982Y-94280023D01*
X205142265Y-93911940D01*
X205070569Y-93857223D01*
X204683396Y-93561743D01*
X204681689Y-93560440D01*
X204198272Y-93241080D01*
X203694254Y-92955339D01*
X203607225Y-92913548D01*
X203173899Y-92705467D01*
X203173893Y-92705464D01*
X203171968Y-92704540D01*
X203169988Y-92703750D01*
X203169981Y-92703747D01*
X202635811Y-92490635D01*
X202635807Y-92490634D01*
X202633833Y-92489846D01*
X202082342Y-92312251D01*
X202080279Y-92311738D01*
X202080270Y-92311736D01*
X201636280Y-92201449D01*
X204420500Y-92201449D01*
X204698360Y-92358975D01*
X204700220Y-92360051D01*
X204722610Y-92373254D01*
X204724453Y-92374362D01*
X204731764Y-92378843D01*
X204733578Y-92379976D01*
X204755403Y-92393868D01*
X204757197Y-92395032D01*
X204835104Y-92446500D01*
X205946500Y-92446500D01*
X206960500Y-92446500D01*
X208486500Y-92446500D01*
X209500500Y-92446500D01*
X211026500Y-92446500D01*
X211026500Y-90920500D01*
X209500500Y-90920500D01*
X209500500Y-92446500D01*
X208486500Y-92446500D01*
X208486500Y-90920500D01*
X206960500Y-90920500D01*
X206960500Y-92446500D01*
X205946500Y-92446500D01*
X205946500Y-90920500D01*
X204420500Y-90920500D01*
X204420500Y-92201449D01*
X201636280Y-92201449D01*
X201522133Y-92173095D01*
X201520048Y-92172577D01*
X200949557Y-92071470D01*
X200947445Y-92071242D01*
X200947442Y-92071242D01*
X200375649Y-92009630D01*
X200375638Y-92009629D01*
X200373511Y-92009400D01*
X199794576Y-91986654D01*
X199792457Y-91986715D01*
X199792447Y-91986715D01*
X199217580Y-92003274D01*
X199217574Y-92003274D01*
X199215435Y-92003336D01*
X199213303Y-92003543D01*
X199213290Y-92003544D01*
X198827569Y-92041025D01*
X198638770Y-92059371D01*
X198636651Y-92059724D01*
X198636641Y-92059725D01*
X198069354Y-92154148D01*
X198069350Y-92154149D01*
X198067252Y-92154498D01*
X197503527Y-92288276D01*
X197501470Y-92288915D01*
X197501469Y-92288915D01*
X196952263Y-92459448D01*
X196952255Y-92459451D01*
X196950206Y-92460087D01*
X196409852Y-92669134D01*
X195884969Y-92914449D01*
X195377986Y-93194896D01*
X194891251Y-93509177D01*
X194427020Y-93855835D01*
X194173515Y-94073499D01*
X193996761Y-94225263D01*
X193987441Y-94233265D01*
X193985915Y-94234768D01*
X193985912Y-94234770D01*
X193926002Y-94293746D01*
X193574552Y-94639719D01*
X193393035Y-94844526D01*
X193214320Y-95046172D01*
X193190264Y-95073314D01*
X192836357Y-95532043D01*
X192835158Y-95533838D01*
X192835154Y-95533843D01*
X192522814Y-96001294D01*
X192514470Y-96013781D01*
X192341268Y-96315598D01*
X192264331Y-96449667D01*
X192226094Y-96516297D01*
X191972565Y-97037263D01*
X191755056Y-97574266D01*
X191727558Y-97658148D01*
X191600346Y-98046207D01*
X191574575Y-98124820D01*
X191431959Y-98686374D01*
X191431575Y-98688478D01*
X191431573Y-98688486D01*
X191390122Y-98915453D01*
X191327867Y-99256328D01*
X191327624Y-99258476D01*
X191327624Y-99258477D01*
X191265684Y-99806366D01*
X191262781Y-99832041D01*
X191237004Y-100410849D01*
X188009731Y-100410849D01*
X187995299Y-100066500D01*
X189180500Y-100066500D01*
X190237336Y-100066500D01*
X190249786Y-99786927D01*
X190249899Y-99784785D01*
X190251495Y-99758878D01*
X190251646Y-99756736D01*
X190252319Y-99748188D01*
X190252505Y-99746057D01*
X190254977Y-99720265D01*
X190255200Y-99718132D01*
X190320286Y-99142419D01*
X190320544Y-99140293D01*
X190323887Y-99114636D01*
X190324181Y-99112519D01*
X190325433Y-99104036D01*
X190325765Y-99101911D01*
X190329998Y-99076268D01*
X190330366Y-99074153D01*
X190427828Y-98540500D01*
X189180500Y-98540500D01*
X189180500Y-100066500D01*
X187995299Y-100066500D01*
X187994131Y-100038645D01*
X187936258Y-99580526D01*
X187888599Y-99356309D01*
X187840798Y-99131423D01*
X187840796Y-99131415D01*
X187840252Y-99128856D01*
X187706789Y-98686804D01*
X187536804Y-98257471D01*
X187331489Y-97843867D01*
X187139285Y-97526500D01*
X189180500Y-97526500D01*
X190703620Y-97526500D01*
X190706500Y-97517713D01*
X190706500Y-96000500D01*
X189180500Y-96000500D01*
X189180500Y-97526500D01*
X187139285Y-97526500D01*
X187092285Y-97448893D01*
X186820869Y-97075322D01*
X186519145Y-96725771D01*
X186420758Y-96629423D01*
X186265302Y-96477190D01*
X186189230Y-96402695D01*
X185833438Y-96108358D01*
X185678251Y-96000500D01*
X187227791Y-96000500D01*
X187228602Y-96001294D01*
X187230469Y-96003161D01*
X187252808Y-96025973D01*
X187254635Y-96027878D01*
X187261859Y-96035571D01*
X187263645Y-96037514D01*
X187284994Y-96061225D01*
X187286738Y-96063203D01*
X187588462Y-96412754D01*
X187590165Y-96414768D01*
X187610499Y-96439347D01*
X187612159Y-96441397D01*
X187618714Y-96449667D01*
X187620334Y-96451756D01*
X187639639Y-96477190D01*
X187641211Y-96479307D01*
X187912627Y-96852878D01*
X187914155Y-96855029D01*
X187932373Y-96881241D01*
X187933857Y-96883424D01*
X187939697Y-96892214D01*
X187941134Y-96894426D01*
X187958234Y-96921371D01*
X187959625Y-96923615D01*
X188166500Y-97265207D01*
X188166500Y-96000500D01*
X187227791Y-96000500D01*
X185678251Y-96000500D01*
X185454264Y-95844825D01*
X185054368Y-95613945D01*
X184636555Y-95417337D01*
X184634088Y-95416420D01*
X184634082Y-95416417D01*
X184405773Y-95331510D01*
X184203755Y-95256380D01*
X184201232Y-95255676D01*
X184201221Y-95255672D01*
X183761542Y-95132912D01*
X183761534Y-95132910D01*
X183759005Y-95132204D01*
X183305424Y-95045679D01*
X182846194Y-94997412D01*
X182563193Y-94991484D01*
X182387174Y-94987796D01*
X182387167Y-94987796D01*
X182384535Y-94987741D01*
X181923686Y-95016735D01*
X181921068Y-95017122D01*
X181921064Y-95017122D01*
X181469499Y-95083804D01*
X181469496Y-95083804D01*
X181466879Y-95084191D01*
X181464307Y-95084794D01*
X181464303Y-95084795D01*
X181338502Y-95114301D01*
X181017319Y-95189634D01*
X181014808Y-95190450D01*
X181014804Y-95190451D01*
X180891488Y-95230519D01*
X180578159Y-95332326D01*
X180152480Y-95511265D01*
X180150147Y-95512485D01*
X180150142Y-95512487D01*
X179745599Y-95723977D01*
X179745593Y-95723981D01*
X179743266Y-95725197D01*
X179741038Y-95726611D01*
X179355626Y-95971200D01*
X179355620Y-95971204D01*
X179353389Y-95972620D01*
X179351282Y-95974219D01*
X179351281Y-95974220D01*
X179313153Y-96003161D01*
X178985583Y-96251800D01*
X178642429Y-96560778D01*
X178640626Y-96562698D01*
X178640625Y-96562699D01*
X178329112Y-96894426D01*
X178326332Y-96897386D01*
X178039511Y-97259265D01*
X178038048Y-97261467D01*
X177861961Y-97526500D01*
X177783977Y-97643875D01*
X177561522Y-98048518D01*
X177373707Y-98470357D01*
X177221850Y-98906432D01*
X177221195Y-98908983D01*
X177221192Y-98908993D01*
X177171660Y-99101911D01*
X177107015Y-99353686D01*
X177106573Y-99356301D01*
X177106571Y-99356309D01*
X177068647Y-99580526D01*
X177030007Y-99808979D01*
X176991368Y-100269120D01*
X176991368Y-100730880D01*
X173003791Y-100730880D01*
X173013468Y-100500000D01*
X172994131Y-100038645D01*
X172936258Y-99580526D01*
X172906667Y-99441312D01*
X173940500Y-99441312D01*
X173941905Y-99450828D01*
X173942262Y-99453440D01*
X174000135Y-99911559D01*
X174000439Y-99914182D01*
X174003775Y-99945925D01*
X174004023Y-99948551D01*
X174004906Y-99959067D01*
X174005099Y-99961697D01*
X174007103Y-99993546D01*
X174007241Y-99996183D01*
X174010188Y-100066500D01*
X175466500Y-100066500D01*
X175466500Y-98540500D01*
X173940500Y-98540500D01*
X173940500Y-99441312D01*
X172906667Y-99441312D01*
X172888599Y-99356309D01*
X172840798Y-99131423D01*
X172840796Y-99131415D01*
X172840252Y-99128856D01*
X172706789Y-98686804D01*
X172536804Y-98257471D01*
X172331489Y-97843867D01*
X172139285Y-97526500D01*
X173940500Y-97526500D01*
X175466500Y-97526500D01*
X176480500Y-97526500D01*
X176691374Y-97526500D01*
X176895402Y-97155376D01*
X176896700Y-97153073D01*
X176912679Y-97125399D01*
X176914024Y-97123126D01*
X176919491Y-97114100D01*
X176920879Y-97111861D01*
X176937959Y-97084948D01*
X176939395Y-97082737D01*
X177194929Y-96698127D01*
X177196413Y-96695943D01*
X177214645Y-96669711D01*
X177216176Y-96667557D01*
X177222379Y-96659020D01*
X177223951Y-96656903D01*
X177243230Y-96631505D01*
X177244846Y-96629423D01*
X177531667Y-96267544D01*
X177533326Y-96265495D01*
X177553638Y-96240941D01*
X177555337Y-96238929D01*
X177562232Y-96230940D01*
X177563979Y-96228958D01*
X177585369Y-96205200D01*
X177587159Y-96203254D01*
X177777558Y-96000500D01*
X176480500Y-96000500D01*
X176480500Y-97526500D01*
X175466500Y-97526500D01*
X175466500Y-96000500D01*
X173940500Y-96000500D01*
X173940500Y-97526500D01*
X172139285Y-97526500D01*
X172092285Y-97448893D01*
X171820869Y-97075322D01*
X171519145Y-96725771D01*
X171420758Y-96629423D01*
X171265302Y-96477190D01*
X171189230Y-96402695D01*
X170833438Y-96108358D01*
X170454264Y-95844825D01*
X170054368Y-95613945D01*
X169636555Y-95417337D01*
X169634088Y-95416420D01*
X169634082Y-95416417D01*
X169405773Y-95331510D01*
X169203755Y-95256380D01*
X169201232Y-95255676D01*
X169201221Y-95255672D01*
X168761542Y-95132912D01*
X168761534Y-95132910D01*
X168759005Y-95132204D01*
X168305424Y-95045679D01*
X167846194Y-94997412D01*
X167563193Y-94991484D01*
X167387174Y-94987796D01*
X167387167Y-94987796D01*
X167384535Y-94987741D01*
X166923686Y-95016735D01*
X166921068Y-95017122D01*
X166921064Y-95017122D01*
X166469499Y-95083804D01*
X166469496Y-95083804D01*
X166466879Y-95084191D01*
X166464307Y-95084794D01*
X166464303Y-95084795D01*
X166338502Y-95114301D01*
X166017319Y-95189634D01*
X166014808Y-95190450D01*
X166014804Y-95190451D01*
X165891488Y-95230519D01*
X165578159Y-95332326D01*
X165152480Y-95511265D01*
X165150147Y-95512485D01*
X165150142Y-95512487D01*
X164745599Y-95723977D01*
X164745593Y-95723981D01*
X164743266Y-95725197D01*
X164741038Y-95726611D01*
X164355626Y-95971200D01*
X164355620Y-95971204D01*
X164353389Y-95972620D01*
X164351282Y-95974219D01*
X164351281Y-95974220D01*
X164313153Y-96003161D01*
X163985583Y-96251800D01*
X163642429Y-96560778D01*
X163640626Y-96562698D01*
X163640625Y-96562699D01*
X163329112Y-96894426D01*
X163326332Y-96897386D01*
X163039511Y-97259265D01*
X163038048Y-97261467D01*
X162861961Y-97526500D01*
X162783977Y-97643875D01*
X162561522Y-98048518D01*
X162373707Y-98470357D01*
X162221850Y-98906432D01*
X162221195Y-98908983D01*
X162221192Y-98908993D01*
X162171660Y-99101911D01*
X162107015Y-99353686D01*
X162106573Y-99356301D01*
X162106571Y-99356309D01*
X162068647Y-99580526D01*
X162030007Y-99808979D01*
X161991368Y-100269120D01*
X161991368Y-100730880D01*
X158003791Y-100730880D01*
X158013468Y-100500000D01*
X157994131Y-100038645D01*
X157936258Y-99580526D01*
X157888599Y-99356309D01*
X157840798Y-99131423D01*
X157840796Y-99131415D01*
X157840252Y-99128856D01*
X157706789Y-98686804D01*
X157648863Y-98540500D01*
X158721824Y-98540500D01*
X158810974Y-98835778D01*
X158811710Y-98838311D01*
X158820280Y-98869004D01*
X158820961Y-98871546D01*
X158823586Y-98881767D01*
X158824217Y-98884334D01*
X158831517Y-98915453D01*
X158832094Y-98918032D01*
X158928100Y-99369702D01*
X158928622Y-99372295D01*
X158934613Y-99403709D01*
X158935081Y-99406310D01*
X158936840Y-99416715D01*
X158937252Y-99419314D01*
X158941905Y-99450828D01*
X158942262Y-99453440D01*
X159000135Y-99911559D01*
X159000439Y-99914182D01*
X159003775Y-99945925D01*
X159004023Y-99948551D01*
X159004906Y-99959067D01*
X159005099Y-99961697D01*
X159007103Y-99993546D01*
X159007241Y-99996183D01*
X159010188Y-100066500D01*
X160226500Y-100066500D01*
X160226500Y-98540500D01*
X158721824Y-98540500D01*
X157648863Y-98540500D01*
X157536804Y-98257471D01*
X157331489Y-97843867D01*
X157139285Y-97526500D01*
X158700500Y-97526500D01*
X160226500Y-97526500D01*
X161240500Y-97526500D01*
X161691374Y-97526500D01*
X161895402Y-97155376D01*
X161896700Y-97153073D01*
X161912679Y-97125399D01*
X161914024Y-97123126D01*
X161919491Y-97114100D01*
X161920879Y-97111861D01*
X161937959Y-97084948D01*
X161939395Y-97082737D01*
X162194929Y-96698127D01*
X162196413Y-96695943D01*
X162214645Y-96669711D01*
X162216176Y-96667557D01*
X162222379Y-96659020D01*
X162223951Y-96656903D01*
X162243230Y-96631505D01*
X162244846Y-96629423D01*
X162531667Y-96267544D01*
X162533326Y-96265495D01*
X162553638Y-96240941D01*
X162555337Y-96238929D01*
X162562232Y-96230940D01*
X162563979Y-96228958D01*
X162585369Y-96205200D01*
X162587159Y-96203254D01*
X162766500Y-96012276D01*
X162766500Y-96000500D01*
X161240500Y-96000500D01*
X161240500Y-97526500D01*
X160226500Y-97526500D01*
X160226500Y-96000500D01*
X158700500Y-96000500D01*
X158700500Y-97526500D01*
X157139285Y-97526500D01*
X157092285Y-97448893D01*
X156820869Y-97075322D01*
X156519145Y-96725771D01*
X156420758Y-96629423D01*
X156265302Y-96477190D01*
X156189230Y-96402695D01*
X155833438Y-96108358D01*
X155454264Y-95844825D01*
X155054368Y-95613945D01*
X154636555Y-95417337D01*
X154634088Y-95416420D01*
X154634082Y-95416417D01*
X154405773Y-95331510D01*
X154203755Y-95256380D01*
X154201232Y-95255676D01*
X154201221Y-95255672D01*
X153761542Y-95132912D01*
X153761534Y-95132910D01*
X153759005Y-95132204D01*
X153305424Y-95045679D01*
X152846194Y-94997412D01*
X152563193Y-94991484D01*
X152387174Y-94987796D01*
X152387167Y-94987796D01*
X152384535Y-94987741D01*
X151923686Y-95016735D01*
X151921068Y-95017122D01*
X151921064Y-95017122D01*
X151469499Y-95083804D01*
X151469496Y-95083804D01*
X151466879Y-95084191D01*
X151464307Y-95084794D01*
X151464303Y-95084795D01*
X151338502Y-95114301D01*
X151017319Y-95189634D01*
X151014808Y-95190450D01*
X151014804Y-95190451D01*
X150891488Y-95230519D01*
X150578159Y-95332326D01*
X150152480Y-95511265D01*
X150150147Y-95512485D01*
X150150142Y-95512487D01*
X149745599Y-95723977D01*
X149745593Y-95723981D01*
X149743266Y-95725197D01*
X149741038Y-95726611D01*
X149355626Y-95971200D01*
X149355620Y-95971204D01*
X149353389Y-95972620D01*
X149351282Y-95974219D01*
X149351281Y-95974220D01*
X149313153Y-96003161D01*
X148985583Y-96251800D01*
X148642429Y-96560778D01*
X148640626Y-96562698D01*
X148640625Y-96562699D01*
X148329112Y-96894426D01*
X148326332Y-96897386D01*
X148039511Y-97259265D01*
X148038048Y-97261467D01*
X147861961Y-97526500D01*
X147783977Y-97643875D01*
X147561522Y-98048518D01*
X147373707Y-98470357D01*
X147221850Y-98906432D01*
X147221195Y-98908983D01*
X147221192Y-98908993D01*
X147171660Y-99101911D01*
X147107015Y-99353686D01*
X147106573Y-99356301D01*
X147106571Y-99356309D01*
X147068647Y-99580526D01*
X147030007Y-99808979D01*
X146991368Y-100269120D01*
X146991368Y-100730880D01*
X143503791Y-100730880D01*
X143513468Y-100500000D01*
X143494131Y-100038645D01*
X143436258Y-99580526D01*
X143388599Y-99356309D01*
X143340798Y-99131423D01*
X143340796Y-99131415D01*
X143340252Y-99128856D01*
X143206789Y-98686804D01*
X143148863Y-98540500D01*
X144221825Y-98540500D01*
X144310974Y-98835778D01*
X144311710Y-98838311D01*
X144320280Y-98869004D01*
X144320961Y-98871546D01*
X144323586Y-98881767D01*
X144324217Y-98884334D01*
X144331517Y-98915453D01*
X144332094Y-98918032D01*
X144428100Y-99369702D01*
X144428622Y-99372295D01*
X144434613Y-99403709D01*
X144435081Y-99406310D01*
X144436840Y-99416715D01*
X144437252Y-99419314D01*
X144441905Y-99450828D01*
X144442262Y-99453440D01*
X144500135Y-99911559D01*
X144500439Y-99914182D01*
X144503775Y-99945925D01*
X144504023Y-99948551D01*
X144504906Y-99959067D01*
X144505099Y-99961697D01*
X144507103Y-99993546D01*
X144507241Y-99996183D01*
X144510188Y-100066500D01*
X144986500Y-100066500D01*
X144986500Y-98540500D01*
X144221825Y-98540500D01*
X143148863Y-98540500D01*
X143036804Y-98257471D01*
X142831489Y-97843867D01*
X142592285Y-97448893D01*
X142320869Y-97075322D01*
X142191166Y-96925060D01*
X143460500Y-96925060D01*
X143698829Y-97318589D01*
X143700171Y-97320857D01*
X143716116Y-97348473D01*
X143717411Y-97350771D01*
X143722495Y-97360018D01*
X143723744Y-97362348D01*
X143738543Y-97390656D01*
X143739741Y-97393007D01*
X143806008Y-97526500D01*
X144986500Y-97526500D01*
X146000500Y-97526500D01*
X146691374Y-97526500D01*
X146895402Y-97155376D01*
X146896700Y-97153073D01*
X146912679Y-97125399D01*
X146914024Y-97123126D01*
X146919491Y-97114100D01*
X146920879Y-97111861D01*
X146937959Y-97084948D01*
X146939395Y-97082737D01*
X147194929Y-96698127D01*
X147196413Y-96695943D01*
X147214645Y-96669711D01*
X147216176Y-96667557D01*
X147222379Y-96659020D01*
X147223951Y-96656903D01*
X147243230Y-96631505D01*
X147244846Y-96629423D01*
X147526500Y-96274063D01*
X147526500Y-96000500D01*
X146000500Y-96000500D01*
X146000500Y-97526500D01*
X144986500Y-97526500D01*
X144986500Y-96000500D01*
X143460500Y-96000500D01*
X143460500Y-96925060D01*
X142191166Y-96925060D01*
X142019145Y-96725771D01*
X141920758Y-96629423D01*
X141765302Y-96477190D01*
X141689230Y-96402695D01*
X141333438Y-96108358D01*
X140954264Y-95844825D01*
X140554368Y-95613945D01*
X140136555Y-95417337D01*
X140134088Y-95416420D01*
X140134082Y-95416417D01*
X139905773Y-95331510D01*
X139703755Y-95256380D01*
X139701232Y-95255676D01*
X139701221Y-95255672D01*
X139261542Y-95132912D01*
X139261534Y-95132910D01*
X139259005Y-95132204D01*
X138805424Y-95045679D01*
X138346194Y-94997412D01*
X138063193Y-94991484D01*
X137887174Y-94987796D01*
X137887167Y-94987796D01*
X137884535Y-94987741D01*
X137423686Y-95016735D01*
X137421068Y-95017122D01*
X137421064Y-95017122D01*
X136969499Y-95083804D01*
X136969496Y-95083804D01*
X136966879Y-95084191D01*
X136964307Y-95084794D01*
X136964303Y-95084795D01*
X136838502Y-95114301D01*
X136517319Y-95189634D01*
X136514808Y-95190450D01*
X136514804Y-95190451D01*
X136391488Y-95230519D01*
X136078159Y-95332326D01*
X135652480Y-95511265D01*
X135650147Y-95512485D01*
X135650142Y-95512487D01*
X135245599Y-95723977D01*
X135245593Y-95723981D01*
X135243266Y-95725197D01*
X135241038Y-95726611D01*
X134855626Y-95971200D01*
X134855620Y-95971204D01*
X134853389Y-95972620D01*
X134851282Y-95974219D01*
X134851281Y-95974220D01*
X134813153Y-96003161D01*
X134485583Y-96251800D01*
X134142429Y-96560778D01*
X134140626Y-96562698D01*
X134140625Y-96562699D01*
X133829112Y-96894426D01*
X133826332Y-96897386D01*
X133539511Y-97259265D01*
X133538048Y-97261467D01*
X133361961Y-97526500D01*
X133283977Y-97643875D01*
X133061522Y-98048518D01*
X132873707Y-98470357D01*
X132721850Y-98906432D01*
X132721195Y-98908983D01*
X132721192Y-98908993D01*
X132671660Y-99101911D01*
X132607015Y-99353686D01*
X132606573Y-99356301D01*
X132606571Y-99356309D01*
X132568647Y-99580526D01*
X132530007Y-99808979D01*
X132491368Y-100269120D01*
X132491368Y-100730880D01*
X130508500Y-100730880D01*
X130508500Y-97526500D01*
X131522500Y-97526500D01*
X132191374Y-97526500D01*
X132286500Y-97353468D01*
X132286500Y-96000500D01*
X131522500Y-96000500D01*
X131522500Y-97526500D01*
X130508500Y-97526500D01*
X130508500Y-94986500D01*
X131522500Y-94986500D01*
X132286500Y-94986500D01*
X133300500Y-94986500D01*
X134514865Y-94986500D01*
X134699939Y-94869049D01*
X134702177Y-94867661D01*
X134729444Y-94851146D01*
X134731715Y-94849803D01*
X134740854Y-94844526D01*
X134743155Y-94843229D01*
X134771155Y-94827835D01*
X134773483Y-94826587D01*
X134826500Y-94798870D01*
X134826500Y-94665578D01*
X140920500Y-94665578D01*
X140986108Y-94696451D01*
X140988485Y-94697600D01*
X141017066Y-94711788D01*
X141019415Y-94712985D01*
X141028767Y-94717874D01*
X141031093Y-94719121D01*
X141059068Y-94734500D01*
X141061368Y-94735796D01*
X141461264Y-94966676D01*
X141463533Y-94968017D01*
X141490809Y-94984535D01*
X141493050Y-94985925D01*
X141493956Y-94986500D01*
X142446500Y-94986500D01*
X143460500Y-94986500D01*
X144986500Y-94986500D01*
X146000500Y-94986500D01*
X147526500Y-94986500D01*
X148540500Y-94986500D01*
X149014865Y-94986500D01*
X156160500Y-94986500D01*
X157686500Y-94986500D01*
X158700500Y-94986500D01*
X160226500Y-94986500D01*
X161240500Y-94986500D01*
X162766500Y-94986500D01*
X163780500Y-94986500D01*
X164014865Y-94986500D01*
X171400500Y-94986500D01*
X172926500Y-94986500D01*
X173940500Y-94986500D01*
X175466500Y-94986500D01*
X176480500Y-94986500D01*
X178006500Y-94986500D01*
X186640500Y-94986500D01*
X188166500Y-94986500D01*
X189180500Y-94986500D01*
X190706500Y-94986500D01*
X191720500Y-94986500D01*
X191981350Y-94986500D01*
X191993247Y-94968695D01*
X191994456Y-94966919D01*
X192009253Y-94945571D01*
X192010490Y-94943817D01*
X192015494Y-94936854D01*
X192016757Y-94935128D01*
X192032221Y-94914363D01*
X192033516Y-94912656D01*
X192387423Y-94453927D01*
X192388744Y-94452244D01*
X192404905Y-94432016D01*
X192406256Y-94430354D01*
X192411722Y-94423746D01*
X192413105Y-94422102D01*
X192430000Y-94402372D01*
X192431411Y-94400753D01*
X192815699Y-93967158D01*
X192817137Y-93965563D01*
X192834682Y-93946434D01*
X192836145Y-93944866D01*
X192842047Y-93938647D01*
X192843535Y-93937106D01*
X192861686Y-93918620D01*
X192863199Y-93917105D01*
X193246500Y-93539778D01*
X193246500Y-93460500D01*
X191720500Y-93460500D01*
X191720500Y-94986500D01*
X190706500Y-94986500D01*
X190706500Y-93460500D01*
X189180500Y-93460500D01*
X189180500Y-94986500D01*
X188166500Y-94986500D01*
X188166500Y-93460500D01*
X186640500Y-93460500D01*
X186640500Y-94986500D01*
X178006500Y-94986500D01*
X178006500Y-94982924D01*
X179020500Y-94982924D01*
X179199939Y-94869049D01*
X179202177Y-94867661D01*
X179229444Y-94851146D01*
X179231715Y-94849803D01*
X179240854Y-94844526D01*
X179243155Y-94843229D01*
X179271155Y-94827835D01*
X179273484Y-94826586D01*
X179682698Y-94612654D01*
X179685048Y-94611457D01*
X179713633Y-94597267D01*
X179716009Y-94596118D01*
X179725557Y-94591625D01*
X179727957Y-94590526D01*
X179757117Y-94577543D01*
X179759539Y-94576495D01*
X180185218Y-94397556D01*
X180187664Y-94396558D01*
X180217366Y-94384799D01*
X180219831Y-94383853D01*
X180229722Y-94380175D01*
X180232204Y-94379282D01*
X180262318Y-94368796D01*
X180264816Y-94367955D01*
X180546500Y-94276430D01*
X180546500Y-94174768D01*
X184100500Y-94174768D01*
X184476439Y-94279732D01*
X184478972Y-94280469D01*
X184509534Y-94289696D01*
X184512054Y-94290485D01*
X184522090Y-94293746D01*
X184524591Y-94294588D01*
X184554725Y-94305082D01*
X184557207Y-94305975D01*
X184990007Y-94466932D01*
X184992476Y-94467880D01*
X185022195Y-94479648D01*
X185024640Y-94480646D01*
X185034368Y-94484736D01*
X185036786Y-94485783D01*
X185065899Y-94498746D01*
X185068295Y-94499843D01*
X185486108Y-94696451D01*
X185488485Y-94697600D01*
X185517066Y-94711788D01*
X185519415Y-94712985D01*
X185528767Y-94717874D01*
X185531093Y-94719121D01*
X185559068Y-94734500D01*
X185561368Y-94735796D01*
X185626500Y-94773400D01*
X185626500Y-93460500D01*
X184100500Y-93460500D01*
X184100500Y-94174768D01*
X180546500Y-94174768D01*
X180546500Y-94045371D01*
X181560500Y-94045371D01*
X181775556Y-94013614D01*
X181778170Y-94013256D01*
X181809840Y-94009255D01*
X181812463Y-94008951D01*
X181822958Y-94007848D01*
X181825586Y-94007600D01*
X181857386Y-94004930D01*
X181860016Y-94004737D01*
X182320865Y-93975743D01*
X182323499Y-93975605D01*
X182355388Y-93974268D01*
X182358027Y-93974185D01*
X182368578Y-93973964D01*
X182371217Y-93973936D01*
X182403133Y-93973936D01*
X182405772Y-93973964D01*
X182867431Y-93983635D01*
X182870066Y-93983717D01*
X182901909Y-93985051D01*
X182904539Y-93985189D01*
X182915071Y-93985851D01*
X182917705Y-93986044D01*
X182949554Y-93988717D01*
X182952186Y-93988966D01*
X183086500Y-94003083D01*
X183086500Y-93460500D01*
X181560500Y-93460500D01*
X181560500Y-94045371D01*
X180546500Y-94045371D01*
X180546500Y-93460500D01*
X179020500Y-93460500D01*
X179020500Y-94982924D01*
X178006500Y-94982924D01*
X178006500Y-93460500D01*
X176480500Y-93460500D01*
X176480500Y-94986500D01*
X175466500Y-94986500D01*
X175466500Y-93460500D01*
X173940500Y-93460500D01*
X173940500Y-94986500D01*
X172926500Y-94986500D01*
X172926500Y-93460500D01*
X171400500Y-93460500D01*
X171400500Y-94986500D01*
X164014865Y-94986500D01*
X164199939Y-94869049D01*
X164202177Y-94867661D01*
X164229444Y-94851146D01*
X164231715Y-94849803D01*
X164240854Y-94844526D01*
X164243155Y-94843229D01*
X164271155Y-94827835D01*
X164273484Y-94826586D01*
X164682698Y-94612654D01*
X164685048Y-94611457D01*
X164713633Y-94597267D01*
X164716009Y-94596118D01*
X164725557Y-94591625D01*
X164727957Y-94590526D01*
X164757117Y-94577543D01*
X164759539Y-94576495D01*
X165185218Y-94397556D01*
X165187664Y-94396558D01*
X165217366Y-94384799D01*
X165219831Y-94383853D01*
X165229722Y-94380175D01*
X165232204Y-94379282D01*
X165262318Y-94368796D01*
X165264816Y-94367955D01*
X165306500Y-94354411D01*
X165306500Y-94119281D01*
X168860500Y-94119281D01*
X168949009Y-94136165D01*
X168951592Y-94136686D01*
X168982760Y-94143310D01*
X168985331Y-94143884D01*
X168995605Y-94146293D01*
X168998171Y-94146923D01*
X169029135Y-94154872D01*
X169031689Y-94155556D01*
X169476439Y-94279732D01*
X169478972Y-94280469D01*
X169509534Y-94289696D01*
X169512054Y-94290485D01*
X169522090Y-94293746D01*
X169524591Y-94294588D01*
X169554725Y-94305082D01*
X169557207Y-94305975D01*
X169990007Y-94466932D01*
X169992476Y-94467880D01*
X170022195Y-94479648D01*
X170024640Y-94480646D01*
X170034368Y-94484736D01*
X170036786Y-94485783D01*
X170065899Y-94498746D01*
X170068295Y-94499843D01*
X170386500Y-94649579D01*
X170386500Y-93460500D01*
X168860500Y-93460500D01*
X168860500Y-94119281D01*
X165306500Y-94119281D01*
X165306500Y-94080811D01*
X166320500Y-94080811D01*
X166775556Y-94013614D01*
X166778170Y-94013256D01*
X166809840Y-94009255D01*
X166812463Y-94008951D01*
X166822958Y-94007848D01*
X166825586Y-94007600D01*
X166857386Y-94004930D01*
X166860016Y-94004737D01*
X167320865Y-93975743D01*
X167323499Y-93975605D01*
X167355388Y-93974268D01*
X167358027Y-93974185D01*
X167368578Y-93973964D01*
X167371217Y-93973936D01*
X167403133Y-93973936D01*
X167405772Y-93973964D01*
X167846500Y-93983197D01*
X167846500Y-93460500D01*
X166320500Y-93460500D01*
X166320500Y-94080811D01*
X165306500Y-94080811D01*
X165306500Y-93460500D01*
X163780500Y-93460500D01*
X163780500Y-94986500D01*
X162766500Y-94986500D01*
X162766500Y-93460500D01*
X161240500Y-93460500D01*
X161240500Y-94986500D01*
X160226500Y-94986500D01*
X160226500Y-93460500D01*
X158700500Y-93460500D01*
X158700500Y-94986500D01*
X157686500Y-94986500D01*
X157686500Y-93460500D01*
X156160500Y-93460500D01*
X156160500Y-94986500D01*
X149014865Y-94986500D01*
X149199939Y-94869049D01*
X149202177Y-94867661D01*
X149229444Y-94851146D01*
X149231715Y-94849803D01*
X149240854Y-94844526D01*
X149243155Y-94843229D01*
X149271155Y-94827835D01*
X149273484Y-94826586D01*
X149682698Y-94612654D01*
X149685048Y-94611457D01*
X149713633Y-94597267D01*
X149716009Y-94596118D01*
X149725557Y-94591625D01*
X149727957Y-94590526D01*
X149757117Y-94577543D01*
X149759539Y-94576495D01*
X150066500Y-94447461D01*
X150066500Y-94133298D01*
X151080500Y-94133298D01*
X151235332Y-94096982D01*
X151237907Y-94096406D01*
X151269141Y-94089767D01*
X151271731Y-94089245D01*
X151282096Y-94087268D01*
X151284694Y-94086801D01*
X151316147Y-94081482D01*
X151318749Y-94081070D01*
X151370019Y-94073499D01*
X153620500Y-94073499D01*
X153949009Y-94136165D01*
X153951592Y-94136686D01*
X153982760Y-94143310D01*
X153985331Y-94143884D01*
X153995605Y-94146293D01*
X153998171Y-94146923D01*
X154029135Y-94154872D01*
X154031689Y-94155556D01*
X154476439Y-94279732D01*
X154478972Y-94280469D01*
X154509534Y-94289696D01*
X154512054Y-94290485D01*
X154522090Y-94293746D01*
X154524591Y-94294588D01*
X154554725Y-94305082D01*
X154557207Y-94305975D01*
X154990007Y-94466932D01*
X154992476Y-94467880D01*
X155022195Y-94479648D01*
X155024640Y-94480646D01*
X155034368Y-94484736D01*
X155036786Y-94485783D01*
X155065899Y-94498746D01*
X155068295Y-94499843D01*
X155146500Y-94536643D01*
X155146500Y-93460500D01*
X153620500Y-93460500D01*
X153620500Y-94073499D01*
X151370019Y-94073499D01*
X151775556Y-94013614D01*
X151778170Y-94013256D01*
X151809840Y-94009255D01*
X151812463Y-94008951D01*
X151822958Y-94007848D01*
X151825586Y-94007600D01*
X151857386Y-94004930D01*
X151860016Y-94004737D01*
X152320865Y-93975743D01*
X152323499Y-93975605D01*
X152355388Y-93974268D01*
X152358027Y-93974185D01*
X152368578Y-93973964D01*
X152371217Y-93973936D01*
X152403133Y-93973936D01*
X152405772Y-93973964D01*
X152606500Y-93978169D01*
X152606500Y-93460500D01*
X151080500Y-93460500D01*
X151080500Y-94133298D01*
X150066500Y-94133298D01*
X150066500Y-93460500D01*
X148540500Y-93460500D01*
X148540500Y-94986500D01*
X147526500Y-94986500D01*
X147526500Y-93460500D01*
X146000500Y-93460500D01*
X146000500Y-94986500D01*
X144986500Y-94986500D01*
X144986500Y-93460500D01*
X143460500Y-93460500D01*
X143460500Y-94986500D01*
X142446500Y-94986500D01*
X142446500Y-93460500D01*
X140920500Y-93460500D01*
X140920500Y-94665578D01*
X134826500Y-94665578D01*
X134826500Y-94343364D01*
X135840500Y-94343364D01*
X136203976Y-94225263D01*
X136206492Y-94224474D01*
X136237035Y-94215252D01*
X136239569Y-94214516D01*
X136249733Y-94211678D01*
X136252285Y-94210994D01*
X136283210Y-94203054D01*
X136285772Y-94202425D01*
X136735332Y-94096982D01*
X136737907Y-94096406D01*
X136769141Y-94089767D01*
X136771731Y-94089245D01*
X136782096Y-94087268D01*
X136784694Y-94086801D01*
X136816147Y-94081482D01*
X136818749Y-94081070D01*
X137275556Y-94013614D01*
X137278170Y-94013256D01*
X137309840Y-94009255D01*
X137312463Y-94008951D01*
X137322958Y-94007848D01*
X137325586Y-94007600D01*
X137357386Y-94004930D01*
X137360017Y-94004737D01*
X137366500Y-94004329D01*
X137366500Y-93984154D01*
X138380500Y-93984154D01*
X138401909Y-93985051D01*
X138404539Y-93985189D01*
X138415071Y-93985851D01*
X138417705Y-93986044D01*
X138449554Y-93988717D01*
X138452187Y-93988966D01*
X138911417Y-94037233D01*
X138914043Y-94037537D01*
X138945743Y-94041543D01*
X138948358Y-94041902D01*
X138958797Y-94043444D01*
X138961400Y-94043856D01*
X138992833Y-94049173D01*
X138995428Y-94049640D01*
X139449009Y-94136165D01*
X139451592Y-94136686D01*
X139482760Y-94143310D01*
X139485331Y-94143884D01*
X139495605Y-94146293D01*
X139498171Y-94146923D01*
X139529135Y-94154872D01*
X139531689Y-94155556D01*
X139906500Y-94260205D01*
X139906500Y-93460500D01*
X138380500Y-93460500D01*
X138380500Y-93984154D01*
X137366500Y-93984154D01*
X137366500Y-93460500D01*
X135840500Y-93460500D01*
X135840500Y-94343364D01*
X134826500Y-94343364D01*
X134826500Y-93460500D01*
X133300500Y-93460500D01*
X133300500Y-94986500D01*
X132286500Y-94986500D01*
X132286500Y-93460500D01*
X131522500Y-93460500D01*
X131522500Y-94986500D01*
X130508500Y-94986500D01*
X130508500Y-92446500D01*
X131522500Y-92446500D01*
X132286500Y-92446500D01*
X133300500Y-92446500D01*
X134826500Y-92446500D01*
X135840500Y-92446500D01*
X137366500Y-92446500D01*
X138380500Y-92446500D01*
X139906500Y-92446500D01*
X140920500Y-92446500D01*
X142446500Y-92446500D01*
X143460500Y-92446500D01*
X144986500Y-92446500D01*
X146000500Y-92446500D01*
X147526500Y-92446500D01*
X148540500Y-92446500D01*
X150066500Y-92446500D01*
X153620500Y-92446500D01*
X155146500Y-92446500D01*
X156160500Y-92446500D01*
X157686500Y-92446500D01*
X158700500Y-92446500D01*
X160226500Y-92446500D01*
X161240500Y-92446500D01*
X162766500Y-92446500D01*
X163780500Y-92446500D01*
X165306500Y-92446500D01*
X168860500Y-92446500D01*
X170386500Y-92446500D01*
X171400500Y-92446500D01*
X172926500Y-92446500D01*
X173940500Y-92446500D01*
X175466500Y-92446500D01*
X176480500Y-92446500D01*
X178006500Y-92446500D01*
X179020500Y-92446500D01*
X180546500Y-92446500D01*
X184100500Y-92446500D01*
X185626500Y-92446500D01*
X186640500Y-92446500D01*
X188166500Y-92446500D01*
X189180500Y-92446500D01*
X190706500Y-92446500D01*
X191720500Y-92446500D01*
X193246500Y-92446500D01*
X194260500Y-92446500D01*
X194667720Y-92446500D01*
X194827949Y-92343041D01*
X194829764Y-92341891D01*
X194851831Y-92328170D01*
X194853665Y-92327051D01*
X194861023Y-92322648D01*
X194862870Y-92321564D01*
X194885301Y-92308654D01*
X194887163Y-92307604D01*
X195394146Y-92027157D01*
X195396027Y-92026137D01*
X195418913Y-92013980D01*
X195420817Y-92012990D01*
X195428457Y-92009097D01*
X195430378Y-92008138D01*
X195453697Y-91996752D01*
X195455631Y-91995828D01*
X195786500Y-91841189D01*
X195786500Y-91444815D01*
X196800500Y-91444815D01*
X197202834Y-91319887D01*
X197204883Y-91319269D01*
X197229751Y-91312008D01*
X197231814Y-91311425D01*
X197240085Y-91309162D01*
X197242162Y-91308612D01*
X197267315Y-91302189D01*
X197269397Y-91301677D01*
X197624960Y-91217298D01*
X201880500Y-91217298D01*
X202326791Y-91328157D01*
X202328866Y-91328691D01*
X202353906Y-91335365D01*
X202355972Y-91335935D01*
X202364219Y-91338284D01*
X202366279Y-91338890D01*
X202391112Y-91346423D01*
X202393158Y-91347062D01*
X202944649Y-91524657D01*
X202946688Y-91525333D01*
X202971261Y-91533711D01*
X202973285Y-91534421D01*
X202981353Y-91537326D01*
X202983359Y-91538067D01*
X203007579Y-91547255D01*
X203009578Y-91548033D01*
X203406500Y-91706389D01*
X203406500Y-90920500D01*
X201880500Y-90920500D01*
X201880500Y-91217298D01*
X197624960Y-91217298D01*
X197833122Y-91167899D01*
X197835210Y-91167422D01*
X197860517Y-91161869D01*
X197862614Y-91161428D01*
X197871019Y-91159733D01*
X197873125Y-91159326D01*
X197898651Y-91154629D01*
X197900765Y-91154259D01*
X198326500Y-91083397D01*
X198326500Y-90920500D01*
X196800500Y-90920500D01*
X196800500Y-91444815D01*
X195786500Y-91444815D01*
X195786500Y-90920500D01*
X194260500Y-90920500D01*
X194260500Y-92446500D01*
X193246500Y-92446500D01*
X193246500Y-90920500D01*
X191720500Y-90920500D01*
X191720500Y-92446500D01*
X190706500Y-92446500D01*
X190706500Y-90920500D01*
X189180500Y-90920500D01*
X189180500Y-92446500D01*
X188166500Y-92446500D01*
X188166500Y-90920500D01*
X186640500Y-90920500D01*
X186640500Y-92446500D01*
X185626500Y-92446500D01*
X185626500Y-91269279D01*
X185567872Y-91327907D01*
X185565511Y-91330208D01*
X185536578Y-91357665D01*
X185534155Y-91359905D01*
X185524354Y-91368730D01*
X185521874Y-91370905D01*
X185491534Y-91396818D01*
X185488997Y-91398927D01*
X185203205Y-91630357D01*
X185200617Y-91632398D01*
X185168997Y-91656662D01*
X185166357Y-91658634D01*
X185155687Y-91666387D01*
X185152990Y-91668292D01*
X185120082Y-91690910D01*
X185117337Y-91692745D01*
X184808920Y-91893033D01*
X184806132Y-91894792D01*
X184772122Y-91915634D01*
X184769287Y-91917321D01*
X184757866Y-91923915D01*
X184754988Y-91925527D01*
X184719925Y-91944565D01*
X184717005Y-91946101D01*
X184389341Y-92113054D01*
X184386380Y-92114514D01*
X184350345Y-92131701D01*
X184347347Y-92133083D01*
X184335298Y-92138447D01*
X184332268Y-92139748D01*
X184295438Y-92155002D01*
X184292378Y-92156223D01*
X184100500Y-92229878D01*
X184100500Y-92446500D01*
X180546500Y-92446500D01*
X180546500Y-92080363D01*
X180282995Y-91946101D01*
X180280075Y-91944565D01*
X180245012Y-91925527D01*
X180242134Y-91923915D01*
X180230713Y-91917321D01*
X180227878Y-91915634D01*
X180193868Y-91894792D01*
X180191080Y-91893033D01*
X179882663Y-91692745D01*
X179879918Y-91690910D01*
X179847010Y-91668292D01*
X179844313Y-91666387D01*
X179833643Y-91658634D01*
X179831003Y-91656662D01*
X179799383Y-91632398D01*
X179796795Y-91630357D01*
X179511003Y-91398927D01*
X179508466Y-91396818D01*
X179478126Y-91370905D01*
X179475646Y-91368730D01*
X179465845Y-91359905D01*
X179463422Y-91357665D01*
X179434489Y-91330208D01*
X179432128Y-91327907D01*
X179172093Y-91067872D01*
X179169792Y-91065511D01*
X179142335Y-91036578D01*
X179140095Y-91034155D01*
X179131270Y-91024354D01*
X179129095Y-91021874D01*
X179103182Y-90991534D01*
X179101073Y-90988998D01*
X179045604Y-90920500D01*
X179020500Y-90920500D01*
X179020500Y-92446500D01*
X178006500Y-92446500D01*
X178006500Y-90920500D01*
X176480500Y-90920500D01*
X176480500Y-92446500D01*
X175466500Y-92446500D01*
X175466500Y-90920500D01*
X173940500Y-90920500D01*
X173940500Y-92446500D01*
X172926500Y-92446500D01*
X172926500Y-90920500D01*
X171400500Y-90920500D01*
X171400500Y-92446500D01*
X170386500Y-92446500D01*
X170386500Y-91481928D01*
X170203205Y-91630357D01*
X170200617Y-91632398D01*
X170168997Y-91656662D01*
X170166357Y-91658634D01*
X170155687Y-91666387D01*
X170152990Y-91668292D01*
X170120082Y-91690910D01*
X170117337Y-91692745D01*
X169808920Y-91893033D01*
X169806132Y-91894792D01*
X169772122Y-91915634D01*
X169769287Y-91917321D01*
X169757866Y-91923915D01*
X169754988Y-91925527D01*
X169719925Y-91944565D01*
X169717005Y-91946101D01*
X169389341Y-92113054D01*
X169386380Y-92114514D01*
X169350345Y-92131701D01*
X169347347Y-92133083D01*
X169335298Y-92138447D01*
X169332268Y-92139748D01*
X169295438Y-92155002D01*
X169292378Y-92156223D01*
X168949058Y-92288011D01*
X168945967Y-92289152D01*
X168908390Y-92302460D01*
X168905268Y-92303520D01*
X168892725Y-92307596D01*
X168889571Y-92308575D01*
X168860500Y-92317187D01*
X168860500Y-92446500D01*
X165306500Y-92446500D01*
X165306500Y-91958077D01*
X165282995Y-91946101D01*
X165280075Y-91944565D01*
X165245012Y-91925527D01*
X165242134Y-91923915D01*
X165230713Y-91917321D01*
X165227878Y-91915634D01*
X165193868Y-91894792D01*
X165191080Y-91893033D01*
X164882663Y-91692745D01*
X164879918Y-91690910D01*
X164847010Y-91668292D01*
X164844313Y-91666387D01*
X164833643Y-91658634D01*
X164831003Y-91656662D01*
X164799383Y-91632398D01*
X164796795Y-91630357D01*
X164511003Y-91398927D01*
X164508466Y-91396818D01*
X164478126Y-91370905D01*
X164475646Y-91368730D01*
X164465845Y-91359905D01*
X164463422Y-91357665D01*
X164434489Y-91330208D01*
X164432128Y-91327907D01*
X164172093Y-91067872D01*
X164169792Y-91065511D01*
X164142335Y-91036578D01*
X164140095Y-91034155D01*
X164131270Y-91024354D01*
X164129095Y-91021874D01*
X164103182Y-90991534D01*
X164101073Y-90988998D01*
X164045604Y-90920500D01*
X163780500Y-90920500D01*
X163780500Y-92446500D01*
X162766500Y-92446500D01*
X162766500Y-90920500D01*
X161240500Y-90920500D01*
X161240500Y-92446500D01*
X160226500Y-92446500D01*
X160226500Y-90920500D01*
X158700500Y-90920500D01*
X158700500Y-92446500D01*
X157686500Y-92446500D01*
X157686500Y-90920500D01*
X156160500Y-90920500D01*
X156160500Y-92446500D01*
X155146500Y-92446500D01*
X155146500Y-91672753D01*
X155120082Y-91690910D01*
X155117337Y-91692745D01*
X154808920Y-91893033D01*
X154806132Y-91894792D01*
X154772122Y-91915634D01*
X154769287Y-91917321D01*
X154757866Y-91923915D01*
X154754988Y-91925527D01*
X154719925Y-91944565D01*
X154717005Y-91946101D01*
X154389341Y-92113054D01*
X154386380Y-92114514D01*
X154350345Y-92131701D01*
X154347347Y-92133083D01*
X154335298Y-92138447D01*
X154332268Y-92139748D01*
X154295438Y-92155002D01*
X154292378Y-92156223D01*
X153949058Y-92288011D01*
X153945967Y-92289152D01*
X153908390Y-92302460D01*
X153905268Y-92303520D01*
X153892725Y-92307596D01*
X153889571Y-92308575D01*
X153851293Y-92319914D01*
X153848117Y-92320810D01*
X153620500Y-92381800D01*
X153620500Y-92446500D01*
X150066500Y-92446500D01*
X150066500Y-91812130D01*
X149882663Y-91692745D01*
X149879918Y-91690910D01*
X149847010Y-91668292D01*
X149844313Y-91666387D01*
X149833643Y-91658634D01*
X149831003Y-91656662D01*
X149799383Y-91632398D01*
X149796795Y-91630357D01*
X149511003Y-91398927D01*
X149508466Y-91396818D01*
X149478126Y-91370905D01*
X149475646Y-91368730D01*
X149465845Y-91359905D01*
X149463422Y-91357665D01*
X149434489Y-91330208D01*
X149432128Y-91327907D01*
X149172093Y-91067872D01*
X149169792Y-91065511D01*
X149142335Y-91036578D01*
X149140095Y-91034155D01*
X149131270Y-91024354D01*
X149129095Y-91021874D01*
X149103182Y-90991534D01*
X149101073Y-90988998D01*
X149045604Y-90920500D01*
X148540500Y-90920500D01*
X148540500Y-92446500D01*
X147526500Y-92446500D01*
X147526500Y-90920500D01*
X146000500Y-90920500D01*
X146000500Y-92446500D01*
X144986500Y-92446500D01*
X144986500Y-90920500D01*
X143460500Y-90920500D01*
X143460500Y-92446500D01*
X142446500Y-92446500D01*
X142446500Y-90920500D01*
X140920500Y-90920500D01*
X140920500Y-92446500D01*
X139906500Y-92446500D01*
X139906500Y-90920500D01*
X138380500Y-90920500D01*
X138380500Y-92446500D01*
X137366500Y-92446500D01*
X137366500Y-90920500D01*
X135840500Y-90920500D01*
X135840500Y-92446500D01*
X134826500Y-92446500D01*
X134826500Y-90920500D01*
X133300500Y-90920500D01*
X133300500Y-92446500D01*
X132286500Y-92446500D01*
X132286500Y-90920500D01*
X131522500Y-90920500D01*
X131522500Y-92446500D01*
X130508500Y-92446500D01*
X130508500Y-89906500D01*
X131522500Y-89906500D01*
X132286500Y-89906500D01*
X133300500Y-89906500D01*
X134826500Y-89906500D01*
X135840500Y-89906500D01*
X137366500Y-89906500D01*
X138380500Y-89906500D01*
X139906500Y-89906500D01*
X140920500Y-89906500D01*
X142446500Y-89906500D01*
X143460500Y-89906500D01*
X144986500Y-89906500D01*
X146000500Y-89906500D01*
X147526500Y-89906500D01*
X147526500Y-88380500D01*
X146000500Y-88380500D01*
X146000500Y-89906500D01*
X144986500Y-89906500D01*
X144986500Y-88380500D01*
X143460500Y-88380500D01*
X143460500Y-89906500D01*
X142446500Y-89906500D01*
X142446500Y-88380500D01*
X140920500Y-88380500D01*
X140920500Y-89906500D01*
X139906500Y-89906500D01*
X139906500Y-88380500D01*
X138380500Y-88380500D01*
X138380500Y-89906500D01*
X137366500Y-89906500D01*
X137366500Y-88380500D01*
X135840500Y-88380500D01*
X135840500Y-89906500D01*
X134826500Y-89906500D01*
X134826500Y-88380500D01*
X133300500Y-88380500D01*
X133300500Y-89906500D01*
X132286500Y-89906500D01*
X132286500Y-88380500D01*
X131522500Y-88380500D01*
X131522500Y-89906500D01*
X130508500Y-89906500D01*
X130508500Y-88000000D01*
X148986685Y-88000000D01*
X149005931Y-88367241D01*
X149006444Y-88370481D01*
X149006445Y-88370489D01*
X149021150Y-88463330D01*
X149063459Y-88730459D01*
X149158639Y-89085674D01*
X149290427Y-89428994D01*
X149457380Y-89756657D01*
X149459176Y-89759423D01*
X149459178Y-89759426D01*
X149554689Y-89906500D01*
X149657668Y-90065075D01*
X149889098Y-90350867D01*
X150149133Y-90610902D01*
X150434925Y-90842332D01*
X150743342Y-91042620D01*
X150746276Y-91044115D01*
X150746283Y-91044119D01*
X150988280Y-91167422D01*
X151071006Y-91209573D01*
X151226546Y-91269279D01*
X151407889Y-91338890D01*
X151414326Y-91341361D01*
X151769541Y-91436541D01*
X151962558Y-91467112D01*
X152129511Y-91493555D01*
X152129519Y-91493556D01*
X152132759Y-91494069D01*
X152500000Y-91513315D01*
X152867241Y-91494069D01*
X152870481Y-91493556D01*
X152870489Y-91493555D01*
X153037442Y-91467112D01*
X153230459Y-91436541D01*
X153585674Y-91341361D01*
X153592112Y-91338890D01*
X153773454Y-91269279D01*
X153928994Y-91209573D01*
X154011720Y-91167422D01*
X154253717Y-91044119D01*
X154253724Y-91044115D01*
X154256658Y-91042620D01*
X154565075Y-90842332D01*
X154850867Y-90610902D01*
X155110902Y-90350867D01*
X155342332Y-90065075D01*
X155445311Y-89906500D01*
X156604311Y-89906500D01*
X157686500Y-89906500D01*
X158700500Y-89906500D01*
X160226500Y-89906500D01*
X161240500Y-89906500D01*
X162766500Y-89906500D01*
X162766500Y-88380500D01*
X161240500Y-88380500D01*
X161240500Y-89906500D01*
X160226500Y-89906500D01*
X160226500Y-88380500D01*
X158700500Y-88380500D01*
X158700500Y-89906500D01*
X157686500Y-89906500D01*
X157686500Y-88380500D01*
X157008765Y-88380500D01*
X157006679Y-88420308D01*
X157006464Y-88423596D01*
X157003338Y-88463330D01*
X157003036Y-88466612D01*
X157001658Y-88479729D01*
X157001271Y-88483008D01*
X156996060Y-88522598D01*
X156995586Y-88525866D01*
X156938058Y-88889084D01*
X156937499Y-88892337D01*
X156930228Y-88931564D01*
X156929585Y-88934797D01*
X156926843Y-88947697D01*
X156926115Y-88950914D01*
X156916802Y-88989705D01*
X156915990Y-88992902D01*
X156820810Y-89348117D01*
X156819914Y-89351293D01*
X156808575Y-89389571D01*
X156807596Y-89392725D01*
X156803520Y-89405268D01*
X156802460Y-89408390D01*
X156789152Y-89445967D01*
X156788011Y-89449058D01*
X156656223Y-89792378D01*
X156655002Y-89795438D01*
X156639748Y-89832268D01*
X156638447Y-89835298D01*
X156633083Y-89847347D01*
X156631701Y-89850345D01*
X156614514Y-89886380D01*
X156613054Y-89889341D01*
X156604311Y-89906500D01*
X155445311Y-89906500D01*
X155540822Y-89759426D01*
X155540824Y-89759423D01*
X155542620Y-89756657D01*
X155709573Y-89428994D01*
X155841361Y-89085674D01*
X155936541Y-88730459D01*
X155978850Y-88463330D01*
X155993555Y-88370489D01*
X155993556Y-88370481D01*
X155994069Y-88367241D01*
X156013315Y-88000000D01*
X163986685Y-88000000D01*
X164005931Y-88367241D01*
X164006444Y-88370481D01*
X164006445Y-88370489D01*
X164021150Y-88463330D01*
X164063459Y-88730459D01*
X164158639Y-89085674D01*
X164290427Y-89428994D01*
X164457380Y-89756657D01*
X164459176Y-89759423D01*
X164459178Y-89759426D01*
X164554689Y-89906500D01*
X164657668Y-90065075D01*
X164889098Y-90350867D01*
X165149133Y-90610902D01*
X165434925Y-90842332D01*
X165743342Y-91042620D01*
X165746276Y-91044115D01*
X165746283Y-91044119D01*
X165988280Y-91167422D01*
X166071006Y-91209573D01*
X166226546Y-91269279D01*
X166407889Y-91338890D01*
X166414326Y-91341361D01*
X166769541Y-91436541D01*
X166962558Y-91467112D01*
X167129511Y-91493555D01*
X167129519Y-91493556D01*
X167132759Y-91494069D01*
X167500000Y-91513315D01*
X167867241Y-91494069D01*
X167870481Y-91493556D01*
X167870489Y-91493555D01*
X168037442Y-91467112D01*
X168230459Y-91436541D01*
X168585674Y-91341361D01*
X168592112Y-91338890D01*
X168773454Y-91269279D01*
X168928994Y-91209573D01*
X169011720Y-91167422D01*
X169253717Y-91044119D01*
X169253724Y-91044115D01*
X169256658Y-91042620D01*
X169565075Y-90842332D01*
X169850867Y-90610902D01*
X170110902Y-90350867D01*
X170342332Y-90065075D01*
X170445311Y-89906500D01*
X171604311Y-89906500D01*
X172926500Y-89906500D01*
X173940500Y-89906500D01*
X175466500Y-89906500D01*
X176480500Y-89906500D01*
X178006500Y-89906500D01*
X178006500Y-88539036D01*
X178004414Y-88525866D01*
X178003940Y-88522598D01*
X177998729Y-88483008D01*
X177998342Y-88479729D01*
X177996964Y-88466612D01*
X177996662Y-88463330D01*
X177993536Y-88423596D01*
X177993321Y-88420308D01*
X177991235Y-88380500D01*
X176480500Y-88380500D01*
X176480500Y-89906500D01*
X175466500Y-89906500D01*
X175466500Y-88380500D01*
X173940500Y-88380500D01*
X173940500Y-89906500D01*
X172926500Y-89906500D01*
X172926500Y-88380500D01*
X172008765Y-88380500D01*
X172006679Y-88420308D01*
X172006464Y-88423596D01*
X172003338Y-88463330D01*
X172003036Y-88466612D01*
X172001658Y-88479729D01*
X172001271Y-88483008D01*
X171996060Y-88522598D01*
X171995586Y-88525866D01*
X171938058Y-88889084D01*
X171937499Y-88892337D01*
X171930228Y-88931564D01*
X171929585Y-88934797D01*
X171926843Y-88947697D01*
X171926115Y-88950914D01*
X171916802Y-88989705D01*
X171915990Y-88992902D01*
X171820810Y-89348117D01*
X171819914Y-89351293D01*
X171808575Y-89389571D01*
X171807596Y-89392725D01*
X171803520Y-89405268D01*
X171802460Y-89408390D01*
X171789152Y-89445967D01*
X171788011Y-89449058D01*
X171656223Y-89792378D01*
X171655002Y-89795438D01*
X171639748Y-89832268D01*
X171638447Y-89835298D01*
X171633083Y-89847347D01*
X171631701Y-89850345D01*
X171614514Y-89886380D01*
X171613054Y-89889341D01*
X171604311Y-89906500D01*
X170445311Y-89906500D01*
X170540822Y-89759426D01*
X170540824Y-89759423D01*
X170542620Y-89756657D01*
X170709573Y-89428994D01*
X170841361Y-89085674D01*
X170936541Y-88730459D01*
X170978850Y-88463330D01*
X170993555Y-88370489D01*
X170993556Y-88370481D01*
X170994069Y-88367241D01*
X171013315Y-88000000D01*
X178986685Y-88000000D01*
X179005931Y-88367241D01*
X179006444Y-88370481D01*
X179006445Y-88370489D01*
X179021150Y-88463330D01*
X179063459Y-88730459D01*
X179158639Y-89085674D01*
X179290427Y-89428994D01*
X179457380Y-89756657D01*
X179459176Y-89759423D01*
X179459178Y-89759426D01*
X179554689Y-89906500D01*
X179657668Y-90065075D01*
X179889098Y-90350867D01*
X180149133Y-90610902D01*
X180434925Y-90842332D01*
X180743342Y-91042620D01*
X180746276Y-91044115D01*
X180746283Y-91044119D01*
X180988280Y-91167422D01*
X181071006Y-91209573D01*
X181226546Y-91269279D01*
X181407889Y-91338890D01*
X181414326Y-91341361D01*
X181769541Y-91436541D01*
X181962558Y-91467112D01*
X182129511Y-91493555D01*
X182129519Y-91493556D01*
X182132759Y-91494069D01*
X182500000Y-91513315D01*
X182867241Y-91494069D01*
X182870481Y-91493556D01*
X182870489Y-91493555D01*
X183037442Y-91467112D01*
X183230459Y-91436541D01*
X183585674Y-91341361D01*
X183592112Y-91338890D01*
X183773454Y-91269279D01*
X183928994Y-91209573D01*
X184011720Y-91167422D01*
X184253717Y-91044119D01*
X184253724Y-91044115D01*
X184256658Y-91042620D01*
X184565075Y-90842332D01*
X184850867Y-90610902D01*
X185110902Y-90350867D01*
X185342332Y-90065075D01*
X185445311Y-89906500D01*
X186640500Y-89906500D01*
X188166500Y-89906500D01*
X189180500Y-89906500D01*
X190706500Y-89906500D01*
X191720500Y-89906500D01*
X193246500Y-89906500D01*
X194260500Y-89906500D01*
X195786500Y-89906500D01*
X196800500Y-89906500D01*
X198326500Y-89906500D01*
X199340500Y-89906500D01*
X200866500Y-89906500D01*
X201880500Y-89906500D01*
X203406500Y-89906500D01*
X204420500Y-89906500D01*
X205946500Y-89906500D01*
X206960500Y-89906500D01*
X208486500Y-89906500D01*
X209500500Y-89906500D01*
X211026500Y-89906500D01*
X211026500Y-88380500D01*
X209500500Y-88380500D01*
X209500500Y-89906500D01*
X208486500Y-89906500D01*
X208486500Y-88380500D01*
X206960500Y-88380500D01*
X206960500Y-89906500D01*
X205946500Y-89906500D01*
X205946500Y-88380500D01*
X204420500Y-88380500D01*
X204420500Y-89906500D01*
X203406500Y-89906500D01*
X203406500Y-88380500D01*
X201880500Y-88380500D01*
X201880500Y-89906500D01*
X200866500Y-89906500D01*
X200866500Y-88380500D01*
X199340500Y-88380500D01*
X199340500Y-89906500D01*
X198326500Y-89906500D01*
X198326500Y-88380500D01*
X196800500Y-88380500D01*
X196800500Y-89906500D01*
X195786500Y-89906500D01*
X195786500Y-88380500D01*
X194260500Y-88380500D01*
X194260500Y-89906500D01*
X193246500Y-89906500D01*
X193246500Y-88380500D01*
X191720500Y-88380500D01*
X191720500Y-89906500D01*
X190706500Y-89906500D01*
X190706500Y-88380500D01*
X189180500Y-88380500D01*
X189180500Y-89906500D01*
X188166500Y-89906500D01*
X188166500Y-88380500D01*
X187008765Y-88380500D01*
X187006679Y-88420308D01*
X187006464Y-88423596D01*
X187003338Y-88463330D01*
X187003036Y-88466612D01*
X187001658Y-88479729D01*
X187001271Y-88483008D01*
X186996060Y-88522598D01*
X186995586Y-88525866D01*
X186938058Y-88889084D01*
X186937499Y-88892337D01*
X186930228Y-88931564D01*
X186929585Y-88934797D01*
X186926843Y-88947697D01*
X186926115Y-88950914D01*
X186916802Y-88989705D01*
X186915990Y-88992902D01*
X186820810Y-89348117D01*
X186819914Y-89351293D01*
X186808575Y-89389571D01*
X186807596Y-89392725D01*
X186803520Y-89405268D01*
X186802460Y-89408390D01*
X186789152Y-89445967D01*
X186788011Y-89449058D01*
X186656223Y-89792378D01*
X186655002Y-89795438D01*
X186640500Y-89830452D01*
X186640500Y-89906500D01*
X185445311Y-89906500D01*
X185540822Y-89759426D01*
X185540824Y-89759423D01*
X185542620Y-89756657D01*
X185709573Y-89428994D01*
X185841361Y-89085674D01*
X185936541Y-88730459D01*
X185978850Y-88463330D01*
X185993555Y-88370489D01*
X185993556Y-88370481D01*
X185994069Y-88367241D01*
X186013315Y-88000000D01*
X185994069Y-87632759D01*
X185936541Y-87269541D01*
X185841361Y-86914326D01*
X185709573Y-86571006D01*
X185542620Y-86243343D01*
X185517436Y-86204562D01*
X185494698Y-86169548D01*
X186640500Y-86169548D01*
X186655002Y-86204562D01*
X186656223Y-86207622D01*
X186788011Y-86550942D01*
X186789152Y-86554033D01*
X186802460Y-86591610D01*
X186803520Y-86594732D01*
X186807596Y-86607275D01*
X186808575Y-86610429D01*
X186819914Y-86648707D01*
X186820810Y-86651883D01*
X186915990Y-87007098D01*
X186916802Y-87010295D01*
X186926115Y-87049086D01*
X186926843Y-87052303D01*
X186929585Y-87065203D01*
X186930228Y-87068436D01*
X186937499Y-87107663D01*
X186938058Y-87110916D01*
X186978538Y-87366500D01*
X188166500Y-87366500D01*
X189180500Y-87366500D01*
X190706500Y-87366500D01*
X191720500Y-87366500D01*
X193246500Y-87366500D01*
X194260500Y-87366500D01*
X195786500Y-87366500D01*
X196800500Y-87366500D01*
X198326500Y-87366500D01*
X199340500Y-87366500D01*
X200866500Y-87366500D01*
X201880500Y-87366500D01*
X203406500Y-87366500D01*
X204420500Y-87366500D01*
X205946500Y-87366500D01*
X206960500Y-87366500D01*
X208486500Y-87366500D01*
X209500500Y-87366500D01*
X211026500Y-87366500D01*
X211026500Y-85840500D01*
X209500500Y-85840500D01*
X209500500Y-87366500D01*
X208486500Y-87366500D01*
X208486500Y-85840500D01*
X206960500Y-85840500D01*
X206960500Y-87366500D01*
X205946500Y-87366500D01*
X205946500Y-85840500D01*
X204420500Y-85840500D01*
X204420500Y-87366500D01*
X203406500Y-87366500D01*
X203406500Y-85840500D01*
X201880500Y-85840500D01*
X201880500Y-87366500D01*
X200866500Y-87366500D01*
X200866500Y-85840500D01*
X199340500Y-85840500D01*
X199340500Y-87366500D01*
X198326500Y-87366500D01*
X198326500Y-85840500D01*
X196800500Y-85840500D01*
X196800500Y-87366500D01*
X195786500Y-87366500D01*
X195786500Y-85840500D01*
X194260500Y-85840500D01*
X194260500Y-87366500D01*
X193246500Y-87366500D01*
X193246500Y-85840500D01*
X191720500Y-85840500D01*
X191720500Y-87366500D01*
X190706500Y-87366500D01*
X190706500Y-85840500D01*
X189180500Y-85840500D01*
X189180500Y-87366500D01*
X188166500Y-87366500D01*
X188166500Y-85840500D01*
X186640500Y-85840500D01*
X186640500Y-86169548D01*
X185494698Y-86169548D01*
X185344134Y-85937700D01*
X185342332Y-85934925D01*
X185110902Y-85649133D01*
X184850867Y-85389098D01*
X184565075Y-85157668D01*
X184256658Y-84957380D01*
X184253724Y-84955885D01*
X184253717Y-84955881D01*
X183999792Y-84826500D01*
X186640500Y-84826500D01*
X188166500Y-84826500D01*
X189180500Y-84826500D01*
X190706500Y-84826500D01*
X191720500Y-84826500D01*
X193246500Y-84826500D01*
X194260500Y-84826500D01*
X195786500Y-84826500D01*
X196800500Y-84826500D01*
X198326500Y-84826500D01*
X199340500Y-84826500D01*
X200866500Y-84826500D01*
X201880500Y-84826500D01*
X203406500Y-84826500D01*
X204420500Y-84826500D01*
X205946500Y-84826500D01*
X206960500Y-84826500D01*
X208486500Y-84826500D01*
X209500500Y-84826500D01*
X211026500Y-84826500D01*
X211026500Y-83300500D01*
X209500500Y-83300500D01*
X209500500Y-84826500D01*
X208486500Y-84826500D01*
X208486500Y-83300500D01*
X206960500Y-83300500D01*
X206960500Y-84826500D01*
X205946500Y-84826500D01*
X205946500Y-83300500D01*
X204420500Y-83300500D01*
X204420500Y-84826500D01*
X203406500Y-84826500D01*
X203406500Y-83300500D01*
X201880500Y-83300500D01*
X201880500Y-84826500D01*
X200866500Y-84826500D01*
X200866500Y-83300500D01*
X199340500Y-83300500D01*
X199340500Y-84826500D01*
X198326500Y-84826500D01*
X198326500Y-83300500D01*
X196800500Y-83300500D01*
X196800500Y-84826500D01*
X195786500Y-84826500D01*
X195786500Y-83300500D01*
X194260500Y-83300500D01*
X194260500Y-84826500D01*
X193246500Y-84826500D01*
X193246500Y-83300500D01*
X191720500Y-83300500D01*
X191720500Y-84826500D01*
X190706500Y-84826500D01*
X190706500Y-83300500D01*
X189180500Y-83300500D01*
X189180500Y-84826500D01*
X188166500Y-84826500D01*
X188166500Y-83300500D01*
X186640500Y-83300500D01*
X186640500Y-84826500D01*
X183999792Y-84826500D01*
X183931934Y-84791925D01*
X183928994Y-84790427D01*
X183585674Y-84658639D01*
X183230459Y-84563459D01*
X183037442Y-84532888D01*
X182870489Y-84506445D01*
X182870481Y-84506444D01*
X182867241Y-84505931D01*
X182500000Y-84486685D01*
X182132759Y-84505931D01*
X182129519Y-84506444D01*
X182129511Y-84506445D01*
X181962558Y-84532888D01*
X181769541Y-84563459D01*
X181414326Y-84658639D01*
X181071006Y-84790427D01*
X181068066Y-84791925D01*
X180746284Y-84955881D01*
X180746277Y-84955885D01*
X180743343Y-84957380D01*
X180434925Y-85157668D01*
X180149133Y-85389098D01*
X179889098Y-85649133D01*
X179657668Y-85934925D01*
X179655866Y-85937700D01*
X179482565Y-86204562D01*
X179457380Y-86243343D01*
X179290427Y-86571006D01*
X179158639Y-86914326D01*
X179063459Y-87269541D01*
X179005931Y-87632759D01*
X178986685Y-88000000D01*
X171013315Y-88000000D01*
X170994069Y-87632759D01*
X170936541Y-87269541D01*
X170841361Y-86914326D01*
X170709573Y-86571006D01*
X170542620Y-86243343D01*
X170517436Y-86204562D01*
X170344134Y-85937700D01*
X170342332Y-85934925D01*
X170265868Y-85840500D01*
X171475401Y-85840500D01*
X171613054Y-86110659D01*
X171614514Y-86113620D01*
X171631701Y-86149655D01*
X171633083Y-86152653D01*
X171638447Y-86164702D01*
X171639748Y-86167732D01*
X171655002Y-86204562D01*
X171656223Y-86207622D01*
X171788011Y-86550942D01*
X171789152Y-86554033D01*
X171802460Y-86591610D01*
X171803520Y-86594732D01*
X171807596Y-86607275D01*
X171808575Y-86610429D01*
X171819914Y-86648707D01*
X171820810Y-86651883D01*
X171915990Y-87007098D01*
X171916802Y-87010295D01*
X171926115Y-87049086D01*
X171926843Y-87052303D01*
X171929585Y-87065203D01*
X171930228Y-87068436D01*
X171937499Y-87107663D01*
X171938058Y-87110916D01*
X171978538Y-87366500D01*
X172926500Y-87366500D01*
X173940500Y-87366500D01*
X175466500Y-87366500D01*
X176480500Y-87366500D01*
X178006500Y-87366500D01*
X178006500Y-85840500D01*
X176480500Y-85840500D01*
X176480500Y-87366500D01*
X175466500Y-87366500D01*
X175466500Y-85840500D01*
X173940500Y-85840500D01*
X173940500Y-87366500D01*
X172926500Y-87366500D01*
X172926500Y-85840500D01*
X171475401Y-85840500D01*
X170265868Y-85840500D01*
X170110902Y-85649133D01*
X169850867Y-85389098D01*
X169565075Y-85157668D01*
X169256658Y-84957380D01*
X169253724Y-84955885D01*
X169253717Y-84955881D01*
X168999792Y-84826500D01*
X171400500Y-84826500D01*
X172926500Y-84826500D01*
X173940500Y-84826500D01*
X175466500Y-84826500D01*
X176480500Y-84826500D01*
X178006500Y-84826500D01*
X179020500Y-84826500D01*
X179277721Y-84826500D01*
X179432128Y-84672093D01*
X179434489Y-84669792D01*
X179463422Y-84642335D01*
X179465845Y-84640095D01*
X179475646Y-84631270D01*
X179478126Y-84629095D01*
X179508466Y-84603182D01*
X179511003Y-84601073D01*
X179796795Y-84369643D01*
X179799383Y-84367602D01*
X179831003Y-84343338D01*
X179833643Y-84341366D01*
X179844313Y-84333613D01*
X179847008Y-84331709D01*
X179879916Y-84309090D01*
X179882663Y-84307254D01*
X180191081Y-84106966D01*
X180193871Y-84105206D01*
X180227881Y-84084365D01*
X180230714Y-84082679D01*
X180242135Y-84076085D01*
X180245013Y-84074473D01*
X180280076Y-84055435D01*
X180282996Y-84053899D01*
X180546500Y-83919637D01*
X180546500Y-83770122D01*
X184100500Y-83770122D01*
X184292378Y-83843777D01*
X184295438Y-83844998D01*
X184332268Y-83860252D01*
X184335298Y-83861553D01*
X184347347Y-83866917D01*
X184350345Y-83868299D01*
X184386380Y-83885486D01*
X184389341Y-83886946D01*
X184717005Y-84053899D01*
X184719925Y-84055435D01*
X184754988Y-84074473D01*
X184757866Y-84076085D01*
X184769287Y-84082679D01*
X184772122Y-84084366D01*
X184806132Y-84105208D01*
X184808920Y-84106967D01*
X185117337Y-84307255D01*
X185120082Y-84309090D01*
X185152990Y-84331708D01*
X185155687Y-84333613D01*
X185166357Y-84341366D01*
X185168997Y-84343338D01*
X185200617Y-84367602D01*
X185203205Y-84369643D01*
X185488997Y-84601073D01*
X185491534Y-84603182D01*
X185521874Y-84629095D01*
X185524354Y-84631270D01*
X185534155Y-84640095D01*
X185536578Y-84642335D01*
X185565511Y-84669792D01*
X185567872Y-84672093D01*
X185626500Y-84730721D01*
X185626500Y-83300500D01*
X184100500Y-83300500D01*
X184100500Y-83770122D01*
X180546500Y-83770122D01*
X180546500Y-83300500D01*
X179020500Y-83300500D01*
X179020500Y-84826500D01*
X178006500Y-84826500D01*
X178006500Y-83300500D01*
X176480500Y-83300500D01*
X176480500Y-84826500D01*
X175466500Y-84826500D01*
X175466500Y-83300500D01*
X173940500Y-83300500D01*
X173940500Y-84826500D01*
X172926500Y-84826500D01*
X172926500Y-83300500D01*
X171400500Y-83300500D01*
X171400500Y-84826500D01*
X168999792Y-84826500D01*
X168931934Y-84791925D01*
X168928994Y-84790427D01*
X168585674Y-84658639D01*
X168230459Y-84563459D01*
X168037442Y-84532888D01*
X167870489Y-84506445D01*
X167870481Y-84506444D01*
X167867241Y-84505931D01*
X167500000Y-84486685D01*
X167132759Y-84505931D01*
X167129519Y-84506444D01*
X167129511Y-84506445D01*
X166962558Y-84532888D01*
X166769541Y-84563459D01*
X166414326Y-84658639D01*
X166071006Y-84790427D01*
X166068066Y-84791925D01*
X165746284Y-84955881D01*
X165746277Y-84955885D01*
X165743343Y-84957380D01*
X165434925Y-85157668D01*
X165149133Y-85389098D01*
X164889098Y-85649133D01*
X164657668Y-85934925D01*
X164655866Y-85937700D01*
X164482565Y-86204562D01*
X164457380Y-86243343D01*
X164290427Y-86571006D01*
X164158639Y-86914326D01*
X164063459Y-87269541D01*
X164005931Y-87632759D01*
X163986685Y-88000000D01*
X156013315Y-88000000D01*
X155994069Y-87632759D01*
X155936541Y-87269541D01*
X155841361Y-86914326D01*
X155709573Y-86571006D01*
X155542620Y-86243343D01*
X155517436Y-86204562D01*
X155344134Y-85937700D01*
X155342332Y-85934925D01*
X155265868Y-85840500D01*
X156475401Y-85840500D01*
X156613054Y-86110659D01*
X156614514Y-86113620D01*
X156631701Y-86149655D01*
X156633083Y-86152653D01*
X156638447Y-86164702D01*
X156639748Y-86167732D01*
X156655002Y-86204562D01*
X156656223Y-86207622D01*
X156788011Y-86550942D01*
X156789152Y-86554033D01*
X156802460Y-86591610D01*
X156803520Y-86594732D01*
X156807596Y-86607275D01*
X156808575Y-86610429D01*
X156819914Y-86648707D01*
X156820810Y-86651883D01*
X156915990Y-87007098D01*
X156916802Y-87010295D01*
X156926115Y-87049086D01*
X156926843Y-87052303D01*
X156929585Y-87065203D01*
X156930228Y-87068436D01*
X156937499Y-87107663D01*
X156938058Y-87110916D01*
X156978538Y-87366500D01*
X157686500Y-87366500D01*
X158700500Y-87366500D01*
X160226500Y-87366500D01*
X161240500Y-87366500D01*
X162766500Y-87366500D01*
X162766500Y-85840500D01*
X161240500Y-85840500D01*
X161240500Y-87366500D01*
X160226500Y-87366500D01*
X160226500Y-85840500D01*
X158700500Y-85840500D01*
X158700500Y-87366500D01*
X157686500Y-87366500D01*
X157686500Y-85840500D01*
X156475401Y-85840500D01*
X155265868Y-85840500D01*
X155110902Y-85649133D01*
X154850867Y-85389098D01*
X154565075Y-85157668D01*
X154256658Y-84957380D01*
X154253724Y-84955885D01*
X154253717Y-84955881D01*
X153999792Y-84826500D01*
X156160500Y-84826500D01*
X157686500Y-84826500D01*
X158700500Y-84826500D01*
X160226500Y-84826500D01*
X161240500Y-84826500D01*
X162766500Y-84826500D01*
X163780500Y-84826500D01*
X164277721Y-84826500D01*
X164432128Y-84672093D01*
X164434489Y-84669792D01*
X164463422Y-84642335D01*
X164465845Y-84640095D01*
X164475646Y-84631270D01*
X164478126Y-84629095D01*
X164508466Y-84603182D01*
X164511003Y-84601073D01*
X164796795Y-84369643D01*
X164799383Y-84367602D01*
X164831003Y-84343338D01*
X164833643Y-84341366D01*
X164844313Y-84333613D01*
X164847008Y-84331709D01*
X164879916Y-84309090D01*
X164882663Y-84307254D01*
X165191081Y-84106966D01*
X165193871Y-84105206D01*
X165227881Y-84084365D01*
X165230714Y-84082679D01*
X165242135Y-84076085D01*
X165245013Y-84074473D01*
X165280076Y-84055435D01*
X165282996Y-84053899D01*
X165306500Y-84041923D01*
X165306500Y-83682813D01*
X168860500Y-83682813D01*
X168889571Y-83691425D01*
X168892725Y-83692404D01*
X168905268Y-83696480D01*
X168908390Y-83697540D01*
X168945967Y-83710848D01*
X168949058Y-83711989D01*
X169292378Y-83843777D01*
X169295438Y-83844998D01*
X169332268Y-83860252D01*
X169335298Y-83861553D01*
X169347347Y-83866917D01*
X169350345Y-83868299D01*
X169386380Y-83885486D01*
X169389341Y-83886946D01*
X169717005Y-84053899D01*
X169719925Y-84055435D01*
X169754988Y-84074473D01*
X169757866Y-84076085D01*
X169769287Y-84082679D01*
X169772122Y-84084366D01*
X169806132Y-84105208D01*
X169808920Y-84106967D01*
X170117337Y-84307255D01*
X170120082Y-84309090D01*
X170152990Y-84331708D01*
X170155687Y-84333613D01*
X170166357Y-84341366D01*
X170168997Y-84343338D01*
X170200617Y-84367602D01*
X170203205Y-84369643D01*
X170386500Y-84518072D01*
X170386500Y-83300500D01*
X168860500Y-83300500D01*
X168860500Y-83682813D01*
X165306500Y-83682813D01*
X165306500Y-83300500D01*
X163780500Y-83300500D01*
X163780500Y-84826500D01*
X162766500Y-84826500D01*
X162766500Y-83300500D01*
X161240500Y-83300500D01*
X161240500Y-84826500D01*
X160226500Y-84826500D01*
X160226500Y-83300500D01*
X158700500Y-83300500D01*
X158700500Y-84826500D01*
X157686500Y-84826500D01*
X157686500Y-83300500D01*
X156160500Y-83300500D01*
X156160500Y-84826500D01*
X153999792Y-84826500D01*
X153931934Y-84791925D01*
X153928994Y-84790427D01*
X153585674Y-84658639D01*
X153230459Y-84563459D01*
X153037442Y-84532888D01*
X152870489Y-84506445D01*
X152870481Y-84506444D01*
X152867241Y-84505931D01*
X152500000Y-84486685D01*
X152132759Y-84505931D01*
X152129519Y-84506444D01*
X152129511Y-84506445D01*
X151962558Y-84532888D01*
X151769541Y-84563459D01*
X151414326Y-84658639D01*
X151071006Y-84790427D01*
X151068066Y-84791925D01*
X150746284Y-84955881D01*
X150746277Y-84955885D01*
X150743343Y-84957380D01*
X150434925Y-85157668D01*
X150149133Y-85389098D01*
X149889098Y-85649133D01*
X149657668Y-85934925D01*
X149655866Y-85937700D01*
X149482565Y-86204562D01*
X149457380Y-86243343D01*
X149290427Y-86571006D01*
X149158639Y-86914326D01*
X149063459Y-87269541D01*
X149005931Y-87632759D01*
X148986685Y-88000000D01*
X130508500Y-88000000D01*
X130508500Y-87366500D01*
X131522500Y-87366500D01*
X132286500Y-87366500D01*
X133300500Y-87366500D01*
X134826500Y-87366500D01*
X135840500Y-87366500D01*
X137366500Y-87366500D01*
X138380500Y-87366500D01*
X139906500Y-87366500D01*
X140920500Y-87366500D01*
X142446500Y-87366500D01*
X143460500Y-87366500D01*
X144986500Y-87366500D01*
X146000500Y-87366500D01*
X147526500Y-87366500D01*
X147526500Y-85840500D01*
X146000500Y-85840500D01*
X146000500Y-87366500D01*
X144986500Y-87366500D01*
X144986500Y-85840500D01*
X143460500Y-85840500D01*
X143460500Y-87366500D01*
X142446500Y-87366500D01*
X142446500Y-85840500D01*
X140920500Y-85840500D01*
X140920500Y-87366500D01*
X139906500Y-87366500D01*
X139906500Y-85840500D01*
X138380500Y-85840500D01*
X138380500Y-87366500D01*
X137366500Y-87366500D01*
X137366500Y-85840500D01*
X135840500Y-85840500D01*
X135840500Y-87366500D01*
X134826500Y-87366500D01*
X134826500Y-85840500D01*
X133300500Y-85840500D01*
X133300500Y-87366500D01*
X132286500Y-87366500D01*
X132286500Y-85840500D01*
X131522500Y-85840500D01*
X131522500Y-87366500D01*
X130508500Y-87366500D01*
X130508500Y-84826500D01*
X131522500Y-84826500D01*
X132286500Y-84826500D01*
X133300500Y-84826500D01*
X134826500Y-84826500D01*
X135840500Y-84826500D01*
X137366500Y-84826500D01*
X138380500Y-84826500D01*
X139906500Y-84826500D01*
X140920500Y-84826500D01*
X142446500Y-84826500D01*
X143460500Y-84826500D01*
X144986500Y-84826500D01*
X146000500Y-84826500D01*
X147526500Y-84826500D01*
X148540500Y-84826500D01*
X149277721Y-84826500D01*
X149432128Y-84672093D01*
X149434489Y-84669792D01*
X149463422Y-84642335D01*
X149465845Y-84640095D01*
X149475646Y-84631270D01*
X149478126Y-84629095D01*
X149508466Y-84603182D01*
X149511003Y-84601073D01*
X149796795Y-84369643D01*
X149799383Y-84367602D01*
X149831003Y-84343338D01*
X149833643Y-84341366D01*
X149844313Y-84333613D01*
X149847008Y-84331709D01*
X149879916Y-84309090D01*
X149882663Y-84307254D01*
X150066500Y-84187869D01*
X150066500Y-83618200D01*
X153620500Y-83618200D01*
X153848117Y-83679190D01*
X153851293Y-83680086D01*
X153889571Y-83691425D01*
X153892725Y-83692404D01*
X153905268Y-83696480D01*
X153908390Y-83697540D01*
X153945967Y-83710848D01*
X153949058Y-83711989D01*
X154292378Y-83843777D01*
X154295438Y-83844998D01*
X154332268Y-83860252D01*
X154335298Y-83861553D01*
X154347347Y-83866917D01*
X154350345Y-83868299D01*
X154386380Y-83885486D01*
X154389341Y-83886946D01*
X154717005Y-84053899D01*
X154719925Y-84055435D01*
X154754988Y-84074473D01*
X154757866Y-84076085D01*
X154769287Y-84082679D01*
X154772122Y-84084366D01*
X154806132Y-84105208D01*
X154808920Y-84106967D01*
X155117337Y-84307255D01*
X155120082Y-84309090D01*
X155146500Y-84327247D01*
X155146500Y-83300500D01*
X153620500Y-83300500D01*
X153620500Y-83618200D01*
X150066500Y-83618200D01*
X150066500Y-83300500D01*
X148540500Y-83300500D01*
X148540500Y-84826500D01*
X147526500Y-84826500D01*
X147526500Y-83300500D01*
X146000500Y-83300500D01*
X146000500Y-84826500D01*
X144986500Y-84826500D01*
X144986500Y-83300500D01*
X143460500Y-83300500D01*
X143460500Y-84826500D01*
X142446500Y-84826500D01*
X142446500Y-83300500D01*
X140920500Y-83300500D01*
X140920500Y-84826500D01*
X139906500Y-84826500D01*
X139906500Y-83300500D01*
X138380500Y-83300500D01*
X138380500Y-84826500D01*
X137366500Y-84826500D01*
X137366500Y-83300500D01*
X135840500Y-83300500D01*
X135840500Y-84826500D01*
X134826500Y-84826500D01*
X134826500Y-83300500D01*
X133300500Y-83300500D01*
X133300500Y-84826500D01*
X132286500Y-84826500D01*
X132286500Y-83300500D01*
X131522500Y-83300500D01*
X131522500Y-84826500D01*
X130508500Y-84826500D01*
X130508500Y-82286500D01*
X131522500Y-82286500D01*
X132286500Y-82286500D01*
X133300500Y-82286500D01*
X134826500Y-82286500D01*
X135840500Y-82286500D01*
X137366500Y-82286500D01*
X138380500Y-82286500D01*
X139906500Y-82286500D01*
X140920500Y-82286500D01*
X142446500Y-82286500D01*
X143460500Y-82286500D01*
X144986500Y-82286500D01*
X146000500Y-82286500D01*
X147526500Y-82286500D01*
X148540500Y-82286500D01*
X150066500Y-82286500D01*
X151080500Y-82286500D01*
X152606500Y-82286500D01*
X153620500Y-82286500D01*
X155146500Y-82286500D01*
X156160500Y-82286500D01*
X157686500Y-82286500D01*
X158700500Y-82286500D01*
X160226500Y-82286500D01*
X161240500Y-82286500D01*
X162766500Y-82286500D01*
X163780500Y-82286500D01*
X165306500Y-82286500D01*
X166320500Y-82286500D01*
X167846500Y-82286500D01*
X168860500Y-82286500D01*
X170386500Y-82286500D01*
X171400500Y-82286500D01*
X172926500Y-82286500D01*
X173940500Y-82286500D01*
X175466500Y-82286500D01*
X176480500Y-82286500D01*
X178006500Y-82286500D01*
X179020500Y-82286500D01*
X180546500Y-82286500D01*
X181560500Y-82286500D01*
X183086500Y-82286500D01*
X184100500Y-82286500D01*
X185626500Y-82286500D01*
X186640500Y-82286500D01*
X188166500Y-82286500D01*
X189180500Y-82286500D01*
X190706500Y-82286500D01*
X191720500Y-82286500D01*
X193246500Y-82286500D01*
X194260500Y-82286500D01*
X195786500Y-82286500D01*
X196800500Y-82286500D01*
X198326500Y-82286500D01*
X199340500Y-82286500D01*
X200866500Y-82286500D01*
X201880500Y-82286500D01*
X203406500Y-82286500D01*
X204420500Y-82286500D01*
X205946500Y-82286500D01*
X206960500Y-82286500D01*
X208486500Y-82286500D01*
X209500500Y-82286500D01*
X211026500Y-82286500D01*
X211026500Y-81522500D01*
X209500500Y-81522500D01*
X209500500Y-82286500D01*
X208486500Y-82286500D01*
X208486500Y-81522500D01*
X206960500Y-81522500D01*
X206960500Y-82286500D01*
X205946500Y-82286500D01*
X205946500Y-81522500D01*
X204420500Y-81522500D01*
X204420500Y-82286500D01*
X203406500Y-82286500D01*
X203406500Y-81522500D01*
X201880500Y-81522500D01*
X201880500Y-82286500D01*
X200866500Y-82286500D01*
X200866500Y-81522500D01*
X199340500Y-81522500D01*
X199340500Y-82286500D01*
X198326500Y-82286500D01*
X198326500Y-81522500D01*
X196800500Y-81522500D01*
X196800500Y-82286500D01*
X195786500Y-82286500D01*
X195786500Y-81522500D01*
X194260500Y-81522500D01*
X194260500Y-82286500D01*
X193246500Y-82286500D01*
X193246500Y-81522500D01*
X191720500Y-81522500D01*
X191720500Y-82286500D01*
X190706500Y-82286500D01*
X190706500Y-81522500D01*
X189180500Y-81522500D01*
X189180500Y-82286500D01*
X188166500Y-82286500D01*
X188166500Y-81522500D01*
X186640500Y-81522500D01*
X186640500Y-82286500D01*
X185626500Y-82286500D01*
X185626500Y-81522500D01*
X184100500Y-81522500D01*
X184100500Y-82286500D01*
X183086500Y-82286500D01*
X183086500Y-81522500D01*
X181560500Y-81522500D01*
X181560500Y-82286500D01*
X180546500Y-82286500D01*
X180546500Y-81522500D01*
X179020500Y-81522500D01*
X179020500Y-82286500D01*
X178006500Y-82286500D01*
X178006500Y-81522500D01*
X176480500Y-81522500D01*
X176480500Y-82286500D01*
X175466500Y-82286500D01*
X175466500Y-81522500D01*
X173940500Y-81522500D01*
X173940500Y-82286500D01*
X172926500Y-82286500D01*
X172926500Y-81522500D01*
X171400500Y-81522500D01*
X171400500Y-82286500D01*
X170386500Y-82286500D01*
X170386500Y-81522500D01*
X168860500Y-81522500D01*
X168860500Y-82286500D01*
X167846500Y-82286500D01*
X167846500Y-81522500D01*
X166320500Y-81522500D01*
X166320500Y-82286500D01*
X165306500Y-82286500D01*
X165306500Y-81522500D01*
X163780500Y-81522500D01*
X163780500Y-82286500D01*
X162766500Y-82286500D01*
X162766500Y-81522500D01*
X161240500Y-81522500D01*
X161240500Y-82286500D01*
X160226500Y-82286500D01*
X160226500Y-81522500D01*
X158700500Y-81522500D01*
X158700500Y-82286500D01*
X157686500Y-82286500D01*
X157686500Y-81522500D01*
X156160500Y-81522500D01*
X156160500Y-82286500D01*
X155146500Y-82286500D01*
X155146500Y-81522500D01*
X153620500Y-81522500D01*
X153620500Y-82286500D01*
X152606500Y-82286500D01*
X152606500Y-81522500D01*
X151080500Y-81522500D01*
X151080500Y-82286500D01*
X150066500Y-82286500D01*
X150066500Y-81522500D01*
X148540500Y-81522500D01*
X148540500Y-82286500D01*
X147526500Y-82286500D01*
X147526500Y-81522500D01*
X146000500Y-81522500D01*
X146000500Y-82286500D01*
X144986500Y-82286500D01*
X144986500Y-81522500D01*
X143460500Y-81522500D01*
X143460500Y-82286500D01*
X142446500Y-82286500D01*
X142446500Y-81522500D01*
X140920500Y-81522500D01*
X140920500Y-82286500D01*
X139906500Y-82286500D01*
X139906500Y-81522500D01*
X138380500Y-81522500D01*
X138380500Y-82286500D01*
X137366500Y-82286500D01*
X137366500Y-81522500D01*
X135840500Y-81522500D01*
X135840500Y-82286500D01*
X134826500Y-82286500D01*
X134826500Y-81522500D01*
X133300500Y-81522500D01*
X133300500Y-82286500D01*
X132286500Y-82286500D01*
X132286500Y-81522500D01*
X131522500Y-81522500D01*
X131522500Y-82286500D01*
X130508500Y-82286500D01*
X130508500Y-80634500D01*
X130528502Y-80566379D01*
X130582158Y-80519886D01*
X130634500Y-80508500D01*
X212365500Y-80508500D01*
X212433621Y-80528502D01*
G37*
G04 #@! TD.AperFunction*
G04 #@! TD*
D20*
X157000000Y-118799503D03*
X157000000Y-117400000D03*
X157000000Y-116000000D03*
X131200000Y-112700000D03*
X138000000Y-106900000D03*
X167500000Y-107000000D03*
X156402841Y-112600000D03*
X152500000Y-107000000D03*
X155292996Y-113793496D03*
X182500000Y-107000000D03*
X155300000Y-111400000D03*
X161700000Y-119300000D03*
X182500000Y-88000000D03*
X152500000Y-88000000D03*
X167500000Y-88000000D03*
X148000000Y-116000000D03*
X148000000Y-113460000D03*
X145460000Y-116000000D03*
X145460000Y-113460000D03*
X142920000Y-116000000D03*
X142920000Y-113460000D03*
X140380000Y-116000000D03*
X140380000Y-113460000D03*
X137840000Y-116000000D03*
X137840000Y-113460000D03*
M02*
