%TF.GenerationSoftware,KiCad,Pcbnew,7.0.1-1.fc37*%
%TF.CreationDate,2023-03-23T23:58:22+01:00*%
%TF.ProjectId,cw-amp-controll-board,63772d61-6d70-42d6-936f-6e74726f6c6c,rev?*%
%TF.SameCoordinates,Original*%
%TF.FileFunction,Plated,1,4,PTH,Drill*%
%TF.FilePolarity,Positive*%
%FSLAX46Y46*%
G04 Gerber Fmt 4.6, Leading zero omitted, Abs format (unit mm)*
G04 Created by KiCad (PCBNEW 7.0.1-1.fc37) date 2023-03-23 23:58:22*
%MOMM*%
%LPD*%
G01*
G04 APERTURE LIST*
%TA.AperFunction,ViaDrill*%
%ADD10C,0.800000*%
%TD*%
%TA.AperFunction,ComponentDrill*%
%ADD11C,1.000000*%
%TD*%
%TA.AperFunction,ComponentDrill*%
%ADD12C,3.500000*%
%TD*%
G04 APERTURE END LIST*
D10*
X116800051Y-122200000D03*
X117500000Y-145974500D03*
X117900500Y-76400000D03*
X118199554Y-122200000D03*
X119000000Y-98500000D03*
X119500000Y-151075000D03*
X119599057Y-122200000D03*
X120100000Y-81100000D03*
X120300000Y-76400000D03*
X120998560Y-122200000D03*
X121000000Y-103700000D03*
X122000000Y-72400000D03*
X124426771Y-138802921D03*
X124850000Y-75700500D03*
X125100000Y-94500000D03*
X126449020Y-103500000D03*
X126500000Y-138775000D03*
X126506505Y-94507002D03*
X127200000Y-133000000D03*
X127206754Y-131593246D03*
X127600000Y-76800000D03*
X127600000Y-87100000D03*
X128100000Y-140475000D03*
X128999503Y-76800000D03*
X129300000Y-153475000D03*
X129300000Y-155300000D03*
X129800000Y-102000000D03*
X129900000Y-141875000D03*
X130200000Y-118000000D03*
X130300000Y-120000000D03*
X130800000Y-76800000D03*
X130900000Y-94900000D03*
X131400000Y-147149500D03*
X131992998Y-105307499D03*
X131999659Y-108106479D03*
X132000000Y-103900994D03*
X132001215Y-106706977D03*
X133000000Y-149800000D03*
X133100000Y-144000000D03*
X134400000Y-98500000D03*
X136000000Y-96800000D03*
X136500000Y-112100000D03*
X137800000Y-108500000D03*
X138000000Y-95200000D03*
X138100000Y-112100000D03*
X139500000Y-96800000D03*
X141000000Y-104900000D03*
X141000000Y-146000000D03*
X142400497Y-105300000D03*
X142500000Y-76900000D03*
X144399531Y-106600469D03*
X144500000Y-108200000D03*
X145000000Y-90900000D03*
X145800000Y-102700000D03*
X146100000Y-97500497D03*
X146100000Y-98900000D03*
X146900000Y-75200000D03*
X147200000Y-95400000D03*
X147300000Y-120000000D03*
X147400000Y-118000000D03*
X147600000Y-97000000D03*
X149100000Y-89000000D03*
X150600000Y-79900000D03*
X152500000Y-121300000D03*
X153800000Y-111000000D03*
X154900000Y-108500000D03*
X155200000Y-112100000D03*
X156700000Y-126600000D03*
X156994064Y-94899500D03*
X157800000Y-101900000D03*
X158400000Y-126600000D03*
X158503904Y-107165261D03*
X159493502Y-108154859D03*
X159800000Y-91500000D03*
X159893246Y-126606754D03*
X160445500Y-109180679D03*
X162800000Y-126100000D03*
X164200000Y-118000000D03*
X164300000Y-120000000D03*
X165400000Y-91500000D03*
X167300000Y-95100000D03*
X167900000Y-98900000D03*
X168000000Y-103000000D03*
X169250000Y-110500980D03*
X169400000Y-103100000D03*
X174500000Y-112100000D03*
X175000000Y-128000000D03*
X175800000Y-139000000D03*
X176146517Y-128999500D03*
X177390910Y-129639885D03*
X177500000Y-142700000D03*
X178200000Y-112200000D03*
X179500000Y-142700000D03*
X180600000Y-93300000D03*
X182012933Y-104035462D03*
X182401460Y-117400000D03*
X183000000Y-125600000D03*
X183000980Y-118704523D03*
X183063782Y-104959758D03*
X183600500Y-119969109D03*
X184000000Y-106000000D03*
X184399363Y-125619787D03*
X184600000Y-121039730D03*
X185817303Y-125615354D03*
D11*
%TO.C,J2*%
X121000000Y-106300000D03*
X121000000Y-108840000D03*
X121000000Y-111380000D03*
X121000000Y-113920000D03*
X121000000Y-116460000D03*
X121000000Y-119000000D03*
%TO.C,J5*%
X122360000Y-64750000D03*
X124900000Y-64750000D03*
%TO.C,J1*%
X136380000Y-65460000D03*
X136380000Y-68000000D03*
X138920000Y-65460000D03*
X138920000Y-68000000D03*
X141460000Y-65460000D03*
X141460000Y-68000000D03*
X144000000Y-65460000D03*
X144000000Y-68000000D03*
X146540000Y-65460000D03*
X146540000Y-68000000D03*
%TO.C,J4*%
X148500000Y-143420000D03*
X148500000Y-145960000D03*
X148500000Y-148500000D03*
%TO.C,J1*%
X149080000Y-65460000D03*
X149080000Y-68000000D03*
X151620000Y-65460000D03*
X151620000Y-68000000D03*
%TO.C,J3*%
X165000000Y-65460000D03*
X165000000Y-68000000D03*
X167540000Y-65460000D03*
X167540000Y-68000000D03*
X170080000Y-65460000D03*
X170080000Y-68000000D03*
X172620000Y-65460000D03*
X172620000Y-68000000D03*
X175160000Y-65460000D03*
X175160000Y-68000000D03*
%TO.C,SW1*%
X183250000Y-142500000D03*
X183250000Y-147500000D03*
X185750000Y-142500000D03*
X185750000Y-145000000D03*
X185750000Y-147500000D03*
D12*
%TO.C,REF\u002A\u002A*%
X155930588Y-147000000D03*
M02*
