G04 #@! TF.GenerationSoftware,KiCad,Pcbnew,6.0.6-2.fc35*
G04 #@! TF.CreationDate,2022-07-15T01:43:17+02:00*
G04 #@! TF.ProjectId,cw-amp-controll-board,63772d61-6d70-42d6-936f-6e74726f6c6c,rev?*
G04 #@! TF.SameCoordinates,Original*
G04 #@! TF.FileFunction,Soldermask,Top*
G04 #@! TF.FilePolarity,Negative*
%FSLAX46Y46*%
G04 Gerber Fmt 4.6, Leading zero omitted, Abs format (unit mm)*
G04 Created by KiCad (PCBNEW 6.0.6-2.fc35) date 2022-07-15 01:43:17*
%MOMM*%
%LPD*%
G01*
G04 APERTURE LIST*
G04 Aperture macros list*
%AMRoundRect*
0 Rectangle with rounded corners*
0 $1 Rounding radius*
0 $2 $3 $4 $5 $6 $7 $8 $9 X,Y pos of 4 corners*
0 Add a 4 corners polygon primitive as box body*
4,1,4,$2,$3,$4,$5,$6,$7,$8,$9,$2,$3,0*
0 Add four circle primitives for the rounded corners*
1,1,$1+$1,$2,$3*
1,1,$1+$1,$4,$5*
1,1,$1+$1,$6,$7*
1,1,$1+$1,$8,$9*
0 Add four rect primitives between the rounded corners*
20,1,$1+$1,$2,$3,$4,$5,0*
20,1,$1+$1,$4,$5,$6,$7,0*
20,1,$1+$1,$6,$7,$8,$9,0*
20,1,$1+$1,$8,$9,$2,$3,0*%
G04 Aperture macros list end*
%ADD10RoundRect,0.250000X0.600000X-0.600000X0.600000X0.600000X-0.600000X0.600000X-0.600000X-0.600000X0*%
%ADD11C,1.700000*%
%ADD12RoundRect,0.250000X-0.475000X0.337500X-0.475000X-0.337500X0.475000X-0.337500X0.475000X0.337500X0*%
%ADD13RoundRect,0.150000X0.150000X-0.587500X0.150000X0.587500X-0.150000X0.587500X-0.150000X-0.587500X0*%
%ADD14RoundRect,0.250000X0.450000X-0.350000X0.450000X0.350000X-0.450000X0.350000X-0.450000X-0.350000X0*%
%ADD15RoundRect,0.250000X0.475000X-0.337500X0.475000X0.337500X-0.475000X0.337500X-0.475000X-0.337500X0*%
%ADD16RoundRect,0.250000X-0.350000X-0.450000X0.350000X-0.450000X0.350000X0.450000X-0.350000X0.450000X0*%
%ADD17RoundRect,0.250000X0.337500X0.475000X-0.337500X0.475000X-0.337500X-0.475000X0.337500X-0.475000X0*%
%ADD18RoundRect,0.250000X-0.450000X0.350000X-0.450000X-0.350000X0.450000X-0.350000X0.450000X0.350000X0*%
%ADD19RoundRect,0.250000X-0.337500X-0.475000X0.337500X-0.475000X0.337500X0.475000X-0.337500X0.475000X0*%
%ADD20R,1.700000X1.700000*%
%ADD21O,1.700000X1.700000*%
%ADD22C,7.000000*%
%ADD23O,3.500000X2.600000*%
%ADD24C,1.800000*%
%ADD25RoundRect,0.150000X0.150000X-0.875000X0.150000X0.875000X-0.150000X0.875000X-0.150000X-0.875000X0*%
%ADD26R,1.500000X2.000000*%
%ADD27R,3.800000X2.000000*%
%ADD28R,1.000000X1.500000*%
%ADD29C,3.000000*%
%ADD30RoundRect,0.100000X0.637500X0.100000X-0.637500X0.100000X-0.637500X-0.100000X0.637500X-0.100000X0*%
%ADD31R,0.900000X1.500000*%
%ADD32R,0.700000X0.700000*%
G04 APERTURE END LIST*
D10*
X165000000Y-68000000D03*
D11*
X165000000Y-65460000D03*
X167540000Y-68000000D03*
X167540000Y-65460000D03*
X170080000Y-68000000D03*
X170080000Y-65460000D03*
X172620000Y-68000000D03*
X172620000Y-65460000D03*
X175160000Y-68000000D03*
X175160000Y-65460000D03*
D12*
X149000000Y-117962500D03*
X149000000Y-120037500D03*
D13*
X157050000Y-92937500D03*
X158950000Y-92937500D03*
X158000000Y-91062500D03*
D10*
X136380000Y-68000000D03*
D11*
X136380000Y-65460000D03*
X138920000Y-68000000D03*
X138920000Y-65460000D03*
X141460000Y-68000000D03*
X141460000Y-65460000D03*
X144000000Y-68000000D03*
X144000000Y-65460000D03*
X146540000Y-68000000D03*
X146540000Y-65460000D03*
X149080000Y-68000000D03*
X149080000Y-65460000D03*
X151620000Y-68000000D03*
X151620000Y-65460000D03*
D14*
X128000000Y-102000000D03*
X128000000Y-100000000D03*
X138000000Y-102000000D03*
X138000000Y-100000000D03*
D15*
X133000000Y-153512500D03*
X133000000Y-151437500D03*
D16*
X138500000Y-142975000D03*
X140500000Y-142975000D03*
D15*
X135000000Y-153512500D03*
X135000000Y-151437500D03*
D17*
X126500000Y-140475000D03*
X124425000Y-140475000D03*
D18*
X178500000Y-79500000D03*
X178500000Y-81500000D03*
X156500000Y-108500000D03*
X156500000Y-110500000D03*
D19*
X144962500Y-77000000D03*
X147037500Y-77000000D03*
D20*
X124900000Y-64750000D03*
D21*
X122360000Y-64750000D03*
D13*
X164050000Y-92937500D03*
X165950000Y-92937500D03*
X165000000Y-91062500D03*
D18*
X173000000Y-108500000D03*
X173000000Y-110500000D03*
X119000000Y-100037500D03*
X119000000Y-102037500D03*
D22*
X155930588Y-147000000D03*
D15*
X117500000Y-149512500D03*
X117500000Y-147437500D03*
D14*
X178000000Y-97000000D03*
X178000000Y-95000000D03*
D18*
X177500000Y-139000000D03*
X177500000Y-141000000D03*
D15*
X142500000Y-149012500D03*
X142500000Y-146937500D03*
D14*
X157000000Y-97000000D03*
X157000000Y-95000000D03*
D23*
X184500000Y-139550000D03*
X184500000Y-150450000D03*
D24*
X185750000Y-147500000D03*
X185750000Y-142500000D03*
X185750000Y-145000000D03*
X183250000Y-142500000D03*
X183250000Y-147500000D03*
D18*
X139500000Y-108500000D03*
X139500000Y-110500000D03*
D15*
X121000000Y-102075000D03*
X121000000Y-100000000D03*
D25*
X135555000Y-123650000D03*
X136825000Y-123650000D03*
X138095000Y-123650000D03*
X139365000Y-123650000D03*
X140635000Y-123650000D03*
X141905000Y-123650000D03*
X143175000Y-123650000D03*
X144445000Y-123650000D03*
X144445000Y-114350000D03*
X143175000Y-114350000D03*
X141905000Y-114350000D03*
X140635000Y-114350000D03*
X139365000Y-114350000D03*
X138095000Y-114350000D03*
X136825000Y-114350000D03*
X135555000Y-114350000D03*
D18*
X182500000Y-79500000D03*
X182500000Y-81500000D03*
X173000000Y-95000000D03*
X173000000Y-97000000D03*
D15*
X119500000Y-149512500D03*
X119500000Y-147437500D03*
D26*
X148300000Y-79850000D03*
X146000000Y-79850000D03*
D27*
X146000000Y-86150000D03*
D26*
X143700000Y-79850000D03*
D14*
X155000000Y-97000000D03*
X155000000Y-95000000D03*
D18*
X180500000Y-79500000D03*
X180500000Y-81500000D03*
D20*
X148500000Y-148500000D03*
D21*
X148500000Y-145960000D03*
X148500000Y-143420000D03*
D14*
X164000000Y-97000000D03*
X164000000Y-95000000D03*
D28*
X127300000Y-69300000D03*
X126000000Y-69300000D03*
X124700000Y-69300000D03*
D16*
X138500000Y-148975000D03*
X140500000Y-148975000D03*
D29*
X117000000Y-153000000D03*
X187500000Y-63000000D03*
D13*
X178050000Y-92937500D03*
X179950000Y-92937500D03*
X179000000Y-91062500D03*
D25*
X152555000Y-123650000D03*
X153825000Y-123650000D03*
X155095000Y-123650000D03*
X156365000Y-123650000D03*
X157635000Y-123650000D03*
X158905000Y-123650000D03*
X160175000Y-123650000D03*
X161445000Y-123650000D03*
X161445000Y-114350000D03*
X160175000Y-114350000D03*
X158905000Y-114350000D03*
X157635000Y-114350000D03*
X156365000Y-114350000D03*
X155095000Y-114350000D03*
X153825000Y-114350000D03*
X152555000Y-114350000D03*
D18*
X184500000Y-79500000D03*
X184500000Y-81500000D03*
D12*
X142500000Y-142975000D03*
X142500000Y-145050000D03*
D14*
X176000000Y-97000000D03*
X176000000Y-95000000D03*
X175000000Y-110500000D03*
X175000000Y-108500000D03*
X136000000Y-102000000D03*
X136000000Y-100000000D03*
D30*
X128362500Y-149400000D03*
X128362500Y-148750000D03*
X128362500Y-148100000D03*
X128362500Y-147450000D03*
X128362500Y-146800000D03*
X128362500Y-146150000D03*
X128362500Y-145500000D03*
X128362500Y-144850000D03*
X128362500Y-144200000D03*
X128362500Y-143550000D03*
X122637500Y-143550000D03*
X122637500Y-144200000D03*
X122637500Y-144850000D03*
X122637500Y-145500000D03*
X122637500Y-146150000D03*
X122637500Y-146800000D03*
X122637500Y-147450000D03*
X122637500Y-148100000D03*
X122637500Y-148750000D03*
X122637500Y-149400000D03*
D15*
X139000000Y-153512500D03*
X139000000Y-151437500D03*
D25*
X169285000Y-123650000D03*
X170555000Y-123650000D03*
X171825000Y-123650000D03*
X173095000Y-123650000D03*
X174365000Y-123650000D03*
X175635000Y-123650000D03*
X176905000Y-123650000D03*
X178175000Y-123650000D03*
X179445000Y-123650000D03*
X180715000Y-123650000D03*
X180715000Y-114350000D03*
X179445000Y-114350000D03*
X178175000Y-114350000D03*
X176905000Y-114350000D03*
X175635000Y-114350000D03*
X174365000Y-114350000D03*
X173095000Y-114350000D03*
X171825000Y-114350000D03*
X170555000Y-114350000D03*
X169285000Y-114350000D03*
D28*
X122700000Y-69292500D03*
X121400000Y-69292500D03*
X120100000Y-69292500D03*
D15*
X166000000Y-120037500D03*
X166000000Y-117962500D03*
D18*
X122000000Y-74250000D03*
X122000000Y-76250000D03*
X166000000Y-95000000D03*
X166000000Y-97000000D03*
D15*
X131000000Y-153512500D03*
X131000000Y-151437500D03*
X137000000Y-153512500D03*
X137000000Y-151437500D03*
D29*
X117000000Y-63000000D03*
D14*
X171000000Y-97000000D03*
X171000000Y-95000000D03*
D13*
X171050000Y-92937500D03*
X172950000Y-92937500D03*
X172000000Y-91062500D03*
D12*
X132000000Y-117962500D03*
X132000000Y-120037500D03*
D20*
X121000000Y-119000000D03*
D21*
X121000000Y-116460000D03*
X121000000Y-113920000D03*
X121000000Y-111380000D03*
X121000000Y-108840000D03*
X121000000Y-106300000D03*
D14*
X169000000Y-97000000D03*
X169000000Y-95000000D03*
D16*
X118100000Y-74250000D03*
X120100000Y-74250000D03*
D18*
X179500000Y-139000000D03*
X179500000Y-141000000D03*
D19*
X144962500Y-89000000D03*
X147037500Y-89000000D03*
D15*
X131500000Y-143975000D03*
X131500000Y-141900000D03*
D12*
X117000000Y-100000000D03*
X117000000Y-102075000D03*
D14*
X162000000Y-97000000D03*
X162000000Y-95000000D03*
D31*
X118850000Y-96750000D03*
X120350000Y-96750000D03*
X121850000Y-96750000D03*
X123350000Y-96750000D03*
X124850000Y-96750000D03*
X126350000Y-96750000D03*
X127850000Y-96750000D03*
X129350000Y-96750000D03*
X130850000Y-96750000D03*
X130850000Y-79250000D03*
X129350000Y-79250000D03*
X127850000Y-79250000D03*
X126350000Y-79250000D03*
X124850000Y-79250000D03*
X123350000Y-79250000D03*
X121850000Y-79250000D03*
X120350000Y-79250000D03*
X118850000Y-79250000D03*
D32*
X125050000Y-88140000D03*
X123950000Y-88140000D03*
X123950000Y-85940000D03*
X125050000Y-87090000D03*
X125050000Y-85940000D03*
X123950000Y-87090000D03*
X126150000Y-87090000D03*
X126150000Y-85940000D03*
X126150000Y-88140000D03*
D18*
X159000000Y-95000000D03*
X159000000Y-97000000D03*
M02*
