G04 #@! TF.GenerationSoftware,KiCad,Pcbnew,7.0.1-1.fc37*
G04 #@! TF.CreationDate,2023-03-23T23:58:23+01:00*
G04 #@! TF.ProjectId,cw-amp-controll-board,63772d61-6d70-42d6-936f-6e74726f6c6c,rev?*
G04 #@! TF.SameCoordinates,Original*
G04 #@! TF.FileFunction,Profile,NP*
%FSLAX46Y46*%
G04 Gerber Fmt 4.6, Leading zero omitted, Abs format (unit mm)*
G04 Created by KiCad (PCBNEW 7.0.1-1.fc37) date 2023-03-23 23:58:23*
%MOMM*%
%LPD*%
G01*
G04 APERTURE LIST*
G04 Aperture macros list*
%AMRoundRect*
0 Rectangle with rounded corners*
0 $1 Rounding radius*
0 $2 $3 $4 $5 $6 $7 $8 $9 X,Y pos of 4 corners*
0 Add a 4 corners polygon primitive as box body*
4,1,4,$2,$3,$4,$5,$6,$7,$8,$9,$2,$3,0*
0 Add four circle primitives for the rounded corners*
1,1,$1+$1,$2,$3*
1,1,$1+$1,$4,$5*
1,1,$1+$1,$6,$7*
1,1,$1+$1,$8,$9*
0 Add four rect primitives between the rounded corners*
20,1,$1+$1,$2,$3,$4,$5,0*
20,1,$1+$1,$4,$5,$6,$7,0*
20,1,$1+$1,$6,$7,$8,$9,0*
20,1,$1+$1,$8,$9,$2,$3,0*%
%AMFreePoly0*
4,1,19,0.500000,-0.750000,0.000000,-0.750000,0.000000,-0.744911,-0.071157,-0.744911,-0.207708,-0.704816,-0.327430,-0.627875,-0.420627,-0.520320,-0.479746,-0.390866,-0.500000,-0.250000,-0.500000,0.250000,-0.479746,0.390866,-0.420627,0.520320,-0.327430,0.627875,-0.207708,0.704816,-0.071157,0.744911,0.000000,0.744911,0.000000,0.750000,0.500000,0.750000,0.500000,-0.750000,0.500000,-0.750000,
$1*%
%AMFreePoly1*
4,1,19,0.000000,0.744911,0.071157,0.744911,0.207708,0.704816,0.327430,0.627875,0.420627,0.520320,0.479746,0.390866,0.500000,0.250000,0.500000,-0.250000,0.479746,-0.390866,0.420627,-0.520320,0.327430,-0.627875,0.207708,-0.704816,0.071157,-0.744911,0.000000,-0.744911,0.000000,-0.750000,-0.500000,-0.750000,-0.500000,0.750000,0.000000,0.750000,0.000000,0.744911,0.000000,0.744911,
$1*%
G04 Aperture macros list end*
G04 #@! TA.AperFunction,Profile*
%ADD10C,0.100000*%
G04 #@! TD*
%ADD11C,0.300000*%
G04 #@! TA.AperFunction,NonConductor*
%ADD12C,0.300000*%
G04 #@! TD*
G04 #@! TA.AperFunction,ComponentPad*
%ADD13RoundRect,0.250000X0.600000X-0.600000X0.600000X0.600000X-0.600000X0.600000X-0.600000X-0.600000X0*%
G04 #@! TD*
G04 #@! TA.AperFunction,ComponentPad*
%ADD14C,1.700000*%
G04 #@! TD*
G04 #@! TA.AperFunction,ComponentPad*
%ADD15R,1.700000X1.700000*%
G04 #@! TD*
G04 #@! TA.AperFunction,ComponentPad*
%ADD16O,1.700000X1.700000*%
G04 #@! TD*
G04 #@! TA.AperFunction,ComponentPad*
%ADD17C,7.000000*%
G04 #@! TD*
G04 #@! TA.AperFunction,WasherPad*
%ADD18O,3.500000X2.600000*%
G04 #@! TD*
G04 #@! TA.AperFunction,ComponentPad*
%ADD19C,1.800000*%
G04 #@! TD*
G04 #@! TA.AperFunction,SMDPad,CuDef*
%ADD20FreePoly0,270.000000*%
G04 #@! TD*
G04 #@! TA.AperFunction,SMDPad,CuDef*
%ADD21FreePoly1,270.000000*%
G04 #@! TD*
G04 #@! TA.AperFunction,SMDPad,CuDef*
%ADD22FreePoly0,180.000000*%
G04 #@! TD*
G04 #@! TA.AperFunction,SMDPad,CuDef*
%ADD23FreePoly1,180.000000*%
G04 #@! TD*
G04 #@! TA.AperFunction,ViaPad*
%ADD24C,1.200000*%
G04 #@! TD*
G04 #@! TA.AperFunction,Conductor*
%ADD25C,0.600000*%
G04 #@! TD*
G04 #@! TA.AperFunction,Conductor*
%ADD26C,0.400000*%
G04 #@! TD*
%ADD27C,0.350000*%
%ADD28O,2.500000X1.800000*%
G04 APERTURE END LIST*
D10*
X112000000Y-129000000D02*
X112000000Y-158000000D01*
X190000000Y-58000000D02*
X190000000Y-158000000D01*
X117750000Y-97000000D02*
X112000000Y-97000000D01*
X114000000Y-129000000D02*
X112000000Y-129000000D01*
X112000000Y-97000000D02*
X112000000Y-125000000D01*
X112000000Y-58000000D02*
X190000000Y-58000000D01*
X112000000Y-79000000D02*
X117750000Y-79000000D01*
X117750000Y-79000000D02*
X117750000Y-97000000D01*
X114000000Y-67000000D02*
X112000000Y-67000000D01*
X114000000Y-71000000D02*
X112000000Y-71000000D01*
X112000000Y-67000000D02*
X112000000Y-58000000D01*
X114000000Y-129000000D02*
G75*
G03*
X114000000Y-125000000I0J2000000D01*
G01*
X190000000Y-158000000D02*
X112000000Y-158000000D01*
X112000000Y-125000000D02*
X114000000Y-125000000D01*
X114000000Y-71000000D02*
G75*
G03*
X114000000Y-67000000I0J2000000D01*
G01*
X112000000Y-71000000D02*
X112000000Y-79000000D01*
D11*
D12*
X113306071Y-139749999D02*
X113306071Y-140464285D01*
X113306071Y-140464285D02*
X114806071Y-140464285D01*
X114306071Y-138607142D02*
X113306071Y-138607142D01*
X114877500Y-138964284D02*
X113806071Y-139321427D01*
X113806071Y-139321427D02*
X113806071Y-138392856D01*
G04 #@! TA.AperFunction,EtchedComponent*
G36*
X126800000Y-144725000D02*
G01*
X126200000Y-144725000D01*
X126200000Y-144225000D01*
X126800000Y-144225000D01*
X126800000Y-144725000D01*
G37*
G04 #@! TD.AperFunction*
G04 #@! TA.AperFunction,EtchedComponent*
G36*
X124750000Y-116800000D02*
G01*
X124250000Y-116800000D01*
X124250000Y-116200000D01*
X124750000Y-116200000D01*
X124750000Y-116800000D01*
G37*
G04 #@! TD.AperFunction*
D13*
X165000000Y-68000000D03*
D14*
X165000000Y-65460000D03*
X167540000Y-68000000D03*
X167540000Y-65460000D03*
X170080000Y-68000000D03*
X170080000Y-65460000D03*
X172620000Y-68000000D03*
X172620000Y-65460000D03*
X175160000Y-68000000D03*
X175160000Y-65460000D03*
D13*
X136380000Y-68000000D03*
D14*
X136380000Y-65460000D03*
X138920000Y-68000000D03*
X138920000Y-65460000D03*
X141460000Y-68000000D03*
X141460000Y-65460000D03*
X144000000Y-68000000D03*
X144000000Y-65460000D03*
X146540000Y-68000000D03*
X146540000Y-65460000D03*
X149080000Y-68000000D03*
X149080000Y-65460000D03*
X151620000Y-68000000D03*
X151620000Y-65460000D03*
D15*
X124900000Y-64750000D03*
D16*
X122360000Y-64750000D03*
D17*
X155930588Y-147000000D03*
D18*
X184500000Y-139550000D03*
X184500000Y-150450000D03*
D19*
X185750000Y-147500000D03*
X185750000Y-142500000D03*
X185750000Y-145000000D03*
X183250000Y-142500000D03*
X183250000Y-147500000D03*
D15*
X148500000Y-148500000D03*
D16*
X148500000Y-145960000D03*
X148500000Y-143420000D03*
D15*
X121000000Y-119000000D03*
D16*
X121000000Y-116460000D03*
X121000000Y-113920000D03*
X121000000Y-111380000D03*
X121000000Y-108840000D03*
X121000000Y-106300000D03*
D20*
X126500000Y-143825000D03*
D21*
X126500000Y-145125000D03*
D22*
X125150000Y-116500000D03*
D23*
X123850000Y-116500000D03*
D24*
X137800000Y-108500000D03*
X154900000Y-108500000D03*
X175800000Y-139000000D03*
X164200000Y-118000000D03*
X147400000Y-118000000D03*
X119000000Y-98500000D03*
X128100000Y-140475000D03*
X133100000Y-144000000D03*
X129300000Y-153475000D03*
X126500000Y-138775000D03*
X129800000Y-102000000D03*
X130200000Y-118000000D03*
X152500000Y-121300000D03*
X122000000Y-72400000D03*
X119500000Y-151075000D03*
X145000000Y-90900000D03*
X164300000Y-120000000D03*
X146900000Y-75200000D03*
X130300000Y-120000000D03*
X149100000Y-89000000D03*
X127600000Y-87100000D03*
X117500000Y-145974500D03*
X121000000Y-103700000D03*
X133000000Y-149800000D03*
X147300000Y-120000000D03*
X130900000Y-94900000D03*
X165400000Y-91500000D03*
X150600000Y-79900000D03*
X124426771Y-138802921D03*
X159800000Y-91500000D03*
X142500000Y-76900000D03*
X141000000Y-146000000D03*
X129900000Y-141875000D03*
X131400000Y-147149500D03*
X129300000Y-155300000D03*
X167900000Y-98900000D03*
X146100000Y-98900000D03*
X144399531Y-106600469D03*
X131999659Y-108106479D03*
X146100000Y-97500497D03*
X156994064Y-94899500D03*
X142400497Y-105300000D03*
X131992998Y-105307499D03*
X147600000Y-97000000D03*
X167300000Y-95100000D03*
X141000000Y-104900000D03*
X132000000Y-103900994D03*
X147200000Y-95400000D03*
X180600000Y-93300000D03*
X125100000Y-94500000D03*
X138000000Y-95200000D03*
X153800000Y-111000000D03*
X136500000Y-112100000D03*
X178200000Y-112200000D03*
X138100000Y-112100000D03*
X174500000Y-112100000D03*
X136000000Y-96800000D03*
X155200000Y-112100000D03*
X139500000Y-96800000D03*
X126506505Y-94507002D03*
X128999503Y-76800000D03*
X127600000Y-76800000D03*
X182012933Y-104035462D03*
X158503904Y-107165261D03*
X159493502Y-108154859D03*
X183063782Y-104959758D03*
X184000000Y-106000000D03*
X160445500Y-109180679D03*
X169250000Y-110500980D03*
X134400000Y-98500000D03*
X177500000Y-142700000D03*
X127200000Y-133000000D03*
X127206754Y-131593246D03*
X179500000Y-142700000D03*
X185817303Y-125615354D03*
X177390910Y-129639885D03*
X176146517Y-128999500D03*
X184399363Y-125619787D03*
X183000000Y-125600000D03*
X175000000Y-128000000D03*
X126449020Y-103500000D03*
X118199554Y-122200000D03*
X130800000Y-76800000D03*
X124850000Y-75700500D03*
X116800051Y-122200000D03*
X119599057Y-122200000D03*
X120300000Y-76400000D03*
X120998560Y-122200000D03*
X120100000Y-81100000D03*
X168000000Y-103000000D03*
X132001215Y-106706977D03*
X144500000Y-108200000D03*
X169400000Y-103100000D03*
X145800000Y-102700000D03*
X157800000Y-101900000D03*
X182401460Y-117400000D03*
X156700000Y-126600000D03*
X183000980Y-118704523D03*
X158400000Y-126600000D03*
X159893246Y-126606754D03*
X183600500Y-119969109D03*
X162800000Y-126100000D03*
X184600000Y-121039730D03*
X117900500Y-76400000D03*
D25*
X125250000Y-143825000D02*
X124426771Y-143001771D01*
X155131370Y-75200000D02*
X146900000Y-75200000D01*
X162200000Y-91500000D02*
X160700000Y-90000000D01*
X160700000Y-80768630D02*
X155131370Y-75200000D01*
X126500000Y-143825000D02*
X125250000Y-143825000D01*
X165400000Y-91500000D02*
X162200000Y-91500000D01*
X124426771Y-143001771D02*
X124426771Y-138802921D01*
X160700000Y-90000000D02*
X160700000Y-80768630D01*
X142500000Y-76900000D02*
X155700000Y-76900000D01*
X159800000Y-81000000D02*
X155700000Y-76900000D01*
X159800000Y-91500000D02*
X159800000Y-81000000D01*
X126500000Y-145125000D02*
X129050000Y-145125000D01*
X129050000Y-145125000D02*
X129900000Y-144275000D01*
X129900000Y-144275000D02*
X129900000Y-141875000D01*
D26*
X129300000Y-155300000D02*
X131400000Y-153200000D01*
X131400000Y-153200000D02*
X131400000Y-147149500D01*
X167900000Y-98900000D02*
X146100000Y-98900000D01*
X143200000Y-107300000D02*
X143199520Y-107299520D01*
X133393521Y-108106479D02*
X131999659Y-108106479D01*
X144399531Y-106600469D02*
X143700000Y-107300000D01*
X134200480Y-107299520D02*
X133393521Y-108106479D01*
X143700000Y-107300000D02*
X143200000Y-107300000D01*
X143199520Y-107299520D02*
X134200480Y-107299520D01*
X149400000Y-98100000D02*
X152600500Y-94899500D01*
X146714214Y-98100000D02*
X149397056Y-98100000D01*
X149397056Y-98100000D02*
X149400000Y-98100000D01*
X146100000Y-97500497D02*
X146100497Y-97500497D01*
X146100497Y-97500497D02*
X146114711Y-97500497D01*
X146114711Y-97500497D02*
X146714214Y-98100000D01*
X152600500Y-94899500D02*
X156994064Y-94899500D01*
X133559649Y-105307499D02*
X134352631Y-106100480D01*
X134352631Y-106100480D02*
X141600017Y-106100480D01*
X141600017Y-106100480D02*
X142400497Y-105300000D01*
X131992998Y-105307499D02*
X133559649Y-105307499D01*
X166600000Y-93900000D02*
X157400000Y-93900000D01*
X167300000Y-95100000D02*
X167300000Y-94600000D01*
X149648528Y-97000000D02*
X147600000Y-97000000D01*
X167300000Y-94600000D02*
X166600000Y-93900000D01*
X151324264Y-95324264D02*
X149648528Y-97000000D01*
X152748528Y-93900000D02*
X151324264Y-95324264D01*
X157400000Y-93900000D02*
X152748528Y-93900000D01*
X140399040Y-105500960D02*
X141000000Y-104900000D01*
X133000994Y-103900994D02*
X134600960Y-105500960D01*
X132000000Y-103900994D02*
X133000994Y-103900994D01*
X134600960Y-105500960D02*
X140399040Y-105500960D01*
X152500000Y-93300000D02*
X180600000Y-93300000D01*
X150400000Y-95400000D02*
X152500000Y-93300000D01*
X147200000Y-95400000D02*
X150400000Y-95400000D01*
X173500000Y-111500480D02*
X173899991Y-111100489D01*
X156500000Y-111500480D02*
X173500000Y-111500480D01*
X155999520Y-111000000D02*
X156500000Y-111500480D01*
X125100000Y-94500000D02*
X126600000Y-93000000D01*
X137600000Y-111000000D02*
X136500000Y-112100000D01*
X153800000Y-111000000D02*
X155999520Y-111000000D01*
X126600000Y-93000000D02*
X135800000Y-93000000D01*
X139500480Y-111500480D02*
X139000000Y-111000000D01*
X153299520Y-111500480D02*
X139500480Y-111500480D01*
X139000000Y-111000000D02*
X137600000Y-111000000D01*
X173899991Y-111100489D02*
X177100489Y-111100489D01*
X177100489Y-111100489D02*
X178200000Y-112200000D01*
X135800000Y-93000000D02*
X138000000Y-95200000D01*
X153800000Y-111000000D02*
X153299520Y-111500480D01*
X136000000Y-94500000D02*
X136000000Y-96800000D01*
X127013987Y-93999520D02*
X127413987Y-93599520D01*
X138100000Y-112100000D02*
X155200000Y-112100000D01*
X126506505Y-94507002D02*
X127013987Y-93999520D01*
X155200000Y-112100000D02*
X174500000Y-112100000D01*
X135099520Y-93599520D02*
X136000000Y-94500000D01*
X136000000Y-96800000D02*
X139500000Y-96800000D01*
X127413987Y-93599520D02*
X135099520Y-93599520D01*
X121000000Y-116460000D02*
X123810000Y-116460000D01*
X123810000Y-116460000D02*
X123850000Y-116500000D01*
X128599511Y-77199992D02*
X128599511Y-77214012D01*
X124747850Y-78000000D02*
X123700000Y-79047850D01*
X127813523Y-78000000D02*
X124747850Y-78000000D01*
X128999503Y-76800000D02*
X128599511Y-77199992D01*
X123700000Y-79047850D02*
X123700000Y-108680000D01*
X123700000Y-108680000D02*
X121000000Y-111380000D01*
X128599511Y-77214012D02*
X127813523Y-78000000D01*
X123100000Y-78800000D02*
X123100000Y-106740000D01*
X127600000Y-76800000D02*
X126999520Y-77400480D01*
X124499520Y-77400480D02*
X123100000Y-78800000D01*
X126999520Y-77400480D02*
X124499520Y-77400480D01*
X123100000Y-106740000D02*
X121000000Y-108840000D01*
X180322661Y-107981639D02*
X182012933Y-106291367D01*
X160803198Y-107155348D02*
X161629489Y-107981639D01*
X158513817Y-107155348D02*
X160803198Y-107155348D01*
X182012933Y-106291367D02*
X182012933Y-104035462D01*
X158503904Y-107165261D02*
X158513817Y-107155348D01*
X161629489Y-107981639D02*
X180322661Y-107981639D01*
X182800000Y-106352150D02*
X180570991Y-108581159D01*
X160954859Y-108154859D02*
X159493502Y-108154859D01*
X183063782Y-104959758D02*
X182800000Y-105223540D01*
X182800000Y-105223540D02*
X182800000Y-106352150D01*
X161381159Y-108581159D02*
X160954859Y-108154859D01*
X180570991Y-108581159D02*
X161381159Y-108581159D01*
X160445500Y-109180679D02*
X180819321Y-109180679D01*
X180819321Y-109180679D02*
X184000000Y-106000000D01*
X131300489Y-110000489D02*
X130200000Y-108900000D01*
X130200000Y-103550000D02*
X134400000Y-99350000D01*
X155847859Y-110000489D02*
X131300489Y-110000489D01*
X134400000Y-99350000D02*
X134400000Y-98500000D01*
X130200000Y-108900000D02*
X130200000Y-103550000D01*
X169250000Y-110500980D02*
X169249020Y-110500000D01*
X156347370Y-110500000D02*
X155847859Y-110000489D01*
X169249020Y-110500000D02*
X156347370Y-110500000D01*
X180100000Y-145300000D02*
X183550000Y-145300000D01*
X183550000Y-145300000D02*
X185750000Y-147500000D01*
X177500000Y-142700000D02*
X180100000Y-145300000D01*
X163000000Y-142700000D02*
X162800000Y-142700000D01*
X153100000Y-133000000D02*
X127200000Y-133000000D01*
X177500000Y-142700000D02*
X163000000Y-142700000D01*
X153300000Y-133200000D02*
X153100000Y-133000000D01*
X157400000Y-137300000D02*
X153300000Y-133200000D01*
X162800000Y-142700000D02*
X157400000Y-137300000D01*
X184150000Y-144100000D02*
X185750000Y-142500000D01*
X179500000Y-142700000D02*
X180900000Y-144100000D01*
X128013988Y-132400480D02*
X127206754Y-131593246D01*
X178500000Y-141700000D02*
X175900000Y-141700000D01*
X163048329Y-142100480D02*
X153348329Y-132400480D01*
X179500000Y-142700000D02*
X178500000Y-141700000D01*
X175900000Y-141700000D02*
X175499520Y-142100480D01*
X149400000Y-132400480D02*
X128013988Y-132400480D01*
X153348329Y-132400480D02*
X149400000Y-132400480D01*
X180900000Y-144100000D02*
X184150000Y-144100000D01*
X175499520Y-142100480D02*
X163048329Y-142100480D01*
X177390910Y-129639885D02*
X177831755Y-129199040D01*
X177831755Y-129199040D02*
X182233617Y-129199040D01*
X182233617Y-129199040D02*
X185817303Y-125615354D01*
X176146517Y-128999500D02*
X176546497Y-128599520D01*
X176546497Y-128599520D02*
X181419630Y-128599520D01*
X181419630Y-128599520D02*
X184399363Y-125619787D01*
X180600000Y-128000000D02*
X175000000Y-128000000D01*
X183000000Y-125600000D02*
X180600000Y-128000000D01*
X126449020Y-103500000D02*
X125150000Y-104799020D01*
X125150000Y-104799020D02*
X125150000Y-116500000D01*
X118199554Y-122200000D02*
X118199554Y-120300446D01*
X127200000Y-75700000D02*
X129700000Y-75700000D01*
X118699520Y-119800480D02*
X118699520Y-103348330D01*
X129700000Y-75700000D02*
X130800000Y-76800000D01*
X122500480Y-78551670D02*
X124352150Y-76700000D01*
X126200000Y-76700000D02*
X127200000Y-75700000D01*
X124352150Y-76700000D02*
X126200000Y-76700000D01*
X122500480Y-99547370D02*
X122500480Y-78551670D01*
X118699520Y-103348330D02*
X122500480Y-99547370D01*
X118199554Y-120300446D02*
X118699520Y-119800480D01*
X124850000Y-75700500D02*
X124199500Y-75700500D01*
X121900960Y-77999040D02*
X121900960Y-99299040D01*
X116800051Y-120799949D02*
X116800051Y-122200000D01*
X121900960Y-99299040D02*
X118100000Y-103100000D01*
X118100000Y-103100000D02*
X118100000Y-119500000D01*
X124199500Y-75700500D02*
X121900960Y-77999040D01*
X118100000Y-119500000D02*
X116800051Y-120799949D01*
X121301440Y-79701440D02*
X120352150Y-78752150D01*
X117500480Y-102851670D02*
X121301440Y-99050710D01*
X116586528Y-123400000D02*
X115800540Y-122614012D01*
X120300000Y-78752150D02*
X120300000Y-76400000D01*
X119599057Y-123000943D02*
X119200000Y-123400000D01*
X115800540Y-120951610D02*
X117500480Y-119251670D01*
X120352150Y-78752150D02*
X120300000Y-78752150D01*
X121301440Y-99050710D02*
X121301440Y-79701440D01*
X117500480Y-119251670D02*
X117500480Y-102851670D01*
X119599057Y-122200000D02*
X119599057Y-123000943D01*
X115800540Y-122614012D02*
X115800540Y-120951610D01*
X119200000Y-123400000D02*
X116586528Y-123400000D01*
X120100000Y-81100000D02*
X120701920Y-81701920D01*
X120701920Y-81701920D02*
X120701920Y-98802380D01*
X116900000Y-102604300D02*
X116900960Y-102605260D01*
X115201020Y-120703281D02*
X115201020Y-122862342D01*
X120701920Y-98802380D02*
X116900000Y-102604300D01*
X120998560Y-123001440D02*
X120998560Y-122200000D01*
X116338678Y-124000000D02*
X120000000Y-124000000D01*
X116900960Y-119003340D02*
X115201020Y-120703281D01*
X120000000Y-124000000D02*
X120998560Y-123001440D01*
X116900960Y-102605260D02*
X116900960Y-119003340D01*
X115201020Y-122862342D02*
X116338678Y-124000000D01*
X148151472Y-103700000D02*
X167300000Y-103700000D01*
X143742424Y-105600469D02*
X146251003Y-105600469D01*
X146251003Y-105600469D02*
X148151472Y-103700000D01*
X142642893Y-106700000D02*
X143742424Y-105600469D01*
X167300000Y-103700000D02*
X168000000Y-103000000D01*
X132001215Y-106706977D02*
X132008192Y-106700000D01*
X132008192Y-106700000D02*
X142642893Y-106700000D01*
X148400000Y-104300000D02*
X168200000Y-104300000D01*
X144500000Y-108200000D02*
X148400000Y-104300000D01*
X168200000Y-104300000D02*
X169400000Y-103100000D01*
X157800000Y-101900000D02*
X157000000Y-102700000D01*
X157000000Y-102700000D02*
X145800000Y-102700000D01*
X163710671Y-123901449D02*
X164110662Y-124301440D01*
X159398551Y-123901449D02*
X163710671Y-123901449D01*
X179755010Y-124301440D02*
X181928225Y-122128225D01*
X156700000Y-126600000D02*
X159398551Y-123901449D01*
X181928225Y-122128225D02*
X182001469Y-122054981D01*
X164110662Y-124301440D02*
X179755010Y-124301440D01*
X182001469Y-117799991D02*
X182401460Y-117400000D01*
X182001469Y-122054981D02*
X182001469Y-117799991D01*
X182600989Y-119104514D02*
X183000980Y-118704523D01*
X158400000Y-126600000D02*
X160499031Y-124500969D01*
X163462341Y-124500969D02*
X163862332Y-124900960D01*
X163862332Y-124900960D02*
X180003340Y-124900960D01*
X180003340Y-124900960D02*
X182600989Y-122303311D01*
X182600989Y-122303311D02*
X182600989Y-119104514D01*
X160499031Y-124500969D02*
X163462341Y-124500969D01*
X180251670Y-125500480D02*
X163614003Y-125500480D01*
X161399511Y-125100489D02*
X159893246Y-126606754D01*
X183600500Y-122151650D02*
X180251670Y-125500480D01*
X163214012Y-125100489D02*
X161399511Y-125100489D01*
X163614003Y-125500480D02*
X163214012Y-125100489D01*
X183600500Y-119969109D02*
X183600500Y-122151650D01*
X184600000Y-122000000D02*
X180500000Y-126100000D01*
X180500000Y-126100000D02*
X162800000Y-126100000D01*
X184600000Y-121039730D02*
X184600000Y-122000000D01*
X119149520Y-124599520D02*
X116090348Y-124599520D01*
X180250480Y-141100480D02*
X175651670Y-141100480D01*
X175251190Y-141500960D02*
X163296659Y-141500960D01*
X147050000Y-131800960D02*
X145842775Y-130593735D01*
X114601500Y-120454952D02*
X116301440Y-118755012D01*
X175651670Y-141100480D02*
X175251190Y-141500960D01*
X145842775Y-130593735D02*
X125143735Y-130593735D01*
X116090348Y-124599520D02*
X114601500Y-123110671D01*
X120102400Y-82752400D02*
X119100000Y-81750000D01*
X116301440Y-113550000D02*
X116300480Y-113549040D01*
X116301440Y-118755012D02*
X116301440Y-113550000D01*
X119100000Y-81750000D02*
X119100000Y-77599500D01*
X181650000Y-142500000D02*
X180250480Y-141100480D01*
X116300480Y-113549040D02*
X116300480Y-99399520D01*
X119100000Y-77599500D02*
X117900500Y-76400000D01*
X183250000Y-142500000D02*
X181650000Y-142500000D01*
X114601500Y-123110671D02*
X114601500Y-120454952D01*
X163296659Y-141500960D02*
X153596658Y-131800960D01*
X125143735Y-130593735D02*
X119149520Y-124599520D01*
X120102400Y-95597600D02*
X120102400Y-82752400D01*
X153596658Y-131800960D02*
X147050000Y-131800960D01*
X116300480Y-99399520D02*
X120102400Y-95597600D01*
G04 #@! TA.AperFunction,Conductor*
G36*
X127488950Y-141009591D02*
G01*
X127529824Y-141036902D01*
X127597738Y-141104816D01*
X127750478Y-141200789D01*
X127920745Y-141260368D01*
X128100000Y-141280565D01*
X128279255Y-141260368D01*
X128449522Y-141200789D01*
X128602262Y-141104816D01*
X128670175Y-141036902D01*
X128711050Y-141009591D01*
X128759268Y-141000000D01*
X151124000Y-141000000D01*
X151187000Y-141016881D01*
X151233119Y-141063000D01*
X151250000Y-141126000D01*
X151250000Y-150374000D01*
X151233119Y-150437000D01*
X151187000Y-150483119D01*
X151124000Y-150500000D01*
X136626000Y-150500000D01*
X136563000Y-150483119D01*
X136516881Y-150437000D01*
X136500000Y-150374000D01*
X136500000Y-149000000D01*
X133056468Y-149000000D01*
X133042362Y-148999208D01*
X133000000Y-148994435D01*
X132957637Y-148999208D01*
X132943532Y-149000000D01*
X131926500Y-149000000D01*
X131863500Y-148983119D01*
X131817381Y-148937000D01*
X131800500Y-148874000D01*
X131800500Y-147912895D01*
X131816222Y-147851946D01*
X131859464Y-147806208D01*
X131898539Y-147781655D01*
X131902262Y-147779316D01*
X132029816Y-147651762D01*
X132125789Y-147499022D01*
X132185368Y-147328755D01*
X132205565Y-147149500D01*
X132185368Y-146970245D01*
X132182669Y-146962533D01*
X132125789Y-146799978D01*
X132029815Y-146647236D01*
X131902263Y-146519684D01*
X131749521Y-146423710D01*
X131579257Y-146364132D01*
X131400000Y-146343935D01*
X131220742Y-146364132D01*
X131050478Y-146423710D01*
X130897736Y-146519684D01*
X130770184Y-146647236D01*
X130674210Y-146799978D01*
X130614632Y-146970242D01*
X130594435Y-147149500D01*
X130614632Y-147328757D01*
X130674210Y-147499021D01*
X130770184Y-147651763D01*
X130897736Y-147779315D01*
X130940536Y-147806208D01*
X130983778Y-147851946D01*
X130999500Y-147912895D01*
X130999500Y-148874000D01*
X130982619Y-148937000D01*
X130936500Y-148983119D01*
X130873500Y-149000000D01*
X125376000Y-149000000D01*
X125313000Y-148983119D01*
X125266881Y-148937000D01*
X125250000Y-148874000D01*
X125250000Y-146214000D01*
X147163455Y-146214000D01*
X147211177Y-146402451D01*
X147301580Y-146608548D01*
X147424678Y-146796962D01*
X147577096Y-146962533D01*
X147754697Y-147100766D01*
X147961506Y-147212686D01*
X148009240Y-147258110D01*
X148027519Y-147321417D01*
X148011343Y-147385293D01*
X147965136Y-147432270D01*
X147901536Y-147449500D01*
X147630252Y-147449500D01*
X147601010Y-147455316D01*
X147571768Y-147461133D01*
X147505447Y-147505447D01*
X147461133Y-147571768D01*
X147449500Y-147630253D01*
X147449500Y-149369747D01*
X147461133Y-149428231D01*
X147505447Y-149494552D01*
X147549762Y-149524162D01*
X147571769Y-149538867D01*
X147630252Y-149550500D01*
X149369747Y-149550500D01*
X149369748Y-149550500D01*
X149428231Y-149538867D01*
X149494552Y-149494552D01*
X149538867Y-149428231D01*
X149550500Y-149369748D01*
X149550500Y-147630252D01*
X149538867Y-147571769D01*
X149524162Y-147549762D01*
X149494552Y-147505447D01*
X149428231Y-147461133D01*
X149369748Y-147449500D01*
X149098464Y-147449500D01*
X149034864Y-147432270D01*
X148988657Y-147385293D01*
X148972481Y-147321417D01*
X148990760Y-147258110D01*
X149038494Y-147212686D01*
X149245302Y-147100766D01*
X149422903Y-146962533D01*
X149575321Y-146796962D01*
X149698419Y-146608548D01*
X149788822Y-146402451D01*
X149836544Y-146214000D01*
X147163455Y-146214000D01*
X125250000Y-146214000D01*
X125250000Y-145705999D01*
X147163455Y-145705999D01*
X147163456Y-145706000D01*
X149836544Y-145706000D01*
X149836544Y-145705999D01*
X149788822Y-145517548D01*
X149698419Y-145311451D01*
X149575321Y-145123037D01*
X149422903Y-144957466D01*
X149245302Y-144819233D01*
X149047368Y-144712116D01*
X148858769Y-144647370D01*
X148806365Y-144612861D01*
X148777102Y-144557357D01*
X148778237Y-144494622D01*
X148809488Y-144440212D01*
X148863102Y-144407623D01*
X148903954Y-144395232D01*
X149086450Y-144297685D01*
X149246410Y-144166410D01*
X149377685Y-144006450D01*
X149475232Y-143823954D01*
X149535300Y-143625934D01*
X149555583Y-143420000D01*
X149535300Y-143214066D01*
X149475232Y-143016046D01*
X149377685Y-142833550D01*
X149304730Y-142744653D01*
X149246410Y-142673589D01*
X149086449Y-142542314D01*
X148903956Y-142444769D01*
X148903955Y-142444768D01*
X148903954Y-142444768D01*
X148705934Y-142384700D01*
X148705931Y-142384699D01*
X148705929Y-142384699D01*
X148500000Y-142364416D01*
X148294070Y-142384699D01*
X148294067Y-142384699D01*
X148294066Y-142384700D01*
X148096046Y-142444768D01*
X148096043Y-142444769D01*
X147913550Y-142542314D01*
X147753589Y-142673589D01*
X147622314Y-142833550D01*
X147524769Y-143016043D01*
X147524768Y-143016045D01*
X147524768Y-143016046D01*
X147468715Y-143200832D01*
X147464699Y-143214070D01*
X147444416Y-143419999D01*
X147464699Y-143625929D01*
X147464699Y-143625931D01*
X147464700Y-143625934D01*
X147519900Y-143807905D01*
X147524769Y-143823956D01*
X147622314Y-144006449D01*
X147753589Y-144166410D01*
X147899072Y-144285803D01*
X147913550Y-144297685D01*
X148096046Y-144395232D01*
X148136895Y-144407623D01*
X148190511Y-144440213D01*
X148221762Y-144494622D01*
X148222897Y-144557357D01*
X148193634Y-144612861D01*
X148141231Y-144647370D01*
X147952630Y-144712117D01*
X147754697Y-144819233D01*
X147577096Y-144957466D01*
X147424678Y-145123037D01*
X147301580Y-145311451D01*
X147211177Y-145517548D01*
X147163455Y-145705999D01*
X125250000Y-145705999D01*
X125250000Y-144451500D01*
X125266881Y-144388500D01*
X125313000Y-144342381D01*
X125376000Y-144325500D01*
X125442266Y-144325500D01*
X125497987Y-144338491D01*
X125542219Y-144374784D01*
X125546025Y-144383182D01*
X125547209Y-144382392D01*
X125605447Y-144469552D01*
X125642967Y-144494622D01*
X125671769Y-144513867D01*
X125750000Y-144529428D01*
X126190608Y-144529428D01*
X126208540Y-144530710D01*
X126220907Y-144532489D01*
X126279093Y-144532489D01*
X126291459Y-144530710D01*
X126309392Y-144529428D01*
X126690608Y-144529428D01*
X126708540Y-144530710D01*
X126720907Y-144532489D01*
X126779093Y-144532489D01*
X126791459Y-144530710D01*
X126809392Y-144529428D01*
X127249999Y-144529428D01*
X127250000Y-144529428D01*
X127328231Y-144513867D01*
X127394552Y-144469552D01*
X127438867Y-144403231D01*
X127454428Y-144325000D01*
X127454428Y-144000000D01*
X132294435Y-144000000D01*
X132314632Y-144179257D01*
X132374210Y-144349521D01*
X132470184Y-144502263D01*
X132597736Y-144629815D01*
X132625675Y-144647370D01*
X132750478Y-144725789D01*
X132920745Y-144785368D01*
X133100000Y-144805565D01*
X133279255Y-144785368D01*
X133449522Y-144725789D01*
X133602262Y-144629816D01*
X133729816Y-144502262D01*
X133825789Y-144349522D01*
X133885368Y-144179255D01*
X133905565Y-144000000D01*
X133885368Y-143820745D01*
X133825789Y-143650478D01*
X133804410Y-143616453D01*
X133729815Y-143497736D01*
X133602263Y-143370184D01*
X133449521Y-143274210D01*
X133279257Y-143214632D01*
X133100000Y-143194435D01*
X132920742Y-143214632D01*
X132750478Y-143274210D01*
X132597736Y-143370184D01*
X132470184Y-143497736D01*
X132374210Y-143650478D01*
X132314632Y-143820742D01*
X132294435Y-144000000D01*
X127454428Y-144000000D01*
X127454428Y-143753111D01*
X127452942Y-143742774D01*
X127446148Y-143695520D01*
X127405639Y-143557560D01*
X127381468Y-143504632D01*
X127323784Y-143414874D01*
X127303737Y-143383680D01*
X127265632Y-143339705D01*
X127156971Y-143245551D01*
X127108023Y-143214094D01*
X127062795Y-143193439D01*
X126977236Y-143154365D01*
X126921404Y-143137971D01*
X126779096Y-143117511D01*
X126779093Y-143117511D01*
X126720907Y-143117511D01*
X126708540Y-143119289D01*
X126690608Y-143120572D01*
X126309392Y-143120572D01*
X126291459Y-143119289D01*
X126279093Y-143117511D01*
X126220907Y-143117511D01*
X126220904Y-143117511D01*
X126078595Y-143137971D01*
X126022763Y-143154365D01*
X125891976Y-143214094D01*
X125843028Y-143245551D01*
X125787433Y-143293725D01*
X125748953Y-143316556D01*
X125704921Y-143324500D01*
X125509504Y-143324500D01*
X125461286Y-143314909D01*
X125420409Y-143287595D01*
X125286905Y-143154091D01*
X125259591Y-143113214D01*
X125250000Y-143064996D01*
X125250000Y-141126000D01*
X125266881Y-141063000D01*
X125313000Y-141016881D01*
X125376000Y-141000000D01*
X127440732Y-141000000D01*
X127488950Y-141009591D01*
G37*
G04 #@! TD.AperFunction*
G04 #@! TA.AperFunction,Conductor*
G36*
X189437000Y-58516881D02*
G01*
X189483119Y-58563000D01*
X189500000Y-58626000D01*
X189500000Y-157374000D01*
X189483119Y-157437000D01*
X189437000Y-157483119D01*
X189374000Y-157500000D01*
X151626000Y-157500000D01*
X151563000Y-157483119D01*
X151516881Y-157437000D01*
X151500000Y-157374000D01*
X151500000Y-146999999D01*
X152225009Y-146999999D01*
X152245309Y-147387332D01*
X152305986Y-147770433D01*
X152406375Y-148145092D01*
X152545371Y-148507189D01*
X152721463Y-148852789D01*
X152932715Y-149178089D01*
X153176806Y-149479516D01*
X153451071Y-149753781D01*
X153752498Y-149997872D01*
X153752503Y-149997875D01*
X153752504Y-149997876D01*
X154077799Y-150209125D01*
X154306528Y-150325668D01*
X154423398Y-150385216D01*
X154785495Y-150524212D01*
X154785497Y-150524212D01*
X154785501Y-150524214D01*
X155160155Y-150624602D01*
X155543250Y-150685278D01*
X155930588Y-150705578D01*
X156317926Y-150685278D01*
X156701021Y-150624602D01*
X157075675Y-150524214D01*
X157437782Y-150385214D01*
X157783377Y-150209125D01*
X158108672Y-149997876D01*
X158410104Y-149753781D01*
X158684369Y-149479516D01*
X158928464Y-149178084D01*
X159139713Y-148852789D01*
X159237675Y-148660528D01*
X182448680Y-148660528D01*
X182448681Y-148660529D01*
X182477254Y-148682768D01*
X182682474Y-148793828D01*
X182903169Y-148869592D01*
X183133332Y-148908000D01*
X183243575Y-148908000D01*
X183305368Y-148924193D01*
X183351279Y-148968610D01*
X183369506Y-149029834D01*
X183355365Y-149092129D01*
X183312490Y-149139483D01*
X183125217Y-149261833D01*
X182942262Y-149430255D01*
X182789527Y-149626489D01*
X182671170Y-149845193D01*
X182590430Y-150080383D01*
X182590429Y-150080386D01*
X182549500Y-150325665D01*
X182549500Y-150574335D01*
X182590429Y-150819614D01*
X182590430Y-150819616D01*
X182671170Y-151054806D01*
X182671171Y-151054809D01*
X182671172Y-151054810D01*
X182789526Y-151273509D01*
X182907064Y-151424522D01*
X182942262Y-151469744D01*
X183125217Y-151638166D01*
X183333389Y-151774171D01*
X183333391Y-151774172D01*
X183333393Y-151774173D01*
X183561119Y-151874063D01*
X183802179Y-151935108D01*
X183987933Y-151950500D01*
X185012062Y-151950500D01*
X185012067Y-151950500D01*
X185197821Y-151935108D01*
X185438881Y-151874063D01*
X185666607Y-151774173D01*
X185874785Y-151638164D01*
X186057738Y-151469744D01*
X186210474Y-151273509D01*
X186328828Y-151054810D01*
X186409571Y-150819614D01*
X186450500Y-150574335D01*
X186450500Y-150325665D01*
X186409571Y-150080386D01*
X186328828Y-149845190D01*
X186210474Y-149626491D01*
X186057738Y-149430256D01*
X185930364Y-149313000D01*
X185874782Y-149261833D01*
X185666610Y-149125828D01*
X185438876Y-149025935D01*
X185197825Y-148964893D01*
X185197824Y-148964892D01*
X185197821Y-148964892D01*
X185012067Y-148949500D01*
X184027434Y-148949500D01*
X183963834Y-148932270D01*
X183917627Y-148885293D01*
X183901451Y-148821417D01*
X183919730Y-148758110D01*
X183967465Y-148712686D01*
X184022743Y-148682770D01*
X184051317Y-148660529D01*
X184051317Y-148660528D01*
X183250000Y-147859210D01*
X183249999Y-147859210D01*
X182448680Y-148660528D01*
X159237675Y-148660528D01*
X159315802Y-148507194D01*
X159322653Y-148489348D01*
X159454800Y-148145092D01*
X159454799Y-148145092D01*
X159454802Y-148145087D01*
X159555190Y-147770433D01*
X159598022Y-147500000D01*
X181837174Y-147500000D01*
X181856444Y-147732548D01*
X181913723Y-147958739D01*
X182007458Y-148172434D01*
X182090795Y-148299991D01*
X182090796Y-148299991D01*
X182890789Y-147500000D01*
X182890789Y-147499999D01*
X182090796Y-146700006D01*
X182007456Y-146827571D01*
X181913723Y-147041260D01*
X181856444Y-147267451D01*
X181837174Y-147500000D01*
X159598022Y-147500000D01*
X159615866Y-147387338D01*
X159636166Y-147000000D01*
X159615866Y-146612662D01*
X159555190Y-146229567D01*
X159454802Y-145854913D01*
X159454800Y-145854907D01*
X159315804Y-145492810D01*
X159315160Y-145491546D01*
X159139713Y-145147211D01*
X158928464Y-144821916D01*
X158928463Y-144821915D01*
X158928460Y-144821910D01*
X158684369Y-144520483D01*
X158410104Y-144246218D01*
X158108677Y-144002127D01*
X157783377Y-143790875D01*
X157437777Y-143614783D01*
X157075680Y-143475787D01*
X156701021Y-143375398D01*
X156317920Y-143314721D01*
X155930588Y-143294421D01*
X155543255Y-143314721D01*
X155160154Y-143375398D01*
X154785495Y-143475787D01*
X154423398Y-143614783D01*
X154077798Y-143790875D01*
X153752498Y-144002127D01*
X153451071Y-144246218D01*
X153176806Y-144520483D01*
X152932715Y-144821910D01*
X152721463Y-145147210D01*
X152545371Y-145492810D01*
X152406375Y-145854907D01*
X152305986Y-146229566D01*
X152245309Y-146612667D01*
X152225009Y-146999999D01*
X151500000Y-146999999D01*
X151500000Y-140750000D01*
X129015574Y-140750000D01*
X128948538Y-140730687D01*
X128902052Y-140678669D01*
X128890366Y-140609893D01*
X128905565Y-140475000D01*
X128885368Y-140295745D01*
X128825789Y-140125478D01*
X128729816Y-139972738D01*
X128729815Y-139972736D01*
X128602263Y-139845184D01*
X128449521Y-139749210D01*
X128279257Y-139689632D01*
X128100000Y-139669435D01*
X127920742Y-139689632D01*
X127750478Y-139749210D01*
X127597736Y-139845184D01*
X127470184Y-139972736D01*
X127374210Y-140125478D01*
X127314632Y-140295742D01*
X127294435Y-140475000D01*
X127309634Y-140609893D01*
X127297948Y-140678669D01*
X127251462Y-140730687D01*
X127184426Y-140750000D01*
X125000000Y-140750000D01*
X125000000Y-149250000D01*
X130873500Y-149250000D01*
X130936500Y-149266881D01*
X130982619Y-149313000D01*
X130999500Y-149376000D01*
X130999500Y-152981917D01*
X130989909Y-153030135D01*
X130962595Y-153071013D01*
X130302657Y-153730949D01*
X130249799Y-153762530D01*
X130188288Y-153765292D01*
X130132812Y-153738576D01*
X130096619Y-153688762D01*
X130088354Y-153627748D01*
X130105565Y-153475000D01*
X130085368Y-153295745D01*
X130025789Y-153125478D01*
X129991566Y-153071013D01*
X129929815Y-152972736D01*
X129802263Y-152845184D01*
X129649521Y-152749210D01*
X129479257Y-152689632D01*
X129300000Y-152669435D01*
X129120742Y-152689632D01*
X128950478Y-152749210D01*
X128797736Y-152845184D01*
X128670184Y-152972736D01*
X128574210Y-153125478D01*
X128514632Y-153295742D01*
X128494435Y-153475000D01*
X128514632Y-153654257D01*
X128574210Y-153824521D01*
X128670184Y-153977263D01*
X128797736Y-154104815D01*
X128797738Y-154104816D01*
X128950478Y-154200789D01*
X129120745Y-154260368D01*
X129137826Y-154262292D01*
X129194695Y-154283394D01*
X129235116Y-154328624D01*
X129249717Y-154387500D01*
X129235116Y-154446376D01*
X129194695Y-154491606D01*
X129137826Y-154512707D01*
X129128203Y-154513791D01*
X129120742Y-154514632D01*
X128950478Y-154574210D01*
X128797736Y-154670184D01*
X128670184Y-154797736D01*
X128574210Y-154950478D01*
X128514632Y-155120742D01*
X128494435Y-155299999D01*
X128514632Y-155479257D01*
X128574210Y-155649521D01*
X128670184Y-155802263D01*
X128797736Y-155929815D01*
X128797738Y-155929816D01*
X128950478Y-156025789D01*
X129120745Y-156085368D01*
X129300000Y-156105565D01*
X129479255Y-156085368D01*
X129649522Y-156025789D01*
X129802262Y-155929816D01*
X129929816Y-155802262D01*
X130025789Y-155649522D01*
X130085368Y-155479255D01*
X130105565Y-155300000D01*
X130088138Y-155145336D01*
X130094417Y-155089620D01*
X130124249Y-155042142D01*
X131705483Y-153460909D01*
X131728050Y-153438342D01*
X131738035Y-153418743D01*
X131748366Y-153401884D01*
X131761296Y-153384090D01*
X131768095Y-153363160D01*
X131775661Y-153344900D01*
X131785645Y-153325306D01*
X131785645Y-153325305D01*
X131785646Y-153325304D01*
X131789087Y-153303570D01*
X131793700Y-153284354D01*
X131800499Y-153263433D01*
X131800499Y-153241953D01*
X131800500Y-153241941D01*
X131800500Y-149376000D01*
X131817381Y-149313000D01*
X131863500Y-149266881D01*
X131926500Y-149250000D01*
X136124000Y-149250000D01*
X136187000Y-149266881D01*
X136233119Y-149313000D01*
X136250000Y-149376000D01*
X136250000Y-150750000D01*
X142874000Y-150750000D01*
X142937000Y-150766881D01*
X142983119Y-150813000D01*
X143000000Y-150876000D01*
X143000000Y-157374000D01*
X142983119Y-157437000D01*
X142937000Y-157483119D01*
X142874000Y-157500000D01*
X112626000Y-157500000D01*
X112563000Y-157483119D01*
X112516881Y-157437000D01*
X112500000Y-157374000D01*
X112500000Y-151075000D01*
X118694435Y-151075000D01*
X118714632Y-151254257D01*
X118774210Y-151424521D01*
X118870184Y-151577263D01*
X118997736Y-151704815D01*
X118997738Y-151704816D01*
X119150478Y-151800789D01*
X119320745Y-151860368D01*
X119500000Y-151880565D01*
X119679255Y-151860368D01*
X119849522Y-151800789D01*
X120002262Y-151704816D01*
X120129816Y-151577262D01*
X120225789Y-151424522D01*
X120285368Y-151254255D01*
X120305565Y-151075000D01*
X120285368Y-150895745D01*
X120225789Y-150725478D01*
X120200530Y-150685278D01*
X120129815Y-150572736D01*
X120002263Y-150445184D01*
X119849521Y-150349210D01*
X119679257Y-150289632D01*
X119500000Y-150269435D01*
X119320742Y-150289632D01*
X119150478Y-150349210D01*
X118997736Y-150445184D01*
X118870184Y-150572736D01*
X118774210Y-150725478D01*
X118714632Y-150895742D01*
X118694435Y-151075000D01*
X112500000Y-151075000D01*
X112500000Y-141626000D01*
X112516881Y-141563000D01*
X112563000Y-141516881D01*
X112626000Y-141500000D01*
X116000000Y-141500000D01*
X116000000Y-138775000D01*
X125694435Y-138775000D01*
X125714632Y-138954257D01*
X125774210Y-139124521D01*
X125870184Y-139277263D01*
X125997736Y-139404815D01*
X126150477Y-139500788D01*
X126150478Y-139500789D01*
X126320745Y-139560368D01*
X126500000Y-139580565D01*
X126679255Y-139560368D01*
X126849522Y-139500789D01*
X127002262Y-139404816D01*
X127129816Y-139277262D01*
X127225789Y-139124522D01*
X127285368Y-138954255D01*
X127305565Y-138775000D01*
X127285368Y-138595745D01*
X127225789Y-138425478D01*
X127129815Y-138272736D01*
X127002263Y-138145184D01*
X126849521Y-138049210D01*
X126679257Y-137989632D01*
X126500000Y-137969435D01*
X126320742Y-137989632D01*
X126150478Y-138049210D01*
X125997736Y-138145184D01*
X125870184Y-138272736D01*
X125774210Y-138425478D01*
X125714632Y-138595742D01*
X125694435Y-138775000D01*
X116000000Y-138775000D01*
X116000000Y-129000000D01*
X115011037Y-129000000D01*
X114948534Y-128983405D01*
X114902496Y-128937991D01*
X114885049Y-128875721D01*
X114900789Y-128812997D01*
X114945570Y-128766343D01*
X115156343Y-128638169D01*
X115156341Y-128638169D01*
X115156345Y-128638168D01*
X115368638Y-128465454D01*
X115555437Y-128265442D01*
X115713260Y-128041857D01*
X115839169Y-127798864D01*
X115930818Y-127540990D01*
X115986499Y-127273038D01*
X116005175Y-127000000D01*
X115986499Y-126726962D01*
X115930818Y-126459010D01*
X115839169Y-126201136D01*
X115713260Y-125958143D01*
X115654014Y-125874210D01*
X115555439Y-125734560D01*
X115461827Y-125634327D01*
X115368638Y-125534546D01*
X115156345Y-125361832D01*
X115156343Y-125361830D01*
X114922513Y-125219636D01*
X114799113Y-125166036D01*
X114671492Y-125110602D01*
X114407965Y-125036765D01*
X114407963Y-125036764D01*
X114407957Y-125036763D01*
X114136842Y-124999500D01*
X114136838Y-124999500D01*
X114000099Y-124999500D01*
X112626000Y-124999500D01*
X112563000Y-124982619D01*
X112516881Y-124936500D01*
X112500000Y-124873500D01*
X112500000Y-123174104D01*
X114201000Y-123174104D01*
X114205841Y-123189005D01*
X114207797Y-123195023D01*
X114212412Y-123214246D01*
X114215854Y-123235976D01*
X114225840Y-123255575D01*
X114233405Y-123273838D01*
X114240203Y-123294760D01*
X114253133Y-123312557D01*
X114263461Y-123329409D01*
X114273450Y-123349013D01*
X114289683Y-123365246D01*
X114289696Y-123365261D01*
X115838254Y-124913820D01*
X115838263Y-124913827D01*
X115852006Y-124927570D01*
X115871605Y-124937556D01*
X115888459Y-124947885D01*
X115906256Y-124960815D01*
X115906257Y-124960815D01*
X115906258Y-124960816D01*
X115927180Y-124967613D01*
X115945442Y-124975178D01*
X115965044Y-124985166D01*
X115986773Y-124988607D01*
X116005990Y-124993221D01*
X116026915Y-125000020D01*
X116058829Y-125000020D01*
X116153781Y-125000020D01*
X118931437Y-125000020D01*
X118979655Y-125009611D01*
X119020532Y-125036925D01*
X121983608Y-128000000D01*
X124815685Y-130832077D01*
X124905393Y-130921785D01*
X124924991Y-130931770D01*
X124941849Y-130942101D01*
X124959645Y-130955031D01*
X124980567Y-130961828D01*
X124998828Y-130969392D01*
X125018431Y-130979381D01*
X125040160Y-130982822D01*
X125059377Y-130987436D01*
X125080302Y-130994235D01*
X125112216Y-130994235D01*
X125207168Y-130994235D01*
X126409750Y-130994235D01*
X126473767Y-131011710D01*
X126520028Y-131059286D01*
X126535700Y-131123769D01*
X126516437Y-131187271D01*
X126480964Y-131243724D01*
X126421386Y-131413988D01*
X126401189Y-131593246D01*
X126421386Y-131772503D01*
X126480964Y-131942767D01*
X126576938Y-132095509D01*
X126685580Y-132204151D01*
X126718192Y-132260635D01*
X126718192Y-132325857D01*
X126685580Y-132382341D01*
X126570184Y-132497736D01*
X126474210Y-132650478D01*
X126414632Y-132820742D01*
X126394435Y-132999999D01*
X126414632Y-133179257D01*
X126474210Y-133349521D01*
X126570184Y-133502263D01*
X126697736Y-133629815D01*
X126697738Y-133629816D01*
X126850478Y-133725789D01*
X127020745Y-133785368D01*
X127200000Y-133805565D01*
X127379255Y-133785368D01*
X127549522Y-133725789D01*
X127702262Y-133629816D01*
X127829816Y-133502262D01*
X127856707Y-133459464D01*
X127902446Y-133416222D01*
X127963395Y-133400500D01*
X152881917Y-133400500D01*
X152930135Y-133410091D01*
X152971012Y-133437405D01*
X152994516Y-133460909D01*
X157094516Y-137560909D01*
X162471950Y-142938342D01*
X162561658Y-143028050D01*
X162581256Y-143038035D01*
X162598114Y-143048366D01*
X162615910Y-143061296D01*
X162636827Y-143068092D01*
X162655093Y-143075658D01*
X162674693Y-143085645D01*
X162674694Y-143085645D01*
X162674696Y-143085646D01*
X162696430Y-143089087D01*
X162715642Y-143093699D01*
X162736567Y-143100499D01*
X162758047Y-143100499D01*
X162758059Y-143100500D01*
X162768481Y-143100500D01*
X162968481Y-143100500D01*
X163031519Y-143100500D01*
X176736605Y-143100500D01*
X176797554Y-143116222D01*
X176843292Y-143159464D01*
X176870184Y-143202263D01*
X176997736Y-143329815D01*
X176997738Y-143329816D01*
X177150478Y-143425789D01*
X177320745Y-143485368D01*
X177500000Y-143505565D01*
X177654659Y-143488139D01*
X177710379Y-143494418D01*
X177757859Y-143524252D01*
X178765472Y-144531864D01*
X179771950Y-145538342D01*
X179861658Y-145628050D01*
X179881256Y-145638035D01*
X179898114Y-145648366D01*
X179915910Y-145661296D01*
X179936827Y-145668092D01*
X179955093Y-145675658D01*
X179974693Y-145685645D01*
X179974694Y-145685645D01*
X179974696Y-145685646D01*
X179996430Y-145689087D01*
X180015642Y-145693699D01*
X180036567Y-145700499D01*
X180058047Y-145700499D01*
X180058059Y-145700500D01*
X180068481Y-145700500D01*
X183331917Y-145700500D01*
X183380135Y-145710091D01*
X183421012Y-145737405D01*
X183579400Y-145895793D01*
X183611360Y-145949935D01*
X183613179Y-146012780D01*
X183584405Y-146068681D01*
X183532202Y-146103718D01*
X183469567Y-146109170D01*
X183366669Y-146092000D01*
X183133332Y-146092000D01*
X182903169Y-146130407D01*
X182682474Y-146206171D01*
X182477255Y-146317230D01*
X182448681Y-146339469D01*
X182448681Y-146339470D01*
X183250000Y-147140790D01*
X184409202Y-148299991D01*
X184492542Y-148172430D01*
X184554345Y-148031533D01*
X184599540Y-147977509D01*
X184666669Y-147956183D01*
X184734756Y-147974220D01*
X184782522Y-148025980D01*
X184810327Y-148081821D01*
X184933236Y-148244579D01*
X185083959Y-148381981D01*
X185083961Y-148381982D01*
X185083962Y-148381983D01*
X185257359Y-148489346D01*
X185257361Y-148489346D01*
X185257363Y-148489348D01*
X185447544Y-148563024D01*
X185648024Y-148600500D01*
X185851974Y-148600500D01*
X185851976Y-148600500D01*
X186052456Y-148563024D01*
X186242637Y-148489348D01*
X186416041Y-148381981D01*
X186566764Y-148244579D01*
X186689673Y-148081821D01*
X186780582Y-147899250D01*
X186836397Y-147703083D01*
X186855215Y-147500000D01*
X186836397Y-147296917D01*
X186780582Y-147100750D01*
X186689673Y-146918179D01*
X186566764Y-146755421D01*
X186416041Y-146618019D01*
X186416038Y-146618017D01*
X186416037Y-146618016D01*
X186270128Y-146527673D01*
X186223126Y-146475609D01*
X186211246Y-146406481D01*
X186238167Y-146341711D01*
X186295549Y-146301372D01*
X186317526Y-146293827D01*
X186522744Y-146182770D01*
X186551317Y-146160529D01*
X186551318Y-146160528D01*
X185479885Y-145089095D01*
X185447273Y-145032611D01*
X185447273Y-145000000D01*
X186109210Y-145000000D01*
X186909202Y-145799990D01*
X186992544Y-145672428D01*
X187086275Y-145458742D01*
X187143555Y-145232548D01*
X187162825Y-144999999D01*
X187143555Y-144767451D01*
X187086276Y-144541260D01*
X186992543Y-144327569D01*
X186909202Y-144200007D01*
X186109210Y-144999999D01*
X186109210Y-145000000D01*
X185447273Y-145000000D01*
X185447273Y-144967389D01*
X185479885Y-144910905D01*
X185750000Y-144640790D01*
X185750000Y-144640789D01*
X186551318Y-143839470D01*
X186551317Y-143839469D01*
X186522745Y-143817230D01*
X186317526Y-143706172D01*
X186295545Y-143698626D01*
X186238166Y-143658286D01*
X186211245Y-143593516D01*
X186223127Y-143524389D01*
X186270125Y-143472328D01*
X186416041Y-143381981D01*
X186566764Y-143244579D01*
X186689673Y-143081821D01*
X186780582Y-142899250D01*
X186836397Y-142703083D01*
X186855215Y-142500000D01*
X186836397Y-142296917D01*
X186780582Y-142100750D01*
X186689673Y-141918179D01*
X186566764Y-141755421D01*
X186416041Y-141618019D01*
X186416038Y-141618017D01*
X186416037Y-141618016D01*
X186242640Y-141510653D01*
X186052456Y-141436976D01*
X186052455Y-141436975D01*
X185851976Y-141399500D01*
X185648024Y-141399500D01*
X185514370Y-141424483D01*
X185447543Y-141436976D01*
X185257359Y-141510653D01*
X185083962Y-141618016D01*
X184933235Y-141755422D01*
X184810328Y-141918177D01*
X184719417Y-142100752D01*
X184663603Y-142296914D01*
X184644785Y-142499999D01*
X184663603Y-142703085D01*
X184713538Y-142878584D01*
X184714302Y-142944739D01*
X184681444Y-143002161D01*
X184021012Y-143662595D01*
X183980134Y-143689909D01*
X183931916Y-143699500D01*
X183846074Y-143699500D01*
X183783747Y-143683005D01*
X183737739Y-143637840D01*
X183720096Y-143575828D01*
X183735436Y-143513208D01*
X183779744Y-143466373D01*
X183876932Y-143406196D01*
X183916041Y-143381981D01*
X184066764Y-143244579D01*
X184189673Y-143081821D01*
X184280582Y-142899250D01*
X184336397Y-142703083D01*
X184355215Y-142500000D01*
X184336397Y-142296917D01*
X184280582Y-142100750D01*
X184189673Y-141918179D01*
X184066764Y-141755421D01*
X183916041Y-141618019D01*
X183916038Y-141618017D01*
X183916037Y-141618016D01*
X183742640Y-141510653D01*
X183552456Y-141436976D01*
X183552455Y-141436975D01*
X183351976Y-141399500D01*
X183148024Y-141399500D01*
X183014370Y-141424483D01*
X182947543Y-141436976D01*
X182757359Y-141510653D01*
X182583962Y-141618016D01*
X182433235Y-141755422D01*
X182310328Y-141918176D01*
X182254815Y-142029663D01*
X182208354Y-142080627D01*
X182142024Y-142099500D01*
X181868082Y-142099500D01*
X181819864Y-142089909D01*
X181778989Y-142062597D01*
X180511389Y-140794996D01*
X180511388Y-140794995D01*
X180505063Y-140788670D01*
X180505055Y-140788663D01*
X180488822Y-140772430D01*
X180488819Y-140772428D01*
X180469218Y-140762440D01*
X180452363Y-140752111D01*
X180434569Y-140739183D01*
X180413650Y-140732386D01*
X180395385Y-140724820D01*
X180375786Y-140714834D01*
X180354057Y-140711392D01*
X180334838Y-140706778D01*
X180313914Y-140699980D01*
X180313913Y-140699980D01*
X180281999Y-140699980D01*
X175620151Y-140699980D01*
X175609729Y-140699980D01*
X175609717Y-140699981D01*
X175588235Y-140699981D01*
X175567317Y-140706777D01*
X175548097Y-140711391D01*
X175526366Y-140714833D01*
X175506760Y-140724822D01*
X175488504Y-140732384D01*
X175467581Y-140739183D01*
X175449785Y-140752113D01*
X175432929Y-140762442D01*
X175413329Y-140772428D01*
X175402046Y-140783711D01*
X175390762Y-140794996D01*
X175390761Y-140794997D01*
X175122201Y-141063556D01*
X175081324Y-141090869D01*
X175033106Y-141100460D01*
X163514741Y-141100460D01*
X163466523Y-141090869D01*
X163425646Y-141063555D01*
X161362090Y-138999999D01*
X174994435Y-138999999D01*
X175014632Y-139179257D01*
X175074210Y-139349521D01*
X175170184Y-139502263D01*
X175297736Y-139629815D01*
X175450478Y-139725789D01*
X175620745Y-139785368D01*
X175800000Y-139805565D01*
X175979255Y-139785368D01*
X176149522Y-139725789D01*
X176231410Y-139674335D01*
X182549500Y-139674335D01*
X182590429Y-139919614D01*
X182590430Y-139919616D01*
X182671170Y-140154806D01*
X182671171Y-140154809D01*
X182671172Y-140154810D01*
X182747442Y-140295745D01*
X182789527Y-140373510D01*
X182942262Y-140569744D01*
X183125217Y-140738166D01*
X183333389Y-140874171D01*
X183333391Y-140874172D01*
X183333393Y-140874173D01*
X183561119Y-140974063D01*
X183802179Y-141035108D01*
X183987933Y-141050500D01*
X185012062Y-141050500D01*
X185012067Y-141050500D01*
X185197821Y-141035108D01*
X185438881Y-140974063D01*
X185666607Y-140874173D01*
X185853434Y-140752113D01*
X185874782Y-140738166D01*
X185874782Y-140738165D01*
X185874785Y-140738164D01*
X186057738Y-140569744D01*
X186210474Y-140373509D01*
X186328828Y-140154810D01*
X186409571Y-139919614D01*
X186450500Y-139674335D01*
X186450500Y-139425665D01*
X186409571Y-139180386D01*
X186328828Y-138945190D01*
X186210474Y-138726491D01*
X186057738Y-138530256D01*
X185943919Y-138425478D01*
X185874782Y-138361833D01*
X185666610Y-138225828D01*
X185525297Y-138163842D01*
X185438881Y-138125937D01*
X185438879Y-138125936D01*
X185438876Y-138125935D01*
X185197825Y-138064893D01*
X185197824Y-138064892D01*
X185197821Y-138064892D01*
X185012067Y-138049500D01*
X183987933Y-138049500D01*
X183802179Y-138064892D01*
X183802175Y-138064892D01*
X183802174Y-138064893D01*
X183561123Y-138125935D01*
X183333389Y-138225828D01*
X183125217Y-138361833D01*
X182942262Y-138530255D01*
X182789527Y-138726489D01*
X182671170Y-138945193D01*
X182609607Y-139124522D01*
X182590429Y-139180386D01*
X182549500Y-139425665D01*
X182549500Y-139674335D01*
X176231410Y-139674335D01*
X176302262Y-139629816D01*
X176429816Y-139502262D01*
X176525789Y-139349522D01*
X176585368Y-139179255D01*
X176605565Y-139000000D01*
X176585368Y-138820745D01*
X176525789Y-138650478D01*
X176491396Y-138595742D01*
X176429815Y-138497736D01*
X176302263Y-138370184D01*
X176149521Y-138274210D01*
X175979257Y-138214632D01*
X175800000Y-138194435D01*
X175620742Y-138214632D01*
X175450478Y-138274210D01*
X175297736Y-138370184D01*
X175170184Y-138497736D01*
X175074210Y-138650478D01*
X175014632Y-138820742D01*
X174994435Y-138999999D01*
X161362090Y-138999999D01*
X153851248Y-131489156D01*
X153851233Y-131489143D01*
X153835000Y-131472910D01*
X153834997Y-131472908D01*
X153815396Y-131462920D01*
X153798541Y-131452591D01*
X153780747Y-131439663D01*
X153759828Y-131432866D01*
X153741563Y-131425300D01*
X153721964Y-131415314D01*
X153700235Y-131411872D01*
X153681016Y-131407258D01*
X153660092Y-131400460D01*
X153660091Y-131400460D01*
X153628177Y-131400460D01*
X147268083Y-131400460D01*
X147219865Y-131390869D01*
X147178988Y-131363555D01*
X146097365Y-130281931D01*
X146097350Y-130281918D01*
X146081117Y-130265685D01*
X146081114Y-130265683D01*
X146061513Y-130255695D01*
X146044658Y-130245366D01*
X146026864Y-130232438D01*
X146005945Y-130225641D01*
X145987680Y-130218075D01*
X145968081Y-130208089D01*
X145946352Y-130204647D01*
X145927133Y-130200033D01*
X145906209Y-130193235D01*
X145906208Y-130193235D01*
X145874294Y-130193235D01*
X125361817Y-130193235D01*
X125313599Y-130183644D01*
X125272722Y-130156330D01*
X121716392Y-126599999D01*
X155894435Y-126599999D01*
X155914632Y-126779257D01*
X155974210Y-126949521D01*
X156070184Y-127102263D01*
X156197736Y-127229815D01*
X156268392Y-127274211D01*
X156350478Y-127325789D01*
X156520745Y-127385368D01*
X156700000Y-127405565D01*
X156879255Y-127385368D01*
X157049522Y-127325789D01*
X157202262Y-127229816D01*
X157329816Y-127102262D01*
X157425789Y-126949522D01*
X157431072Y-126934423D01*
X157464991Y-126883038D01*
X157519213Y-126853860D01*
X157580787Y-126853860D01*
X157635009Y-126883038D01*
X157668927Y-126934423D01*
X157674211Y-126949521D01*
X157674212Y-126949524D01*
X157770184Y-127102263D01*
X157897736Y-127229815D01*
X157968392Y-127274211D01*
X158050478Y-127325789D01*
X158220745Y-127385368D01*
X158400000Y-127405565D01*
X158579255Y-127385368D01*
X158749522Y-127325789D01*
X158902262Y-127229816D01*
X159029816Y-127102262D01*
X159037814Y-127089532D01*
X159083552Y-127046291D01*
X159144501Y-127030569D01*
X159205450Y-127046291D01*
X159251189Y-127089534D01*
X159263432Y-127109019D01*
X159390982Y-127236569D01*
X159450889Y-127274211D01*
X159543724Y-127332543D01*
X159713991Y-127392122D01*
X159893246Y-127412319D01*
X160072501Y-127392122D01*
X160242768Y-127332543D01*
X160395508Y-127236570D01*
X160523062Y-127109016D01*
X160619035Y-126956276D01*
X160678614Y-126786009D01*
X160698811Y-126606754D01*
X160681385Y-126452094D01*
X160687664Y-126396374D01*
X160717498Y-126348893D01*
X161528499Y-125537893D01*
X161569376Y-125510580D01*
X161617594Y-125500989D01*
X162002996Y-125500989D01*
X162067013Y-125518464D01*
X162113274Y-125566040D01*
X162128946Y-125630523D01*
X162109683Y-125694025D01*
X162074210Y-125750478D01*
X162014632Y-125920742D01*
X161994435Y-126099999D01*
X162014632Y-126279257D01*
X162074210Y-126449521D01*
X162170184Y-126602263D01*
X162297736Y-126729815D01*
X162387172Y-126786011D01*
X162450478Y-126825789D01*
X162620745Y-126885368D01*
X162800000Y-126905565D01*
X162979255Y-126885368D01*
X163149522Y-126825789D01*
X163302262Y-126729816D01*
X163429816Y-126602262D01*
X163456707Y-126559464D01*
X163502446Y-126516222D01*
X163563395Y-126500500D01*
X180563431Y-126500500D01*
X180563433Y-126500500D01*
X180584360Y-126493700D01*
X180603576Y-126489087D01*
X180625304Y-126485646D01*
X180644906Y-126475657D01*
X180663163Y-126468094D01*
X180684090Y-126461296D01*
X180701891Y-126448362D01*
X180718738Y-126438038D01*
X180738342Y-126428050D01*
X180746443Y-126419948D01*
X180746451Y-126419943D01*
X182089219Y-125077174D01*
X182141174Y-125045867D01*
X182201738Y-125042465D01*
X182256873Y-125067757D01*
X182293800Y-125115881D01*
X182303962Y-125175683D01*
X182285003Y-125233303D01*
X182274210Y-125250480D01*
X182214632Y-125420742D01*
X182214632Y-125420745D01*
X182194435Y-125600000D01*
X182211860Y-125754658D01*
X182205582Y-125810378D01*
X182175748Y-125857858D01*
X180471012Y-127562595D01*
X180430135Y-127589909D01*
X180381917Y-127599500D01*
X175763395Y-127599500D01*
X175702446Y-127583778D01*
X175656708Y-127540536D01*
X175629815Y-127497736D01*
X175502263Y-127370184D01*
X175349521Y-127274210D01*
X175179257Y-127214632D01*
X175000000Y-127194435D01*
X174820742Y-127214632D01*
X174650478Y-127274210D01*
X174497736Y-127370184D01*
X174370184Y-127497736D01*
X174274210Y-127650478D01*
X174214632Y-127820742D01*
X174194435Y-128000000D01*
X174214632Y-128179257D01*
X174274210Y-128349521D01*
X174370184Y-128502263D01*
X174497736Y-128629815D01*
X174650478Y-128725789D01*
X174816572Y-128783908D01*
X174820745Y-128785368D01*
X175000000Y-128805565D01*
X175179255Y-128785368D01*
X175183428Y-128783907D01*
X175246147Y-128778615D01*
X175303603Y-128804322D01*
X175341454Y-128854615D01*
X175350253Y-128916941D01*
X175340952Y-128999500D01*
X175341065Y-129000500D01*
X175361149Y-129178757D01*
X175420727Y-129349021D01*
X175516701Y-129501763D01*
X175644253Y-129629315D01*
X175796995Y-129725289D01*
X175914563Y-129766428D01*
X175967262Y-129784868D01*
X176146517Y-129805065D01*
X176325772Y-129784868D01*
X176445413Y-129743003D01*
X176510449Y-129738130D01*
X176569213Y-129766428D01*
X176605954Y-129820318D01*
X176665120Y-129989406D01*
X176761094Y-130142148D01*
X176888646Y-130269700D01*
X176908112Y-130281931D01*
X177041388Y-130365674D01*
X177211655Y-130425253D01*
X177390910Y-130445450D01*
X177570165Y-130425253D01*
X177740432Y-130365674D01*
X177893172Y-130269701D01*
X178020726Y-130142147D01*
X178116699Y-129989407D01*
X178176278Y-129819140D01*
X178188413Y-129711430D01*
X178209515Y-129654562D01*
X178254745Y-129614142D01*
X178313621Y-129599540D01*
X182297048Y-129599540D01*
X182297050Y-129599540D01*
X182317977Y-129592740D01*
X182337193Y-129588127D01*
X182358921Y-129584686D01*
X182378523Y-129574697D01*
X182396780Y-129567134D01*
X182417707Y-129560336D01*
X182435508Y-129547402D01*
X182452355Y-129537078D01*
X182471959Y-129527090D01*
X182480059Y-129518989D01*
X182480068Y-129518984D01*
X182480067Y-129518983D01*
X182820295Y-129178755D01*
X185559446Y-126439601D01*
X185606922Y-126409771D01*
X185662638Y-126403492D01*
X185817303Y-126420919D01*
X185996558Y-126400722D01*
X186166825Y-126341143D01*
X186319565Y-126245170D01*
X186447119Y-126117616D01*
X186543092Y-125964876D01*
X186602671Y-125794609D01*
X186622868Y-125615354D01*
X186602671Y-125436099D01*
X186543092Y-125265832D01*
X186514065Y-125219636D01*
X186447118Y-125113090D01*
X186319566Y-124985538D01*
X186166824Y-124889564D01*
X185996560Y-124829986D01*
X185817303Y-124809789D01*
X185638045Y-124829986D01*
X185467781Y-124889564D01*
X185315041Y-124985537D01*
X185195211Y-125105367D01*
X185138727Y-125137978D01*
X185073505Y-125137978D01*
X185017021Y-125105366D01*
X184901626Y-124989971D01*
X184748884Y-124893997D01*
X184578620Y-124834419D01*
X184399363Y-124814222D01*
X184220105Y-124834419D01*
X184049841Y-124893997D01*
X183897099Y-124989971D01*
X183798670Y-125088401D01*
X183742186Y-125121013D01*
X183676964Y-125121013D01*
X183620480Y-125088401D01*
X183502263Y-124970184D01*
X183349521Y-124874210D01*
X183179257Y-124814632D01*
X183000000Y-124794435D01*
X182820742Y-124814632D01*
X182650480Y-124874210D01*
X182633303Y-124885003D01*
X182575683Y-124903962D01*
X182515881Y-124893800D01*
X182467757Y-124856873D01*
X182442465Y-124801738D01*
X182445867Y-124741174D01*
X182477174Y-124689219D01*
X184919943Y-122246451D01*
X184919948Y-122246443D01*
X184928050Y-122238342D01*
X184938038Y-122218738D01*
X184948363Y-122201888D01*
X184961296Y-122184089D01*
X184968094Y-122163164D01*
X184975659Y-122144903D01*
X184985646Y-122125304D01*
X184989087Y-122103574D01*
X184993701Y-122084354D01*
X185000500Y-122063433D01*
X185000500Y-121936567D01*
X185000500Y-121803125D01*
X185016222Y-121742176D01*
X185059464Y-121696438D01*
X185080566Y-121683178D01*
X185102262Y-121669546D01*
X185229816Y-121541992D01*
X185325789Y-121389252D01*
X185385368Y-121218985D01*
X185405565Y-121039730D01*
X185385368Y-120860475D01*
X185325789Y-120690208D01*
X185252903Y-120574210D01*
X185229815Y-120537466D01*
X185102263Y-120409914D01*
X184949521Y-120313940D01*
X184779257Y-120254362D01*
X184618132Y-120236208D01*
X184600000Y-120234165D01*
X184599999Y-120234165D01*
X184530326Y-120242015D01*
X184474604Y-120235736D01*
X184427124Y-120205902D01*
X184397291Y-120158422D01*
X184391012Y-120102704D01*
X184406065Y-119969109D01*
X184385868Y-119789854D01*
X184326289Y-119619587D01*
X184230316Y-119466847D01*
X184230315Y-119466845D01*
X184102763Y-119339293D01*
X183950021Y-119243319D01*
X183811046Y-119194690D01*
X183757156Y-119157949D01*
X183728858Y-119099186D01*
X183733732Y-119034146D01*
X183786347Y-118883780D01*
X183786348Y-118883778D01*
X183806545Y-118704523D01*
X183786348Y-118525268D01*
X183726769Y-118355001D01*
X183630796Y-118202261D01*
X183630795Y-118202259D01*
X183503243Y-118074707D01*
X183350501Y-117978733D01*
X183198554Y-117925565D01*
X183151065Y-117895723D01*
X183121232Y-117848229D01*
X183114965Y-117792493D01*
X183125021Y-117763783D01*
X183122560Y-117762922D01*
X183131785Y-117736558D01*
X183186828Y-117579255D01*
X183207025Y-117400000D01*
X183186828Y-117220745D01*
X183127249Y-117050478D01*
X183046149Y-116921408D01*
X183031275Y-116897736D01*
X182903723Y-116770184D01*
X182750981Y-116674210D01*
X182580717Y-116614632D01*
X182461211Y-116601167D01*
X182401460Y-116594435D01*
X182401459Y-116594435D01*
X182222202Y-116614632D01*
X182051938Y-116674210D01*
X181899196Y-116770184D01*
X181771644Y-116897736D01*
X181675670Y-117050478D01*
X181616092Y-117220742D01*
X181595895Y-117400000D01*
X181616092Y-117579259D01*
X181617993Y-117584690D01*
X181624778Y-117634775D01*
X181618597Y-117657172D01*
X181612381Y-117696415D01*
X181607767Y-117715633D01*
X181600969Y-117736557D01*
X181600969Y-121836899D01*
X181591378Y-121885117D01*
X181564064Y-121925994D01*
X179626022Y-123864035D01*
X179585145Y-123891349D01*
X179536927Y-123900940D01*
X164328745Y-123900940D01*
X164280527Y-123891349D01*
X164239652Y-123864037D01*
X163971580Y-123595965D01*
X163971579Y-123595964D01*
X163965254Y-123589639D01*
X163965246Y-123589632D01*
X163949013Y-123573399D01*
X163949010Y-123573397D01*
X163929409Y-123563409D01*
X163912554Y-123553080D01*
X163894760Y-123540152D01*
X163873841Y-123533355D01*
X163855576Y-123525789D01*
X163835977Y-123515803D01*
X163814248Y-123512361D01*
X163795029Y-123507747D01*
X163774105Y-123500949D01*
X163774104Y-123500949D01*
X163742190Y-123500949D01*
X159367032Y-123500949D01*
X159356610Y-123500949D01*
X159356598Y-123500950D01*
X159335116Y-123500950D01*
X159314198Y-123507746D01*
X159294978Y-123512360D01*
X159273247Y-123515802D01*
X159253641Y-123525791D01*
X159235385Y-123533353D01*
X159214462Y-123540152D01*
X159196664Y-123553083D01*
X159179811Y-123563410D01*
X159160210Y-123573397D01*
X159119920Y-123613685D01*
X159119917Y-123613690D01*
X156957858Y-125775748D01*
X156910378Y-125805582D01*
X156854658Y-125811860D01*
X156700000Y-125794435D01*
X156699999Y-125794435D01*
X156520742Y-125814632D01*
X156350478Y-125874210D01*
X156197736Y-125970184D01*
X156070184Y-126097736D01*
X155974210Y-126250478D01*
X155914632Y-126420742D01*
X155894435Y-126599999D01*
X121716392Y-126599999D01*
X119731988Y-124615595D01*
X119701250Y-124565436D01*
X119696634Y-124506789D01*
X119719147Y-124452439D01*
X119763880Y-124414233D01*
X119821083Y-124400500D01*
X120063431Y-124400500D01*
X120063433Y-124400500D01*
X120084360Y-124393700D01*
X120103576Y-124389087D01*
X120125304Y-124385646D01*
X120144906Y-124375657D01*
X120163163Y-124368094D01*
X120184090Y-124361296D01*
X120201891Y-124348362D01*
X120218738Y-124338038D01*
X120238342Y-124328050D01*
X120246443Y-124319948D01*
X120246451Y-124319943D01*
X121332397Y-123233995D01*
X121335379Y-123222569D01*
X121336600Y-123220171D01*
X121346929Y-123203321D01*
X121357331Y-123189005D01*
X121359856Y-123185530D01*
X121366656Y-123164598D01*
X121374217Y-123146346D01*
X121384206Y-123126744D01*
X121387647Y-123105016D01*
X121392260Y-123085800D01*
X121399060Y-123064873D01*
X121399060Y-122963395D01*
X121414782Y-122902446D01*
X121458024Y-122856708D01*
X121479126Y-122843448D01*
X121500822Y-122829816D01*
X121628376Y-122702262D01*
X121724349Y-122549522D01*
X121783928Y-122379255D01*
X121804125Y-122200000D01*
X121783928Y-122020745D01*
X121724349Y-121850478D01*
X121694595Y-121803125D01*
X121628375Y-121697736D01*
X121500823Y-121570184D01*
X121348081Y-121474210D01*
X121177817Y-121414632D01*
X120998560Y-121394435D01*
X120819302Y-121414632D01*
X120649038Y-121474210D01*
X120496298Y-121570183D01*
X120387903Y-121678578D01*
X120331419Y-121711189D01*
X120266197Y-121711189D01*
X120209713Y-121678577D01*
X120101320Y-121570184D01*
X119948578Y-121474210D01*
X119778314Y-121414632D01*
X119599057Y-121394435D01*
X119419799Y-121414632D01*
X119249535Y-121474210D01*
X119096795Y-121570183D01*
X118988400Y-121678578D01*
X118931916Y-121711189D01*
X118866694Y-121711189D01*
X118810210Y-121678577D01*
X118701817Y-121570184D01*
X118659018Y-121543292D01*
X118615776Y-121497554D01*
X118600054Y-121436605D01*
X118600054Y-121299999D01*
X151694435Y-121299999D01*
X151714632Y-121479257D01*
X151774210Y-121649521D01*
X151870184Y-121802263D01*
X151997736Y-121929815D01*
X152150478Y-122025789D01*
X152258055Y-122063432D01*
X152320745Y-122085368D01*
X152500000Y-122105565D01*
X152679255Y-122085368D01*
X152849522Y-122025789D01*
X153002262Y-121929816D01*
X153129816Y-121802262D01*
X153225789Y-121649522D01*
X153285368Y-121479255D01*
X153305565Y-121300000D01*
X153285368Y-121120745D01*
X153225789Y-120950478D01*
X153169236Y-120860475D01*
X153129815Y-120797736D01*
X153002263Y-120670184D01*
X152849521Y-120574210D01*
X152679257Y-120514632D01*
X152500000Y-120494435D01*
X152320742Y-120514632D01*
X152150478Y-120574210D01*
X151997736Y-120670184D01*
X151870184Y-120797736D01*
X151774210Y-120950478D01*
X151714632Y-121120742D01*
X151694435Y-121299999D01*
X118600054Y-121299999D01*
X118600054Y-120518529D01*
X118609645Y-120470311D01*
X118636956Y-120429436D01*
X119005004Y-120061389D01*
X119005004Y-120061388D01*
X119019463Y-120046930D01*
X119019464Y-120046931D01*
X119019469Y-120046922D01*
X119027570Y-120038822D01*
X119037558Y-120019218D01*
X119047883Y-120002368D01*
X119060816Y-119984569D01*
X119067614Y-119963644D01*
X119075179Y-119945383D01*
X119085166Y-119925784D01*
X119088607Y-119904054D01*
X119093221Y-119884834D01*
X119098124Y-119869747D01*
X119949500Y-119869747D01*
X119961133Y-119928231D01*
X120005447Y-119994552D01*
X120017133Y-120002360D01*
X120071769Y-120038867D01*
X120130252Y-120050500D01*
X121869747Y-120050500D01*
X121869748Y-120050500D01*
X121928231Y-120038867D01*
X121994552Y-119994552D01*
X122038867Y-119928231D01*
X122050500Y-119869748D01*
X122050500Y-118130252D01*
X122038867Y-118071769D01*
X122024162Y-118049762D01*
X121994552Y-118005447D01*
X121986400Y-118000000D01*
X129394435Y-118000000D01*
X129414632Y-118179257D01*
X129474210Y-118349521D01*
X129570184Y-118502263D01*
X129697736Y-118629815D01*
X129697738Y-118629816D01*
X129850478Y-118725789D01*
X130020745Y-118785368D01*
X130200000Y-118805565D01*
X130379255Y-118785368D01*
X130549522Y-118725789D01*
X130702262Y-118629816D01*
X130829816Y-118502262D01*
X130925789Y-118349522D01*
X130985368Y-118179255D01*
X131005565Y-118000000D01*
X146594435Y-118000000D01*
X146614632Y-118179257D01*
X146674210Y-118349521D01*
X146770184Y-118502263D01*
X146897736Y-118629815D01*
X146897738Y-118629816D01*
X147050478Y-118725789D01*
X147220745Y-118785368D01*
X147400000Y-118805565D01*
X147579255Y-118785368D01*
X147749522Y-118725789D01*
X147902262Y-118629816D01*
X148029816Y-118502262D01*
X148125789Y-118349522D01*
X148185368Y-118179255D01*
X148205565Y-118000000D01*
X163394435Y-118000000D01*
X163414632Y-118179257D01*
X163474210Y-118349521D01*
X163570184Y-118502263D01*
X163697736Y-118629815D01*
X163697738Y-118629816D01*
X163850478Y-118725789D01*
X164020745Y-118785368D01*
X164200000Y-118805565D01*
X164379255Y-118785368D01*
X164549522Y-118725789D01*
X164702262Y-118629816D01*
X164829816Y-118502262D01*
X164925789Y-118349522D01*
X164985368Y-118179255D01*
X165005565Y-118000000D01*
X164985368Y-117820745D01*
X164925789Y-117650478D01*
X164829816Y-117497738D01*
X164829815Y-117497736D01*
X164702263Y-117370184D01*
X164549521Y-117274210D01*
X164379257Y-117214632D01*
X164200000Y-117194435D01*
X164020742Y-117214632D01*
X163850478Y-117274210D01*
X163697736Y-117370184D01*
X163570184Y-117497736D01*
X163474210Y-117650478D01*
X163414632Y-117820742D01*
X163394435Y-118000000D01*
X148205565Y-118000000D01*
X148185368Y-117820745D01*
X148125789Y-117650478D01*
X148029816Y-117497738D01*
X148029815Y-117497736D01*
X147902263Y-117370184D01*
X147749521Y-117274210D01*
X147579257Y-117214632D01*
X147400000Y-117194435D01*
X147220742Y-117214632D01*
X147050478Y-117274210D01*
X146897736Y-117370184D01*
X146770184Y-117497736D01*
X146674210Y-117650478D01*
X146614632Y-117820742D01*
X146594435Y-118000000D01*
X131005565Y-118000000D01*
X130985368Y-117820745D01*
X130925789Y-117650478D01*
X130829816Y-117497738D01*
X130829815Y-117497736D01*
X130702263Y-117370184D01*
X130549521Y-117274210D01*
X130379257Y-117214632D01*
X130200000Y-117194435D01*
X130020742Y-117214632D01*
X129850478Y-117274210D01*
X129697736Y-117370184D01*
X129570184Y-117497736D01*
X129474210Y-117650478D01*
X129414632Y-117820742D01*
X129394435Y-118000000D01*
X121986400Y-118000000D01*
X121928231Y-117961133D01*
X121928230Y-117961132D01*
X121869748Y-117949500D01*
X120130252Y-117949500D01*
X120101010Y-117955316D01*
X120071768Y-117961133D01*
X120005447Y-118005447D01*
X119961133Y-118071768D01*
X119949500Y-118130253D01*
X119949500Y-119869747D01*
X119098124Y-119869747D01*
X119100020Y-119863913D01*
X119100020Y-119737047D01*
X119100020Y-116459999D01*
X119944416Y-116459999D01*
X119964699Y-116665929D01*
X119964699Y-116665931D01*
X119964700Y-116665934D01*
X120024768Y-116863954D01*
X120024769Y-116863956D01*
X120122314Y-117046449D01*
X120253589Y-117206410D01*
X120336205Y-117274210D01*
X120413550Y-117337685D01*
X120596046Y-117435232D01*
X120794066Y-117495300D01*
X121000000Y-117515583D01*
X121205934Y-117495300D01*
X121403954Y-117435232D01*
X121586450Y-117337685D01*
X121746410Y-117206410D01*
X121877685Y-117046450D01*
X121941477Y-116927103D01*
X121987822Y-116878426D01*
X122052599Y-116860500D01*
X123050766Y-116860500D01*
X123103108Y-116871886D01*
X123145990Y-116903987D01*
X123171661Y-116950999D01*
X123179366Y-116977238D01*
X123239094Y-117108023D01*
X123270551Y-117156971D01*
X123364705Y-117265632D01*
X123408680Y-117303737D01*
X123529634Y-117381469D01*
X123582562Y-117405640D01*
X123683337Y-117435230D01*
X123720520Y-117446148D01*
X123778108Y-117454428D01*
X123778111Y-117454428D01*
X124349999Y-117454428D01*
X124350000Y-117454428D01*
X124428231Y-117438867D01*
X124429999Y-117437685D01*
X124475418Y-117418872D01*
X124524582Y-117418872D01*
X124570000Y-117437685D01*
X124571769Y-117438867D01*
X124650000Y-117454428D01*
X125221889Y-117454428D01*
X125221892Y-117454428D01*
X125279479Y-117446148D01*
X125279481Y-117446147D01*
X125279483Y-117446147D01*
X125417438Y-117405640D01*
X125470366Y-117381469D01*
X125591320Y-117303737D01*
X125635295Y-117265632D01*
X125729449Y-117156971D01*
X125760906Y-117108023D01*
X125820634Y-116977238D01*
X125837027Y-116921408D01*
X125839532Y-116903987D01*
X125857489Y-116779096D01*
X125857489Y-116720907D01*
X125855711Y-116708542D01*
X125854428Y-116690608D01*
X125854428Y-116309392D01*
X125855711Y-116291458D01*
X125857489Y-116279093D01*
X125857489Y-116220904D01*
X125837028Y-116078595D01*
X125830406Y-116056043D01*
X125820634Y-116022762D01*
X125760906Y-115891977D01*
X125729449Y-115843029D01*
X125635295Y-115734368D01*
X125593986Y-115698573D01*
X125561886Y-115655692D01*
X125550500Y-115603350D01*
X125550500Y-105017104D01*
X125560091Y-104968886D01*
X125587404Y-104928009D01*
X126191160Y-104324252D01*
X126238641Y-104294418D01*
X126294360Y-104288139D01*
X126449020Y-104305565D01*
X126628275Y-104285368D01*
X126798542Y-104225789D01*
X126951282Y-104129816D01*
X127078836Y-104002262D01*
X127174809Y-103849522D01*
X127234388Y-103679255D01*
X127254585Y-103500000D01*
X127234388Y-103320745D01*
X127174809Y-103150478D01*
X127111374Y-103049522D01*
X127078835Y-102997736D01*
X126951283Y-102870184D01*
X126798541Y-102774210D01*
X126628277Y-102714632D01*
X126449020Y-102694435D01*
X126269762Y-102714632D01*
X126099498Y-102774210D01*
X125946756Y-102870184D01*
X125819204Y-102997736D01*
X125723230Y-103150478D01*
X125663652Y-103320742D01*
X125643455Y-103500000D01*
X125660880Y-103654655D01*
X125654601Y-103710377D01*
X125624768Y-103757857D01*
X125022169Y-104360458D01*
X124844516Y-104538111D01*
X124844513Y-104538114D01*
X124833230Y-104549396D01*
X124821948Y-104560679D01*
X124811963Y-104580276D01*
X124801639Y-104597124D01*
X124788702Y-104614931D01*
X124781904Y-104635854D01*
X124774340Y-104654116D01*
X124764354Y-104673715D01*
X124760912Y-104695444D01*
X124756298Y-104714662D01*
X124749500Y-104735586D01*
X124749500Y-115422375D01*
X124736506Y-115478103D01*
X124700204Y-115522338D01*
X124648082Y-115545953D01*
X124623125Y-115550917D01*
X124571766Y-115561133D01*
X124569999Y-115562315D01*
X124524578Y-115581128D01*
X124475415Y-115581127D01*
X124429995Y-115562312D01*
X124428231Y-115561133D01*
X124428230Y-115561132D01*
X124350000Y-115545572D01*
X123778111Y-115545572D01*
X123778108Y-115545572D01*
X123720520Y-115553851D01*
X123582560Y-115594360D01*
X123529632Y-115618531D01*
X123408682Y-115696261D01*
X123364705Y-115734367D01*
X123270551Y-115843028D01*
X123239092Y-115891979D01*
X123196226Y-115985843D01*
X123149734Y-116039498D01*
X123081613Y-116059500D01*
X122052599Y-116059500D01*
X121987822Y-116041574D01*
X121941477Y-115992896D01*
X121887534Y-115891977D01*
X121877685Y-115873550D01*
X121852637Y-115843029D01*
X121746410Y-115713589D01*
X121586449Y-115582314D01*
X121403956Y-115484769D01*
X121403955Y-115484768D01*
X121403954Y-115484768D01*
X121205934Y-115424700D01*
X121205931Y-115424699D01*
X121205929Y-115424699D01*
X121000000Y-115404416D01*
X120794070Y-115424699D01*
X120794067Y-115424699D01*
X120794066Y-115424700D01*
X120618018Y-115478103D01*
X120596043Y-115484769D01*
X120413550Y-115582314D01*
X120253589Y-115713589D01*
X120122314Y-115873550D01*
X120024769Y-116056043D01*
X120024768Y-116056045D01*
X120024768Y-116056046D01*
X119974760Y-116220904D01*
X119964699Y-116254070D01*
X119944416Y-116459999D01*
X119100020Y-116459999D01*
X119100020Y-113920000D01*
X119944416Y-113920000D01*
X119964699Y-114125929D01*
X119964699Y-114125931D01*
X119964700Y-114125934D01*
X120024768Y-114323954D01*
X120024769Y-114323956D01*
X120122314Y-114506449D01*
X120253589Y-114666410D01*
X120413550Y-114797685D01*
X120596046Y-114895232D01*
X120794066Y-114955300D01*
X121000000Y-114975583D01*
X121205934Y-114955300D01*
X121403954Y-114895232D01*
X121586450Y-114797685D01*
X121746410Y-114666410D01*
X121877685Y-114506450D01*
X121975232Y-114323954D01*
X122035300Y-114125934D01*
X122055583Y-113920000D01*
X122035300Y-113714066D01*
X121975232Y-113516046D01*
X121877685Y-113333550D01*
X121877684Y-113333549D01*
X121746410Y-113173589D01*
X121586449Y-113042314D01*
X121403956Y-112944769D01*
X121403955Y-112944768D01*
X121403954Y-112944768D01*
X121205934Y-112884700D01*
X121205931Y-112884699D01*
X121205929Y-112884699D01*
X121000000Y-112864416D01*
X120794070Y-112884699D01*
X120794067Y-112884699D01*
X120794066Y-112884700D01*
X120596046Y-112944768D01*
X120596043Y-112944769D01*
X120413550Y-113042314D01*
X120253589Y-113173589D01*
X120122314Y-113333550D01*
X120024769Y-113516043D01*
X119964699Y-113714070D01*
X119944416Y-113920000D01*
X119100020Y-113920000D01*
X119100020Y-106045999D01*
X119663455Y-106045999D01*
X119663456Y-106046000D01*
X120746000Y-106046000D01*
X120746000Y-104965609D01*
X121254000Y-104965609D01*
X121254000Y-106046000D01*
X122336544Y-106046000D01*
X122336544Y-106045999D01*
X122288822Y-105857548D01*
X122198419Y-105651451D01*
X122075321Y-105463037D01*
X121922903Y-105297466D01*
X121745302Y-105159233D01*
X121547368Y-105052116D01*
X121334514Y-104979044D01*
X121254000Y-104965609D01*
X120746000Y-104965609D01*
X120665485Y-104979044D01*
X120452631Y-105052116D01*
X120254697Y-105159233D01*
X120077096Y-105297466D01*
X119924678Y-105463037D01*
X119801580Y-105651451D01*
X119711177Y-105857548D01*
X119663455Y-106045999D01*
X119100020Y-106045999D01*
X119100020Y-103566413D01*
X119109611Y-103518195D01*
X119136925Y-103477318D01*
X120793501Y-101820742D01*
X122484405Y-100129836D01*
X122534564Y-100099099D01*
X122593211Y-100094483D01*
X122647561Y-100116996D01*
X122685767Y-100161729D01*
X122699500Y-100218932D01*
X122699500Y-106521917D01*
X122689909Y-106570136D01*
X122662595Y-106611013D01*
X122530218Y-106743388D01*
X122474069Y-106775909D01*
X122409182Y-106776176D01*
X122352766Y-106744120D01*
X122319783Y-106688242D01*
X122318979Y-106623360D01*
X122336544Y-106554000D01*
X119663455Y-106554000D01*
X119711177Y-106742451D01*
X119801580Y-106948548D01*
X119924678Y-107136962D01*
X120077096Y-107302533D01*
X120254697Y-107440766D01*
X120452631Y-107547883D01*
X120641230Y-107612629D01*
X120693634Y-107647137D01*
X120722897Y-107702641D01*
X120721763Y-107765376D01*
X120690512Y-107819785D01*
X120636895Y-107852376D01*
X120596047Y-107864767D01*
X120413550Y-107962314D01*
X120253589Y-108093589D01*
X120122314Y-108253550D01*
X120024769Y-108436043D01*
X120024768Y-108436045D01*
X120024768Y-108436046D01*
X119964701Y-108634065D01*
X119964699Y-108634070D01*
X119944416Y-108839999D01*
X119964699Y-109045929D01*
X119964699Y-109045931D01*
X119964700Y-109045934D01*
X120005574Y-109180679D01*
X120024769Y-109243956D01*
X120122314Y-109426449D01*
X120253589Y-109586410D01*
X120411024Y-109715612D01*
X120413550Y-109717685D01*
X120596046Y-109815232D01*
X120794066Y-109875300D01*
X121000000Y-109895583D01*
X121205934Y-109875300D01*
X121403954Y-109815232D01*
X121586450Y-109717685D01*
X121746410Y-109586410D01*
X121877685Y-109426450D01*
X121975232Y-109243954D01*
X122035300Y-109045934D01*
X122055583Y-108840000D01*
X122054821Y-108832268D01*
X122035300Y-108634065D01*
X121996017Y-108504566D01*
X121994367Y-108437374D01*
X122027494Y-108378897D01*
X123084405Y-107321986D01*
X123134564Y-107291249D01*
X123193211Y-107286633D01*
X123247561Y-107309146D01*
X123285767Y-107353879D01*
X123299500Y-107411082D01*
X123299500Y-108461917D01*
X123289909Y-108510135D01*
X123262597Y-108551009D01*
X121907138Y-109906468D01*
X121461103Y-110352503D01*
X121402624Y-110385631D01*
X121335433Y-110383982D01*
X121205931Y-110344699D01*
X121000000Y-110324416D01*
X120794070Y-110344699D01*
X120794067Y-110344699D01*
X120794066Y-110344700D01*
X120641015Y-110391127D01*
X120596043Y-110404769D01*
X120413550Y-110502314D01*
X120253589Y-110633589D01*
X120122314Y-110793550D01*
X120024769Y-110976043D01*
X120024768Y-110976045D01*
X120024768Y-110976046D01*
X119964701Y-111174065D01*
X119964699Y-111174070D01*
X119944416Y-111380000D01*
X119964699Y-111585929D01*
X119964699Y-111585931D01*
X119964700Y-111585934D01*
X120024768Y-111783954D01*
X120024769Y-111783956D01*
X120122314Y-111966449D01*
X120253589Y-112126410D01*
X120343259Y-112199999D01*
X120413550Y-112257685D01*
X120596046Y-112355232D01*
X120794066Y-112415300D01*
X121000000Y-112435583D01*
X121205934Y-112415300D01*
X121403954Y-112355232D01*
X121586450Y-112257685D01*
X121746410Y-112126410D01*
X121877685Y-111966450D01*
X121975232Y-111783954D01*
X122035300Y-111585934D01*
X122055583Y-111380000D01*
X122048253Y-111305581D01*
X122035300Y-111174065D01*
X121996017Y-111044566D01*
X121994367Y-110977374D01*
X122027493Y-110918898D01*
X124005484Y-108940909D01*
X124005484Y-108940908D01*
X124019943Y-108926450D01*
X124019944Y-108926451D01*
X124019949Y-108926442D01*
X124028050Y-108918342D01*
X124038038Y-108898738D01*
X124048363Y-108881888D01*
X124061296Y-108864089D01*
X124068094Y-108843164D01*
X124075659Y-108824903D01*
X124085646Y-108805304D01*
X124089087Y-108783574D01*
X124093701Y-108764354D01*
X124100500Y-108743433D01*
X124100500Y-108616567D01*
X124100500Y-101999999D01*
X128994435Y-101999999D01*
X129014632Y-102179257D01*
X129074210Y-102349521D01*
X129170184Y-102502263D01*
X129297736Y-102629815D01*
X129297738Y-102629816D01*
X129450478Y-102725789D01*
X129620745Y-102785368D01*
X129800000Y-102805565D01*
X129979255Y-102785368D01*
X130102702Y-102742171D01*
X130169589Y-102737662D01*
X130229323Y-102768098D01*
X130264991Y-102824863D01*
X130266496Y-102891888D01*
X130233411Y-102950195D01*
X129894516Y-103289091D01*
X129894513Y-103289094D01*
X129883231Y-103300376D01*
X129871948Y-103311659D01*
X129861963Y-103331256D01*
X129851639Y-103348104D01*
X129838702Y-103365911D01*
X129831904Y-103386834D01*
X129824340Y-103405096D01*
X129814354Y-103424695D01*
X129810912Y-103446424D01*
X129806298Y-103465642D01*
X129799500Y-103486566D01*
X129799500Y-108963434D01*
X129806298Y-108984358D01*
X129810912Y-109003577D01*
X129814354Y-109025306D01*
X129824340Y-109044905D01*
X129831906Y-109063170D01*
X129838703Y-109084089D01*
X129851631Y-109101883D01*
X129861960Y-109118738D01*
X129871948Y-109138339D01*
X129871950Y-109138342D01*
X129888183Y-109154575D01*
X129888190Y-109154583D01*
X129894515Y-109160908D01*
X129894516Y-109160909D01*
X130972439Y-110238831D01*
X131062147Y-110328539D01*
X131081745Y-110338524D01*
X131098603Y-110348855D01*
X131116399Y-110361785D01*
X131137316Y-110368581D01*
X131155582Y-110376147D01*
X131175182Y-110386134D01*
X131175183Y-110386134D01*
X131175185Y-110386135D01*
X131196919Y-110389576D01*
X131216131Y-110394188D01*
X131237056Y-110400988D01*
X131258536Y-110400988D01*
X131258548Y-110400989D01*
X131268970Y-110400989D01*
X137355309Y-110400989D01*
X137416011Y-110416575D01*
X137461696Y-110459477D01*
X137481061Y-110519081D01*
X137469315Y-110580642D01*
X137429365Y-110628929D01*
X137398104Y-110651639D01*
X137381256Y-110661963D01*
X137361659Y-110671948D01*
X137350376Y-110683231D01*
X137339096Y-110694511D01*
X137339091Y-110694516D01*
X136757857Y-111275748D01*
X136710377Y-111305581D01*
X136654655Y-111311860D01*
X136500000Y-111294435D01*
X136320742Y-111314632D01*
X136150478Y-111374210D01*
X135997736Y-111470184D01*
X135870184Y-111597736D01*
X135774210Y-111750478D01*
X135714632Y-111920742D01*
X135694435Y-112100000D01*
X135714632Y-112279257D01*
X135774210Y-112449521D01*
X135870184Y-112602263D01*
X135997736Y-112729815D01*
X136150478Y-112825789D01*
X136161986Y-112829816D01*
X136320745Y-112885368D01*
X136500000Y-112905565D01*
X136679255Y-112885368D01*
X136849522Y-112825789D01*
X137002262Y-112729816D01*
X137129816Y-112602262D01*
X137193313Y-112501206D01*
X137239051Y-112457965D01*
X137300000Y-112442243D01*
X137360949Y-112457965D01*
X137406686Y-112501206D01*
X137427947Y-112535043D01*
X137470185Y-112602264D01*
X137597736Y-112729815D01*
X137750478Y-112825789D01*
X137761986Y-112829816D01*
X137920745Y-112885368D01*
X138100000Y-112905565D01*
X138279255Y-112885368D01*
X138449522Y-112825789D01*
X138602262Y-112729816D01*
X138729816Y-112602262D01*
X138756707Y-112559464D01*
X138802446Y-112516222D01*
X138863395Y-112500500D01*
X154436605Y-112500500D01*
X154497554Y-112516222D01*
X154543292Y-112559464D01*
X154570184Y-112602263D01*
X154697736Y-112729815D01*
X154850478Y-112825789D01*
X154861986Y-112829816D01*
X155020745Y-112885368D01*
X155200000Y-112905565D01*
X155379255Y-112885368D01*
X155549522Y-112825789D01*
X155702262Y-112729816D01*
X155829816Y-112602262D01*
X155856707Y-112559464D01*
X155902446Y-112516222D01*
X155963395Y-112500500D01*
X173736605Y-112500500D01*
X173797554Y-112516222D01*
X173843292Y-112559464D01*
X173870184Y-112602263D01*
X173997736Y-112729815D01*
X174150478Y-112825789D01*
X174161986Y-112829816D01*
X174320745Y-112885368D01*
X174500000Y-112905565D01*
X174679255Y-112885368D01*
X174849522Y-112825789D01*
X175002262Y-112729816D01*
X175129816Y-112602262D01*
X175225789Y-112449522D01*
X175285368Y-112279255D01*
X175305565Y-112100000D01*
X175285368Y-111920745D01*
X175225789Y-111750478D01*
X175190316Y-111694024D01*
X175171054Y-111630523D01*
X175186726Y-111566040D01*
X175232987Y-111518464D01*
X175297004Y-111500989D01*
X176882405Y-111500989D01*
X176930623Y-111510580D01*
X176971500Y-111537894D01*
X177375747Y-111942141D01*
X177405581Y-111989620D01*
X177411860Y-112045343D01*
X177394435Y-112199999D01*
X177414632Y-112379257D01*
X177474210Y-112549521D01*
X177570184Y-112702263D01*
X177697736Y-112829815D01*
X177752805Y-112864417D01*
X177850478Y-112925789D01*
X178020745Y-112985368D01*
X178200000Y-113005565D01*
X178379255Y-112985368D01*
X178549522Y-112925789D01*
X178702262Y-112829816D01*
X178829816Y-112702262D01*
X178925789Y-112549522D01*
X178985368Y-112379255D01*
X179005565Y-112200000D01*
X178985368Y-112020745D01*
X178950376Y-111920745D01*
X178925789Y-111850478D01*
X178829815Y-111697736D01*
X178702263Y-111570184D01*
X178549521Y-111474210D01*
X178379257Y-111414632D01*
X178253829Y-111400500D01*
X178200000Y-111394435D01*
X178199999Y-111394435D01*
X178045343Y-111411860D01*
X177989620Y-111405581D01*
X177942141Y-111375747D01*
X177355079Y-110788685D01*
X177355064Y-110788672D01*
X177338831Y-110772439D01*
X177338828Y-110772437D01*
X177319227Y-110762449D01*
X177302372Y-110752120D01*
X177284578Y-110739192D01*
X177263659Y-110732395D01*
X177245394Y-110724829D01*
X177225795Y-110714843D01*
X177204066Y-110711401D01*
X177184847Y-110706787D01*
X177163923Y-110699989D01*
X177163922Y-110699989D01*
X177132008Y-110699989D01*
X173963424Y-110699989D01*
X173836558Y-110699989D01*
X173822384Y-110704594D01*
X173815631Y-110706788D01*
X173796415Y-110711401D01*
X173774686Y-110714843D01*
X173755082Y-110724831D01*
X173736828Y-110732392D01*
X173715900Y-110739192D01*
X173698099Y-110752125D01*
X173681253Y-110762449D01*
X173661650Y-110772438D01*
X173661649Y-110772438D01*
X173661649Y-110772439D01*
X173639087Y-110795000D01*
X173371012Y-111063075D01*
X173330135Y-111090389D01*
X173281917Y-111099980D01*
X170047011Y-111099980D01*
X169982994Y-111082505D01*
X169936733Y-111034929D01*
X169921061Y-110970446D01*
X169940324Y-110906944D01*
X169944373Y-110900500D01*
X169975789Y-110850502D01*
X170035368Y-110680235D01*
X170055565Y-110500980D01*
X170035368Y-110321725D01*
X169975789Y-110151458D01*
X169879816Y-109998718D01*
X169879815Y-109998716D01*
X169752263Y-109871164D01*
X169661073Y-109813866D01*
X169617154Y-109766887D01*
X169602141Y-109704352D01*
X169619944Y-109642554D01*
X169665927Y-109597592D01*
X169728109Y-109581179D01*
X180882752Y-109581179D01*
X180882754Y-109581179D01*
X180903681Y-109574379D01*
X180922897Y-109569766D01*
X180944625Y-109566325D01*
X180964227Y-109556336D01*
X180982484Y-109548773D01*
X181003411Y-109541975D01*
X181021212Y-109529041D01*
X181038059Y-109518717D01*
X181057663Y-109508729D01*
X181065763Y-109500628D01*
X181065772Y-109500623D01*
X181065771Y-109500622D01*
X181385716Y-109180677D01*
X183742143Y-106824247D01*
X183789619Y-106794417D01*
X183845335Y-106788138D01*
X184000000Y-106805565D01*
X184179255Y-106785368D01*
X184349522Y-106725789D01*
X184502262Y-106629816D01*
X184629816Y-106502262D01*
X184725789Y-106349522D01*
X184785368Y-106179255D01*
X184805565Y-106000000D01*
X184785368Y-105820745D01*
X184743110Y-105699980D01*
X184725789Y-105650478D01*
X184629815Y-105497736D01*
X184502263Y-105370184D01*
X184349521Y-105274210D01*
X184179257Y-105214632D01*
X184089627Y-105204533D01*
X184000000Y-105194435D01*
X183999998Y-105194435D01*
X183998767Y-105194573D01*
X183997888Y-105194672D01*
X183942167Y-105188394D01*
X183894687Y-105158560D01*
X183864854Y-105111080D01*
X183858575Y-105055360D01*
X183869347Y-104959758D01*
X183849150Y-104780503D01*
X183789571Y-104610236D01*
X183727625Y-104511650D01*
X183693597Y-104457494D01*
X183566045Y-104329942D01*
X183413303Y-104233968D01*
X183243039Y-104174390D01*
X183113022Y-104159741D01*
X183063782Y-104154193D01*
X183063781Y-104154193D01*
X183031529Y-104157826D01*
X182958796Y-104166021D01*
X182903070Y-104159741D01*
X182855587Y-104129901D01*
X182825756Y-104082413D01*
X182822036Y-104049349D01*
X182820087Y-104049569D01*
X182818498Y-104035462D01*
X182798301Y-103856207D01*
X182795961Y-103849521D01*
X182738722Y-103685940D01*
X182642748Y-103533198D01*
X182515196Y-103405646D01*
X182362454Y-103309672D01*
X182192190Y-103250094D01*
X182012933Y-103229897D01*
X181833675Y-103250094D01*
X181663411Y-103309672D01*
X181510669Y-103405646D01*
X181383117Y-103533198D01*
X181287143Y-103685940D01*
X181227565Y-103856204D01*
X181207368Y-104035461D01*
X181207368Y-104035462D01*
X181212414Y-104080249D01*
X181227565Y-104214719D01*
X181287143Y-104384983D01*
X181383117Y-104537725D01*
X181510669Y-104665277D01*
X181553469Y-104692170D01*
X181596711Y-104737908D01*
X181612433Y-104798857D01*
X181612433Y-106073284D01*
X181602842Y-106121502D01*
X181575528Y-106162379D01*
X180193673Y-107544234D01*
X180152796Y-107571548D01*
X180104578Y-107581139D01*
X161847572Y-107581139D01*
X161799354Y-107571548D01*
X161758479Y-107544236D01*
X161064107Y-106849864D01*
X161064106Y-106849863D01*
X161057781Y-106843538D01*
X161057773Y-106843531D01*
X161041540Y-106827298D01*
X161041537Y-106827296D01*
X161021936Y-106817308D01*
X161005081Y-106806979D01*
X160987287Y-106794051D01*
X160966368Y-106787254D01*
X160948103Y-106779688D01*
X160928504Y-106769702D01*
X160906775Y-106766260D01*
X160887556Y-106761646D01*
X160866632Y-106754848D01*
X160866631Y-106754848D01*
X160834717Y-106754848D01*
X159261070Y-106754848D01*
X159200121Y-106739126D01*
X159154384Y-106695886D01*
X159133720Y-106662999D01*
X159133717Y-106662996D01*
X159133716Y-106662994D01*
X159006167Y-106535445D01*
X158853425Y-106439471D01*
X158683161Y-106379893D01*
X158503904Y-106359696D01*
X158324646Y-106379893D01*
X158154382Y-106439471D01*
X158001640Y-106535445D01*
X157874088Y-106662997D01*
X157778114Y-106815739D01*
X157718536Y-106986003D01*
X157698339Y-107165260D01*
X157718536Y-107344518D01*
X157778114Y-107514782D01*
X157874088Y-107667524D01*
X158001640Y-107795076D01*
X158117883Y-107868116D01*
X158154382Y-107891050D01*
X158324649Y-107950629D01*
X158503904Y-107970826D01*
X158554302Y-107965147D01*
X158610021Y-107971425D01*
X158657502Y-108001259D01*
X158687336Y-108048739D01*
X158693615Y-108104461D01*
X158687937Y-108154857D01*
X158708134Y-108334116D01*
X158767712Y-108504380D01*
X158863686Y-108657122D01*
X158991238Y-108784674D01*
X159143980Y-108880648D01*
X159274874Y-108926450D01*
X159314247Y-108940227D01*
X159493502Y-108960424D01*
X159509950Y-108958570D01*
X159565668Y-108964848D01*
X159613149Y-108994681D01*
X159642984Y-109042161D01*
X159649263Y-109097884D01*
X159639935Y-109180677D01*
X159660132Y-109359936D01*
X159719710Y-109530200D01*
X159815684Y-109682942D01*
X159943233Y-109810491D01*
X159943235Y-109810492D01*
X159943238Y-109810495D01*
X160032870Y-109866815D01*
X160076787Y-109913792D01*
X160091800Y-109976327D01*
X160073997Y-110038125D01*
X160028014Y-110083087D01*
X159965832Y-110099500D01*
X156565453Y-110099500D01*
X156517235Y-110089909D01*
X156476357Y-110062595D01*
X156309345Y-109895583D01*
X156108768Y-109695005D01*
X156108767Y-109695004D01*
X156102442Y-109688679D01*
X156102434Y-109688672D01*
X156086201Y-109672439D01*
X156086198Y-109672437D01*
X156066597Y-109662449D01*
X156049742Y-109652120D01*
X156031948Y-109639192D01*
X156011029Y-109632395D01*
X155992764Y-109624829D01*
X155973165Y-109614843D01*
X155951436Y-109611401D01*
X155932217Y-109606787D01*
X155911293Y-109599989D01*
X155911292Y-109599989D01*
X155879378Y-109599989D01*
X131518572Y-109599989D01*
X131470354Y-109590398D01*
X131429476Y-109563084D01*
X130637404Y-108771011D01*
X130610091Y-108730134D01*
X130600500Y-108681916D01*
X130600500Y-105307499D01*
X131187433Y-105307499D01*
X131207630Y-105486756D01*
X131267208Y-105657020D01*
X131363182Y-105809762D01*
X131475671Y-105922251D01*
X131508283Y-105978735D01*
X131508283Y-106043957D01*
X131475672Y-106100441D01*
X131371398Y-106204715D01*
X131275425Y-106357455D01*
X131215847Y-106527719D01*
X131195650Y-106706977D01*
X131215847Y-106886234D01*
X131275425Y-107056498D01*
X131371399Y-107209240D01*
X131479014Y-107316855D01*
X131511626Y-107373339D01*
X131511626Y-107438561D01*
X131479014Y-107495045D01*
X131369843Y-107604215D01*
X131273869Y-107756957D01*
X131214291Y-107927221D01*
X131194094Y-108106479D01*
X131214291Y-108285736D01*
X131273869Y-108456000D01*
X131369843Y-108608742D01*
X131497395Y-108736294D01*
X131574393Y-108784675D01*
X131650137Y-108832268D01*
X131820404Y-108891847D01*
X131999659Y-108912044D01*
X132178914Y-108891847D01*
X132349181Y-108832268D01*
X132501921Y-108736295D01*
X132629475Y-108608741D01*
X132656366Y-108565943D01*
X132702105Y-108522701D01*
X132763054Y-108506979D01*
X133456952Y-108506979D01*
X133456954Y-108506979D01*
X133477881Y-108500179D01*
X133497097Y-108495566D01*
X133518825Y-108492125D01*
X133538427Y-108482136D01*
X133556684Y-108474573D01*
X133577611Y-108467775D01*
X133595412Y-108454841D01*
X133612259Y-108444517D01*
X133631863Y-108434529D01*
X133639963Y-108426428D01*
X133639972Y-108426423D01*
X133639971Y-108426422D01*
X134329467Y-107736925D01*
X134370345Y-107709611D01*
X134418563Y-107700020D01*
X137163711Y-107700020D01*
X137220914Y-107713753D01*
X137265647Y-107751959D01*
X137288160Y-107806309D01*
X137283544Y-107864956D01*
X137252806Y-107915115D01*
X137170184Y-107997736D01*
X137074210Y-108150478D01*
X137014632Y-108320742D01*
X136999392Y-108456001D01*
X136994435Y-108500000D01*
X136996993Y-108522701D01*
X137014632Y-108679257D01*
X137074210Y-108849521D01*
X137170184Y-109002263D01*
X137297736Y-109129815D01*
X137337154Y-109154583D01*
X137450478Y-109225789D01*
X137620745Y-109285368D01*
X137800000Y-109305565D01*
X137979255Y-109285368D01*
X138149522Y-109225789D01*
X138302262Y-109129816D01*
X138429816Y-109002262D01*
X138525789Y-108849522D01*
X138585368Y-108679255D01*
X138605565Y-108500000D01*
X138585368Y-108320745D01*
X138543117Y-108200000D01*
X138525789Y-108150478D01*
X138429815Y-107997736D01*
X138347194Y-107915115D01*
X138316456Y-107864956D01*
X138311840Y-107806309D01*
X138334353Y-107751959D01*
X138379086Y-107713753D01*
X138436289Y-107700020D01*
X143115130Y-107700020D01*
X143118160Y-107700500D01*
X143649111Y-107700500D01*
X143706943Y-107714556D01*
X143751872Y-107753588D01*
X143773874Y-107808887D01*
X143768040Y-107868112D01*
X143743871Y-107937185D01*
X143714632Y-108020744D01*
X143694435Y-108200000D01*
X143714632Y-108379257D01*
X143774210Y-108549521D01*
X143870184Y-108702263D01*
X143997736Y-108829815D01*
X144150478Y-108925789D01*
X144317858Y-108984358D01*
X144320745Y-108985368D01*
X144500000Y-109005565D01*
X144679255Y-108985368D01*
X144849522Y-108925789D01*
X145002262Y-108829816D01*
X145129816Y-108702262D01*
X145225789Y-108549522D01*
X145243117Y-108500000D01*
X154094435Y-108500000D01*
X154096993Y-108522701D01*
X154114632Y-108679257D01*
X154174210Y-108849521D01*
X154270184Y-109002263D01*
X154397736Y-109129815D01*
X154437154Y-109154583D01*
X154550478Y-109225789D01*
X154720745Y-109285368D01*
X154900000Y-109305565D01*
X155079255Y-109285368D01*
X155249522Y-109225789D01*
X155402262Y-109129816D01*
X155529816Y-109002262D01*
X155625789Y-108849522D01*
X155685368Y-108679255D01*
X155705565Y-108500000D01*
X155685368Y-108320745D01*
X155643117Y-108200000D01*
X155625789Y-108150478D01*
X155529815Y-107997736D01*
X155402263Y-107870184D01*
X155249521Y-107774210D01*
X155079257Y-107714632D01*
X154929315Y-107697738D01*
X154900000Y-107694435D01*
X154899999Y-107694435D01*
X154720742Y-107714632D01*
X154550478Y-107774210D01*
X154397736Y-107870184D01*
X154270184Y-107997736D01*
X154174210Y-108150478D01*
X154114632Y-108320742D01*
X154099392Y-108456001D01*
X154094435Y-108500000D01*
X145243117Y-108500000D01*
X145285368Y-108379255D01*
X145305565Y-108200000D01*
X145288138Y-108045336D01*
X145294417Y-107989620D01*
X145324249Y-107942142D01*
X148528987Y-104737405D01*
X148569865Y-104710091D01*
X148618083Y-104700500D01*
X168263431Y-104700500D01*
X168263433Y-104700500D01*
X168284360Y-104693700D01*
X168303576Y-104689087D01*
X168325304Y-104685646D01*
X168344906Y-104675657D01*
X168363163Y-104668094D01*
X168384090Y-104661296D01*
X168401891Y-104648362D01*
X168418738Y-104638038D01*
X168438342Y-104628050D01*
X168446442Y-104619949D01*
X168446451Y-104619944D01*
X168446450Y-104619943D01*
X168951760Y-104114632D01*
X169142139Y-103924251D01*
X169189620Y-103894418D01*
X169245340Y-103888139D01*
X169400000Y-103905565D01*
X169579255Y-103885368D01*
X169749522Y-103825789D01*
X169902262Y-103729816D01*
X170029816Y-103602262D01*
X170125789Y-103449522D01*
X170185368Y-103279255D01*
X170205565Y-103100000D01*
X170185368Y-102920745D01*
X170175270Y-102891888D01*
X170125789Y-102750478D01*
X170029815Y-102597736D01*
X169902263Y-102470184D01*
X169749521Y-102374210D01*
X169579257Y-102314632D01*
X169400000Y-102294435D01*
X169220742Y-102314632D01*
X169050478Y-102374210D01*
X168897738Y-102470183D01*
X168834290Y-102533631D01*
X168786809Y-102563465D01*
X168731087Y-102569743D01*
X168678158Y-102551222D01*
X168638509Y-102511573D01*
X168629816Y-102497738D01*
X168629813Y-102497735D01*
X168629812Y-102497733D01*
X168502263Y-102370184D01*
X168349521Y-102274210D01*
X168179257Y-102214632D01*
X168029297Y-102197736D01*
X168000000Y-102194435D01*
X167999999Y-102194435D01*
X167820742Y-102214632D01*
X167650478Y-102274210D01*
X167497736Y-102370184D01*
X167370184Y-102497736D01*
X167274210Y-102650478D01*
X167214632Y-102820742D01*
X167194435Y-103000000D01*
X167211860Y-103154657D01*
X167205583Y-103210373D01*
X167175757Y-103257850D01*
X167171018Y-103262588D01*
X167130141Y-103289906D01*
X167081917Y-103299500D01*
X157244019Y-103299500D01*
X157183319Y-103283915D01*
X157137635Y-103241016D01*
X157118268Y-103181414D01*
X157130009Y-103119855D01*
X157169955Y-103071566D01*
X157184088Y-103061296D01*
X157184090Y-103061296D01*
X157201891Y-103048362D01*
X157218738Y-103038038D01*
X157238342Y-103028050D01*
X157246442Y-103019949D01*
X157246451Y-103019944D01*
X157246450Y-103019943D01*
X157387138Y-102879255D01*
X157542140Y-102724251D01*
X157589621Y-102694418D01*
X157645340Y-102688139D01*
X157800000Y-102705565D01*
X157979255Y-102685368D01*
X158149522Y-102625789D01*
X158302262Y-102529816D01*
X158429816Y-102402262D01*
X158525789Y-102249522D01*
X158585368Y-102079255D01*
X158605565Y-101900000D01*
X158585368Y-101720745D01*
X158525789Y-101550478D01*
X158429816Y-101397738D01*
X158429815Y-101397736D01*
X158302263Y-101270184D01*
X158149521Y-101174210D01*
X157979257Y-101114632D01*
X157800000Y-101094435D01*
X157620742Y-101114632D01*
X157450478Y-101174210D01*
X157297736Y-101270184D01*
X157170184Y-101397736D01*
X157074210Y-101550478D01*
X157014632Y-101720742D01*
X156994435Y-101900000D01*
X157011860Y-102054655D01*
X157005581Y-102110377D01*
X156975748Y-102157857D01*
X156871012Y-102262595D01*
X156830135Y-102289909D01*
X156781916Y-102299500D01*
X146563395Y-102299500D01*
X146502446Y-102283778D01*
X146456708Y-102240536D01*
X146429815Y-102197736D01*
X146302263Y-102070184D01*
X146149521Y-101974210D01*
X145979257Y-101914632D01*
X145800000Y-101894435D01*
X145620742Y-101914632D01*
X145450478Y-101974210D01*
X145297736Y-102070184D01*
X145170184Y-102197736D01*
X145074210Y-102350478D01*
X145014632Y-102520742D01*
X144994435Y-102700000D01*
X145014632Y-102879257D01*
X145074210Y-103049521D01*
X145170184Y-103202263D01*
X145297736Y-103329815D01*
X145450478Y-103425789D01*
X145537430Y-103456215D01*
X145620745Y-103485368D01*
X145800000Y-103505565D01*
X145979255Y-103485368D01*
X146149522Y-103425789D01*
X146302262Y-103329816D01*
X146429816Y-103202262D01*
X146456707Y-103159464D01*
X146502446Y-103116222D01*
X146563395Y-103100500D01*
X147907454Y-103100500D01*
X147968156Y-103116086D01*
X148013841Y-103158988D01*
X148033206Y-103218592D01*
X148021460Y-103280153D01*
X147981510Y-103328440D01*
X147949576Y-103351639D01*
X147932728Y-103361963D01*
X147913131Y-103371948D01*
X147901848Y-103383231D01*
X147890568Y-103394511D01*
X146122015Y-105163064D01*
X146081138Y-105190378D01*
X146032920Y-105199969D01*
X143805857Y-105199969D01*
X143678991Y-105199969D01*
X143664817Y-105204574D01*
X143658064Y-105206768D01*
X143638848Y-105211381D01*
X143617119Y-105214823D01*
X143597515Y-105224811D01*
X143579261Y-105232372D01*
X143558333Y-105239172D01*
X143540532Y-105252105D01*
X143523686Y-105262429D01*
X143504083Y-105272418D01*
X143504082Y-105272419D01*
X143481520Y-105294980D01*
X143481515Y-105294985D01*
X143418455Y-105358044D01*
X143357397Y-105391789D01*
X143287744Y-105387877D01*
X143230849Y-105347507D01*
X143204153Y-105283057D01*
X143185865Y-105120745D01*
X143126286Y-104950478D01*
X143035024Y-104805235D01*
X143030312Y-104797736D01*
X142902760Y-104670184D01*
X142750018Y-104574210D01*
X142579754Y-104514632D01*
X142400497Y-104494435D01*
X142221239Y-104514632D01*
X142050976Y-104574210D01*
X141924987Y-104653374D01*
X141872059Y-104671894D01*
X141816336Y-104665615D01*
X141768856Y-104635781D01*
X141739025Y-104588305D01*
X141725789Y-104550478D01*
X141690575Y-104494435D01*
X141629815Y-104397736D01*
X141502263Y-104270184D01*
X141349521Y-104174210D01*
X141179257Y-104114632D01*
X141000000Y-104094435D01*
X140820742Y-104114632D01*
X140650478Y-104174210D01*
X140497736Y-104270184D01*
X140370184Y-104397736D01*
X140274210Y-104550478D01*
X140214632Y-104720742D01*
X140212755Y-104737405D01*
X140194435Y-104900000D01*
X140201235Y-104960355D01*
X140189550Y-105029129D01*
X140143064Y-105081147D01*
X140076028Y-105100460D01*
X134819043Y-105100460D01*
X134770825Y-105090869D01*
X134729948Y-105063555D01*
X133255584Y-103589190D01*
X133255569Y-103589177D01*
X133239336Y-103572944D01*
X133239333Y-103572942D01*
X133219732Y-103562954D01*
X133202877Y-103552625D01*
X133185083Y-103539697D01*
X133164164Y-103532900D01*
X133145899Y-103525334D01*
X133126300Y-103515348D01*
X133104571Y-103511906D01*
X133085352Y-103507292D01*
X133064428Y-103500494D01*
X133064427Y-103500494D01*
X133032513Y-103500494D01*
X132763395Y-103500494D01*
X132702446Y-103484772D01*
X132656708Y-103441530D01*
X132629815Y-103398730D01*
X132502263Y-103271178D01*
X132349521Y-103175204D01*
X132179257Y-103115626D01*
X132000000Y-103095429D01*
X131820742Y-103115626D01*
X131650478Y-103175204D01*
X131497736Y-103271178D01*
X131370184Y-103398730D01*
X131274210Y-103551472D01*
X131214632Y-103721736D01*
X131194435Y-103900993D01*
X131214632Y-104080251D01*
X131274210Y-104250515D01*
X131370184Y-104403257D01*
X131478577Y-104511650D01*
X131511189Y-104568134D01*
X131511189Y-104633356D01*
X131478578Y-104689840D01*
X131363181Y-104805237D01*
X131267208Y-104957977D01*
X131207630Y-105128241D01*
X131187433Y-105307499D01*
X130600500Y-105307499D01*
X130600500Y-103768083D01*
X130610091Y-103719865D01*
X130637405Y-103678988D01*
X134719943Y-99596451D01*
X134719948Y-99596443D01*
X134728050Y-99588342D01*
X134738038Y-99568738D01*
X134748362Y-99551891D01*
X134761296Y-99534090D01*
X134768094Y-99513163D01*
X134775657Y-99494906D01*
X134785646Y-99475304D01*
X134789087Y-99453576D01*
X134793700Y-99434360D01*
X134800500Y-99413433D01*
X134800500Y-99286567D01*
X134800500Y-99263395D01*
X134816222Y-99202446D01*
X134859464Y-99156708D01*
X134888265Y-99138611D01*
X134902262Y-99129816D01*
X135029816Y-99002262D01*
X135094072Y-98899999D01*
X145294435Y-98899999D01*
X145314632Y-99079257D01*
X145374210Y-99249521D01*
X145470184Y-99402263D01*
X145597736Y-99529815D01*
X145703771Y-99596441D01*
X145750478Y-99625789D01*
X145920745Y-99685368D01*
X146100000Y-99705565D01*
X146279255Y-99685368D01*
X146449522Y-99625789D01*
X146602262Y-99529816D01*
X146729816Y-99402262D01*
X146756707Y-99359464D01*
X146802446Y-99316222D01*
X146863395Y-99300500D01*
X167136605Y-99300500D01*
X167197554Y-99316222D01*
X167243292Y-99359464D01*
X167270184Y-99402263D01*
X167397736Y-99529815D01*
X167503771Y-99596441D01*
X167550478Y-99625789D01*
X167720745Y-99685368D01*
X167900000Y-99705565D01*
X168079255Y-99685368D01*
X168249522Y-99625789D01*
X168402262Y-99529816D01*
X168529816Y-99402262D01*
X168625789Y-99249522D01*
X168685368Y-99079255D01*
X168705565Y-98900000D01*
X168685368Y-98720745D01*
X168625789Y-98550478D01*
X168556708Y-98440536D01*
X168529815Y-98397736D01*
X168402263Y-98270184D01*
X168249521Y-98174210D01*
X168079257Y-98114632D01*
X167900000Y-98094435D01*
X167720742Y-98114632D01*
X167550478Y-98174210D01*
X167397736Y-98270184D01*
X167270184Y-98397736D01*
X167243292Y-98440536D01*
X167197554Y-98483778D01*
X167136605Y-98499500D01*
X149871084Y-98499500D01*
X149813881Y-98485767D01*
X149769148Y-98447561D01*
X149746635Y-98393211D01*
X149751251Y-98334564D01*
X149781989Y-98284405D01*
X152729488Y-95336905D01*
X152770365Y-95309591D01*
X152818583Y-95300000D01*
X156230669Y-95300000D01*
X156291618Y-95315722D01*
X156337356Y-95358964D01*
X156364248Y-95401763D01*
X156491800Y-95529315D01*
X156607895Y-95602262D01*
X156644542Y-95625289D01*
X156814809Y-95684868D01*
X156994064Y-95705065D01*
X157173319Y-95684868D01*
X157343586Y-95625289D01*
X157496326Y-95529316D01*
X157623880Y-95401762D01*
X157719853Y-95249022D01*
X157779432Y-95078755D01*
X157799629Y-94899500D01*
X157779432Y-94720245D01*
X157778675Y-94718083D01*
X157719853Y-94549978D01*
X157684388Y-94493536D01*
X157665125Y-94430034D01*
X157680797Y-94365551D01*
X157727058Y-94317975D01*
X157791075Y-94300500D01*
X166381917Y-94300500D01*
X166430135Y-94310091D01*
X166471012Y-94337405D01*
X166622733Y-94489126D01*
X166652567Y-94536606D01*
X166658846Y-94592328D01*
X166640326Y-94645256D01*
X166574210Y-94750479D01*
X166514632Y-94920742D01*
X166494435Y-95100000D01*
X166514632Y-95279257D01*
X166574210Y-95449521D01*
X166670184Y-95602263D01*
X166797736Y-95729815D01*
X166950478Y-95825789D01*
X166961986Y-95829816D01*
X167120745Y-95885368D01*
X167300000Y-95905565D01*
X167479255Y-95885368D01*
X167649522Y-95825789D01*
X167802262Y-95729816D01*
X167929816Y-95602262D01*
X168025789Y-95449522D01*
X168085368Y-95279255D01*
X168105565Y-95100000D01*
X168085368Y-94920745D01*
X168025789Y-94750478D01*
X167991157Y-94695361D01*
X167929815Y-94597736D01*
X167802263Y-94470184D01*
X167637543Y-94366683D01*
X167615484Y-94349092D01*
X167582302Y-94315910D01*
X167538342Y-94271950D01*
X167371956Y-94105564D01*
X167181988Y-93915595D01*
X167151251Y-93865436D01*
X167146635Y-93806789D01*
X167169148Y-93752439D01*
X167213881Y-93714233D01*
X167271084Y-93700500D01*
X179836605Y-93700500D01*
X179897554Y-93716222D01*
X179943292Y-93759464D01*
X179970184Y-93802263D01*
X180097736Y-93929815D01*
X180097738Y-93929816D01*
X180250478Y-94025789D01*
X180420745Y-94085368D01*
X180600000Y-94105565D01*
X180779255Y-94085368D01*
X180949522Y-94025789D01*
X181102262Y-93929816D01*
X181229816Y-93802262D01*
X181325789Y-93649522D01*
X181385368Y-93479255D01*
X181405565Y-93300000D01*
X181385368Y-93120745D01*
X181325789Y-92950478D01*
X181300927Y-92910911D01*
X181229815Y-92797736D01*
X181102263Y-92670184D01*
X180949521Y-92574210D01*
X180779257Y-92514632D01*
X180600000Y-92494435D01*
X180420742Y-92514632D01*
X180250478Y-92574210D01*
X180097736Y-92670184D01*
X179970184Y-92797736D01*
X179943292Y-92840536D01*
X179897554Y-92883778D01*
X179836605Y-92899500D01*
X152458059Y-92899500D01*
X152458047Y-92899501D01*
X152436565Y-92899501D01*
X152415647Y-92906297D01*
X152396427Y-92910911D01*
X152374696Y-92914353D01*
X152355090Y-92924342D01*
X152336834Y-92931904D01*
X152315911Y-92938703D01*
X152298113Y-92951634D01*
X152281260Y-92961961D01*
X152261659Y-92971948D01*
X152221369Y-93012236D01*
X152221366Y-93012241D01*
X150271012Y-94962595D01*
X150230135Y-94989909D01*
X150181917Y-94999500D01*
X147963395Y-94999500D01*
X147902446Y-94983778D01*
X147856708Y-94940536D01*
X147829815Y-94897736D01*
X147702263Y-94770184D01*
X147549521Y-94674210D01*
X147379257Y-94614632D01*
X147200000Y-94594435D01*
X147020742Y-94614632D01*
X146850478Y-94674210D01*
X146697736Y-94770184D01*
X146570184Y-94897736D01*
X146474210Y-95050478D01*
X146414632Y-95220742D01*
X146396772Y-95379255D01*
X146394435Y-95400000D01*
X146400015Y-95449521D01*
X146414632Y-95579257D01*
X146474210Y-95749521D01*
X146570184Y-95902263D01*
X146697736Y-96029815D01*
X146850478Y-96125789D01*
X147025414Y-96187002D01*
X147077750Y-96221971D01*
X147106640Y-96277893D01*
X147104875Y-96340812D01*
X147072895Y-96395026D01*
X146970183Y-96497738D01*
X146874210Y-96650478D01*
X146812869Y-96825783D01*
X146777900Y-96878119D01*
X146721978Y-96907009D01*
X146659059Y-96905244D01*
X146604845Y-96873263D01*
X146602263Y-96870681D01*
X146449521Y-96774707D01*
X146279257Y-96715129D01*
X146100000Y-96694932D01*
X145920742Y-96715129D01*
X145750478Y-96774707D01*
X145597736Y-96870681D01*
X145470184Y-96998233D01*
X145374210Y-97150975D01*
X145314632Y-97321239D01*
X145294435Y-97500497D01*
X145314632Y-97679754D01*
X145374210Y-97850018D01*
X145470184Y-98002760D01*
X145578577Y-98111153D01*
X145611189Y-98167637D01*
X145611189Y-98232859D01*
X145578578Y-98289343D01*
X145470183Y-98397738D01*
X145374210Y-98550478D01*
X145314632Y-98720742D01*
X145294435Y-98899999D01*
X135094072Y-98899999D01*
X135125789Y-98849522D01*
X135185368Y-98679255D01*
X135205565Y-98500000D01*
X135185368Y-98320745D01*
X135125789Y-98150478D01*
X135029815Y-97997736D01*
X134902263Y-97870184D01*
X134749521Y-97774210D01*
X134579257Y-97714632D01*
X134400000Y-97694435D01*
X134220742Y-97714632D01*
X134050478Y-97774210D01*
X133897736Y-97870184D01*
X133770184Y-97997736D01*
X133674210Y-98150478D01*
X133614632Y-98320742D01*
X133594435Y-98499999D01*
X133614632Y-98679257D01*
X133674210Y-98849521D01*
X133770184Y-99002263D01*
X133886668Y-99118747D01*
X133919280Y-99175231D01*
X133919280Y-99240453D01*
X133886668Y-99296937D01*
X130750196Y-102433410D01*
X130691888Y-102466496D01*
X130624863Y-102464992D01*
X130568098Y-102429323D01*
X130537662Y-102369589D01*
X130542171Y-102302702D01*
X130585368Y-102179255D01*
X130605565Y-102000000D01*
X130585368Y-101820745D01*
X130550376Y-101720745D01*
X130525789Y-101650478D01*
X130429815Y-101497736D01*
X130302263Y-101370184D01*
X130149521Y-101274210D01*
X129979257Y-101214632D01*
X129800000Y-101194435D01*
X129620742Y-101214632D01*
X129450478Y-101274210D01*
X129297736Y-101370184D01*
X129170184Y-101497736D01*
X129074210Y-101650478D01*
X129014632Y-101820742D01*
X128994435Y-101999999D01*
X124100500Y-101999999D01*
X124100500Y-94808883D01*
X124119813Y-94741847D01*
X124171831Y-94695361D01*
X124240607Y-94683675D01*
X124305060Y-94710372D01*
X124345429Y-94767268D01*
X124374210Y-94849521D01*
X124470184Y-95002263D01*
X124597736Y-95129815D01*
X124709435Y-95200000D01*
X124750478Y-95225789D01*
X124920745Y-95285368D01*
X125100000Y-95305565D01*
X125279255Y-95285368D01*
X125449522Y-95225789D01*
X125602262Y-95129816D01*
X125710657Y-95021420D01*
X125767139Y-94988810D01*
X125832362Y-94988810D01*
X125888846Y-95021422D01*
X126004241Y-95136817D01*
X126156983Y-95232791D01*
X126307236Y-95285367D01*
X126327250Y-95292370D01*
X126506505Y-95312567D01*
X126685760Y-95292370D01*
X126856027Y-95232791D01*
X127008767Y-95136818D01*
X127136321Y-95009264D01*
X127232294Y-94856524D01*
X127291873Y-94686257D01*
X127312070Y-94507002D01*
X127294644Y-94352342D01*
X127300924Y-94296618D01*
X127330763Y-94249136D01*
X127337190Y-94242709D01*
X127337189Y-94242709D01*
X127542977Y-94036921D01*
X127583851Y-94009611D01*
X127632069Y-94000020D01*
X134881437Y-94000020D01*
X134929655Y-94009611D01*
X134970532Y-94036925D01*
X135562595Y-94628988D01*
X135589909Y-94669865D01*
X135599500Y-94718083D01*
X135599500Y-96036605D01*
X135583778Y-96097554D01*
X135540536Y-96143292D01*
X135497736Y-96170184D01*
X135370184Y-96297736D01*
X135274210Y-96450478D01*
X135214632Y-96620742D01*
X135194435Y-96799999D01*
X135214632Y-96979257D01*
X135274210Y-97149521D01*
X135370184Y-97302263D01*
X135497736Y-97429815D01*
X135610226Y-97500497D01*
X135650478Y-97525789D01*
X135820745Y-97585368D01*
X136000000Y-97605565D01*
X136179255Y-97585368D01*
X136349522Y-97525789D01*
X136502262Y-97429816D01*
X136629816Y-97302262D01*
X136656707Y-97259464D01*
X136702446Y-97216222D01*
X136763395Y-97200500D01*
X138736605Y-97200500D01*
X138797554Y-97216222D01*
X138843292Y-97259464D01*
X138870184Y-97302263D01*
X138997736Y-97429815D01*
X139110226Y-97500497D01*
X139150478Y-97525789D01*
X139320745Y-97585368D01*
X139500000Y-97605565D01*
X139679255Y-97585368D01*
X139849522Y-97525789D01*
X140002262Y-97429816D01*
X140129816Y-97302262D01*
X140225789Y-97149522D01*
X140285368Y-96979255D01*
X140305565Y-96800000D01*
X140285368Y-96620745D01*
X140225789Y-96450478D01*
X140129816Y-96297738D01*
X140129815Y-96297736D01*
X140002263Y-96170184D01*
X139849521Y-96074210D01*
X139679257Y-96014632D01*
X139500000Y-95994435D01*
X139320742Y-96014632D01*
X139150478Y-96074210D01*
X138997736Y-96170184D01*
X138870184Y-96297736D01*
X138843292Y-96340536D01*
X138797554Y-96383778D01*
X138736605Y-96399500D01*
X136763395Y-96399500D01*
X136702446Y-96383778D01*
X136656708Y-96340536D01*
X136629815Y-96297736D01*
X136502263Y-96170184D01*
X136459464Y-96143292D01*
X136416222Y-96097554D01*
X136400500Y-96036605D01*
X136400500Y-94471083D01*
X136414233Y-94413880D01*
X136452439Y-94369147D01*
X136506789Y-94346634D01*
X136565436Y-94351250D01*
X136615595Y-94381988D01*
X137175748Y-94942141D01*
X137205582Y-94989621D01*
X137211860Y-95045340D01*
X137202343Y-95129815D01*
X137194435Y-95200000D01*
X137214632Y-95379257D01*
X137274210Y-95549521D01*
X137370184Y-95702263D01*
X137497736Y-95829815D01*
X137497738Y-95829816D01*
X137650478Y-95925789D01*
X137820745Y-95985368D01*
X138000000Y-96005565D01*
X138179255Y-95985368D01*
X138349522Y-95925789D01*
X138502262Y-95829816D01*
X138629816Y-95702262D01*
X138725789Y-95549522D01*
X138785368Y-95379255D01*
X138805565Y-95200000D01*
X138785368Y-95020745D01*
X138774193Y-94988810D01*
X138725789Y-94850478D01*
X138629815Y-94697736D01*
X138502263Y-94570184D01*
X138349521Y-94474210D01*
X138179257Y-94414632D01*
X138000000Y-94394435D01*
X137845340Y-94411860D01*
X137789621Y-94405582D01*
X137742141Y-94375748D01*
X136054590Y-92688196D01*
X136054575Y-92688183D01*
X136038342Y-92671950D01*
X136038339Y-92671948D01*
X136018738Y-92661960D01*
X136001883Y-92651631D01*
X135984089Y-92638703D01*
X135963170Y-92631906D01*
X135944905Y-92624340D01*
X135925306Y-92614354D01*
X135903577Y-92610912D01*
X135884358Y-92606298D01*
X135863434Y-92599500D01*
X135863433Y-92599500D01*
X135831519Y-92599500D01*
X126568481Y-92599500D01*
X126558059Y-92599500D01*
X126558047Y-92599501D01*
X126536565Y-92599501D01*
X126515647Y-92606297D01*
X126496427Y-92610911D01*
X126474696Y-92614353D01*
X126455090Y-92624342D01*
X126436834Y-92631904D01*
X126415911Y-92638703D01*
X126398115Y-92651633D01*
X126381259Y-92661962D01*
X126361659Y-92671948D01*
X126350376Y-92683231D01*
X126339092Y-92694516D01*
X126339091Y-92694517D01*
X125554352Y-93479255D01*
X125357859Y-93675748D01*
X125310379Y-93705581D01*
X125254657Y-93711860D01*
X125100000Y-93694435D01*
X124920742Y-93714632D01*
X124750478Y-93774210D01*
X124597736Y-93870184D01*
X124470184Y-93997736D01*
X124374210Y-94150478D01*
X124345429Y-94232732D01*
X124305060Y-94289628D01*
X124240607Y-94316325D01*
X124171831Y-94304639D01*
X124119813Y-94258153D01*
X124100500Y-94191117D01*
X124100500Y-90899999D01*
X144194435Y-90899999D01*
X144214632Y-91079257D01*
X144274210Y-91249521D01*
X144370184Y-91402263D01*
X144497736Y-91529815D01*
X144497738Y-91529816D01*
X144650478Y-91625789D01*
X144820745Y-91685368D01*
X145000000Y-91705565D01*
X145179255Y-91685368D01*
X145349522Y-91625789D01*
X145502262Y-91529816D01*
X145629816Y-91402262D01*
X145725789Y-91249522D01*
X145785368Y-91079255D01*
X145805565Y-90900000D01*
X145785368Y-90720745D01*
X145725789Y-90550478D01*
X145629816Y-90397738D01*
X145629815Y-90397736D01*
X145502263Y-90270184D01*
X145349521Y-90174210D01*
X145179257Y-90114632D01*
X145000000Y-90094435D01*
X144820742Y-90114632D01*
X144650478Y-90174210D01*
X144497736Y-90270184D01*
X144370184Y-90397736D01*
X144274210Y-90550478D01*
X144214632Y-90720742D01*
X144194435Y-90899999D01*
X124100500Y-90899999D01*
X124100500Y-79265933D01*
X124110091Y-79217715D01*
X124137405Y-79176838D01*
X124876838Y-78437405D01*
X124917715Y-78410091D01*
X124965933Y-78400500D01*
X127876954Y-78400500D01*
X127876956Y-78400500D01*
X127897883Y-78393700D01*
X127917099Y-78389087D01*
X127938827Y-78385646D01*
X127958429Y-78375657D01*
X127976686Y-78368094D01*
X127997613Y-78361296D01*
X128015414Y-78348362D01*
X128032261Y-78338038D01*
X128051865Y-78328050D01*
X128059965Y-78319949D01*
X128059974Y-78319944D01*
X128059973Y-78319943D01*
X128214983Y-78164933D01*
X128754245Y-77625669D01*
X128801724Y-77595837D01*
X128857441Y-77589558D01*
X128999503Y-77605565D01*
X129178758Y-77585368D01*
X129349025Y-77525789D01*
X129501765Y-77429816D01*
X129629319Y-77302262D01*
X129725292Y-77149522D01*
X129780823Y-76990823D01*
X129814742Y-76939437D01*
X129868964Y-76910259D01*
X129930538Y-76910259D01*
X129984759Y-76939437D01*
X130018680Y-76990824D01*
X130074211Y-77149522D01*
X130170184Y-77302263D01*
X130297736Y-77429815D01*
X130450478Y-77525789D01*
X130461986Y-77529816D01*
X130620745Y-77585368D01*
X130800000Y-77605565D01*
X130979255Y-77585368D01*
X131149522Y-77525789D01*
X131302262Y-77429816D01*
X131429816Y-77302262D01*
X131525789Y-77149522D01*
X131585368Y-76979255D01*
X131594298Y-76900000D01*
X141694435Y-76900000D01*
X141714632Y-77079257D01*
X141774210Y-77249521D01*
X141870184Y-77402263D01*
X141997736Y-77529815D01*
X141997738Y-77529816D01*
X142150478Y-77625789D01*
X142320745Y-77685368D01*
X142500000Y-77705565D01*
X142679255Y-77685368D01*
X142849522Y-77625789D01*
X143002262Y-77529816D01*
X143036159Y-77495919D01*
X143094674Y-77437405D01*
X143135551Y-77410091D01*
X143183769Y-77400500D01*
X155440496Y-77400500D01*
X155488714Y-77410091D01*
X155529591Y-77437405D01*
X159262595Y-81170409D01*
X159289909Y-81211286D01*
X159299500Y-81259504D01*
X159299500Y-90816231D01*
X159289909Y-90864449D01*
X159262595Y-90905326D01*
X159170184Y-90997736D01*
X159074210Y-91150478D01*
X159014632Y-91320742D01*
X158994435Y-91500000D01*
X159014632Y-91679257D01*
X159074210Y-91849521D01*
X159170184Y-92002263D01*
X159297736Y-92129815D01*
X159297738Y-92129816D01*
X159450478Y-92225789D01*
X159620745Y-92285368D01*
X159800000Y-92305565D01*
X159979255Y-92285368D01*
X160149522Y-92225789D01*
X160302262Y-92129816D01*
X160429816Y-92002262D01*
X160525789Y-91849522D01*
X160585368Y-91679255D01*
X160605565Y-91500000D01*
X160585368Y-91320745D01*
X160525789Y-91150478D01*
X160429816Y-90997738D01*
X160429815Y-90997736D01*
X160337405Y-90905326D01*
X160310091Y-90864449D01*
X160300500Y-90816231D01*
X160300500Y-81067357D01*
X160303380Y-81040574D01*
X160303547Y-81039801D01*
X160304359Y-81036073D01*
X160300820Y-80986608D01*
X160300500Y-80977620D01*
X160300500Y-80964201D01*
X160298590Y-80950919D01*
X160297628Y-80941972D01*
X160294091Y-80892520D01*
X160294091Y-80892517D01*
X160292482Y-80888203D01*
X160285820Y-80862099D01*
X160285165Y-80857543D01*
X160264567Y-80812441D01*
X160261124Y-80804128D01*
X160243796Y-80757669D01*
X160241036Y-80753982D01*
X160227290Y-80730815D01*
X160225378Y-80726628D01*
X160192909Y-80689157D01*
X160187265Y-80682152D01*
X160179224Y-80671411D01*
X160179223Y-80671410D01*
X160179221Y-80671407D01*
X160169722Y-80661908D01*
X160163604Y-80655336D01*
X160131129Y-80617857D01*
X160127248Y-80615363D01*
X160106275Y-80598461D01*
X156101537Y-76593723D01*
X156084635Y-76572749D01*
X156082143Y-76568872D01*
X156044659Y-76536392D01*
X156038089Y-76530275D01*
X156028593Y-76520779D01*
X156028592Y-76520778D01*
X156028588Y-76520774D01*
X156017846Y-76512733D01*
X156010844Y-76507091D01*
X155973372Y-76474621D01*
X155969184Y-76472709D01*
X155946021Y-76458966D01*
X155942329Y-76456202D01*
X155895865Y-76438872D01*
X155887566Y-76435435D01*
X155842457Y-76414835D01*
X155842455Y-76414834D01*
X155842454Y-76414834D01*
X155837891Y-76414178D01*
X155811798Y-76407518D01*
X155807484Y-76405909D01*
X155758019Y-76402370D01*
X155749088Y-76401410D01*
X155739277Y-76400000D01*
X155735799Y-76399500D01*
X155735798Y-76399500D01*
X155722380Y-76399500D01*
X155713391Y-76399179D01*
X155663927Y-76395641D01*
X155663926Y-76395641D01*
X155659426Y-76396620D01*
X155632643Y-76399500D01*
X143183769Y-76399500D01*
X143135551Y-76389909D01*
X143094674Y-76362595D01*
X143002263Y-76270184D01*
X142849521Y-76174210D01*
X142679257Y-76114632D01*
X142500000Y-76094435D01*
X142320742Y-76114632D01*
X142150478Y-76174210D01*
X141997736Y-76270184D01*
X141870184Y-76397736D01*
X141774210Y-76550478D01*
X141714632Y-76720742D01*
X141694435Y-76900000D01*
X131594298Y-76900000D01*
X131605565Y-76800000D01*
X131585368Y-76620745D01*
X131525789Y-76450478D01*
X131476447Y-76371950D01*
X131429815Y-76297736D01*
X131302263Y-76170184D01*
X131149521Y-76074210D01*
X130979257Y-76014632D01*
X130800000Y-75994435D01*
X130645340Y-76011860D01*
X130589621Y-76005582D01*
X130542142Y-75975749D01*
X129960909Y-75394516D01*
X129960908Y-75394515D01*
X129954583Y-75388190D01*
X129954575Y-75388183D01*
X129938342Y-75371950D01*
X129938339Y-75371948D01*
X129918738Y-75361960D01*
X129901883Y-75351631D01*
X129884089Y-75338703D01*
X129863170Y-75331906D01*
X129844905Y-75324340D01*
X129825306Y-75314354D01*
X129803577Y-75310912D01*
X129784358Y-75306298D01*
X129763434Y-75299500D01*
X129763433Y-75299500D01*
X129731519Y-75299500D01*
X127263433Y-75299500D01*
X127136567Y-75299500D01*
X127136564Y-75299500D01*
X127115635Y-75306299D01*
X127096422Y-75310912D01*
X127074696Y-75314353D01*
X127055096Y-75324340D01*
X127036836Y-75331903D01*
X127015910Y-75338702D01*
X126998108Y-75351636D01*
X126981255Y-75361964D01*
X126961656Y-75371950D01*
X126071012Y-76262595D01*
X126030135Y-76289909D01*
X125981917Y-76299500D01*
X125647011Y-76299500D01*
X125582994Y-76282025D01*
X125536733Y-76234449D01*
X125521061Y-76169966D01*
X125540324Y-76106464D01*
X125575789Y-76050022D01*
X125635368Y-75879755D01*
X125655565Y-75700500D01*
X125635368Y-75521245D01*
X125588805Y-75388177D01*
X125575789Y-75350978D01*
X125479815Y-75198236D01*
X125352263Y-75070684D01*
X125199521Y-74974710D01*
X125029257Y-74915132D01*
X124850000Y-74894935D01*
X124670742Y-74915132D01*
X124500478Y-74974710D01*
X124347736Y-75070684D01*
X124220186Y-75198234D01*
X124185722Y-75253083D01*
X124156490Y-75285427D01*
X124117987Y-75305874D01*
X124115166Y-75306791D01*
X124095927Y-75311411D01*
X124074196Y-75314853D01*
X124054590Y-75324842D01*
X124036334Y-75332404D01*
X124015411Y-75339203D01*
X123997615Y-75352133D01*
X123980759Y-75362462D01*
X123961159Y-75372448D01*
X123949876Y-75383731D01*
X123938591Y-75395017D01*
X121595476Y-77738131D01*
X121595473Y-77738134D01*
X121584191Y-77749416D01*
X121572908Y-77760699D01*
X121562923Y-77780296D01*
X121552599Y-77797144D01*
X121539662Y-77814951D01*
X121532864Y-77835874D01*
X121525300Y-77854136D01*
X121515314Y-77873735D01*
X121511872Y-77895464D01*
X121507258Y-77914682D01*
X121500460Y-77935606D01*
X121500460Y-79029877D01*
X121486727Y-79087080D01*
X121448521Y-79131813D01*
X121394171Y-79154326D01*
X121335524Y-79149710D01*
X121285365Y-79118972D01*
X120737405Y-78571012D01*
X120710091Y-78530135D01*
X120700500Y-78481917D01*
X120700500Y-77163395D01*
X120716222Y-77102446D01*
X120759464Y-77056708D01*
X120780566Y-77043448D01*
X120802262Y-77029816D01*
X120929816Y-76902262D01*
X121025789Y-76749522D01*
X121085368Y-76579255D01*
X121105565Y-76400000D01*
X121085368Y-76220745D01*
X121079075Y-76202762D01*
X121025789Y-76050478D01*
X120929815Y-75897736D01*
X120802263Y-75770184D01*
X120649521Y-75674210D01*
X120479257Y-75614632D01*
X120300000Y-75594435D01*
X120120742Y-75614632D01*
X119950478Y-75674210D01*
X119797736Y-75770184D01*
X119670184Y-75897736D01*
X119574210Y-76050478D01*
X119514632Y-76220742D01*
X119494435Y-76400000D01*
X119514632Y-76579257D01*
X119574210Y-76749521D01*
X119670184Y-76902263D01*
X119797736Y-77029815D01*
X119840536Y-77056708D01*
X119883778Y-77102446D01*
X119899500Y-77163395D01*
X119899500Y-78710713D01*
X119897949Y-78730424D01*
X119894507Y-78752149D01*
X119899500Y-78783668D01*
X119899500Y-78783669D01*
X119914354Y-78877454D01*
X119971951Y-78990494D01*
X120061655Y-79080198D01*
X120061657Y-79080199D01*
X120061658Y-79080200D01*
X120137752Y-79118972D01*
X120150203Y-79125316D01*
X120182095Y-79148488D01*
X120864035Y-79830428D01*
X120891349Y-79871305D01*
X120900940Y-79919523D01*
X120900940Y-80464671D01*
X120887207Y-80521874D01*
X120849001Y-80566607D01*
X120794651Y-80589120D01*
X120736004Y-80584504D01*
X120685845Y-80553766D01*
X120602263Y-80470184D01*
X120449521Y-80374210D01*
X120279257Y-80314632D01*
X120100000Y-80294435D01*
X119920742Y-80314632D01*
X119750478Y-80374210D01*
X119693536Y-80409990D01*
X119630034Y-80429253D01*
X119565551Y-80413581D01*
X119517975Y-80367320D01*
X119500500Y-80303303D01*
X119500500Y-77536067D01*
X119498469Y-77529816D01*
X119493701Y-77515142D01*
X119489087Y-77495925D01*
X119485646Y-77474196D01*
X119475657Y-77454593D01*
X119468093Y-77436332D01*
X119461296Y-77415410D01*
X119448366Y-77397614D01*
X119438035Y-77380756D01*
X119428050Y-77361158D01*
X119338342Y-77271450D01*
X118724751Y-76657859D01*
X118694918Y-76610380D01*
X118688639Y-76554658D01*
X118690697Y-76536394D01*
X118706065Y-76400000D01*
X118685868Y-76220745D01*
X118679575Y-76202762D01*
X118626289Y-76050478D01*
X118530315Y-75897736D01*
X118402763Y-75770184D01*
X118250021Y-75674210D01*
X118079757Y-75614632D01*
X117900500Y-75594435D01*
X117721242Y-75614632D01*
X117550978Y-75674210D01*
X117398236Y-75770184D01*
X117270684Y-75897736D01*
X117174710Y-76050478D01*
X117115132Y-76220742D01*
X117094935Y-76400000D01*
X117115132Y-76579257D01*
X117174710Y-76749521D01*
X117270684Y-76902263D01*
X117398236Y-77029815D01*
X117476923Y-77079257D01*
X117550978Y-77125789D01*
X117721245Y-77185368D01*
X117900500Y-77205565D01*
X118055159Y-77188139D01*
X118110880Y-77194418D01*
X118158360Y-77224252D01*
X118662595Y-77728487D01*
X118689909Y-77769364D01*
X118699500Y-77817582D01*
X118699500Y-81813434D01*
X118706298Y-81834358D01*
X118710912Y-81853577D01*
X118714354Y-81875306D01*
X118724340Y-81894905D01*
X118731906Y-81913170D01*
X118738703Y-81934089D01*
X118751631Y-81951883D01*
X118761960Y-81968738D01*
X118771948Y-81988339D01*
X118771950Y-81988342D01*
X118788183Y-82004575D01*
X118788190Y-82004583D01*
X118794515Y-82010908D01*
X118794516Y-82010909D01*
X119664997Y-82881390D01*
X119692309Y-82922265D01*
X119701900Y-82970483D01*
X119701900Y-95379517D01*
X119692309Y-95427735D01*
X119664994Y-95468612D01*
X115994996Y-99138611D01*
X115994993Y-99138614D01*
X115983710Y-99149896D01*
X115972428Y-99161179D01*
X115962443Y-99180776D01*
X115952119Y-99197624D01*
X115939182Y-99215431D01*
X115932384Y-99236354D01*
X115924820Y-99254616D01*
X115914834Y-99274215D01*
X115911392Y-99295944D01*
X115906778Y-99315162D01*
X115899980Y-99336086D01*
X115899980Y-113629320D01*
X115900940Y-113635382D01*
X115900940Y-118536930D01*
X115891349Y-118585148D01*
X115864035Y-118626024D01*
X114296016Y-120194043D01*
X114296013Y-120194046D01*
X114284730Y-120205328D01*
X114273448Y-120216611D01*
X114263463Y-120236208D01*
X114253139Y-120253056D01*
X114240202Y-120270863D01*
X114233404Y-120291786D01*
X114225840Y-120310048D01*
X114215854Y-120329647D01*
X114212412Y-120351376D01*
X114207798Y-120370594D01*
X114201000Y-120391519D01*
X114201000Y-120423433D01*
X114201000Y-123047238D01*
X114201000Y-123174104D01*
X112500000Y-123174104D01*
X112500000Y-97126500D01*
X112516881Y-97063500D01*
X112563000Y-97017381D01*
X112626000Y-97000500D01*
X117724842Y-97000500D01*
X117724985Y-97000528D01*
X117724986Y-97000524D01*
X117749997Y-97000539D01*
X117750000Y-97000541D01*
X117750383Y-97000383D01*
X117750500Y-97000099D01*
X117750541Y-97000000D01*
X117750541Y-96975048D01*
X117750500Y-96974842D01*
X117750500Y-79025158D01*
X117750528Y-79025014D01*
X117750524Y-79025014D01*
X117750539Y-79000002D01*
X117750541Y-79000000D01*
X117750383Y-78999617D01*
X117750381Y-78999616D01*
X117750380Y-78999615D01*
X117750305Y-78999584D01*
X117750096Y-78999498D01*
X117750002Y-78999459D01*
X117725048Y-78999459D01*
X117724842Y-78999500D01*
X112626000Y-78999500D01*
X112563000Y-78982619D01*
X112516881Y-78936500D01*
X112500000Y-78873500D01*
X112500000Y-72400000D01*
X121194435Y-72400000D01*
X121214632Y-72579257D01*
X121274210Y-72749521D01*
X121370184Y-72902263D01*
X121497736Y-73029815D01*
X121497738Y-73029816D01*
X121650478Y-73125789D01*
X121820745Y-73185368D01*
X122000000Y-73205565D01*
X122179255Y-73185368D01*
X122349522Y-73125789D01*
X122502262Y-73029816D01*
X122629816Y-72902262D01*
X122725789Y-72749522D01*
X122785368Y-72579255D01*
X122805565Y-72400000D01*
X122785368Y-72220745D01*
X122725789Y-72050478D01*
X122629816Y-71897738D01*
X122629815Y-71897736D01*
X122502263Y-71770184D01*
X122349521Y-71674210D01*
X122179257Y-71614632D01*
X122000000Y-71594435D01*
X121820742Y-71614632D01*
X121650478Y-71674210D01*
X121497736Y-71770184D01*
X121370184Y-71897736D01*
X121274210Y-72050478D01*
X121214632Y-72220742D01*
X121194435Y-72400000D01*
X112500000Y-72400000D01*
X112500000Y-71126500D01*
X112516881Y-71063500D01*
X112563000Y-71017381D01*
X112626000Y-71000500D01*
X114136842Y-71000500D01*
X114366388Y-70968949D01*
X114407965Y-70963235D01*
X114671492Y-70889398D01*
X114922511Y-70780365D01*
X115156345Y-70638168D01*
X115368638Y-70465454D01*
X115555437Y-70265442D01*
X115713260Y-70041857D01*
X115839169Y-69798864D01*
X115930818Y-69540990D01*
X115986499Y-69273038D01*
X116005175Y-69000000D01*
X115986499Y-68726962D01*
X115971392Y-68654263D01*
X135329500Y-68654263D01*
X135332354Y-68684701D01*
X135377206Y-68812882D01*
X135457849Y-68922150D01*
X135567117Y-69002793D01*
X135660018Y-69035300D01*
X135695301Y-69047646D01*
X135725734Y-69050500D01*
X137034263Y-69050500D01*
X137034266Y-69050500D01*
X137064699Y-69047646D01*
X137192882Y-69002793D01*
X137302150Y-68922150D01*
X137382793Y-68812882D01*
X137427646Y-68684699D01*
X137430500Y-68654266D01*
X137430500Y-67999999D01*
X137864416Y-67999999D01*
X137884699Y-68205929D01*
X137884699Y-68205931D01*
X137884700Y-68205934D01*
X137944768Y-68403954D01*
X137944769Y-68403956D01*
X138042314Y-68586449D01*
X138173589Y-68746410D01*
X138316325Y-68863549D01*
X138333550Y-68877685D01*
X138516046Y-68975232D01*
X138714066Y-69035300D01*
X138920000Y-69055583D01*
X139125934Y-69035300D01*
X139323954Y-68975232D01*
X139506450Y-68877685D01*
X139666410Y-68746410D01*
X139797685Y-68586450D01*
X139895232Y-68403954D01*
X139955300Y-68205934D01*
X139975583Y-68000000D01*
X139975583Y-67999999D01*
X140404416Y-67999999D01*
X140424699Y-68205929D01*
X140424699Y-68205931D01*
X140424700Y-68205934D01*
X140484768Y-68403954D01*
X140484769Y-68403956D01*
X140582314Y-68586449D01*
X140713589Y-68746410D01*
X140856325Y-68863549D01*
X140873550Y-68877685D01*
X141056046Y-68975232D01*
X141254066Y-69035300D01*
X141460000Y-69055583D01*
X141665934Y-69035300D01*
X141863954Y-68975232D01*
X142046450Y-68877685D01*
X142206410Y-68746410D01*
X142337685Y-68586450D01*
X142435232Y-68403954D01*
X142495300Y-68205934D01*
X142515583Y-68000000D01*
X142944416Y-68000000D01*
X142964699Y-68205929D01*
X142964699Y-68205931D01*
X142964700Y-68205934D01*
X143024768Y-68403954D01*
X143024769Y-68403956D01*
X143122314Y-68586449D01*
X143253589Y-68746410D01*
X143396325Y-68863549D01*
X143413550Y-68877685D01*
X143596046Y-68975232D01*
X143794066Y-69035300D01*
X144000000Y-69055583D01*
X144205934Y-69035300D01*
X144403954Y-68975232D01*
X144586450Y-68877685D01*
X144746410Y-68746410D01*
X144877685Y-68586450D01*
X144975232Y-68403954D01*
X145035300Y-68205934D01*
X145055583Y-68000000D01*
X145484416Y-68000000D01*
X145504699Y-68205929D01*
X145504699Y-68205931D01*
X145504700Y-68205934D01*
X145564768Y-68403954D01*
X145564769Y-68403956D01*
X145662314Y-68586449D01*
X145793589Y-68746410D01*
X145936325Y-68863549D01*
X145953550Y-68877685D01*
X146136046Y-68975232D01*
X146334066Y-69035300D01*
X146540000Y-69055583D01*
X146745934Y-69035300D01*
X146943954Y-68975232D01*
X147126450Y-68877685D01*
X147286410Y-68746410D01*
X147417685Y-68586450D01*
X147515232Y-68403954D01*
X147575300Y-68205934D01*
X147595583Y-68000000D01*
X148024416Y-68000000D01*
X148044699Y-68205929D01*
X148044699Y-68205931D01*
X148044700Y-68205934D01*
X148104768Y-68403954D01*
X148104769Y-68403956D01*
X148202314Y-68586449D01*
X148333589Y-68746410D01*
X148476325Y-68863549D01*
X148493550Y-68877685D01*
X148676046Y-68975232D01*
X148874066Y-69035300D01*
X149080000Y-69055583D01*
X149285934Y-69035300D01*
X149483954Y-68975232D01*
X149666450Y-68877685D01*
X149826410Y-68746410D01*
X149957685Y-68586450D01*
X150055232Y-68403954D01*
X150115300Y-68205934D01*
X150135583Y-68000000D01*
X150564416Y-68000000D01*
X150584699Y-68205929D01*
X150584699Y-68205931D01*
X150584700Y-68205934D01*
X150644768Y-68403954D01*
X150644769Y-68403956D01*
X150742314Y-68586449D01*
X150873589Y-68746410D01*
X151016325Y-68863549D01*
X151033550Y-68877685D01*
X151216046Y-68975232D01*
X151414066Y-69035300D01*
X151620000Y-69055583D01*
X151825934Y-69035300D01*
X152023954Y-68975232D01*
X152206450Y-68877685D01*
X152366410Y-68746410D01*
X152442033Y-68654263D01*
X163949500Y-68654263D01*
X163952354Y-68684701D01*
X163997206Y-68812882D01*
X164077849Y-68922150D01*
X164187117Y-69002793D01*
X164280018Y-69035300D01*
X164315301Y-69047646D01*
X164345734Y-69050500D01*
X165654263Y-69050500D01*
X165654266Y-69050500D01*
X165684699Y-69047646D01*
X165812882Y-69002793D01*
X165922150Y-68922150D01*
X166002793Y-68812882D01*
X166047646Y-68684699D01*
X166050500Y-68654266D01*
X166050500Y-68000000D01*
X166484416Y-68000000D01*
X166504699Y-68205929D01*
X166504699Y-68205931D01*
X166504700Y-68205934D01*
X166564768Y-68403954D01*
X166564769Y-68403956D01*
X166662314Y-68586449D01*
X166793589Y-68746410D01*
X166936325Y-68863549D01*
X166953550Y-68877685D01*
X167136046Y-68975232D01*
X167334066Y-69035300D01*
X167540000Y-69055583D01*
X167745934Y-69035300D01*
X167943954Y-68975232D01*
X168126450Y-68877685D01*
X168286410Y-68746410D01*
X168417685Y-68586450D01*
X168515232Y-68403954D01*
X168575300Y-68205934D01*
X168595583Y-68000000D01*
X169024416Y-68000000D01*
X169044699Y-68205929D01*
X169044699Y-68205931D01*
X169044700Y-68205934D01*
X169104768Y-68403954D01*
X169104769Y-68403956D01*
X169202314Y-68586449D01*
X169333589Y-68746410D01*
X169476325Y-68863549D01*
X169493550Y-68877685D01*
X169676046Y-68975232D01*
X169874066Y-69035300D01*
X170080000Y-69055583D01*
X170285934Y-69035300D01*
X170483954Y-68975232D01*
X170666450Y-68877685D01*
X170826410Y-68746410D01*
X170957685Y-68586450D01*
X171055232Y-68403954D01*
X171115300Y-68205934D01*
X171135583Y-68000000D01*
X171564416Y-68000000D01*
X171584699Y-68205929D01*
X171584699Y-68205931D01*
X171584700Y-68205934D01*
X171644768Y-68403954D01*
X171644769Y-68403956D01*
X171742314Y-68586449D01*
X171873589Y-68746410D01*
X172016325Y-68863549D01*
X172033550Y-68877685D01*
X172216046Y-68975232D01*
X172414066Y-69035300D01*
X172620000Y-69055583D01*
X172825934Y-69035300D01*
X173023954Y-68975232D01*
X173206450Y-68877685D01*
X173366410Y-68746410D01*
X173497685Y-68586450D01*
X173595232Y-68403954D01*
X173655300Y-68205934D01*
X173675583Y-68000000D01*
X174104416Y-68000000D01*
X174124699Y-68205929D01*
X174124699Y-68205931D01*
X174124700Y-68205934D01*
X174184768Y-68403954D01*
X174184769Y-68403956D01*
X174282314Y-68586449D01*
X174413589Y-68746410D01*
X174556325Y-68863549D01*
X174573550Y-68877685D01*
X174756046Y-68975232D01*
X174954066Y-69035300D01*
X175160000Y-69055583D01*
X175365934Y-69035300D01*
X175563954Y-68975232D01*
X175746450Y-68877685D01*
X175906410Y-68746410D01*
X176037685Y-68586450D01*
X176135232Y-68403954D01*
X176195300Y-68205934D01*
X176215583Y-68000000D01*
X176195300Y-67794066D01*
X176135232Y-67596046D01*
X176037685Y-67413550D01*
X175906410Y-67253589D01*
X175746449Y-67122314D01*
X175563952Y-67024767D01*
X175523104Y-67012376D01*
X175469487Y-66979785D01*
X175438236Y-66925376D01*
X175437102Y-66862641D01*
X175466365Y-66807137D01*
X175518769Y-66772629D01*
X175707368Y-66707883D01*
X175905305Y-66600764D01*
X175925688Y-66584899D01*
X175925689Y-66584898D01*
X175160001Y-65819210D01*
X175160000Y-65819210D01*
X174394309Y-66584899D01*
X174414697Y-66600767D01*
X174612628Y-66707882D01*
X174801230Y-66772629D01*
X174853634Y-66807137D01*
X174882897Y-66862641D01*
X174881763Y-66925376D01*
X174850512Y-66979785D01*
X174796895Y-67012376D01*
X174756047Y-67024767D01*
X174573550Y-67122314D01*
X174413589Y-67253589D01*
X174282314Y-67413550D01*
X174184769Y-67596043D01*
X174184768Y-67596045D01*
X174184768Y-67596046D01*
X174142752Y-67734558D01*
X174124699Y-67794070D01*
X174104416Y-68000000D01*
X173675583Y-68000000D01*
X173655300Y-67794066D01*
X173595232Y-67596046D01*
X173497685Y-67413550D01*
X173366410Y-67253589D01*
X173206449Y-67122314D01*
X173023956Y-67024769D01*
X173023955Y-67024768D01*
X173023954Y-67024768D01*
X172825934Y-66964700D01*
X172825931Y-66964699D01*
X172825929Y-66964699D01*
X172620000Y-66944416D01*
X172414070Y-66964699D01*
X172414067Y-66964699D01*
X172414066Y-66964700D01*
X172216046Y-67024768D01*
X172216043Y-67024769D01*
X172033550Y-67122314D01*
X171873589Y-67253589D01*
X171742314Y-67413550D01*
X171644769Y-67596043D01*
X171644768Y-67596045D01*
X171644768Y-67596046D01*
X171602752Y-67734558D01*
X171584699Y-67794070D01*
X171564416Y-68000000D01*
X171135583Y-68000000D01*
X171115300Y-67794066D01*
X171055232Y-67596046D01*
X170957685Y-67413550D01*
X170826410Y-67253589D01*
X170666449Y-67122314D01*
X170483956Y-67024769D01*
X170483955Y-67024768D01*
X170483954Y-67024768D01*
X170285934Y-66964700D01*
X170285931Y-66964699D01*
X170285929Y-66964699D01*
X170080000Y-66944416D01*
X169874070Y-66964699D01*
X169874067Y-66964699D01*
X169874066Y-66964700D01*
X169676046Y-67024768D01*
X169676043Y-67024769D01*
X169493550Y-67122314D01*
X169333589Y-67253589D01*
X169202314Y-67413550D01*
X169104769Y-67596043D01*
X169104768Y-67596045D01*
X169104768Y-67596046D01*
X169062752Y-67734558D01*
X169044699Y-67794070D01*
X169024416Y-68000000D01*
X168595583Y-68000000D01*
X168575300Y-67794066D01*
X168515232Y-67596046D01*
X168417685Y-67413550D01*
X168286410Y-67253589D01*
X168126449Y-67122314D01*
X167943956Y-67024769D01*
X167943955Y-67024768D01*
X167943954Y-67024768D01*
X167745934Y-66964700D01*
X167745931Y-66964699D01*
X167745929Y-66964699D01*
X167540000Y-66944416D01*
X167334070Y-66964699D01*
X167334067Y-66964699D01*
X167334066Y-66964700D01*
X167136046Y-67024768D01*
X167136043Y-67024769D01*
X166953550Y-67122314D01*
X166793589Y-67253589D01*
X166662314Y-67413550D01*
X166564769Y-67596043D01*
X166564768Y-67596045D01*
X166564768Y-67596046D01*
X166522752Y-67734558D01*
X166504699Y-67794070D01*
X166484416Y-68000000D01*
X166050500Y-68000000D01*
X166050500Y-67345734D01*
X166047646Y-67315301D01*
X166047645Y-67315298D01*
X166002793Y-67187117D01*
X165922150Y-67077849D01*
X165812882Y-66997206D01*
X165684701Y-66952354D01*
X165672525Y-66951212D01*
X165654266Y-66949500D01*
X164345734Y-66949500D01*
X164330517Y-66950927D01*
X164315298Y-66952354D01*
X164187117Y-66997206D01*
X164077849Y-67077849D01*
X163997206Y-67187117D01*
X163952354Y-67315298D01*
X163949500Y-67345737D01*
X163949500Y-68654263D01*
X152442033Y-68654263D01*
X152497685Y-68586450D01*
X152595232Y-68403954D01*
X152655300Y-68205934D01*
X152675583Y-68000000D01*
X152655300Y-67794066D01*
X152595232Y-67596046D01*
X152497685Y-67413550D01*
X152366410Y-67253589D01*
X152206449Y-67122314D01*
X152023952Y-67024767D01*
X151983104Y-67012376D01*
X151929487Y-66979785D01*
X151898236Y-66925376D01*
X151897102Y-66862641D01*
X151926365Y-66807137D01*
X151978769Y-66772629D01*
X152167368Y-66707883D01*
X152365305Y-66600764D01*
X152385688Y-66584899D01*
X152385689Y-66584898D01*
X151620001Y-65819210D01*
X151620000Y-65819210D01*
X150854310Y-66584899D01*
X150874697Y-66600767D01*
X151072628Y-66707882D01*
X151261230Y-66772629D01*
X151313634Y-66807137D01*
X151342897Y-66862641D01*
X151341763Y-66925376D01*
X151310512Y-66979785D01*
X151256895Y-67012376D01*
X151216047Y-67024767D01*
X151033550Y-67122314D01*
X150873589Y-67253589D01*
X150742314Y-67413550D01*
X150644769Y-67596043D01*
X150644768Y-67596045D01*
X150644768Y-67596046D01*
X150602752Y-67734558D01*
X150584699Y-67794070D01*
X150564416Y-68000000D01*
X150135583Y-68000000D01*
X150115300Y-67794066D01*
X150055232Y-67596046D01*
X149957685Y-67413550D01*
X149826410Y-67253589D01*
X149666449Y-67122314D01*
X149483956Y-67024769D01*
X149483955Y-67024768D01*
X149483954Y-67024768D01*
X149285934Y-66964700D01*
X149285931Y-66964699D01*
X149285929Y-66964699D01*
X149080000Y-66944416D01*
X148874070Y-66964699D01*
X148874067Y-66964699D01*
X148874066Y-66964700D01*
X148676046Y-67024768D01*
X148676043Y-67024769D01*
X148493550Y-67122314D01*
X148333589Y-67253589D01*
X148202314Y-67413550D01*
X148104769Y-67596043D01*
X148104768Y-67596045D01*
X148104768Y-67596046D01*
X148062752Y-67734558D01*
X148044699Y-67794070D01*
X148024416Y-68000000D01*
X147595583Y-68000000D01*
X147575300Y-67794066D01*
X147515232Y-67596046D01*
X147417685Y-67413550D01*
X147286410Y-67253589D01*
X147126449Y-67122314D01*
X146943956Y-67024769D01*
X146943955Y-67024768D01*
X146943954Y-67024768D01*
X146745934Y-66964700D01*
X146745931Y-66964699D01*
X146745929Y-66964699D01*
X146540000Y-66944416D01*
X146334070Y-66964699D01*
X146334067Y-66964699D01*
X146334066Y-66964700D01*
X146136046Y-67024768D01*
X146136043Y-67024769D01*
X145953550Y-67122314D01*
X145793589Y-67253589D01*
X145662314Y-67413550D01*
X145564769Y-67596043D01*
X145564768Y-67596045D01*
X145564768Y-67596046D01*
X145522752Y-67734558D01*
X145504699Y-67794070D01*
X145484416Y-68000000D01*
X145055583Y-68000000D01*
X145035300Y-67794066D01*
X144975232Y-67596046D01*
X144877685Y-67413550D01*
X144746410Y-67253589D01*
X144586449Y-67122314D01*
X144403956Y-67024769D01*
X144403955Y-67024768D01*
X144403954Y-67024768D01*
X144205934Y-66964700D01*
X144205931Y-66964699D01*
X144205929Y-66964699D01*
X144000000Y-66944416D01*
X143794070Y-66964699D01*
X143794067Y-66964699D01*
X143794066Y-66964700D01*
X143596046Y-67024768D01*
X143596043Y-67024769D01*
X143413550Y-67122314D01*
X143253589Y-67253589D01*
X143122314Y-67413550D01*
X143024769Y-67596043D01*
X143024768Y-67596045D01*
X143024768Y-67596046D01*
X142982752Y-67734558D01*
X142964699Y-67794070D01*
X142944416Y-68000000D01*
X142515583Y-68000000D01*
X142495300Y-67794066D01*
X142435232Y-67596046D01*
X142337685Y-67413550D01*
X142206410Y-67253589D01*
X142046449Y-67122314D01*
X141863956Y-67024769D01*
X141863955Y-67024768D01*
X141863954Y-67024768D01*
X141665934Y-66964700D01*
X141665931Y-66964699D01*
X141665929Y-66964699D01*
X141460000Y-66944416D01*
X141254070Y-66964699D01*
X141254067Y-66964699D01*
X141254066Y-66964700D01*
X141056046Y-67024768D01*
X141056043Y-67024769D01*
X140873550Y-67122314D01*
X140713589Y-67253589D01*
X140582314Y-67413550D01*
X140484769Y-67596043D01*
X140484768Y-67596045D01*
X140484768Y-67596046D01*
X140442752Y-67734558D01*
X140424699Y-67794070D01*
X140404416Y-67999999D01*
X139975583Y-67999999D01*
X139955300Y-67794066D01*
X139895232Y-67596046D01*
X139797685Y-67413550D01*
X139666410Y-67253589D01*
X139506449Y-67122314D01*
X139323956Y-67024769D01*
X139323955Y-67024768D01*
X139323954Y-67024768D01*
X139125934Y-66964700D01*
X139125931Y-66964699D01*
X139125929Y-66964699D01*
X138920000Y-66944416D01*
X138714070Y-66964699D01*
X138714067Y-66964699D01*
X138714066Y-66964700D01*
X138516046Y-67024768D01*
X138516043Y-67024769D01*
X138333550Y-67122314D01*
X138173589Y-67253589D01*
X138042314Y-67413550D01*
X137944769Y-67596043D01*
X137944768Y-67596045D01*
X137944768Y-67596046D01*
X137902752Y-67734558D01*
X137884699Y-67794070D01*
X137864416Y-67999999D01*
X137430500Y-67999999D01*
X137430500Y-67345734D01*
X137427646Y-67315301D01*
X137427645Y-67315298D01*
X137382793Y-67187117D01*
X137302150Y-67077849D01*
X137192882Y-66997206D01*
X137064701Y-66952354D01*
X137052525Y-66951212D01*
X137034266Y-66949500D01*
X136978464Y-66949500D01*
X136914864Y-66932270D01*
X136868657Y-66885293D01*
X136852481Y-66821417D01*
X136870760Y-66758110D01*
X136918494Y-66712686D01*
X137125305Y-66600764D01*
X137145688Y-66584899D01*
X137145689Y-66584898D01*
X136380001Y-65819210D01*
X136380000Y-65819210D01*
X135614310Y-66584899D01*
X135634697Y-66600767D01*
X135841505Y-66712686D01*
X135889240Y-66758110D01*
X135907519Y-66821417D01*
X135891343Y-66885293D01*
X135845136Y-66932270D01*
X135781536Y-66949500D01*
X135725734Y-66949500D01*
X135710517Y-66950927D01*
X135695298Y-66952354D01*
X135567117Y-66997206D01*
X135457849Y-67077849D01*
X135377206Y-67187117D01*
X135332354Y-67315298D01*
X135329500Y-67345737D01*
X135329500Y-68654263D01*
X115971392Y-68654263D01*
X115930818Y-68459010D01*
X115839169Y-68201136D01*
X115713260Y-67958143D01*
X115597445Y-67794070D01*
X115555439Y-67734560D01*
X115426072Y-67596043D01*
X115368638Y-67534546D01*
X115156345Y-67361832D01*
X115156343Y-67361830D01*
X114922513Y-67219636D01*
X114799113Y-67166036D01*
X114671492Y-67110602D01*
X114407965Y-67036765D01*
X114407963Y-67036764D01*
X114407957Y-67036763D01*
X114136842Y-66999500D01*
X114136838Y-66999500D01*
X114000099Y-66999500D01*
X112626000Y-66999500D01*
X112563000Y-66982619D01*
X112516881Y-66936500D01*
X112500000Y-66873500D01*
X112500000Y-64750000D01*
X121304416Y-64750000D01*
X121324699Y-64955929D01*
X121324699Y-64955931D01*
X121324700Y-64955934D01*
X121368644Y-65100799D01*
X121384769Y-65153956D01*
X121482314Y-65336449D01*
X121613589Y-65496410D01*
X121763877Y-65619747D01*
X121773550Y-65627685D01*
X121956046Y-65725232D01*
X122154066Y-65785300D01*
X122360000Y-65805583D01*
X122565934Y-65785300D01*
X122763954Y-65725232D01*
X122946450Y-65627685D01*
X122956123Y-65619747D01*
X123849500Y-65619747D01*
X123861133Y-65678231D01*
X123905447Y-65744552D01*
X123934766Y-65764142D01*
X123971769Y-65788867D01*
X124030252Y-65800500D01*
X125769747Y-65800500D01*
X125769748Y-65800500D01*
X125828231Y-65788867D01*
X125894552Y-65744552D01*
X125938867Y-65678231D01*
X125950500Y-65619748D01*
X125950500Y-65460000D01*
X135017346Y-65460000D01*
X135035931Y-65684283D01*
X135091180Y-65902456D01*
X135181580Y-66108548D01*
X135256922Y-66223866D01*
X136020789Y-65460001D01*
X136739210Y-65460001D01*
X137503076Y-66223867D01*
X137503077Y-66223866D01*
X137578418Y-66108551D01*
X137668820Y-65902456D01*
X137688473Y-65824847D01*
X137719971Y-65768261D01*
X137775414Y-65734795D01*
X137840158Y-65733289D01*
X137897098Y-65764141D01*
X137931192Y-65819201D01*
X137932905Y-65824847D01*
X137944768Y-65863954D01*
X137999839Y-65966984D01*
X138042314Y-66046449D01*
X138173589Y-66206410D01*
X138333550Y-66337685D01*
X138516046Y-66435232D01*
X138714066Y-66495300D01*
X138920000Y-66515583D01*
X139125934Y-66495300D01*
X139323954Y-66435232D01*
X139506450Y-66337685D01*
X139666410Y-66206410D01*
X139797685Y-66046450D01*
X139895232Y-65863954D01*
X139955300Y-65665934D01*
X139975583Y-65460000D01*
X139975583Y-65459999D01*
X140404416Y-65459999D01*
X140424699Y-65665929D01*
X140424699Y-65665931D01*
X140424700Y-65665934D01*
X140484767Y-65863951D01*
X140484769Y-65863956D01*
X140582314Y-66046449D01*
X140713589Y-66206410D01*
X140873550Y-66337685D01*
X141056046Y-66435232D01*
X141254066Y-66495300D01*
X141460000Y-66515583D01*
X141665934Y-66495300D01*
X141863954Y-66435232D01*
X142046450Y-66337685D01*
X142206410Y-66206410D01*
X142337685Y-66046450D01*
X142435232Y-65863954D01*
X142495300Y-65665934D01*
X142515583Y-65460000D01*
X142515583Y-65459999D01*
X142944416Y-65459999D01*
X142964699Y-65665929D01*
X142964699Y-65665931D01*
X142964700Y-65665934D01*
X143024767Y-65863951D01*
X143024769Y-65863956D01*
X143122314Y-66046449D01*
X143253589Y-66206410D01*
X143413550Y-66337685D01*
X143596046Y-66435232D01*
X143794066Y-66495300D01*
X144000000Y-66515583D01*
X144205934Y-66495300D01*
X144403954Y-66435232D01*
X144586450Y-66337685D01*
X144746410Y-66206410D01*
X144877685Y-66046450D01*
X144975232Y-65863954D01*
X145035300Y-65665934D01*
X145055583Y-65460000D01*
X145055583Y-65459999D01*
X145484416Y-65459999D01*
X145504699Y-65665929D01*
X145504699Y-65665931D01*
X145504700Y-65665934D01*
X145564767Y-65863951D01*
X145564769Y-65863956D01*
X145662314Y-66046449D01*
X145793589Y-66206410D01*
X145953550Y-66337685D01*
X146136046Y-66435232D01*
X146334066Y-66495300D01*
X146540000Y-66515583D01*
X146745934Y-66495300D01*
X146943954Y-66435232D01*
X147126450Y-66337685D01*
X147286410Y-66206410D01*
X147417685Y-66046450D01*
X147515232Y-65863954D01*
X147575300Y-65665934D01*
X147595583Y-65460000D01*
X147595583Y-65459999D01*
X148024416Y-65459999D01*
X148044699Y-65665929D01*
X148044699Y-65665931D01*
X148044700Y-65665934D01*
X148104767Y-65863951D01*
X148104769Y-65863956D01*
X148202314Y-66046449D01*
X148333589Y-66206410D01*
X148493550Y-66337685D01*
X148676046Y-66435232D01*
X148874066Y-66495300D01*
X149080000Y-66515583D01*
X149285934Y-66495300D01*
X149483954Y-66435232D01*
X149666450Y-66337685D01*
X149826410Y-66206410D01*
X149957685Y-66046450D01*
X150055232Y-65863954D01*
X150068807Y-65819200D01*
X150102899Y-65764142D01*
X150159839Y-65733289D01*
X150224583Y-65734794D01*
X150280027Y-65768260D01*
X150311525Y-65824845D01*
X150331178Y-65902452D01*
X150421580Y-66108548D01*
X150496922Y-66223866D01*
X151260787Y-65460001D01*
X151979210Y-65460001D01*
X152743076Y-66223867D01*
X152743077Y-66223866D01*
X152818418Y-66108551D01*
X152908819Y-65902457D01*
X152964068Y-65684283D01*
X152982653Y-65460000D01*
X152982653Y-65459999D01*
X163944416Y-65459999D01*
X163964699Y-65665929D01*
X163964699Y-65665931D01*
X163964700Y-65665934D01*
X164024767Y-65863951D01*
X164024769Y-65863956D01*
X164122314Y-66046449D01*
X164253589Y-66206410D01*
X164413550Y-66337685D01*
X164596046Y-66435232D01*
X164794066Y-66495300D01*
X165000000Y-66515583D01*
X165205934Y-66495300D01*
X165403954Y-66435232D01*
X165586450Y-66337685D01*
X165746410Y-66206410D01*
X165877685Y-66046450D01*
X165975232Y-65863954D01*
X166035300Y-65665934D01*
X166055583Y-65460000D01*
X166055583Y-65459999D01*
X166484416Y-65459999D01*
X166504699Y-65665929D01*
X166504699Y-65665931D01*
X166504700Y-65665934D01*
X166564767Y-65863951D01*
X166564769Y-65863956D01*
X166662314Y-66046449D01*
X166793589Y-66206410D01*
X166953550Y-66337685D01*
X167136046Y-66435232D01*
X167334066Y-66495300D01*
X167540000Y-66515583D01*
X167745934Y-66495300D01*
X167943954Y-66435232D01*
X168126450Y-66337685D01*
X168286410Y-66206410D01*
X168417685Y-66046450D01*
X168515232Y-65863954D01*
X168575300Y-65665934D01*
X168595583Y-65460000D01*
X168595583Y-65459999D01*
X169024416Y-65459999D01*
X169044699Y-65665929D01*
X169044699Y-65665931D01*
X169044700Y-65665934D01*
X169104767Y-65863951D01*
X169104769Y-65863956D01*
X169202314Y-66046449D01*
X169333589Y-66206410D01*
X169493550Y-66337685D01*
X169676046Y-66435232D01*
X169874066Y-66495300D01*
X170080000Y-66515583D01*
X170285934Y-66495300D01*
X170483954Y-66435232D01*
X170666450Y-66337685D01*
X170826410Y-66206410D01*
X170957685Y-66046450D01*
X171055232Y-65863954D01*
X171115300Y-65665934D01*
X171135583Y-65460000D01*
X171135583Y-65459999D01*
X171564416Y-65459999D01*
X171584699Y-65665929D01*
X171584699Y-65665931D01*
X171584700Y-65665934D01*
X171644767Y-65863951D01*
X171644769Y-65863956D01*
X171742314Y-66046449D01*
X171873589Y-66206410D01*
X172033550Y-66337685D01*
X172216046Y-66435232D01*
X172414066Y-66495300D01*
X172620000Y-66515583D01*
X172825934Y-66495300D01*
X173023954Y-66435232D01*
X173206450Y-66337685D01*
X173366410Y-66206410D01*
X173497685Y-66046450D01*
X173595232Y-65863954D01*
X173608807Y-65819200D01*
X173642899Y-65764142D01*
X173699839Y-65733289D01*
X173764583Y-65734794D01*
X173820027Y-65768260D01*
X173851525Y-65824845D01*
X173871178Y-65902452D01*
X173961580Y-66108548D01*
X174036922Y-66223866D01*
X174800787Y-65460001D01*
X175519210Y-65460001D01*
X176283076Y-66223867D01*
X176283077Y-66223866D01*
X176358418Y-66108551D01*
X176448819Y-65902457D01*
X176504068Y-65684283D01*
X176522653Y-65460000D01*
X176504068Y-65235716D01*
X176448819Y-65017543D01*
X176358417Y-64811446D01*
X176283076Y-64696132D01*
X175519210Y-65460000D01*
X175519210Y-65460001D01*
X174800787Y-65460001D01*
X174800789Y-65459999D01*
X174036922Y-64696132D01*
X173961580Y-64811451D01*
X173871178Y-65017547D01*
X173851525Y-65095154D01*
X173820027Y-65151739D01*
X173764583Y-65185205D01*
X173699839Y-65186710D01*
X173642900Y-65155857D01*
X173608807Y-65100799D01*
X173595232Y-65056046D01*
X173497685Y-64873550D01*
X173396291Y-64750000D01*
X173366410Y-64713589D01*
X173206449Y-64582314D01*
X173023956Y-64484769D01*
X173023955Y-64484768D01*
X173023954Y-64484768D01*
X172825934Y-64424700D01*
X172825931Y-64424699D01*
X172825929Y-64424699D01*
X172620000Y-64404416D01*
X172414070Y-64424699D01*
X172414067Y-64424699D01*
X172414066Y-64424700D01*
X172216046Y-64484768D01*
X172216043Y-64484769D01*
X172033550Y-64582314D01*
X171873589Y-64713589D01*
X171742314Y-64873550D01*
X171644769Y-65056043D01*
X171644769Y-65056044D01*
X171644768Y-65056046D01*
X171590267Y-65235716D01*
X171584699Y-65254070D01*
X171564416Y-65459999D01*
X171135583Y-65459999D01*
X171115300Y-65254066D01*
X171055232Y-65056046D01*
X170957685Y-64873550D01*
X170856291Y-64750000D01*
X170826410Y-64713589D01*
X170666449Y-64582314D01*
X170483956Y-64484769D01*
X170483955Y-64484768D01*
X170483954Y-64484768D01*
X170285934Y-64424700D01*
X170285931Y-64424699D01*
X170285929Y-64424699D01*
X170080000Y-64404416D01*
X169874070Y-64424699D01*
X169874067Y-64424699D01*
X169874066Y-64424700D01*
X169676046Y-64484768D01*
X169676043Y-64484769D01*
X169493550Y-64582314D01*
X169333589Y-64713589D01*
X169202314Y-64873550D01*
X169104769Y-65056043D01*
X169104769Y-65056044D01*
X169104768Y-65056046D01*
X169050267Y-65235716D01*
X169044699Y-65254070D01*
X169024416Y-65459999D01*
X168595583Y-65459999D01*
X168575300Y-65254066D01*
X168515232Y-65056046D01*
X168417685Y-64873550D01*
X168316291Y-64750000D01*
X168286410Y-64713589D01*
X168126449Y-64582314D01*
X167943956Y-64484769D01*
X167943955Y-64484768D01*
X167943954Y-64484768D01*
X167745934Y-64424700D01*
X167745931Y-64424699D01*
X167745929Y-64424699D01*
X167540000Y-64404416D01*
X167334070Y-64424699D01*
X167334067Y-64424699D01*
X167334066Y-64424700D01*
X167136046Y-64484768D01*
X167136043Y-64484769D01*
X166953550Y-64582314D01*
X166793589Y-64713589D01*
X166662314Y-64873550D01*
X166564769Y-65056043D01*
X166564769Y-65056044D01*
X166564768Y-65056046D01*
X166510267Y-65235716D01*
X166504699Y-65254070D01*
X166484416Y-65459999D01*
X166055583Y-65459999D01*
X166035300Y-65254066D01*
X165975232Y-65056046D01*
X165877685Y-64873550D01*
X165776291Y-64750000D01*
X165746410Y-64713589D01*
X165586449Y-64582314D01*
X165403956Y-64484769D01*
X165403955Y-64484768D01*
X165403954Y-64484768D01*
X165205934Y-64424700D01*
X165205931Y-64424699D01*
X165205929Y-64424699D01*
X165000000Y-64404416D01*
X164794070Y-64424699D01*
X164794067Y-64424699D01*
X164794066Y-64424700D01*
X164596046Y-64484768D01*
X164596043Y-64484769D01*
X164413550Y-64582314D01*
X164253589Y-64713589D01*
X164122314Y-64873550D01*
X164024769Y-65056043D01*
X164024769Y-65056044D01*
X164024768Y-65056046D01*
X163970267Y-65235716D01*
X163964699Y-65254070D01*
X163944416Y-65459999D01*
X152982653Y-65459999D01*
X152964068Y-65235716D01*
X152908819Y-65017543D01*
X152818417Y-64811446D01*
X152743076Y-64696132D01*
X151979210Y-65460000D01*
X151979210Y-65460001D01*
X151260787Y-65460001D01*
X151260789Y-65459999D01*
X150496922Y-64696132D01*
X150421580Y-64811451D01*
X150331178Y-65017547D01*
X150311525Y-65095154D01*
X150280027Y-65151739D01*
X150224583Y-65185205D01*
X150159839Y-65186710D01*
X150102900Y-65155857D01*
X150068807Y-65100799D01*
X150055232Y-65056046D01*
X149957685Y-64873550D01*
X149856291Y-64750000D01*
X149826410Y-64713589D01*
X149666449Y-64582314D01*
X149483956Y-64484769D01*
X149483955Y-64484768D01*
X149483954Y-64484768D01*
X149285934Y-64424700D01*
X149285931Y-64424699D01*
X149285929Y-64424699D01*
X149080000Y-64404416D01*
X148874070Y-64424699D01*
X148874067Y-64424699D01*
X148874066Y-64424700D01*
X148676046Y-64484768D01*
X148676043Y-64484769D01*
X148493550Y-64582314D01*
X148333589Y-64713589D01*
X148202314Y-64873550D01*
X148104769Y-65056043D01*
X148104769Y-65056044D01*
X148104768Y-65056046D01*
X148050267Y-65235716D01*
X148044699Y-65254070D01*
X148024416Y-65459999D01*
X147595583Y-65459999D01*
X147575300Y-65254066D01*
X147515232Y-65056046D01*
X147417685Y-64873550D01*
X147316291Y-64750000D01*
X147286410Y-64713589D01*
X147126449Y-64582314D01*
X146943956Y-64484769D01*
X146943955Y-64484768D01*
X146943954Y-64484768D01*
X146745934Y-64424700D01*
X146745931Y-64424699D01*
X146745929Y-64424699D01*
X146540000Y-64404416D01*
X146334070Y-64424699D01*
X146334067Y-64424699D01*
X146334066Y-64424700D01*
X146136046Y-64484768D01*
X146136043Y-64484769D01*
X145953550Y-64582314D01*
X145793589Y-64713589D01*
X145662314Y-64873550D01*
X145564769Y-65056043D01*
X145564769Y-65056044D01*
X145564768Y-65056046D01*
X145510267Y-65235716D01*
X145504699Y-65254070D01*
X145484416Y-65459999D01*
X145055583Y-65459999D01*
X145035300Y-65254066D01*
X144975232Y-65056046D01*
X144877685Y-64873550D01*
X144776291Y-64750000D01*
X144746410Y-64713589D01*
X144586449Y-64582314D01*
X144403956Y-64484769D01*
X144403955Y-64484768D01*
X144403954Y-64484768D01*
X144205934Y-64424700D01*
X144205931Y-64424699D01*
X144205929Y-64424699D01*
X144000000Y-64404416D01*
X143794070Y-64424699D01*
X143794067Y-64424699D01*
X143794066Y-64424700D01*
X143596046Y-64484768D01*
X143596043Y-64484769D01*
X143413550Y-64582314D01*
X143253589Y-64713589D01*
X143122314Y-64873550D01*
X143024769Y-65056043D01*
X143024769Y-65056044D01*
X143024768Y-65056046D01*
X142970267Y-65235716D01*
X142964699Y-65254070D01*
X142944416Y-65459999D01*
X142515583Y-65459999D01*
X142495300Y-65254066D01*
X142435232Y-65056046D01*
X142337685Y-64873550D01*
X142236291Y-64750000D01*
X142206410Y-64713589D01*
X142046449Y-64582314D01*
X141863956Y-64484769D01*
X141863955Y-64484768D01*
X141863954Y-64484768D01*
X141665934Y-64424700D01*
X141665931Y-64424699D01*
X141665929Y-64424699D01*
X141460000Y-64404416D01*
X141254070Y-64424699D01*
X141254067Y-64424699D01*
X141254066Y-64424700D01*
X141056046Y-64484768D01*
X141056043Y-64484769D01*
X140873550Y-64582314D01*
X140713589Y-64713589D01*
X140582314Y-64873550D01*
X140484769Y-65056043D01*
X140484769Y-65056044D01*
X140484768Y-65056046D01*
X140430267Y-65235716D01*
X140424699Y-65254070D01*
X140404416Y-65459999D01*
X139975583Y-65459999D01*
X139955300Y-65254066D01*
X139895232Y-65056046D01*
X139797685Y-64873550D01*
X139696291Y-64750000D01*
X139666410Y-64713589D01*
X139506449Y-64582314D01*
X139323956Y-64484769D01*
X139323955Y-64484768D01*
X139323954Y-64484768D01*
X139125934Y-64424700D01*
X139125931Y-64424699D01*
X139125929Y-64424699D01*
X138920000Y-64404416D01*
X138714070Y-64424699D01*
X138714067Y-64424699D01*
X138714066Y-64424700D01*
X138516046Y-64484768D01*
X138516043Y-64484769D01*
X138333550Y-64582314D01*
X138173589Y-64713589D01*
X138042314Y-64873550D01*
X137944767Y-65056047D01*
X137931192Y-65100799D01*
X137897098Y-65155858D01*
X137840158Y-65186710D01*
X137775414Y-65185204D01*
X137719971Y-65151738D01*
X137688473Y-65095153D01*
X137668819Y-65017542D01*
X137578417Y-64811446D01*
X137503076Y-64696132D01*
X136739210Y-65460000D01*
X136739210Y-65460001D01*
X136020789Y-65460001D01*
X136020790Y-65460000D01*
X135256922Y-64696133D01*
X135181580Y-64811451D01*
X135091180Y-65017543D01*
X135035931Y-65235716D01*
X135017346Y-65460000D01*
X125950500Y-65460000D01*
X125950500Y-64335101D01*
X135614310Y-64335101D01*
X136379999Y-65100790D01*
X136380000Y-65100790D01*
X137145688Y-64335101D01*
X150854310Y-64335101D01*
X151619999Y-65100790D01*
X151620000Y-65100790D01*
X152385688Y-64335101D01*
X174394310Y-64335101D01*
X175159999Y-65100790D01*
X175160000Y-65100790D01*
X175925689Y-64335100D01*
X175925688Y-64335099D01*
X175905302Y-64319232D01*
X175707371Y-64212117D01*
X175494508Y-64139042D01*
X175272530Y-64102000D01*
X175047470Y-64102000D01*
X174825491Y-64139042D01*
X174612628Y-64212117D01*
X174414700Y-64319231D01*
X174394310Y-64335099D01*
X174394310Y-64335101D01*
X152385688Y-64335101D01*
X152385689Y-64335100D01*
X152385688Y-64335099D01*
X152365302Y-64319232D01*
X152167371Y-64212117D01*
X151954508Y-64139042D01*
X151732530Y-64102000D01*
X151507470Y-64102000D01*
X151285491Y-64139042D01*
X151072628Y-64212117D01*
X150874700Y-64319231D01*
X150854310Y-64335099D01*
X150854310Y-64335101D01*
X137145688Y-64335101D01*
X137145689Y-64335100D01*
X137145688Y-64335099D01*
X137125302Y-64319232D01*
X136927371Y-64212117D01*
X136714508Y-64139042D01*
X136492530Y-64102000D01*
X136267470Y-64102000D01*
X136045491Y-64139042D01*
X135832628Y-64212117D01*
X135634700Y-64319231D01*
X135614310Y-64335099D01*
X135614310Y-64335101D01*
X125950500Y-64335101D01*
X125950500Y-63880252D01*
X125938867Y-63821769D01*
X125907462Y-63774769D01*
X125894552Y-63755447D01*
X125828231Y-63711133D01*
X125828230Y-63711132D01*
X125769748Y-63699500D01*
X124030252Y-63699500D01*
X124001010Y-63705316D01*
X123971768Y-63711133D01*
X123905447Y-63755447D01*
X123861133Y-63821768D01*
X123849500Y-63880253D01*
X123849500Y-65619747D01*
X122956123Y-65619747D01*
X123106410Y-65496410D01*
X123237685Y-65336450D01*
X123335232Y-65153954D01*
X123395300Y-64955934D01*
X123415583Y-64750000D01*
X123395300Y-64544066D01*
X123335232Y-64346046D01*
X123237685Y-64163550D01*
X123187173Y-64102000D01*
X123106410Y-64003589D01*
X122946449Y-63872314D01*
X122763956Y-63774769D01*
X122763955Y-63774768D01*
X122763954Y-63774768D01*
X122565934Y-63714700D01*
X122565931Y-63714699D01*
X122565929Y-63714699D01*
X122360000Y-63694416D01*
X122154070Y-63714699D01*
X122154067Y-63714699D01*
X122154066Y-63714700D01*
X121956046Y-63774768D01*
X121956043Y-63774769D01*
X121773550Y-63872314D01*
X121613589Y-64003589D01*
X121482314Y-64163550D01*
X121384769Y-64346043D01*
X121384768Y-64346045D01*
X121384768Y-64346046D01*
X121342688Y-64484769D01*
X121324699Y-64544070D01*
X121304416Y-64750000D01*
X112500000Y-64750000D01*
X112500000Y-58626000D01*
X112516881Y-58563000D01*
X112563000Y-58516881D01*
X112626000Y-58500000D01*
X189374000Y-58500000D01*
X189437000Y-58516881D01*
G37*
G04 #@! TD.AperFunction*
D27*
X137800000Y-108500000D03*
X154900000Y-108500000D03*
X175800000Y-139000000D03*
X164200000Y-118000000D03*
X147400000Y-118000000D03*
X119000000Y-98500000D03*
X128100000Y-140475000D03*
X133100000Y-144000000D03*
X129300000Y-153475000D03*
X126500000Y-138775000D03*
X129800000Y-102000000D03*
X130200000Y-118000000D03*
X152500000Y-121300000D03*
X122000000Y-72400000D03*
X119500000Y-151075000D03*
X145000000Y-90900000D03*
X164300000Y-120000000D03*
X146900000Y-75200000D03*
X130300000Y-120000000D03*
X149100000Y-89000000D03*
X127600000Y-87100000D03*
X117500000Y-145974500D03*
X121000000Y-103700000D03*
X133000000Y-149800000D03*
X147300000Y-120000000D03*
X130900000Y-94900000D03*
X165400000Y-91500000D03*
X150600000Y-79900000D03*
X124426771Y-138802921D03*
X159800000Y-91500000D03*
X142500000Y-76900000D03*
X141000000Y-146000000D03*
X129900000Y-141875000D03*
X131400000Y-147149500D03*
X129300000Y-155300000D03*
X167900000Y-98900000D03*
X146100000Y-98900000D03*
X144399531Y-106600469D03*
X131999659Y-108106479D03*
X146100000Y-97500497D03*
X156994064Y-94899500D03*
X142400497Y-105300000D03*
X131992998Y-105307499D03*
X147600000Y-97000000D03*
X167300000Y-95100000D03*
X141000000Y-104900000D03*
X132000000Y-103900994D03*
X147200000Y-95400000D03*
X180600000Y-93300000D03*
X125100000Y-94500000D03*
X138000000Y-95200000D03*
X153800000Y-111000000D03*
X136500000Y-112100000D03*
X178200000Y-112200000D03*
X138100000Y-112100000D03*
X174500000Y-112100000D03*
X136000000Y-96800000D03*
X155200000Y-112100000D03*
X139500000Y-96800000D03*
X126506505Y-94507002D03*
X128999503Y-76800000D03*
X127600000Y-76800000D03*
X182012933Y-104035462D03*
X158503904Y-107165261D03*
X159493502Y-108154859D03*
X183063782Y-104959758D03*
X184000000Y-106000000D03*
X160445500Y-109180679D03*
X169250000Y-110500980D03*
X134400000Y-98500000D03*
X177500000Y-142700000D03*
X127200000Y-133000000D03*
X127206754Y-131593246D03*
X179500000Y-142700000D03*
X185817303Y-125615354D03*
X177390910Y-129639885D03*
X176146517Y-128999500D03*
X184399363Y-125619787D03*
X183000000Y-125600000D03*
X175000000Y-128000000D03*
X126449020Y-103500000D03*
X118199554Y-122200000D03*
X130800000Y-76800000D03*
X124850000Y-75700500D03*
X116800051Y-122200000D03*
X119599057Y-122200000D03*
X120300000Y-76400000D03*
X120998560Y-122200000D03*
X120100000Y-81100000D03*
X168000000Y-103000000D03*
X132001215Y-106706977D03*
X144500000Y-108200000D03*
X169400000Y-103100000D03*
X145800000Y-102700000D03*
X157800000Y-101900000D03*
X182401460Y-117400000D03*
X156700000Y-126600000D03*
X183000980Y-118704523D03*
X158400000Y-126600000D03*
X159893246Y-126606754D03*
X183600500Y-119969109D03*
X162800000Y-126100000D03*
X184600000Y-121039730D03*
X117900500Y-76400000D03*
X165000000Y-68000000D03*
X165000000Y-65460000D03*
X167540000Y-68000000D03*
X167540000Y-65460000D03*
X170080000Y-68000000D03*
X170080000Y-65460000D03*
X172620000Y-68000000D03*
X172620000Y-65460000D03*
X175160000Y-68000000D03*
X175160000Y-65460000D03*
X136380000Y-68000000D03*
X136380000Y-65460000D03*
X138920000Y-68000000D03*
X138920000Y-65460000D03*
X141460000Y-68000000D03*
X141460000Y-65460000D03*
X144000000Y-68000000D03*
X144000000Y-65460000D03*
X146540000Y-68000000D03*
X146540000Y-65460000D03*
X149080000Y-68000000D03*
X149080000Y-65460000D03*
X151620000Y-68000000D03*
X151620000Y-65460000D03*
X124900000Y-64750000D03*
X122360000Y-64750000D03*
X155930588Y-147000000D03*
D28*
X184500000Y-139550000D03*
X184500000Y-150450000D03*
D27*
X185750000Y-147500000D03*
X185750000Y-142500000D03*
X185750000Y-145000000D03*
X183250000Y-142500000D03*
X183250000Y-147500000D03*
X148500000Y-148500000D03*
X148500000Y-145960000D03*
X148500000Y-143420000D03*
X121000000Y-119000000D03*
X121000000Y-116460000D03*
X121000000Y-113920000D03*
X121000000Y-111380000D03*
X121000000Y-108840000D03*
X121000000Y-106300000D03*
M02*
