G04 #@! TF.GenerationSoftware,KiCad,Pcbnew,6.0.6-2.fc35*
G04 #@! TF.CreationDate,2022-07-15T01:43:17+02:00*
G04 #@! TF.ProjectId,cw-amp-controll-board,63772d61-6d70-42d6-936f-6e74726f6c6c,rev?*
G04 #@! TF.SameCoordinates,Original*
G04 #@! TF.FileFunction,Legend,Bot*
G04 #@! TF.FilePolarity,Positive*
%FSLAX46Y46*%
G04 Gerber Fmt 4.6, Leading zero omitted, Abs format (unit mm)*
G04 Created by KiCad (PCBNEW 6.0.6-2.fc35) date 2022-07-15 01:43:17*
%MOMM*%
%LPD*%
G01*
G04 APERTURE LIST*
G04 Aperture macros list*
%AMRoundRect*
0 Rectangle with rounded corners*
0 $1 Rounding radius*
0 $2 $3 $4 $5 $6 $7 $8 $9 X,Y pos of 4 corners*
0 Add a 4 corners polygon primitive as box body*
4,1,4,$2,$3,$4,$5,$6,$7,$8,$9,$2,$3,0*
0 Add four circle primitives for the rounded corners*
1,1,$1+$1,$2,$3*
1,1,$1+$1,$4,$5*
1,1,$1+$1,$6,$7*
1,1,$1+$1,$8,$9*
0 Add four rect primitives between the rounded corners*
20,1,$1+$1,$2,$3,$4,$5,0*
20,1,$1+$1,$4,$5,$6,$7,0*
20,1,$1+$1,$6,$7,$8,$9,0*
20,1,$1+$1,$8,$9,$2,$3,0*%
%AMFreePoly0*
4,1,22,0.500000,-0.750000,0.000000,-0.750000,0.000000,-0.745033,-0.079941,-0.743568,-0.215256,-0.701293,-0.333266,-0.622738,-0.424486,-0.514219,-0.481581,-0.384460,-0.499164,-0.250000,-0.500000,-0.250000,-0.500000,0.250000,-0.499164,0.250000,-0.499963,0.256109,-0.478152,0.396186,-0.417904,0.524511,-0.324060,0.630769,-0.204165,0.706417,-0.067858,0.745374,0.000000,0.744959,0.000000,0.750000,
0.500000,0.750000,0.500000,-0.750000,0.500000,-0.750000,$1*%
%AMFreePoly1*
4,1,20,0.000000,0.744959,0.073905,0.744508,0.209726,0.703889,0.328688,0.626782,0.421226,0.519385,0.479903,0.390333,0.500000,0.250000,0.500000,-0.250000,0.499851,-0.262216,0.476331,-0.402017,0.414519,-0.529596,0.319384,-0.634700,0.198574,-0.708877,0.061801,-0.746166,0.000000,-0.745033,0.000000,-0.750000,-0.500000,-0.750000,-0.500000,0.750000,0.000000,0.750000,0.000000,0.744959,
0.000000,0.744959,$1*%
G04 Aperture macros list end*
%ADD10C,0.150000*%
%ADD11C,0.300000*%
%ADD12C,0.120000*%
%ADD13RoundRect,0.250000X0.600000X-0.600000X0.600000X0.600000X-0.600000X0.600000X-0.600000X-0.600000X0*%
%ADD14C,1.700000*%
%ADD15R,1.700000X1.700000*%
%ADD16O,1.700000X1.700000*%
%ADD17C,7.000000*%
%ADD18O,3.500000X2.600000*%
%ADD19C,1.800000*%
%ADD20FreePoly0,270.000000*%
%ADD21FreePoly1,270.000000*%
%ADD22FreePoly0,180.000000*%
%ADD23FreePoly1,180.000000*%
G04 APERTURE END LIST*
D10*
X114200000Y-153200000D02*
X113800000Y-153200000D01*
X116700000Y-151000000D02*
X115300000Y-151000000D01*
X115300000Y-148800000D02*
X115300000Y-153200000D01*
X113800000Y-153200000D02*
X115300000Y-151400000D01*
X117400000Y-147800000D02*
X117400000Y-148800000D01*
X113800000Y-148800000D02*
X115300000Y-150600000D01*
X116700000Y-153200000D02*
X118100000Y-153200000D01*
X118100000Y-153200000D02*
X118100000Y-148800000D01*
X118100000Y-148800000D02*
X116700000Y-148800000D01*
X117400000Y-154200000D02*
X117400000Y-153200000D01*
X116700000Y-148800000D02*
X116700000Y-153200000D01*
X113800000Y-152700000D02*
X113800000Y-153200000D01*
D11*
X139892857Y-61535714D02*
X139964285Y-61607142D01*
X140178571Y-61678571D01*
X140321428Y-61678571D01*
X140535714Y-61607142D01*
X140678571Y-61464285D01*
X140750000Y-61321428D01*
X140821428Y-61035714D01*
X140821428Y-60821428D01*
X140750000Y-60535714D01*
X140678571Y-60392857D01*
X140535714Y-60250000D01*
X140321428Y-60178571D01*
X140178571Y-60178571D01*
X139964285Y-60250000D01*
X139892857Y-60321428D01*
X138321428Y-60964285D02*
X138392857Y-60892857D01*
X138535714Y-60821428D01*
X138678571Y-60821428D01*
X138821428Y-60892857D01*
X138892857Y-60964285D01*
X138964285Y-61107142D01*
X138964285Y-61250000D01*
X138892857Y-61392857D01*
X138821428Y-61464285D01*
X138678571Y-61535714D01*
X138535714Y-61535714D01*
X138392857Y-61464285D01*
X138321428Y-61392857D01*
X138321428Y-60821428D02*
X138321428Y-61392857D01*
X138250000Y-61464285D01*
X138178571Y-61464285D01*
X138035714Y-61392857D01*
X137964285Y-61250000D01*
X137964285Y-60892857D01*
X138107142Y-60678571D01*
X138321428Y-60535714D01*
X138607142Y-60464285D01*
X138892857Y-60535714D01*
X139107142Y-60678571D01*
X139250000Y-60892857D01*
X139321428Y-61178571D01*
X139250000Y-61464285D01*
X139107142Y-61678571D01*
X138892857Y-61821428D01*
X138607142Y-61892857D01*
X138321428Y-61821428D01*
X138107142Y-61678571D01*
X137321428Y-61678571D02*
X137321428Y-60678571D01*
X137321428Y-60821428D02*
X137250000Y-60750000D01*
X137107142Y-60678571D01*
X136892857Y-60678571D01*
X136750000Y-60750000D01*
X136678571Y-60892857D01*
X136678571Y-61678571D01*
X136678571Y-60892857D02*
X136607142Y-60750000D01*
X136464285Y-60678571D01*
X136250000Y-60678571D01*
X136107142Y-60750000D01*
X136035714Y-60892857D01*
X136035714Y-61678571D01*
X135321428Y-60678571D02*
X135321428Y-62178571D01*
X135321428Y-60750000D02*
X135178571Y-60678571D01*
X134892857Y-60678571D01*
X134750000Y-60750000D01*
X134678571Y-60821428D01*
X134607142Y-60964285D01*
X134607142Y-61392857D01*
X134678571Y-61535714D01*
X134750000Y-61607142D01*
X134892857Y-61678571D01*
X135178571Y-61678571D01*
X135321428Y-61607142D01*
X133321428Y-60678571D02*
X133321428Y-61678571D01*
X133964285Y-60678571D02*
X133964285Y-61464285D01*
X133892857Y-61607142D01*
X133750000Y-61678571D01*
X133535714Y-61678571D01*
X133392857Y-61607142D01*
X133321428Y-61535714D01*
X132678571Y-61607142D02*
X132535714Y-61678571D01*
X132250000Y-61678571D01*
X132107142Y-61607142D01*
X132035714Y-61464285D01*
X132035714Y-61392857D01*
X132107142Y-61250000D01*
X132250000Y-61178571D01*
X132464285Y-61178571D01*
X132607142Y-61107142D01*
X132678571Y-60964285D01*
X132678571Y-60892857D01*
X132607142Y-60750000D01*
X132464285Y-60678571D01*
X132250000Y-60678571D01*
X132107142Y-60750000D01*
X131535714Y-60678571D02*
X131250000Y-61678571D01*
X130964285Y-60964285D01*
X130678571Y-61678571D01*
X130392857Y-60678571D01*
X129607142Y-61678571D02*
X129750000Y-61607142D01*
X129821428Y-61535714D01*
X129892857Y-61392857D01*
X129892857Y-60964285D01*
X129821428Y-60821428D01*
X129750000Y-60750000D01*
X129607142Y-60678571D01*
X129392857Y-60678571D01*
X129250000Y-60750000D01*
X129178571Y-60821428D01*
X129107142Y-60964285D01*
X129107142Y-61392857D01*
X129178571Y-61535714D01*
X129250000Y-61607142D01*
X129392857Y-61678571D01*
X129607142Y-61678571D01*
X127821428Y-61607142D02*
X127964285Y-61678571D01*
X128250000Y-61678571D01*
X128392857Y-61607142D01*
X128464285Y-61535714D01*
X128535714Y-61392857D01*
X128535714Y-60964285D01*
X128464285Y-60821428D01*
X128392857Y-60750000D01*
X128250000Y-60678571D01*
X127964285Y-60678571D01*
X127821428Y-60750000D01*
X127178571Y-61678571D02*
X127178571Y-60178571D01*
X126535714Y-61678571D02*
X126535714Y-60892857D01*
X126607142Y-60750000D01*
X126750000Y-60678571D01*
X126964285Y-60678571D01*
X127107142Y-60750000D01*
X127178571Y-60821428D01*
X125250000Y-61607142D02*
X125392857Y-61678571D01*
X125678571Y-61678571D01*
X125821428Y-61607142D01*
X125892857Y-61464285D01*
X125892857Y-60892857D01*
X125821428Y-60750000D01*
X125678571Y-60678571D01*
X125392857Y-60678571D01*
X125250000Y-60750000D01*
X125178571Y-60892857D01*
X125178571Y-61035714D01*
X125892857Y-61178571D01*
X180090714Y-60178571D02*
X179733571Y-61678571D01*
X179447857Y-60607142D01*
X179162142Y-61678571D01*
X178805000Y-60178571D01*
X177662142Y-61607142D02*
X177805000Y-61678571D01*
X178090714Y-61678571D01*
X178233571Y-61607142D01*
X178305000Y-61464285D01*
X178305000Y-60892857D01*
X178233571Y-60750000D01*
X178090714Y-60678571D01*
X177805000Y-60678571D01*
X177662142Y-60750000D01*
X177590714Y-60892857D01*
X177590714Y-61035714D01*
X178305000Y-61178571D01*
X177019285Y-61607142D02*
X176876428Y-61678571D01*
X176590714Y-61678571D01*
X176447857Y-61607142D01*
X176376428Y-61464285D01*
X176376428Y-61392857D01*
X176447857Y-61250000D01*
X176590714Y-61178571D01*
X176805000Y-61178571D01*
X176947857Y-61107142D01*
X177019285Y-60964285D01*
X177019285Y-60892857D01*
X176947857Y-60750000D01*
X176805000Y-60678571D01*
X176590714Y-60678571D01*
X176447857Y-60750000D01*
X175947857Y-60678571D02*
X175376428Y-60678571D01*
X175733571Y-60178571D02*
X175733571Y-61464285D01*
X175662142Y-61607142D01*
X175519285Y-61678571D01*
X175376428Y-61678571D01*
X175090714Y-60678571D02*
X174519285Y-60678571D01*
X174876428Y-61678571D02*
X174876428Y-60392857D01*
X174805000Y-60250000D01*
X174662142Y-60178571D01*
X174519285Y-60178571D01*
X173376428Y-61678571D02*
X173376428Y-60892857D01*
X173447857Y-60750000D01*
X173590714Y-60678571D01*
X173876428Y-60678571D01*
X174019285Y-60750000D01*
X173376428Y-61607142D02*
X173519285Y-61678571D01*
X173876428Y-61678571D01*
X174019285Y-61607142D01*
X174090714Y-61464285D01*
X174090714Y-61321428D01*
X174019285Y-61178571D01*
X173876428Y-61107142D01*
X173519285Y-61107142D01*
X173376428Y-61035714D01*
X174019285Y-60178571D02*
X173947857Y-60250000D01*
X174019285Y-60321428D01*
X174090714Y-60250000D01*
X174019285Y-60178571D01*
X174019285Y-60321428D01*
X173447857Y-60178571D02*
X173376428Y-60250000D01*
X173447857Y-60321428D01*
X173519285Y-60250000D01*
X173447857Y-60178571D01*
X173447857Y-60321428D01*
X172447857Y-61678571D02*
X172590714Y-61607142D01*
X172662142Y-61464285D01*
X172662142Y-60178571D01*
X171876428Y-61678571D02*
X171876428Y-60678571D01*
X171876428Y-60178571D02*
X171947857Y-60250000D01*
X171876428Y-60321428D01*
X171805000Y-60250000D01*
X171876428Y-60178571D01*
X171876428Y-60321428D01*
X171233571Y-61607142D02*
X171090714Y-61678571D01*
X170805000Y-61678571D01*
X170662142Y-61607142D01*
X170590714Y-61464285D01*
X170590714Y-61392857D01*
X170662142Y-61250000D01*
X170805000Y-61178571D01*
X171019285Y-61178571D01*
X171162142Y-61107142D01*
X171233571Y-60964285D01*
X171233571Y-60892857D01*
X171162142Y-60750000D01*
X171019285Y-60678571D01*
X170805000Y-60678571D01*
X170662142Y-60750000D01*
X169305000Y-61607142D02*
X169447857Y-61678571D01*
X169733571Y-61678571D01*
X169876428Y-61607142D01*
X169947857Y-61535714D01*
X170019285Y-61392857D01*
X170019285Y-60964285D01*
X169947857Y-60821428D01*
X169876428Y-60750000D01*
X169733571Y-60678571D01*
X169447857Y-60678571D01*
X169305000Y-60750000D01*
X168662142Y-61678571D02*
X168662142Y-60178571D01*
X168019285Y-61678571D02*
X168019285Y-60892857D01*
X168090714Y-60750000D01*
X168233571Y-60678571D01*
X168447857Y-60678571D01*
X168590714Y-60750000D01*
X168662142Y-60821428D01*
X166733571Y-61607142D02*
X166876428Y-61678571D01*
X167162142Y-61678571D01*
X167305000Y-61607142D01*
X167376428Y-61464285D01*
X167376428Y-60892857D01*
X167305000Y-60750000D01*
X167162142Y-60678571D01*
X166876428Y-60678571D01*
X166733571Y-60750000D01*
X166662142Y-60892857D01*
X166662142Y-61035714D01*
X167376428Y-61178571D01*
X164876428Y-61678571D02*
X164876428Y-60178571D01*
X164876428Y-60892857D02*
X164019285Y-60892857D01*
X164019285Y-61678571D02*
X164019285Y-60178571D01*
X163090714Y-61678571D02*
X163233571Y-61607142D01*
X163305000Y-61535714D01*
X163376428Y-61392857D01*
X163376428Y-60964285D01*
X163305000Y-60821428D01*
X163233571Y-60750000D01*
X163090714Y-60678571D01*
X162876428Y-60678571D01*
X162733571Y-60750000D01*
X162662142Y-60821428D01*
X162590714Y-60964285D01*
X162590714Y-61392857D01*
X162662142Y-61535714D01*
X162733571Y-61607142D01*
X162876428Y-61678571D01*
X163090714Y-61678571D01*
X161305000Y-61607142D02*
X161447857Y-61678571D01*
X161733571Y-61678571D01*
X161876428Y-61607142D01*
X161947857Y-61535714D01*
X162019285Y-61392857D01*
X162019285Y-60964285D01*
X161947857Y-60821428D01*
X161876428Y-60750000D01*
X161733571Y-60678571D01*
X161447857Y-60678571D01*
X161305000Y-60750000D01*
X160662142Y-61678571D02*
X160662142Y-60178571D01*
X160019285Y-61678571D02*
X160019285Y-60892857D01*
X160090714Y-60750000D01*
X160233571Y-60678571D01*
X160447857Y-60678571D01*
X160590714Y-60750000D01*
X160662142Y-60821428D01*
X159376428Y-61607142D02*
X159233571Y-61678571D01*
X158947857Y-61678571D01*
X158805000Y-61607142D01*
X158733571Y-61464285D01*
X158733571Y-61392857D01*
X158805000Y-61250000D01*
X158947857Y-61178571D01*
X159162142Y-61178571D01*
X159305000Y-61107142D01*
X159376428Y-60964285D01*
X159376428Y-60892857D01*
X159305000Y-60750000D01*
X159162142Y-60678571D01*
X158947857Y-60678571D01*
X158805000Y-60750000D01*
X157447857Y-61607142D02*
X157590714Y-61678571D01*
X157876428Y-61678571D01*
X158019285Y-61607142D01*
X158090714Y-61535714D01*
X158162142Y-61392857D01*
X158162142Y-60964285D01*
X158090714Y-60821428D01*
X158019285Y-60750000D01*
X157876428Y-60678571D01*
X157590714Y-60678571D01*
X157447857Y-60750000D01*
X156805000Y-61678571D02*
X156805000Y-60178571D01*
X156162142Y-61678571D02*
X156162142Y-60892857D01*
X156233571Y-60750000D01*
X156376428Y-60678571D01*
X156590714Y-60678571D01*
X156733571Y-60750000D01*
X156805000Y-60821428D01*
X154805000Y-60678571D02*
X154805000Y-61678571D01*
X155447857Y-60678571D02*
X155447857Y-61464285D01*
X155376428Y-61607142D01*
X155233571Y-61678571D01*
X155019285Y-61678571D01*
X154876428Y-61607142D01*
X154805000Y-61535714D01*
X153876428Y-61678571D02*
X154019285Y-61607142D01*
X154090714Y-61464285D01*
X154090714Y-60178571D01*
X152733571Y-61607142D02*
X152876428Y-61678571D01*
X153162142Y-61678571D01*
X153305000Y-61607142D01*
X153376428Y-61464285D01*
X153376428Y-60892857D01*
X153305000Y-60750000D01*
X153162142Y-60678571D01*
X152876428Y-60678571D01*
X152733571Y-60750000D01*
X152662142Y-60892857D01*
X152662142Y-61035714D01*
X153376428Y-61178571D01*
D10*
X118266666Y-155428571D02*
X118266666Y-155961904D01*
X118457142Y-155123809D02*
X118647619Y-155695238D01*
X118152380Y-155695238D01*
X117885714Y-155238095D02*
X117847619Y-155200000D01*
X117771428Y-155161904D01*
X117580952Y-155161904D01*
X117504761Y-155200000D01*
X117466666Y-155238095D01*
X117428571Y-155314285D01*
X117428571Y-155390476D01*
X117466666Y-155504761D01*
X117923809Y-155961904D01*
X117428571Y-155961904D01*
X117200000Y-155161904D02*
X116933333Y-155961904D01*
X116666666Y-155161904D01*
X116285714Y-155961904D02*
X116361904Y-155923809D01*
X116400000Y-155885714D01*
X116438095Y-155809523D01*
X116438095Y-155580952D01*
X116400000Y-155504761D01*
X116361904Y-155466666D01*
X116285714Y-155428571D01*
X116171428Y-155428571D01*
X116095238Y-155466666D01*
X116057142Y-155504761D01*
X116019047Y-155580952D01*
X116019047Y-155809523D01*
X116057142Y-155885714D01*
X116095238Y-155923809D01*
X116171428Y-155961904D01*
X116285714Y-155961904D01*
X115561904Y-155961904D02*
X115638095Y-155923809D01*
X115676190Y-155847619D01*
X115676190Y-155161904D01*
X115371428Y-155428571D02*
X115066666Y-155428571D01*
X115257142Y-155161904D02*
X115257142Y-155847619D01*
X115219047Y-155923809D01*
X115142857Y-155961904D01*
X115066666Y-155961904D01*
X114800000Y-155885714D02*
X114761904Y-155923809D01*
X114800000Y-155961904D01*
X114838095Y-155923809D01*
X114800000Y-155885714D01*
X114800000Y-155961904D01*
X114076190Y-155961904D02*
X114076190Y-155161904D01*
X114076190Y-155923809D02*
X114152380Y-155961904D01*
X114304761Y-155961904D01*
X114380952Y-155923809D01*
X114419047Y-155885714D01*
X114457142Y-155809523D01*
X114457142Y-155580952D01*
X114419047Y-155504761D01*
X114380952Y-155466666D01*
X114304761Y-155428571D01*
X114152380Y-155428571D01*
X114076190Y-155466666D01*
X113390476Y-155923809D02*
X113466666Y-155961904D01*
X113619047Y-155961904D01*
X113695238Y-155923809D01*
X113733333Y-155847619D01*
X113733333Y-155542857D01*
X113695238Y-155466666D01*
X113619047Y-155428571D01*
X113466666Y-155428571D01*
X113390476Y-155466666D01*
X113352380Y-155542857D01*
X113352380Y-155619047D01*
X113733333Y-155695238D01*
D12*
X127500000Y-145175000D02*
X127500000Y-143775000D01*
X125500000Y-143775000D02*
X125500000Y-145175000D01*
X126200000Y-145875000D02*
X126800000Y-145875000D01*
X126800000Y-143075000D02*
X126200000Y-143075000D01*
X127500000Y-143775000D02*
G75*
G03*
X126800000Y-143075000I-699999J1D01*
G01*
X126800000Y-145875000D02*
G75*
G03*
X127500000Y-145175000I0J700000D01*
G01*
X126200000Y-143075000D02*
G75*
G03*
X125500000Y-143775000I-1J-699999D01*
G01*
X125500000Y-145175000D02*
G75*
G03*
X126200000Y-145875000I700000J0D01*
G01*
X125200000Y-115500000D02*
X123800000Y-115500000D01*
X125900000Y-116800000D02*
X125900000Y-116200000D01*
X123100000Y-116200000D02*
X123100000Y-116800000D01*
X123800000Y-117500000D02*
X125200000Y-117500000D01*
X123800000Y-115500000D02*
G75*
G03*
X123100000Y-116200000I0J-700000D01*
G01*
X123100000Y-116800000D02*
G75*
G03*
X123800000Y-117500000I700000J0D01*
G01*
X125900000Y-116200000D02*
G75*
G03*
X125200000Y-115500000I-699999J1D01*
G01*
X125200000Y-117500000D02*
G75*
G03*
X125900000Y-116800000I1J699999D01*
G01*
%LPC*%
D13*
X165000000Y-68000000D03*
D14*
X165000000Y-65460000D03*
X167540000Y-68000000D03*
X167540000Y-65460000D03*
X170080000Y-68000000D03*
X170080000Y-65460000D03*
X172620000Y-68000000D03*
X172620000Y-65460000D03*
X175160000Y-68000000D03*
X175160000Y-65460000D03*
D13*
X136380000Y-68000000D03*
D14*
X136380000Y-65460000D03*
X138920000Y-68000000D03*
X138920000Y-65460000D03*
X141460000Y-68000000D03*
X141460000Y-65460000D03*
X144000000Y-68000000D03*
X144000000Y-65460000D03*
X146540000Y-68000000D03*
X146540000Y-65460000D03*
X149080000Y-68000000D03*
X149080000Y-65460000D03*
X151620000Y-68000000D03*
X151620000Y-65460000D03*
D15*
X124900000Y-64750000D03*
D16*
X122360000Y-64750000D03*
D17*
X155930588Y-147000000D03*
D18*
X184500000Y-139550000D03*
X184500000Y-150450000D03*
D19*
X185750000Y-147500000D03*
X185750000Y-142500000D03*
X185750000Y-145000000D03*
X183250000Y-142500000D03*
X183250000Y-147500000D03*
D15*
X148500000Y-148500000D03*
D16*
X148500000Y-145960000D03*
X148500000Y-143420000D03*
D15*
X121000000Y-119000000D03*
D16*
X121000000Y-116460000D03*
X121000000Y-113920000D03*
X121000000Y-111380000D03*
X121000000Y-108840000D03*
X121000000Y-106300000D03*
D20*
X126500000Y-143825000D03*
D21*
X126500000Y-145125000D03*
D22*
X125150000Y-116500000D03*
D23*
X123850000Y-116500000D03*
M02*
