M48
; DRILL file {KiCad 6.0.6-2.fc35} date Fri 15 Jul 2022 01:43:21 AM CEST
; FORMAT={-:-/ absolute / metric / decimal}
; #@! TF.CreationDate,2022-07-15T01:43:21+02:00
; #@! TF.GenerationSoftware,Kicad,Pcbnew,6.0.6-2.fc35
; #@! TF.FileFunction,Plated,1,4,PTH
FMAT,2
METRIC
; #@! TA.AperFunction,Plated,PTH,ViaDrill
T1C0.800
; #@! TA.AperFunction,Plated,PTH,ComponentDrill
T2C1.000
; #@! TA.AperFunction,Plated,PTH,ComponentDrill
T3C3.500
%
G90
G05
T1
X116.8Y-122.2
X117.5Y-145.975
X117.9Y-76.4
X118.2Y-122.2
X119.0Y-98.5
X119.5Y-151.075
X119.599Y-122.2
X120.1Y-81.1
X120.3Y-76.4
X120.999Y-122.2
X121.0Y-103.7
X122.0Y-72.4
X124.427Y-138.803
X124.85Y-75.7
X125.1Y-94.5
X126.449Y-103.5
X126.5Y-138.775
X126.507Y-94.507
X127.2Y-133.0
X127.207Y-131.593
X127.6Y-76.8
X127.6Y-87.1
X128.1Y-140.475
X129.0Y-76.8
X129.3Y-153.475
X129.3Y-155.3
X129.8Y-102.0
X129.9Y-141.875
X130.2Y-118.0
X130.3Y-120.0
X130.8Y-76.8
X130.9Y-94.9
X131.4Y-147.149
X131.993Y-105.307
X132.0Y-108.106
X132.0Y-103.901
X132.001Y-106.707
X133.0Y-149.8
X133.1Y-144.0
X134.4Y-98.5
X136.0Y-96.8
X136.5Y-112.1
X137.8Y-108.5
X138.0Y-95.2
X138.1Y-112.1
X139.5Y-96.8
X141.0Y-104.9
X141.0Y-146.0
X142.4Y-105.3
X142.5Y-76.9
X143.8Y-105.3
X143.8Y-106.7
X145.0Y-90.9
X146.9Y-75.2
X147.2Y-95.4
X147.3Y-120.0
X147.4Y-118.0
X149.1Y-89.0
X150.6Y-79.9
X152.5Y-121.3
X153.8Y-111.0
X154.9Y-108.5
X155.2Y-112.1
X155.7Y-88.1
X156.7Y-126.6
X158.4Y-126.6
X158.504Y-107.165
X159.0Y-102.0
X159.494Y-108.155
X159.893Y-126.607
X160.445Y-109.181
X162.8Y-126.1
X164.2Y-118.0
X164.3Y-120.0
X166.0Y-102.0
X169.25Y-110.501
X173.0Y-102.0
X174.5Y-112.1
X175.0Y-128.0
X175.8Y-139.0
X176.147Y-128.999
X177.391Y-129.64
X177.5Y-142.7
X178.0Y-102.0
X178.2Y-112.2
X179.5Y-142.7
X182.013Y-104.035
X182.401Y-117.4
X183.0Y-125.6
X183.001Y-118.705
X183.064Y-104.96
X183.6Y-119.969
X184.0Y-106.0
X184.399Y-125.62
X184.6Y-121.04
X185.817Y-125.615
T2
X121.0Y-106.3
X121.0Y-108.84
X121.0Y-111.38
X121.0Y-113.92
X121.0Y-116.46
X121.0Y-119.0
X122.36Y-64.75
X124.9Y-64.75
X136.38Y-65.46
X136.38Y-68.0
X138.92Y-65.46
X138.92Y-68.0
X141.46Y-65.46
X141.46Y-68.0
X144.0Y-65.46
X144.0Y-68.0
X146.54Y-65.46
X146.54Y-68.0
X148.5Y-143.42
X148.5Y-145.96
X148.5Y-148.5
X149.08Y-65.46
X149.08Y-68.0
X151.62Y-65.46
X151.62Y-68.0
X165.0Y-65.46
X165.0Y-68.0
X167.54Y-65.46
X167.54Y-68.0
X170.08Y-65.46
X170.08Y-68.0
X172.62Y-65.46
X172.62Y-68.0
X175.16Y-65.46
X175.16Y-68.0
X183.25Y-142.5
X183.25Y-147.5
X185.75Y-142.5
X185.75Y-145.0
X185.75Y-147.5
T3
X155.931Y-147.0
T0
M30
